<?xml version="1.0" encoding="UTF-8"?>
<svg id="_x30_" xmlns="http://www.w3.org/2000/svg" version="1.1" viewBox="0 0 1700.8 963.8">
  <!-- Generator: Adobe Illustrator 29.7.1, SVG Export Plug-In . SVG Version: 2.1.1 Build 8)  -->
  <defs>
    <style>
      .st0 {
        fill: none;
        stroke: red;
        stroke-linecap: round;
        stroke-linejoin: round;
        stroke-width: .5px;
      }
    </style>
  </defs>
  <g id="LINE">
    <line class="st0" x1="925.6" y1="279.2" x2="818.6" y2="279.2"/>
  </g>
  <g id="ARC">
    <path class="st0" d="M818.6,279.2c-3,0-5.4,2.4-5.4,5.4s.3,2.1.9,3"/>
  </g>
  <g id="ARC1" data-name="ARC">
    <path class="st0" d="M817.5,298.7c0-3.9-1.2-7.8-3.4-11"/>
  </g>
  <g id="LINE1" data-name="LINE">
    <line class="st0" x1="817.5" y1="298.7" x2="817.5" y2="311.7"/>
  </g>
  <g id="ARC2" data-name="ARC">
    <path class="st0" d="M817.5,311.7c0,.8.6,1.4,1.4,1.4"/>
  </g>
  <g id="LINE2" data-name="LINE">
    <line class="st0" x1="818.9" y1="313.1" x2="826.1" y2="313.1"/>
  </g>
  <g id="ARC3" data-name="ARC">
    <path class="st0" d="M826.1,350c10.2,0,18.4-8.2,18.4-18.4s-8.2-18.4-18.4-18.4"/>
  </g>
  <g id="LINE3" data-name="LINE">
    <line class="st0" x1="826.1" y1="350" x2="818.9" y2="350"/>
  </g>
  <g id="ARC4" data-name="ARC">
    <path class="st0" d="M818.9,350c-.8,0-1.4.6-1.4,1.4"/>
  </g>
  <g id="LINE4" data-name="LINE">
    <line class="st0" x1="817.5" y1="351.4" x2="817.5" y2="410.9"/>
  </g>
  <g id="ARC5" data-name="ARC">
    <path class="st0" d="M797.6,430.8c11,0,19.8-8.9,19.8-19.8"/>
  </g>
  <g id="LINE5" data-name="LINE">
    <line class="st0" x1="797.6" y1="430.8" x2="775.2" y2="430.8"/>
  </g>
  <g id="ARC6" data-name="ARC">
    <path class="st0" d="M764.6,427.7c3.2,2,6.9,3.1,10.6,3.1"/>
  </g>
  <g id="ARC7" data-name="ARC">
    <path class="st0" d="M764.6,427.7c-2.5-1.6-5.8-.8-7.4,1.7s-.8,1.9-.8,2.9"/>
  </g>
  <g id="LINE6" data-name="LINE">
    <line class="st0" x1="756.4" y1="432.2" x2="756.4" y2="665.2"/>
  </g>
  <g id="ARC8" data-name="ARC">
    <path class="st0" d="M756.4,665.2c0,10.5,8.5,19.1,19.1,19.1"/>
  </g>
  <g id="LINE7" data-name="LINE">
    <line class="st0" x1="775.4" y1="684.3" x2="925.6" y2="684.3"/>
  </g>
  <g id="ARC9" data-name="ARC">
    <path class="st0" d="M925.6,684.3c10.5,0,19.1-8.5,19.1-19.1"/>
  </g>
  <g id="LINE8" data-name="LINE">
    <line class="st0" x1="944.6" y1="665.2" x2="944.6" y2="298.3"/>
  </g>
  <g id="ARC10" data-name="ARC">
    <path class="st0" d="M944.6,298.3c0-10.5-8.5-19.1-19.1-19.1"/>
  </g>
</svg>