<?xml version="1.0" encoding="UTF-8"?>
<svg id="_0" xmlns="http://www.w3.org/2000/svg" version="1.1"
  xmlns:i="http://ns.adobe.com/AdobeIllustrator/10.0/" viewBox="0 0 197.9 411.1">
  <!-- Generator: Adobe Illustrator 29.7.1, SVG Export Plug-In . SVG Version: 2.1.1 Build 8)  -->
  <g id="LINE">
    <line x1="162.8" y1=".3" x2="83.8" y2=".3" fill="none" stroke="red" stroke-linecap="round"
      stroke-linejoin="round" stroke-width=".5" />
  </g>
  <g id="ARC-2">
    <path d="M86.2,27c0-6.5-2.3-12.9-6.5-17.9-.8-1-1.3-2.2-1.3-3.5,0-3,2.4-5.4,5.4-5.4" fill="none"
      stroke="red" stroke-linecap="round" stroke-linejoin="round" stroke-width=".5" />
  </g>
  <g id="LINE-2">
    <line x1="86.2" y1="27" x2="86.2" y2="67.5" fill="none" stroke="red" stroke-linecap="round"
      stroke-linejoin="round" stroke-width=".5" />
  </g>
  <g id="ARC-3">
    <path d="M58.4,95.3c15.3,0,27.8-12.4,27.8-27.8h0" fill="none" stroke="red"
      stroke-linecap="round" stroke-linejoin="round" stroke-width=".5" />
  </g>
  <g id="LINE-3">
    <line x1="58.4" y1="95.3" x2="27" y2="95.3" fill="none" stroke="red" stroke-linecap="round"
      stroke-linejoin="round" stroke-width=".5" />
  </g>
  <g id="ARC-4">
    <path d="M9.1,88.8c5,4.2,11.3,6.5,17.9,6.5" fill="none" stroke="red" stroke-linecap="round"
      stroke-linejoin="round" stroke-width=".5" />
  </g>
  <g id="ARC-5">
    <path d="M9.1,88.8c-2.3-1.9-5.7-1.6-7.6.7-.8,1-1.3,2.2-1.3,3.5" fill="none" stroke="red"
      stroke-linecap="round" stroke-linejoin="round" stroke-width=".5" />
  </g>
  <g id="LINE-4">
    <line x1=".2" y1="92.9" x2=".2" y2="375.9" fill="none" stroke="red" stroke-linecap="round"
      stroke-linejoin="round" stroke-width=".5" />
  </g>
  <g id="SPLINE">
    <path
      d="M.2,375.9c0,1.1,0,2.2,0,3.3,0,2.2.1,4.4.3,6.5s.5,4.3,1,6.4c.5,2.1,1.2,4.1,2.2,6s2.3,3.7,3.8,5.2,3.2,2.7,5,3.7,3.9,1.8,5.9,2.3,4.2.9,6.3,1.1,4.2.3,6.4.4c1.3,0,2.6,0,4,0"
      fill="none" stroke="red" stroke-linecap="round" stroke-linejoin="round" stroke-width=".5" />
  </g>
  <g id="LINE-5">
    <line x1="35.2" y1="410.8" x2="162.8" y2="410.8" fill="none" stroke="red" stroke-linecap="round"
      stroke-linejoin="round" stroke-width=".5" />
  </g>
  <g id="SPLINE-2">
    <path
      d="M162.8,410.8c1.1,0,2.2,0,3.3,0,2.2,0,4.4-.1,6.5-.3s4.3-.5,6.4-1,4.1-1.2,6.1-2.2,3.7-2.3,5.2-3.8,2.7-3.2,3.7-5,1.8-3.9,2.3-5.9.9-4.2,1.1-6.3.3-4.2.4-6.4c0-1.3,0-2.6,0-4"
      fill="none" stroke="red" stroke-linecap="round" stroke-linejoin="round" stroke-width=".5" />
  </g>
  <g id="LINE-6">
    <line x1="197.7" y1="375.9" x2="197.7" y2="35.2" fill="none" stroke="red" stroke-linecap="round"
      stroke-linejoin="round" stroke-width=".5" />
  </g>
  <g id="SPLINE-3">
    <path
      d="M197.7,35.2c0-1.1,0-2.2,0-3.3,0-2.2-.1-4.4-.3-6.5s-.5-4.3-1-6.4-1.2-4.1-2.2-6.1-2.3-3.7-3.8-5.2-3.2-2.7-5-3.7-3.9-1.8-5.9-2.3-4.2-.9-6.3-1.1-4.2-.3-6.4-.3c-1.3,0-2.6,0-3.9,0"
      fill="none" stroke="red" stroke-linecap="round" stroke-linejoin="round" stroke-width=".5" />
  </g>
</svg>