<?xml version="1.0" encoding="UTF-8"?>
<svg id="_Í_ã_1" data-name="Í¼²ã 1" xmlns="http://www.w3.org/2000/svg" viewBox="0 0 186.55 392.43">
  <g id="LINE">
    <line x1="32.15" y1="392.18" x2="154.4" y2="392.18" fill="none" stroke="red"
      stroke-linecap="round" stroke-linejoin="round" stroke-width=".5" />
  </g>
  <g id="LINE-2" data-name="LINE">
    <line x1=".25" y1="94.96" x2=".25" y2="360.19" fill="none" stroke="red" stroke-linecap="round"
      stroke-linejoin="round" stroke-width=".5" />
  </g>
  <g id="LINE-3" data-name="LINE">
    <line x1="90.55" y1="24.57" x2="90.55" y2="69.71" fill="none" stroke="red"
      stroke-linecap="round" stroke-linejoin="round" stroke-width=".5" />
  </g>
  <g id="LINE-4" data-name="LINE">
    <line x1="186.3" y1="360.19" x2="186.3" y2="32.25" fill="none" stroke="red"
      stroke-linecap="round" stroke-linejoin="round" stroke-width=".5" />
  </g>
  <g id="LINE-5" data-name="LINE">
    <line x1="64.19" y1="96.07" x2="24.87" y2="96.07" fill="none" stroke="red"
      stroke-linecap="round" stroke-linejoin="round" stroke-width=".5" />
  </g>
  <g id="LINE-6" data-name="LINE">
    <line x1="154.4" y1=".26" x2="89.68" y2=".26" fill="none" stroke="red" stroke-linecap="round"
      stroke-linejoin="round" stroke-width=".5" />
  </g>
  <g id="ARC">
    <path d="M8.9,90.68c4.59,3.5,10.2,5.39,15.97,5.39" fill="none" stroke="red"
      stroke-linecap="round" stroke-linejoin="round" stroke-width=".5" />
  </g>
  <g id="ARC-2" data-name="ARC">
    <path d="M64.19,96.07c14.56,0,26.36-11.8,26.36-26.36" fill="none" stroke="red"
      stroke-linecap="round" stroke-linejoin="round" stroke-width=".5" />
  </g>
  <g id="ARC-3" data-name="ARC">
    <path d="M90.55,24.57c0-5.66-1.82-11.17-5.2-15.71" fill="none" stroke="red"
      stroke-linecap="round" stroke-linejoin="round" stroke-width=".5" />
  </g>
  <g id="ARC-4" data-name="ARC">
    <path d="M8.9,90.68c-2.37-1.8-5.75-1.34-7.55,1.02-.71.94-1.1,2.08-1.1,3.26" fill="none"
      stroke="red" stroke-linecap="round" stroke-linejoin="round" stroke-width=".5" />
  </g>
  <g id="ARC-5" data-name="ARC">
    <path d="M89.68.26c-2.97,0-5.39,2.41-5.39,5.39,0,1.16.37,2.28,1.06,3.21" fill="none"
      stroke="red" stroke-linecap="round" stroke-linejoin="round" stroke-width=".5" />
  </g>
  <g id="SPLINE">
    <path
      d="M186.3,32.25c-.03-1.67-.05-3.35-.07-5.02s-.07-3.34-.22-4.99-.39-3.3-.79-4.91-.91-3.19-1.65-4.66-1.71-2.83-2.8-4.07c-.88-1.01-1.84-1.95-2.86-2.81s-2.12-1.63-3.29-2.27-2.4-1.16-3.68-1.58c-2.02-.67-4.13-1.08-6.25-1.32-1.12-.13-2.24-.2-3.37-.25s-2.27-.09-3.39-.11c-.85-.01-1.7,0-2.56,0-.32,0-.65,0-.97,0"
      fill="none" stroke="red" stroke-linecap="round" stroke-linejoin="round" stroke-width=".5" />
  </g>
  <g id="SPLINE-2" data-name="SPLINE">
    <path
      d="M154.4,392.18c.67,0,1.35,0,2.02,0s1.34,0,2.01-.01,1.34-.05,2.02-.07,1.34-.04,2.01-.08c1.45-.08,2.9-.24,4.33-.49s2.84-.58,4.22-1.04c1.49-.49,2.92-1.13,4.26-1.93s2.58-1.77,3.72-2.85,2.19-2.24,3.11-3.51c.67-.93,1.26-1.91,1.73-2.94s.85-2.12,1.16-3.22.56-2.22.74-3.36.29-2.28.37-3.43c.12-1.84.14-3.7.17-5.56.02-1.17.03-2.34.05-3.51"
      fill="none" stroke="red" stroke-linecap="round" stroke-linejoin="round" stroke-width=".5" />
  </g>
  <g id="SPLINE-3" data-name="SPLINE">
    <path
      d="M.25,360.18c.03,1.67.05,3.35.07,5.02s.07,3.34.22,4.99.39,3.3.79,4.91.91,3.19,1.65,4.66,1.71,2.83,2.8,4.07c.88,1.01,1.84,1.95,2.86,2.81s2.13,1.63,3.29,2.27,2.41,1.16,3.68,1.58c2.02.66,4.12,1.07,6.23,1.32,1.12.13,2.24.2,3.37.25s2.27.09,3.4.11c.85.01,1.7,0,2.56,0,.33,0,.65,0,.98,0"
      fill="none" stroke="red" stroke-linecap="round" stroke-linejoin="round" stroke-width=".5" />
  </g>
</svg>