<?xml version="1.0" encoding="UTF-8"?>
<svg id="_Í_ã_1" data-name="Í¼²ã 1" xmlns="http://www.w3.org/2000/svg" viewBox="0 0 200.98 428">
  <g id="LINE">
    <line x1="32.06" y1="427.75" x2="168.9" y2="427.75" fill="none" stroke="red"
      stroke-linecap="round" stroke-linejoin="round" stroke-width=".5" />
  </g>
  <g id="LINE-2" data-name="LINE">
    <line x1=".25" y1="93.71" x2=".25" y2="396.13" fill="none" stroke="red" stroke-linecap="round"
      stroke-linejoin="round" stroke-width=".5" />
  </g>
  <g id="LINE-3" data-name="LINE">
    <line x1="88.6" y1="25.68" x2="88.6" y2="67.61" fill="none" stroke="red" stroke-linecap="round"
      stroke-linejoin="round" stroke-width=".5" />
  </g>
  <g id="LINE-4" data-name="LINE">
    <line x1="200.73" y1="396.13" x2="200.73" y2="31.87" fill="none" stroke="red"
      stroke-linecap="round" stroke-linejoin="round" stroke-width=".5" />
  </g>
  <g id="LINE-5" data-name="LINE">
    <line x1="61.21" y1="95.21" x2="25.52" y2="95.21" fill="none" stroke="red"
      stroke-linecap="round" stroke-linejoin="round" stroke-width=".5" />
  </g>
  <g id="LINE-6" data-name="LINE">
    <line x1="168.9" y1=".25" x2="87.14" y2=".25" fill="none" stroke="red" stroke-linecap="round"
      stroke-linejoin="round" stroke-width=".5" />
  </g>
  <g id="ARC">
    <path d="M8.8,89.47c4.79,3.72,10.67,5.74,16.72,5.74" fill="none" stroke="red"
      stroke-linecap="round" stroke-linejoin="round" stroke-width=".5" />
  </g>
  <g id="ARC-2" data-name="ARC">
    <path d="M8.8,89.47c-2.32-1.8-5.66-1.37-7.45.97-.72.94-1.1,2.08-1.1,3.27" fill="none"
      stroke="red" stroke-linecap="round" stroke-linejoin="round" stroke-width=".5" />
  </g>
  <g id="ARC-3" data-name="ARC">
    <path d="M61.21,95.21c15.13,0,27.39-12.36,27.39-27.6" fill="none" stroke="red"
      stroke-linecap="round" stroke-linejoin="round" stroke-width=".5" />
  </g>
  <g id="ARC-4" data-name="ARC">
    <path d="M88.6,25.68c0-6.08-2-12-5.68-16.82" fill="none" stroke="red" stroke-linecap="round"
      stroke-linejoin="round" stroke-width=".5" />
  </g>
  <g id="ARC-5" data-name="ARC">
    <path d="M87.14.25c-2.93,0-5.31,2.4-5.31,5.35,0,1.18.39,2.33,1.1,3.26" fill="none" stroke="red"
      stroke-linecap="round" stroke-linejoin="round" stroke-width=".5" />
  </g>
  <g id="SPLINE">
    <path
      d="M200.73,31.87c0-1.09,0-2.17-.01-3.26-.02-2.17-.07-4.34-.26-6.49-.16-1.79-.42-3.56-.86-5.29-.44-1.73-1.06-3.42-1.88-5-1.02-1.96-2.35-3.75-3.94-5.27-1.49-1.42-3.21-2.61-5.05-3.52-1.84-.9-3.81-1.53-5.81-1.94-2.2-.45-4.45-.64-6.7-.74-2.43-.1-4.87-.1-7.31-.1"
      fill="none" stroke="red" stroke-linecap="round" stroke-linejoin="round" stroke-width=".5" />
  </g>
  <g id="SPLINE-2" data-name="SPLINE">
    <path
      d="M168.9,427.75c1.09,0,2.18,0,3.28,0,2.18-.02,4.37-.07,6.53-.25,1.8-.15,3.59-.41,5.34-.84s3.45-1.04,5.05-1.87c1.94-1,3.73-2.32,5.25-3.89,1.43-1.48,2.62-3.19,3.54-5.03,1.03-2.08,1.72-4.33,2.14-6.62.42-2.29.57-4.63.64-6.97.07-2.04.07-4.09.07-6.14"
      fill="none" stroke="red" stroke-linecap="round" stroke-linejoin="round" stroke-width=".5" />
  </g>
  <g id="SPLINE-3" data-name="SPLINE">
    <path
      d="M.25,396.13c0,1.09,0,2.17.01,3.26.02,2.17.07,4.34.26,6.5.16,1.79.42,3.56.86,5.29.44,1.73,1.06,3.42,1.88,5,1.02,1.96,2.35,3.75,3.94,5.27,1.49,1.42,3.21,2.61,5.05,3.52s3.81,1.53,5.81,1.94c2.21.45,4.46.65,6.71.74,2.42.1,4.85.1,7.29.1"
      fill="none" stroke="red" stroke-linecap="round" stroke-linejoin="round" stroke-width=".5" />
  </g>
</svg>