<?xml version="1.0" encoding="UTF-8"?>
<svg id="Calque_1" data-name="Calque 1" xmlns="http://www.w3.org/2000/svg" viewBox="0 0 198.13 411.35">
  <path d="M.25,103.51v277.83c0,16.44,13.33,29.76,29.76,29.76h138.1c16.44,0,29.76-13.33,29.76-29.76V30.01c0-16.44-13.33-29.76-29.76-29.76h-74.26c-2.97,0-5.39,2.41-5.39,5.39,0,1.52.64,2.97,1.77,3.99,6.05,5.48,9.5,13.26,9.5,21.43v46c0,15.97-12.94,28.91-28.91,28.91H31.05c-7.18,0-14.1-2.67-19.42-7.5-2.78-2.52-7.09-2.31-9.61.47-1.14,1.25-1.76,2.88-1.76,4.57Z" fill="none" stroke="red" stroke-linecap="round" stroke-linejoin="round" stroke-width=".5"/>
</svg>