<?xml version="1.0" encoding="UTF-8"?>
<svg id="Calque_1" data-name="Calque 1" xmlns="http://www.w3.org/2000/svg" viewBox="0 0 177.95 368.72">
  <path d="M.25,97.78v244.89c0,14.25,11.55,25.8,25.8,25.8h125.86c14.25,0,25.79-11.55,25.79-25.8V26.04c0-14.25-11.55-25.79-25.79-25.79h-66.14c-2.97,0-5.39,2.41-5.39,5.38,0,1.29.47,2.54,1.31,3.52,4.54,5.25,7.04,11.96,7.04,18.91v40.82c0,15.97-12.94,28.91-28.91,28.91h-31.78c-6.11,0-12.05-1.93-16.99-5.52-3.04-2.21-7.3-1.53-9.5,1.51-.84,1.16-1.3,2.56-1.3,4Z" fill="none" stroke="red" stroke-linecap="round" stroke-linejoin="round" stroke-width=".5"/>
</svg>