<?xml version="1.0" encoding="UTF-8"?>
<svg id="_0" data-name="0" xmlns="http://www.w3.org/2000/svg" viewBox="0 0 216.73 451.32">
  <g id="LWPOLYLINE">
    <path d="M.25,112.83v306.21c0,17.69,14.34,32.03,32.03,32.03h152.16c17.69,0,32.03-14.34,32.03-32.03V32.28c0-17.69-14.34-32.03-32.03-32.03h-82.33c-2.97,0-5.39,2.41-5.39,5.39,0,1.65.76,3.21,2.06,4.24,7.8,6.13,12.36,15.5,12.36,25.41v50.48c0,17.85-14.47,32.32-32.31,32.31h-43.53c-8.81,0-17.24-3.6-23.33-9.96-2.6-2.71-6.91-2.8-9.62-.21-1.34,1.28-2.1,3.06-2.1,4.91Z" fill="none" stroke="red" stroke-linecap="round" stroke-linejoin="round" stroke-width=".5"/>
  </g>
</svg>