<?xml version="1.0" encoding="UTF-8"?>
<svg id="Calque_1" data-name="Calque 1" xmlns="http://www.w3.org/2000/svg" viewBox="0 0 177.38 368.15">
  <g id="ARC">
    <path d="M94.5,64.03V27.75c0-6.81-2.29-13.43-6.51-18.78h0c-.75-.95-1.16-2.12-1.16-3.33,0-2.97,2.41-5.39,5.39-5.39h59.4c14.09,0,25.51,11.42,25.51,25.51v316.63c0,14.09-11.42,25.51-25.51,25.51H25.76c-14.09,0-25.51-11.42-25.51-25.51V94.77c0-1.36.41-2.69,1.17-3.82,2.11-3.11,6.34-3.92,9.45-1.81l-.03-.02c5.03,3.41,10.96,5.24,17.04,5.24h36.28c16.75,0,30.33-13.58,30.33-30.33Z" fill="none" stroke="red" stroke-linecap="round" stroke-linejoin="round" stroke-width=".5"/>
  </g>
</svg>