<?xml version="1.0" encoding="UTF-8"?>
<svg id="Calque_1" data-name="Calque 1" xmlns="http://www.w3.org/2000/svg" viewBox="0 0 216.73 451.32">
  <g id="ARC">
    <path d="M184.45.25h-72.35c-2.97,0-5.39,2.41-5.39,5.39,0,1.46.59,2.85,1.64,3.87l-.03-.03c6.73,6.51,10.53,15.48,10.53,24.85v53.86c0,19.1-15.48,34.58-34.58,34.58h-49.61c-8.51,0-16.72-3.14-23.06-8.81h-.01c-2.8-2.52-7.1-2.28-9.61.52-1.12,1.25-1.74,2.86-1.74,4.54v300.03c0,17.69,14.34,32.03,32.03,32.03h152.16c17.69,0,32.03-14.34,32.03-32.03V32.28C216.48,14.59,202.14.25,184.45.25Z" fill="none" stroke="red" stroke-linecap="round" stroke-linejoin="round" stroke-width=".5"/>
  </g>
</svg>