<?xml version="1.0" encoding="UTF-8"?>
<svg id="Calque_1" data-name="Calque 1" xmlns="http://www.w3.org/2000/svg"
  viewBox="0 0 198.13 411.35">
  <g id="ARC">
    <path
      d="M111.89.25c-2.97,0-5.39,2.41-5.39,5.39,0,1.46.6,2.87,1.65,3.88l-.03-.03c7.07,6.79,11.06,16.17,11.06,25.97v51.59c0,19.88-16.12,36-36,36h-47.62c-8.84,0-17.37-3.25-23.97-9.14h-.01c-2.8-2.51-7.1-2.27-9.61.53-1.11,1.25-1.73,2.86-1.73,4.53v262.66c0,16.28,13.2,29.48,29.48,29.48h138.67c16.28,0,29.48-13.2,29.48-29.48V29.73c0-16.28-13.2-29.48-29.48-29.48h-56.51Z"
      fill="none" stroke="red" stroke-linecap="round" stroke-linejoin="round" stroke-width=".5" />
  </g>
</svg>