<?xml version="1.0" encoding="UTF-8"?>
<svg id="_0" data-name="0" xmlns="http://www.w3.org/2000/svg" viewBox="0 0 197.93 413.42">
  <line x1="165.37" y1=".25" x2="116.45" y2=".25" fill="none" stroke="red" stroke-linecap="round" stroke-linejoin="round" stroke-width=".5"/>
  <path d="M116.45.25c-2.97,0-5.39,2.41-5.39,5.39,0,1.57.69,3.07,1.88,4.09" fill="none" stroke="red" stroke-linecap="round" stroke-linejoin="round" stroke-width=".5"/>
  <path d="M125.33,36.63c0-10.35-4.52-20.18-12.38-26.91" fill="none" stroke="red" stroke-linecap="round" stroke-linejoin="round" stroke-width=".5"/>
  <line x1="125.33" y1="36.63" x2="125.33" y2="94.46" fill="none" stroke="red" stroke-linecap="round" stroke-linejoin="round" stroke-width=".5"/>
  <path d="M89.9,129.89c19.57,0,35.43-15.86,35.43-35.43" fill="none" stroke="red" stroke-linecap="round" stroke-linejoin="round" stroke-width=".5"/>
  <line x1="89.9" y1="129.89" x2="36.6" y2="129.89" fill="none" stroke="red" stroke-linecap="round" stroke-linejoin="round" stroke-width=".5"/>
  <path d="M11.81,119.78c6.62,6.49,15.52,10.12,24.79,10.12" fill="none" stroke="red" stroke-linecap="round" stroke-linejoin="round" stroke-width=".5"/>
  <path d="M11.81,119.78c-2.68-2.63-6.99-2.58-9.62.1-1.25,1.27-1.94,2.98-1.94,4.76" fill="none" stroke="red" stroke-linecap="round" stroke-linejoin="round" stroke-width=".5"/>
  <line x1=".25" y1="124.64" x2=".25" y2="380.86" fill="none" stroke="red" stroke-linecap="round" stroke-linejoin="round" stroke-width=".5"/>
  <path d="M.25,380.86c0,17.85,14.47,32.31,32.31,32.31" fill="none" stroke="red" stroke-linecap="round" stroke-linejoin="round" stroke-width=".5"/>
  <line x1="32.56" y1="413.17" x2="165.37" y2="413.17" fill="none" stroke="red" stroke-linecap="round" stroke-linejoin="round" stroke-width=".5"/>
  <path d="M165.37,413.17c17.85,0,32.31-14.47,32.31-32.31" fill="none" stroke="red" stroke-linecap="round" stroke-linejoin="round" stroke-width=".5"/>
  <line x1="197.68" y1="380.86" x2="197.68" y2="32.56" fill="none" stroke="red" stroke-linecap="round" stroke-linejoin="round" stroke-width=".5"/>
  <path d="M197.68,32.56C197.68,14.72,183.22.25,165.37.25" fill="none" stroke="red" stroke-linecap="round" stroke-linejoin="round" stroke-width=".5"/>
</svg>