<?xml version="1.0" encoding="UTF-8"?>
<svg id="_0" data-name="0" xmlns="http://www.w3.org/2000/svg" viewBox="0 0 196.18 411.61">
  <g id="LINE">
    <line x1="69.94" y1="103.39" x2="31.96" y2="103.39" fill="none" stroke="red" stroke-linecap="round" stroke-linejoin="round" stroke-width=".5"/>
  </g>
  <g id="ARC">
    <path d="M69.94,103.39c18.47,0,33.45-14.98,33.45-33.45" fill="none" stroke="red" stroke-linecap="round" stroke-linejoin="round" stroke-width=".5"/>
  </g>
  <g id="LINE-2" data-name="LINE">
    <line x1="103.39" y1="31.96" x2="103.39" y2="69.94" fill="none" stroke="red" stroke-linecap="round" stroke-linejoin="round" stroke-width=".5"/>
  </g>
  <g id="ARC-2" data-name="ARC">
    <path d="M103.39,31.96c0-8.4-3.16-16.49-8.85-22.67" fill="none" stroke="red" stroke-linecap="round" stroke-linejoin="round" stroke-width=".5"/>
  </g>
  <g id="ARC-3" data-name="ARC">
    <path d="M98.5.25c-2.97,0-5.39,2.41-5.39,5.39,0,1.35.51,2.66,1.43,3.65" fill="none" stroke="red" stroke-linecap="round" stroke-linejoin="round" stroke-width=".5"/>
  </g>
  <g id="LINE-3" data-name="LINE">
    <line x1="164.74" y1=".25" x2="98.5" y2=".25" fill="none" stroke="red" stroke-linecap="round" stroke-linejoin="round" stroke-width=".5"/>
  </g>
  <g id="ARC-4" data-name="ARC">
    <path d="M195.93,31.43c0-17.22-13.96-31.18-31.18-31.18" fill="none" stroke="red" stroke-linecap="round" stroke-linejoin="round" stroke-width=".5"/>
  </g>
  <g id="LINE-4" data-name="LINE">
    <line x1="195.93" y1="380.18" x2="195.93" y2="31.43" fill="none" stroke="red" stroke-linecap="round" stroke-linejoin="round" stroke-width=".5"/>
  </g>
  <g id="ARC-5" data-name="ARC">
    <path d="M164.74,411.36c17.22,0,31.18-13.96,31.18-31.18" fill="none" stroke="red" stroke-linecap="round" stroke-linejoin="round" stroke-width=".5"/>
  </g>
  <g id="LINE-5" data-name="LINE">
    <line x1="31.43" y1="411.36" x2="164.74" y2="411.36" fill="none" stroke="red" stroke-linecap="round" stroke-linejoin="round" stroke-width=".5"/>
  </g>
  <g id="ARC-6" data-name="ARC">
    <path d="M.25,380.18c0,17.22,13.96,31.18,31.18,31.18" fill="none" stroke="red" stroke-linecap="round" stroke-linejoin="round" stroke-width=".5"/>
  </g>
  <g id="LINE-6" data-name="LINE">
    <line x1=".25" y1="101.56" x2=".25" y2="380.18" fill="none" stroke="red" stroke-linecap="round" stroke-linejoin="round" stroke-width=".5"/>
  </g>
  <g id="ARC-7" data-name="ARC">
    <path d="M11.26,96.22c-2.95-2.32-7.23-1.82-9.55,1.14-.94,1.2-1.46,2.68-1.46,4.21" fill="none" stroke="red" stroke-linecap="round" stroke-linejoin="round" stroke-width=".5"/>
  </g>
  <g id="ARC-8" data-name="ARC">
    <path d="M11.26,96.22c5.9,4.64,13.19,7.17,20.69,7.17" fill="none" stroke="red" stroke-linecap="round" stroke-linejoin="round" stroke-width=".5"/>
  </g>
</svg>