<?xml version="1.0" encoding="UTF-8"?>
<svg id="_0" data-name="0" xmlns="http://www.w3.org/2000/svg" viewBox="0 0 213.55 449.17">
  <g id="LWPOLYLINE">
    <path d="M68.65,103.23h-35.43c-7.97,0-15.69-2.75-21.86-7.79-2.91-2.38-7.2-1.94-9.57.97-.99,1.21-1.53,2.73-1.53,4.3v316.74c0,17.38,14.09,31.46,31.46,31.46h150.12c17.38,0,31.46-14.09,31.46-31.46V31.71c0-17.38-14.09-31.46-31.46-31.46h-84.26c-2.97,0-5.39,2.41-5.39,5.39,0,1.38.53,2.71,1.49,3.72,6.13,6.43,9.55,14.98,9.55,23.86v35.43c0,19.1-15.48,34.58-34.58,34.58Z" fill="none" stroke="red" stroke-linecap="round" stroke-linejoin="round" stroke-width=".5"/>
  </g>
</svg>