<?xml version="1.0" encoding="UTF-8"?>
<svg id="_0" data-name="0" xmlns="http://www.w3.org/2000/svg" viewBox="0 0 196.2 411.64">
  <line x1="164.77" y1=".25" x2="66.62" y2=".25" fill="none" stroke="red" stroke-linecap="round" stroke-linejoin="round" stroke-width=".5"/>
  <path d="M66.62.25c-2.97,0-5.39,2.41-5.39,5.39,0,1.36.51,2.67,1.44,3.66" fill="none" stroke="red" stroke-linecap="round" stroke-linejoin="round" stroke-width=".5"/>
  <path d="M71.83,27.07c-1.38-6.65-4.55-12.79-9.16-17.77" fill="none" stroke="red" stroke-linecap="round" stroke-linejoin="round" stroke-width=".5"/>
  <path d="M71.83,27.07c1.01,4.86,5.2,8.4,10.16,8.58" fill="none" stroke="red" stroke-linecap="round" stroke-linejoin="round" stroke-width=".5"/>
  <path d="M81.99,84.94c13.61-.49,24.25-11.93,23.75-25.54-.47-12.92-10.83-23.28-23.75-23.75" fill="none" stroke="red" stroke-linecap="round" stroke-linejoin="round" stroke-width=".5"/>
  <path d="M81.99,84.94c-4.96.18-9.15,3.72-10.16,8.58" fill="none" stroke="red" stroke-linecap="round" stroke-linejoin="round" stroke-width=".5"/>
  <path d="M35.33,123.22c17.67,0,32.91-12.41,36.5-29.71" fill="none" stroke="red" stroke-linecap="round" stroke-linejoin="round" stroke-width=".5"/>
  <line x1="35.33" y1="123.22" x2="35.05" y2="123.22" fill="none" stroke="red" stroke-linecap="round" stroke-linejoin="round" stroke-width=".5"/>
  <path d="M11.37,114.74c6.67,5.48,15.04,8.48,23.67,8.48" fill="none" stroke="red" stroke-linecap="round" stroke-linejoin="round" stroke-width=".5"/>
  <path d="M11.37,114.74c-2.9-2.39-7.19-1.97-9.58.93-1,1.22-1.55,2.74-1.55,4.32" fill="none" stroke="red" stroke-linecap="round" stroke-linejoin="round" stroke-width=".5"/>
  <line x1=".25" y1="119.99" x2=".25" y2="380.21" fill="none" stroke="red" stroke-linecap="round" stroke-linejoin="round" stroke-width=".5"/>
  <path d="M.25,380.21c0,17.22,13.96,31.18,31.18,31.18" fill="none" stroke="red" stroke-linecap="round" stroke-linejoin="round" stroke-width=".5"/>
  <line x1="31.43" y1="411.39" x2="164.77" y2="411.39" fill="none" stroke="red" stroke-linecap="round" stroke-linejoin="round" stroke-width=".5"/>
  <path d="M164.77,411.39c17.22,0,31.18-13.96,31.18-31.18" fill="none" stroke="red" stroke-linecap="round" stroke-linejoin="round" stroke-width=".5"/>
  <line x1="195.95" y1="380.21" x2="195.95" y2="31.43" fill="none" stroke="red" stroke-linecap="round" stroke-linejoin="round" stroke-width=".5"/>
  <path d="M195.95,31.43c0-17.22-13.96-31.18-31.18-31.18" fill="none" stroke="red" stroke-linecap="round" stroke-linejoin="round" stroke-width=".5"/>
</svg>