<svg xmlns="http://www.w3.org/2000/svg" viewBox="0 0 198.12 412">
  <path d="M 11.705 61.441 L 9.829 60.243" fill="none" stroke-width="0.5"
    style="stroke-width: 0.5; stroke: rgb(255, 0, 0);"></path>
  <path d="M 9.829 60.243 L 7.636 59.7" fill="none" stroke-width="0.5"
    style="stroke-width: 0.5; stroke: rgb(255, 0, 0);"></path>
  <path d="M 7.636 59.7 L 5.42 59.903" fill="none" stroke-width="0.5"
    style="stroke-width: 0.5; stroke: rgb(255, 0, 0);"></path>
  <path d="M 5.42 59.903 L 3.363 60.808" fill="none" stroke-width="0.5"
    style="stroke-width: 0.5; stroke: rgb(255, 0, 0);"></path>
  <path d="M 3.363 60.808 L 1.735 62.322" fill="none" stroke-width="0.5"
    style="stroke-width: 0.5; stroke: rgb(255, 0, 0);"></path>
  <path d="M 1.735 62.322 L 0.673 64.289" fill="none" stroke-width="0.5"
    style="stroke-width: 0.5; stroke: rgb(255, 0, 0);"></path>
  <path d="M 0.673 64.289 L 0.311 66.505" fill="none" stroke-width="0.5"
    style="stroke-width: 0.5; stroke: rgb(255, 0, 0);"></path>
  <path d="M 0.311 66.505 L 0.311 382.445 L 0.311 66.505 Z" fill="none" stroke-width="0.5"
    style="stroke-width: 0.5; stroke: rgb(255, 0, 0);"></path>
  <path d="M 312.571 333.453 Z" fill="none" stroke="lime" stroke-width="0.5"
    style="stroke-width: 0.5;"></path>
  <path d="M 0.311 382.445 L 0.741 387.577" fill="none" stroke-width="0.5"
    style="stroke-width: 0.5; stroke: rgb(255, 0, 0);"></path>
  <path d="M 0.741 387.577 L 2.074 392.574" fill="none" stroke-width="0.5"
    style="stroke-width: 0.5; stroke: rgb(255, 0, 0);"></path>
  <path d="M 2.074 392.574 L 4.267 397.231" fill="none" stroke-width="0.5"
    style="stroke-width: 0.5; stroke: rgb(255, 0, 0);"></path>
  <path d="M 4.267 397.231 L 7.229 401.458" fill="none" stroke-width="0.5"
    style="stroke-width: 0.5; stroke: rgb(255, 0, 0);"></path>
  <path d="M 7.229 401.458 L 10.869 405.098" fill="none" stroke-width="0.5"
    style="stroke-width: 0.5; stroke: rgb(255, 0, 0);"></path>
  <path d="M 10.869 405.098 L 15.074 408.06" fill="none" stroke-width="0.5"
    style="stroke-width: 0.5; stroke: rgb(255, 0, 0);"></path>
  <path d="M 15.074 408.06 L 19.753 410.23" fill="none" stroke-width="0.5"
    style="stroke-width: 0.5; stroke: rgb(255, 0, 0);"></path>
  <path d="M 19.753 410.23 L 24.727 411.564" fill="none" stroke-width="0.5"
    style="stroke-width: 0.5; stroke: rgb(255, 0, 0);"></path>
  <path d="M 24.727 411.564 L 29.859 412.016" fill="none" stroke-width="0.5"
    style="stroke-width: 0.5; stroke: rgb(255, 0, 0);"></path>
  <path d="M 29.859 412.016 L 168.918 412.016" fill="none" stroke-width="0.5"
    style="stroke-width: 0.5; stroke: rgb(255, 0, 0);"></path>
  <path d="M 387.151 346.533 Z" fill="none" stroke="lime" stroke-width="0.5"
    style="stroke-width: 0.5;"></path>
  <path d="M 168.918 412.016 L 174.05 411.564" fill="none" stroke-width="0.5"
    style="stroke-width: 0.5; stroke: rgb(255, 0, 0);"></path>
  <path d="M 174.05 411.564 L 179.024 410.23" fill="none" stroke-width="0.5"
    style="stroke-width: 0.5; stroke: rgb(255, 0, 0);"></path>
  <path d="M 179.024 410.23 L 183.703 408.06" fill="none" stroke-width="0.5"
    style="stroke-width: 0.5; stroke: rgb(255, 0, 0);"></path>
  <path d="M 183.703 408.06 L 187.931 405.098" fill="none" stroke-width="0.5"
    style="stroke-width: 0.5; stroke: rgb(255, 0, 0);"></path>
  <path d="M 187.931 405.098 L 191.571 401.458" fill="none" stroke-width="0.5"
    style="stroke-width: 0.5; stroke: rgb(255, 0, 0);"></path>
  <path d="M 191.571 401.458 L 194.532 397.231" fill="none" stroke-width="0.5"
    style="stroke-width: 0.5; stroke: rgb(255, 0, 0);"></path>
  <path d="M 194.532 397.231 L 196.703 392.574" fill="none" stroke-width="0.5"
    style="stroke-width: 0.5; stroke: rgb(255, 0, 0);"></path>
  <path d="M 196.703 392.574 L 198.037 387.577" fill="none" stroke-width="0.5"
    style="stroke-width: 0.5; stroke: rgb(255, 0, 0);"></path>
  <path d="M 198.037 387.577 L 198.489 382.445" fill="none" stroke-width="0.5"
    style="stroke-width: 0.5; stroke: rgb(255, 0, 0);"></path>
  <path d="M 198.489 382.445 L 198.489 29.587 L 198.489 382.445 Z" fill="none" stroke-width="0.5"
    style="stroke-width: 0.5; stroke: rgb(255, 0, 0);"></path>
  <path d="M 400.231 177.373 Z" fill="none" stroke="lime" stroke-width="0.5"
    style="stroke-width: 0.5;"></path>
  <path d="M 198.489 29.587 L 198.037 24.455" fill="none" stroke-width="0.5"
    style="stroke-width: 0.5; stroke: rgb(255, 0, 0);"></path>
  <path d="M 198.037 24.455 L 196.703 19.458" fill="none" stroke-width="0.5"
    style="stroke-width: 0.5; stroke: rgb(255, 0, 0);"></path>
  <path d="M 196.703 19.458 L 194.532 14.801" fill="none" stroke-width="0.5"
    style="stroke-width: 0.5; stroke: rgb(255, 0, 0);"></path>
  <path d="M 194.532 14.801 L 191.571 10.574" fill="none" stroke-width="0.5"
    style="stroke-width: 0.5; stroke: rgb(255, 0, 0);"></path>
  <path d="M 191.571 10.574 L 187.931 6.934" fill="none" stroke-width="0.5"
    style="stroke-width: 0.5; stroke: rgb(255, 0, 0);"></path>
  <path d="M 187.931 6.934 L 183.703 3.972" fill="none" stroke-width="0.5"
    style="stroke-width: 0.5; stroke: rgb(255, 0, 0);"></path>
  <path d="M 183.703 3.972 L 179.024 1.802" fill="none" stroke-width="0.5"
    style="stroke-width: 0.5; stroke: rgb(255, 0, 0);"></path>
  <path d="M 179.024 1.802 L 174.05 0.468" fill="none" stroke-width="0.5"
    style="stroke-width: 0.5; stroke: rgb(255, 0, 0);"></path>
  <path d="M 174.05 0.468 L 168.918 0.016" fill="none" stroke-width="0.5"
    style="stroke-width: 0.5; stroke: rgb(255, 0, 0);"></path>
  <path d="M 168.918 0.016 L 91.374 0.016" fill="none" stroke-width="0.5"
    style="stroke-width: 0.5; stroke: rgb(255, 0, 0);"></path>
  <path d="M 352.851 164.293 Z" fill="none" stroke="lime" stroke-width="0.5"
    style="stroke-width: 0.5;"></path>
  <path d="M 91.374 0.016 L 89.272 0.446" fill="none" stroke-width="0.5"
    style="stroke-width: 0.5; stroke: rgb(255, 0, 0);"></path>
  <path d="M 89.272 0.446 L 87.508 1.666" fill="none" stroke-width="0.5"
    style="stroke-width: 0.5; stroke: rgb(255, 0, 0);"></path>
  <path d="M 87.508 1.666 L 86.333 3.452" fill="none" stroke-width="0.5"
    style="stroke-width: 0.5; stroke: rgb(255, 0, 0);"></path>
  <path d="M 86.333 3.452 L 85.971 5.577" fill="none" stroke-width="0.5"
    style="stroke-width: 0.5; stroke: rgb(255, 0, 0);"></path>
  <path d="M 85.971 5.577 L 86.468 7.657" fill="none" stroke-width="0.5"
    style="stroke-width: 0.5; stroke: rgb(255, 0, 0);"></path>
  <path d="M 86.468 7.657 L 87.734 9.398" fill="none" stroke-width="0.5"
    style="stroke-width: 0.5; stroke: rgb(255, 0, 0);"></path>
  <path d="M 351.241 168.443 Z" fill="none" stroke="lime" stroke-width="0.5"
    style="stroke-width: 0.5;"></path>
  <path d="M 87.734 9.398 L 90.899 12.721" fill="none" stroke-width="0.5"
    style="stroke-width: 0.5; stroke: rgb(255, 0, 0);"></path>
  <path d="M 90.899 12.721 L 93.567 16.474" fill="none" stroke-width="0.5"
    style="stroke-width: 0.5; stroke: rgb(255, 0, 0);"></path>
  <path d="M 93.567 16.474 L 95.715 20.544" fill="none" stroke-width="0.5"
    style="stroke-width: 0.5; stroke: rgb(255, 0, 0);"></path>
  <path d="M 95.715 20.544 L 97.275 24.862" fill="none" stroke-width="0.5"
    style="stroke-width: 0.5; stroke: rgb(255, 0, 0);"></path>
  <path d="M 97.275 24.862 L 98.224 29.361" fill="none" stroke-width="0.5"
    style="stroke-width: 0.5; stroke: rgb(255, 0, 0);"></path>
  <path d="M 98.224 29.361 L 98.541 33.95" fill="none" stroke-width="0.5"
    style="stroke-width: 0.5; stroke: rgb(255, 0, 0);"></path>
  <path d="M 98.541 33.95 L 98.541 36.776 L 98.541 33.95 Z" fill="none" stroke-width="0.5"
    style="stroke-width: 0.5; stroke: rgb(255, 0, 0);"></path>
  <path d="M 356.021 180.553 Z" fill="none" stroke="lime" stroke-width="0.5"
    style="stroke-width: 0.5;"></path>
  <path d="M 98.541 36.776 L 98.134 41.998" fill="none" stroke-width="0.5"
    style="stroke-width: 0.5; stroke: rgb(255, 0, 0);"></path>
  <path d="M 98.134 41.998 L 96.913 47.062" fill="none" stroke-width="0.5"
    style="stroke-width: 0.5; stroke: rgb(255, 0, 0);"></path>
  <path d="M 96.913 47.062 L 94.924 51.878" fill="none" stroke-width="0.5"
    style="stroke-width: 0.5; stroke: rgb(255, 0, 0);"></path>
  <path d="M 94.924 51.878 L 92.188 56.331" fill="none" stroke-width="0.5"
    style="stroke-width: 0.5; stroke: rgb(255, 0, 0);"></path>
  <path d="M 92.188 56.331 L 88.797 60.31" fill="none" stroke-width="0.5"
    style="stroke-width: 0.5; stroke: rgb(255, 0, 0);"></path>
  <path d="M 88.797 60.31 L 84.841 63.701" fill="none" stroke-width="0.5"
    style="stroke-width: 0.5; stroke: rgb(255, 0, 0);"></path>
  <path d="M 84.841 63.701 L 80.387 66.414" fill="none" stroke-width="0.5"
    style="stroke-width: 0.5; stroke: rgb(255, 0, 0);"></path>
  <path d="M 80.387 66.414 L 75.549 68.426" fill="none" stroke-width="0.5"
    style="stroke-width: 0.5; stroke: rgb(255, 0, 0);"></path>
  <path d="M 75.549 68.426 L 70.485 69.625" fill="none" stroke-width="0.5"
    style="stroke-width: 0.5; stroke: rgb(255, 0, 0);"></path>
  <path d="M 70.485 69.625 L 65.285 70.054" fill="none" stroke-width="0.5"
    style="stroke-width: 0.5; stroke: rgb(255, 0, 0);"></path>
  <path d="M 65.285 70.054 L 34.019 70.054" fill="none" stroke-width="0.5"
    style="stroke-width: 0.5; stroke: rgb(255, 0, 0);"></path>
  <path d="M 327.481 195.273 Z" fill="none" stroke="lime" stroke-width="0.5"
    style="stroke-width: 0.5;"></path>
  <path d="M 34.019 70.054 L 29.136 69.692" fill="none" stroke-width="0.5"
    style="stroke-width: 0.5; stroke: rgb(255, 0, 0);"></path>
  <path d="M 29.136 69.692 L 24.365 68.607" fill="none" stroke-width="0.5"
    style="stroke-width: 0.5; stroke: rgb(255, 0, 0);"></path>
  <path d="M 24.365 68.607 L 19.821 66.867" fill="none" stroke-width="0.5"
    style="stroke-width: 0.5; stroke: rgb(255, 0, 0);"></path>
  <path d="M 19.821 66.867 L 15.548 64.448" fill="none" stroke-width="0.5"
    style="stroke-width: 0.5; stroke: rgb(255, 0, 0);"></path>
  <path d="M 15.548 64.448 L 11.705 61.441" fill="none" stroke-width="0.5"
    style="stroke-width: 0.5; stroke: rgb(255, 0, 0);"></path>
</svg>