<svg xmlns:dc="http://purl.org/dc/elements/1.1/" xmlns:cc="http://creativecommons.org/ns#"
  xmlns:rdf="http://www.w3.org/1999/02/22-rdf-syntax-ns#" xmlns:svg="http://www.w3.org/2000/svg"
  xmlns="http://www.w3.org/2000/svg" viewBox="0 0 197 409.4" id="svg2" version="1.1">
  <defs id="defs6">
    <clipPath id="clipPath18" clipPathUnits="userSpaceOnUse">
      <path id="path16" d="M 0,1190.551 H 1757.48 V 0 H 0 Z"></path>
    </clipPath>
  </defs>
  <g transform="matrix(1.333333, 0, 0, -1.333333, -201.818481, 1570.829834)" id="g10">
    <g id="g12">
      <g clip-path="url(#clipPath18)" id="g14">
        <g transform="matrix(0.747606, 0, 0, 0.747606, 159.861908, 1132.323486)" id="g20">
          <path id="path22"
            style="fill:none;stroke:#ff0000;stroke-width:0.5;stroke-linecap:round;stroke-linejoin:round;stroke-miterlimit:10;stroke-dasharray:none;stroke-opacity:1"
            d="m 0,0 c -2.786,2.521 -7.088,2.306 -9.609,-0.48 -1.132,-1.251 -1.758,-2.878 -1.758,-4.565 v -315.067 c 0,-16.282 13.198,-29.48 29.48,-29.48 h 138.671 c 16.281,0 29.48,13.198 29.48,29.48 V 31.781 c 0,16.281 -13.199,29.48 -29.48,29.48 H 79.45 c -2.974,0 -5.386,-2.411 -5.386,-5.386 0,-1.511 0.636,-2.954 1.751,-3.974 6.87,-6.283 10.783,-15.164 10.783,-24.473 V 24.593 C 86.598,6.276 71.749,-8.572 53.432,-8.572 H 22.251 C 14.028,-8.572 6.098,-5.517 0,0 Z"></path>
        </g>
        <g transform="translate(919.5186,394.5194)" id="g24"></g>
      </g>
    </g>
  </g>
</svg>