<?xml version="1.0" encoding="UTF-8"?>
<svg id="_0" data-name="0" xmlns="http://www.w3.org/2000/svg" viewBox="0 0 195.67 417.22">
  <path d="M123.63,92.19c0,19.57-15.86,35.43-35.43,35.43h-52.16c-9.04,0-17.74-3.46-24.32-9.66-2.73-2.58-7.04-2.45-9.62.28-1.19,1.26-1.85,2.93-1.85,4.67v261.46c0,18,14.59,32.6,32.6,32.6h129.97c18,0,32.6-14.59,32.6-32.6V32.85c0-18-14.59-32.6-32.6-32.6h-47.1c-2.97,0-5.39,2.41-5.39,5.39,0,1.51.64,2.96,1.75,3.98,7.35,6.71,11.54,16.21,11.54,26.17v56.41Z" fill="none" stroke="red" stroke-linecap="round" stroke-linejoin="round" stroke-width=".5"/>
</svg>