<?xml version="1.0" encoding="UTF-8"?>
<svg id="_0" data-name="0" xmlns="http://www.w3.org/2000/svg" viewBox="0 0 213.04 455.23">
  <g id="LWPOLYLINE">
    <path d="M123.64,35.78c0-9.96-4.19-19.45-11.54-26.17-1.12-1.02-1.75-2.46-1.75-3.98,0-2.97,2.41-5.39,5.39-5.39h64.46c18,0,32.6,14.59,32.6,32.6v389.54c0,18-14.59,32.6-32.6,32.6H32.85c-18,0-32.6-14.59-32.6-32.6V122.9c0-1.74.66-3.41,1.86-4.67,2.58-2.73,6.89-2.85,9.62-.28,6.58,6.21,15.28,9.67,24.33,9.67h52.16c19.57,0,35.43-15.86,35.43-35.43v-56.41Z" fill="none" stroke="red" stroke-linecap="round" stroke-linejoin="round" stroke-width=".5"/>
  </g>
</svg>