<?xml version="1.0" encoding="UTF-8"?>
<svg id="_0" data-name="0" xmlns="http://www.w3.org/2000/svg" viewBox="0 0 195.74 417.3">
  <g id="LINE">
    <line x1="32.49" y1="417.05" x2="163.25" y2="417.05" fill="none" stroke="red" stroke-miterlimit="10" stroke-width=".5"/>
  </g>
  <g id="LINE-2" data-name="LINE">
    <line x1=".25" y1="115.79" x2=".25" y2="384.81" fill="none" stroke="red" stroke-miterlimit="10" stroke-width=".5"/>
  </g>
  <g id="LINE-3" data-name="LINE">
    <line x1="195.49" y1="384.81" x2="195.49" y2="32.49" fill="none" stroke="red" stroke-miterlimit="10" stroke-width=".5"/>
  </g>
  <g id="LINE-4" data-name="LINE">
    <line x1="80.48" y1="83.54" x2="82.81" y2="83.54" fill="none" stroke="red" stroke-miterlimit="10" stroke-width=".5"/>
  </g>
  <g id="LINE-5" data-name="LINE">
    <line x1="82.81" y1="37.1" x2="80.48" y2="37.1" fill="none" stroke="red" stroke-miterlimit="10" stroke-width=".5"/>
  </g>
  <g id="LINE-6" data-name="LINE">
    <line x1="65.57" y1=".25" x2="163.25" y2=".25" fill="none" stroke="red" stroke-miterlimit="10" stroke-width=".5"/>
  </g>
  <g id="ARC">
    <path d="M.25,384.81c0,17.81,14.43,32.24,32.24,32.24" fill="none" stroke="red" stroke-miterlimit="10" stroke-width=".5"/>
  </g>
  <g id="ARC-2" data-name="ARC">
    <path d="M8.95,112.01c14.67,14.51,38.32,14.37,52.83-.3,5.64-5.7,9.29-13.06,10.42-20.99" fill="none" stroke="red" stroke-miterlimit="10" stroke-width=".5"/>
  </g>
  <g id="ARC-3" data-name="ARC">
    <path d="M9.04,112.1c-2.04-2-5.31-1.97-7.31.07-.95.97-1.48,2.27-1.48,3.62" fill="none" stroke="red" stroke-miterlimit="10" stroke-width=".5"/>
  </g>
  <g id="ARC-4" data-name="ARC">
    <path d="M72.2,29.92c-1.13-7.91-4.77-15.25-10.38-20.94" fill="none" stroke="red" stroke-miterlimit="10" stroke-width=".5"/>
  </g>
  <g id="ARC-5" data-name="ARC">
    <path d="M65.57.25c-2.86,0-5.17,2.31-5.17,5.17,0,1.35.53,2.65,1.48,3.62" fill="none" stroke="red" stroke-miterlimit="10" stroke-width=".5"/>
  </g>
  <g id="ARC-6" data-name="ARC">
    <path d="M163.25,417.05c17.81,0,32.24-14.43,32.24-32.24" fill="none" stroke="red" stroke-miterlimit="10" stroke-width=".5"/>
  </g>
  <g id="ARC-7" data-name="ARC">
    <path d="M80.48,83.54c-4.16,0-7.69,3.06-8.27,7.18" fill="none" stroke="red" stroke-miterlimit="10" stroke-width=".5"/>
  </g>
  <g id="ARC-8" data-name="ARC">
    <path d="M195.49,32.49C195.49,14.68,181.06.25,163.25.25" fill="none" stroke="red" stroke-miterlimit="10" stroke-width=".5"/>
  </g>
  <g id="ARC-9" data-name="ARC">
    <path d="M82.81,83.54c12.82,0,23.22-10.4,23.22-23.22s-10.4-23.22-23.22-23.22" fill="none" stroke="red" stroke-miterlimit="10" stroke-width=".5"/>
  </g>
  <g id="ARC-10" data-name="ARC">
    <path d="M72.2,29.92c.59,4.12,4.11,7.18,8.27,7.18" fill="none" stroke="red" stroke-miterlimit="10" stroke-width=".5"/>
  </g>
</svg>