<?xml version="1.0" encoding="UTF-8"?>
<svg id="Calque_1" data-name="Calque 1" xmlns="http://www.w3.org/2000/svg"
  viewBox="0 0 197.04 409.39">
  <path
    d="M2.94,53.95c-1.37,1.69-2.03,3.85-2.03,6.02L.26,378.37s-1.36,30.49,31.51,30.49c34.64,0,135.69.28,135.69.28,0,0,28.19.15,28.19-32.28,0-36.47,1.13-345.27,1.13-345.27,0,0,1.79-31.34-32.75-31.34h-64.66c-1.85,0-3.7.57-5.1,1.78s-2.51,3-1.95,5.71c.34,1.61,1.23,3.05,2.42,4.19,3.01,2.87,9.69,9.97,9.53,21.32,0,2.2.82,23.55-22.27,30.02-2.75.77-5.59,1.13-8.45,1.12-8.38-.03-29.89-.13-37.93-.16-2.97-.01-5.92-.44-8.75-1.35-4.15-1.33-9.74-3.89-13.76-8.66-.77-.91-1.7-1.69-2.81-2.13-1.96-.77-4.92-1.11-7.34,1.88Z"
    fill="none" stroke="red" stroke-miterlimit="10" stroke-width=".5" />
</svg>