<?xml version="1.0" encoding="UTF-8"?>
<svg id="Calque_1" data-name="Calque 1" xmlns="http://www.w3.org/2000/svg"
  viewBox="0 0 212.58 338.32">
  <g id="LINE">
    <line x1="32.49" y1="338.07" x2="180.09" y2="338.07" fill="none" stroke="red"
      stroke-linecap="round" stroke-linejoin="round" stroke-width=".5" />
  </g>
  <g id="LINE-2" data-name="LINE">
    <line x1=".25" y1="8.25" x2=".25" y2="305.83" fill="none" stroke="red" stroke-linecap="round"
      stroke-linejoin="round" stroke-width=".5" />
  </g>
  <g id="LINE-3" data-name="LINE">
    <line x1="212.33" y1="305.83" x2="212.33" y2="8.25" fill="none" stroke="red"
      stroke-linecap="round" stroke-linejoin="round" stroke-width=".5" />
  </g>
  <g id="LINE-4" data-name="LINE">
    <line x1="36.5" y1="10.51" x2="176.08" y2="10.51" fill="none" stroke="red"
      stroke-linecap="round" stroke-linejoin="round" stroke-width=".5" />
  </g>
  <g id="ARC">
    <path d="M.25,305.83c0,17.81,14.43,32.24,32.24,32.24" fill="none" stroke="red"
      stroke-linecap="round" stroke-linejoin="round" stroke-width=".5" />
  </g>
  <g id="ARC-2" data-name="ARC">
    <path d="M13.39,2.12C10-.72,4.96-.27,2.12,3.12.91,4.56.25,6.38.25,8.25" fill="none" stroke="red"
      stroke-linecap="round" stroke-linejoin="round" stroke-width=".5" />
  </g>
  <g id="ARC-3" data-name="ARC">
    <path d="M180.09,338.07c17.81,0,32.24-14.43,32.24-32.24" fill="none" stroke="red"
      stroke-linecap="round" stroke-linejoin="round" stroke-width=".5" />
  </g>
  <g id="ARC-4" data-name="ARC">
    <path d="M212.33,8.25c0-4.42-3.58-8-8-8-1.88,0-3.7.66-5.14,1.87" fill="none" stroke="red"
      stroke-linecap="round" stroke-linejoin="round" stroke-width=".5" />
  </g>
  <g id="ARC-5" data-name="ARC">
    <path d="M13.39,2.12c6.48,5.42,14.66,8.4,23.1,8.4" fill="none" stroke="red"
      stroke-linecap="round" stroke-linejoin="round" stroke-width=".5" />
  </g>
  <g id="ARC-6" data-name="ARC">
    <path d="M176.08,10.51c8.45,0,16.63-2.97,23.1-8.4" fill="none" stroke="red"
      stroke-linecap="round" stroke-linejoin="round" stroke-width=".5" />
  </g>
</svg>