<?xml version="1.0" encoding="UTF-8"?>
<svg id="_0" data-name="0" xmlns="http://www.w3.org/2000/svg" viewBox="0 0 167.95 369.69">
  <g id="LWPOLYLINE">
    <path d="M.25,184.84v158.96s0,1.42,0,1.42v1.42s.03,1.41.03,1.41l.04,1.41v.15s.08,1.41.08,1.41c.03.47.07.94.11,1.4.04.47.1.93.16,1.4.06.46.14.93.22,1.39.08.46.18.92.29,1.37.11.45.23.9.37,1.35.14.44.3.88.47,1.31.17.43.37.85.58,1.27.21.41.44.82.68,1.21.25.39.51.78.79,1.15.28.37.58.72.89,1.06.31.34.65.67.99.97.35.31.71.6,1.08.87.37.27.76.53,1.16.77.4.24.81.46,1.22.66.42.2.84.39,1.28.55.43.17.88.32,1.32.45.45.13.9.25,1.35.35.46.1.91.19,1.38.27.46.08.93.15,1.39.21.47.06.93.11,1.4.15.47.04.93.08,1.4.11l1.41.07,1.41.04,1.41.02h1.42s1.42.01,1.42.01h.9s114.08,0,114.08,0h1.42s1.42,0,1.42,0h1.42s1.41-.04,1.41-.04l1.41-.05c.47-.02.94-.05,1.41-.08.47-.03.94-.07,1.4-.12.47-.05.93-.11,1.4-.17.46-.07.93-.14,1.39-.23.46-.09.92-.19,1.37-.3.45-.11.9-.24,1.34-.38.44-.14.88-.31,1.31-.48.43-.18.85-.37,1.26-.59.41-.21.81-.45,1.2-.7.39-.25.77-.52,1.13-.8.36-.29.72-.59,1.05-.91.34-.32.66-.66.96-1.01.3-.35.59-.72.86-1.09.27-.38.52-.77.75-1.17.23-.4.45-.81.65-1.23.2-.42.38-.85.54-1.28.16-.44.31-.88.43-1.33.13-.45.24-.9.34-1.36.1-.46.19-.92.27-1.38.08-.46.14-.93.2-1.39.06-.47.1-.93.14-1.4.04-.47.07-.94.1-1.41l.04-.91.05-1.41.03-1.41v-1.41s.02-1.42.02-1.42v-.18s0-317.9,0-317.9v-1.42s-.01-1.42-.01-1.42l-.02-1.41-.04-1.41v-.15s-.08-1.41-.08-1.41c-.03-.47-.07-.94-.11-1.4-.04-.47-.1-.93-.16-1.4-.06-.46-.14-.93-.22-1.39-.08-.46-.18-.92-.29-1.37-.11-.45-.23-.9-.37-1.35-.14-.44-.3-.88-.47-1.31-.17-.43-.37-.85-.58-1.27-.21-.41-.44-.82-.68-1.21-.25-.39-.51-.78-.79-1.15-.28-.37-.58-.72-.89-1.06-.31-.34-.65-.67-.99-.97-.35-.31-.71-.6-1.08-.87-.37-.27-.76-.53-1.16-.77-.4-.24-.81-.46-1.23-.66-.42-.2-.85-.39-1.28-.55-.43-.17-.88-.32-1.32-.45-.45-.13-.9-.25-1.35-.35-.46-.1-.91-.19-1.38-.27-.46-.08-.93-.15-1.39-.21-.47-.06-.93-.11-1.4-.15-.47-.04-.93-.08-1.4-.1l-1.41-.07-1.41-.04-1.41-.02h-1.42s-1.42-.01-1.42-.01h-.86s-57.09,0-57.09,0h-13.61c-1.27,0-2.3,1.03-2.3,2.3,0,.56.21,1.11.58,1.53,3.33,3.74,5.17,8.58,5.17,13.58,0,11.29-9.15,20.44-20.44,20.44H18.23c-5.25,0-10.29-2.02-14.09-5.63-.92-.88-2.38-.84-3.26.08-.41.43-.63,1-.63,1.59v150.7Z" fill="none" stroke="red" stroke-linecap="round" stroke-linejoin="round" stroke-width=".5"/>
  </g>
</svg>