<?xml version="1.0" encoding="UTF-8"?>
<svg id="_0" data-name="0" xmlns="http://www.w3.org/2000/svg" viewBox="0 0 200.56 428.01">
  <g id="LWPOLYLINE">
    <path
      d="M.25,37.76v360.5c0,4.03.18,8.05.56,12.06.83,8.95,7.91,16.04,16.86,16.88,4.05.38,8.11.57,12.17.57h70.44s70.44,0,70.44,0c4.06,0,8.12-.19,12.17-.57,8.95-.83,16.04-7.93,16.86-16.88.37-4.01.56-8.03.56-12.06V29.75c0-4.03-.18-8.05-.56-12.06-.83-8.95-7.91-16.04-16.86-16.88-4.05-.38-8.11-.57-12.17-.57h-70.51c-1.27,0-2.3,1.03-2.3,2.3,0,.58.22,1.13.61,1.56,3.85,4.18,5.98,9.65,5.98,15.33,0,12.5-10.14,22.64-22.64,22.64H19.49c-5.7,0-11.19-2.15-15.38-6.02-.93-.86-2.39-.81-3.25.13-.39.43-.61.98-.61,1.56Z"
      fill="none" stroke="red" stroke-linecap="round" stroke-linejoin="round" stroke-width=".5" />
  </g>
</svg>