<?xml version="1.0" encoding="UTF-8"?>
<svg id="_Í_ã_1" data-name="Í¼²ã 1" xmlns="http://www.w3.org/2000/svg" viewBox="0 0 190.27 403.42">
  <path
    d="M.27,381.03c0,12.23,9.91,22.14,22.14,22.14h0s145.47,0,145.47,0c12.23,0,22.14-9.91,22.14-22.14h0V22.39h0c0-12.23-9.91-22.14-22.14-22.14h0s-117.35,0-117.35,0l-.79.04-6.46-.04c-1.96,0-3.54,1.59-3.54,3.54,0,.52.11,1.02.32,1.47h0c3.53,4.05,6.29,9.05,7.32,14.59l.08,2.13v43.16c0,.13,0,.25,0,.38,0,11.88-9.63,21.52-21.52,21.52l-6.79.07c-4.89,0-9.25-2.27-12.08-5.82l-.09-.12c-.68-.87-1.76-1.43-2.98-1.43-2.07,0-3.75,1.64-3.75,3.65v.33s.02,6.45.02,6.45v290.87Z"
    fill="none" stroke="red" stroke-linecap="round" stroke-linejoin="round" stroke-width=".5" />
</svg>