<?xml version="1.0" encoding="UTF-8"?>
<svg id="_Í_ã_1" data-name="Í¼²ã 1" xmlns="http://www.w3.org/2000/svg" viewBox="0 0 195.24 422.58">
  <path
    d="M48.5.25c-2.52,0-4.55,2.07-4.56,4.62v.91s0,16.03,0,16.03l.27,29.56-.11,7.74c-.17,18.41-4.37,23.6-22.79,23.6H4.81c-2.52,0-4.56,2.07-4.56,4.62v10.18c0,67.24,0,239.94,0,302.08,0,15.55,7.91,23.43,22.45,22.7h148.31c16.58,0,23.97-7.02,23.97-22.71V23.82c0-15.02-5.04-23.57-23.31-23.57H61.36s-12.86,0-12.86,0Z"
    fill="none" fill-rule="evenodd" stroke="red" stroke-miterlimit="10" stroke-width=".5" />
</svg>