<svg version="1.1" id="Calque_1" xmlns="http://www.w3.org/2000/svg"
	xmlns:xlink="http://www.w3.org/1999/xlink" x="0px" y="0px" viewBox="0 0 840 1680" width="840px"
	height="1680px">
	<path fill="none" stroke="red" stroke-linecap="round" stroke-linejoin="round" stroke-width="1"
		d="M 617.388 991.966 C 616.404 990.356 615.417 988.456 615.348 986.662 C 615.168 982.514 614.997 978.251 615.803 974.212 C 618.37 961.089 620.973 947.97 624.281 935.024 C 631.213 907.912 633.143 880.689 627.729 853.112 C 622.911 828.739 613.341 806.228 600.397 785.084 C 572.963 740.316 534.981 708.87 484.541 693.08 C 449.156 681.999 413.003 678.651 376.246 683.192 C 344.732 687.099 314.485 695.505 287.157 712.107 C 244.524 737.996 214.803 774.85 196.691 821.174 C 183.504 854.87 180.3 889.483 188.251 924.933 C 191.591 939.885 195.532 954.724 198.588 969.743 C 200.773 980.334 200.978 990.881 193.522 1000.16 C 191.131 1003.15 189.623 1006.92 187.826 1010.36 C 178.93 1027.18 173.76 1044.75 176.505 1064 C 178.93 1081.21 185.678 1096.19 199.503 1107.36 C 208.262 1114.44 218.497 1118.48 229.152 1121.72 C 230.669 1122.18 232.603 1123.36 233.097 1124.68 C 237.562 1136.7 240.128 1149.15 240.553 1162 C 241.111 1179.54 241.291 1197.1 241.959 1214.65 C 243.502 1254.7 260.527 1287.14 292.041 1311.41 C 325.807 1337.37 363.759 1352.06 407.164 1349.46 C 415.463 1349.46 423.938 1350.41 432.103 1349.29 C 467.272 1344.54 498.89 1331.36 526.358 1308.56 C 551.543 1287.63 567.621 1261.46 571.523 1228.83 C 573.423 1212.74 573.456 1196.4 573.879 1180.17 C 574.301 1164.56 575.039 1149.08 578.877 1133.76 C 580.878 1125.76 584.08 1120.14 592.942 1119.2 C 594.948 1118.99 596.844 1117.82 598.783 1117 C 618.337 1108.92 631.281 1095 636.38 1074.24 C 639.649 1060.91 639.407 1047.44 636.592 1034.04 C 633.356 1018.56 625.444 1005.23 617.388 991.966 Z"></path>
</svg>