<svg version="1.1" id="Calque_1" xmlns="http://www.w3.org/2000/svg"
	xmlns:xlink="http://www.w3.org/1999/xlink" x="0px" y="0px" viewBox="0 0 840 1680" width="840px"
	height="1680px">
	<path fill="none" stroke="red" stroke-linecap="round" stroke-linejoin="round" stroke-width="1"
		d="M 624.483 989.952 C 623.505 988.353 622.524 986.466 622.456 984.683 C 622.277 980.562 622.107 976.327 622.908 972.314 C 625.459 959.276 628.044 946.242 631.331 933.379 C 638.218 906.444 640.136 879.396 634.756 851.998 C 629.97 827.784 620.461 805.418 607.601 784.411 C 580.346 739.933 542.61 708.691 492.496 693.003 C 457.341 681.994 421.422 678.668 384.903 683.18 C 353.593 687.061 323.543 695.412 296.392 711.907 C 254.035 737.628 224.506 774.243 206.512 820.267 C 193.41 853.745 190.226 888.133 198.126 923.354 C 201.445 938.209 205.36 952.952 208.396 967.873 C 210.567 978.396 210.771 988.875 203.363 998.098 C 200.988 1001.07 199.489 1004.81 197.704 1008.23 C 188.865 1024.94 183.729 1042.4 186.456 1061.52 C 188.865 1078.62 195.57 1093.5 209.305 1104.6 C 218.008 1111.63 228.176 1115.65 238.762 1118.87 C 240.269 1119.33 242.19 1120.5 242.681 1121.8 C 247.118 1133.75 249.667 1146.12 250.089 1158.88 C 250.644 1176.31 250.823 1193.76 251.486 1211.2 C 253.019 1250.98 269.934 1283.21 301.244 1307.33 C 334.791 1333.11 372.497 1347.71 415.621 1345.13 C 423.866 1345.13 432.286 1346.07 440.398 1344.96 C 475.34 1340.24 506.752 1327.15 534.042 1304.5 C 559.064 1283.7 575.038 1257.7 578.915 1225.28 C 580.803 1209.29 580.836 1193.06 581.256 1176.93 C 581.675 1161.43 582.408 1146.05 586.221 1130.82 C 588.21 1122.88 591.391 1117.29 600.195 1116.36 C 602.188 1116.15 604.072 1114.99 605.998 1114.18 C 625.426 1106.15 638.286 1092.32 643.352 1071.69 C 646.6 1058.45 646.359 1045.07 643.562 1031.76 C 640.347 1016.37 632.486 1003.13 624.483 989.952 Z"></path>
</svg>