<svg version="1.1" id="Calque_1" xmlns="http://www.w3.org/2000/svg"
	xmlns:xlink="http://www.w3.org/1999/xlink" x="0px" y="0px" viewBox="0 0 840 1680"
	width="840px" height="1680px">
	<path fill="none" stroke="red" stroke-linecap="round" stroke-linejoin="round" stroke-width="1"
		d="M 666.721 992.182 C 665.596 990.342 664.468 988.172 664.39 986.122 C 664.185 981.382 663.989 976.512 664.91 971.897 C 667.845 956.904 670.816 941.915 674.596 927.123 C 682.516 896.147 684.722 865.042 678.536 833.534 C 673.031 805.688 662.097 779.967 647.308 755.809 C 615.964 704.66 572.567 668.732 514.937 650.691 C 474.508 638.03 433.201 634.205 391.205 639.393 C 355.198 643.857 320.64 653.461 289.417 672.43 C 240.706 702.009 206.748 744.116 186.055 797.044 C 170.988 835.543 167.327 875.09 176.412 915.594 C 180.228 932.676 184.731 949.631 188.221 966.791 C 190.718 978.892 190.953 990.942 182.433 1001.55 C 179.702 1004.97 177.979 1009.27 175.926 1013.2 C 165.761 1032.42 159.855 1052.5 162.991 1074.49 C 165.761 1094.14 173.472 1111.26 189.267 1124.03 C 199.275 1132.11 210.968 1136.73 223.143 1140.44 C 224.876 1140.96 227.085 1142.32 227.65 1143.81 C 232.752 1157.55 235.683 1171.77 236.169 1186.45 C 236.807 1206.5 237.012 1226.55 237.776 1246.61 C 239.538 1292.37 258.991 1329.43 294.997 1357.16 C 333.576 1386.82 376.938 1403.6 426.531 1400.63 C 436.012 1400.63 445.696 1401.72 455.023 1400.44 C 495.207 1395.01 531.331 1379.95 562.715 1353.91 C 591.49 1329.99 609.86 1300.09 614.318 1262.81 C 616.489 1244.42 616.528 1225.75 617.01 1207.21 C 617.492 1189.38 618.335 1171.69 622.72 1154.18 C 625.008 1145.05 628.665 1138.62 638.791 1137.54 C 641.082 1137.3 643.249 1135.97 645.463 1135.04 C 667.806 1125.8 682.594 1109.9 688.421 1086.18 C 692.156 1070.95 691.879 1055.56 688.662 1040.26 C 684.965 1022.56 675.925 1007.34 666.721 992.182 Z"></path>
</svg>