<svg version="1.1" id="Calque_1" xmlns="http://www.w3.org/2000/svg"
	xmlns:xlink="http://www.w3.org/1999/xlink" x="0px" y="0px" viewBox="0 0 840 1680" width="840px"
	height="1680px">
	<path stroke="red" stroke-linecap="round" stroke-linejoin="round" stroke-width="1" fill="none"
		d="M 499.834 656.635 C 500.002 692.575 484.552 719.944 453.988 738.839 C 452.391 739.848 451.09 741.273 448.991 743.08 C 460.749 743.457 471.578 743.749 482.369 744.212 C 483.374 744.255 484.635 745.136 485.267 746.018 C 503.488 771.627 507.558 798.918 494.754 828.094 C 493.451 831.033 491.899 833.847 490.431 836.702 C 488.372 840.647 484.971 842.202 480.689 842.243 C 474.264 842.327 467.801 842.413 461.334 842.536 C 460.118 842.58 458.94 842.706 457.599 842.79 C 457.599 848.665 457.556 854.251 457.599 859.791 C 457.81 876.626 458.228 893.505 458.311 910.338 C 458.563 956.678 458.69 1003.05 458.901 1049.4 C 459.11 1088.68 459.36 1127.94 459.656 1167.24 C 459.698 1171.68 459.403 1176.27 460.243 1180.59 C 462.931 1194.36 461.838 1208.69 467.296 1222.16 C 480.985 1255.99 512.178 1271.72 548.532 1262.49 C 567.426 1257.66 583.717 1248.02 597.11 1234.25 C 611.172 1219.81 624.103 1204.22 637.496 1189.11 C 637.666 1188.94 637.666 1188.66 637.916 1187.82 C 626.497 1187.94 615.413 1186.65 604.247 1182.2 C 636.95 1149.89 662.437 1113.29 676.458 1069.46 C 676.918 1067.99 678.22 1066.36 679.565 1065.68 C 684.14 1063.45 684.686 1068.24 685.694 1070.31 C 702.024 1102.58 708.366 1136.84 705.425 1172.86 C 703.663 1194.45 698.246 1215 689.345 1234.71 C 688.297 1237.06 686.994 1239.36 685.653 1241.57 C 685.316 1242.1 684.267 1242.18 683.512 1242.47 C 683.341 1241.79 683.174 1241.17 683.008 1240.5 C 682.672 1239.06 682.713 1237.43 681.956 1236.24 C 677.298 1228.69 672.47 1221.27 667.935 1214.1 C 662.856 1223.04 658.195 1232.31 652.527 1241.02 C 631.366 1273.45 603.784 1299.83 571.498 1320.81 C 550.255 1334.63 527.585 1346.25 505.419 1358.59 C 485.769 1369.53 466.414 1380.68 449.034 1395.14 C 438.455 1403.94 430.142 1414.72 421.576 1425.31 C 420.445 1426.69 419.142 1428 417.925 1429.3 L 416.455 1429.3 C 414.397 1424.01 412.845 1418.5 410.199 1413.51 C 401.928 1397.93 388.871 1386.76 374.011 1378.08 C 351.884 1365.17 329.34 1353.03 306.837 1340.75 C 277.323 1324.66 248.352 1307.75 222.868 1285.6 C 203.808 1269 187.477 1250.3 176.394 1227.36 C 174.421 1223.2 173.874 1217.99 168.796 1216.14 C 167.997 1218.8 162.709 1219.09 164.259 1222.34 C 160.44 1227.28 156.999 1231.68 153.218 1236.59 C 152.087 1234.96 151.204 1233.83 150.45 1232.62 C 141.086 1217.19 135.336 1200.39 132.187 1182.73 C 130.925 1175.72 130.129 1168.59 129.121 1161.52 L 129.121 1138.47 C 130.129 1131.65 130.883 1124.75 132.187 1117.94 C 135.627 1099.85 142.387 1083.06 152.927 1067.92 C 153.766 1066.71 155.316 1066.06 157.166 1064.61 C 158.887 1070.9 160.189 1076.14 161.826 1081.3 C 169.381 1105.09 179.249 1127.65 197.132 1145.87 C 208.763 1157.73 221.694 1167.78 236.305 1175.72 C 237.396 1176.29 238.236 1177.4 239.16 1178.27 C 238.067 1178.86 237.017 1179.72 235.841 1179.97 C 225.639 1182.05 215.437 1183.98 205.239 1186.01 C 203.683 1186.3 202.172 1186.65 200.073 1187.09 C 201.752 1189.03 203.055 1190.63 204.438 1192.13 C 218.04 1207.22 231.266 1222.7 247.304 1235.43 C 263.384 1248.22 281.142 1257.21 301.757 1260.2 C 329.842 1264.27 358.602 1250.63 372.372 1226 C 373.548 1223.88 373.716 1221.07 373.84 1218.49 C 375.312 1189.83 376.78 1161.11 378 1132.38 C 379.384 1099.75 380.726 1067.07 381.692 1034.36 C 382.532 1006.35 382.95 978.355 383.203 950.35 C 383.456 919.618 383.203 888.887 383.287 858.157 C 383.287 853.244 383.832 848.33 384.17 842.915 C 375.395 842.915 366.997 842.998 358.602 842.871 C 353.774 842.79 348.985 842.536 344.201 842.075 C 342.985 841.95 341.346 840.901 340.841 839.852 C 327.66 812.521 328.625 775.825 348.567 751.728 C 350.457 749.418 352.639 747.32 355.244 745.642 C 363.471 744.926 374.22 743.457 382.408 742.744 C 382.742 736.361 382.742 736.445 377.117 734.22 C 356.293 725.949 342.733 710.376 333.915 690.391 C 310.613 637.533 342.313 586.146 394.12 573.802 C 398.065 572.878 402.097 572.207 406.084 571.451 L 422.459 571.451 C 427.035 572.417 431.653 573.173 436.187 574.391 C 472.753 584.171 499.664 618.808 499.834 656.635 Z"></path>
</svg>