<svg version="1.1" id="Calque_1" xmlns="http://www.w3.org/2000/svg"
	xmlns:xlink="http://www.w3.org/1999/xlink" x="0px" y="0px" viewBox="0 0 840 1680" width="840px"
	height="1680px">
	<path stroke="red" stroke-linecap="round" stroke-linejoin="round" stroke-width="1" fill="none"
		d="M 484.177 733.438 C 484.318 763.647 471.331 786.652 445.64 802.535 C 444.298 803.383 443.205 804.58 441.44 806.099 C 451.324 806.416 460.426 806.662 469.496 807.051 C 470.341 807.087 471.401 807.828 471.932 808.57 C 487.248 830.095 490.669 853.034 479.907 877.559 C 478.811 880.029 477.507 882.394 476.273 884.794 C 474.542 888.11 471.684 889.417 468.084 889.451 C 462.683 889.522 457.251 889.595 451.815 889.698 C 450.793 889.735 449.803 889.841 448.675 889.911 C 448.675 894.849 448.639 899.545 448.675 904.202 C 448.853 918.352 449.204 932.54 449.275 946.689 C 449.486 985.641 449.593 1024.62 449.771 1063.58 C 449.946 1096.6 450.156 1129.6 450.405 1162.63 C 450.44 1166.37 450.192 1170.23 450.898 1173.86 C 453.158 1185.43 452.239 1197.48 456.826 1208.8 C 468.333 1237.24 494.552 1250.45 525.11 1242.7 C 540.992 1238.64 554.685 1230.53 565.942 1218.96 C 577.763 1206.82 588.632 1193.72 599.889 1181.02 C 600.032 1180.87 600.032 1180.64 600.242 1179.93 C 590.644 1180.04 581.327 1178.95 571.942 1175.21 C 599.43 1148.05 620.853 1117.29 632.639 1080.44 C 633.025 1079.21 634.12 1077.83 635.25 1077.26 C 639.096 1075.39 639.555 1079.42 640.402 1081.16 C 654.128 1108.28 659.459 1137.08 656.987 1167.36 C 655.506 1185.51 650.952 1202.77 643.471 1219.35 C 642.59 1221.32 641.495 1223.26 640.368 1225.11 C 640.084 1225.56 639.202 1225.62 638.568 1225.87 C 638.425 1225.3 638.284 1224.78 638.144 1224.21 C 637.862 1223.01 637.897 1221.63 637.26 1220.63 C 633.345 1214.29 629.287 1208.05 625.475 1202.02 C 621.205 1209.54 617.288 1217.32 612.523 1224.65 C 594.737 1251.91 571.553 1274.08 544.414 1291.72 C 526.558 1303.33 507.503 1313.1 488.871 1323.47 C 472.354 1332.67 456.086 1342.04 441.477 1354.2 C 432.584 1361.59 425.597 1370.65 418.397 1379.56 C 417.446 1380.71 416.351 1381.81 415.328 1382.91 L 414.092 1382.91 C 412.362 1378.47 411.058 1373.83 408.833 1369.64 C 401.881 1356.54 390.906 1347.15 378.415 1339.86 C 359.816 1329.01 340.867 1318.8 321.952 1308.48 C 297.144 1294.96 272.793 1280.75 251.371 1262.12 C 235.35 1248.17 221.623 1232.45 212.308 1213.17 C 210.65 1209.67 210.19 1205.29 205.921 1203.74 C 205.249 1205.97 200.804 1206.21 202.108 1208.95 C 198.897 1213.11 196.005 1216.8 192.827 1220.92 C 191.876 1219.56 191.134 1218.61 190.5 1217.59 C 182.63 1204.62 177.796 1190.5 175.149 1175.65 C 174.088 1169.77 173.42 1163.77 172.572 1157.82 L 172.572 1138.45 C 173.42 1132.72 174.053 1126.92 175.149 1121.2 C 178.04 1105.99 183.723 1091.88 192.582 1079.15 C 193.288 1078.13 194.59 1077.58 196.146 1076.36 C 197.592 1081.65 198.687 1086.06 200.063 1090.4 C 206.413 1110.39 214.707 1129.35 229.739 1144.68 C 239.515 1154.64 250.384 1163.08 262.666 1169.77 C 263.583 1170.24 264.289 1171.17 265.066 1171.9 C 264.147 1172.4 263.265 1173.12 262.276 1173.33 C 253.7 1175.08 245.126 1176.7 236.553 1178.42 C 235.245 1178.66 233.976 1178.95 232.211 1179.32 C 233.622 1180.95 234.717 1182.29 235.881 1183.56 C 247.313 1196.24 258.43 1209.25 271.911 1219.95 C 285.428 1230.7 300.354 1238.26 317.682 1240.77 C 341.289 1244.19 365.464 1232.73 377.038 1212.02 C 378.027 1210.24 378.168 1207.89 378.272 1205.71 C 379.509 1181.62 380.743 1157.48 381.768 1133.33 C 382.932 1105.91 384.06 1078.43 384.872 1050.94 C 385.578 1027.39 385.929 1003.86 386.141 980.322 C 386.355 954.489 386.141 928.658 386.213 902.828 C 386.213 898.698 386.67 894.568 386.955 890.017 C 379.579 890.017 372.52 890.087 365.464 889.979 C 361.405 889.911 357.38 889.698 353.359 889.31 C 352.337 889.205 350.959 888.324 350.534 887.442 C 339.455 864.469 340.266 833.623 357.028 813.368 C 358.617 811.427 360.451 809.664 362.641 808.253 C 369.556 807.652 378.591 806.416 385.474 805.817 C 385.755 800.452 385.755 800.523 381.026 798.652 C 363.523 791.7 352.124 778.61 344.713 761.812 C 325.126 717.382 351.772 674.188 395.318 663.812 C 398.634 663.035 402.023 662.471 405.375 661.836 L 419.138 661.836 C 422.985 662.648 426.866 663.284 430.678 664.307 C 461.414 672.528 484.033 701.642 484.177 733.438 Z"></path>
</svg>