<svg version="1.1" id="Calque_1" xmlns="http://www.w3.org/2000/svg"
	xmlns:xlink="http://www.w3.org/1999/xlink" x="0px" y="0px" viewBox="0 0 840 1680" width="840px"
	height="1680px">
	<path stroke="red" stroke-linecap="round" stroke-linejoin="round" stroke-width="1" fill="none"
		d="M 648.509 725.784 C 638.95 722.189 639.017 722.189 641.22 712.528 C 646.339 689.952 655.426 667.574 644.645 644.22 C 644.578 644.05 644.544 643.811 644.578 643.609 C 646.002 635.135 641.456 631.302 633.898 629.777 C 633.695 629.744 633.492 629.64 633.322 629.54 C 627.151 626.184 621.661 627.065 616.303 631.675 C 611.931 635.473 607.184 638.929 600.982 639.268 C 594.878 639.609 589.25 641.776 583.692 644.116 C 547.587 659.475 511.959 675.814 476.972 693.61 C 474.057 695.101 471.242 697.24 467.649 695.68 C 454.258 689.917 439.952 691.782 426.02 690.424 C 415.782 689.442 407.645 692.595 398.966 698.019 C 372.93 714.259 347.2 730.936 321.571 747.852 C 302.214 760.634 281.636 770.363 257.431 769.483 C 243.702 768.973 229.904 769.379 215.732 769.379 C 216.308 771.65 216.274 772.33 216.615 772.805 C 229.632 791.076 243.362 808.804 260.921 822.875 C 269.567 829.793 272.414 836.574 266.651 846.299 C 265.839 847.693 265.566 849.42 265.125 851.049 C 260.855 867.289 256.956 883.627 252.243 899.691 C 241.328 937.045 221.395 969.73 198.272 1000.59 C 194.714 1005.33 195.324 1009.05 197.019 1013.68 C 201.019 1024.35 204.918 1035.09 208.85 1045.81 C 211.258 1049.17 212.649 1052.86 212.546 1057.03 C 212.852 1058.32 212.343 1059.88 213.768 1060.84 C 217.326 1063.78 215.901 1067.44 215.189 1070.98 C 209.36 1100.86 199.8 1129.65 189.934 1158.32 C 188.578 1162.22 187.527 1166.23 186.205 1170.15 C 185.628 1171.89 185.662 1172.93 187.799 1173 C 198.173 1167.93 207.665 1161.58 216.308 1153.98 C 217.19 1152.25 218.75 1151.48 220.377 1152.22 C 222.071 1152.97 221.292 1154.83 220.952 1156.11 C 219.054 1163.77 218.918 1171.72 217.224 1179.35 C 216.005 1184.9 217.089 1189.21 220.207 1193.79 C 231.836 1210.8 242.31 1228.59 254.785 1245.07 C 262.686 1255.49 272.381 1264.19 281.297 1273.63 C 283.397 1274.03 283.637 1272.64 283.839 1271.08 C 285.738 1256.76 291.67 1243.68 296.314 1230.22 C 296.146 1228.22 297.027 1226.77 298.992 1226.91 C 301.027 1227 301.095 1229.19 301.638 1230.66 C 308.553 1249.73 315.265 1268.87 322.453 1287.82 C 326.113 1297.41 330.69 1306.7 334.826 1316.09 C 337.165 1319.75 339.742 1323.32 341.81 1327.1 C 343.538 1330.3 344.76 1330.56 346.963 1327.58 C 362.116 1306.77 379.811 1288.03 395.848 1267.92 C 401.678 1260.65 401.678 1260.77 407.916 1268.17 C 433.306 1298.21 460.834 1325.96 493.447 1348.34 C 508.263 1358.5 524.467 1365.29 542.163 1371.15 C 541.451 1369.05 541.247 1367.82 540.671 1366.82 C 533.654 1353.77 529.451 1339.59 524.127 1325.91 C 519.823 1314.85 516.737 1303.82 523.212 1292.51 C 523.722 1291.62 523.722 1290.52 523.992 1289.52 C 530.433 1265.88 536.909 1242.29 543.249 1218.64 C 544.535 1213.78 546.129 1213.31 549.521 1217.03 C 554.129 1222.09 558.876 1227.03 563.86 1231.75 C 575.353 1242.6 587.794 1251.92 603.998 1256.5 C 602.607 1249.37 601.319 1242.9 600.133 1236.42 C 592.403 1193.72 588.404 1150.49 582.404 1107.54 C 582.2 1105.98 581.116 1104.05 583.014 1103.08 C 584.473 1102.32 585.59 1103.97 586.742 1104.77 C 593.285 1109.17 599.963 1113.19 608.813 1113.84 C 603.829 1103.32 598.473 1093.55 594.776 1082.08 C 605.929 1085.02 615.525 1089.61 626.983 1088.93 C 625.017 1085.09 623.626 1082.1 621.999 1079.3 C 607.863 1054.89 591.557 1031.8 578.402 1006.82 C 571.555 993.767 565.588 980.589 563.418 965.601 C 561.181 950.168 560.538 934.617 557.96 919.288 C 555.045 901.899 552.097 884.512 550.739 866.877 C 550.401 862.235 551.215 858.605 554.638 855.111 C 562.504 847.153 569.859 838.674 577.556 830.54 C 585.115 822.572 593.048 814.977 598.811 805.448 C 601.998 800.163 606.575 796.737 612.642 794.738 C 620.508 792.162 628 788.567 635.729 785.551 C 638.137 784.602 640.373 783.483 641.594 781.211 C 648.578 768.397 657.087 756.328 657.595 740.734 C 658.17 729.684 658.952 729.716 648.509 725.784 Z"></path>
</svg>