<svg version="1.1" id="Calque_1" xmlns="http://www.w3.org/2000/svg"
	xmlns:xlink="http://www.w3.org/1999/xlink" x="0px" y="0px" viewBox="0 0 840 1680" width="840px"
	height="1680px">
	<path stroke="red" stroke-linecap="round" stroke-linejoin="round" stroke-width="1" fill="none"
		d="M 671.243 733.703 C 660.733 729.75 660.806 729.75 663.229 719.126 C 668.858 694.302 678.849 669.697 666.995 644.016 C 666.92 643.829 666.883 643.567 666.92 643.344 C 668.486 634.026 663.489 629.812 655.178 628.135 C 654.954 628.099 654.731 627.985 654.544 627.875 C 647.759 624.185 641.722 625.153 635.831 630.222 C 631.023 634.399 625.804 638.199 618.983 638.572 C 612.273 638.946 606.084 641.33 599.972 643.903 C 560.272 660.79 521.096 678.757 482.625 698.325 C 479.42 699.965 476.325 702.316 472.374 700.601 C 457.65 694.264 441.919 696.314 426.599 694.822 C 415.342 693.742 406.394 697.209 396.851 703.172 C 368.223 721.029 339.931 739.367 311.75 757.968 C 290.465 772.022 267.839 782.72 241.223 781.752 C 226.127 781.192 210.955 781.639 195.372 781.639 C 196.005 784.136 195.968 784.883 196.342 785.405 C 210.656 805.496 225.753 824.989 245.061 840.462 C 254.568 848.069 257.698 855.525 251.361 866.218 C 250.468 867.75 250.168 869.649 249.684 871.441 C 244.988 889.298 240.701 907.263 235.519 924.927 C 223.516 966 201.599 1001.94 176.174 1035.87 C 172.261 1041.08 172.932 1045.18 174.796 1050.26 C 179.194 1061.99 183.481 1073.8 187.805 1085.59 C 190.452 1089.29 191.982 1093.34 191.868 1097.93 C 192.205 1099.35 191.645 1101.07 193.212 1102.11 C 197.125 1105.35 195.558 1109.38 194.775 1113.27 C 188.365 1146.13 177.853 1177.78 167.005 1209.3 C 165.514 1213.6 164.358 1218 162.905 1222.32 C 162.27 1224.23 162.308 1225.37 164.657 1225.45 C 176.064 1219.87 186.501 1212.89 196.005 1204.54 C 196.975 1202.64 198.691 1201.78 200.479 1202.59 C 202.342 1203.42 201.485 1205.47 201.112 1206.88 C 199.025 1215.3 198.875 1224.04 197.012 1232.43 C 195.672 1238.53 196.864 1243.27 200.292 1248.31 C 213.079 1267.02 224.597 1286.57 238.314 1304.7 C 247.001 1316.15 257.662 1325.72 267.465 1336.1 C 269.775 1336.54 270.038 1335.01 270.261 1333.29 C 272.349 1317.55 278.871 1303.17 283.978 1288.37 C 283.793 1286.17 284.762 1284.57 286.923 1284.72 C 289.16 1284.82 289.235 1287.23 289.832 1288.85 C 297.436 1309.81 304.816 1330.87 312.72 1351.7 C 316.744 1362.25 321.777 1372.46 326.325 1382.79 C 328.897 1386.81 331.731 1390.73 334.004 1394.9 C 335.904 1398.41 337.248 1398.7 339.671 1395.42 C 356.332 1372.54 375.79 1351.93 393.423 1329.82 C 399.834 1321.82 399.834 1321.96 406.693 1330.09 C 434.612 1363.12 464.881 1393.64 500.741 1418.25 C 517.032 1429.42 534.85 1436.89 554.307 1443.33 C 553.525 1441.02 553.301 1439.67 552.667 1438.57 C 544.951 1424.22 540.33 1408.63 534.476 1393.58 C 529.743 1381.42 526.35 1369.3 533.47 1356.86 C 534.03 1355.88 534.03 1354.66 534.327 1353.57 C 541.41 1327.58 548.53 1301.64 555.501 1275.63 C 556.917 1270.29 558.669 1269.77 562.398 1273.87 C 567.466 1279.43 572.685 1284.86 578.165 1290.05 C 590.802 1301.98 604.483 1312.23 622.301 1317.26 C 620.771 1309.42 619.354 1302.31 618.05 1295.18 C 609.551 1248.23 605.153 1200.69 598.556 1153.47 C 598.332 1151.75 597.139 1149.63 599.226 1148.56 C 600.83 1147.73 602.06 1149.55 603.326 1150.42 C 610.52 1155.26 617.864 1159.69 627.594 1160.39 C 622.114 1148.82 616.224 1138.08 612.16 1125.47 C 624.424 1128.71 634.975 1133.76 647.574 1133 C 645.412 1128.79 643.882 1125.5 642.094 1122.42 C 626.55 1095.58 608.62 1070.19 594.156 1042.72 C 586.626 1028.37 580.065 1013.88 577.68 997.4 C 575.219 980.43 574.512 963.33 571.678 946.474 C 568.472 927.354 565.231 908.235 563.738 888.845 C 563.366 883.741 564.261 879.749 568.025 875.908 C 576.675 867.157 584.762 857.834 593.225 848.889 C 601.536 840.128 610.26 831.776 616.597 821.299 C 620.101 815.487 625.134 811.721 631.804 809.523 C 640.454 806.69 648.692 802.737 657.191 799.42 C 659.838 798.377 662.298 797.146 663.639 794.649 C 671.319 780.558 680.676 767.288 681.234 750.141 C 681.867 737.99 682.726 738.026 671.243 733.703 Z"></path>
</svg>