<svg version="1.1" id="Calque_1" xmlns="http://www.w3.org/2000/svg"
	xmlns:xlink="http://www.w3.org/1999/xlink" x="0px" y="0px" viewBox="0 0 840 1680" width="840px"
	height="1680px">
	<path stroke="red" stroke-linecap="round" stroke-linejoin="round" stroke-width="1" fill="none"
		d="M 652.721 728.651 C 642.798 724.92 642.867 724.92 645.155 714.89 C 650.469 691.453 659.903 668.222 648.71 643.977 C 648.641 643.8 648.606 643.553 648.641 643.342 C 650.119 634.545 645.4 630.566 637.553 628.984 C 637.343 628.949 637.132 628.841 636.955 628.737 C 630.549 625.253 624.85 626.168 619.288 630.954 C 614.749 634.897 609.821 638.484 603.382 638.837 C 597.046 639.19 591.203 641.439 585.433 643.869 C 547.951 659.814 510.965 676.776 474.644 695.251 C 471.617 696.798 468.695 699.02 464.964 697.399 C 451.063 691.416 436.211 693.352 421.748 691.943 C 411.119 690.923 402.672 694.197 393.662 699.828 C 366.633 716.688 339.923 734 313.315 751.561 C 293.22 764.831 271.858 774.931 246.73 774.018 C 232.476 773.488 218.153 773.909 203.439 773.909 C 204.038 776.267 204.003 776.973 204.357 777.466 C 217.87 796.434 232.125 814.837 250.353 829.446 C 259.328 836.627 262.284 843.667 256.301 853.763 C 255.458 855.209 255.175 857.002 254.717 858.694 C 250.284 875.553 246.237 892.514 241.344 909.191 C 230.012 947.97 209.318 981.901 185.314 1013.94 C 181.621 1018.86 182.254 1022.72 184.014 1027.53 C 188.166 1038.6 192.214 1049.75 196.296 1060.88 C 198.796 1064.37 200.239 1068.2 200.132 1072.53 C 200.45 1073.87 199.922 1075.49 201.401 1076.49 C 205.095 1079.53 203.616 1083.33 202.876 1087.01 C 196.825 1118.03 186.9 1147.92 176.659 1177.69 C 175.251 1181.73 174.159 1185.89 172.787 1189.96 C 172.188 1191.77 172.224 1192.85 174.442 1192.93 C 185.211 1187.65 195.065 1181.06 204.038 1173.18 C 204.954 1171.38 206.573 1170.58 208.262 1171.34 C 210.021 1172.13 209.212 1174.06 208.859 1175.39 C 206.889 1183.34 206.748 1191.6 204.989 1199.52 C 203.724 1205.27 204.849 1209.75 208.086 1214.51 C 220.158 1232.17 231.032 1250.63 243.983 1267.75 C 252.185 1278.56 262.25 1287.59 271.505 1297.39 C 273.686 1297.81 273.934 1296.36 274.145 1294.74 C 276.116 1279.88 282.274 1266.3 287.095 1252.32 C 286.921 1250.25 287.835 1248.74 289.875 1248.89 C 291.988 1248.98 292.058 1251.26 292.623 1252.79 C 299.801 1272.58 306.769 1292.45 314.231 1312.12 C 318.03 1322.08 322.783 1331.72 327.076 1341.47 C 329.505 1345.27 332.179 1348.97 334.326 1352.9 C 336.12 1356.22 337.389 1356.49 339.676 1353.4 C 355.407 1331.8 373.777 1312.34 390.426 1291.46 C 396.477 1283.91 396.477 1284.03 402.953 1291.73 C 429.311 1322.91 457.89 1351.72 491.746 1374.96 C 507.127 1385.5 523.949 1392.55 542.32 1398.63 C 541.581 1396.45 541.369 1395.18 540.771 1394.14 C 533.487 1380.59 529.123 1365.87 523.596 1351.67 C 519.128 1340.18 515.924 1328.73 522.646 1316.99 C 523.176 1316.06 523.176 1314.92 523.456 1313.89 C 530.143 1289.34 536.865 1264.85 543.447 1240.3 C 544.783 1235.25 546.437 1234.77 549.958 1238.64 C 554.742 1243.89 559.671 1249.01 564.845 1253.91 C 576.775 1265.18 589.692 1274.85 606.514 1279.6 C 605.069 1272.21 603.731 1265.49 602.501 1258.76 C 594.476 1214.43 590.325 1169.56 584.095 1124.97 C 583.884 1123.35 582.758 1121.34 584.729 1120.33 C 586.244 1119.55 587.404 1121.26 588.599 1122.09 C 595.391 1126.66 602.324 1130.84 611.512 1131.51 C 606.338 1120.59 600.777 1110.45 596.939 1098.54 C 608.518 1101.59 618.48 1106.36 630.375 1105.65 C 628.333 1101.66 626.889 1098.56 625.201 1095.66 C 610.525 1070.31 593.598 1046.34 579.941 1020.4 C 572.832 1006.86 566.638 993.174 564.386 977.614 C 562.063 961.593 561.396 945.449 558.719 929.535 C 555.693 911.483 552.633 893.433 551.223 875.125 C 550.872 870.306 551.717 866.538 555.271 862.91 C 563.437 854.649 571.073 845.847 579.063 837.402 C 586.91 829.131 595.146 821.246 601.129 811.354 C 604.437 805.868 609.188 802.311 615.486 800.235 C 623.653 797.561 631.431 793.829 639.454 790.698 C 641.953 789.713 644.276 788.551 645.543 786.192 C 652.793 772.889 661.627 760.361 662.154 744.172 C 662.751 732.7 663.563 732.734 652.721 728.651 Z"></path>
</svg>