<?xml version="1.0" encoding="UTF-8"?>
<svg id="_0" data-name="0" xmlns="http://www.w3.org/2000/svg" viewBox="0 0 200.66 452.1">
  <g id="ARC">
    <path d="M89.61.25c-3.76,0-6.8,3.05-6.8,6.8,0,1.61.57,3.18,1.62,4.41" fill="none" stroke="red" stroke-linecap="round" stroke-linejoin="round" stroke-width=".5"/>
  </g>
  <g id="LINE">
    <line x1="179.21" y1=".25" x2="89.61" y2=".25" fill="none" stroke="red" stroke-linecap="round" stroke-linejoin="round" stroke-width=".5"/>
  </g>
  <g id="ARC-2" data-name="ARC">
    <path d="M91.52,30.74c0-7.06-2.51-13.9-7.09-19.28" fill="none" stroke="red" stroke-linecap="round" stroke-linejoin="round" stroke-width=".5"/>
  </g>
  <g id="LINE-2" data-name="LINE">
    <line x1="91.52" y1="30.74" x2="91.52" y2="106.14" fill="none" stroke="red" stroke-linecap="round" stroke-linejoin="round" stroke-width=".5"/>
  </g>
  <g id="ARC-3" data-name="ARC">
    <path d="M61.75,135.91c16.44,0,29.76-13.33,29.76-29.76" fill="none" stroke="red" stroke-linecap="round" stroke-linejoin="round" stroke-width=".5"/>
  </g>
  <g id="LINE-3" data-name="LINE">
    <line x1="61.75" y1="135.91" x2="30.29" y2="135.91" fill="none" stroke="red" stroke-linecap="round" stroke-linejoin="round" stroke-width=".5"/>
  </g>
  <g id="ARC-4" data-name="ARC">
    <path d="M11.38,129.13c5.33,4.38,12.01,6.78,18.91,6.78" fill="none" stroke="red" stroke-linecap="round" stroke-linejoin="round" stroke-width=".5"/>
  </g>
  <g id="ARC-5" data-name="ARC">
    <path d="M11.38,129.13c-2.9-2.39-7.19-1.97-9.58.93-1,1.22-1.55,2.75-1.55,4.32" fill="none" stroke="red" stroke-linecap="round" stroke-linejoin="round" stroke-width=".5"/>
  </g>
  <g id="LINE-4" data-name="LINE">
    <line x1=".25" y1="134.38" x2=".25" y2="430.64" fill="none" stroke="red" stroke-linecap="round" stroke-linejoin="round" stroke-width=".5"/>
  </g>
  <g id="ARC-6" data-name="ARC">
    <path d="M.25,430.64c0,11.71,9.49,21.21,21.21,21.21" fill="none" stroke="red" stroke-linecap="round" stroke-linejoin="round" stroke-width=".5"/>
  </g>
  <g id="LINE-5" data-name="LINE">
    <line x1="21.46" y1="451.85" x2="179.21" y2="451.85" fill="none" stroke="red" stroke-linecap="round" stroke-linejoin="round" stroke-width=".5"/>
  </g>
  <g id="ARC-7" data-name="ARC">
    <path d="M179.21,451.85c11.71,0,21.21-9.49,21.21-21.21" fill="none" stroke="red" stroke-linecap="round" stroke-linejoin="round" stroke-width=".5"/>
  </g>
  <g id="LINE-6" data-name="LINE">
    <line x1="200.41" y1="430.64" x2="200.41" y2="21.46" fill="none" stroke="red" stroke-linecap="round" stroke-linejoin="round" stroke-width=".5"/>
  </g>
  <g id="ARC-8" data-name="ARC">
    <path d="M200.41,21.46c0-11.71-9.49-21.21-21.21-21.21" fill="none" stroke="red" stroke-linecap="round" stroke-linejoin="round" stroke-width=".5"/>
  </g>
</svg>