<?xml version="1.0" encoding="UTF-8"?>
<svg id="_1" data-name="1" xmlns="http://www.w3.org/2000/svg" viewBox="0 0 185.77 405.94">
  <g id="LINE">
    <line x1="13" y1="34.85" x2="13" y2="62.71" fill="none" stroke="red" stroke-linecap="round" stroke-linejoin="round" stroke-width=".5"/>
  </g>
  <g id="LINE-2" data-name="LINE">
    <line x1="42.76" y1="62.71" x2="42.76" y2="34.86" fill="none" stroke="red" stroke-linecap="round" stroke-linejoin="round" stroke-width=".5"/>
  </g>
  <g id="LINE-3" data-name="LINE">
    <line x1="28.15" y1="20.96" x2="27.6" y2="20.96" fill="none" stroke="red" stroke-linecap="round" stroke-linejoin="round" stroke-width=".5"/>
  </g>
  <g id="LINE-4" data-name="LINE">
    <line x1="27.61" y1="76.61" x2="28.16" y2="76.61" fill="none" stroke="red" stroke-linecap="round" stroke-linejoin="round" stroke-width=".5"/>
  </g>
  <g id="LINE-5" data-name="LINE">
    <line x1="26.8" y1="96.61" x2="28.96" y2="96.61" fill="none" stroke="red" stroke-linecap="round" stroke-linejoin="round" stroke-width=".5"/>
  </g>
  <g id="LINE-6" data-name="LINE">
    <line x1="28.96" y1="82.48" x2="26.8" y2="82.48" fill="none" stroke="red" stroke-linecap="round" stroke-linejoin="round" stroke-width=".5"/>
  </g>
  <g id="LINE-7" data-name="LINE">
    <line x1="34.95" y1="90.63" x2="34.95" y2="88.47" fill="none" stroke="red" stroke-linecap="round" stroke-linejoin="round" stroke-width=".5"/>
  </g>
  <g id="LINE-8" data-name="LINE">
    <line x1="20.82" y1="88.47" x2="20.82" y2="90.63" fill="none" stroke="red" stroke-linecap="round" stroke-linejoin="round" stroke-width=".5"/>
  </g>
  <g id="SPLINE">
    <path d="M74.08,83.39c-.24,8.19-1.34,17.84,5.02,24.14,10.7,10.36,32.62,4.31,32.6-11.84" fill="none" stroke="red" stroke-linecap="round" stroke-linejoin="round" stroke-width=".5"/>
  </g>
  <g id="SPLINE-2" data-name="SPLINE">
    <path d="M92.89.25c-3.46,0-6.8,0-10.03,0s-6.34,0-9.35,0c-6.01,0-11.6,0-16.81,0-2.61,0-5.12,0-7.55,0s-4.77,0-7.03,0-4.46,0-6.6,0-4.22,0-6.23,0c-1,0-1.98,0-2.94,0s-1.88,0-2.79,0-1.79.02-2.67.05-1.74.09-2.59.17c-1.69.16-3.31.42-4.77.8s-2.78.89-3.93,1.54-2.16,1.42-3.11,2.35-1.82,2.01-2.59,3.27-1.44,2.69-1.97,4.27-.93,3.28-1.19,4.92-.39,3.19-.45,5.05-.04,4.05-.02,6.35,0,4.69,0,7.13,0,4.94,0,7.5,0,5.2,0,7.95,0,5.63,0,8.66c0,6.05,0,12.65,0,19.93s0,15.25,0,24.15c0,8.89,0,18.71,0,29.81,0,2.77,0,5.63,0,8.58s0,5.98,0,9.11c0,6.25,0,12.82,0,19.43,0,6.61,0,13.26,0,19.72,0,6.46,0,12.75,0,18.76s0,11.76,0,17.32,0,10.95,0,16.15c0,10.41,0,20.09,0,29.12,0,9.03,0,17.42,0,25.25s0,15.12,0,21.92,0,13.13,0,19.04c0,5.91,0,11.42,0,16.52,0,2.55,0,5.01,0,7.43s0,4.8,0,7.12,0,4.56,0,6.71,0,4.2.07,6.06.18,3.52.43,5.2.63,3.41,1.18,5,1.3,3.02,2.22,4.32,2.02,2.5,3.22,3.53,2.49,1.91,3.87,2.62,2.87,1.26,4.48,1.67,3.36.66,5.22.8c.93.07,1.88.12,2.85.14s1.96.03,2.97.03,2.05,0,3.13-.01,2.19,0,3.32,0,2.29,0,3.45,0,2.33,0,3.51,0c2.36,0,4.78,0,7.3,0s5.13,0,7.84,0c5.41,0,11.19,0,17.42,0,3.12,0,6.34,0,9.7,0s6.83,0,10.42,0" fill="none" stroke="red" stroke-linecap="round" stroke-linejoin="round" stroke-width=".5"/>
  </g>
  <g id="SPLINE-3" data-name="SPLINE">
    <path d="M92.89,405.68c3.59,0,7.07,0,10.42,0s6.58,0,9.7,0c6.23,0,12.02,0,17.42,0,2.7,0,5.32,0,7.84,0s4.94,0,7.3,0c1.18,0,2.35,0,3.51,0s2.32,0,3.45,0,2.24,0,3.32,0,2.12.01,3.13.01,2,0,2.97-.03,1.92-.07,2.85-.14c1.86-.14,3.6-.4,5.22-.8s3.1-.96,4.48-1.67,2.67-1.58,3.87-2.62,2.31-2.23,3.22-3.53c.92-1.3,1.66-2.73,2.22-4.32s.94-3.32,1.18-5,.37-3.34.43-5.2c.06-1.86.07-3.91.07-6.06s0-4.4,0-6.71c0-2.31,0-4.69,0-7.12s0-4.89,0-7.43c0-5.1,0-10.61,0-16.52,0-5.91,0-12.24,0-19.04s0-14.08,0-21.92,0-16.22,0-25.25,0-18.71,0-29.12c0-5.2,0-10.59,0-16.15s0-11.31,0-17.32,0-12.3,0-18.76c0-6.46,0-13.11,0-19.72,0-6.61,0-13.18,0-19.43,0-3.13,0-6.16,0-9.11,0-2.95,0-5.8,0-8.58,0-11.1,0-20.92,0-29.81,0-8.89,0-16.87,0-24.15s0-13.88,0-19.93c0-3.03,0-5.91,0-8.66,0-2.75,0-5.38,0-7.95,0-2.56,0-5.06,0-7.5s0-4.83,0-7.13c.01-2.3.03-4.49-.02-6.35-.06-1.86-.18-3.42-.45-5.05-.26-1.63-.66-3.34-1.19-4.92s-1.2-3.01-1.97-4.27-1.64-2.34-2.59-3.27-1.96-1.71-3.11-2.35-2.46-1.15-3.93-1.54-3.08-.64-4.77-.8c-.85-.08-1.71-.13-2.59-.17s-1.76-.05-2.67-.05-1.83,0-2.79,0-1.94,0-2.94,0c-2.01,0-4.09,0-6.23,0s-4.34,0-6.6,0-4.6,0-7.03,0-4.95,0-7.55,0c-5.21,0-10.8,0-16.81,0-3.01,0-6.12,0-9.35,0s-6.58,0-10.03,0" fill="none" stroke="red" stroke-linecap="round" stroke-linejoin="round" stroke-width=".5"/>
  </g>
  <g id="SPLINE-4" data-name="SPLINE">
    <path d="M13,62.71c.02.82.06,1.7.18,2.61s.32,1.84.63,2.76.72,1.84,1.25,2.71,1.19,1.69,1.96,2.4c.39.36.8.69,1.22.98s.86.56,1.3.79c.89.46,1.81.8,2.73,1.06s1.86.42,2.76.5,1.78.09,2.57.08" fill="none" stroke="red" stroke-linecap="round" stroke-linejoin="round" stroke-width=".5"/>
  </g>
  <g id="SPLINE-5" data-name="SPLINE">
    <path d="M42.76,34.86c-.02-.82-.06-1.7-.18-2.61s-.32-1.84-.63-2.76-.72-1.84-1.25-2.71-1.19-1.69-1.96-2.4c-.39-.36-.8-.69-1.22-.98s-.86-.56-1.3-.79c-.89-.46-1.81-.8-2.73-1.06s-1.86-.42-2.76-.5-1.78-.09-2.57-.08" fill="none" stroke="red" stroke-linecap="round" stroke-linejoin="round" stroke-width=".5"/>
  </g>
  <g id="SPLINE-6" data-name="SPLINE">
    <path d="M27.6,20.96c-.79,0-1.65,0-2.55.09s-1.82.23-2.75.49-1.86.6-2.75,1.06c-.45.23-.88.49-1.3.79s-.83.63-1.22.98-.75.74-1.08,1.15-.63.82-.89,1.25c-.53.86-.94,1.78-1.25,2.7s-.53,1.87-.65,2.78-.15,1.81-.17,2.6" fill="none" stroke="red" stroke-linecap="round" stroke-linejoin="round" stroke-width=".5"/>
  </g>
  <g id="SPLINE-7" data-name="SPLINE">
    <path d="M28.16,76.61c.79,0,1.65,0,2.55-.09s1.82-.23,2.75-.49,1.86-.6,2.75-1.06c.45-.23.88-.49,1.3-.79s.83-.63,1.22-.98.75-.74,1.08-1.15.63-.82.89-1.25c.53-.86.93-1.78,1.25-2.7s.53-1.86.65-2.78.15-1.81.17-2.6" fill="none" stroke="red" stroke-linecap="round" stroke-linejoin="round" stroke-width=".5"/>
  </g>
  <g id="SPLINE-8" data-name="SPLINE">
    <path d="M111.7,95.69c.24-8.19,1.34-17.84-5.02-24.14-10.7-10.36-32.62-4.31-32.6,11.84" fill="none" stroke="red" stroke-linecap="round" stroke-linejoin="round" stroke-width=".5"/>
  </g>
  <g id="SPLINE-9" data-name="SPLINE">
    <path d="M20.82,90.63c0,1.07.3,2.15.87,3.06" fill="none" stroke="red" stroke-linecap="round" stroke-linejoin="round" stroke-width=".5"/>
  </g>
  <g id="SPLINE-10" data-name="SPLINE">
    <path d="M34.07,93.7c.57-.92.88-1.99.88-3.07" fill="none" stroke="red" stroke-linecap="round" stroke-linejoin="round" stroke-width=".5"/>
  </g>
  <g id="SPLINE-11" data-name="SPLINE">
    <path d="M34.95,88.47c0-1.06-.3-2.12-.85-3.03" fill="none" stroke="red" stroke-linecap="round" stroke-linejoin="round" stroke-width=".5"/>
  </g>
  <g id="SPLINE-12" data-name="SPLINE">
    <path d="M26.8,82.48c-1.06,0-2.12.3-3.03.85" fill="none" stroke="red" stroke-linecap="round" stroke-linejoin="round" stroke-width=".5"/>
  </g>
  <g id="SPLINE-13" data-name="SPLINE">
    <path d="M21.66,85.45c-.55.9-.84,1.96-.84,3.01" fill="none" stroke="red" stroke-linecap="round" stroke-linejoin="round" stroke-width=".5"/>
  </g>
  <g id="SPLINE-14" data-name="SPLINE">
    <path d="M31.97,83.32c-.9-.55-1.96-.84-3.01-.84" fill="none" stroke="red" stroke-linecap="round" stroke-linejoin="round" stroke-width=".5"/>
  </g>
  <g id="SPLINE-15" data-name="SPLINE">
    <path d="M23.81,95.78c.9.54,1.94.83,2.99.83" fill="none" stroke="red" stroke-linecap="round" stroke-linejoin="round" stroke-width=".5"/>
  </g>
  <g id="SPLINE-16" data-name="SPLINE">
    <path d="M28.96,96.61c1.04,0,2.08-.29,2.98-.82" fill="none" stroke="red" stroke-linecap="round" stroke-linejoin="round" stroke-width=".5"/>
  </g>
  <g id="SPLINE-17" data-name="SPLINE">
    <path d="M34.09,85.44c-.53-.86-1.26-1.59-2.12-2.12" fill="none" stroke="red" stroke-linecap="round" stroke-linejoin="round" stroke-width=".5"/>
  </g>
  <g id="SPLINE-18" data-name="SPLINE">
    <path d="M23.78,83.33c-.86.53-1.59,1.26-2.12,2.12" fill="none" stroke="red" stroke-linecap="round" stroke-linejoin="round" stroke-width=".5"/>
  </g>
  <g id="SPLINE-19" data-name="SPLINE">
    <path d="M31.94,95.79c.86-.51,1.6-1.24,2.13-2.09" fill="none" stroke="red" stroke-linecap="round" stroke-linejoin="round" stroke-width=".5"/>
  </g>
  <g id="SPLINE-20" data-name="SPLINE">
    <path d="M21.69,93.69c.53.85,1.26,1.58,2.12,2.09" fill="none" stroke="red" stroke-linecap="round" stroke-linejoin="round" stroke-width=".5"/>
  </g>
</svg>