<?xml version="1.0" encoding="UTF-8"?>
<svg id="_0" data-name="0" xmlns="http://www.w3.org/2000/svg" viewBox="0 0 203.2 453.92">
  <g id="ARC">
    <path d="M95.02.25c-3.76,0-6.8,3.05-6.8,6.8,0,1.48.48,2.92,1.38,4.1" fill="none" stroke="red" stroke-miterlimit="10" stroke-width=".5"/>
  </g>
  <g id="LINE">
    <line x1="182.95" y1=".25" x2="95.02" y2=".25" fill="none" stroke="red" stroke-miterlimit="10" stroke-width=".5"/>
  </g>
  <g id="ARC-2" data-name="ARC">
    <path d="M95.62,29.1c0-6.48-2.11-12.78-6.02-17.95" fill="none" stroke="red" stroke-miterlimit="10" stroke-width=".5"/>
  </g>
  <g id="ARC-3" data-name="ARC">
    <path d="M202.95,20.24c0-11.04-8.95-19.99-19.99-19.99" fill="none" stroke="red" stroke-miterlimit="10" stroke-width=".5"/>
  </g>
  <g id="LINE-2" data-name="LINE">
    <line x1="202.95" y1="433.68" x2="202.95" y2="20.24" fill="none" stroke="red" stroke-miterlimit="10" stroke-width=".5"/>
  </g>
  <g id="ARC-4" data-name="ARC">
    <path d="M182.95,453.67c11.04,0,19.99-8.95,19.99-19.99" fill="none" stroke="red" stroke-miterlimit="10" stroke-width=".5"/>
  </g>
  <g id="LINE-3" data-name="LINE">
    <line x1="20.24" y1="453.67" x2="182.95" y2="453.67" fill="none" stroke="red" stroke-miterlimit="10" stroke-width=".5"/>
  </g>
  <g id="ARC-5" data-name="ARC">
    <path d="M.25,433.68c0,11.04,8.95,19.99,19.99,19.99" fill="none" stroke="red" stroke-miterlimit="10" stroke-width=".5"/>
  </g>
  <g id="LINE-4" data-name="LINE">
    <line x1=".25" y1="142.46" x2=".25" y2="433.68" fill="none" stroke="red" stroke-miterlimit="10" stroke-width=".5"/>
  </g>
  <g id="ARC-6" data-name="ARC">
    <path d="M11.08,136.98c-3.03-2.23-7.29-1.58-9.51,1.45-.86,1.17-1.32,2.58-1.32,4.03" fill="none" stroke="red" stroke-miterlimit="10" stroke-width=".5"/>
  </g>
  <g id="ARC-7" data-name="ARC">
    <path d="M11.08,136.98c5.11,3.76,11.29,5.79,17.64,5.79" fill="none" stroke="red" stroke-miterlimit="10" stroke-width=".5"/>
  </g>
  <g id="LINE-5" data-name="LINE">
    <line x1="65.85" y1="142.77" x2="28.72" y2="142.77" fill="none" stroke="red" stroke-miterlimit="10" stroke-width=".5"/>
  </g>
  <g id="ARC-8" data-name="ARC">
    <path d="M65.85,142.77c16.44,0,29.76-13.33,29.76-29.76" fill="none" stroke="red" stroke-miterlimit="10" stroke-width=".5"/>
  </g>
  <g id="LINE-6" data-name="LINE">
    <line x1="95.62" y1="29.1" x2="95.62" y2="113.01" fill="none" stroke="red" stroke-miterlimit="10" stroke-width=".5"/>
  </g>
</svg>