<?xml version="1.0" encoding="UTF-8"?>
<svg id="_0" data-name="0" xmlns="http://www.w3.org/2000/svg" viewBox="0 0 186.51 428.31">
  <g id="LWPOLYLINE">
    <path d="M174.47.25c6.51,0,11.79,5.28,11.79,11.79v404.22c0,6.51-5.28,11.79-11.79,11.79H12.04c-6.51,0-11.79-5.28-11.79-11.79V124.2c0-1.49.49-2.94,1.39-4.13,2.28-2.99,6.55-3.56,9.54-1.28,4.2,3.2,9.33,4.94,14.61,4.94h31.75c13.31,0,24.09-10.79,24.09-24.09V25.37c0-5.14-1.64-10.14-4.69-14.28-.86-1.17-1.32-2.58-1.32-4.03,0-3.76,3.05-6.8,6.8-6.8h92.04Z" fill="none" stroke="red" stroke-linecap="round" stroke-linejoin="round" stroke-width=".5"/>
  </g>
</svg>