<?xml version="1.0" encoding="UTF-8"?>
<svg id="Calque_1" data-name="Calque 1" xmlns="http://www.w3.org/2000/svg" viewBox="0 0 174.99 391.6">
  <path d="M4.29,96.55c1.48.16,2.54.65,3.51,1.43,2.33,1.79,5.07,3.23,8.09,3.23,3.04,0,6.07.02,9.11.03,3.65-.14,7.43.45,10.96-.67,5.31-1.7,9.51-6.33,10.18-11.93.75-7.23.2-14.55.37-21.81,0-8.08-.02-16.15-.02-24.23,0-6,0-12,.02-18,.06-6.19-3.39-12.27-8.95-15.1-1.14-.58-2.29-1.14-3.23-1.89-1.94-2.84-.87-6.96,3.08-7.22,4.88-.07,9.76-.06,14.64-.09,7.44-.02,14.88-.03,22.32-.03,15.67.05,31.35-.07,47.02,0,8.95-.07,17.91-.01,26.87,0,2.24-.1,4.46.31,6.7.2,6.14-.02,11.7,3.31,15.6,7.84,1.13,1.9,2.41,3.34,2.88,5.45.11.7.53,1.36.69,2.04.17,1.67.63,3.29.62,4.99-.02,6.48,0,12.96,0,19.43,0,26.88-.25,53.72-.21,80.59-.08,60.94.31,121.9-.09,182.84.31,3.91-.29,7.81.17,11.72-.29,9.64-.04,19.34-.15,29.01.02,8.4-.05,16.8,0,25.2.02,2.02-.43,3.96-.64,5.95-1.84,8.69-10.12,15.35-18.96,15.51-8.47.22-16.9-.12-25.39.13-21.9-.06-43.82-.06-65.73.03-13.11,0-26.2,0-39.31.03-8.57.74-16.06-2.17-20.92-9.47-2.96-4.17-3.07-9.38-3-14.3-.38-60.17-.04-120.43-.23-180.64-.06-22.8.03-45.59-.02-68.39.16-5.11.01-10.22,0-15.33-.01-1.04.03-2.08.24-3.1.35-1.99,1.92-3.1,3.8-3.45ZM111.9,81.78s-.02,0-.03,0c-.08-4.22.35-8.52-.83-12.62-1.67-6.09-6.15-11.29-11.76-14.12-5.45-2.66-11.7-2.68-17.59-1.94-10.31,1.42-18.88,10.75-19.05,21.2-.15,4.95-.02,9.91,0,14.87.09,2.49.73,4.89,1.63,7.2,2.61,7.08,9.23,12.41,16.6,13.75,7,.93,14.79.83,20.79-3.34,3.62-2.48,6.52-5.58,8.29-9.69,2.3-4.82,2.01-10.11,1.96-15.29Z" fill="none" stroke="red" stroke-miterlimit="10" stroke-width=".5"/>
</svg>