<?xml version="1.0" encoding="UTF-8"?>
<svg id="_Í_ã_1" data-name="Í¼²ã 1" xmlns="http://www.w3.org/2000/svg" viewBox="0 0 199.49 438.21">
  <path
    d="M29.01,9.06h.69c10.95,0,19.84,8.89,19.84,19.84v75.15c0,10.95-8.89,19.84-19.84,19.84h-.69c-10.95,0-19.84-8.89-19.84-19.84V28.91c0-10.95,8.89-19.84,19.84-19.84Z"
    fill="none" stroke="red" stroke-miterlimit="10" stroke-width=".5" />
  <path
    d="M20.35.25c46.46,0,92.95,0,139.41,0,6.44.01,12.97,0,19.4,0,8.12-.08,15.91,5.27,18.73,12.89,1.95,5,1.16,10.51,1.31,15.75,0,9.58,0,19.32,0,28.91,0,28.87,0,57.88,0,86.75,0,89.08,0,178.21,0,267.29-.05,2.97.16,6.06-.22,9.01-.88,6.05-4.75,11.62-10.11,14.56-5.06,3-11.03,2.51-16.68,2.5-11.36,0-22.84,0-34.21,0-30.05,0-60.18,0-90.23,0-7.16,0-14.46,0-21.62,0-7.29.14-13.05.19-18.95-4.91C.81,427.25,0,421.09.3,412.97c0-5.95,0-12.07,0-18.03,0-24.54,0-49.21,0-73.75,0-51.94,0-103.99,0-155.93,0-31,0-62.14,0-93.13,0-16.25,0-32.61,0-48.85-.05-2.92-.03-5.98.85-8.79C3.56,6.22,11.71.13,20.35.25Z"
    fill="none" fill-rule="evenodd" stroke="red" stroke-miterlimit="10" stroke-width=".5" />
</svg>