<?xml version="1.0" encoding="UTF-8"?>
<svg id="_Í_ã_1" data-name="Í¼²ã 1" xmlns="http://www.w3.org/2000/svg" viewBox="0 0 180.22 421.49">
  <path
    d="M14.53,99.7l14.61.18,20.55-.14c11.5,0,20.91-11.67,20.91-23.13V20.9c0-3.19-.98-7.84-3.23-11.25l-.67-.95s-1.21-2.31-1.11-3.47c.27-3.1,1.4-4.41,4.27-4.8h.05s1.83,0,1.83,0l95.63-.19c4.2,0,7.88,2.4,10.19,5.86,1.64,2.46,2.39,5.43,2.39,8.41v392.98c0,1.55-.17,3.1-.64,4.57-1.76,5.41-6.45,9.16-11.94,9.16H11.99c-6.46,0-11.74-5.47-11.74-12.16V102.61c0-3.13,2.43-5.76,5.42-5.67,2.96.09,4.44,1.85,6.48,2.41l2.38.34Z"
    fill="none" fill-rule="evenodd" stroke="red" stroke-miterlimit="10" stroke-width=".5" />
</svg>