<?xml version="1.0" encoding="UTF-8"?>
<svg id="_0" data-name="0" xmlns="http://www.w3.org/2000/svg" viewBox="0 0 206.31 443.57">
  <g id="LWPOLYLINE">
    <path d="M60.21,132.21c0,12.68-10.28,22.96-22.96,22.96h-12.76c-4.83,0-9.54-1.52-13.45-4.36-3.04-2.2-7.3-1.52-9.5,1.53-.84,1.16-1.29,2.56-1.29,3.99v265.02c0,12.14,9.84,21.98,21.98,21.98h161.86c12.14,0,21.98-9.84,21.98-21.98V22.23c0-12.14-9.84-21.98-21.98-21.98H61.37c-3.76,0-6.8,3.05-6.8,6.8,0,1.43.45,2.83,1.29,3.99,2.83,3.91,4.36,8.62,4.36,13.45v8.79c0,1.41,1.14,2.55,2.55,2.55h4.96c10.33,0,18.71,8.38,18.71,18.71,0,10.33-8.38,18.71-18.71,18.71h-4.96c-1.41,0-2.55,1.14-2.55,2.55v56.41Z" fill="none" stroke="red" stroke-linecap="round" stroke-linejoin="round" stroke-width=".5"/>
  </g>
</svg>