<?xml version="1.0" encoding="UTF-8"?>
<svg id="_Í_ã_1" data-name="Í¼²ã 1" xmlns="http://www.w3.org/2000/svg" viewBox="0 0 185.95 412.14">
  <path
    d="M146.32,37.76c10.77,0,19.59,8.59,19.59,19.08v14.57c0,10.49-8.81,19.08-19.59,19.08H40.2c-10.77,0-19.59-8.59-19.59-19.08v-14.57c0-10.49,8.81-19.08,19.59-19.08h106.12Z"
    fill="none" fill-rule="evenodd" stroke="red" stroke-miterlimit="10" stroke-width=".5" />
  <path
    d="M172.55.26c5.74-.06,11.18,4.03,12.65,9.6.49,1.86.5,3.8.47,5.69,0,2.05,0,4.33,0,6.38,0,10.44,0,21.04,0,31.49,0,43.01,0,86.12,0,129.13,0,53.81,0,107.71,0,161.51,0,14.33,0,28.8,0,43.13-.01,3.47,0,7.11,0,10.58.3,4.88-2.2,9.85-6.49,12.29-4.08,2.48-9.05,1.66-13.6,1.79-7.51,0-15.16,0-22.67,0-30.99,0-62.05,0-93.05,0-11.62,0-23.34,0-34.96,0-6.35.5-12.46-3.33-14.15-9.6-.57-2.11-.47-4.33-.47-6.48,0-2.78,0-5.78,0-8.57,0-86.11,0-172.27,0-258.38,0-26.86,0-53.86,0-80.71,0-9.11,0-18.39,0-27.5.16-3.91-.53-8.07.82-11.82C2.67,4.55,6.58,1.25,11.03.47c2.01-.29,4.13-.21,6.15-.21,5.17,0,10.49,0,15.67,0,46.56,0,93.15,0,139.7,0Z"
    fill="none" fill-rule="evenodd" stroke="red" stroke-miterlimit="10" stroke-width=".5" />
</svg>