<?xml version="1.0" encoding="UTF-8"?>
<svg id="_Í_ã_1" data-name="Í¼²ã 1" xmlns="http://www.w3.org/2000/svg" viewBox="0 0 174.52 407.97">
  <path
    d="M67.44,20.97c0-3.1-1.29-8.13-3.47-11.43l-.64-.92s-1.17-2.24-1.08-3.37c.26-3.01,1.35-4.29,4.13-4.66h.05s1.78,0,1.78,0l93.88-.34c4.06,0,7.63,2.33,9.87,5.69,1.59,2.39,2.31,5.27,2.31,8.17v380.28c0,1.5-.16,3.01-.62,4.44-1.7,5.25-6.24,8.9-11.56,8.9H11.62c-6.25,0-11.37-5.32-11.37-11.81V116.12c0-3.04,2.35-5.5,5.25-5.5,1.72,0,3.24.86,4.2,2.2l.38.45c1.79,3.01,5.09,3.05,8.83,3.05l9.32.03h18.96c11.14,0,20.25-9.11,20.25-20.25V20.97Z"
    fill="none" fill-rule="evenodd" stroke="red" stroke-miterlimit="10" stroke-width=".5" />
</svg>