<?xml version="1.0" encoding="UTF-8"?>
<svg id="_0" data-name="0" xmlns="http://www.w3.org/2000/svg" viewBox="0 0 189.29 431.37">
  <line x1="180.4" y1=".25" x2="75.12" y2=".25" fill="none" stroke="red" stroke-linecap="round" stroke-linejoin="round" stroke-width=".5"/>
  <path d="M189.04,8.9c0-4.78-3.87-8.65-8.65-8.65" fill="none" stroke="red" stroke-linecap="round" stroke-linejoin="round" stroke-width=".5"/>
  <path d="M75.12.25c-2.97,0-5.39,2.41-5.39,5.39,0,1.03.29,2.03.84,2.89" fill="none" stroke="red" stroke-linecap="round" stroke-linejoin="round" stroke-width=".5"/>
  <path d="M70.57,8.53c.52.81.98,1.66,1.38,2.54.81,1.75,1.38,3.6,1.75,5.49s.56,3.8.62,5.71c.02.76.02,1.52,0,2.27" fill="none" stroke="red" stroke-linecap="round" stroke-linejoin="round" stroke-width=".5"/>
  <line x1="74.34" y1="24.53" x2="74.34" y2="103.76" fill="none" stroke="red" stroke-linecap="round" stroke-linejoin="round" stroke-width=".5"/>
  <path d="M74.34,103.75c.02,1.1,0,2.19-.05,3.29-.12,2.19-.42,4.39-1.01,6.52s-1.45,4.19-2.63,6.07c-.96,1.53-2.13,2.95-3.47,4.16s-2.86,2.24-4.47,3.06c-2.04,1.03-4.23,1.73-6.46,2.15s-4.5.59-6.76.59c-.33,0-.66,0-.98-.01" fill="none" stroke="red" stroke-linecap="round" stroke-linejoin="round" stroke-width=".5"/>
  <line x1="48.51" y1="129.58" x2="25.24" y2="129.58" fill="none" stroke="red" stroke-linecap="round" stroke-linejoin="round" stroke-width=".5"/>
  <path d="M25.25,129.58c-1.1.02-2.2,0-3.3-.05-2.2-.12-4.4-.43-6.54-1.02s-4.21-1.46-6.09-2.65c-.22-.14-.43-.28-.64-.42" fill="none" stroke="red" stroke-linecap="round" stroke-linejoin="round" stroke-width=".5"/>
  <path d="M8.68,125.44c-2.45-1.68-5.81-1.05-7.49,1.4-.61.9-.94,1.96-.94,3.04" fill="none" stroke="red" stroke-linecap="round" stroke-linejoin="round" stroke-width=".5"/>
  <line x1=".25" y1="129.89" x2=".25" y2="422.47" fill="none" stroke="red" stroke-linecap="round" stroke-linejoin="round" stroke-width=".5"/>
  <path d="M.25,422.47c0,4.78,3.87,8.65,8.65,8.65" fill="none" stroke="red" stroke-linecap="round" stroke-linejoin="round" stroke-width=".5"/>
  <line x1="8.9" y1="431.12" x2="180.4" y2="431.12" fill="none" stroke="red" stroke-linecap="round" stroke-linejoin="round" stroke-width=".5"/>
  <path d="M180.4,431.12c4.78,0,8.65-3.87,8.65-8.65" fill="none" stroke="red" stroke-linecap="round" stroke-linejoin="round" stroke-width=".5"/>
  <line x1="189.04" y1="422.47" x2="189.04" y2="8.9" fill="none" stroke="red" stroke-linecap="round" stroke-linejoin="round" stroke-width=".5"/>
</svg>