<?xml version="1.0" encoding="UTF-8"?>
<svg id="_0" data-name="0" xmlns="http://www.w3.org/2000/svg" viewBox="0 0 194.43 424.32">
  <path d="M70.6.25c-.34,0-.69.07-1,.21-.53.23-.98.65-1.25,1.16-.19.36-.28.76-.28,1.17" fill="none" stroke="red" stroke-linecap="round" stroke-linejoin="round" stroke-width=".5"/>
  <line x1="179.7" y1=".25" x2="70.6" y2=".25" fill="none" stroke="red" stroke-linecap="round" stroke-linejoin="round" stroke-width=".5"/>
  <line x1="68.06" y1="2.79" x2="68.06" y2="9.02" fill="none" stroke="red" stroke-linecap="round" stroke-linejoin="round" stroke-width=".5"/>
  <path d="M37.12,141.62c17.09,0,30.95-13.85,30.95-30.95" fill="none" stroke="red" stroke-linecap="round" stroke-linejoin="round" stroke-width=".5"/>
  <line x1="37.12" y1="141.62" x2="2.79" y2="141.62" fill="none" stroke="red" stroke-linecap="round" stroke-linejoin="round" stroke-width=".5"/>
  <path d="M2.79,141.62c-.34,0-.69.07-1,.21-.53.23-.98.65-1.25,1.16-.19.36-.28.76-.28,1.17" fill="none" stroke="red" stroke-linecap="round" stroke-linejoin="round" stroke-width=".5"/>
  <line x1=".25" y1="144.16" x2=".25" y2="409.59" fill="none" stroke="red" stroke-linecap="round" stroke-linejoin="round" stroke-width=".5"/>
  <path d="M.25,409.59c0,7.99,6.48,14.47,14.47,14.47" fill="none" stroke="red" stroke-linecap="round" stroke-linejoin="round" stroke-width=".5"/>
  <line x1="14.72" y1="424.07" x2="179.7" y2="424.07" fill="none" stroke="red" stroke-linecap="round" stroke-linejoin="round" stroke-width=".5"/>
  <path d="M179.7,424.07c7.99,0,14.47-6.48,14.47-14.47" fill="none" stroke="red" stroke-linecap="round" stroke-linejoin="round" stroke-width=".5"/>
  <line x1="194.18" y1="409.59" x2="194.18" y2="14.72" fill="none" stroke="red" stroke-linecap="round" stroke-linejoin="round" stroke-width=".5"/>
  <path d="M194.18,14.72c0-7.99-6.48-14.47-14.47-14.47" fill="none" stroke="red" stroke-linecap="round" stroke-linejoin="round" stroke-width=".5"/>
  <line x1="70.6" y1="43.69" x2="72.47" y2="43.69" fill="none" stroke="red" stroke-linecap="round" stroke-linejoin="round" stroke-width=".5"/>
  <line x1="70.6" y1="11.56" x2="72.47" y2="11.56" fill="none" stroke="red" stroke-linecap="round" stroke-linejoin="round" stroke-width=".5"/>
  <path d="M72.47,43.69c8.87,0,16.06-7.19,16.06-16.06s-7.19-16.06-16.06-16.06" fill="none" stroke="red" stroke-linecap="round" stroke-linejoin="round" stroke-width=".5"/>
  <path d="M70.6.25c-.34,0-.69.07-1,.21-.53.23-.98.65-1.25,1.16-.19.36-.28.76-.28,1.17" fill="none" stroke="red" stroke-linecap="round" stroke-linejoin="round" stroke-width=".5"/>
  <path d="M68.06,9.02c0,.34.07.69.21,1,.23.53.65.98,1.16,1.25.36.19.76.28,1.17.28" fill="none" stroke="red" stroke-linecap="round" stroke-linejoin="round" stroke-width=".5"/>
  <path d="M70.6,43.69c-.34,0-.69.07-1,.21-.53.23-.98.65-1.25,1.16-.19.36-.28.76-.28,1.17" fill="none" stroke="red" stroke-linecap="round" stroke-linejoin="round" stroke-width=".5"/>
  <line x1="68.06" y1="46.23" x2="68.06" y2="110.68" fill="none" stroke="red" stroke-linecap="round" stroke-linejoin="round" stroke-width=".5"/>
</svg>