<?xml version="1.0" encoding="UTF-8"?>
<svg id="Calque_1" data-name="Calque 1" xmlns="http://www.w3.org/2000/svg" viewBox="0 0 215.02 457.61">
  <path d="M214.2,229.01c-.11,72.52-.04,145.06-.27,217.56.01,1.75.26,3.52-.14,5.26-.64,2.74-2.31,4.5-5.03,5.23-1.72.33-3.51.2-5.26.27-5.84.01-11.67.01-17.51.01-22.39.04-44.77-.1-67.16-.02-25.98.04-51.97.02-77.95,0-10.64.05-21.27.04-31.91.02-1.44-.02-2.9.05-4.26-.49-2.2-.68-3.78-2.61-4.21-4.82-.43-3.58-.19-7.18-.15-10.77.07-12.39-.02-24.79.02-37.18.15-49.26-.05-98.52.09-147.78.04-38.22,0-76.45.08-114.68-.13-3.81,1.88-7.47,5.97-7.96,3.02-.46,6.07,1.05,7.31,3.83.9,2.49,2.08,4.85,3.61,7.01.64.98,1.63,1.83,2.4,2.66.59,1.32,1.84,1.98,2.85,2.85,1.21,1.04,2.55,1.92,3.97,2.68,9.21,4.98,21.2,4.06,29.3-2.66,6.89-5.4,10.63-14.05,10.25-22.75-.01-6.16,0-12.32,0-18.47,0-.96.03-1.91.35-2.84.87-2.84,3.62-4.1,6.42-3.98,6.38-.27,13.21.96,19.09-2.17,7.73-3.73,12.16-11.96,11.62-20.44-.02-17.67.03-35.34,0-53.01-.04-2.83-.59-5.57-1.83-8.12-.91-1.87-2-3.64-3.42-5.18-1.24-1.59-3.21-3.02-2.99-5.25.06-.72.1-1.44.23-2.14.64-3.48,3.99-5.45,6.46-5.43,22.39.02,44.78.05,67.17.04,6.48,0,12.95-.03,19.43-.03,5.84,0,11.68.02,17.51.03,1.12,0,2.25-.01,3.33.27,2.46.59,4.48,2.46,5.04,4.94.4,3.4-.04,6.87.08,10.29-.01,17.35-.03,34.71-.08,52.06-.06,53.73-.48,107.42-.39,161.15,0,0,0,0-.01,0Z" fill="none" stroke="red" stroke-miterlimit="10" stroke-width=".5"/>
</svg>