<?xml version="1.0" encoding="UTF-8"?>
<svg id="_0" data-name="0" xmlns="http://www.w3.org/2000/svg" viewBox="0 0 201.79 432.87">
  <g id="LINE">
    <line x1="178.68" y1=".25" x2="63.12" y2=".25" fill="none" stroke="red" stroke-linecap="round" stroke-linejoin="round" stroke-width=".5"/>
  </g>
  <g id="ARC">
    <path d="M63.12.25c-2.97,0-5.39,2.41-5.39,5.39,0,1.05.3,2.07.88,2.94" fill="none" stroke="red" stroke-linecap="round" stroke-linejoin="round" stroke-width=".5"/>
  </g>
  <g id="ARC-2" data-name="ARC">
    <path d="M62.34,21.13c0-4.46-1.3-8.82-3.73-12.55" fill="none" stroke="red" stroke-linecap="round" stroke-linejoin="round" stroke-width=".5"/>
  </g>
  <g id="LINE-2" data-name="LINE">
    <line x1="62.34" y1="21.13" x2="62.34" y2="33.6" fill="none" stroke="red" stroke-linecap="round" stroke-linejoin="round" stroke-width=".5"/>
  </g>
  <g id="ARC-3" data-name="ARC">
    <path d="M62.34,33.6c0,1.41,1.14,2.55,2.55,2.55" fill="none" stroke="red" stroke-linecap="round" stroke-linejoin="round" stroke-width=".5"/>
  </g>
  <g id="LINE-3" data-name="LINE">
    <line x1="64.89" y1="36.15" x2="66.88" y2="36.15" fill="none" stroke="red" stroke-linecap="round" stroke-linejoin="round" stroke-width=".5"/>
  </g>
  <g id="ARC-4" data-name="ARC">
    <path d="M66.88,70.73c9.55,0,17.29-7.74,17.29-17.29s-7.74-17.29-17.29-17.29" fill="none" stroke="red" stroke-linecap="round" stroke-linejoin="round" stroke-width=".5"/>
  </g>
  <g id="LINE-4" data-name="LINE">
    <line x1="66.88" y1="70.73" x2="64.89" y2="70.73" fill="none" stroke="red" stroke-linecap="round" stroke-linejoin="round" stroke-width=".5"/>
  </g>
  <g id="ARC-5" data-name="ARC">
    <path d="M64.89,70.73c-1.41,0-2.55,1.14-2.55,2.55" fill="none" stroke="red" stroke-linecap="round" stroke-linejoin="round" stroke-width=".5"/>
  </g>
  <g id="LINE-5" data-name="LINE">
    <line x1="62.34" y1="73.29" x2="62.34" y2="128.84" fill="none" stroke="red" stroke-linecap="round" stroke-linejoin="round" stroke-width=".5"/>
  </g>
  <g id="ARC-6" data-name="ARC">
    <path d="M39.38,151.8c12.68,0,22.96-10.28,22.96-22.96" fill="none" stroke="red" stroke-linecap="round" stroke-linejoin="round" stroke-width=".5"/>
  </g>
  <g id="LINE-6" data-name="LINE">
    <line x1="39.38" y1="151.8" x2="22.37" y2="151.8" fill="none" stroke="red" stroke-linecap="round" stroke-linejoin="round" stroke-width=".5"/>
  </g>
  <g id="ARC-7" data-name="ARC">
    <path d="M8.82,147.37c3.93,2.88,8.68,4.43,13.56,4.43" fill="none" stroke="red" stroke-linecap="round" stroke-linejoin="round" stroke-width=".5"/>
  </g>
  <g id="ARC-8" data-name="ARC">
    <path d="M8.82,147.37c-2.4-1.76-5.77-1.23-7.53,1.17-.68.92-1.04,2.04-1.04,3.18" fill="none" stroke="red" stroke-linecap="round" stroke-linejoin="round" stroke-width=".5"/>
  </g>
  <g id="LINE-7" data-name="LINE">
    <line x1=".25" y1="151.72" x2=".25" y2="409.76" fill="none" stroke="red" stroke-linecap="round" stroke-linejoin="round" stroke-width=".5"/>
  </g>
  <g id="ARC-9" data-name="ARC">
    <path d="M.25,409.76c0,12.63,10.24,22.86,22.86,22.86" fill="none" stroke="red" stroke-linecap="round" stroke-linejoin="round" stroke-width=".5"/>
  </g>
  <g id="LINE-8" data-name="LINE">
    <line x1="23.11" y1="432.62" x2="178.68" y2="432.62" fill="none" stroke="red" stroke-linecap="round" stroke-linejoin="round" stroke-width=".5"/>
  </g>
  <g id="ARC-10" data-name="ARC">
    <path d="M178.68,432.62c12.63,0,22.86-10.24,22.86-22.86" fill="none" stroke="red" stroke-linecap="round" stroke-linejoin="round" stroke-width=".5"/>
  </g>
  <g id="LINE-9" data-name="LINE">
    <line x1="201.54" y1="409.76" x2="201.54" y2="23.11" fill="none" stroke="red" stroke-linecap="round" stroke-linejoin="round" stroke-width=".5"/>
  </g>
  <g id="ARC-11" data-name="ARC">
    <path d="M201.54,23.11c0-12.63-10.24-22.86-22.86-22.86" fill="none" stroke="red" stroke-linecap="round" stroke-linejoin="round" stroke-width=".5"/>
  </g>
</svg>