<?xml version="1.0" encoding="UTF-8"?>
<svg id="_0" data-name="0" xmlns="http://www.w3.org/2000/svg" viewBox="0 0 203.64 437.96">
  <g id="ARC">
    <path d="M62.14,19.7c0-3.94-1.17-7.79-3.37-11.06" fill="none" stroke="red" stroke-linecap="round" stroke-linejoin="round" stroke-width=".5"/>
  </g>
  <g id="LINE">
    <line x1="62.14" y1="19.7" x2="62.14" y2="35.58" fill="none" stroke="red" stroke-linecap="round" stroke-linejoin="round" stroke-width=".5"/>
  </g>
  <g id="ARC-2" data-name="ARC">
    <path d="M63.24.25c-2.97,0-5.39,2.41-5.39,5.39,0,1.07.32,2.12.91,3" fill="none" stroke="red" stroke-linecap="round" stroke-linejoin="round" stroke-width=".5"/>
  </g>
  <g id="LINE-2" data-name="LINE">
    <line x1="182.74" y1=".25" x2="63.24" y2=".25" fill="none" stroke="red" stroke-linecap="round" stroke-linejoin="round" stroke-width=".5"/>
  </g>
  <g id="ARC-3" data-name="ARC">
    <path d="M203.39,20.91c0-11.41-9.25-20.66-20.66-20.66" fill="none" stroke="red" stroke-linecap="round" stroke-linejoin="round" stroke-width=".5"/>
  </g>
  <g id="LINE-3" data-name="LINE">
    <line x1="203.39" y1="417.05" x2="203.39" y2="20.91" fill="none" stroke="red" stroke-linecap="round" stroke-linejoin="round" stroke-width=".5"/>
  </g>
  <g id="ARC-4" data-name="ARC">
    <path d="M182.74,437.71c11.41,0,20.66-9.25,20.66-20.66" fill="none" stroke="red" stroke-linecap="round" stroke-linejoin="round" stroke-width=".5"/>
  </g>
  <g id="LINE-4" data-name="LINE">
    <line x1="20.91" y1="437.71" x2="182.74" y2="437.71" fill="none" stroke="red" stroke-linecap="round" stroke-linejoin="round" stroke-width=".5"/>
  </g>
  <g id="ARC-5" data-name="ARC">
    <path d="M.25,417.05c0,11.41,9.25,20.66,20.66,20.66" fill="none" stroke="red" stroke-linecap="round" stroke-linejoin="round" stroke-width=".5"/>
  </g>
  <g id="LINE-5" data-name="LINE">
    <line x1=".25" y1="160.89" x2=".25" y2="417.05" fill="none" stroke="red" stroke-linecap="round" stroke-linejoin="round" stroke-width=".5"/>
  </g>
  <g id="ARC-6" data-name="ARC">
    <path d="M8.62,156.41c-2.48-1.65-5.82-.98-7.47,1.5-.59.88-.9,1.92-.9,2.98" fill="none" stroke="red" stroke-linecap="round" stroke-linejoin="round" stroke-width=".5"/>
  </g>
  <g id="ARC-7" data-name="ARC">
    <path d="M8.62,156.41c3.26,2.17,7.08,3.33,11,3.33" fill="none" stroke="red" stroke-linecap="round" stroke-linejoin="round" stroke-width=".5"/>
  </g>
  <g id="LINE-6" data-name="LINE">
    <line x1="42.29" y1="159.73" x2="19.62" y2="159.73" fill="none" stroke="red" stroke-linecap="round" stroke-linejoin="round" stroke-width=".5"/>
  </g>
  <g id="ARC-8" data-name="ARC">
    <path d="M42.29,159.73c10.96,0,19.84-8.88,19.84-19.84" fill="none" stroke="red" stroke-linecap="round" stroke-linejoin="round" stroke-width=".5"/>
  </g>
  <g id="LINE-7" data-name="LINE">
    <line x1="62.14" y1="75.26" x2="62.14" y2="139.89" fill="none" stroke="red" stroke-linecap="round" stroke-linejoin="round" stroke-width=".5"/>
  </g>
  <g id="ARC-9" data-name="ARC">
    <path d="M63.55,73.84c-.78,0-1.42.63-1.42,1.42" fill="none" stroke="red" stroke-linecap="round" stroke-linejoin="round" stroke-width=".5"/>
  </g>
  <g id="LINE-8" data-name="LINE">
    <line x1="71.21" y1="73.84" x2="63.55" y2="73.84" fill="none" stroke="red" stroke-linecap="round" stroke-linejoin="round" stroke-width=".5"/>
  </g>
  <g id="ARC-10" data-name="ARC">
    <path d="M71.21,73.84c10.18,0,18.43-8.25,18.43-18.43s-8.25-18.43-18.43-18.43" fill="none" stroke="red" stroke-linecap="round" stroke-linejoin="round" stroke-width=".5"/>
  </g>
  <g id="LINE-9" data-name="LINE">
    <line x1="63.55" y1="36.99" x2="71.21" y2="36.99" fill="none" stroke="red" stroke-linecap="round" stroke-linejoin="round" stroke-width=".5"/>
  </g>
  <g id="ARC-11" data-name="ARC">
    <path d="M62.14,35.58c0,.78.63,1.42,1.42,1.42" fill="none" stroke="red" stroke-linecap="round" stroke-linejoin="round" stroke-width=".5"/>
  </g>
</svg>