<?xml version="1.0" encoding="UTF-8"?>
<svg id="_0" data-name="0" xmlns="http://www.w3.org/2000/svg" viewBox="0 0 206.31 446.4">
  <g id="LWPOLYLINE">
    <path
      d="M42.27,159.9h-18.99c-5.18,0-10.17-2-13.91-5.58-2.15-2.06-5.56-1.98-7.61.17-.96,1-1.49,2.34-1.49,3.72v267.18c0,11.46,9.29,20.76,20.76,20.76h164.3c11.46,0,20.76-9.29,20.76-20.76V21.01c0-11.46-9.29-20.76-20.76-20.76H60.7c-2.97,0-5.39,2.41-5.39,5.39,0,1.39.54,2.72,1.49,3.72,3.58,3.75,5.58,8.73,5.58,13.91v8.36c0,2.97,2.41,5.39,5.39,5.39h4.39c11.12,0,20.13,9.01,20.13,20.13s-9.01,20.13-20.13,20.13h-4.39c-2.97,0-5.39,2.41-5.39,5.39v57.12c0,11.12-9.01,20.13-20.13,20.13Z"
      fill="none" stroke="red" stroke-miterlimit="10" stroke-width=".5" />
  </g>
</svg>