<?xml version="1.0" encoding="UTF-8"?>
<svg id="Calque_1" data-name="Calque 1" xmlns="http://www.w3.org/2000/svg"
  viewBox="0 0 189.19 405.99">
  <g id="LINE">
    <line x1="19.12" y1="405.74" x2="170.08" y2="405.74" fill="none" stroke="red"
      stroke-linecap="round" stroke-linejoin="round" stroke-width=".5" />
  </g>
  <g id="LINE-2" data-name="LINE">
    <line x1=".25" y1="147.44" x2=".25" y2="386.88" fill="none" stroke="red" stroke-linecap="round"
      stroke-linejoin="round" stroke-width=".5" />
  </g>
  <g id="LINE-3" data-name="LINE">
    <line x1="60.49" y1="78.71" x2="60.49" y2="122.74" fill="none" stroke="red"
      stroke-linecap="round" stroke-linejoin="round" stroke-width=".5" />
  </g>
  <g id="LINE-4" data-name="LINE">
    <line x1="31.86" y1="151.37" x2="29.02" y2="151.37" fill="none" stroke="red"
      stroke-linecap="round" stroke-linejoin="round" stroke-width=".5" />
  </g>
  <g id="LINE-5" data-name="LINE">
    <line x1="188.94" y1="386.88" x2="188.94" y2="19.12" fill="none" stroke="red"
      stroke-linecap="round" stroke-linejoin="round" stroke-width=".5" />
  </g>
  <g id="LINE-6" data-name="LINE">
    <line x1="70.65" y1="73.33" x2="65.87" y2="73.33" fill="none" stroke="red"
      stroke-linecap="round" stroke-linejoin="round" stroke-width=".5" />
  </g>
  <g id="LINE-7" data-name="LINE">
    <line x1="65.84" y1="33.08" x2="70.65" y2="33.08" fill="none" stroke="red"
      stroke-linecap="round" stroke-linejoin="round" stroke-width=".5" />
  </g>
  <g id="LINE-8" data-name="LINE">
    <line x1="170.08" y1=".25" x2="56.4" y2=".25" fill="none" stroke="red" stroke-linecap="round"
      stroke-linejoin="round" stroke-width=".5" />
  </g>
  <g id="ARC">
    <path d="M60.46,27.93c-.31-6.95-3.13-13.55-7.95-18.56" fill="none" stroke="red"
      stroke-linecap="round" stroke-linejoin="round" stroke-width=".5" />
  </g>
  <g id="ARC-2" data-name="ARC">
    <path d="M31.86,151.37c15.81,0,28.63-12.82,28.63-28.63" fill="none" stroke="red"
      stroke-linecap="round" stroke-linejoin="round" stroke-width=".5" />
  </g>
  <g id="ARC-3" data-name="ARC">
    <path d="M9.34,143.53c5.32,5.03,12.36,7.84,19.68,7.84" fill="none" stroke="red"
      stroke-linecap="round" stroke-linejoin="round" stroke-width=".5" />
  </g>
  <g id="ARC-4" data-name="ARC">
    <path d="M70.65,73.33c11.12,0,20.13-9.01,20.13-20.13s-9.01-20.13-20.13-20.13" fill="none"
      stroke="red" stroke-linecap="round" stroke-linejoin="round" stroke-width=".5" />
  </g>
  <g id="ARC-5" data-name="ARC">
    <path d="M.25,386.88c0,10.42,8.45,18.87,18.87,18.87" fill="none" stroke="red"
      stroke-linecap="round" stroke-linejoin="round" stroke-width=".5" />
  </g>
  <g id="ARC-6" data-name="ARC">
    <path d="M170.08,405.74c10.42,0,18.87-8.45,18.87-18.87" fill="none" stroke="red"
      stroke-linecap="round" stroke-linejoin="round" stroke-width=".5" />
  </g>
  <g id="ARC-7" data-name="ARC">
    <path d="M188.94,19.12c0-10.42-8.45-18.87-18.87-18.87" fill="none" stroke="red"
      stroke-linecap="round" stroke-linejoin="round" stroke-width=".5" />
  </g>
  <g id="ARC-8" data-name="ARC">
    <path d="M56.4.25c-2.97,0-5.39,2.41-5.39,5.39,0,1.39.54,2.73,1.5,3.73" fill="none" stroke="red"
      stroke-linecap="round" stroke-linejoin="round" stroke-width=".5" />
  </g>
  <g id="ARC-9" data-name="ARC">
    <path d="M60.46,27.93c.13,2.88,2.5,5.15,5.38,5.15" fill="none" stroke="red"
      stroke-linecap="round" stroke-linejoin="round" stroke-width=".5" />
  </g>
  <g id="ARC-10" data-name="ARC">
    <path d="M65.87,73.33c-2.97,0-5.39,2.41-5.39,5.39" fill="none" stroke="red"
      stroke-linecap="round" stroke-linejoin="round" stroke-width=".5" />
  </g>
  <g id="ARC-11" data-name="ARC">
    <path d="M9.34,143.53c-2.16-2.05-5.57-1.95-7.61.21-.95,1-1.47,2.33-1.47,3.7" fill="none"
      stroke="red" stroke-linecap="round" stroke-linejoin="round" stroke-width=".5" />
  </g>
</svg>