<svg xmlns="http://www.w3.org/2000/svg" viewBox="0 0 210.5 452.148" version="1.1">
    <path d="M 15.819 452.054 L 194.245 452.054" fill="none" stroke-width="0.5"
        style="stroke: rgb(255, 0, 0); transform-origin: 0px 0px;"></path>
    <path d="M 0 171.108 L 0 436.235 L 0 171.108 Z" fill="none" stroke-width="0.5"
        style="stroke: rgb(255, 0, 0); transform-origin: 0px 0px;"></path>
    <path d="M 75.689 124.941 L 75.689 139.684 L 75.689 124.941 Z" fill="none" stroke-width="0.5"
        style="stroke: rgb(255, 0, 0); transform-origin: 0px 0px;"></path>
    <path d="M 111.059 36.661 L 111.059 91.007 L 111.059 36.661 Z" fill="none" stroke-width="0.5"
        style="stroke: rgb(255, 0, 0); transform-origin: 0px 0px;"></path>
    <path d="M 36.948 178.426 L 36.373 178.426" fill="none" stroke-width="0.5"
        style="stroke: rgb(255, 0, 0); transform-origin: 0px 0px;"></path>
    <path d="M 210.1 436.235 L 210.1 15.855 L 210.1 436.235 Z" fill="none" stroke-width="0.5"
        style="stroke: rgb(255, 0, 0); transform-origin: 0px 0px;"></path>
    <path d="M 84.764 117.3 L 83.33 117.3" fill="none" stroke-width="0.5"
        style="stroke: rgb(255, 0, 0); transform-origin: 0px 0px;"></path>
    <path d="M 194.245 0 L 103.454 0" fill="none" stroke-width="0.5"
        style="stroke: rgb(255, 0, 0); transform-origin: 0px 0px;"></path>
    <path d="M 111.059 36.661 C 111.062 26.349 106.957 16.461 99.651 9.183" fill="none"
        stroke-width="0.5" style="stroke: rgb(255, 0, 0); transform-origin: 0px 0px;"></path>
    <path d="M 36.948 178.426 C 58.338 178.412 75.675 161.075 75.689 139.684" fill="none"
        stroke-width="0.5" style="stroke: rgb(255, 0, 0); transform-origin: 0px 0px;"></path>
    <path d="M 9.148 167.269 C 16.404 174.422 26.185 178.429 36.373 178.426" fill="none"
        stroke-width="0.5" style="stroke: rgb(255, 0, 0); transform-origin: 0px 0px;"></path>
    <path d="M 84.764 117.3 C 99.281 117.288 111.047 105.524 111.059 91.007" fill="none"
        stroke-width="0.5" style="stroke: rgb(255, 0, 0); transform-origin: 0px 0px;"></path>
    <path d="M 0 436.235 C 0.008 444.969 7.086 452.047 15.819 452.055" fill="none"
        stroke-width="0.5" style="stroke: rgb(255, 0, 0); transform-origin: 0px 0px;"></path>
    <path d="M 194.245 452.055 C 202.993 452.067 210.092 444.983 210.1 436.235" fill="none"
        stroke-width="0.5" style="stroke: rgb(255, 0, 0); transform-origin: 0px 0px;"></path>
    <path d="M 210.1 15.855 C 210.112 7.093 203.007 -0.012 194.245 0" fill="none" stroke-width="0.5"
        style="stroke: rgb(255, 0, 0); transform-origin: 0px 0px;"></path>
    <path d="M 83.33 117.3 C 79.11 117.3 75.689 120.721 75.689 124.941" fill="none"
        stroke-width="0.5" style="stroke: rgb(255, 0, 0); transform-origin: 0px 0px;"></path>
    <path
        d="M 103.454 0 C 99.314 -0.003 96.724 4.476 98.791 8.063 C 99.027 8.473 99.316 8.849 99.651 9.183"
        fill="none" stroke-width="0.5" style="stroke: rgb(255, 0, 0); transform-origin: 0px 0px;"></path>
    <path
        d="M 9.148 167.269 C 6.196 164.367 1.209 165.748 0.172 169.756 C 0.057 170.198 0 170.652 0 171.108"
        fill="none" stroke-width="0.5" style="stroke: rgb(255, 0, 0); transform-origin: 0px 0px;"></path>
</svg>