<svg xmlns="http://www.w3.org/2000/svg" viewBox="0 0 187.17 402" version="1.1">
    <path d="M 15.311 402 L 171.813 401.998" fill="none" stroke-width="0.5"
        style="stroke: rgb(255, 0, 0);"></path>
    <path d="M 0 145.625 L 0 386.69 L 0 145.625 Z" fill="none" stroke-width="0.5"
        style="stroke: rgb(255, 0, 0);"></path>
    <path d="M 64.733 77.222 L 64.733 115.407 L 64.733 77.222 Z" fill="none" stroke-width="0.5"
        style="stroke: rgb(255, 0, 0);"></path>
    <path d="M 30.665 149.475 L 29.591 149.475" fill="none" stroke-width="0.5"
        style="stroke: rgb(255, 0, 0);"></path>
    <path d="M 187.077 386.689 L 187.077 15.266 L 187.077 386.689 Z" fill="none" stroke-width="0.5"
        style="stroke: rgb(255, 0, 0);"></path>
    <path d="M 171.813 0 L 61.105 0" fill="none" stroke-width="0.5" style="stroke: rgb(255, 0, 0);"></path>
    <path d="M 64.552 25.965 C 63.896 19.396 61.346 13.161 57.211 8.014" fill="none"
        stroke-width="0.5" style="stroke: rgb(255, 0, 0);"></path>
    <path d="M 30.665 149.473 C 49.478 149.469 64.728 134.22 64.731 115.407" fill="none"
        stroke-width="0.5" style="stroke: rgb(255, 0, 0);"></path>
    <path d="M 8.058 141.82 C 14.142 146.772 21.745 149.478 29.59 149.473" fill="none"
        stroke-width="0.5" style="stroke: rgb(255, 0, 0);"></path>
    <path
        d="M 71.403 70.194 C 85.993 69.288 94.132 52.928 86.051 40.746 C 82.728 35.735 77.228 32.593 71.224 32.277"
        fill="none" stroke-width="0.5" style="stroke: rgb(255, 0, 0);"></path>
    <path d="M 0 386.689 C -0.013 395.15 6.85 402.012 15.311 402" fill="none" stroke-width="0.5"
        style="stroke: rgb(255, 0, 0);"></path>
    <path d="M 171.813 402 C 180.255 401.987 187.089 395.134 187.077 386.689" fill="none"
        stroke-width="0.5" style="stroke: rgb(255, 0, 0);"></path>
    <path d="M 187.077 15.266 C 187.065 6.84 180.237 0.013 171.813 0" fill="none" stroke-width="0.5"
        style="stroke: rgb(255, 0, 0);"></path>
    <path d="M 64.552 25.965 C 64.902 29.434 67.742 32.119 71.224 32.277" fill="none"
        stroke-width="0.5" style="stroke: rgb(255, 0, 0);"></path>
    <path d="M 71.403 70.194 C 67.66 70.382 64.725 73.475 64.731 77.223" fill="none"
        stroke-width="0.5" style="stroke: rgb(255, 0, 0);"></path>
    <path
        d="M 8.058 141.82 C 5.105 139.419 0.662 141.119 0.061 144.876 C 0.022 145.124 0.002 145.375 0 145.624"
        fill="none" stroke-width="0.5" style="stroke: rgb(255, 0, 0);"></path>
    <path
        d="M 61.105 0 C 57.301 -0.017 54.905 4.091 56.791 7.395 C 56.916 7.61 57.055 7.819 57.211 8.014"
        fill="none" stroke-width="0.5" style="stroke: rgb(255, 0, 0);"></path>
</svg>