<svg xmlns="http://www.w3.org/2000/svg" viewBox="0 0 192.5 412.572">
    <path d="M 16.206 412.548 L 176.674 412.548" fill="none" stroke-width="0.5"
        style="stroke: rgb(255, 0, 0);"></path>
    <path d="M 0.44 157.694 L 0.44 396.741 L 0.44 157.694 Z" fill="none" stroke-width="0.5"
        style="stroke: rgb(255, 0, 0);"></path>
    <path d="M 71.829 84.843 L 71.829 125.576 L 71.829 84.843 Z" fill="none" stroke-width="0.5"
        style="stroke: rgb(255, 0, 0);"></path>
    <path d="M 34.735 162.67 L 33.605 162.67" fill="none" stroke-width="0.5"
        style="stroke: rgb(255, 0, 0);"></path>
    <path d="M 192.44 396.741 L 192.44 15.795 L 192.44 396.741 Z" fill="none" stroke-width="0.5"
        style="stroke: rgb(255, 0, 0);"></path>
    <path d="M 176.674 0.029 L 67.061 0.029" fill="none" stroke-width="0.5"
        style="stroke: rgb(255, 0, 0);"></path>
    <path d="M 71.62 29.053 C 70.834 21.616 67.818 14.587 62.964 8.895" fill="none"
        stroke-width="0.5" style="stroke: rgb(255, 0, 0);"></path>
    <path d="M 34.735 162.67 C 55.22 162.675 71.834 146.065 71.829 125.576" fill="none"
        stroke-width="0.5" style="stroke: rgb(255, 0, 0);"></path>
    <path d="M 9.306 153.637 C 16.055 159.474 24.683 162.678 33.605 162.67" fill="none"
        stroke-width="0.5" style="stroke: rgb(255, 0, 0);"></path>
    <path
        d="M 79.107 77.189 C 94.987 76.28 103.934 58.522 95.208 45.215 C 91.581 39.694 85.536 36.239 78.939 35.911"
        fill="none" stroke-width="0.5" style="stroke: rgb(255, 0, 0);"></path>
    <path d="M 0.44 396.741 C 0.424 405.466 7.489 412.544 16.206 412.548" fill="none"
        stroke-width="0.5" style="stroke: rgb(255, 0, 0);"></path>
    <path d="M 176.674 412.548 C 185.396 412.544 192.461 405.466 192.44 396.741" fill="none"
        stroke-width="0.5" style="stroke: rgb(255, 0, 0);"></path>
    <path d="M 192.44 15.795 C 192.436 7.094 185.379 0.033 176.674 0.029" fill="none"
        stroke-width="0.5" style="stroke: rgb(255, 0, 0);"></path>
    <path d="M 71.62 29.053 C 72.009 32.846 75.132 35.768 78.939 35.911" fill="none"
        stroke-width="0.5" style="stroke: rgb(255, 0, 0);"></path>
    <path d="M 79.107 77.189 C 75.026 77.385 71.821 80.754 71.829 84.843" fill="none"
        stroke-width="0.5" style="stroke: rgb(255, 0, 0);"></path>
    <path
        d="M 9.306 153.637 C 6.158 150.952 1.279 152.687 0.53 156.756 C 0.473 157.066 0.444 157.378 0.44 157.694"
        fill="none" stroke-width="0.5" style="stroke: rgb(255, 0, 0);"></path>
    <path
        d="M 67.061 0.029 C 62.919 0.025 60.332 4.507 62.399 8.092 C 62.562 8.374 62.751 8.648 62.964 8.895"
        fill="none" stroke-width="0.5" style="stroke: rgb(255, 0, 0);"></path>
</svg>