<?xml version="1.0" encoding="UTF-8"?>
<svg id="_x30_" xmlns="http://www.w3.org/2000/svg" version="1.1" viewBox="0 0 1700.8 1133.9">
  <!-- Generator: Adobe Illustrator 29.7.1, SVG Export Plug-In . SVG Version: 2.1.1 Build 8)  -->
  <defs>
    <style>
      .st0 {
        fill: none;
        stroke: red;
        stroke-linecap: round;
        stroke-linejoin: round;
        stroke-width: .5px;
      }
    </style>
  </defs>
  <g id="LINE">
    <line class="st0" x1="825.5" y1="464.4" x2="787.5" y2="464.4"/>
  </g>
  <g id="ARC">
    <path class="st0" d="M825.5,464.4c18.5,0,33.4-15,33.4-33.4"/>
  </g>
  <g id="LINE1" data-name="LINE">
    <line class="st0" x1="858.9" y1="393" x2="858.9" y2="431"/>
  </g>
  <g id="ARC1" data-name="ARC">
    <path class="st0" d="M858.9,393c0-8.4-3.2-16.5-8.9-22.7"/>
  </g>
  <g id="ARC2" data-name="ARC">
    <path class="st0" d="M854.1,361.3c-3,0-5.4,2.4-5.4,5.4s.5,2.7,1.4,3.7"/>
  </g>
  <g id="LINE2" data-name="LINE">
    <line class="st0" x1="920.3" y1="361.3" x2="854.1" y2="361.3"/>
  </g>
  <g id="ARC3" data-name="ARC">
    <path class="st0" d="M951.5,392.5c0-17.2-14-31.2-31.2-31.2"/>
  </g>
  <g id="LINE3" data-name="LINE">
    <line class="st0" x1="951.5" y1="741.2" x2="951.5" y2="392.5"/>
  </g>
  <g id="ARC4" data-name="ARC">
    <path class="st0" d="M920.3,772.4c17.2,0,31.2-14,31.2-31.2"/>
  </g>
  <g id="LINE4" data-name="LINE">
    <line class="st0" x1="787" y1="772.4" x2="920.3" y2="772.4"/>
  </g>
  <g id="ARC5" data-name="ARC">
    <path class="st0" d="M755.8,741.2c0,17.2,14,31.2,31.2,31.2"/>
  </g>
  <g id="LINE5" data-name="LINE">
    <line class="st0" x1="755.8" y1="462.6" x2="755.8" y2="741.2"/>
  </g>
  <g id="ARC6" data-name="ARC">
    <path class="st0" d="M766.8,457.3c-3-2.3-7.2-1.8-9.6,1.1s-1.5,2.7-1.5,4.2"/>
  </g>
  <g id="ARC7" data-name="ARC">
    <path class="st0" d="M766.8,457.3c5.9,4.6,13.2,7.2,20.7,7.2"/>
  </g>
</svg>