<?xml version="1.0" encoding="UTF-8"?>
<svg id="_0" data-name="0" xmlns="http://www.w3.org/2000/svg" viewBox="0 0 181.45 386.15">
  <g id="LINE">
    <line x1="16.6" y1="385.9" x2="164.86" y2="385.89" fill="none" stroke="red" stroke-linecap="round" stroke-linejoin="round" stroke-width=".5"/>
  </g>
  <g id="LINE-2" data-name="LINE">
    <line x1=".25" y1="16.6" x2=".25" y2="369.55" fill="none" stroke="red" stroke-linecap="round" stroke-linejoin="round" stroke-width=".5"/>
  </g>
  <g id="LINE-3" data-name="LINE">
    <line x1="34.26" y1="59.18" x2="34.26" y2="70.74" fill="none" stroke="red" stroke-linecap="round" stroke-linejoin="round" stroke-width=".5"/>
  </g>
  <g id="LINE-4" data-name="LINE">
    <line x1="147.19" y1="70.74" x2="147.19" y2="59.17" fill="none" stroke="red" stroke-linecap="round" stroke-linejoin="round" stroke-width=".5"/>
  </g>
  <g id="LINE-5" data-name="LINE">
    <line x1="181.2" y1="369.55" x2="181.2" y2="16.6" fill="none" stroke="red" stroke-linecap="round" stroke-linejoin="round" stroke-width=".5"/>
  </g>
  <g id="LINE-6" data-name="LINE">
    <line x1="54.67" y1="91.15" x2="126.79" y2="91.15" fill="none" stroke="red" stroke-linecap="round" stroke-linejoin="round" stroke-width=".5"/>
  </g>
  <g id="LINE-7" data-name="LINE">
    <line x1="126.79" y1="38.77" x2="54.67" y2="38.77" fill="none" stroke="red" stroke-linecap="round" stroke-linejoin="round" stroke-width=".5"/>
  </g>
  <g id="LINE-8" data-name="LINE">
    <line x1="164.86" y1=".26" x2="16.6" y2=".25" fill="none" stroke="red" stroke-linecap="round" stroke-linejoin="round" stroke-width=".5"/>
  </g>
  <g id="ARC">
    <path d="M54.67,38.77c-11.27,0-20.41,9.14-20.41,20.41h0" fill="none" stroke="red" stroke-linecap="round" stroke-linejoin="round" stroke-width=".5"/>
  </g>
  <g id="ARC-2" data-name="ARC">
    <path d="M34.26,70.74c0,11.27,9.14,20.41,20.41,20.41" fill="none" stroke="red" stroke-linecap="round" stroke-linejoin="round" stroke-width=".5"/>
  </g>
  <g id="ARC-3" data-name="ARC">
    <path d="M126.79,91.15c11.27,0,20.41-9.14,20.41-20.41h0" fill="none" stroke="red" stroke-linecap="round" stroke-linejoin="round" stroke-width=".5"/>
  </g>
  <g id="ARC-4" data-name="ARC">
    <path d="M147.19,59.17c0-11.27-9.14-20.41-20.41-20.41" fill="none" stroke="red" stroke-linecap="round" stroke-linejoin="round" stroke-width=".5"/>
  </g>
  <g id="SPLINE">
    <path d="M181.2,369.55c0,.45-.02.9-.06,1.35-.04.5-.11.99-.19,1.49-.1.55-.22,1.09-.37,1.62-.17.59-.37,1.17-.6,1.73-.25.62-.55,1.23-.88,1.81-.36.64-.76,1.26-1.21,1.84-.47.63-.99,1.22-1.55,1.77s-1.15,1.06-1.78,1.52c-.58.43-1.2.83-1.83,1.18-.58.32-1.18.61-1.8.85-.56.22-1.13.42-1.72.58-.53.15-1.06.27-1.6.36-.48.08-.97.14-1.46.18-.44.04-.87.05-1.31.05" fill="none" stroke="red" stroke-linecap="round" stroke-linejoin="round" stroke-width=".5"/>
  </g>
  <g id="SPLINE-2" data-name="SPLINE">
    <path d="M16.6,385.9c-.45,0-.9-.02-1.35-.06-.5-.04-1-.11-1.49-.19-.55-.1-1.09-.22-1.62-.37-.59-.17-1.17-.37-1.73-.6-.62-.25-1.23-.55-1.82-.88-.64-.36-1.26-.76-1.84-1.21-.63-.47-1.22-.99-1.77-1.55s-1.06-1.15-1.52-1.78c-.43-.58-.83-1.2-1.18-1.84-.32-.58-.61-1.18-.85-1.8-.23-.56-.42-1.13-.58-1.72-.15-.53-.27-1.06-.36-1.6-.08-.48-.14-.97-.18-1.46-.04-.44-.05-.87-.05-1.31" fill="none" stroke="red" stroke-linecap="round" stroke-linejoin="round" stroke-width=".5"/>
  </g>
  <g id="SPLINE-3" data-name="SPLINE">
    <path d="M.25,16.6c0-.45.02-.9.06-1.35.04-.5.11-1,.19-1.49.1-.55.22-1.09.37-1.62.17-.59.37-1.17.6-1.73.25-.62.55-1.23.88-1.82.36-.64.76-1.26,1.21-1.84.47-.63.99-1.22,1.55-1.77s1.15-1.06,1.78-1.52c.58-.43,1.2-.83,1.84-1.18.58-.32,1.18-.61,1.8-.85.56-.23,1.13-.42,1.72-.58.53-.15,1.06-.27,1.6-.36.48-.08.97-.14,1.46-.18.44-.04.87-.05,1.31-.05" fill="none" stroke="red" stroke-linecap="round" stroke-linejoin="round" stroke-width=".5"/>
  </g>
  <g id="SPLINE-4" data-name="SPLINE">
    <path d="M164.86.26c.45,0,.9.02,1.35.06.5.04.99.11,1.49.19.55.1,1.09.22,1.62.37.59.17,1.17.37,1.73.6.62.25,1.23.55,1.81.88.64.36,1.26.76,1.84,1.21.63.47,1.22.99,1.77,1.55s1.06,1.15,1.52,1.78c.43.58.83,1.2,1.18,1.83.32.58.61,1.18.85,1.8.22.56.42,1.13.58,1.72.15.53.27,1.06.36,1.6.08.48.14.97.18,1.46.04.44.05.87.05,1.31" fill="none" stroke="red" stroke-linecap="round" stroke-linejoin="round" stroke-width=".5"/>
  </g>
</svg>