<?xml version="1.0" encoding="UTF-8"?>
<svg id="Calque_1" xmlns="http://www.w3.org/2000/svg" version="1.1" viewBox="0 0 1927.6 1105.5">
  <!-- Generator: Adobe Illustrator 29.7.1, SVG Export Plug-In . SVG Version: 2.1.1 Build 8)  -->
  <defs>
    <style>
      .trotec-case {
      fill: none;
      stroke: #936037;
      stroke-miterlimit: 10;
      }
    </style>
  </defs>
  <g>
    <g>
      <rect class="trotec-case" x="39.3" y="52.8" width="238.1" height="479.1" />
      <rect class="trotec-case" x="307.8" y="52.8" width="238.1" height="479.1" />
      <rect class="trotec-case" x="576.2" y="52.8" width="238.1" height="479.1" />
      <rect class="trotec-case" x="844.7" y="52.8" width="238.1" height="479.1" />
      <rect class="trotec-case" x="1113.2" y="52.8" width="238.1" height="479.1" />
      <rect class="trotec-case" x="1381.7" y="52.8" width="238.1" height="479.1" />
      <rect class="trotec-case" x="1650.2" y="52.8" width="238.1" height="479.1" />
    </g>
    <g>
      <rect class="trotec-case" x="39.3" y="573.6" width="238.1" height="479.1" />
      <rect class="trotec-case" x="307.8" y="573.6" width="238.1" height="479.1" />
      <rect class="trotec-case" x="576.2" y="573.6" width="238.1" height="479.1" />
      <rect class="trotec-case" x="844.7" y="573.6" width="238.1" height="479.1" />
      <rect class="trotec-case" x="1113.2" y="573.6" width="238.1" height="479.1" />
      <rect class="trotec-case" x="1381.7" y="573.6" width="238.1" height="479.1" />
      <rect class="trotec-case" x="1650.2" y="573.6" width="238.1" height="479.1" />
    </g>
  </g>
  <rect class="trotec-case" x="0" y="0" width="1927.6" height="1105.5" />
</svg>