<svg xmlns="http://www.w3.org/2000/svg" viewBox="0 0 840 1680" width="840px" height="1680px">
  <g id="Calque_2" transform="matrix(0.923201, 0, 0, 0.9285, -102.634613, -441.925232)" style="">
    <g id="Calque_1-2" data-name="Calque 1" transform="matrix(1, 0, 0, 1, 116.441002, 479.865234)">
      <g>
        <path class="cls-1"
          d="M785.74,311.21l-86.33-129.6c-23.67-35.54-55.64-61-96.34-74.3-53.94-24.29-119.25-20.17-167.95-50.69,21.86-13.26,46.39-20.13,71.76-20.62,42.43-.79,84.37,5.63,127.18,6.46,11.93.19,23.37-.91,32.95-7.89,11.17-8.2,10.72-22.81,5.21-34.56h-277.23c-8.23,16.85-21.71,30.86-36.58,43.1-57.57,47.33-75.31,93.3-87.16,166.28l-27.03,100.48c-13.89,51.56-14.5,103.53,3.21,154.19,11.32,32.52,29.37,62.32,56.74,83.55,41.37,32.07,87.84,14.96,122.16-17.68,38.88-36.98,70.33-92.85,101.77-119.66,20.38-17.38,46.92-19.11,67.08-.91,17.4,15.71,34.09,32.33,50.96,49.29,69.27,69.58,108.91,13.79,210.83,57.79,13.82,5.97,28.69,7.63,42.66,7.55v-115.13c-44.85-23.65-85.01-54.28-113.89-97.64ZM769.81,459.47c-31.33,22.1-73.87,21.3-105.09-1.59-23.1-16.96-41.83-37.92-62.85-57.75-17.18-16.2-36.99-20.81-58.51-10.05-22.91,11.45-41.83,29.99-57.08,51.11l-29.33,40.49c-15.51,21.45-33.71,40.45-55.91,54.35-34.84,21.83-77.76,15.3-104.75-16.39-41.79-49.03-54.7-119.59-37.98-182.1l29.48-110.3c6.57-24.51,6.87-49.26,15.93-72.94,6.79-17.79,14.23-36.38,29.78-47.97,28.39-21.19,64.82-26.21,99.62-21.12,79.91,11.63,161.87,75.62,224.57,123.52,26.61,20.32,50.89,39.89,67.8,70.14l44.69,79.96c16.08,28.75,33.18,76.98-.38,100.63Z"
          style="fill: rgb(29, 29, 27);"></path>
        <path class="cls-1"
          d="M899.63,176.78v180.48c0,7.14-45.98-27.76-47.68-29.46-17.44-17.87-36.96-33.69-52.21-53.71-16.42-21.57-33.9-44.84-43.26-66.52-12.83-29.65-28.88-59.23-35.33-92.2-1.81-9.33-1.85-18.28,3.89-25.53,4.42-5.59,13.02-9.44,21.52-9.07,70.33,3.29,106.34,55.9,153.07,96.02Z"
          style="fill: rgb(29, 29, 27);"></path>
        <path class="cls-1"
          d="M758.34,899.97c-10.38,10.69-11.1,25.99-6.12,40.61,6.34,18.74,10.68,37.85,18.53,56.02,16.87,39.06,28.27,78.87,39.83,119.66,16.16,57.07,37.26,128.28,89.05,161.06v29.92c-35.45-30.52-65.83-68.1-89.13-108.56-18.31-31.88-22.76-85.52-35.11-121.93-10.57-31.24-23.56-60.81-36.35-91.26-12.34-29.31-29.63-55.98-40.88-84.88-5.78-14.88,2.53-28.33,14.16-35.58,20.91-12.99,45.19-21.42,69.84-15.79,8.68,1.96,16.19,8.65,24.73,11.41,26.73,24.44,58.25,39.51,92.75,48.61v26.29c-38.28,0-105.43-72.37-141.29-35.58Z"
          style="fill: rgb(29, 29, 27);"></path>
        <path class="cls-1"
          d="M352.05,1799.41l-29.86-.15c32.65-40.23-13.51-94.13-47.19-114.07-23.33-13.82-47.79-7.33-63.49,14.81-20.04,28.18-27.93,64.21-30.5,99.49l-130.69-.04-50.32-22.63v-11.79l121.63,21.64c12.38-10.2,20.76-22.51,27.48-36.64l26.5-55.87c8.08-17.04,17.44-33.16,31.07-45.67,15.44-14.16,35.33-15.03,53.34-3.36,30.01,19.49,55.64,47.4,76.06,77.13,13.17,19.15,33.29,55.83,15.97,77.13Z"
          style="fill: rgb(29, 29, 27);"></path>
        <path class="cls-1"
          d="M854.71,1003.24c-6.19,12.65,6.19,44.04,12.38,58.06l24.57,55.83,7.97,22.4v107.88c-28.8-24.48-44.81-60.1-44.02-98.1,1.21-61.04-36.2-103.53-43.75-158.12-1.32-9.59.57-19.57,7.02-25.91,15.74-15.45,64.02-2.87,80.75,5.63v38.98c-8.38-2.34-38.05-20.66-44.92-6.65Z"
          style="fill: rgb(29, 29, 27);"></path>
        <path class="cls-1"
          d="M347.89,0c-20.84,34.34-64.32,80-110.53,76.83-26.08-1.78-49.75-12.28-71.16-26.4-12.72-8.39-24.76-12.73-40.62-10.39-26.92,3.97-51.57,15.56-74.97,29.5L0,99.72v-28.1c2.15,1.36,3.74,2.91,6.49,5.33l53.83-32.79c8.3-5.06,12.04-14.81,10.83-23.95-1.09-8.46-6.64-15.71-14.08-20.21h124.12c12.87,40.45,53,59.98,93.28,42.53,19.55-8.5,35.86-24.02,47.15-42.53h26.27Z"
          style="fill: rgb(29, 29, 27);"></path>
        <path class="cls-1"
          d="M899.63,746.99c-4.38,5.82-6.49,14.84,0,19.04v64.36c-17.63-1.59-36.01-8.95-47.68-22.51-38.2-44.35,16.65-142.78,47.68-177.83v116.94Z"
          style="fill: rgb(29, 29, 27);"></path>
        <path class="cls-1"
          d="M899.63,98.81v31.73c-33.03-30.75-67.72-56.28-111.02-74.79-32.16-13.79-64.21-30.1-87.39-55.75h32.61c55.19,35.43,117.89,49.1,165.79,98.81Z"
          style="fill: rgb(29, 29, 27);"></path>
        <path class="cls-1"
          d="M899.63,35.36v31.73c-34.99-28.18-72.44-49.56-114.15-67.08h69.76l44.39,35.36Z"
          style="fill: rgb(29, 29, 27);"></path>
        <path class="cls-1"
          d="M271.79,0c-3.51,7.14-11.7,11.48-20.23,10.95-6.87-.42-17.82-3.44-18.72-10.95h38.96Z"
          style="fill: rgb(29, 29, 27);"></path>
        <path class="cls-1"
          d="M294.44,1764.13c-1.66,13.86-10.38,25.42-18.16,35.51l-44.47-.34c-12.65-21.87-2.34-74.79,24.16-76.15,17.97-.94,40.66,22.55,38.47,40.98Z"
          style="fill: rgb(29, 29, 27);"></path>
        <g>
          <g>
            <path class="cls-1"
              d="M187.35,1576.82l-7.78,20.7c-13.55,36-34.16,69.27-53.79,102.7-10.34,17.64-24.99,28.82-43.11,37.55-44.17,21.3-55.19.49-82.67,15.49v-35.36c48.96,3.36,116.95-69.73,105.73-117.62-12.23-52.35-79.61-93.56-105.73-137.11v-49.86l19.33,26.18c20.04,27.2,49.98,45.59,77.99,65.01l82.9,57.53c4.64,3.25,9.7,7.93,7.13,14.81Z"
              style="fill: rgb(29, 29, 27);"></path>
            <path class="cls-1"
              d="M271.91,1366.43c-2.26-61.49-52.89-111.32-114.68-103.46l-55.79,7.1c-43.41,5.51-62.63,11.75-89.88,44.08-1.62,1.96-1.02,6.61-3.93,6.76-2.91.15-5.62-.26-7.63-1.89v33.54c12.42,17.72,6.15,23.08,23.37,43.93,20.16,24.48,45.07,42.95,72.55,59.87,19.74,12.16,41.52,20.77,62.89,31.01,21.55,10.27,44.24,8.84,63.61-6.08,35.07-27.01,51.11-71.13,49.49-114.87ZM226.72,1430.83c-21.21,19.72-49.22,21.53-73.8,7.55-18.95-10.77-38.05-18.96-54.85-31.31-25.9-19.04-59.83-42.49-51.6-76.19,10.65-43.33,96.11-56.24,133.37-55.11,22.46.72,41.79,10.43,56.06,28.07,29.67,36.6,25.1,95.19-9.17,126.99Z"
              style="fill: rgb(29, 29, 27);"></path>
            <path class="cls-1"
              d="M99.54,757.49c-4.72,24.4-9.21,49.1-22.95,72.03-19.4,32.37-45.15,67.54-76.59,87.9v-15.41c108.38-76.34,128.16-232.38,38.84-332.59-8.38-9.37-19.48-19.11-33.41-21.49,30.92,43.44,64.74,58.32,79.39,113.77,10.65,40.3,9.59,85.59-4.87,126.12-11.36,31.92-32.99,60.4-54.51,85.63-7.36,8.61-15.51,10.12-25.44,11.33v-9.97c25.9-20.85,47.22-48.46,61.87-79.06l-49.64,55.9-12.23,4.12v-9.97c6.53-2.3,7.25-9.97,10.83-15.56,6.91-10.73,17.21-18.09,25.52-27.95,41.75-49.37,29.14-149.62-23.52-188.75-5.55,3.7-5.28,9.78-5.55,15.98-.53,11.18,37.52,25.31,40.28,73.77,2.34,41.13-14.04,83.29-42.73,112.37-.45,6.61-2.08,11.63-4.83,16.54v-31.73c7.51-15.45,9.78-31.96,11.63-49.29,2.04-18.77,5.74-36.94,3.1-56.62-5.66,2.95-9.25,8.05-14.72,7.1v-123.29c50.21,43.44,84.56,113.13,75.54,180.86,17.97-61.15,1.02-123.97-45.3-167.11-9.51-8.88-20.31-16.28-30.24-24.63v-29.92c3.02,1.28,2.23-3.21,5.62-5.7,35.33,21.34,63.83,55.03,81.35,92.35,8.76,18.74,8.72,36.75,12.68,55.07,5.96,27.5,5.02,51.45-.11,78.19Z"
              style="fill: rgb(29, 29, 27);"></path>
            <path class="cls-1"
              d="M152.96,1177.79c-16.46,7.86-36.69,17.3-55.26,15.9-33.56-2.49-65.49-7.44-97.69-11.56v-15.41c28.54-1.51,49.22,5.7,78.74-.91,13.21-2.95,25.4-13.26,23.48-28.25-4.19-32.52-20.12-63.91-45.98-83.86-12.68-9.82-31.97-14.01-45.26-4.49-9.89,23.53-3.25,51.45,13.97,70.45-1.51,8.46-9.74,13.86-17.67,14.2l-7.29,6.57v-123.29c23.48,1.44,42.35-19.38,70.4-19.68,15.25-.19,23.74,9.14,31.37,21.49,23.9,38.79,44.51,79.81,61.53,122.23,5.62,14.05,4.61,29.46-10.34,36.6Z"
              style="fill: rgb(29, 29, 27);"></path>
            <path class="cls-1"
              d="M141.07,726.07c-2.98,41.74-8.15,82.42-23.4,121.48-15.63,40.11-40.2,59.49-68.02,91.37-13.17,15.11-30.77,27.01-49.64,31.09v-12.69c11.63-.91,20.76-7.86,30.2-15.3,26.73-21.19,45.11-49.63,62.97-78.19,22.8-36.56,34.31-74.79,37.86-117.89,3.55-43.06,3.25-85.86-10.91-127.33-5.59-16.39-10.65-33.01-22.01-46.35-19.29-29.65-54.36-82.16-91.05-93.37-2.53,4.87.53,8.73,4.45,12.01,23.93,20.06,47.56,40.08,68.48,63.46,10.19,11.41,14.65,23.12,21.29,36.15,22.91,45.02,32.01,96.66,27.14,146.82-2.98,30.52-7.1,60.29-19.97,88.43-19.29,42.15-47.98,79.4-82.1,110.64-7.96,2.27-15.14,6.42-23.86,6.27,32.84-22.78,57.98-50.46,76.67-84.91,11.32-20.93,23.59-42.31,31.44-64.97,22.35-64.48,13.44-134.62-15.14-195.13-20.04-42.53-51.75-81.89-95.47-99.04v-38.98c14.08,8.46,30.77,17.38,45.56,29.54,32.73,26.93,57.68,61.53,75.23,99.61,20.01,43.33,23.63,90.28,20.27,137.3Z"
              style="fill: rgb(29, 29, 27);"></path>
            <path class="cls-1"
              d="M112.04,427.17c-.3,11.9-8.68,25.95-21.25,23.87-15.1-2.49-26.2-14.58-37.11-24.29l-34.09-30.33c-3.4-3.02-3.02-8.84-7.63-11.03-1.93,2.64-3.51,5.63-5.17,6.35-1.89.87-4.87.3-6.79-.11v-51.67c9.93-.38,4.11,21.68,12.38,33.05,5.32-20.77,40.54-75.09,65.91-66.93,4.53,1.44,9.93,6.19,12.68,12.28,15.33,33.88,21.97,71.35,21.06,108.82Z"
              style="fill: rgb(29, 29, 27);"></path>
            <path class="cls-1"
              d="M118.34,717.98c.26,33.16-7.44,61.76-19.1,92.09-20.01,52.05-53.26,86.69-92.71,124.54-1.62,1.55-5.4,2.04-6.53.94v-8.16c49.22-40.53,73.87-78.64,96.26-138.06,18.46-48.92,19.33-99.08.19-148.37-21.33-55-43.34-93.19-96.45-124.23v-6.35c44.32,10.61,81.8,65.38,97.43,106.67,12.65,33.35,20.65,64.74,20.91,100.93Z"
              style="fill: rgb(29, 29, 27);"></path>
            <path class="cls-1"
              d="M12.99,1662.6c-1.36,10.58-6.34,20.55-12.99,29.01v-46.23c16.27,4.27,7.63-34.6,0-42.61v-104.25c5.93,17.87,8.27,37.81,19.67,53.9,8.64,12.24,18.53,22.85,22.76,37.77,9.02,31.69-8.64,50.99-29.44,72.41Z"
              style="fill: rgb(29, 29, 27);"></path>
            <path class="cls-1"
              d="M4.57,766.97c-.38,2.42-2.34,3.85-4.57,3.59v-42.61c2.53-1.13,4.53-5.67,6.45-4.87,9.4,3.7.26,30.1-1.89,43.89Z"
              style="fill: rgb(29, 29, 27);"></path>
            <path class="cls-1" d="M0,1402.42v-30.82c8.12.83,11.06,39.02,0,30.82Z"
              style="fill: rgb(29, 29, 27);"></path>
          </g>
          <g>
            <path class="cls-1"
              d="M650.41,826.43l80.48-24.21c31.18-9.37,68.97,32.03,89.65,46.57,21.4,15.07,53,36,79.08,36v-28.1c-50.24,1.36-96.86-44.99-95.58-95.79,1.93-74.19,97.58-183.16,14.42-225.96-37.07-19.08-77.23-13.98-120.91-31.09-72.59-28.44-100.98-129.48-160.92-92.96-13.7,8.35-25.25,18.17-35.07,31.28l-53.83,71.96c-16.04,21.45-35.07,40.19-57.72,53.33-32.77,18.96-70.21,14.81-98.11-10.69-28.31-25.95-45.83-61.72-57.6-98.51-15.67-48.99-18.35-98.28-7.32-148.45,7.59-34.52,18.76-67.76,25.59-101.53,7.32-36.26,7.59-85.14-20.57-112.22-21.25-20.47-48.55-32.71-78.37-34.86-27.82-1.96-57.08,2.8-81.8,14.96L0,111.5v182.22c13.29-8.16-6.68,23.95,13.67,25.57,15.06-19.15,29.93-38.23,48.55-53.86,7.78-6.53,15.78-10.09,25.93-5.85,14.87,6.16,21.89,21.23,25.18,36.98l19.67,94.36c7.29,34.83,10.8,69.24,7.25,104.4-.83,8.01-6.68,19.08-15.14,17.53-17.93-3.29-37.56-29.27-54.66-42.12L0,417.92v31.73c54.77,14.5,115.47,95.79,141.11,143.72,13.44,25.08,15.14,50.88,13.21,78.42-3.93,56.32-10.31,112.22-21.25,167.22-9.89,49.71-50.43,88.77-89.8,116.3-14.61,10.2-27.67,22.66-43.26,30.1v13.6c2.91,8.01,52.77-26.33,59.11-30.48,13.51-8.84,44.96-27.95,59.83-20.47,9.44,4.8,15.78,25.87,18.69,36.56,11.82,43.33,29.78,83.74,54.32,121.51,14.91,22.97,30.54,45.55,41.45,70.11,8.42,18.92-29.44,25.69-40.5,26.67-65,5.7-128.57,4.91-192.9-1.74v18.13c34.58-1.4,69.04.19,103.89-1.62,104.3-5.48,130.84,15.64,222.72,29.46,17.59,2.64,51.49-3.36,55.19-21.08,1.21-5.93-.15-11.67-4.3-17-16.65-21.45-81.39-22.1-152.66-116.11-49.75-65.65-67.68-145.12-32.99-222.9l27.44-61.46c17.02-38.11,19.4-78.76,1.62-117.06l-32.92-70.86c-6.98-15.07-6.83-31.77-8.08-48.35-4.27-56.02-9.97-110.94-21.82-165.94-6.42-29.8-8.98-59.3-13.21-89.18-5.4-38.41-1.85-73.81,3.47-109.35,2.15-14.28-1.47-33.69-12.04-41.63-32.35-24.21-98.15,15.9-124.84,32.07-3.66-10.43-5.06-21.83-.68-31.28l47.64-26.1c24.54-13.41,52.13-22.63,79.46-21.91,26.84.72,45.41,17.64,48.05,44.27,6.3,63.61-34.62,92.39-17.63,210.32,7.74,53.64,45.49,210.51,67.61,254.29l23.97,47.48c26.73,52.96,7.93,109.09-17.21,157.59-12.87,24.82-24.61,49.56-32.35,76.15-14.8,50.8-6.87,102.55,20.5,146.97,27.1,43.97,65.99,74.83,114.49,92.54,20.69,7.55,41.6,15.45,60.36,25.99,14.99,8.39,23.52,24.02,24.76,38.68,1.55,18.62-6.95,31.12-18.84,42.8-31.11,30.48-73.27,36.15-111.02,14.81-38.32-21.68-79.76-38.53-123.78-44.27-46.62-6.08-130.16-2.95-176.82,3.55v9.97c47.41-4.08,94.94-10.54,142.84-9.56,61.38,1.21,116.91,26.03,162.66,65.5,18.38,15.9,39.41,22.74,62.59,12.96,26.65-11.22,51.38-26.93,71.19-47.93,19.52-20.62,22.91-48.5,11.74-74.64-9.55-22.29-28.46-38.83-51-48.39l-67.83-28.82c-77.54-32.9-120.34-119.89-92.07-200.54,24.08-68.63,74.25-120.31,83.24-206.81,5.55-52.99-43.07-65.84-70.21-119.36-17.29-34.11-30.58-69.39-43.03-105.65-12.83-37.39-20.35-75.89-24.46-115.06-8.23-78.38,41.52-147.39,23.06-221.39-7.81-31.2-33.14-49.33-66.1-48.05-39.11,1.51-76.93,16.92-109.92,37.89-7.29,4.61-15.44,9.1-23.56,8.31-2.64-1.66-3.1-9.37-.49-10.92l44.32-26.03c34.16-20.02,72.44-31.58,112-24.48,16.38,2.95,32.01,9.93,44.77,20.02,40.81,32.22,29.78,88.54,16.87,132.2-19.82,67.05-32.69,108.79-20.72,179.16,10.08,59,31.94,117.51,69.72,163.67,33.6,41.02,82.78,46.72,124.61,11.29,20.65-17.49,37.37-37.51,53.08-59.34l51.49-71.54c18.76-26.06,53.79-54.62,85.95-28.03,18.01,14.92,32.43,33.47,48.09,50.96,45.64,50.99,79.61,50.39,137.33,76.87,11.44,5.25,15.14,22.51,16.12,33.28,2.34,25.95-8.23,48.08-22.12,68.75-9.63,14.32-25.44,46.61-50.47,38.6-32.05-10.2-62.4-38.49-103.55-39.02-23.25-.3-45.19,3.74-68.14,7.74l-105.36,18.32c-39.11,6.8-66.17,32.79-85.01,66.06-25.56,45.21-52.66,89.63-79.5,133.94-32.99,54.51-32.39,118.8,10.04,168.69,63.12,74.19,144.73,44.12,179.95,134.21,14.61,37.4,3.7,72.18-25.59,98.66l-76.78,69.43c-6.3,5.74-17.48,11.18-24.42,5.33-17.48-14.69-30.8-32.6-45.22-49.86-35.71-42.83-84.6-68.03-141.14-70.29-24.69-.98-49.75-1.66-74.74.04-26.27,1.81-59,16.77-80.22,10.16v20.85c11.51-4.61,21.55-11.97,34.62-14.39,45.26-8.42,91.01-12.77,136.84-8.5,98.34,9.14,165.79,109.16,140.31,208.17l-22.01,85.67c-5.25,20.36-4.68,41.44,4.72,59.64,18.69,36.19,55.68,78.04,93.24,93.79,28.05,11.75,55.68,23.27,82.29,38,9.63,5.36,33.63,19.83,22.01,32.03-11.02,11.6-47.75-4.12-61-11.22-38.39-20.59-71.8-48.46-102.64-79.21-22.39-22.36-39.56-47.18-56.06-73.66-12.42-19.94-13.33-43.7-4.91-66.74,20.99-57.3,42.17-110.03,28.35-172.13-14-62.82-66.63-107.61-131.18-110.75-52.24-2.53-118.98.19-162.89,32.98-2.08,4.99,2.76,9.67-1.7,12.62v20.85c4.11-6.35,4.42-14.58,8.12-21.68,16.23-15.49,35.14-24.55,57.34-27.95,45.64-6.99,61.3-10.73,108.91-7.67,45.9,2.98,84.37,32.3,100.6,75.09,21.52,56.85,4.68,117.96-27.48,167.29l-37.11,56.81c-6.15,9.44-2.79,18.81,5.85,24.97,17.25,12.35,31.63,26.21,46.96,40.95,42.66,41.02,84.82,81.89,122.53,127.33,19.25,23.15,11.44,19.98,9.25,49.86l274.02-.04-53.45-126.27c-11.59-27.5-24.95-53.15-40.35-78.38-14.46-24.44-33.26-44.76-58.1-58.06l-53.68-28.71c-30.61-16.36-52.47-44.23-63.61-76.6-13.93-40.34-1.7-80.38,27.33-110.18l42.13-43.14c16.76-17.19,25.29-36.94,23.74-61.91-2.34-37.36-18.84-74.07-46.7-99.76-34.8-32.11-85.8-35.02-124.8-70.94-30.27-27.88-46.39-68.22-37.64-108.97,6.23-28.82,19.78-54.85,37.67-78.26,20.99-27.5,40.69-55.41,62.85-81.7,25.97-30.82,59.72-53.56,99.58-59.19,35.26-4.99,70.74-6.08,106.04-5.29,14.91.34,28.05,8.91,34.69,20.25,5.59,9.52,3.21,17.87-4.87,24.14-8.38,6.5-16.84,13.18-25.59,19.19-21.55,14.88-30.31,39.4-24.39,64.55,3.96,17,12.23,29.54,25.03,41.4l70.1,65.01c34.24,31.73,57.34,73.54,70.7,118.49,11.02,37.02,15.63,74.71,22.54,112.41,2.04,10.88,6.49,19.79,12.87,28.37l14.23,19.15,83.43,96.81c9.97,11.6,18.19,24.97,30.88,32.52v-22.66l-112.87-136.59c-5.32-33.66-16.8-65.65-23.97-98.55-13.74-63.38-41.37-120.61-85.01-168.5-14.84-16.32-28.92-33.24-42.77-50.28-7.13-8.8-10.65-20.77-7.4-31.24,2.98-9.52,12.31-17,22.8-20.13ZM8.95,251.91c5.81-13.67,17.14-22.63,32.92-23.15-.3,9.82-5.93,15.56-10.46,22.06l-18.08,25.99c-9.51-7.74-8.46-15.26-4.38-24.89ZM479.64,1638.69c8.27-12.09,22.27-16.62,34.69-22.59,17.97-8.61,35.9-6.12,50.81,8.27,20.01,19.3,34.09,46.08,37.56,74.15.53,4.19-.91,9.33-3.28,11.52-2.11,1.96-7.96,2.3-12.46.98-37.15-10.84-71.42-30.71-100.03-55.6-4.61-4-9.1-11.94-7.29-16.73Z"
              style="fill: rgb(29, 29, 27);"></path>
            <path class="cls-1"
              d="M820.55,1408.92c-12.38-14.24-18.16-31.01-30.09-45.52-14.38-17.56-36.88-31.31-60.1-33.05-16.61-1.21-32.84,4.57-47.79,9.75-28.69,9.93-46.32,33.43-52.92,62.51-6.27,27.61-3.21,54.77,2.15,82.68,10.95,56.62,42.69,109.05,90.56,140.06,31.33,20.32,67.34,15.41,91.24-13.3,32.5-39.06,33.63-114.3,35.75-164.88,1.74-40.42-17.63-112.75-55.04-129.75-23.93-10.88-52.17-17.45-77.84-16.92-49.56.98-112.34,18.28-119.59,75.58-8.38,65.91,19.86,149.2,47.34,209.56,23.86,52.39,61.98,111.13,113.59,138.97,15.7,8.46,32.54,10.05,49.3,15.41,34.8,11.11,63.64,32.22,92.52,53.11v-283.75c-6.12-7.03-1.06-17-4-25.72-16.38-48.24-30.27-96.92-49.38-144.18-10.76-21.15-52.51-56.43-75.01-63.91l-44.73-11.71c-20.84-5.44-38.32-20.89-38.05-44.5.45-38.72,7.47-78.42,4.79-117.32-4.42-64.89-44.36-118.04-99.36-148.98-38.47-21.64-74.21-45.93-110.68-70.03-12.68-8.35-26.88-13.56-42.01-11.45-40.39,5.74-74.4,41.55-75.76,82.76-.79,24.67,15.44,45.06,34.24,57.98l51.15,35.13c16.16,11.11,29.1,26.14,38.47,44.16,21.63,41.51,42.05,84.46,57.19,128.28,8.15,23.61,4.11,47.4-6.72,67.88l-24.84,46.91c-11.48,21.68-7.13,46.46,8.57,66.56,27.03,34.52,48.32,70.94,65,112.34,18.87,46.8,37.41,93.49,59.19,139.08,16.08,33.58,34.28,65.69,59.38,92.96,20.54,22.29,44.32,44.61,74.55,52.28,22.54,5.7,47.49-1.02,71.65,1.62-33.86-28.97-80.59-20.47-116.15-50.62-25.14-21.3-44.13-47.63-60.7-76.23-31.37-54.05-55.6-112.22-74.48-171.83l-35.67-112.71c-8.38-26.48-3.66-53.94,11.59-76.49l28.92-42.8c5.7-8.42,1.89-15.68-4.45-23-24.95-28.93-44.58-59.83-62.13-93.86l-42.54-82.42c-24.05-46.57-67.08-68.07-82.75-93.11-8-12.77-9.66-27.61-2.45-41.59,5.96-11.63,18.69-19.98,33.26-22.36,16.8-2.72,32.46,4.53,47.87,12.28l100.22,50.12c86.78,43.4,99.17,158.46,52.96,236.95l-20.8,35.28c-11.55,19.64,29.07,29.54,42.17,31.88,35.67,6.42,74.89,5.97,109.51,16.92,47.49,26.63,74.67,74.49,82.22,127.26,6.3,43.82,8.8,87.52,8.53,131.68-.15,25.53-4.04,50.54-13.67,73.05-15.63,36.64-48.81,55.94-88.82,50.77-18.16-2.3-36.54-12.96-51.26-26.63-58.62-54.47-94.22-134.47-99.02-214.81-1.96-32.98,2.79-64.25,25.33-89.11,12.61-13.9,31.29-20.36,48.88-26.03,27.71-8.88,53.94-7.25,80.78,5.02,24.05,10.95,45.79,32.79,55.64,57.45,3.62,9.07,3.4,20.32-5.7,24.33ZM831.27,1434.57c.76-.76,3.7-.45,3.74.6.08,1.28,1.21,5.25.91,6.53-7.06,29.05-12.95,58.66-21.89,87.14-7.85,25.04-23.03,47.86-46.81,59.19-24.39,11.63-53.41,3.21-73.04-16.09-41.34-40.64-61.49-103.16-51.23-160.27,6.3-35.13,31.86-57.98,65.83-63.8,74.1-12.69,107.32,104.06,91.84,106.97-13.74,2.61-17.1-57.68-54.25-82.08-23.06-15.18-52.55-12.99-72.21,7.74-43.52,45.89-19.44,133.83,25.82,168.96,23.52,18.24,51.15,15.49,72.36-3.1,14.53-12.73,25.25-26.25,31.71-45.97,4.68-14.28,17.82-56.66,27.22-65.84ZM749.88,1512.72c-9.17,9.29-23.74,12.99-35.97,7.44-51.75-23.49-55.38-94.43-31.71-120.99,14.8-16.66,36.05-18.21,53.6-4.72,32.95,25.31,43.3,88.73,14.08,118.27Z"
              style="fill: rgb(29, 29, 27);"></path>
            <path class="cls-1"
              d="M899.63,1387.92v42.61c-23.03-36.3-43.52-103.69-78.97-135.72-11.7-10.58-25.14-17.26-37.75-27.08-21.71-16.88-65.8-20.55-68.06-68.03l-3.93-83.97c-3.4-71.47-39.83-131.3-100.56-169.71-42.39-26.78-80.33-57.11-115.51-93.41-18.69-19.23-46.47-24.25-69.68-13.86-37.22,16.73-66.93,46.76-82.78,83.63-14.65,34.11-5.78,68.37,21.29,93.03,16.8,15.37,37.07,25.38,57.57,36.26,34.62,18.4,60.89,46.91,76.59,82.95,10.95,25.08,20.12,50.39,27.18,76.87,16.19,60.66-32.77,91.6-53.79,133.75-11.14,22.29-8.83,49.86,7.21,68.82,16.42,19.34,35.71,34.11,54.36,50.92,38.62,34.83,64.1,98.36,84.6,146.44,28.8,67.58,57.79,136.28,112.49,187.43-10.57.98-19.44.76-28.84.3-66.85-82.04-78.9-170.47-142.35-260.59-10.46-14.88-24.57-26.18-39.37-36.56l-48.39-33.96c-42.96-30.14-61.76-94.88-23.4-140.33,35.33-41.85,69.72-62.59,58.21-124.39-6.95-37.43-25.03-75.36-52.55-102.67-37.48-37.17-93.99-36.87-130.72-89.9-18.12-26.1-20.91-59.72-9.78-89.97,15.06-40.87,53.79-80.98,86.18-110.03,19.82-17.75,42.58-31.5,69.76-33.43,17.97-1.28,36.39,10.92,43.9,28.18,22.35,51.45,58.25,92.47,104.9,123.03,62.21,40.72,101.7,104.29,111.47,177.98l10.42,78.87c5.89,44.42,36.99,54.92,47.45,64.82,21.21,20.06,43.11,38.57,61.87,61.19,19.44,23.53,32.35,52.28,51,76.53Z"
              style="fill: rgb(29, 29, 27);"></path>
            <path class="cls-1"
              d="M648.41,1062.2c-13.85-42.08-45.98-72.45-89.62-82.23-14.61-3.29-29.33-7.89-44.24-8.12-8.72-.11-23.25,1.96-25.97,10.58-3.21,10.2,2,22.89,6,33.28,15.97,41.55,34.39,81.66,55.08,121.33,7.4,14.13,19.1,25.04,30.99,35.43,16.68,14.54,36.92,11.37,50.96-5.36,23.93-28.48,28.46-69.54,16.8-104.89ZM616.67,1124.11c-4.3,5.89-9.89,10.35-15.97,11.52-7.63,1.51-14.57-1.96-20.69-6.5-27.93-20.77-42.69-53.6-45.45-88.43-.68-8.39.98-16.85,6.91-22.59,5.28-5.14,14.72-8.16,23.22-7.29,29.94,3.06,51.34,27.2,59.53,55.53,5.74,19.98,4.98,40.53-7.55,57.75Z"
              style="fill: rgb(29, 29, 27);"></path>
            <path class="cls-1"
              d="M719.38,1471.92c-5.02,1.21-9.59-.26-13.85-3.7-9.89-8.01-14.12-23.91-10.34-36.04,2-6.46,6.76-10.24,11.93-11.97,5.47-1.81,12.23.94,16.12,5.63,14.19,17.07,8.12,43.25-3.85,46.08Z"
              style="fill: rgb(29, 29, 27);"></path>
            <path class="cls-1"
              d="M205.62,1402.23c-15.74,6.87-35.48,2.3-50.73-5.67-18.65-9.75-33.18-24.82-43.34-41.74-10.57-17.6-2.91-34.15,11.4-45.03,16.91-12.84,33.75-19.34,55-19.79,24.27-.57,45.07,12.92,54.55,36.04,11.44,27.84,2.19,63.42-26.88,76.19Z"
              style="fill: rgb(29, 29, 27);"></path>
            <g>
              <path class="cls-1"
                d="M676.69,526.78l-79.8-90.13c-18.31-20.66-44.66-23.46-66.29-4.46-24.01,21.11-41.79,49.86-59.08,77.66-16.84,27.12-32.77,53.9-44.09,83.52-3.02,7.97-3.13,16.62.94,24.21,2.87,5.33,9.93,10.58,17.48,12.58,68.44,18.02,131.25-15.83,204.18-18.66,40.16-1.59,77.88,26.97,94.15-7.14,16.46-34.49-39.37-45.86-67.5-77.58ZM624.37,566.25c-36.5,20.55-114.23,47.22-149.22,17.41-21.18-18.06,12.99-75.28,23.03-93.41,10.34-18.58,22.84-36.04,39.03-49.29,15.02-12.31,35.56-13.18,50.02-.3,27.25,24.29,46.96,56.77,55.6,92.47,3.47,14.32-6.27,26.25-18.46,33.13Z"
                style="fill: rgb(29, 29, 27);"></path>
              <path class="cls-1"
                d="M740.07,395.9c-6.57-34.86-21.25-68.33-41.75-97.26-14.76-20.85-33.94-36.53-56.59-47.74-68.59-34-86.9-80.8-138.95-114.15-30.61-19.64-68.29-28.48-104.38-27.5-55.6,1.59-75.8,53.37-88.14,99.76l-23.74,89.29c-6.53,24.51-13.44,47.59-18.42,72.52-10.27,51.18,2.98,106.33,38.47,144.03,22.95,24.33,55.19,32.48,85.2,18.4,21.06-9.9,38.28-24.97,52.43-43.51l52.55-68.78c15.59-20.43,35.52-37.13,59.45-46.23,45.71-17.38,68.29,41.81,110.26,67.65,19.33,11.86,42.77,13.14,60.4-1.78,12.31-10.43,16.35-28.22,13.21-44.69ZM678.58,395.97c-7.97,9.71-29.44-8.95-36.99-18.17l-28.95-35.13c-8.27-10.05-15.29-7.86-24.95-3.93-85.43,34.64-114.49,104.21-171.08,165.67-15.7,17.11-37.94,24.44-60.89,21.79-59.64-6.84-84.44-100.51-68.21-158.38l42.35-150.83c9.17-32.64,18.95-72.67,59.15-80.87,61.49-12.5,111.21,26.97,146.99,72.67,19.52,24.89,38.2,52.16,55.42,78.94,13.1,20.4,28.58,29.39,50.09,36.79,36.16,12.46,48.02,58.06,37.07,71.43Z"
                style="fill: rgb(29, 29, 27);"></path>
              <path class="cls-1"
                d="M610.17,495.5c-4.79-21.83-16.27-41.47-37.18-50.8-10.34-4.65-20.5-3.7-29.93,3.97-23.18,18.89-39.52,47.59-43.03,77.66-1.13,9.75.83,18.62,7.02,25.57,5.06,5.7,14.8,8.23,23.29,8.5,25.4.68,48.58-6.72,66.93-22.36,13.33-11.33,16.65-25.69,12.91-42.53ZM564.08,501.96c-3.51,3.32-13.89,5.59-17.93.34-5.85-7.52-.38-20.28,6.61-24.85,4.19-2.76,6.91-2.87,11.25-1.78,3.21.83,5.89,3.51,6.64,7.78,1.51,8.61-.98,13.18-6.57,18.51Z"
                style="fill: rgb(29, 29, 27);"></path>
              <path class="cls-1"
                d="M546.64,278.95c-9.44-28.14-27.82-49.67-48.43-70.07-19.55-19.34-43.03-35.73-70.55-40.11-46.81-7.48-64.44,22.74-78.86,61.68-18.69,50.5-35.41,101.42-47.79,153.77-12.04,51.07,6.87,125.52,61.72,132.02,43.15,5.14,71.84-41.51,94.49-70.22l78.82-99.76c15.89-20.17,18.61-43.44,10.61-67.31ZM509.88,345.58c-29.56,48.92-62.25,97.45-101.24,138.51-14.42,15.18-38.58,21.11-55.94,11.22-26.8-15.22-35.97-45.48-34.69-74.87,1.36-31.35,11.06-60.63,20.88-90.39,9.63-29.24,18.95-57.91,33.9-84.54,12.87-22.97,36.28-37.17,62.29-30.6,34.65,8.73,64.06,33.2,78.71,65.84,9.59,21.34,8.42,44.46-3.89,64.82Z"
                style="fill: rgb(29, 29, 27);"></path>
              <path class="cls-1"
                d="M455.33,263.01c-24.35-13.3-55.08-7.4-69.65,18.24-21.89,38.53-49.56,108.75-47.41,153.55.87,18.47,9.81,35.62,25.86,44.72,10.49,5.97,23.56,2.83,32.46-4.72,34.12-28.97,68.7-81.1,88.48-120.49,17.21-34.41,3.25-73.24-29.75-91.3ZM451.1,345.77c-6.23,32.48-25.33,60.63-48.96,83.74-4.11,4-11.93,10.05-17.52,5.44-10.12-8.35-10.34-23.19-6.57-34.86,7.74-23.95,13.55-48.39,26.12-69.46,6.64-11.14,18.91-17.3,30.2-13.26,10.98,3.97,19.21,15.45,16.72,28.41Z"
                style="fill: rgb(29, 29, 27);"></path>
            </g>
          </g>
        </g>
      </g>
    </g>
  </g>
</svg>