<?xml version="1.0" encoding="UTF-8"?>
<svg id="Calque_1" data-name="Calque 1" xmlns="http://www.w3.org/2000/svg" viewBox="0 0 198.99 410.85">
  <path d="M183.62,143.74c-3.41-1.21-6.72-2.93-9.95-4.71-7.09-3.9-14.4-7.08-22.32-6.67-6.59.34-13.16,1.5-19.71,2.53-8.59,1.35-17.13,3.1-25.73,4.38-11.92,1.77-21.58,7.52-28.16,19.68-3.93,7.27-8.42,14.13-12.58,21.23-4.91,8.39-10.21,16.54-14.46,25.37-3.56,7.41-4.62,15.84-2.82,24.38,2.29,10.86,8.11,18.72,15.82,24.96,6.45,5.22,13.8,8.1,21.17,10.83,9.78,3.63,18.81,8.35,23.93,19.54,5.24,11.44,3.89,22.01-5.1,30.4-7.47,6.97-15.11,13.7-22.61,20.64-3.34,3.09-6.68,4.31-8.87,2.52-1.85-1.52-3.55-3.32-5.17-5.16-3.98-4.51-7.68-9.38-11.85-13.63-10.46-10.66-23.03-15.37-36.69-16.31-6.15-.42-12.33-.07-18.5-.07v1.93c8.17.22,16.34-.79,24.53.54,12.02,1.96,22.35,7.49,30.47,18.09,7.16,9.34,11.15,19.93,10.33,32.86-.65,10.22-3.84,19.53-6.32,29.12-1.53,5.91-3.36,11.77-2.06,18.09.46,2.22,1.09,4.38,1.64,6.57h84.02c-2.24-3.12-4.26-6.47-6.75-9.3-6.58-7.49-14.95-11.58-23.25-15.7-7-3.48-13.35-7.92-18.08-15.08-3.84-5.81-6.48-12.31-6.53-19.59-.05-7.71,2.79-14.58,7.48-19.97,5.25-6.03,11.07-11.38,16.38-17.34,3.49-3.92,5.36-9.05,5.27-14.74-.16-9.85-3.61-18.25-9.06-25.67-5.78-7.88-13.72-11.46-21.76-14.76-10.07-4.13-19.92-8.72-26.37-19.36-4.57-7.53-6.34-15.82-4.16-25,2.31-9.71,7.3-17.47,12.91-24.82,4.02-5.28,8.14-10.45,12.06-15.83,9.92-13.65,22.23-22.14,37.76-23.44,8.11-.68,16.25-1.11,24.38-1.22,2.99-.04,6.23.6,8.92,2.02,2.07,1.1,4.24,3.61,4.97,6.05.92,3.05-1.76,4.98-3.8,6.6-2.53,2-5.23,3.72-7.69,5.83-4.25,3.64-6.46,8.75-5.83,14.78.55,5.3,2.85,10.08,6.4,13.52,7.37,7.15,14.95,14,22.47,20.95,7.45,6.89,13.03,15.58,17.18,25.4,5.09,12.04,6.96,25.21,9.13,38.26.72,4.34,1.45,8.84,4.36,12.2v-22.47c-1.09-4.24-2.28-8.45-3.26-12.73-3.79-16.46-10.95-30.68-21.14-42.87-4.87-5.82-9.91-11.45-14.8-17.25-4.26-5.04-4.56-10.62-.73-13.9,1.28-1.1,2.81-1.96,4.35-2.45,7-2.26,14.08-4.2,21.07-6.54,5.16-1.72,9.89-.72,14.52,2v-46.22c-1.34,2.07-2.54,4.3-4.06,6.18-3.03,3.77-6.48,7.03-11.31,5.31Z"/>
  <path d="M34.35,299.79c9.58,2.01,19.14,4.1,28.71,6.12,6.42,1.36,12.74,1.87,18.82-1.95,3.89-2.45,3.01-6.76.54-9.25-.81-.81-1.79-1.45-2.78-1.94-4.22-2.08-8.54-3.93-12.71-6.13-13.19-6.95-23.82-17.6-32.64-30.81-6.34-9.5-10.07-20.29-11.02-32.21-.74-9.32,1.17-18.21,4.69-26.58,3.09-7.34,6.58-14.45,9.59-21.83,4.98-12.24,3.43-24.09-2.14-35.55-2.43-5.01-4.9-9.99-7.23-15.06-3.49-7.61-3.02-16.1-3.87-24.3-.82-7.82-1.44-15.69-2.63-23.44-1.45-9.46-3.53-18.79-5.06-28.24-1.02-6.29-1.54-12.68-2.29-19.03-1.2-10.07-.69-19.96,2.25-29.61H0v17.33c3.96,2.78,4.96,7.65,6.02,12.24,2.13,9.28,3.85,18.69,5.8,28.03,1.75,8.39,2.32,16.9,1.97,25.5-.06,1.43-.41,2.89-.85,4.24-1.06,3.18-3.46,4.46-6.05,2.96-2.4-1.39-4.6-3.26-6.89-4.92v8.35c3.11,4.36,6.34,8.6,9.29,13.09,5.37,8.18,9.35,16.99,8.42,27.81-.47,5.47-.51,10.99-1.17,16.42-1.31,10.79-2.55,21.62-4.5,32.27-1.71,9.37-5.4,17.8-12.04,24.03v11.56c.64-.03,1.31.05,1.92-.12,4.35-1.22,6.63-.17,8.47,4.33,1.11,2.73,2.08,5.57,2.87,8.44,3.78,13.64,9.89,25.74,17.5,36.96,3.45,5.09,6.56,10.51,9.56,15.98,1.48,2.7.64,5.65-1.9,6.73-3.01,1.28-6.19,2.45-9.36,2.68-9.67.72-19.37.96-29.06,1.39v3.21c1.8-.22,3.59-.58,5.4-.62,9.69-.21,19.37-.1,28.95,1.9Z"/>
  <path d="M189.59,288.17c-1.3-9.42-2.25-18.92-3.97-28.23-1.89-10.27-6.04-19.39-11.77-27.63-6.23-8.96-14.16-15.36-22.54-21.07-11.52-7.85-20.79-18.08-27.1-31.87-5.19-11.36-12.67-12.64-22.6-8.77-7.61,2.96-13.59,8.98-19.6,14.94-5.93,5.88-11.24,12.31-15.48,19.94-5.76,10.35-5.98,23.51,1.41,33.04,5.11,6.6,11.56,10.55,18.47,13.74,8.52,3.94,17.18,7.66,23.32,16.13,6.76,9.33,11.56,19.72,11.9,32.31.19,6.93-2.54,12.37-6.46,17.1-3.17,3.83-6.67,7.3-9.95,11-5.46,6.16-8.57,13.63-7.21,22.47.65,4.24,2.55,8.51,4.72,12.08,3.6,5.93,9.21,9.21,14.48,12.9,5.78,4.05,11.83,7.92,16.8,13.11,4.29,4.48,7.27,10.66,10.76,16.16,1.06,1.67,1.89,3.55,2.82,5.33h4.97c-2.94-6.35-5.69-12.83-8.86-19.03-4.41-8.62-9.45-16.64-16.66-22.58-4.65-3.83-9.21-7.89-13.39-12.37-5.37-5.76-6.61-14.38-2.8-21.55,2.77-5.2,6.48-9.77,10-14.38,5.51-7.22,7.95-15.48,5.66-24.8-1.62-6.57-4.09-12.88-6.51-19.14-4.78-12.37-12.57-21.42-23.13-27.24-6.43-3.55-13.1-6.49-18.65-12.02-8.37-8.33-9.45-18.11-4.71-28.05,4.95-10.39,12.62-17.46,21.85-22.28,3.99-2.08,8.13-3.12,12.63-2.11,6.79,1.52,11.54,6.84,16.44,11.68,6.51,6.44,13.42,12.07,20.92,16.81,8.38,5.29,16.49,10.98,23.07,19.29,7.31,9.23,11.42,20.14,12.77,32.34.92,8.28.75,16.73,1.25,25.08.32,5.36,1.42,10.72,5.46,13.87,3.39,2.64,7.37,4.27,11.09,6.35v-6.42c-5.39-3.6-8.42-9.06-9.39-16.12Z"/>
  <path d="M174.6,296.98c.8-9.47,1.31-18.98,1.67-28.49.28-7.26-1.39-14.18-4.12-20.65-4.87-11.59-12.71-19.8-22.45-25.74-7.6-4.63-15.23-9.22-22.77-13.98-4.83-3.04-9.42-6.64-14.35-9.45-4.12-2.35-8.65-3.02-13.25-1.78-6.91,1.85-12.58,6.05-16.48,12.89-4.31,7.56-4.66,15.25,1.37,22.57,4.54,5.51,10.38,8.64,15.96,12.27,6.83,4.44,12.87,10.16,16.88,17.92,5.05,9.77,9.51,19.98,13.88,30.2,3.07,7.17,4.66,14.9,1.58,22.6-1.93,4.81-4.64,9.21-7.09,13.72-3.34,6.16-4.89,12.54-1.41,19.24,1.63,3.13,3.65,6.03,5.77,8.75,5.12,6.6,9.37,13.91,12.8,21.79,4.6,10.58,8.88,21.34,13.3,32.02h4.42c-2.66-6.61-5.61-13.07-7.91-19.85-4.58-13.51-8.79-27.18-13.18-40.78-2.86-8.86-2.06-17.1,3.01-24.64,2.68-3.98,5.35-7.95,8.05-11.91,1.52-2.23,1.58-4.05-.25-6.36-4.49-5.67-9.21-11.23-12.91-17.57-5.76-9.86-10.82-20.29-16.06-30.56-3.99-7.81-8.88-14.66-15.07-20.25-3.65-3.29-7.54-6.33-10.72-10.15-1.79-2.14-3.37-5.72-3.25-8.54.24-5.35,3.28-9.06,7.8-11,5.63-2.42,10.83-.62,15.97,1.86,7.32,3.53,14.6,7.17,21.91,10.72,8.68,4.21,17.2,8.52,23.64,17.09,8.47,11.27,10.49,24.22,8.09,38.35-1.69,9.95-6.17,18.56-11.32,26.54-4.01,6.21-2.26,7.2,2.36,9.89.24.14.54.12.79.23,6.99,3.07,14.41,2.82,21.66,3.85,5.37.76,10.73,1.7,16.09,2.55v-5.14c-5.17-1.39-10.36-2.68-15.49-4.21-4.92-1.47-9.49-6.99-8.9-14.02Z"/>
  <path d="M59.37,318.98c4.15,3.36,8.36,7.03,13.56,7.27,3.18.15,6.61-.76,9.59-2.16,7.22-3.41,14.02-7.78,19.67-14.24,5.3-6.07,5.7-14.98,1.83-22.51-3.63-7.06-9.38-10.48-15.61-13.24-8.23-3.64-16.8-6.47-24.63-11.04-10.83-6.31-18.92-16.15-22.32-30.14-2.37-9.77-1.7-19.52,2.26-28.56,3.38-7.71,7.19-15.2,11.25-22.47,5.56-9.95,9.82-20.47,11.8-32.12,1.23-7.27.24-13.76-4.82-19.22-6.01-6.5-12.49-12.77-16.46-21.24-4.37-9.34-8.25-19.06-11.6-28.95-2.61-7.73-4.52-15.88-5.94-24.04-1.59-9.1-2.43-18.46-.43-27.67,1.93-8.89,4.23-17.68,6.36-26.51.17-.7.26-1.42.39-2.13h-7.74c-1.56,5.98-3.49,11.87-4.59,17.96-1.42,7.85-1.76,15.78-1.08,23.91,1.6,19.03,6.78,36.98,11.55,55.05,2.19,8.27,4.82,16.41,7.75,24.36,1.79,4.87,4.52,9.28,6.85,13.88,3.49,6.92,5.96,14.29,5.42,22.39-.57,8.56-3.41,16.37-7.07,23.84-4.54,9.26-9.67,18.23-11.99,28.74-3.01,13.66-1.24,26.43,5.51,38.24,7.05,12.31,16.5,21.17,28.33,26.5,7.11,3.2,14.45,5.72,21.55,8.96,5.75,2.63,10.96,8.34,10.09,15.4-.31,2.54-1.26,5.48-2.77,7.23-6.87,7.95-15.42,12.19-25.05,11.06-5.02-.59-9.94-3.5-14.67-5.95-9.34-4.85-19-8.6-29.08-10.32-6.92-1.18-14.01-1.08-21.03-1.39-2.07-.09-4.16.38-6.24.59v1.93c21.48-2.6,41.43,2.11,59.37,16.61Z"/>
  <path d="M57.86,85.6c7.82,12.21,20.14,16.92,32.55,9.48,7.83-4.69,13.41-12.25,18.96-19.8,5.87-7.99,11.63-16.2,19.49-21.59,8.28-5.69,14.56-6.43,21.96-.05,3.72,3.21,6.89,7.24,10.47,10.69,4.94,4.78,10.29,8.71,17.1,8.18,8.21-.63,12.35-7.02,11.65-14.67-.35-3.77-1.42-7.56-2.7-11.08-5-13.83-12.2-25.53-24.39-32-7.47-3.97-14.82-8.14-20.89-14.76h-12.71c5.93,8.49,11.98,16.89,17.75,25.52,2.9,4.34,6.28,7.36,10.96,8.51,1.99.49,4.03,1.29,5.76,2.49,5.2,3.59,9.11,8.37,9.17,15.95.03,3.74-2.06,5.57-5,4.22-1.96-.91-3.95-2.17-5.47-3.84-3.38-3.73-6.39-7.91-9.71-11.71-1.77-2.03-3.94-3.45-6.61-2.11-4.19,2.1-8.56,3.84-12.53,6.41-8.2,5.3-14.87,12.87-21.22,20.78-5.5,6.85-10.64,14.11-16.36,20.7-4.39,5.06-10.1,7.92-16.32,8-9.12.11-15.6-5.62-19.95-14.43-5.65-11.43-5.83-23.62-2.37-35.94,4.17-14.88,8.49-29.7,12.75-44.55h-6.63c-1.08,4.62-2.05,9.29-3.27,13.86-2.96,11.16-6.57,22.14-8.93,33.46-2.84,13.65-.95,26.67,6.49,38.28Z"/>
  <path d="M62.44,77.24c5.14,13.18,17.65,18.82,29.08,10.7,6.11-4.34,10.37-10.77,15.04-16.81,6.78-8.76,13.78-17.29,20.63-25.99,1.71-2.17,3.39-4.43,4.73-6.91,2.47-4.57,3-9.48,1.45-14.72-2.7-9.15-7.92-15.95-14.46-21.59-.63-.55-1.15-1.28-1.71-1.93h-39.24c-6.57,15.37-11.46,31.52-16.04,47.78-2.77,9.81-3.27,19.7.54,29.46ZM66.15,57.81c1-6.2,2.75-12.31,4.73-18.2,3.4-10.1,6.39-20.46,12.01-29.38,3.53-5.61,10.88-8.82,16.63-7.41,6.12,1.51,11.7,4.35,16.38,9.02,5.11,5.1,9.16,11.15,9.57,19.85-.74,2.75-1.04,5.84-2.33,8.2-2.84,5.21-6.07,10.15-9.35,15.01-3.35,4.97-6.83,9.85-10.49,14.52-3.67,4.69-7.18,9.79-11.55,13.43-7.61,6.35-16.11,5.66-21.9-2.76-4.53-6.58-4.97-14.48-3.7-22.29Z"/>
  <path d="M172.81,85.93c-6.54-3.85-11.98-9.42-17.25-15.26-2.94-3.26-6.08-6.39-9.46-9-4.7-3.63-9.76-4.11-15.12-1.37-8.03,4.1-13.02,12.03-18.41,19.36-5.86,7.97-11.57,16.07-18.86,22.33-5.83,5.01-12.35,8.49-19.72,8.35-7.53-.15-14-3.93-19.31-9.99-5.54-6.32-9.61-13.87-12.53-22.25-3.76-10.79-5.95-21.81-5.23-33.64.49-8.07,2.35-15.66,4.29-23.28,1.81-7.09,3.84-14.11,5.77-21.17h-6.08c-2.71,9.94-5.9,19.74-8,29.85-1.95,9.35-1.87,18.97-.4,28.61,2.47,16.19,7.86,30.89,16.35,43.88,5.05,7.73,11.48,14.05,20.16,15.62,8.02,1.44,15.13-1.41,21.61-7.11,9.05-7.95,15.87-18.27,23.05-28.22,4.71-6.53,8.91-13.54,15.45-18.01,6.87-4.69,12.62-4.07,18.76,1.61,2.92,2.71,5.58,5.81,8.24,8.88,5.18,5.96,10.48,11.87,17.01,15.65,4.95,2.87,10.38,4.63,15.63,6.78,3.38,1.39,6.81,2.6,10.22,3.89v-8.35c-2.49-.43-5-.81-7.48-1.29-6.4-1.23-12.83-2.42-18.69-5.86Z"/>
  <path d="M171.27,76.82c-3.99-1.92-7.48-5.42-10.99-8.53-4.39-3.9-8.38-8.44-12.87-12.17-4.79-3.98-10.3-3.96-15.54-1.36-8.23,4.07-14.21,11.38-19.79,19.31-6.7,9.52-13.53,18.91-23.47,24.4-11.66,6.44-24.73,2.08-32.45-9.62-3.78-5.73-6.74-11.79-8.38-18.8-2.16-9.23-2.67-18.53-.45-27.72,2.58-10.65,5.73-21.1,8.51-31.69.92-3.48,1.46-7.09,2.18-10.64h-5.53c-2.99,11.04-6.05,22.05-8.95,33.11-2.49,9.48-3.55,19.26-1.98,29.02,2.17,13.57,6.81,25.88,16.02,35.23,7.11,7.22,15.36,10.26,24.62,7.62,10.3-2.94,17.79-11.02,24.78-19.72,5.85-7.28,11.18-15.2,17.47-21.9,7.07-7.52,15.46-10.13,24.2-2.04,5.75,5.32,11.15,11.13,16.96,16.35,5.92,5.32,12.84,7.97,20.33,8.3,4.34.2,8.68.04,13.02.04v-10.91c-9,5.74-18.41,6.19-27.71,1.71Z"/>
  <path d="M44.5,368.35c5.29-7.59,7.94-16.35,7.48-26.3-.44-9.57-4-17.25-10.44-22.9-7.98-7-17.18-8.8-26.99-7.2-4.83.79-9.7,1.32-14.55,1.96v5.14c5.01-1.21,9.98-2.89,15.05-3.52,9.45-1.19,18.89-1.06,26.22,7.55,11.55,13.57,5.58,36.72-9.01,41.75-4.46,1.54-8.88,1.23-12.96-.68-6.57-3.08-12.89-6.91-19.31-10.43v14.77c6.91,3.25,13.7,6.88,20.75,9.65,9.7,3.81,18.15-1.73,23.75-9.78Z"/>
  <path d="M56.1,374.88c3.37-10.37,5.47-20.99,3.58-32.14-2.16-12.73-8.41-22.18-17.93-28.65-7.94-5.39-16.74-7.2-25.82-7.2-5.31,0-10.61.39-15.92.6v3.21c2.77-.41,5.54-1.1,8.32-1.19,11.11-.37,22.28-1.01,32.32,6.24,7.85,5.67,12.88,13.63,14.61,24.19,2.29,14-1.68,26.32-8.23,37.69-3.66,6.36-7.85,12.31-11.88,18.37-2.94,4.41-2.72,6.58,1.28,9.69,2.22,1.73,4.46,3.44,6.69,5.16h9.4c-4.42-7.15-4.28-14.57-1.19-22.33,1.77-4.45,3.28-9.05,4.77-13.64Z"/>
  <path d="M198.12,350.43c-5.58-9.44-17.05-12.56-25.86-5.97-6.02,4.5-9.32,15.16-8.26,23.42,1.26,9.79,4.58,18.03,10.75,24.75,3.89,4.23,8.43,6.57,13.89,6.74,3.94.12,7.03-2.16,10.35-3.92v-44.3c-.29-.24-.68-.4-.87-.72ZM197.28,377.1c-2.68,9.42-10.22,14.11-18.21,8.33-8.27-5.99-11.57-15.06-9.84-26.08,1.42-9.06,10.07-14.83,17.47-10.53,7.92,4.6,10.86,12.61,11.33,22.87-.2,1.5-.22,3.56-.75,5.42Z"/>
  <path d="M20.61,277.26c-2.1-5.51-4.34-10.99-6.91-16.22-3.25-6.62-6.83-13.02-10.39-19.42-.86-1.55-2.19-2.74-3.31-4.09v28.89c.51,1.16,1.22,2.27,1.49,3.51.81,3.75,1.7,7.6-1.49,10.62v10.91c6.27-.89,12.42-2.34,18.08-5.76,2.37-1.44,3.71-5.33,2.53-8.43Z"/>
  <path d="M183.74,322.47c-9,.44-18.04,1.59-26.19,6.86-6.06,3.92-9.43,9.83-9.97,17.9-.94,14.15,2.49,27.38,6.71,40.31,2.61,7.99,6.18,15.56,9.32,23.32l5.09-1.43c-10.7-16.49-16.27-35-15.41-55.67.18-4.41,2.12-9.09,4.21-12.94,3.75-6.89,10.16-9.69,16.6-11.73,8.37-2.65,16.78-3.09,24.89,1.52v-5.78c-5.08-.85-10.2-2.61-15.24-2.37Z"/>
  <path d="M178.2,206.46c3.44,7.33,7.45,14.31,10.82,21.69,3.24,7.09,5.97,14.49,8.94,21.75.26.63.68,1.17,1.02,1.75v-17.97c-2.04-6.36-4.4-12.6-6.01-19.1-1.45-5.85,1.19-10.57,6.01-12.36v-12.84c-6.59-.23-12.63,1.76-18.26,5.75-3.73,2.65-4.32,7.51-2.53,11.33Z"/>
  <path d="M184.28,331.39c-4.93.75-10.04,1.87-14.52,4.23-6.37,3.35-10.66,9.23-12.37,17.62-1.46,7.12-1.02,14.04.26,20.92,1.7,9.1,4.36,17.88,9.3,25.39,2.58,3.93,5.51,7.54,8.28,11.3h23.77v-3.85c-12.11,5.34-22.71-2.69-28.49-11.47-6.3-9.57-10.23-20.26-10.06-32.2.21-14.34,5.97-23.73,19.29-26.77,6.27-1.43,12.47.24,17.63,5.27.45.44,1.08.65,1.62.97v-7.06c-4.62-2.79-9.49-5.15-14.71-4.35Z"/>
  <path d="M25.46,399.73c-8.27-5.76-16.6-11.41-24.91-17.08-.14-.1-.36-.03-.55-.04v20.54c1.29,2.57,2.58,5.14,3.87,7.7h20.45c.78-1.86,1.55-3.73,2.35-5.59.97-2.26.58-4.28-1.21-5.53Z"/>
  <path d="M163.61,0c3.97,3.01,8.21,5.63,11.85,9.1,6.48,6.18,11.28,14.1,15.77,22.26,2.6,4.73,5.17,9.48,7.75,14.22v-20.54c-5.53-8.35-11.05-16.69-16.58-25.04h-18.79Z"/>
  <path d="M13.27,155.3c.12-2.95.44-5.89.53-8.84.5-15.98-3.41-30.41-11.52-43.3-.68-1.08-1.52-2.01-2.28-3.01v5.78c1.65,2.94,3.58,5.73,4.9,8.86,5.03,11.87,7.11,24.36,6.27,37.68-.59,9.37-1.51,18.6-4.59,27.28-1.75,4.92-4.36,9.43-6.58,14.13v6.42c4.13-4.2,6.41-9.8,8.21-15.58,2.95-9.48,4.65-19.31,5.06-29.42Z"/>
  <path d="M9.88,154.89c.58-8.56.05-17.14-2.18-25.41-1.77-6.56-3.69-13.1-7.7-18.42v5.14c5.27,9.22,7.6,19.57,8.23,30.43.48,8.36-.48,16.68-2.82,24.6-1.28,4.34-3.57,8.27-5.41,12.38v5.78c.55-.66,1.22-1.24,1.65-2,5.54-9.86,7.45-21.04,8.23-32.48Z"/>
  <path d="M6.11,141.43c-.8-7.24-2.82-13.92-6.11-20.1v7.06c.21.31.47.59.62.94,3.93,9.12,4.7,18.93,3.63,28.76-.54,4.99-2.78,9.74-4.25,14.6v7.06c1.29-2.93,2.81-5.75,3.83-8.79,3.2-9.56,3.39-19.46,2.28-29.52Z"/>
  <path d="M4.94,65.18c.23-9.95-1.33-19.51-4.94-28.58v35.95c2.84-.52,4.85-3.27,4.94-7.37Z"/>
  <path d="M0,136.74v28.25c3.68-9.42,3.41-18.83,0-28.25Z"/>
  <path d="M193.46,0c1.84,2.78,3.68,5.56,5.53,8.35V0h-5.53Z"/>
  <path d="M115.52,126.74c10.72.08,21.04-2.95,31.47-5.04,3.74-.75,7.55-1,11.3-1.68,8.07-1.46,15.79,1.13,23.63,2.52,5.2.92,10.39-3.72,9.89-8.42-.33-3.07-1.7-5.33-3.88-6.89-4.76-3.39-9.96-6.12-14.29-10.11-5.25-4.83-9.81-10.69-14.66-16.11-4.09-4.57-7.94-9.5-12.33-13.66-7.06-6.69-14.95-4.43-21.07,2.21-7.34,7.97-13.03,17.54-18.73,27.05-2.97,4.95-5.58,10.21-8.02,15.54-4.01,8.76.72,12.45,6.62,13.6,3.31.65,6.71.68,10.07.99ZM114.25,92.24c4.18-8.29,8.64-16.34,15.36-22.25,4.25-3.73,10.37-4.68,14.9-.87,7.65,6.44,12.89,14.91,16.29,24.97,1.75,5.18.27,9.2-4.1,11.87-10,6.11-20.73,9.02-33.89,9.92-1.9-.57-5.59-1.44-9.12-2.84-2.55-1.01-3.65-3.73-3.67-6.78-.04-5.23,2.04-9.67,4.24-14.03Z"/>
  <path d="M160.22,280.12c6.25-10.84,5.65-23.07.07-33.82-5.6-10.8-14.53-16-24.85-18.38-3.9-.9-7.83-1.58-11.35-2.28-2.19.39-3.93.49-5.56,1.04-2.73.91-3.58,2.64-2.69,5.72,1.11,3.85,2.21,7.76,3.8,11.36,4.39,9.97,8.74,20.01,13.71,29.59,2.14,4.13,5.51,7.6,8.8,10.69,6.49,6.11,13.8,3.51,18.08-3.92ZM156.37,265.01c-1.61,5.66-6.32,11.89-12.55,7.8-2.43-1.59-4.73-3.7-6.63-6.06-4.44-5.5-6.91-12.31-7.77-19.69-.59-5.05,1.2-8.46,5.8-9.67,3.26-.86,6.05.18,8.87,1.45,7.15,3.21,12.73,11.9,12.9,22.09-.11.79-.18,2.51-.62,4.08Z"/>
  <path d="M30.1,353.08c5.2-.49,10.27-6.22,11.4-12.21,2.29-12.2-7.11-22.4-17.23-21.18-6.76-.37-12.65,2.55-17.76,7.22-3.49,3.19-4.39,8.26.15,14.14,6.16,7.98,13.74,12.95,23.45,12.03Z"/>
  <path d="M89.65,78.82c4.91-4.16,9.13-9.61,13.09-15.05,4.18-5.75,7.98-11.93,11.42-18.32,5.5-10.22,2.66-20.87-6.19-27.01-4.62-3.21-9.55-4.06-14.63-2.33-4.56,1.55-7.64,5.64-9.8,10.26-4.77,10.2-9.15,20.65-11.16,32.16-.34,1.95-.5,3.94-.75,5.91-.14,4.52.61,8.79,3.06,12.23,4.2,5.89,9.59,6.7,14.96,2.14ZM82.61,60.24c1.66-6.68,3.92-13.22,6.43-19.55,1.75-4.43,4.78-7.64,8.39-7.95,5.36.01,8.75,5.03,7.39,10.03-2.65,9.71-7.86,17.38-14.67,23.71-1.74,1.62-4.12,2.65-5.42,1.05-1.42-1.74-2.64-5.19-2.12-7.28Z"/>
  <path d="M181.24,357.58c-2.6.06-5.04,3-4.87,6.34.27,5.24,2.82,8.72,6.37,9,2.66.21,4.65-2.92,4.64-6.81-.01-4.45-3-8.59-6.14-8.53Z"/>
  <path d="M129.86,104.7c6.02-.35,11.77-1.64,16.89-5.72,4.9-3.91,6.18-7.18,4.66-13.97-1.09-4.85-3.19-9.09-6.93-11.97-5.56-4.28-9.72-4.25-14.71.72-4.24,4.23-7.46,9.38-9.35,15.64-3.21,10.63.51,15.55,9.44,15.3ZM136.91,79.58c2.12.05,3.48,1.16,3.46,3.78-.01,2.66-2.51,5.27-4.93,5.22-1.85-.04-3.46-.48-3.36-3.33.11-2.97,2.36-5.68,4.82-5.67Z"/>
</svg>