<svg xmlns="http://www.w3.org/2000/svg" viewBox="0 0 840 1680" width="840px" height="1680px">
  <defs></defs>
  <g id="Calque_2" transform="matrix(1.05045, 0, 0, 1.074395, -163.0896, 86.007027)" style="">
    <g id="Calque_1-2" data-name="Calque 1"
      transform="matrix(0.872993, 0, 0, 0.90048, 344.166138, 603.332947)" style="">
      <g>
        <path class="cls-1"
          d="M55.8,32.52h-11.22l-1.22,3.62h-12.63L44.48,1.12h11.92l13.8,35.02h-13.24l-1.17-3.62ZM53.03,23.84l-2.72-8.4-2.82,8.4h5.54Z"
          style="fill: rgb(29, 29, 27);"></path>
        <path class="cls-1" d="M84.49,1.12v23.98h11.31v11.03h-23.52V1.12h12.2Z"
          style="fill: rgb(29, 29, 27);"></path>
        <path class="cls-1"
          d="M137.06,18.58c0,10.33-8.97,18.68-20.04,18.68s-20.09-8.36-20.09-18.68S105.85,0,117.02,0s20.04,8.31,20.04,18.58ZM109.13,18.68c0,4.18,3.47,7.37,7.89,7.37s7.84-3.24,7.84-7.37-3.47-7.46-7.84-7.46-7.89,3.14-7.89,7.46Z"
          style="fill: rgb(29, 29, 27);"></path>
        <path class="cls-1"
          d="M139.75,1.12h12.2v10.84h8.31V1.12h12.2v35.02h-12.2v-13.14h-8.31v13.14h-12.2V1.12Z"
          style="fill: rgb(29, 29, 27);"></path>
        <path class="cls-1"
          d="M199.6,32.52h-11.22l-1.22,3.62h-12.63L188.29,1.12h11.92l13.8,35.02h-13.24l-1.17-3.62ZM196.83,23.84l-2.72-8.4-2.82,8.4h5.54Z"
          style="fill: rgb(29, 29, 27);"></path>
        <path class="cls-1"
          d="M246.27,11.73c-2.06-1.31-5.07-2.06-7.93-2.06-1.03,0-2.02.38-2.02,1.08,0,.98,1.6,2.11,3.62,3.85,6.2,5.3,7.79,7.32,7.79,11.88,0,7.51-7.6,10.18-14.27,10.23-3.85,0-7.37-.47-9.81-1.78v-9.86c3,1.5,5.4,2.39,8.5,2.39,1.36,0,2.86-.42,2.86-1.22,0-1.13-2.21-2.63-5.12-4.93-5.73-4.41-6.99-6.66-6.99-10.8,0-5.26,4.88-10.09,14.08-10.09,2.82,0,6.48.19,9.29,1.64v9.67Z"
          style="fill: rgb(29, 29, 27);"></path>
        <path class="cls-1"
          d="M267.02,37.27c-10.42,0-16.57-6.06-16.57-17.84V1.12h12.2v20.04c0,3.1,2.06,5.26,4.36,5.26s4.37-2.16,4.37-5.26V1.12h12.2v18.31c0,11.78-6.15,17.84-16.57,17.84Z"
          style="fill: rgb(29, 29, 27);"></path>
        <path class="cls-1"
          d="M299.37,36.14h-11.83V1.12h13.28l8.45,11.5,8.12-11.5h12.91v35.02h-11.83v-9.01l.37-9.72-9.29,12.2h-1.17l-9.39-12.25.38,9.76v9.01Z"
          style="fill: rgb(29, 29, 27);"></path>
        <path class="cls-1"
          d="M346.09,36.14h-11.83V1.12h13.28l8.45,11.5,8.12-11.5h12.91v35.02h-11.83v-9.01l.38-9.72-9.29,12.2h-1.18l-9.39-12.25.38,9.76v9.01Z"
          style="fill: rgb(29, 29, 27);"></path>
        <path class="cls-1"
          d="M380.97,1.12h23.19v11.03h-10.98v2.11h9.72v8.68h-9.72v2.16h11.36v11.03h-23.56V1.12Z"
          style="fill: rgb(29, 29, 27);"></path>
        <path class="cls-1"
          d="M420.64,25.67h-.42v10.47h-12.16V1.12h12.48c6.81,0,16.48.47,16.48,12.86,0,3.76-2.16,6.57-5.07,8.5l8.5,13.66h-14.32l-5.49-10.47ZM420.22,11.12v6.94h1.03c2.44,0,3.94-.84,3.94-3.66s-2.16-3.28-3.94-3.28h-1.03Z"
          style="fill: rgb(29, 29, 27);"></path>
      </g>
      <g>
        <path class="cls-1"
          d="M150.84,72.82c-.02.1-.04.2-.06.3-.05.25-.1.5-.2.77-1.5,4.18-3.3,6.79-6.95,11.08-1.41,1.66-3,3.34-5.11,4.45-1,.52-2.31,1.12-3.63,1.16-.06,0-.11,0-.17,0-2.74,0-4.59-1.89-4.83-4.94-.18-2.23.16-4.53,1.03-7.01,0-.03.02-.05.03-.07-2.12,2.58-4.26,5.05-6.83,7.18-1.37,1.13-2.59,1.97-4.11,2.4-.47.14-.94.21-1.39.21-2.04,0-3.5-1.38-3.81-3.59-.21-1.52.02-3.08.69-4.62,1.84-4.2,4.8-7.41,8.81-9.55,1.63-.87,3.34-1.31,5.08-1.31,1.33,0,2.7.26,4.07.77,1,.38,2.12.94,2.84,2.23.11.19.11.42,0,.61-.08.15-.17.31-.26.46-.2.35-.4.71-.59,1.08-1.67,3.21-2.65,6.29-3,9.4-.15,1.29.02,2.46.49,3.49.43.93,1.04,1.4,1.82,1.4.26,0,.55-.05.84-.15,1.18-.41,2.27-.96,3.16-1.59,3.02-2.16,5.63-5.22,8.2-9.61.69-1.17,1.27-2.45,1.83-3.69.27-.58-.06.17.21-.41.16-.33.37-.77.88-1.11.11-.07.23-.1.35-.1.13,0,.25.04.36.11.21.15.31.41.25.66ZM131.75,73.47c-.48-.47-1.02-.7-1.63-.7h-.5c-1.1.02-2.24.03-3.22.33-3.46,1.04-6.25,3.3-8.31,6.72-.67,1.11-1.02,2.3-1.03,3.54-.01.97.2,1.7.62,2.11.26.26.61.4,1.03.4h0c.44,0,.95-.14,1.51-.42.92-.45,1.87-1.09,2.83-1.91.96-.81,1.89-1.76,2.78-2.81,1.5-1.78,2.93-3.55,4.45-5.43.49-.61.99-1.22,1.49-1.83Z"
          style="fill: rgb(29, 29, 27);"></path>
        <path class="cls-1"
          d="M187.24,39.13c.43,1.13-.04,1.8-.36,2.24-.03.04-.06.09-.1.14-.67.99-1.33,1.98-1.99,2.97-1.97,2.95-4.01,5.99-6.1,8.94-.42.59-.84,1.18-1.27,1.77-6.43,8.89-12.99,18.06-14.39,29.26-.21,1.68.03,3.17.66,4.73.4.98.68,1.77-.13,2.64-2.15,2.3-3.9-.55-3.61-4.33.56-7.49,4.85-15.91,4.92-16.1l-2.12,2.28c-.49.55-.98,1.1-1.47,1.65-1.25,1.42-2.55,2.88-3.88,4.28-2.33,2.45-4.45,4.56-6.46,6.44-1.01.94-2.21,1.79-3.57,2.51-.54.29-1.06.43-1.55.43-1.3,0-2.19-.98-2.34-2.57-.08-.92.06-1.94.4-2.88,2.23-6.02,6.11-10.56,11.53-13.47,1.65-.89,3.3-1.34,4.92-1.34,1.16,0,2.34.23,3.5.69l4.23-5.23,3.31-4.46c4.38-6.28,8.97-12.84,13.66-19.53.21-.3.46-.55.73-.83.13-.13.27-.27.41-.43.12-.13.29-.2.46-.2.04,0,.08,0,.12.01.21.04.39.19.47.39h0ZM161.24,72.38s-.05-.07-.2-.13c-.2-.07-.41-.11-.58-.11-.06,0-.12,0-.17.01-.27.06-.55.1-.82.15-.85.15-1.65.28-2.34.61-5.23,2.52-8.83,6.56-10.71,12.02-.14.41-.18.88-.23,1.38,0,.07-.01.14-.02.22.02,0,.04-.01.06-.02.37-.1.72-.2.98-.36,1-.63,2.17-1.4,3.24-2.3,3.3-2.78,6.19-6.07,8.99-9.27l.56-.64c.4-.45.77-.87,1.11-1.32.11-.15.12-.24.11-.25Z"
          style="fill: rgb(29, 29, 27);"></path>
        <path class="cls-1"
          d="M208.82,73.87c-5.48,1.64-7.63,2.11-11.87,1.44-.21-.03-.43-.03-.63.04-.27.1-.45.33-.62.56-2.54,3.26-5.44,6.24-8.63,8.87-2.48,2.04-5.21,3.9-8.31,4.75-1.98.55-4.41.54-5.76-1.01-1.24-1.43-1.08-3.59-.6-5.42,1.02-3.9,3.1-7.43,5.29-10.83.43-.66.9-1.36,1.61-1.68.91-.42,2.01-.14,2.86.4.62.4,1.21,1.06,1.08,1.78-.13.72-.87,1.12-1.49,1.53-1.84,1.21-3.05,3.15-4.18,5.04-1.2,1.99-2.42,4.09-2.57,6.41-.02.36-.01.75.18,1.07.33.53,1.05.65,1.68.64,2.75-.04,5.29-1.42,7.54-3,3.94-2.78,7.31-6.32,10.2-10.19-1.11-.55-1.72-1.94-1.39-3.13.33-1.19,1.56-2.06,2.8-1.98.7.05,1.4.42,1.7,1.05.53,1.14-.42,2.38-.59,3.62,5.58.69,6.46-.25,11.89-1.68.43-.11.92-.21,1.28.04.06.04.11.08.16.13.71.73-1.22,1.45-1.6,1.56ZM196.17,71.04s-.09-.07-.2-.09c-.04,0-.08,0-.12,0-.32,0-.61.21-.97.69-.14.2-.23.43.07.83.16.21.33.42.5.62.38-.45.52-1.07.69-1.75l.04-.15c.02-.07.02-.12,0-.14Z"
          style="fill: rgb(29, 29, 27);"></path>
        <path class="cls-1"
          d="M232.24,72.96l-.48.58c-.34.41-.67.82-1.01,1.23-3.89,4.84-7.16,7.95-11.82,11.4-2.07,1.53-4.6,3.16-7.67,3.68-.43.07-.9.11-1.39.11-.4,0-.83-.03-1.27-.07-1.29-.14-2.14-.96-2.83-1.72-2.3-2.52-1.98-5.3-1.28-7.91.09-.34.18-.68.27-1.02.13-.5.26-1.01.4-1.51.08-.28.23-.55.42-.78.27-.31.55-.62.83-.93.34-.38.69-.76,1.01-1.15,1.83-2.16,3.8-3.59,6.02-4.37.92-.32,1.73-.48,2.45-.48.07,0,.15,0,.22,0,1.31.06,2.43.74,2.98,1.82.54,1.07.45,2.35-.26,3.43-.48.74-1.2,1.46-2.14,2.13-2.15,1.55-4.72,2.47-7.87,2.82-.13.01-.26.02-.4.02-.38,0-.76-.06-1.13-.1-.08-.01-.16-.02-.24-.03-.9,2.17-.93,4.12-.1,5.96.61,1.33,1.47,1.92,2.81,1.92.22,0,.46-.01.71-.05,1.87-.25,3.52-1.06,4.88-1.81,3.61-1.99,6.64-4.8,9.14-7.27,1.65-1.64,2.21-2.29,3.78-3.98.74-.8,1.49-1.61,2.24-2.4.23-.25.58-.53,1.2-.53h0c.24,0,.46.14.57.36.11.22.08.48-.08.67ZM209.68,76.02c2.12-.43,4.28-1.67,5.31-2.86-1.92.23-3.59,1.13-5.31,2.86Z"
          style="fill: rgb(29, 29, 27);"></path>
        <path class="cls-1"
          d="M262.74,72.93c-.01.06-.03.12-.03.18-.03.18-.07.4-.17.62l-.41.84c-1.75,3.65-3.41,6.79-6.19,9.95l-.03.03c-.9,1.02-1.82,2.07-2.91,2.93-.89.71-1.98,1.29-3.07,1.63-.54.17-1.07.25-1.57.25-1.77,0-3.22-1-4.09-2.82-.94-1.97-1.25-4.18-.93-6.76.15-1.23.31-2.45.47-3.68.08-.63.17-1.26.25-1.89,0-.07,0-.14.01-.21v-.04c.02-.97-.17-1.31-.29-1.43-.06-.06-.15-.13-.37-.13-.27,0-.62.1-1.05.28-1.18.51-2.32,1.17-3.39,1.95-4.24,3.09-8.23,7.09-12.55,12.59-.23.29-.45.59-.67.88-.22.29-.44.58-.66.86-.44.56-.93.84-1.47.84-.29,0-.57-.08-.84-.25-.97-.59-.67-1.63-.52-2.13.11-.39.28-.75.44-1.1.04-.09.08-.18.12-.28,1.79-4.05,4.21-7.75,6.56-11.32.73-1.11,1.46-2.3,2.19-3.56.46-.8,1.18-1.21,2.13-1.21.04,0,.08,0,.12,0,1.19.04,2.01.47,2.51,1.33.56.96-.1,1.67-.45,2.06l-.05.05c-.32.35-.65.7-.98,1.05-.87.92-1.77,1.87-2.56,2.86h-.01c2.49-2.47,4.72-4.28,6.98-5.66,1.05-.65,2.11-1.12,3.13-1.41.41-.11.79-.17,1.13-.17.67,0,1.23.22,1.63.63.48.49.7,1.23.66,2.18-.05,1.42-.23,2.85-.39,4.24-.06.52-.13,1.04-.18,1.55l-.02.15c-.21,1.91-.41,3.72.17,5.47.23.7.52,1.3.86,1.79.67.97,1.4,1.41,2.29,1.41.44,0,.93-.11,1.46-.34,1.97-.82,3.44-2.32,4.73-3.81,2.19-2.52,3.58-4.83,5.24-8.13l.04-.09c.46-.91.93-1.85,1.63-2.72.12-.15.31-.24.49-.24.09,0,.18.02.27.06.26.13.41.42.34.7Z"
          style="fill: rgb(29, 29, 27);"></path>
        <path class="cls-1"
          d="M309.53,50.22c-.43.18-.91.15-1.38.13-7.16-.43-14.33-.94-21.49-1.12-1.93-.05-3.93-.1-5.89-.18-.04,0-.09,0-.13,0-.69,0-1.11.22-1.6.86-5.78,7.45-10.88,14.52-14.89,21.85-3.56,6.52-8.47,16.19-7,19.23.48,1,.73.56,1.46.43.64-.12,1.47.41,1.79.97.31.55.04,1.35-.21,1.73-.94,1.45-3.03,1.85-4.48,1.07-.52-.28-.96-.73-1.19-1.29-.34-.81-.23-1.81-.13-2.66.39-3.08,2.32-8.74,5.37-14.87,1.22-2.46,2.51-4.89,3.86-7.28,2.66-4.71,5.55-9.27,8.56-13.75.83-1.23,1.68-2.47,2.5-3.67.5-.73,1-1.46,1.5-2.19.09-.13.18-.27.27-.42-2.64-.12-5.43-.22-8.21-.22-4.71,0-8.68.28-12.41.9.13.42.27.87.28,1.33.17,5.33-8.29-.24-5.01-2.45,1.69-1.15,10.52-1.72,12.77-1.94,4.33-.42,8.68-.62,13.02-.54h.74c.68.01,1.08-.21,1.49-.81.4-.6.82-1.18,1.23-1.75.43-.59.87-1.19,1.27-1.8.26-.4.45-.9.5-1.32.13-1.02.76-1.66,1.7-1.71.08,0,.15,0,.23,0,.62,0,1.23.14,1.73.39.53.27,1.13.97,1.16,1.63.03.69-.62,1.36-1.06,1.65-1.35.86-2.36,2.05-3.44,3.31-.13.15-.25.29-.38.44h.05c.19,0,.38,0,.57,0,1.46.04,2.92.08,4.38.12,7.04.18,14.08.43,21.12.76.5.03,1.03.05,1.48.3.15.08.27.2.38.32.6.76.44,2.19-.5,2.58Z"
          style="fill: rgb(29, 29, 27);"></path>
        <path class="cls-1"
          d="M312.75,73.13c-.06.09-.11.18-.16.28-.13.22-.25.44-.41.66-3.6,5.12-7.04,8.45-12.37,12.44-1.35,1.01-3.18,2.23-5.36,2.73-.49.11-.97.17-1.43.17-2.48,0-4.36-1.63-4.9-4.24-.31-1.51-.23-2.97.25-4.35.36-1.03.78-2.05,1.19-3.04-2.58,2.61-5.35,5.27-8.44,7.5-1.7,1.22-3.58,2.41-5.85,2.8-.4.07-.79.1-1.17.1-2.97,0-5.04-2.09-5.16-5.19-.06-1.52.24-3.05.9-4.68,1.02-2.5,2.58-4.77,4.63-6.75.79-.76,1.65-1.15,2.55-1.15.36,0,.73.06,1.09.19.53.18,1.21.66,1.49,1.3.42.99-.43,1.57-.85,1.85l-.14.09c-3.09,2.16-4.94,4.82-5.66,8.15-.13.61-.16,1.25-.09,1.8.1.73.44,1.6,1.52,1.6.18,0,.38-.03.59-.07,1.27-.29,2.32-.7,3.12-1.22,1.91-1.23,3.52-2.43,4.92-3.69,1.61-1.43,3.19-2.96,4.72-4.44.87-.84,1.76-1.71,2.66-2.55.65-.61,1.31-1.18,2.01-1.78.32-.27.64-.55.97-.84.12-.1.27-.15.42-.15.03,0,.06,0,.08,0,.18.03.34.13.44.28.65.99.19,1.74-.05,2.14-.04.07-.08.13-.11.2-.3.58-.61,1.15-.91,1.72-.52.97-1.07,1.97-1.55,2.97-.42.87-.79,1.87-1.1,2.97-.21.75-.33,1.55-.34,2.3-.02,1.48.31,2.62.96,3.27.47.48,1.12.72,1.92.72.61,0,1.3-.14,2.07-.41,1.12-.39,2.27-.98,3.33-1.69,4.79-3.22,7.97-6.24,12.36-12.27.13-.18.27-.34.41-.49.06-.06.11-.12.17-.19.11-.13.27-.2.43-.22h.05c.15,0,.29.06.41.15l.27.24c.23.2.29.53.13.8Z"
          style="fill: rgb(29, 29, 27);"></path>
        <path class="cls-1"
          d="M336.98,75.26s-4.88,3.27-9.69,4.24c-4.74.96-2.86-4.6-2.81-4.78.01-.06.03-.11.04-.17.13-.64.26-1.3.2-1.97-.01-.17-.13-.22-.28-.22,0,0,0,0,0,0-1.65.08-3.11.68-4.48,1.49-1.32.79-2.56,1.63-3.65,2.71-1.77,1.77-3.3,3.77-4.83,5.75-.29.38-.56.79-.83,1.25-.19.32-.38.66-.61.98-1.19,1.68-2.78,3.9-4.42,6.11-.38.51-.9.91-1.43,1.1-.13.04-.28.07-.45.07-.42,0-1.01-.16-1.36-.52-.47-.47-.47-1.31-.36-1.72.13-.51.45-.93.72-1.3l.05-.06c.18-.24.35-.49.53-.73.62-.85,1.26-1.73,1.96-2.54,2.18-2.5,3.64-5.45,4.89-8.28l.13-.28c.59-1.33,1.16-2.59.81-4.05-.11-.48-.17-1.21.28-1.79.7-.9,1.41-.86,2.05-.86.6,0,1.25.2,1.84.57,1.18.73.94,2.69.46,3.72-.04.08-.08.17-.13.26.46-.38.93-.75,1.42-1.09,1.45-1.01,2.97-1.96,4.52-2.85.66-.37,1.48-.64,2.38-.77.18-.03.36-.04.54-.04.88,0,1.68.32,2.26.91.59.61.9,1.46.87,2.38-.02.65-.11,1.29-.23,1.91-.05.26-.1.51-.15.76h-.04c-.08.61-.04,1.43.61,1.97.79.65,8.04-1.95,8.92-2.46.87-.5.3.27.3.27Z"
          style="fill: rgb(29, 29, 27);"></path>
        <path class="cls-1"
          d="M358.67,72.96l-.48.58c-.34.41-.67.82-1.01,1.23-3.89,4.84-7.16,7.95-11.82,11.4-2.07,1.53-4.6,3.16-7.67,3.68-.43.07-.9.11-1.39.11-.4,0-.83-.03-1.27-.07-1.29-.14-2.14-.96-2.83-1.72-2.3-2.52-1.98-5.3-1.28-7.91.09-.34.18-.68.27-1.02.13-.5.26-1.01.4-1.51.07-.28.22-.55.42-.78.27-.31.55-.62.83-.93.34-.38.69-.76,1.01-1.15,1.83-2.16,3.8-3.59,6.02-4.37.93-.32,1.73-.48,2.45-.48.07,0,.15,0,.22,0,1.32.06,2.43.74,2.98,1.82.54,1.07.45,2.35-.27,3.43-.48.74-1.2,1.46-2.14,2.13-2.15,1.55-4.72,2.47-7.87,2.82-.13.01-.26.02-.4.02-.38,0-.76-.06-1.12-.1-.08-.01-.16-.02-.24-.03-.9,2.17-.93,4.12-.1,5.96.61,1.33,1.47,1.92,2.81,1.92.22,0,.46-.01.71-.05,1.87-.25,3.52-1.06,4.88-1.81,3.6-1.99,6.64-4.8,9.14-7.27,1.65-1.64,2.21-2.29,3.78-3.98.74-.8,1.49-1.61,2.24-2.4.23-.25.58-.53,1.2-.53h0c.24,0,.46.14.57.36.11.22.07.48-.08.67ZM336.12,76.02c2.12-.43,4.28-1.67,5.3-2.86-1.92.23-3.59,1.13-5.3,2.86Z"
          style="fill: rgb(29, 29, 27);"></path>
      </g>
      <g>
        <path class="cls-1"
          d="M461.64,579.27c-4.94-8.93-22.94-11.66-32.73-13.26-37.1-6.07-66.51-14.68-97.33-36.51-5.91-4.18-11.33-8.07-17.76-11.42l-34.92-18.16-31.14-19.76c-18.28-11.61-39.63-16.62-61-19.62-4.99-.7-8.99-1.81-13.74-3.97,2.97-2.16,5.59-3.32,8.84-3.85l35.56-5.87c22.26-3.68,43.27-11.55,61.94-24.08,12.43-8.35,22.8-18.29,33.4-28.63,6.68-6.52,14.73-9.91,24.18-9.57l29.99,1.05c19.61.69,39.17-3.89,55.48-15.09,10.69-7.34,18.93-17.32,25.47-28.29,9.68-16.26,12.06-34.77,7.55-53.01-1.29-5.24-2.05-10.79-6.72-14.19-5.33.22-1.26,16.18-6.97,30.95-4.65,12.07-11.36,22.96-19.3,33.04-6.5,8.25-14.22,14.46-22.91,20.05-11.55,7.44-24.43,9.58-37.85,6.19-17.36-4.38-33.16-8.71-49.9,2.83-4.44,3.06-9.06,5.93-12.85,9.68l-19.49,19.28c-24.68,24.43-49.74,31.74-82.95,39.82-15.68,3.81-29.62,10.04-42.88,19.24-1.28.89-2.52,3.73-2.17,5.13.33,1.3,2,3.37,3.59,4.18,10.68,5.4,21.67,8.86,33.11,12.7,25.86,8.68,26.53,15.08,44.05,32.14,20.16,19.65,37.11,28.07,63.37,37.07,30.93,10.6,27.44,20.39,67.19,28.15,16.79,3.29,33.15,4.23,50.57,6.45,15.32,1.95,29.5,3.01,44.37.6,1.29-.21,4.63-2.05,3.94-3.31ZM250.73,426.26c14.31-7.65,27.8-16.71,39.66-27.85,13.31-12.49,27.04-27.09,46.99-26.57l34.29.9c8.64.23,17.46-.11,25.49-3.28,15.01-5.95,26.84-16.92,36.14-29.79,9.69-13.39,15-28.24,15.66-44.86.14-3.35.77-6.8,1.42-9.88,8.2,29.2-9.19,60.64-31.07,78.46-10.22,8.33-21.94,12.73-34.93,13.56-14.85.94-29.25.79-44.09.38-16.13-.45-29.95,5.56-40.41,17.55-14.2,16.28-34.34,34.35-55.85,39.38l-17.35,4.05c7.51-6.24,16.02-7.77,24.05-12.06ZM417.3,576.22c-16.6-3.26-32.79-5.45-49.21-9.87-20.09-5.4-38.39-14.12-56.66-23.75-21.66-11.42-26.86-19.93-48.56-31.62-15.25-8.22-29.66-17.01-43.58-27.33-15.63-11.57-9.55-6.42-27.18-14.58,22.76.54,42.47,17.17,59.73,28.03l45.47,28.59c20,12.59,54.66,31.1,77.43,36.33l43.96,10.09c7.28,1.67,13.95,3.34,21.55,3.36,3.61,0,7.19.51,10.65,2.46-11.64,1.36-22.39.48-33.59-1.72Z"
          style="fill: rgb(29, 29, 27);"></path>
        <path class="cls-1"
          d="M176.98,199.96c-9.41-1.67-17.62-4.57-24.85-10.82-7.51-6.48-14.48-13.92-19.37-22.66l-10.13-18.13c-10.41-18.61-30.58-21.97-50.32-18.9-17.27,2.69-34.11,4.65-51.6,3.31-2.04-.16-4.36.59-5.13,2.22-1.85,3.88,5.48,7.98,8.63,9.51,21.72,10.59,36.07,7.95,58.6,19.36l32.29,16.35c3.73,1.88,14.52,7.43,12.89,11.56-.37.93-2.95,1.78-3.95,1.41-25.28-9.21-48.52,2.09-66.08,20.38-11.77,12.26-19.77,27.83-21.62,44.98-1.12,10.51-.08,20.57.92,30.93,1.56,16.01-1.63,31.44-9.39,45.4l-7.07,12.71c-5.72,10.27-10.31,20.6-12.58,32.26-7.22,37.1,2.94,51.61-3.65,82.72-.78,3.68-2.69,12.56.96,14.34,4.98,2.43,10.62-5.98,12.8-10.23,6.2-12.08,9.38-24.97,10.58-38.5,2.16-24.4,3.76-49.12,14.48-71.26,2.38-4.89,5.48-9.29,8.5-13.81,23.63-35.33.34-76.34,11.35-100.2,10.22-22.15,36.52-28.8,58.96-30.01l29.01-1.55c4.3-.23,30.18-3.67,25.79-11.38ZM121.59,174.06l-17.34-13.61c-24.06-18.89-37.96-10.93-64.43-19.4l11.41-.82c13.26-.95,27-.52,39.53,4.6,18.63,7.62,34.25,23.12,45.05,40.2-5.06-3.3-9.24-7.05-14.22-10.97ZM111.84,203.85c-15.79-.28-30.33,5.23-41.39,16.5-11.74,11.95-18.72,27.61-18.8,44.53l-.23,45.31c-.07,13.73-6.96,26.06-14.41,37.1-4.77,7.06-8.08,13.97-10.47,22.08-3.88,13.13-6.75,26.21-6.26,40.05.64,18.13,1.93,29.39-6.86,46.74-1.67-4.54-.55-8.36.35-12.57,2.01-9.55,3.8-19.4,2.48-29.24-1.78-13.26-.99-25.78,2.93-38.59,2.29-7.51,4.58-14.86,8.25-21.83l11.08-20.98c3.92-7.43,7.22-15.82,7.73-24.4.88-14.69,0-28.95-.54-43.51-.42-11.44,2.35-21.2,7.86-30.82,5.93-10.32,13.67-18.12,24.15-23.77,11.94-6.43,24.42-9.62,38.19-9.32,9.79.21,19.13.19,28.32,3.27l-32.39-.54Z"
          style="fill: rgb(29, 29, 27);"></path>
        <path class="cls-1"
          d="M293.76,579.06l50.44-2c5.76-.23,19.83,1.72,19.22,7.79-.52,5.18-14.9,5.21-19.26,4.99-13.54-.68-26.61-1.24-40.01-.22-8.17.62-2.92,9.63-10.38,10.39-2.91.3-6.44-.7-6.66-4.07l-.4-6.31c-12.41-2.83-22.27-7.85-31.61-17.71l-4.63,16c-.52,1.79-2.62,3.73-4.05,4.34-1.77.74-5.58.16-6.78-1.6-2.25-3.29-2.71-7.74-1.59-11.45l4.76-15.69c.83-2.73-.43-6.29-2.82-7.92-20.3-13.83-28.67-7.67-39.8-11.32-3.08-1.01-16.84-6.43-15.24-10.68,1.61-4.29,17.06-2.85,21.36-2.57,9.56.62,18.29,2.93,26.58,7.65,16.54,9.43,25.59-2.03,27.99,3.63.54,1.26-.14,4.28-1.49,4.84l-7.22,2.97c1.52,1.74,4.02,2.56,6.51,2.27l23.44-2.69c4.14-.48,16.3-.44,17.41,4.74.2.94-1.82,2.48-3.04,2.51l-15.35.37c-.54.01-1.78.77-2.14.94-.36.17,1.04,1.68,1.49,1.78,12.17,2.47,20.27.86,31.84,4.73,1.13.38,2.59,2.84,2.42,3.98-1.09,6.88-29.18,1.58-35.01.32-5.99-1.3-11.05-4.75-16.99-7.08,5.56,12.01,18.47,17.56,31.02,17.07Z"
          style="fill: rgb(29, 29, 27);"></path>
        <path class="cls-1"
          d="M84.31,501c-15.28,15.25-45.64,17.46-65.34,14.14-3.84-.65-8.77-1.82-10.87-5.03-1.19-1.83,2.87-3.41,4.47-3.29,21.16,1.55,46.05,2.81,63.17-10.8,3.66-2.91,9.39-10.87,6.34-14.41-.53-.61-2.73-.03-3.33.64l-6.03,6.62c-3.16,3.47-8.35,4.93-12.49,2.66-4.02-2.2-4.08-7.53-1.34-10.92l6.93-8.56c.67-.83.95-3.49.21-4.23s-3.2-1-4.18-.43c-10.82,6.26-7.31,27.18-21.47,30.07-9.39,1.92-16.75-10.69-16.11-21.06.5-8.1,2.45-16.04,6.34-23.17,5.39-9.88,12.61-18.29,21.58-25.07,22.06-16.66,51.28-10.62,68.71,10.9,8.93,11.03,13.45,23.8,13.13,38.18-.29,13.5-4.24,26.27-12.94,36.59-1.57,1.86-5.71,3.29-6.99.76-1.59-3.15.01-7.06,1.52-10.24,7.42-15.61,9.14-33.25,2.2-49.47-6-14.02-24.82-29.06-40.57-26.82-16.27,2.32-29.57,11.98-37.89,25.83-4.65,7.74-8,15.69-7.36,24.99.27,3.96,2.25,9.5,6.67,9.94,8.82.89,7.83-16.62,19.36-24.83,3.32-2.36,7.67-2.48,10.3.02,9.15,8.66-8.71,17.98-5.3,22.79.62.88,3.35.87,4.3.2,7.03-4.91,9-12.25,14.24-12.2,1.82.02,4.53,1.65,5.7,3.5,4.45,7.03,3.35,16.39-2.94,22.67Z"
          style="fill: rgb(29, 29, 27);"></path>
        <path class="cls-1"
          d="M20.1,596.85c-.36-5.11,7.45-8.04,6.37-11.01-1.5-4.11-22.49-2.17-23.17-9.88-.58-6.63,18.42-5.02,22.81-4.66,36.47,3.04,72.37,3.29,109.1,2.05,24.19-.82,47.36-2,71.18-4.68,5.87-.66,20.48-4.3,23.01,1.27.83,1.83-.01,5.49-2.06,6.67-3.63,2.1-7.88,3.39-12.32,3.75l-66.56,5.42c-26.33,2.15-52.12,2.31-78.51.69-25.37-1.56-28.38,11.11-42.88,13.97-2.46.48-6.74-.25-6.97-3.6Z"
          style="fill: rgb(29, 29, 27);"></path>
        <path class="cls-1"
          d="M48.87,194.38c-5.22,6.02-9.04,12.05-11.77,19.36-3.73,9.97-6.35,19.87-9.05,30.19-.43,1.65-2.83,4.45-4.4,3.51-9.07-14.8-8.08-43.16-5.23-59.87.41-2.43,2.34-7.1,1.01-9.14l-11.43-17.62c-2.52-3.88-7.66-15.54-2.64-18.27,1.22-.67,4.42.18,5.53,1.45l23.78,27.15c2.46,2.81,7.33,4.14,11.04,3.98l20.18-.84c3.76-.16,14.46.59,15.13,4.87.18,1.17-1.04,3.53-2.15,4.41-5.98,4.71-13.4,6.51-21.11,6.68-3.65.08-6.33,1.17-8.9,4.13Z"
          style="fill: rgb(29, 29, 27);"></path>
        <path class="cls-1"
          d="M429.02,423.12c-2.75,13.74-22.55,3.31-26.44,10.59,2.04,4.73,21.75-3.43,24.3,7.95.79,3.55-.65,7.25-3.89,9.63-10.36,7.62-29.79.32-40.37-5.94-1.02-.61-2.3-4.15-1.21-4.23,10.93-.78,22.45,9.32,36.53,3.46,1.01-.42,2.56-2.23,2.36-3.18-.2-.95-2.4-2.42-3.5-2.35l-11.98.73c-2.46.15-5.67-1.85-6.34-3.66-.85-2.29.35-6.21,3.1-7.42,10.88-4.76,19.07.97,20.78-5.87-1.13-1.54-5.64-2.08-7.83-1.29l-15.92,5.76c-5.17,1.87-13.79,3.73-17.34-1.4-4.77-6.9,4.21-22.41,19.62-24.21,14.46-1.68,28.79,2.79,40.1,11.83,4.8,3.84,7.86,8.77,9.78,14.54,10.82,32.63-11.93,41.53,16.96,80.48,1.11,1.5,1.84,4.8.08,5.92-6.62,4.2-19.48-18.43-22.07-23.17-4.09-7.48-5.17-15.27-3.98-23.81l3.36-24.04c3.14-22.45-20.06-36.8-42.03-35.6-8.19.45-17.84,7.72-16.48,13.01,1.63,6.34,22.57-6.53,35.26-5.18,4.03.43,7.94,3.48,7.14,7.47Z"
          style="fill: rgb(29, 29, 27);"></path>
        <path class="cls-1"
          d="M453.12,413.66c-4.81-7.24-17.71-21.37-27.55-18.25-6.69,2.12-21.13,2.31-20.93-3.39.16-4.54,7.07-7.2,11.25-8.36l14.68-4.1c4.06-1.13,7.53-4.67,9.38-8.57,3.75-7.91,6.46-15.75,9.53-23.95.87-2.31,3.1-5.25,6.09-3.33,6.1,3.92-1.22,25.04-3.14,32.08,7.13,10.76,11.66,22.42,14.35,35.33,1.02,4.9,3.41,17.24.18,20.43-.47.46-2.27-.5-2.66-1.09l-11.17-16.8Z"
          style="fill: rgb(29, 29, 27);"></path>
        <path class="cls-1"
          d="M385.77,502.2c-1.06,1.55-3.58,2.85-4.88,2.94-5.85.42-9.11-13.02-10.2-18.04l-4.2-19.38c-1.11-5.11.74-10.9,5.72-13.15,3.77-1.71,8.33-1.52,12.42-.83,7.64,1.29,12.8,7.6,12.43,15.61-.54,11.67-4.48,22.95-11.3,32.85Z"
          style="fill: rgb(29, 29, 27);"></path>
        <path class="cls-1"
          d="M357.19,508.67c-3.89,2.03-11.86-11.36-14.23-14.99-4.38-6.73-14.71-22.68-8.68-29.64,4.44-5.11,11.5-7.9,18.22-6.25,3.91.96,6.43,5.34,7.64,9.23,3.87,12.52,3.43,26.09-.12,38.72-.26.91-2,2.5-2.83,2.93Z"
          style="fill: rgb(29, 29, 27);"></path>
        <path class="cls-1"
          d="M199.64,550.57c3.69,17-67.85,21.74-68.11,10.08-.1-4.39,8.68-7.23,12.27-7.95l34.87-6.99c5.87-1.18,19.32-2.74,20.97,4.86Z"
          style="fill: rgb(29, 29, 27);"></path>
        <ellipse class="cls-1" cx="89.57" cy="274.58" rx="18.19" ry="18.2"
          style="fill: rgb(29, 29, 27);"></ellipse>
        <path class="cls-1"
          d="M472.53,440.88c16.01,2.22,13.59,54.27,3.28,57.01-9.94,2.65-19.41-29.58-12.28-49.93,1.38-3.94,4.64-7.68,9-7.08Z"
          style="fill: rgb(29, 29, 27);"></path>
        <path class="cls-1"
          d="M443.83,564.68c-11.09-.22-21-3.8-29.81-9.6-2.17-1.43-4.41-4.73-3.88-7.18,2.71-12.42,23.75-11.83,32.87-10.43,7.17,1.1,12.17,6.25,13.16,13.35,1.03,7.34-4.12,14.03-12.34,13.87Z"
          style="fill: rgb(29, 29, 27);"></path>
        <path class="cls-1"
          d="M211.12,499.35c-2.41-8.19-12.23-12.96-20.22-9.92-5.38,2.05-9.87,5.48-14.32,9.01-6.44,5.12-12.7,9.94-19.65,14.24-10.04,6.21-19.52,6.21-19.69,9.27-.03.66,1.59,2.37,2.32,2.55,20.03,4.95,50.55,6.07,66.11-9.09,4.26-4.15,7.24-10,5.46-16.05ZM202.39,508.79c-4.85,5.41-11.26,8.4-18.44,10.03-10.77,1.95-21.39,2.91-33.33,1.83,6.71-3.36,13.27-6.58,19.69-10.83l16.83-11.5c2.86-1.95,6.96-3.38,10.28-2.89,3.03.45,5.48,2.57,6.51,4.86,1.2,2.65.08,5.71-1.55,8.51Z"
          style="fill: rgb(29, 29, 27);"></path>
        <path class="cls-1"
          d="M342.24,522.41c-10.48-3.45-20.25-6.91-29.14-12.12-6.62-3.89-8.4-11.08-4.79-17.37,1.8-3.14,4.36-5.77,6.99-6.48,4.13-1.11,8.07-.41,11.22,2.1,6.7,5.34,25.63,23.41,21.69,31.81-.63,1.35-3.75,2.8-5.97,2.07Z"
          style="fill: rgb(29, 29, 27);"></path>
        <path class="cls-1"
          d="M362.35,512.06c-7.52,1.81-11.17,9.19-8.16,15.89,8.37,18.66,44.63,29.22,52.96,13.01,5.73-11.14-18.53-35.2-44.8-28.9ZM399.98,538.93c-3.8,8.32-32.74.33-39.24-13.73-1.3-2.81.4-5.99,3.37-6.5,21.26-3.68,39.1,13.15,35.87,20.24Z"
          style="fill: rgb(29, 29, 27);"></path>
        <path class="cls-1"
          d="M447.45,514.75c-.02,10.62-18.72,18.31-34.07,11.32-1.8-.82-3.53-2.85-3.85-4.3-.34-1.57.21-4.82,1.31-6.11,7.57-8.84,21.06-18.86,32-10.37,2.97,2.31,4.61,5.92,4.6,9.47Z"
          style="fill: rgb(29, 29, 27);"></path>
        <path class="cls-1"
          d="M419.32,497.71c-5.24,9.63-18.81,17.58-23.43,13.1-6.7-6.49,5.36-39.11,19.2-35.67,7.56,1.88,8.86,14.08,4.24,22.57Z"
          style="fill: rgb(29, 29, 27);"></path>
        <path class="cls-1"
          d="M119.54,569.12c-7.02-.28.56-15.29-15.72-18.66-11.96-2.48-23,4.42-24.88,16.81-.23,1.52-3.32,2.44-4.59,2.02-1.43-.47-3.08-2.86-2.96-4.9.7-12.24,10.21-21.36,22-23.34,9.06-1.52,18.14.15,24.63,6.62,4.9,4.89,8.12,11.56,5.98,18.32-.55,1.73-3.05,3.18-4.45,3.13Z"
          style="fill: rgb(29, 29, 27);"></path>
        <path class="cls-1"
          d="M66.22,561.99c-2.21,8.43-41.61,2.18-49.53.81-2.07-.36-4.1-2.81-4.21-4.46-.47-7.22,12.52-6.89,17.88-6.77,6,.14,38.41.68,35.85,10.42Z"
          style="fill: rgb(29, 29, 27);"></path>
        <path class="cls-1"
          d="M163.72,479.2c-.91-3.6-4.4-6.65-8.2-5.75-3.75.88-7.68,3.59-9.6,6.99-8.42,14.82-7.04,20.84-16.69,35.73-5.15,7.95,15.42-.83,27.82-14.57,5.57-6.19,8.72-14.31,6.67-22.39ZM137.49,510.4c1.93-4.54,13.88-37.4,20.52-29.94,2.44,10.09-12.18,24.68-20.52,29.94Z"
          style="fill: rgb(29, 29, 27);"></path>
        <path class="cls-1"
          d="M288.74,133.98c-8.38-2.86-18.45,1.09-22.78,8.87-2.81,5.05-2.67,10.3.03,15.12,2.34,4.16,6.82,7.28,12.64,7.23,8.96-.07,15.94-5.99,18.71-14.14,2.48-7.31-.98-14.48-8.59-17.08ZM289.22,151.77c-3.13,3.92-8.32,6.63-13.32,4.72-4.75-1.82-6.57-8.44-3.55-12.55,4.1-5.62,12.73-6.52,17.56-1.51,2.47,2.56,1.3,6.84-.69,9.34Z"
          style="fill: rgb(29, 29, 27);"></path>
        <path class="cls-1"
          d="M130.94,285.65c-7.31-1.36-13.03-7.66-11.62-15.1.98-5.16,6.34-8.76,10.63-9.76,5.42-1.27,10.74.56,14.24,4.79,3.57,4.31,3.37,10.06.66,14.38-2.83,4.51-7.93,6.81-13.91,5.7Z"
          style="fill: rgb(29, 29, 27);"></path>
        <path class="cls-1"
          d="M4.57,269.34c12.38-5.29,20.41,35.04,7.91,37.83-2.46.55-6.37-.88-7.61-3.77-3.39-7.93-8.87-30.4-.3-34.06Z"
          style="fill: rgb(29, 29, 27);"></path>
        <path class="cls-1"
          d="M474.96,257.29c-.69-3.34-3.82-4.88-7.38-3.54l-7.76,2.93c-1.47-3.15,5.61-4.79,3.57-10.21-.72-1.89-3.12-3.24-5.64-2.98-1.78.17-3.8,2.51-4.29,4.82-2.03,9.58-4-1.26-10.7,1.82-1.65.76-3.38,3.36-3.18,5.48l7.35,2.32c-1.97,4.27-7.04,2.91-7.91,6.04-.7,2.55,4.7,5.43,7.52,3.99,3.53-1.8,1.61-3.19,5.47-5.17,2.42-1.24-1.21,8.25,5.2,11.77,1.12.62,3.57.75,4.51.09.94-.67,1.53-3.58,1.07-4.66l-2.98-7.02,9.72.71c4.03.29,6.03-3.51,5.44-6.37ZM453.75,259.54c-.85,0-1.54-.69-1.54-1.54s.69-1.54,1.54-1.54,1.54.69,1.54,1.54-.69,1.54-1.54,1.54Z"
          style="fill: rgb(29, 29, 27);"></path>
        <path class="cls-1"
          d="M243.51,131.5c-4.26-3.94-10.39-4.87-16.4-2.86-4.08,1.37-8.99,4.71-10.58,10.08-1.3,4.44.06,9.95,3.36,13.16,5.26,5.11,12.9,5.86,19.73,3.02,4.91-2.04,7.78-6.09,8.53-10.06.97-5.14-.92-9.88-4.66-13.34ZM239.04,144.83c-3.41,5.47-11.32,5.51-15.5,1.18-2.6-2.69-2.14-6.24.58-8.57,3.37-2.92,8.43-3.4,12.46-1.4,3.18,1.59,4.64,5.3,2.46,8.79Z"
          style="fill: rgb(29, 29, 27);"></path>
        <path class="cls-1"
          d="M247.69,157.48c-8.66,0-15.69,7.03-15.69,15.69s7.03,15.69,15.69,15.69,15.68-7.03,15.68-15.69-7.02-15.69-15.68-15.69ZM254.54,178.41c-2.75,3.44-7,5.28-11.2,3.66-3.41-1.31-6.52-5.41-5.48-9.76,1.28-5.36,6.47-8.51,12.36-7.49,3.13.54,5.57,2.84,6.39,5.13,1.05,2.93-.1,5.99-2.08,8.46Z"
          style="fill: rgb(29, 29, 27);"></path>
        <path class="cls-1"
          d="M302.93,356.21c-3.4-6.71-6.38-1.42-15.51-1.08-1.19.05-.18-3.42.71-4.13l6.47-5.13c-2.9-2.47-4.93-4-6.61-6.74,2.58-4.27,9.18,2,10.35-2.15,1.28-4.54,2.13-8.48,5.56-12.32,3.92,7.4-2.34,13.74,3.71,15.67l10.61,3.39c.45.14,1.46,1.26,1.76,1.57.4.41-.95,2.04-1.51,2.15l-9.38,1.77,2.39,13.28c.15.85-.9,2.89-1.61,3.1-.71.21-2.45-.56-2.8-1.24l-4.13-8.16Z"
          style="fill: rgb(29, 29, 27);"></path>
        <path class="cls-1"
          d="M64.56,413.67l-10.83-2.67c-4.17,4.72-4.76,11.09-8.65,12.66-.8.32-2.41-1.98-2.22-2.9l2.55-12.5c-4.42-2.54-7.6-.32-10.98-3.35-.56-.5.95-2.58,1.83-2.85l12.57-3.78.08-12.28c0-.43.29-1.59.65-1.59h2.18s4.58,12.94,4.58,12.94l6.33-1.42c.62-.14,2.27.29,2.79.61.66.4.01,2.59-.58,3.13l-5.4,4.8,6.99,5.07c.78.57,1.58,2.4,1.39,3.18s-2.33,1.19-3.28.95Z"
          style="fill: rgb(29, 29, 27);"></path>
        <path class="cls-1"
          d="M63.43,540.55c1.5,1.11,2.04,4.29,1.7,5.67-1.56,6.47-31.69-6.22-36.57-8.39-1.4-.63-2.77-3.33-3.05-4.66-.28-1.33.79-4.3,2.34-4.95,9.3-3.93,27.51,6.4,35.58,12.33Z"
          style="fill: rgb(29, 29, 27);"></path>
        <path class="cls-1"
          d="M324.64,128.84c-5.15-1.65-11.4.23-14.15,4.67-1.52,2.45.58,6.65,3,7.79l15.94,7.55c7.96,3.77,13.61,9.94,21,16.56,1.51-16.66-10.43-31.64-25.78-36.57ZM325.86,142.71c-4.12-1.93-8.14-4.06-11.97-6.48,2.61-4.44,6.2-3.4,10.11-2.82,9.38,3.86,17.44,11.16,21.13,21.7-6.17-4.93-12.17-9.18-19.27-12.39Z"
          style="fill: rgb(29, 29, 27);"></path>
        <path class="cls-1"
          d="M178.5,283.51c-1.86,3.55-5.32,5.99-8.2,6.5-4.41.78-8.32-.47-10.84-4.03-2.59-3.64-2.34-8.23-.04-12.43,1.6-2.93,5.27-5.97,9.7-5.91,3.75.05,7.62,1.83,9.34,4.49,2.13,3.33,2.1,7.46.05,11.38Z"
          style="fill: rgb(29, 29, 27);"></path>
        <path class="cls-1"
          d="M375.28,304.39c-6.29-.58-10.63-2.41-16.19-6.05-2.52,11.99.2,25.35,12.04,30.81,3.33,1.53,6.55-1.79,7.27-5.16l2.08-9.89-5.2-9.72ZM370.16,315.32c.91,0,1.65.74,1.65,1.65s-.74,1.65-1.65,1.65-1.65-.74-1.65-1.65.74-1.65,1.65-1.65ZM367.62,313.22c-.91.06-1.17-3.45-.07-3.68,1.71-.37,1.14,1.75.07,3.68ZM367.92,304.84l.5,2.6-2.7.53-.51-2.6,2.71-.53ZM362.66,308c.83.44,1.95,1.36,2.46,2.06.69.95-.66,3.98-1.81,3.72-2.35-.52-2.14-4.1-.65-5.78ZM363.36,315.91c0-.8.66-1.45,1.46-1.45s1.46.65,1.46,1.45-.65,1.46-1.46,1.46-1.46-.65-1.46-1.46ZM364.57,319.74l1.37-2.06,2.85,1.88-1.36,2.07-2.86-1.89ZM371.1,326.17l-2.83-3.59,1.89-1.5,2.83,3.59-1.89,1.5ZM374.62,314.13c-.62,0-1.12-.51-1.12-1.13s.5-1.12,1.12-1.12,1.12.5,1.12,1.12-.5,1.13-1.12,1.13Z"
          style="fill: rgb(29, 29, 27);"></path>
        <path class="cls-1"
          d="M112.48,564.65c.09,7.01-27.06,9.58-29.38,2.2-.62-1.98.16-5.46,1.69-6.96,3.54-3.47,8.39-4.27,13.33-4.52,7.15-.35,14.28,2.49,14.37,9.27Z"
          style="fill: rgb(29, 29, 27);"></path>
        <path class="cls-1"
          d="M205.57,427.6c-4.76,3.02-11.01,3.03-14.61-1.19-2.26-2.65-2.96-6.51-1.59-10.01.95-2.43,4.08-5.62,7.26-6.61,5.18-1.62,10.65.29,12.76,4.91,1.96,4.3.93,9.88-3.82,12.9Z"
          style="fill: rgb(29, 29, 27);"></path>
        <path class="cls-1"
          d="M473.82,528.46c1.8,6.52-1.98,12.6-8.06,13.64-3.99.68-7.84-1.37-9.93-4.21-2.39-3.26-3.29-7.77-.86-11.47,2.07-3.15,6.11-4.59,9.67-4.32,3.45.27,8.02,2.18,9.18,6.36Z"
          style="fill: rgb(29, 29, 27);"></path>
        <path class="cls-1"
          d="M73.77,444.23c-3.11,0-4.1-5.17-8.75-5.48l2.38,6.98-2.87,5.88c3.48-.78,5.51-1.84,8.21-3.56,7.16,5.96,16.49,7.94,24.89,2.15l.86-3.2c-5.93-7.93-17.07-8.74-24.72-2.77ZM94.1,446.97l-1.28.49c-.45.18-1.6-1.3-1.12-1.4l1.94-.39c.32-.07.77,1.19.46,1.3Z"
          style="fill: rgb(29, 29, 27);"></path>
        <path class="cls-1"
          d="M385.98,402.41c-2.81,4.05-7.68,5.86-11.92,3.72-5.32-2.69-6.49-9.2-3.32-14.19,2.78-4.38,10.2-5.82,14.43-1.76,3.36,3.23,3.53,8.3.81,12.23Z"
          style="fill: rgb(29, 29, 27);"></path>
        <path class="cls-1"
          d="M148.09,530.26c5.99,8.17-21.02,21.3-24.47,17.02-.64-.8-.8-3.66-.11-4.45,3.95-4.54,19.23-19.88,24.58-12.57Z"
          style="fill: rgb(29, 29, 27);"></path>
        <path class="cls-1"
          d="M89.73,504.82c8.85-1.08,10.11,26.62,3.06,27.76-7.16,1.15-10-26.91-3.06-27.76Z"
          style="fill: rgb(29, 29, 27);"></path>
        <path class="cls-1"
          d="M157.76,308.82c3.17,6.11-21.69,33.72-24.51,27.23-2.48-5.71,22.53-31.03,24.51-27.23Z"
          style="fill: rgb(29, 29, 27);"></path>
        <path class="cls-1"
          d="M70.13,518.14c3.64,4.26,11.27,16.32,6.6,20.38-1,.87-3.94.78-5.21-.12-7.85-5.6-14.25-18.51-7.72-21.63,1.72-.82,4.84-.38,6.33,1.37Z"
          style="fill: rgb(29, 29, 27);"></path>
        <path class="cls-1"
          d="M145.65,301.36c-3.63,7.04-13.99,22.96-20.98,27.67-1.7-.92-1.96-3.81-1.12-5.78,4.01-9.4,10.45-18.34,17.79-25.22.72-.68,3-.93,3.67-.44.67.5,1.08,2.92.65,3.77Z"
          style="fill: rgb(29, 29, 27);"></path>
        <path class="cls-1"
          d="M234.3,455.92c.63,5.06-9.4,9.6-17.93,6.18-2.02-.81-3.78-3.64-3.84-5.49-.08-2.09,1.64-4.7,3.72-5.76,6.91-3.51,17.4-.19,18.06,5.06Z"
          style="fill: rgb(29, 29, 27);"></path>
        <path class="cls-1"
          d="M351.82,126.05c-2.34-.11-5.67,1.35-6.94,3.71-1.62,3.03-.11,6.69,1.73,9.2l9.96,13.66c.76,1.04,3.66,2.17,4.2.83,4.3-10.51,1.98-26.86-8.95-27.39ZM358.49,150.39c-2.24-3.31-14.33-16.48-9.42-19.22,3.92-.7,6.1,1.32,7.83,4.34,1.92,4.45,2.92,8.85,1.59,14.88Z"
          style="fill: rgb(29, 29, 27);"></path>
        <path class="cls-1"
          d="M371.49,355.07c-1.63.35-4.19-1.04-6.24-2.84-6.05,4.52-13.15,6.1-20.05,2.06-1.22-.72-2.71-3.16-1.68-4.32,5.64-6.39,14.55-5.73,20.76-.87l6.52-4.76c-1.11,4.85-1.62,5.8.69,10.74Z"
          style="fill: rgb(29, 29, 27);"></path>
        <circle class="cls-1" cx="176.1" cy="394.5" r="8.31" style="fill: rgb(29, 29, 27);"></circle>
        <path class="cls-1"
          d="M121.91,293.42c4.77-2-.98,26.71-8.91,31.31-.63.37-2.18-1.83-2.02-2.62,1.22-5.86,6.04-26.64,10.92-28.69Z"
          style="fill: rgb(29, 29, 27);"></path>
        <path class="cls-1"
          d="M110.73,475.66l-4.38-4.37c-6.69,1.83-17.24-3.76-16.47-8.59.13-.81,1.93-1.89,2.75-2.05,6.69-1.34,12.25,1.96,14.9,7.86,2.61-.82,4.64-1.36,7.14-1.73-2.56,3.23-3.8,4.48-3.93,8.88Z"
          style="fill: rgb(29, 29, 27);"></path>
        <path class="cls-1"
          d="M421.38,321.3c-1.29,6.9-7.94,14.24-14.77,12.33-1.76-8.05,5.69-14.26,12.87-14.39l1.34-7.43c1.69,4.26,2.23,5.5,6.9,7.21l-6.35,2.28Z"
          style="fill: rgb(29, 29, 27);"></path>
        <path class="cls-1"
          d="M396.62,349.96c-2.74,6.09-11.73,11.16-17.48,7.16-.25-6.57,7.45-11.08,13.52-9.78,4.87,1.04,3.03-4.66,6.59-5.67-.13,4.41.27,5.29,4.02,8.09-1.62.35-3.56.36-6.66.2Z"
          style="fill: rgb(29, 29, 27);"></path>
        <path class="cls-1"
          d="M394.57,333.7c-3.22,5.69-11.95,10.66-17.35,6.41-.29-6.49,8.07-11.02,14.14-9.16,4.08,1.25,2.74-4.75,6.05-6.08-.28,4.79.48,5.83,4.33,8.83h-7.17Z"
          style="fill: rgb(29, 29, 27);"></path>
        <path class="cls-1"
          d="M84.89,301.56c.84,2.85,7.46,27.31,1.68,27.85-2.87-4.48-10.65-29.1-4.96-30.22.97-.19,2.97,1.34,3.27,2.37Z"
          style="fill: rgb(29, 29, 27);"></path>
        <path class="cls-1"
          d="M18.27,327.78c-.77,1.83-3.05,3.41-4.48,3.44-5.63.13-6.96-7.73-6.38-12.76.39-3.34,4.37-5.95,7.35-4.05,4.26,2.71,5.6,8.4,3.5,13.37Z"
          style="fill: rgb(29, 29, 27);"></path>
        <path class="cls-1"
          d="M121.58,523.18c.53,6.77-6.64,13.83-10.82,12.83-3.8-.91-2.85-11.99,5.22-16.52.8-.45,3.23-.39,3.94.04.86.52,1.56,2.32,1.67,3.64Z"
          style="fill: rgb(29, 29, 27);"></path>
        <path class="cls-1"
          d="M99.39,298.95c5.83-.89,2.57,29.14-.89,26.17-4.11-3.53-3.72-25.47.89-26.17Z"
          style="fill: rgb(29, 29, 27);"></path>
        <path class="cls-1"
          d="M66.33,318.3c5.41-1.24,12.82,14.85,10.88,18.23-2.34,4.08-16.69-16.9-10.88-18.23Z"
          style="fill: rgb(29, 29, 27);"></path>
        <path class="cls-1"
          d="M31.28,308.91c.74,4.14-.93,7.14-4.56,7.4-3.21.22-6.03-2.33-6.14-6.27-.09-3.14,1.68-6.06,4.49-6.51,3.1-.49,5.55,1.7,6.21,5.38Z"
          style="fill: rgb(29, 29, 27);"></path>
        <path class="cls-1"
          d="M19.98,253.13c1.9,2.61.65,6.01-1.29,7.8-1.72,1.58-5.33,2.46-7.31.47-2.18-2.19-1.51-6.06.29-8.2,1.78-2.12,5.96-3.29,8.31-.06Z"
          style="fill: rgb(29, 29, 27);"></path>
        <path class="cls-1"
          d="M21.58,275.72c-3.06-3.23-1.11-9.05,3.1-9.89,2.61-.52,4.92,1.46,5.67,3.59.7,2,0,4.69-1.26,6.1-1.78,1.96-5.49,2.32-7.5.2Z"
          style="fill: rgb(29, 29, 27);"></path>
        <circle class="cls-1" cx="28.09" cy="292.07" r="5.55" style="fill: rgb(29, 29, 27);"></circle>
        <path class="cls-1"
          d="M207.33,455.49c.5,1.3-.28,3.84-1.24,4.45-1.19.76-3.9,1.53-5.48,1.41-2.46-.2-4.86-2.13-5.25-4.01-.5-2.39,1.03-5.18,3.75-5.71,2.94-.58,6.88.39,8.21,3.86Z"
          style="fill: rgb(29, 29, 27);"></path>
        <path class="cls-1"
          d="M407.85,314.1c-4.44.25-7.87-3.29-8.94-6.85,3.24-1.15,5.25-2.04,8.2-3.94,1.23,2.65,1.55,6.55.74,10.78Z"
          style="fill: rgb(29, 29, 27);"></path>
        <path class="cls-1"
          d="M55.19,364.63c-2.19,3.58-11.06-2.77-8.27-6.04,2.12-2.49,9.35,2.36,8.27,6.04Z"
          style="fill: rgb(29, 29, 27);"></path>
        <circle class="cls-1" cx="394.23" cy="390.59" r="3.64" style="fill: rgb(29, 29, 27);"></circle>
        <path class="cls-1"
          d="M66.94,344.21c-3.64,2.01-9.14-3.01-8.52-7.65,3.67.12,7.73,2.67,8.52,7.65Z"
          style="fill: rgb(29, 29, 27);"></path>
        <path class="cls-1"
          d="M60.35,353.4c-4.46,1.03-8.61-2.03-9.27-6.6,4.28-1.36,7.72,2.3,9.27,6.6Z"
          style="fill: rgb(29, 29, 27);"></path>
        <path class="cls-1"
          d="M355.7,333.59c-2.01-8.75-7.09-15.57-14.36-20.56l-18.62-12.8-16.76-12.3c-21.22-15.57-22.39-14.35-40.21-35.07-2.44-2.83-1.14-6.9,1.48-9.27,7.75-7,14.24-14.47,20.85-22.6l16.68-20.47c8.3-10.18,19.69-28.49,22.74-41.05,1.04-4.29-1.67-7.7-5.97-8.34-5.3-.79-10.7,1.05-15.28,4.34l-44.4,31.88c-5.57,4.01-11.55,6.7-17.97,8.85-7.1,2.38-14.09-.2-18.15-6.68-5.96-9.54-10.5-19.66-15.03-30.08-3.19-7.33-13.73-29.87-22.98-27.17-5.84,1.7-5.49,11.21-4.92,16.51,1.4,13.18,3.51,25.7,5.72,38.74,1.11,6.61,1.78,13.14,1.35,19.6-.35,5.22-3.26,8.76-8.36,9.83-6.86,1.42-13.69,2.09-20.82,2.57-20.78,1.38-41.05,3.49-61.39,7.84-6.08,1.29-19.41,5.39-19.75,12.19-.52,10.28,31.69,13.31,39.52,14.32l51.2,6.63c7.16.93,17.51,5.65,15.68,14.82-1.81,9.01-4.86,17.35-8.95,25.68-8.59,17.5-16.54,34.74-23.73,52.93-3.15,7.96-7.55,24.09-5.05,32.12,1.2,3.89,5.26,5.84,8.88,3.82,8.85-4.94,17.93-21.37,22.1-30.7,10.89-24.34,28.52-24.62,38.05-58.15,1.21-4.27,5.51-21.22,12.24-15.94,8.78,6.9,18.32,11,27.73,16.13,9.66,5.26,18.72,8.95,29.44,11.8,8.51,2.25,16.23,7.19,24.1,11.09,7.95,3.93,15.48,7.31,23.75,10.35,4.82,1.77,18.37,7.97,20.8,3.38.47-.9.65-3.05.38-4.22ZM308.43,164.45c1.51,0,2.73,1.22,2.73,2.72s-1.22,2.73-2.73,2.73-2.73-1.22-2.73-2.73,1.22-2.72,2.73-2.72ZM109.93,237.56c-.56,1.17-2.64,2.38-4.51,2.59-2.19.25-4.44-.99-5.28-2.75-.74-1.55-.22-4.77,1.66-5.77,2.14-1.15,5.15-.76,7.48,1.02.93.71,1.15,3.86.65,4.92ZM129.02,245.48c-2.12,0-3.84-1.72-3.84-3.84s1.72-3.83,3.84-3.83,3.84,1.72,3.84,3.83-1.73,3.84-3.84,3.84ZM159.25,245.87c-2.51.68-6.51-.48-7.77-3.52-1.74-4.22.97-7.82,4.91-9.01,3.43-1.02,7.72.18,8.17,4.57.42,4.1-1.9,7.03-5.32,7.96ZM172.66,341.61c-1.44,0-2.6-1.16-2.6-2.6s1.16-2.61,2.6-2.61,2.61,1.17,2.61,2.61-1.17,2.6-2.61,2.6ZM299.72,181.26c2.38,0,4.3,1.92,4.3,4.3s-1.92,4.3-4.3,4.3-4.3-1.92-4.3-4.3,1.92-4.3,4.3-4.3ZM279.53,182.56c1.59-2.09,4.46-2.81,6.42-1.87,2.53,1.2,3.52,3.89,2.54,6.9-1.22,3.74-5.01,6.04-8.27,3.99-3.03-1.9-2.77-6.27-.69-9.01ZM196.8,157.02c1.61-2.47,5.07-2.79,7.25-1.74,2.7,1.3,4.76,4.56,3.35,7.94-1.53,3.67-5.72,3.88-8.36,1.98-2.34-1.68-4.27-5.08-2.25-8.19ZM203.53,198.4c0,1.24-1.01,2.26-2.26,2.26s-2.25-1.02-2.25-2.26,1.01-2.26,2.25-2.26,2.26,1.02,2.26,2.26ZM199.06,182.2c2.11,0,3.82,1.72,3.82,3.83s-1.71,3.82-3.82,3.82-3.82-1.72-3.82-3.82,1.71-3.83,3.82-3.83ZM186.07,296.46c.41-3.91,2.84-7.35,6.5-9.15,1.33-.65,4.31-.09,5.41.74,1.14.86,2.6,3.41,2.55,5.05-.18,5.72-5.91,12.01-10.92,9.84-2.24-.97-3.83-3.71-3.53-6.48ZM196.55,322.28c-2.91,0-5.28-2.36-5.28-5.27s2.37-5.28,5.28-5.28,5.27,2.36,5.27,5.28-2.36,5.27-5.27,5.27ZM276.95,290.21c-3.88,4.29-26.42-12.3-30.94-15.65l-16-11.88c-6.68-4.95-11.16,6-13.52,10.95-1.92,4.07-7.4,12.4-12.08,11.33-3.89-.89.44-11.77,1.62-14.5,3.23-7.49,9.21-22.71-1.28-26.68-5.15-1.95-10.3-3.57-15.65-5.23-3.06-.95-5.87-2.43-7.18-5.32,8.06-6.92,17.66-1.7,28.43-6.42,3.23-1.42,4.7-6.05,4.42-9.47l-1.26-15.29c-.1-1.19,1.46-3.45,2.42-3.88.97-.41,3.25.51,3.89,1.37l7.69,10.36c2.75,3.71,6.54,7.38,11.13,8.68,6.2,1.75,12.15-.73,17.01-4.41,3.98-3.02,15.93-12.6,19.87-9.99,7.64,5.05-18.55,29.46-22.89,33.59-3.96,3.77-5.86,8.64-4.1,14.2,2.35,7.42,6.55,14.35,12.25,19.88l15.54,15.1c.61.59,1.18,2.67.65,3.27ZM296.05,300.14c-.99.85-3.81,1.2-4.92.41-3.9-2.76-5.77-7.93-2.98-11.89,1.24-1.76,4.86-1.77,6.57-.54,3.38,2.42,4.33,9.43,1.33,12.02ZM309.24,309.97c-2.23,0-4.05-1.82-4.05-4.05s1.82-4.04,4.05-4.04,4.04,1.81,4.04,4.04-1.81,4.05-4.04,4.05ZM327.5,324.82c-1.49,0-2.7-1.21-2.7-2.71s1.21-2.7,2.7-2.7,2.71,1.21,2.71,2.7-1.21,2.71-2.71,2.71Z"
          style="fill: rgb(29, 29, 27);"></path>
        <path class="cls-1"
          d="M139.16,358.5c-1.01-17.31-16.64-29.79-33.7-28.06-4.35.43-8.83,1.04-12.62,2.84-15.85,7.52-35.25,25.52-32.83,45.03,1.68,13.4,16.9,19.57,26.77,25.42,9.97,5.91,23.99,15.02,35.16,4.4,3.69-3.51,6.42-7.78,8.19-12.87.8-2.32.14-7.85-2.47-9.22-5.21-2.71-11.16-3.5-16.59-3.37-13.66.34-14.61,13.39-21.17,16.26-1.64-9.2,4.52-19.09,13.72-21.16,6.76-1.52,23.75.34,29.61,7.99,4.22-8.29,6.47-17.77,5.92-27.26ZM136.55,362.51c-.82,3.24-5.24-18.11-24.73-16.36-14.95,1.34-26.46,5.55-33.71,18.84-4.36,7.98-6.14,15.81-6.42,25.31-5.99.83-2.76-19.58-2.02-22.39,1.92-7.27,6.12-13.94,11.46-19.09,9.51-9.15,26.22-10.56,38.29-8.31,10.01,1.87,19.5,12.63,17.13,22Z"
          style="fill: rgb(29, 29, 27);"></path>
        <path class="cls-1"
          d="M321.8,449.11c-10.71-9.33-24.69,7.67-31.31,4.23l7.9-10.7c1.72-2.32,2.88-6.05,2.16-8.87-1.4-5.48-6.4-8.51-11.56-8.28-16,.73-8.95,27.88-18.7,18.53-2.97-2.85-6.62-5.62-10.72-5.56-6.83.12-13.98,8.83-12.37,12.68.45,1.09,2.81,2.29,4.12,2.48l7.86,1.09c1.02.14,2.66,1.79,2.64,2.69-.14,7.04-20.27,7.76-14.43,16.29,3.59,5.25,12.3,7.6,17.77,3.43,4.11-3.13,4.06-7.05,8.53-9.99.58-.37,2.81.82,2.88,1.53l1.12,11.46c.64,6.49,5.43,12.29,11.57,14.01,2.93.81,6.24-.02,8.1-1.99,1.43-1.5,2.05-5.4.97-7.9l-5.81-13.42c-.29-.66-.2-2.35,0-2.87,1.06-2.7,33.08,8.23,33.19-9.17.03-3.95-1.5-7.55-3.95-9.68ZM278.77,460.79c-2.06,0-3.73-1.68-3.73-3.74s1.67-3.73,3.73-3.73,3.73,1.68,3.73,3.73-1.68,3.74-3.73,3.74Z"
          style="fill: rgb(29, 29, 27);"></path>
        <path class="cls-1"
          d="M499.43,331.52l-6.23,3.45c-1.06-.89.28-2.81.79-4.01l2.93-6.79c.74-1.72,1.38-5.68,1.43-7.59l.2-8.03-3.82-5.4c-6.05-8.53-8.18-3.21-10.83-8.81-1.2-2.56-2.65,3.26-8.97,2.3.88,3.83-2.8,4.71-4.32,7.14-1.01,1.61-.74,5.87-2.49,7.09-1.63,1.15-4.03,1.85-7.01,2.91-.02,1.43,1.65,4.04,3.13,5.33,11.14-9.09,11.87,1.75,20.97-6.48,1.11,2.99-1.42,4.44-3.32,6.16l-5.59,5.07c-1.73,1.57-7.04,8.65-7.93,10.81-.69,1.67-1.31,5.73-1.08,7.47l.92,6.61c.24,1.72,2.69,4.6,3.85,6.13,4.35,5.79,8.13,11.58,11.25,18.08,1.41,2.94.95,6.77-.9,9.37-1.31,1.85-4.2,3.75-7.14,3.45-2.08-.21-4.36-1.91-5.16-3.55-.81-1.67-.59-4.29.71-5.88.64-.78,3.71-1.21,3.88-.26.15.79-.1,2.28-.38,3.85-.17.96,3.08.24,3.29-.81.43-2.18-.43-5.35-1.91-6.41-1.78-1.26-5.1-1.66-7.28-.43-5.04,2.83-5.5,10.75-1.78,15.52.84,1.07,3.34,2.97,4.62,3.53,7.35,3.26,17.49-.57,20.02-8.72.54-1.74,1.38-4.77,1.55-6.24-.22-1.93-.71-5.15-1.25-6.76l-2.18-6.4c-1.31-3.87-3.29-10.36-1.27-14.54,2.59,2.3,3.48,4.28,5.21,7.61,7.12-3.66,13.19-20.67,6.12-24.78ZM476,308.06c-.85,0-1.54-.69-1.54-1.54s.69-1.53,1.54-1.53,1.53.68,1.53,1.53-.69,1.54-1.53,1.54Z"
          style="fill: rgb(29, 29, 27);"></path>
        <path class="cls-1"
          d="M181.72,432.14c-.49-.63-1.48-1.3-2.59-1.84l-7.67-3.71c-.88-.42-2-2.77-1.56-3.61,1.81-3.41,7.23-1.29,10.44-3.62,2.95-2.15.13-5.4-1.18-6.92-4.17-4.82-9.81-5.24-14.59-.8-1.01.93-2.77,2.06-4.57,3.07-1.46-2.46-2.24-4.7-2.66-7.33-.95-5.99-5.87-10.18-11.97-8.71-2.86.69-5.29,2.99-6.13,5.5-2.27,6.85,6.42,10.46,7.61,16.46-5.99-1.25-10.77-3.73-16.43-5.45-5.6-1.7-10.35,2.27-11.26,7.53-.82,4.8,3.23,9.59,8.93,9.8,11.32.42,20.1-4.18,17.45,2.02l-4.5,10.51c-.53,1.25-.08,4.64.73,5.67.81,1.03,3.19,1.91,4.85,1.85,4.14-.14,7.86-3.05,9.35-7.03,2.69-7.19.92-15.46,3.8-14.87,3.38.69,3.92,4.91,7.93,8.34,4.13,3.5,10.72,1.38,13.74-2.53.6-.77.84-3.58.26-4.34ZM156.43,426.14c-1.75,0-3.17-1.41-3.17-3.17s1.42-3.17,3.17-3.17,3.17,1.42,3.17,3.17-1.42,3.17-3.17,3.17Z"
          style="fill: rgb(29, 29, 27);"></path>
        <path class="cls-1"
          d="M169.4,163.56c4.26-4.58,8.48-12.97,4.19-16.54-4.29-3.58-9.27-.39-13.18,2.65-1.37-7.74-4.4-18.73-13.09-20.31-1.6-.3-4.31.6-5.14,1.63-3.98,4.92,1.37,15.33,3.58,20.8l-5.55,1.17c-1.24.27-3.25,2.08-3.58,3.21-1.65,5.54,6.12,9.96,11.55,11.32-3.09,2.92-5.2,8.05-2.15,11.71,1.85,2.23,6.17,2.73,8.91,1.69,2.01-.76,4.19-3.54,6.11-5.85,3.03,6.91,12.77,16.68,18.9,11.11,5.78-5.25-1.98-20.38-10.55-22.6ZM140.02,157.37c1.85-3.66,8.85-2.71,11.59-.03.4.39,1.02,1.78,1.14,2.31.75,2.98-11.05,3.65-12.74-2.28ZM155.95,171.26c-.62,2.87-4.36,6.1-6.45,3.29-1.29-1.73,1.5-6.38,3.47-7.38.64-.33,2.9.13,3.08.81.18.67.17,2.07-.1,3.29ZM156.08,164.26c-.84,0-1.51-.67-1.51-1.51s.67-1.51,1.51-1.51,1.51.68,1.51,1.51-.68,1.51-1.51,1.51ZM159.62,160.9c-1.77-5.85,6.08-13.62,11.01-11.07,1.75,6.5-9.93,14.64-11.01,11.07ZM175.93,182.16c-6.72-2.16-11.19-8.45-12.78-14.86,7.72-.07,14.31,6.9,12.78,14.86Z"
          style="fill: rgb(29, 29, 27);"></path>
        <path class="cls-1"
          d="M229.4,241.38l-4.94-.28c.84-2.71,2.73-3.68,4.44-3.15,2.01.62,3.67,2.96,3.06,5.06-.92,3.14-3.95,4.54-6.82,4.33-2.5-.18-5.1-2.79-5.37-5.73-.54-5.78,4.08-9.99,9.66-9.24,6.88.92,11.12,7.33,9.92,14.33-1.03,6-7.65,11.11-14.44,9.32-5.67-1.5-9.53-5.96-10.95-10.6-1.73-5.65-1.08-11.57,3-15.75,3.93-4.03,9.22-5.18,15-3.91,5.3,1.17,13.43,7.21,10.85,12.38-1.72,3.45-7.34-11.58-19.04-6.7-5.09,2.12-6.38,7.64-4.94,12.55,1.32,4.5,7.07,7.91,12.21,6.03,2.98-1.09,4.05-5.23,3.74-8.01-.32-2.86-2.54-5.74-6-6.38-1.96-.36-4.46.73-5.51,2.29-.89,1.32-.99,4.02.49,5.35.77.69,2.34,1.31,3.1,1.28.91-.04,2.16-1.87,2.54-3.16Z"
          style="fill: rgb(29, 29, 27);"></path>
        <path class="cls-1"
          d="M282.87,331.95c-4.13-11.4-11.97-19.18-22.76-24.09-9.69-4.42-20.06-6.02-30.37-2.36-11.13,3.95-18.01,13.69-18.55,25.52-.5,10.66-7.85,4-17.03,22.67-4.78,9.72-7.36,19.9-6.59,30.76.74,10.44,6.92,18.35,17.86,20.75,28.95,6.34,58.8-6.07,73.7-31.5,7.58-12.95,8.69-28.12,3.75-41.75ZM278.23,354.7c-1.43,9.29-5.82,17.6-12.35,24.85-15,16.66-38.56,23.9-60.78,18.86-17.6-3.99-13.21-25.3-9.11-37.15,7.7-22.23,19.44-16.21,19.64-30.26.09-6.82,2.45-13.89,8.19-17.81,11.34-7.74,25.16-6.12,36.21,1.05,13.88,9,20.79,23.69,18.2,40.46Z"
          style="fill: rgb(29, 29, 27);"></path>
        <path class="cls-1"
          d="M236.38,349.35c8.83.16,16.42-6.36,17.03-14.88.33-4.5-1.7-8.47-4.96-10.62-3.43-2.26-8.45-2.41-11.9.42-2.83,2.32-3.21,6.62-1.28,9.65,1.7,2.66,6.16,4.18,9.48,1.76.91-.67,1.92-3.07,1.95-4.18s-1.9-3.22-2.73-2.89c-.8,2.32-1.51,4.52-3.31,4.73-1.6.19-3.89-1.82-3.46-3.86s3.18-3.71,5.03-3.81c2.29-.13,4.94,1.22,6.3,3.37,2.54,4.05,1.24,9.56-3.23,12.2-7.4,4.38-19.07,2.95-23.88-4.96-3.39-5.58-.58-14.23,3.71-18.28,8.65-8.15,20.44-8.46,30.03-2.77,6.92,4.11,11.09,9.77,14.46,16.83,12.05,25.29-4.58,49.36-28.05,58.59-9.11,3.58-18.51,5.73-28.29,3.47-6.18-1.43-11.93-5.27-14.24-11.27-3.55-9.22,3.92-28.46,9.81-36.12,6.93-9.01,12.48,2.31,27.53,2.59Z"
          style="fill: rgb(29, 29, 27);"></path>
        <path class="cls-1"
          d="M394.88,537.14c-1.47,7.97-23.73-6.05-27.22-8.35-.95-.62-1.78-3.26-1.66-4.35.77-6.96,30.67,3.03,28.88,12.7Z"
          style="fill: rgb(29, 29, 27);"></path>
        <g>
          <path class="cls-1"
            d="M374.43,421.49c-4.21-9.04-17.63-17.81-28.14-17.39-5.17-6.88-12.56-10.78-21.27-7.09-12.97,5.5-18.56,20.77-12.73,33.94,4.59,10.34,14.72,16.74,26.1,17.5,11.82.79,23.18-2.6,31.71-10.65,4.42-4.17,7.14-10.27,4.33-16.32ZM368.09,433.7c-6.97,6.78-15.01,10.39-24.68,10.58-6.72.12-13.22-1.04-18.73-4.85-6.42-4.45-10.28-11.15-10.65-18.43-.39-7.69,2.98-15.77,9.45-20.14,6.32-4.27,14.63-2.93,19.01,3.03,5.52,7.52,8.88-3.13,25.93,14.36,4.7,4.82,4.47,10.79-.35,15.46Z"
            style="fill: rgb(29, 29, 27);"></path>
          <path class="cls-1"
            d="M362.7,435.26c-9.82,8.27-31.05,9.66-40.37-.73-8.91-9.95-6.96-28.89,3.46-32.86,4.51-1.73,8.84-1.28,12.69,1.55,1.59,1.17,3,3.98,3.05,5.87.05,2.16-1.47,4.76-3.23,6.4-3.52,3.29-9.13,4.32-12.19,0-.73-1.03-.56-3.97.18-4.94.81-1.08,4-1.57,4.82-.49,1.61,2.12.23,3.03-.37,3.49-.46.36-1.35-.6-2.47-1.51l-.54,1.54c-.17.48,1.52,1.66,2.1,1.72,2.17.21,4.51-2.42,4.04-4.65-.47-2.23-3.18-3.53-6.02-2.94-2.59.53-4.14,3.58-3.99,6.15.12,2,1.81,5.29,4.5,6.25,6.8,2.42,13.65-1.89,16.21-8.1,3.57-8.68,18.21,2.56,22,9.62,2.5,4.66,0,10.36-3.88,13.63Z"
            style="fill: rgb(29, 29, 27);"></path>
        </g>
        <g>
          <path class="cls-1"
            d="M439.96,187.45c-1.11-7.57-1.99-14.48-4.99-21.18-3.23,1.42-4.1,3.8-4.59,6.6l-2.04,11.55c-.19,1.05-1.57,2.73-2.45,3-1.03.32-3.47-.68-4.1-1.57-5.79-8.28-3.88-18.65,5.33-24.29-3.73-2.14-7.65-.28-10.4,2.45-5.59,5.56-4.14,11.98-8.11,13.91-1.03.5-3.71-.11-4.7-1.01-3.24-2.93-4.25-7.59-3.63-12.1,1.06-7.8,11.39-13.5,19.95-13.2-9.65-4.13-21.02-2.79-28.69,4.88-8.1,8.1-8.96,14.96-14.28,17.84-1.23.67-4.91.06-5.49-1.4-1.83-4.62-.66-10.07,1.33-14.97,6.49-15.94,25.08-23.8,41.36-18.04,5.45,1.93,9.41,5.59,14.19,9.64,1.85-14.38,15.07-24.52,29.46-21.87,1.67.31,3.66,2.47,3.83,3.82.18,1.35-.82,4.51-2.03,5.26l-12.98,7.97c-4.11,2.52-8.28,5.51-8.85,10.89,6.11-7.39,18.72-11.15,28-4.26,11.46,8.52,9.84,25.83,3.17,27.67-1.91.53-5.38-.26-6.89-1.56l-12.16-10.52c-1.81-1.56-4.03-2.25-7.04-1.93l6.34,14.06c6.39,14.17,9.6,29.57,7.15,45.04-.86,5.44-3.03,10.24-6.9,14-3.46,3.35-9.83,4.02-12.61-.68-1.16-1.96-.51-6.12.19-8.52,3.96-13.67,4.78-27.12,2.67-41.47Z"
            style="fill: rgb(29, 29, 27);"></path>
          <g>
            <path class="cls-1"
              d="M308.65,225.32c-6.43,8.24-10.6,18-12.86,28.19-1.93,8.73.19,24.88,5.82,23.53,1.13-.27,3.2-2.17,3.66-3.62,2.44-7.62,10.49-29.81,18.33-31.39,1.02-7.51,2.61-14.93,6.08-22.11-7.42-2.5-16.15-.87-21.04,5.4ZM315.96,224.1c.24-.76,3.03-1.59,3.24-.84.55,2.22-1.54,4.7-3.67,3.96,0-.83.21-2.36.43-3.12ZM313.05,225.85c.56.85.48,2.8-.09,3.94-1.11,2.18-3.08,4.13-5,2.57.62-2.2,2.62-4.6,5.09-6.5ZM314.71,234.88l-1.9,2.38-1.78-1.43,1.9-2.38,1.78,1.43ZM303.89,243.31c.21-.31,1.51.73,1.38,1.08l-.55,1.55c-.13.36-1.17-.38-1.29-.74-.15-.48.15-1.43.46-1.88ZM301.35,244.56c1.86,1.36,1.12,5.75-1.92,6.83l1.92-6.83ZM300.75,271.26c-4.68-2.99-2.21-8.97.8-12.23.7,3.89.75,7.77-.8,12.23ZM303.73,253.98c-1.16,1.57-3.48,3.35-5.55,3.76,1.19-2.53,2.41-4.36,4.28-6.82.58.16,1.69,2.5,1.26,3.06ZM306.48,259.65c-.36.75-1.27,1.84-2.05,2.48-.2-1.3-.32-2.98-.27-4.29.33-.4,2.62,1.19,2.32,1.82ZM306.79,256.79c-.71,0-1.28-.57-1.28-1.28s.57-1.27,1.28-1.27,1.28.57,1.28,1.27-.57,1.28-1.28,1.28ZM304.59,242.17c-.76-2.18-.68-3.25-.06-4.3l1.56-2.68c.4-.69,2.19.28,3.52,1.04l-5.02,5.95ZM313.53,247.38c-.69.53-2.27,1.37-3,1.59-.08-1.93.75-4.32,2-4.66.81-.23,1.65,2.57,1,3.07ZM316.19,244.07l-1.69-1,2.23-3.82,1.7.99-2.24,3.83ZM320.52,239.04l-2.17-.4.48-2.6,2.16.4-.47,2.6ZM321.26,229.27c-.73,0-1.33-.6-1.33-1.33s.6-1.33,1.33-1.33,1.33.6,1.33,1.33-.6,1.33-1.33,1.33Z"
              style="fill: rgb(29, 29, 27);"></path>
            <path class="cls-1"
              d="M436.18,205.94c-6.48-13-25.03-19.25-38.72-21.08-9.68-1.28-19.72,3.31-23.12,12.48,7.88,1.99,14.75,5.69,21.52,9.13,5.38-4.04,16.73-1.07,24.03,1l12.16,3.43c1.06.3,3.18-.33,3.79-.96.6-.62.79-3.13.35-4.01ZM399.21,188.99c-1.1,3.77-6.33,2.19-7.93-.43,2.2-.67,5.71-.65,7.93.43ZM382.15,195.95l-1.29.5c-.45.17-1.59-1.31-1.11-1.41l1.93-.39c.32-.06.77,1.18.47,1.3ZM382.6,193.83c-.64,0-1.15-.52-1.15-1.16s.51-1.16,1.15-1.16,1.16.52,1.16,1.16-.51,1.16-1.16,1.16ZM390.95,199.92c-.77,0-1.4-.63-1.4-1.4s.63-1.4,1.4-1.4,1.4.62,1.4,1.4-.62,1.4-1.4,1.4ZM392.3,194.51l-2.16.02c-.29,0-.8-.74-.54-.87l1.85-.93c.22-.11,1.31-.27,1.5-.13l1.04.82c.27.21-1.31,1.08-1.69,1.09ZM397.28,202.02h-2.71v-2.07h2.71v2.07ZM395.75,194.53c-.32-.3-.61-1.26-.2-1.38l1.96-.54c.22-.06,1.26.15,1.47.23.22.08.44.3.33.47-1.28,1.97-3.37,1.4-3.56,1.22ZM402.38,202.02l-3.49-1.21.79-2.27,3.49,1.22-.79,2.26ZM401.21,190.69c.1-2.89,5.92-1.72,6.14.56-.03,1.72-6.22,1.8-6.14-.56ZM409.36,202.63l-4.43-1.43.76-2.34,4.43,1.43-.76,2.34ZM416.45,203.03c-.57,0-1.05-.47-1.05-1.05s.47-1.05,1.05-1.05,1.05.47,1.05,1.05-.47,1.05-1.05,1.05ZM419.39,198.65c-1.36.42-3.18-.65-4.01-2.59,2.27-.4,4.03-.39,7.28,0-.95,1.36-1.96,2.16-3.28,2.58ZM421.52,199.95c3.91-1.6,8.55.28,9.98,5.36-3.86-.36-7.12-2.57-9.98-5.36Z"
              style="fill: rgb(29, 29, 27);"></path>
            <path class="cls-1"
              d="M327.31,234.88c-.91-4.71,1.27-8.8,3.31-12.36l4.34-.38-3.09-2.71c.89-1.88,5.83-10.65,8.24-7.01-1.96-2.96,4.66-6.79,6.64-7.59,9.25-3.74-.65-1.39,11.6-4.89.74-.21,2.5.32,2.76,1.01.34.9-.61,2.98-1.5,3.21-6.92,1.74-12.17,4.85-17.25,9.32l-2.04-.9c.17,3.04-1.2,5.95-4.12,8.19-1.01.78-1.1,2.35-1.53,3.81l-3.03,10.16c-.34,1.15-4.1,1.2-4.31.14Z"
              style="fill: rgb(29, 29, 27);"></path>
            <path class="cls-1"
              d="M355.59,188.95c-1.45-8.22-6.86-13.6-14.6-15.94-2.6-.79-6.69-2.71-8.99-.25-6.82,7.32-5.83,18.4.14,26.12,2.48,3.22,4.46,6.29,6.14,10.05,6.39-5.41,13.98-9.22,22.06-10.84-2.72-3.32-4.04-5.92-4.75-9.15Z"
              style="fill: rgb(29, 29, 27);"></path>
            <path class="cls-1"
              d="M344.38,268.16c-.62.39-2.19.88-2.82.82-2.85-.29-8.95-17.16-7.17-21.94,3.76-3.29,9.32-4.89,14.14-6.66,3.15-1.16,6.42-1.22,9.02.34,6.35,3.79,2.97,17.26.69,18.7l-13.88,8.76Z"
              style="fill: rgb(29, 29, 27);"></path>
            <path class="cls-1"
              d="M389.43,242.83c2.57,4.1-.51,16.87-13.88,18.57-3.48.44-9.04-1.58-11.21-4.42-2.12-2.78-2.14-10.09.49-12.58,3.5-3.31,8.65-6.13,13.49-7.27,3.15-.36,9.45,3.04,11.11,5.7Z"
              style="fill: rgb(29, 29, 27);"></path>
            <path class="cls-1"
              d="M360.57,285.1c-3.25,4.02-13.14-6.72-15.9-9.43-1.28-1.25-1.06-4.64.53-5.63l15.15-9.5c4.05-.01,8.6.9,10.71,4.92,1.18,2.25.08,6.57-1.62,8.67l-8.87,10.97Z"
              style="fill: rgb(29, 29, 27);"></path>
            <path class="cls-1"
              d="M399.04,296.28c-5.28,3.16-12.56,2.82-17.53-.63,1.55-5.07,2.99-10.11,4.88-14.45,7.33-6.91,13.71-4.27,21.86.78-1.15,5.79-4.17,11.29-9.21,14.3Z"
              style="fill: rgb(29, 29, 27);"></path>
            <path class="cls-1"
              d="M365.29,240.44c-3.75,1.18-8.61-1.76-9.76-5.06-1.21-3.49-.76-8.86,1.38-11.82,2.35-3.25,6.62-4,10.27-5.22l9.65,5.15c.98,3.55,2.37,8.35-.76,11.21-2.68,2.45-6.73,4.47-10.78,5.74Z"
              style="fill: rgb(29, 29, 27);"></path>
            <path class="cls-1"
              d="M412.35,257.03c-5,1.13-20.11,2.92-21.02-3.37-1.58-10.92,6.9-16.78,16.7-17.4,3.8,6.59,5.12,13.44,4.32,20.77Z"
              style="fill: rgb(29, 29, 27);"></path>
            <path class="cls-1"
              d="M416.7,283.34l-.04.04c0,.15.03.29.06.42.04-.06.07-.13.11-.19l-.13-.28ZM417.71,272.35c-.76-.55-3.86-.37-4.09.58l-2.26,9.24c-.09.34,1.49,1.7,1.15,1.79-3.87.98-5.33,7.05-6.91,10.1l-4.15,3.35c-2.24,1.82-7.9,2.1-10.93,2.78-1.18.27-1.67,3.75-.68,4.41,2.01,1.36,13.1,2.6,17.64-5.24.85-1.48.06-4.08-.87-5.39l3.1,1.82c2.86-2.46,5.25-6.15,4.59-10.06l2.37-2.35c-.19-3.11,4.22-8.74,1.05-11.03ZM437.35,281.59c-3.49-6.42-8.23-10.66-15.18-14.15l-2.18,8.87c-.6,2.47-1.78,4.87-3.17,7.31l4.08,8.88,6.96,4.28c2.84,1.75,8.71,4.21,11.05-.2,2.09-3.96.58-11.02-1.57-15ZM432.05,278.28l1.78,4-2.87,1.27-1.77-4,2.86-1.27ZM430.41,277c.14.73-2.39,2.39-2.68,1.72-.31-.7-.91-2.31-1.3-3.52.83-.83,3.77.59,3.99,1.81ZM423.4,279.55c-.78,0-1.41-.63-1.41-1.41s.63-1.41,1.41-1.41,1.41.63,1.41,1.41-.63,1.41-1.41,1.41ZM424.05,274.53c-.93.22-.95-2.96,0-3.24,1.02.13,1.11,2.77,0,3.24ZM425.13,280.84c.63-1.43,2.66-.27,3.46,1.61-.66.54-3.92-.59-3.46-1.61ZM428.83,284.81l2.63,1.55c.59.36-.85,2.64-1.52,2.57-1.75-.22-1.79-2.49-1.11-4.11ZM431.13,294.11l-.73-3.75,1.99-.38.73,3.75-1.99.38ZM434.61,288.06c-.63.23-2.04-1.07-2.07-1.74-.02-.83.93-2.76,1.73-2.59,1.42.31,1.73,3.85.35,4.32Z"
              style="fill: rgb(29, 29, 27);"></path>
            <path class="cls-1"
              d="M392.57,238.67c-4.61,1.76-10.79-3.32-12.29-7.21-1.18-3.07,1.09-7.59,3.68-8.77l10.96-4.99c5.67,4.22,9.95,9.31,11.17,15.8l-13.52,5.16Z"
              style="fill: rgb(29, 29, 27);"></path>
            <path class="cls-1"
              d="M393.77,274.16c-4.11,5.16-14.55,6.97-19.95,1.03-1.84-7.63,3.8-12.8,10.1-15.7,4.02-1.85,9.94-3.52,12.36,1.98,1.43,3.26-.08,9.65-2.5,12.69Z"
              style="fill: rgb(29, 29, 27);"></path>
            <path class="cls-1"
              d="M351.64,237.24c-5.7,2.92-11.37,4.96-17.65,6.67-1.51-9.28.39-18.13,6.17-24.86,4.25,1.05,9.85,1.69,12.11,5.45,1.83,3.02.51,9.13-.64,12.75Z"
              style="fill: rgb(29, 29, 27);"></path>
            <path class="cls-1"
              d="M387.55,299.89c1.37.28,1.21,5.18-.54,5.19-3.86.04-9.39-1.17-12.23-2.24-.24-.09-.7-1.69-.83-1.92-.12-.21-.35-.36-.52-.16-3.14,3.63-5.39.18-13.53-3.3-4.45-1.9-8.78-3.11-10.79-7.9-5.3-.57-8.6-5.24-11.05-9.5.58-1.69,1.96-3.3,3.66-4.37l8.15,8.66c.21.23.35,1.54.32,1.85-.05.41,1.91-.37,2.26-.14l8.4,5.54c.32.21.34,2.27.69,2.13,4.37-1.76,9.52,4.09,15.06,4.44,3.46.22,6.82.86,10.95,1.71Z"
              style="fill: rgb(29, 29, 27);"></path>
            <path class="cls-1"
              d="M368.47,204.93c.57,10.13-5.05,15.01-13.8,16.25-4.26.6-8.78-1.66-12.63-3.98,6.16-8.61,16.15-12.92,26.43-12.27Z"
              style="fill: rgb(29, 29, 27);"></path>
            <path class="cls-1"
              d="M382.07,287.73l-3.03,8.59c-6.23-1.25-12.05-3.8-17.95-7.36,1.93-4.41,4.71-9.69,9.6-11.12,3.46-1.01,8.35,1.92,11.52,4.01,1.32.87.35,4.51-.14,5.88Z"
              style="fill: rgb(29, 29, 27);"></path>
            <path class="cls-1"
              d="M379.79,221.89c-3.16.66-9.08-2.66-9.95-5.42-1.09-3.45.46-8.06,1.76-11.2,8.55.55,15.62,3.98,21.32,10.7-4.06,2.46-7.89,4.83-13.13,5.92Z"
              style="fill: rgb(29, 29, 27);"></path>
            <path class="cls-1"
              d="M410.25,280.16c-4.61-1.34-8.62-2.85-12.57-5.18-.48-4.96.63-10.1,2-14.84l13.02-.3c1.19,6.86.19,13.07-2.45,20.33Z"
              style="fill: rgb(29, 29, 27);"></path>
            <path class="cls-1"
              d="M334.11,261.69c2.07,4.16,3.8,7.42,6.25,11.36.89,1.43-1.98,5.17-3.65,4.07-3.64-2.39-5.82-7.56-6.26-11.78-.74-7.07-2.64.55-3.68-11.77-.06-.75.57-2.54,1.15-2.99.7-.54,2.75-.72,3.66-.5l2.11,9.19-3.25,3.15,3.67-.73Z"
              style="fill: rgb(29, 29, 27);"></path>
            <path class="cls-1"
              d="M331.46,248.31l-4.56.95c-1.85-3.9-1.63-8.51.31-11.81.52-.88,3.74-.98,3.97-.13l.29,10.99Z"
              style="fill: rgb(29, 29, 27);"></path>
            <path class="cls-1"
              d="M419.02,245.9c-.27,1.9-4.89,1.18-5.29-.3l-2.63-9.61c1.1-.71,4.18-.96,4.89-.09,1.97,2.42,3.56,6.25,3.03,10Z"
              style="fill: rgb(29, 29, 27);"></path>
            <path class="cls-1"
              d="M410.36,234.69l-6.04-10.69,2.53-1.99-3.39.58c-.71.12-1.76-.78-2.36-1.48l-3.88-4.55c-1.82-2.13-5.06-4.17-7.44-5.98l-2.52-1.91c-.58-.44.57-2.88,1.37-2.91,3.22-.12,11.54,5.08,10.16,8.97,3.94-.25,8.14,2.94,7.82,7.43,4.42,2.3,7.56,6.07,7.99,11.56l-4.23.98Z"
              style="fill: rgb(29, 29, 27);"></path>
            <path class="cls-1"
              d="M421.07,259.04l-5.57.09-1.07-11.08c.81-.5,4.48-.24,4.91.86.95,2.44,1.45,6.42,1.74,10.13Z"
              style="fill: rgb(29, 29, 27);"></path>
            <path class="cls-1"
              d="M420.45,260.53c.5,2.76,1.51,12.76-3.36,11.32-1.02-.3-2.27-2.24-2.17-3.37l.72-8.33,4.82.37Z"
              style="fill: rgb(29, 29, 27);"></path>
            <path class="cls-1"
              d="M385.53,207.62l-8.46-3.02c-.96-.34-1.97-.95-2.47-1.39-.63-.55.58-3.24,1.47-3.17,2.26.16,13.94,2.24,9.46,7.58Z"
              style="fill: rgb(29, 29, 27);"></path>
            <path class="cls-1"
              d="M372.96,203.17h-8.65c-.79-.01-2.2-.99-2.22-1.69-.14-4.06,7.72-3.51,10.81-2.44.78.27.72,3.77.07,4.13Z"
              style="fill: rgb(29, 29, 27);"></path>
          </g>
        </g>
      </g>
    </g>
  </g>
</svg>