<?xml version="1.0" encoding="UTF-8"?>
<svg id="Calque_1" data-name="Calque 1" xmlns="http://www.w3.org/2000/svg" viewBox="0 0 197.97 219.85">
  <path d="M133.03,175.56c2.16.17,3.7.29,5.25.42.03.21.06.42.09.63-.52.23-1.04.65-1.56.65-5.52.04-11.05.03-16.57-.02-.49,0-.97-.4-1.84-.78,1-.49,1.56-.76,2.3-1.13-.42-.49-.77-.95-1.17-1.35-2.24-2.27-3.26-5.05-2.99-8.18.14-1.61-.41-1.98-1.86-1.97-9.91.03-19.82.01-29.72.01-6.85,0-13.69.03-20.54-.04-1.54-.01-2.1.34-1.99,2.02.26,3.93-.45,5.4-4.36,9.91h8.49c.06.3.12.61.18.91-.53.23-1.07.65-1.61.66-8.46.04-16.93.04-25.39,0-.54,0-1.08-.41-1.62-.63.03-.25.07-.51.1-.76h7.11c.05-.2.1-.4.16-.61-.58-.63-1.21-1.24-1.74-1.91-1.89-2.37-2.62-5.06-2.32-8.08.04-.44-.41-.93-.64-1.39-.39.36-.98.65-1.13,1.08-.73,2.2-1.55,2.9-3.89,2.91-3.84.02-7.69.02-11.53-.01-2.33-.02-3.63-1.28-3.7-3.48-.07-2.33,1.03-3.66,3.38-3.75,1.35-.06,1.8-.57,1.77-1.85-.04-1.86,0-3.72.02-5.58.02-1.21-.32-1.98-1.71-2.3-.66-.15-1.49-1.11-1.59-1.8-.24-1.64-.32-3.39-.02-5.01.15-.83,1.25-1.5,1.93-2.22.47-.5,1.22-.89,1.42-1.47,2.03-6.03,4.46-11.87,7.76-17.32,1.99-3.3,5.05-5.21,8.66-6.29,5.36-1.61,10.89-1.57,16.4-1.59,3-.01,6,0,9.01,0,1.08,0,2.08,0,2.06-1.54-.02-1.4-.75-1.64-1.97-1.62-2.76.05-5.53.04-8.28-.09-.58-.03-1.13-.69-1.7-1.06.54-.34,1.07-.95,1.63-.99,20.3-1.43,40.6-2.9,60.97-2.21,1.39.05,2.25-.44,3.13-1.6,1.3-1.74,2.85-3.37,4.58-4.67.72-.54,2.38-.46,3.25.01,1.17.64.69,1.93.15,3.03-1.54,3.17-1.51,3.18,1.89,3.76.71.12,1.42.28,2.13.37,1.45.19,1.84,1.1,1.78,2.42-.07,1.4-.9,1.86-2.14,1.86-1.92,0-3.85-.09-5.76.04-.59.04-1.15.68-1.72,1.05.59.36,1.17,1.01,1.78,1.04,2.33.12,4.69.15,7.02,0,6.43-.41,11.13,4.5,12.95,8.81,2.2,5.21,2.47,10.65,2.33,16.21-.17,6.72-.12,13.44-.08,20.17,0,.56.58,1.1.85,1.67.35.73.87,1.46.94,2.22.24,2.46-.44,3.09-2.94,3.08-2.1-.01-4.2,0-6.3.02-1.62.02-2.98-.13-3.17-2.25-.12-1.35-1.38-1.2-2.28-1.03-.45.09-1.15.79-1.12,1.15.41,4.13-.88,7.54-4.55,10.48M39.26,161.38c.48-1.05.92-2,1.35-2.97.98-2.2,1.8-4.6,4.81-4.64,4.08-.04,8.16.01,12.24,0,1.77,0,2.9.98,3.79,2.33.42.65.84,1.32,1.14,2.03,1.34,3.21,3.63,4.31,7.17,4.25,11.94-.21,23.89-.03,35.83-.09,6.71-.04,5.5.66,8.8-5.01,1.48-2.54,3.31-3.76,6.38-3.59,4.43.24,8.88.13,13.32,0,2.53-.07,4.32.88,5.31,3.15,1.6,3.65,4.02,5.8,8.28,4.85.11-.03.24,0,.36.01,1.68.24,2.2-.54,2.17-2.16-.08-4.92-.04-9.84-.04-14.76q0-2.93-2.94-2.94c-21.73,0-43.46,0-65.19,0-17.47,0-34.93.02-52.4-.03-1.68,0-2.31.39-2.24,2.21.14,4.01.01,8.03.03,12.05.03,5.27-.61,4.45,4.85,4.52,1.19.02,1.97-.42,2.48-1.63,1.01-2.43,2.3-4.74,3.31-7.17.8-1.92,2.27-2.54,4.13-2.55,5.46-.02,10.92-.02,16.38.02,3.69.02,3.92-.19,3.92-3.82,0-.69.18-1.39.28-2.08,1.83,1.72,1.3,3.63.81,5.39-.43,1.57-1.82,2.09-3.4,2.09-5.88-.01-11.76.02-17.65-.04-1.52-.01-2.66.2-3.24,1.86-.53,1.51-1.29,2.95-1.98,4.4q-1.44,3.07,1.92,4.29M63.41,138.76c-.25-.06-.5-.13-.76-.19-.06-.57-.16-1.14-.17-1.71-.02-4.74-.06-9.48,0-14.23.02-1.42-.37-2.05-1.92-2.04-6.96.05-13.93.04-20.89-.05-1.6-.02-2.83.54-3.74,1.74-.9,1.19-1.76,2.44-2.38,3.78-1.92,4.12-3.71,8.3-5.57,12.44-.53,1.17-.15,1.73,1.09,1.74,2.28.02,4.56.01,6.84.01,24.07,0,48.15-.02,72.22-.02,13.33,0,26.66,0,39.99.02,1.19,0,2.13-.09,2.17-1.66.13-5.59-.54-11.01-3.22-16.02-.62-1.17-1.47-2.07-3.08-2.05-7.44.09-14.89.11-22.33.11-18.37,0-36.74-.02-55.11-.03-2.38,0-2.6.29-2.57,2.74.05,4.56.04,9.12,0,13.68,0,.58-.36,1.16-.56,1.74M42.38,117.92c0,.26,0,.52,0,.77h100.59l.12-.76c-1.81-.38-3.62-1.07-5.44-1.1-6.6-.12-13.2-.03-19.8-.02-21.85.03-43.69.02-65.54.13-3.31.02-6.61.64-9.92.98M98.59,115.21v-.13c7.44,0,14.89.03,22.33-.05.66,0,1.32-.67,1.97-1.04-.63-.39-1.25-.82-1.91-1.16-.24-.12-.59-.01-.89-.02-10.02-.17-20.04-.35-30.07-.51-4.56-.07-9.12-.12-13.69-.18-.86-.01-1.66-.05-1.84,1.16-.24,1.62.53,1.95,1.94,1.94,7.38-.04,14.77-.02,22.15-.02M77.4,110.59c.29.03.59.09.88.09,18.58.22,37.17.44,55.75.62.44,0,.89-.38,1.34-.59-.05-.21-.09-.43-.14-.64-19.27-2.02-38.54-1.04-57.83.51M138.23,162.56c.88-.33,1.66-.39,1.88-.77.2-.34-.14-1.08-.39-1.57-.43-.85-1.02-1.62-1.45-2.47-.93-1.87-2.39-2.69-4.48-2.66-4.8.07-9.6-.03-14.39.15-.98.04-2.15.78-2.82,1.56-1.05,1.2-1.75,2.7-2.6,4.07-.58.93-.18,1.31.76,1.4,1.58.16,2.78-.17,3.82-1.67,2.32-3.35,5.73-4.94,9.76-4.47,3.19.38,5.82,2.01,7.71,4.77.5.73,1.49,1.14,2.2,1.65M30.14,161.95v.03c-1.92,0-3.84-.02-5.75,0-1.48.02-2.2.88-2.2,2.28,0,1.45.89,2.25,2.26,2.27,3.78.06,7.56.08,11.33-.04,1.26-.04,2.52-.56,2.56-2.21.03-1.39-.94-2.28-2.61-2.32-1.86-.05-3.72-.01-5.57-.01M61.98,162.31c.21-.05.43-.1.65-.15-.16-.67-.22-1.39-.51-2-.41-.86-1.12-1.58-1.47-2.45-.79-1.9-2.31-2.54-4.16-2.56-3.54-.05-7.07-.06-10.61.02-1.57.04-2.67.95-3.29,2.41-.26.61-.58,1.19-.74,1.82-.22.84-.3,1.72-.45,2.58.69-.54,1.52-.97,2.06-1.63,4.67-5.74,12.32-5.78,16.97.02.52.65,1.03,1.3,1.55,1.95M122.15,166.75c0,2.87,2.27,5.09,5.15,5.05,2.51-.04,4.9-2.46,4.93-4.99.03-2.87-2.19-5.1-5.06-5.08-3.1.02-5.02,1.94-5.02,5.02M52.06,161.69c-2.93-.01-5.24,2.2-5.23,5,0,2.74,2.43,5.1,5.22,5.08,2.68-.02,4.98-2.34,5.03-5.07.04-2.71-2.25-4.99-5.02-5.01M147.06,165.73h0c1.26.01,2.53.12,3.77-.04.47-.07,1.07-.73,1.18-1.21.07-.32-.6-1.16-.97-1.18-2.51-.13-5.02-.16-7.53-.06-.39.01-1.02.86-1.03,1.33,0,.38.71,1.05,1.18,1.12,1.11.17,2.27.05,3.41.05M124.46,107.43c2.94.9,3.52.65,4.61-1.68.28-.59.69-1.13.91-1.74.15-.41.06-.9.08-1.35-.43,0-.93-.15-1.29,0-2.08.92-3.25,2.66-4.3,4.75M25.68,146.56s0,0,0,0c0-.59.1-1.21-.03-1.77-.11-.44-.5-.82-.76-1.22-.4.37-1.1.71-1.13,1.11-.12,1.35-.09,2.73.06,4.08.04.35.7.63,1.07.94.27-.33.7-.63.77-1,.12-.69.04-1.42.04-2.13M72.51,112.22c-.37.07-.73.14-1.1.21.14.82.28,1.64.41,2.47.35-.13,1.02-.28,1.01-.4-.03-.76-.2-1.51-.33-2.27M125.45,112.42c-.54.69-1.09,1.09-1.04,1.39.07.43.57.8.89,1.19.32-.34.83-.64.89-1.02.06-.36-.35-.79-.74-1.56"/>
  <path d="M154.12,82.35c.39.87.86,1.71,1.15,2.61.67,2.1,1.27,4.23,1.87,6.35.27.97.79,1.17,1.74.88,1.57-.48,3.18-.85,5.03-1.33-1.29-3.27-2.44-6.17-3.58-9.06.19-.11.38-.23.56-.34.43.33,1.07.57,1.25,1,1.79,4.36,3.6,8.72,5.2,13.15,1.64,4.54,3.2,9.13,4.54,13.77,1.31,4.54,2.42,9.14,3.43,13.76.99,4.56,1.79,9.16,2.57,13.77.46,2.71.91,5.45,1.06,8.19.48,8.86.85,17.73,1.21,26.6.09,2.35.09,2.5,2.4,2.48,1.86-.02,3.71-.28,5.57-.3.61,0,1.23.41,1.84.63-.58.33-1.17.95-1.76.96-8.82.17-17.63.2-26.45.39-3.59.08-7.17.51-10.76.67-.58.03-1.19-.56-1.78-.86.58-.27,1.14-.73,1.74-.77,2.09-.16,4.2-.19,6.29-.23,1.21-.02,1.81-.53,2.02-1.79,2.69-16.43,3.16-32.97,1.72-49.51-.67-7.68-2.11-15.31-3.55-22.89-1.03-5.45-2.66-10.79-3.98-16.19-.14-.56.03-1.19.06-1.79.21-.05.42-.1.63-.16M178.3,154.38c-.34-3.28-.73-6.73-1.05-10.19-.09-1.02-.53-1.35-1.51-1.22-3.68.5-7.37.93-11.03,1.52-.55.09-1.35.88-1.4,1.4-.4,4.66-.64,9.33-.98,13.99-.09,1.3.31,1.9,1.69,1.81,4.36-.31,8.73-.54,13.08-.91.43-.04,1.1-.85,1.14-1.35.15-1.61.05-3.23.05-5.05M169.75,163.06c-2.05,0-3.62.11-5.16-.03-1.69-.16-2.59.35-2.75,2.14-.2,2.2-.51,4.4-.87,6.58-.41,2.46-.32,2.65,2.23,2.61,4.48-.06,8.95-.21,13.43-.24,1.34,0,1.83-.56,1.82-1.82-.01-2.69,0-5.39.03-8.08.01-1.3-.52-1.81-1.88-1.66-2.44.26-4.89.37-6.85.5M163.08,135.81h.19c0,1.8.04,3.59-.01,5.39-.04,1.23.44,1.8,1.69,1.65,3.44-.4,6.9-.77,10.33-1.23,1.06-.14,1.69-.77,1.48-2.02-.6-3.54-1.14-7.08-1.71-10.62-.35-2.21-.78-2.49-3.01-1.96-2.62.62-5.25,1.18-7.82,1.93-.49.15-1.03,1.05-1.08,1.65-.15,1.72-.05,3.47-.05,5.2M162.27,121.35c.13,1.84.1,3.24.39,4.57.12.55,1.04,1.41,1.44,1.33,2.97-.6,5.91-1.4,8.86-2.12,1.12-.27,1.18-.96.93-1.91-.6-2.31-1.21-4.62-1.7-6.95-.23-1.11-.8-1.39-1.78-1.13-1.44.39-2.87.81-4.3,1.22-1.28.38-3.15.4-3.7,1.26-.65,1.02-.15,2.76-.15,3.73M160.31,106.37c.42,3.04.7,5.6,1.2,8.12.09.43,1.17,1.05,1.68.96,2.34-.45,4.66-1.05,6.93-1.79.46-.15,1.03-1.21.91-1.71-.55-2.38-1.23-4.74-2.08-7.02-.19-.5-1.31-1.02-1.91-.94-1.83.26-3.63.74-5.39,1.29-.6.19-1.06.85-1.33,1.09M167.97,102c-.67-1.94-1.11-3.35-1.65-4.73-2.1-5.34-.33-5.38-6.96-3.47-1.11.32-1.44.87-1.22,1.94.48,2.33.85,4.69,1.44,7,.12.48,1.07,1.18,1.5,1.09,2.24-.46,4.43-1.15,6.9-1.83"/>
  <path d="M109.04,218.26c.45-.55,1.03-1.04,1.34-1.66.63-1.28,1.22-2.6,1.59-3.97.17-.63-.37-1.41-.36-2.12.01-.73.29-1.45.46-2.18.66.31,1.41.51,1.97.95.41.33.48,1.09.88,1.45,1.83,1.62,2.01,2.4,1.1,4.65-.32.8-.45,1.68-.66,2.53.24.11.49.22.73.33.47-.67,1.06-1.28,1.39-2.01,1.08-2.34,1.99-4.75,4.65-5.88,1.24-.53,2.48-.47,3,.6.37.75.18,2.32-.4,2.87-1.46,1.39-3.27,2.41-5.08,3.68.91,1.82,2.53.73,3.73.1,1.27-.66,2.27-1.83,3.84-2.69-.09.6,0,1.31-.3,1.77-1.65,2.55-5.64,4.13-8.17,2.53-.36-.23-1.06.16-1.61.17-.95.03-2.09.31-2.82-.1-1.03-.59-.94-1.77-.43-2.89.46-1.02.73-2.13.85-3.68-.45.23-1.11.34-1.3.71-.49.94-.79,1.98-1.14,3-.86,2.54-2.49,2.94-5.11,3.22-2.34.25-4.62-1.13-6.91.06-.43.22-1.11.2-1.59.04-1.27-.42-2.44-.39-3.76,0-1.42.41-2.74-1.31-2.28-2.78.32-1.02.85-1.99,1.11-3.02.16-.64,0-1.36-.03-2.05-.75.34-1.86.48-2.19,1.07-.87,1.54-1.49,3.25-2.06,4.94-.4,1.18-.83,1.86-2.29,1.58-.89-.17-1.91.44-2.81.3-2.27-.34-4.49-.81-6.77-.02-.4.14-.99-.34-1.51-.4-.65-.08-1.32-.02-1.98-.01-1.92.01-3.85.01-5.77.04-.66,0-1.33.1-1.99.09-1.03,0-2.25.28-3.05-.18-2.01-1.15-3.42-1.21-5.33.34-1.21-1.77-2.34-3.6-3.66-5.27-.82-1.04-1.8-2.14-2.96-2.67-1.34-.61-2.87-.31-3.78,1.16-.95,1.56-.79,3.33.35,4.45,1.06,1.04,2.93,1.23,4.31.44.26-.15.49-.36.76-.48.47-.22.97-.39,1.45-.58-.19.6-.21,1.37-.61,1.78-1.8,1.89-4.78,1.88-6.8.07-2.09-1.87-2.29-4.64-.51-6.93,1.65-2.12,4.48-2.49,6.76-.87.53.38,1,.83,1.67,1.39.82-1.04,1.48-2.11,2.37-2.94,1.21-1.13,2.53-2.17,3.93-3.04.46-.29,1.32.07,2,.14-.15.58-.24,1.18-.44,1.73-.77,2.07-1.54,4.15-2.39,6.19-.28.68-.82,1.24-1.24,1.86-.26-.12-.52-.24-.78-.36.7-2.25,1.4-4.49,2.1-6.74-.19-.08-.39-.16-.58-.24-1.65,1.34-3.05,2.97-3.44,5.1-.34,1.83,1.21,2.33,2.66,2.75,1.52.44,2.51-.01,3.25-1.41.69-1.3,1.41-2.66,2.41-3.72,1.01-1.06,2.3-1.98,4-1.13.79.4,1.31.13,1.6-.79.35-1.11.87-2.17,1.32-3.26.24.01.47.03.71.05.05.56.29,1.18.12,1.67-.83,2.5-1.78,4.95-2.64,7.44-.27.79-.37,1.64-.59,2.68,2.24-.34,2.2-2.1,2.84-3.24.58-1.02.76-2.26,1.27-3.34.2-.43.8-.67,1.22-1,.07.49.32,1.03.19,1.46-.53,1.76-1.17,3.49-1.49,5.67.57-.23,1.37-.29,1.66-.71,1.16-1.7,2.14-3.52,3.24-5.25.3-.47.81-.79,1.23-1.18.05.55.3,1.17.13,1.63-.6,1.55-1.38,3.02-2.03,4.55-.16.38-.05.88-.07,1.33.43,0,1.03.16,1.25-.05.66-.63,1.35-1.34,1.71-2.16,1.03-2.33,2.04-4.56,4.71-5.56,1.25-.47,2.35-.18,2.83.73.36.68.19,2.17-.34,2.68-1.46,1.4-3.23,2.47-5.19,3.91.4.2,1,.78,1.57.74,3.45-.2,5.89-3.52,5.3-7.02-.05-.32.14-.67.16-.79,1.24-.14,2.33-.21,3.39-.4,1.6-.28,3.03.96,2.78,2.63-.15.99-.61,1.93-.88,2.91-.19.69-.3,1.4-.48,2.26,2.47-.61,4.23-5.59,3.25-7.41,1.16-1.55,2.21-2.95,3.26-4.35.14,0,.27-.02.41-.03,0,.85-.25,1.81.07,2.51.29.66,1.19,1.05,1.93,1.64-.2.18-.37.41-.6.52-.89.4-2.24.51-2.62,1.17-.86,1.53-1.43,3.3-1.74,5.03-.2,1.11.73,1.54,1.83,1.06,1.91-.82,2.52-2.6,3.19-4.34.42-1.1.84-2.21,1.26-3.31.22-.02.44-.03.66-.05.11.54.43,1.13.3,1.6-.4,1.49-1.02,2.93-1.45,4.41-.14.47.06,1.04.1,1.56.59-.11,1.52-.02,1.71-.35.9-1.59,1.59-3.3,2.38-4.95.39-.82.83-1.62,1.49-2.34,1.12,2.84-1.73,4.98-1.34,7.64.19.11.38.22.57.33M68.8,213.13c-.14-.28-.25-.99-.61-1.15-.46-.21-1.4-.2-1.64.1-1.03,1.34-1.96,2.77-2.73,4.28-.17.34.34,1.23.77,1.61.24.22,1.02.05,1.43-.18,1.71-.95,2.46-2.55,2.78-4.66M123.85,212.16c-1.57-.6-2.77.17-3.47,2.23,1.55.45,2.48-.15,3.47-2.23M82.89,214.35c1.89.56,3.37-.46,3.58-2.5-1.97-.21-2.66,1.22-3.58,2.5"/>
  <path d="M174.61,22.74c2.08.62,4.92-.98,5.75-2.94.43-1.01,1.37-1.86,3-1.57-.43.76-.75,1.32-1.26,2.22,1.62-.24,2.92-.29,4.13-.66,1.84-.56,3.62-1.05,5.59-.77.44.06.99-.57,1.48-.9.48-.32.94-.66,1.4-.99.14.5.28,1,.46,1.65.51.16,1.24.4,1.97.63,0,.22,0,.44,0,.66-6.28.46-12.54,1.04-18.7,3.56.62.55,1.19.99,1.69,1.5,1.93,1.96,3.86,3.91,5.73,5.93.27.29.19.9.27,1.36-.15.08-.29.17-.44.25-.45-.4-.93-.77-1.36-1.2-1.83-1.8-3.64-3.61-5.46-5.41-.04-.04-.13-.05-.15-.1-1.09-2.92-2.93-1.29-4.4-.58-4.34,2.08-8.09,5.05-11.66,8.23-.3.27-.49.66-.68.93,1.3,1.15,2.55,2.21,3.74,3.34.24.23.26.7.38,1.05-.43-.01-1.01.15-1.28-.07-.97-.78-1.79-1.75-2.78-2.5-.39-.3-1.36-.5-1.58-.27-1.05,1.09-1.93,2.34-2.95,3.64,1.63.66,3.49.86,3.26,3.33-.83-.61-1.71-1.16-2.49-1.83-.82-.7-1.48-.76-2.03.25-1.63,3.02-3.26,6.05-4.94,9.17.7.39,1.13.63,2.02,1.12-2.6-.1-2.78,1.74-3.56,3.38-1.22-1.4-.6-2.71-.2-3.8,3.32-8.95,8.72-16.43,16.19-22.4.6-.48,1.28-.87,1.99-1.35-1.23-2.07-3.27-3.7-3.27-6.36,2.2,1.24,2.88,3.56,4.12,5.62,1.26-.73,2.53-1.46,3.67-2.12-.85-1.71-1.57-3.37-2.5-4.91-.25-.41-1.18-.74-1.68-.62-2.16.53-4.28,1.25-6.71,1.99,1.29,1.89,2.27,3.32,3.25,4.75.17.24.46.45.51.72.08.43.01.88,0,1.32-.38-.16-.92-.21-1.13-.49-1.1-1.53-2.12-3.13-3.35-4.97-6.72,6.27-8.82,14.83-10.66,23.52-.21,0-.43-.02-.64-.02-.09-.67-.3-1.35-.25-2.01.48-5.78,2.73-10.97,5.27-16.08.42-.84.39-1.91.54-2.73.66-.36,1.59-.69,2.23-1.31.3-.29.25-1.23.03-1.73-.44-1-.43-1.68.89-2.23.19.73.35,1.35.51,1.98.19.06.39.13.58.19-.16-2.99-.03-5.85,2.61-7.62.2.07.4.14.6.21-.72,1.79-1.44,3.57-2.16,5.36.15.1.29.21.44.31.91-.51,1.81-1.02,2.71-1.53-.57-3.36,1.89-4.92,3.97-6.55.74-.58,1.69-1.93,3.07-.75-2.11,1.95-4.17,3.84-6.4,5.9,2.31.94,2.74.46,3.52-1.17.55-1.15,1.89-2.03,3.05-2.77,2.3-1.48,4.25-1.74,5.84-.91-2.75,1.3-5.39,2.56-8.04,3.81.06.23.11.45.17.68,2.09.57,4.18,1.16,6.29,1.67.22.05.6-.32.83-.57,1.21-1.29,2.78-1.55,4.81-.49-1.5.53-2.74.96-4.12,1.45.24.66.41,1.13.7,1.93-.96-.17-1.71-.3-2.7-.47.08.7.16,1.43.25,2.16-1.34.06-1.64-.75-1.76-1.9-.05-.48-.56-.92-.9-1.35-.03-.04-.54.23-.53.27.14.47.32.93.53,1.37.27.58.54,1.17.87,1.72.24.4.57.75.85,1.12l.9-1.29Z"/>
  <path d="M89.45,48.71c.76-.72,1.27-1.3,1.87-1.75,1.19-.89,2.38-1.72.82-3.6,1.54-.22,2.78-.39,4.46-.63-1.19-.82-2.01-1.37-2.96-2.02,1.82-.86,3.43-.49,4.7.9.91.99,1.62,1.02,2.93.03-1.22-.62-2.4-1.22-3.58-1.81.02-.18.05-.35.07-.53.57-.07,1.25-.37,1.68-.16,1.26.61,2.64,1.23,3.57,2.21,1.06,1.12,1.91,1.13,3.08.46-.95-1.37-3.43-1-3.6-3.74,1.64.85,2.93,1.52,4.21,2.19.1.05.26.15.26.23.07,3.02,2.46,2.02,4.06,2.33.74.15,1.52.14,2.53.22-.26-.69-.43-1.14-.83-2.23.92.39,1.53.49,1.89.85.39.39.55,1.01.81,1.53.52-.37,1.03-.74,1.8-1.29v1.73c.81.16,1.66.36,2.52.49,1.34.21,1.52-.74,1.78-1.72.15-.57.46-1.26.91-1.54,1.32-.8,2.74-1.46,4.17-2.07.33-.14.82.12,1.24.2-.22.36-.36.86-.68,1.06-.87.52-1.82.9-2.73,1.34-1.38.66-2.86,1.25-2.6,2.93,6.46,2.86,12.81,5.67,19.03,8.42.06-.96-2.19-4.47-4.97-7.31-1.04.63-1.72,2.24-3.89,1.22,1.23-.8,2.16-1.41,3.38-2.21-7.96-10.24-17.47-18.69-28.66-25.15-.6.76-.98,1.75-1.48,1.82-2.28.28-4.04,2.5-6.5,1.96-.09-.23-.18-.46-.27-.69,2.46-1.1,4.91-2.19,7.71-3.44-1.75-1.01-3.1-1.84-4.51-2.54-.3-.15-.85.11-1.26.24-1.56.49-3.1,1.03-4.67,1.48-.24.07-.6-.25-.9-.39l-.09-.56c1.13-.34,2.25-.72,3.4-.99.83-.2,1.82.04,2.04-1.28.04-.26,1.08-.35,1.7-.52-.4-.74-.89-1.65-1.56-2.89,2.33.65,3.43,1.97,3.58,3.72.03.29.18.7.4.84,1.59.98,3.22,1.91,5.26,2.63-.47-.9-.93-1.8-1.22-2.35-1.02-.14-1.79-.02-2.23-.35-.9-.66-1.74-3.96-1.27-5.03.43.53.87.92,1.1,1.4.55,1.19,1.11,1.89,2.64,2.37,1.22.38,2.4,2.58,2.59,4.1.14,1.12.41,1.69,1.18,2.2,8.17,5.35,15.45,11.76,21.56,19.34,3.95,4.9,7.22,10.35,10.78,15.56.56.81,1.04,1.67,1.56,2.51-.18.13-.36.26-.55.38-1.06-1.28-2.13-2.56-3.18-3.85-.26-.32-.62-1.02-.64-1.01-1.73.94-3.48-1.18-5.19.05-.11.08-.34,0-.68-.03.15-.52.29-.98.42-1.43-5.97-3.3-12.23-5.62-18.77-7.18-.75-.18-1.55-.28-2.32-.26-.4,0-.93.25-1.16.57-1.52,2.07-2.96,4.2-4.46,6.28-.15.21-.52.26-1.14.54.06-.68-.06-1.23.17-1.54,1.24-1.67,2.56-3.27,3.86-4.9.28-.34.56-.68.84-1.02-.45-.21-.9-.59-1.36-.6-4.25-.13-8.51-.24-12.77-.28-1.61-.02-3.21.15-4.79.23-.34,2.51-2.91,4.88-5.09,4.35"/>
  <path d="M139.99,9.86c1.07.11,2.14.16,3.19.36.35.07.63.51.95.79-.41.22-.87.7-1.21.62-1.47-.33-2.89-.85-4.35-1.23-.41-.1-1.11-.09-1.29.15-1.04,1.42-2.64,2.86-2.79,4.41-.32,3.41.08,6.9.27,10.35.03.6.51,1.17.7,1.59,1.99-1.14,3.86-2.24,5.77-3.26.32-.17.83.03,1.26.06-.17.42-.21,1.04-.52,1.22-2.04,1.18-4.14,2.27-6.45,3.52,1.02,2.95,2.04,5.91,3.14,9.12,1.17-1.28,2.14-2.35,3.18-3.49.69,1.38.05,2.63-1.5,3.75-.44.32-.8.92-.91,1.45-.06.28.44.78.8,1,.13.08.63-.34.87-.6.83-.89,1.63-1.81,2.6-2.58.26,1.83-1.3,3.61-3.41,4.04.77,1.55,1.51,3.03,2.11,4.24.61-.79,1.17-1.52,1.72-2.25,1.74,1.78.46,2.42-.08,2.81-1.11.79-.89,1.51-.37,2.43.65,1.16,1.27,2.35,1.9,3.52.15-.03.3-.07.46-.1.06-.49.17-.99.18-1.48.05-4.2.18-8.4.07-12.6-.03-.96-.87-1.9-1.15-2.47.64-.87,1.56-1.61,1.77-2.51.6-2.61.92-5.3,1.36-7.95.16-.95-.21-1.47-.94-2.22-1.04-1.07-1.48-2.73-2.26-4.32,1.86-.4,2.07.44,2.31,1.46.21.89.67,1.73,1,2.55,1.98-4.01,3.9-7.89,5.9-11.92-1.7-1.17-1.15-3.06-.86-4.91.22-.07.44-.14.66-.21l1.38,4.05c.18,0,.37,0,.55,0,0-.55,0-1.1,0-1.65.01-.72,0-1.43.08-2.15.07-.67.24-1.34.37-2,.22,0,.44-.01.66-.02.15,1.3.29,2.6.44,3.9.14.05.28.09.42.14.15-.42.38-.83.42-1.26.04-.39-.29-.88-.16-1.19.3-.67.78-1.28,1.26-1.85.07-.09.75.16.74.2-.07.61-.21,1.21-.33,1.82-.03.16-.04.33-.06.49.15.1.31.21.46.31.34-.54,1.1-1.23.97-1.59-.62-1.68.32-2.37,1.94-2.89-.3,1.01-.6,2.01-.93,3.14,2.86-.1,1.64-4.24,4.78-4.13-.36.88-.67,1.64-1.07,2.62.81.11,1.48.2,2.14.29-.1.1-.19.2-.29.29.5.61,1.02,1.2,1.5,1.82.2.26.5.6.45.84-.04.26-.46.65-.7.64-1.54-.06-3.16.83-4.62-.55-.36-.34-1.43-.28-1.98-.01-5.71,2.76-9.14,7.47-11.19,13.32-3.57,10.2-3.81,20.79-3.64,31.42.02,1.08-.26,1.69-1.18,2.32-1.01.68-1.6.38-2.04-.45-1.44-2.75-2.89-5.5-4.17-8.32-1.64-3.61-3.18-7.27-4.65-10.96-.7-1.76-1.14-3.63-1.75-5.63-.73.51-1.66,1.54-2.11-.41,1.77-.05,1.73-1.18,1.46-2.45-.23-1.05-.34-2.14-.67-3.16-.16-.49-.73-.83-1.09-1.26-.38-.44-.73-.91-1.1-1.36.51-.19,1.01-.38,1.93-.72,1.12-1.91-3.24-2.93-1.42-5.42.6.4,1.2.81,1.76,1.18.83-1.37,1.64-2.65,2.39-3.97.16-.27.23-.82.07-1-.97-1.1-.03-1.54.72-2.28.32.6.58,1.09.68,1.28,2.53-.38,4.91-.79,7.31-1.04.45-.05.97.6,1.46.92-.48.22-.95.58-1.45.64-1.29.16-2.6.2-3.9.28.03.16.05.32.08.49"/>
  <path d="M168.34,42.64c2.74,1.59,5.01,3.41,6.15,6.28.17.42-.04.99-.07,1.48-.41-.26-1.06-.44-1.18-.79-.97-2.87-3.74-4.11-5.57-6.18-.19-.21-.85,0-1.29.02.11.46.1,1.01.36,1.36,1.31,1.75,2.74,3.43,4.03,5.19.33.45.32,1.14.47,1.72l-.53.29c-1.91-2.45-3.82-4.9-5.84-7.49-.63.36-1.22.68-1.88,1.06,1.56,2.42,4.19,4.04,4.29,7.01-.18.12-.36.24-.54.36-.36-.42-.75-.81-1.07-1.26-.97-1.36-1.88-2.77-2.88-4.11-.24-.33-.75-.68-1.09-.64-.39.04-.96.46-1.04.8-.08.33.33.81.6,1.17.81,1.09,1.71,2.12,2.48,3.24.25.36.2.93.29,1.4-.21.11-.42.22-.62.34-1.21-1.64-2.41-3.27-3.86-5.24-1.09,1.18-2.23,2.27-3.19,3.5-1.07,1.36-1.94,2.87-2.99,4.24-.33.43-.96.62-1.64.68,1.5-3.56,3.72-6.49,6.37-9.09,4.3-4.21,9.24-7.38,15.04-9.11.28-.08.71-.17.78-.36.58-1.48,1.32-2.03,2.68-.74.08.08.89-.47,1.22-.85.39-.44.62-1.01,1.03-1.7.56.77.86,1.59,1.28,1.66,1.22.2,2.48.13,3.73.07.26-.01.65-.4.72-.67.37-1.46,1.29-1.27,2.49-.91-.31.5-.54.88-.77,1.26l.12.43c.61-.19,1.46-.2,1.77-.61.84-1.1,1.76-1.51,3.17-1.03-.05.27-.12.49-.13.7-.03.52-.02,1.05-.03,1.57.63-.15,1.61-.11,1.83-.5.79-1.38,1.81-1,3.15-.76-.32.78-.58,1.41-.89,2.16.62.27,1.25.54,2.16.93-1.09,1.63-2.76-.11-3.83.95.86,1.68,2.88,2.97,2.37,5.39-2.08-1.21-3.73-4.51-3.26-6.48-4.16-.41-8.27-1.48-12.48-.42-.92.23-1.91.16-2.85.31-.43.07-.82.35-1.23.54.24.36.41.8.72,1.08,2.19,1.92,3.73,4.28,5.09,6.78-.1.16-.19.33-.29.49-.49-.2-1.18-.26-1.45-.63-1.67-2.3-3.17-4.72-4.92-6.95-.36-.46-1.52-.29-2.47-.12,1.95,3.21,5.13,5.42,6.01,9.12-.12.14-.24.28-.36.42-.46-.36-1.02-.65-1.37-1.1-1.44-1.82-2.82-3.69-4.23-5.53-.11-.14-.3-.21-.41-.34q-1.6-1.92-4.21-.39"/>
  <path d="M92.46,64.19c1.83-1.34,3.65-2.68,5.48-4.01l-.05.05c1.18-.5,2.36-1.01,3.82-1.63-2.16-1.57-4.54.69-6.32-1.2,2.74-.18,5.28-2.61,8.2-.42.35.26,1.09-.01,1.87-.05-.29-.67-.47-1.11-.75-1.76.59-.09,1.21-.39,1.45-.2,2.3,1.82,4.47.02,6.58-.35,5.86-1,11.69-1.21,17.46.19,3.4.82,6.71,2.07,10.02,3.22.77.27,1.4.91,2.1,1.38l-.22.57c-.53-.05-1.12.05-1.56-.17-6.69-3.26-13.75-4.85-21.18-4.51-2.42.11-4.84.56-7.23,1.01-.38.07-.9.91-.89,1.4.04,3.82.2,7.65.29,11.47,0,.35-.25.7-.63,1.03-1.89-4.17-1.87-8.41-.77-12.76-2.04-.75-2.88-.13-2.77,2.17.17,3.7.33,7.41.45,11.11,0,.31-.33.64-.51.96-.3-.3-.8-.55-.88-.9-.92-4-1.48-8.02-.26-12.44-4.85,1.53-8.82,4.08-12.08,6.84.14,1.5.32,2.58.33,3.66.02,2.51-.05,5.01-.08,7.52,0,.56,0,1.11-.3,1.71-1.96-1.46-1.64-3.59-1.55-5.54.1-2.05.52-4.08.46-6.41-1.38,1.4-2.85,2.73-4.13,4.23-1.23,1.45-2.22,3.1-3.39,4.6-.37.47-.98.74-1.48,1.11-.18-.18-.37-.36-.55-.54,1.06-1.65,2.12-3.3,3.18-4.94-.08-.11-.15-.22-.23-.33-.9.49-1.81.98-3.14,1.71.13-.83.04-1.45.3-1.68.83-.76,1.8-1.38,2.72-2.05.09-.07.24-.17.32-.14,3.24,1.18,3.73-2.21,5.56-3.35.19-.12.28-.39.41-.58l-.04.05Z"/>
  <path d="M185.03,77.13c1.14,1.45,2.28,2.91,3.4,4.33,1.79-.8,3.41-.48,4.59.95.25.3.21.85.31,1.28-.42-.03-.9.06-1.23-.11-.81-.42-1.55-.97-2.31-1.47-.11.12-.23.24-.34.36.71,1.04,1.43,2.08,2.13,3.12,1.82-.96,3.88.19,5.15,3.35-.67-.34-1.38-.62-2.01-1.03-.72-.47-1.36-1.06-2.17-1.7.39,2.52,1.26,3.46,3.25,3.7,1.16.14,2.28,1.5,2.15,2.9-.83-.45-1.58-.84-2.44-1.3-.32,2.12,2.13,3.58,1.48,5.64-.21.08-.42.16-.63.25-.62-1.07-1.23-2.15-2.09-3.66-.44,1.85-.79,3.31-1.24,5.19-1.5-2.48-1.01-5.29.87-6.25-1.03-1.9-2.07-3.8-3.1-5.7-.19.03-.37.07-.56.1,0,.58,0,1.16,0,1.74-.04,2.69-.02,5.38-.16,8.07-.02.45-.72.86-1.11,1.29-.13-.56-.37-1.11-.38-1.68-.05-2.78.09-5.56-.13-8.32-.1-1.18-.19-1.96,1.74-2.23-2.6-3.09-4.95-5.87-7.3-8.65-.15.07-.29.14-.44.21-.02.37-.16.79-.04,1.12,1.4,4.04.99,8.17.68,12.29-.12,1.57-.22,1.56-1.78,2,.04-.76-.04-1.46.13-2.09.83-3.21.69-6.39.07-9.63-.26-1.33.05-2.77.03-4.16,0-.35-.15-.82-.4-1.04-4.46-3.98-9.46-7.09-15.17-8.97-2.24-.73-4.5-1.38-6.68-2.41,2.7-1.23,5.01.8,7.78.78.14-.38.37-1.02.6-1.65.22.22.43.44.65.65-.73,3.02,2.7,1.72,3.15,3.45,1.93-1.54,2.66-1.57,3.82-.19-.55.25-1.07.49-1.87.85,1.83,1.19,3.52,2.29,5.29,3.43.89-1.19.7-1.81-.68-2.01-.88-.13-1.87-.18-1.69-1.6,1.28-.28,2.34-.44,3.18,1.06.33.59,1.59.72,2.45.94,1.06.27,2.44-.36,3.35,1.48-2.09.13-3.96.24-6.36.39,2.34,1.91,4.22,3.44,6.11,4.97l-.05-.05Z"/>
  <path d="M159.48,192.9c-.68,1.73-1.36,3.46-2.04,5.2-.26.67-.37,1.42-.76,2-.39.58-1.18,1.47-1.55,1.36-.66-.19-1.38-.93-1.66-1.6-.78-1.87-1.32-3.84-2.04-5.75-.16-.43-.64-.74-.97-1.1-.24.43-.66.84-.7,1.29-.16,1.79-.1,3.6-.35,5.38-.09.65-.8,1.22-1.23,1.83-.37-.6-1.03-1.19-1.06-1.8-.12-3.17-.08-6.36-.08-9.53,0-1.29.25-2.41,1.85-2.59,1.67-.2,2.77.47,3.34,2.05.58,1.63,1.1,3.28,1.78,4.86.21.5.81,1.03,1.31,1.14.29.06.9-.65,1.1-1.13.63-1.48,1.15-3.02,1.67-4.54.64-1.87,1.71-2.64,3.46-2.36,1.78.29,1.81,1.64,1.8,3.02-.02,3,.03,6-.11,8.99-.03.67-.7,1.31-1.08,1.96-.45-.59-1.2-1.14-1.29-1.79-.26-1.77-.22-3.58-.36-5.37-.04-.48-.28-.94-.42-1.41-.21-.03-.42-.06-.63-.08"/>
  <path d="M129.27,192.86c-.22.65-.59,1.28-.64,1.94-.12,1.67,0,3.36-.19,5.03-.07.6-.74,1.14-1.14,1.7-.39-.52-1.1-1.03-1.12-1.56-.11-3.53-.13-7.07-.02-10.6.02-.57.84-1.57,1.31-1.58,1.02-.03,2.48.12,2.99.79.91,1.18,1.23,2.81,1.84,4.22.47,1.08.4,2.95,1.95,2.73.76-.11,1.4-1.8,1.9-2.86.51-1.07.73-2.28,1.18-3.38.57-1.42,1.72-1.94,3.2-1.71,1.5.24,1.84,1.3,1.83,2.64-.03,3.06.05,6.12-.09,9.17-.03.72-.73,1.41-1.13,2.12-.48-.71-1.24-1.36-1.38-2.13-.25-1.4-.08-2.87-.18-4.3-.05-.72-.3-1.42-.47-2.14-.22-.03-.43-.06-.65-.09-.7,1.8-1.4,3.59-2.09,5.39-.5,1.3-.54,3.2-2.31,3.23-1.63.03-1.65-1.76-2.07-2.96-.65-1.85-1.31-3.69-1.97-5.54-.25-.04-.51-.09-.76-.13"/>
  <path d="M103.31,86.61c-2.27,2.64-4.81,9.05-4.6,11.25.46.07.96.13,2,.28-1.58.75-2.72,1.3-4.36,2.08.23-1.14.39-2.11.62-3.06.32-1.32,1.15-2.73-1.14-3.42.07-.16.15-.31.22-.47.62-.12,1.24-.23,2.12-.4.34-.84.79-1.94,1.24-3.04-.14-.1-.28-.19-.42-.29-.51.43-.98.91-1.54,1.27-.23.15-.63.04-.96.05.02-.32-.1-.76.07-.94,1.01-1.11,1.68-2.62,3.59-2.69.56-.02,1.08-1,1.61-1.54-.13-.14-.25-.29-.38-.43-.88.3-1.76.61-3.05,1.05,1.27-2.59,2.87-3.42,4.59-2.67.45-.7.91-1.42,1.59-2.46-1.29.37-2.21.64-3.14.91-.07-.2-.14-.41-.21-.61.76-1.13,1.68-1.9,3.28-1.63.54.09,1.32-.12,1.69-.48,1.31-1.28,2.5-2.69,3.6-3.91-.44-.55-1.33-1.3-1.2-1.57.55-1.17,1.39-.88,2.33-.21.22.16,1.18-.38,1.51-.82.23-.32-.03-1-.08-1.69,4.01.9,6.09-2.73,9.3-3.72,4.27-1.31,8.47-2.86,12.74-4.18.91-.28,1.98-.04,2.98-.04.04.18.07.36.11.54-.43.26-.83.65-1.29.76-2.49.6-5.06.96-7.49,1.74-2.66.86-5.31,1.88-7.78,3.19-6.82,3.62-12.48,8.59-16.75,15.1-.64.97-.39,1.35.17,2.25.94,1.51,1.44,3.31,2.03,5.02.27.78.37,1.65.38,2.48,0,.5-.31,1.01-.48,1.52-.29-.42-.71-.8-.84-1.26-.71-2.54-1.35-5.09-2.08-7.94"/>
  <path d="M49.29,86.62c-.52-6.54,5.07-12.26,11.82-12.57,6.53-.31,12.25,5.27,12.45,11.99.21,6.7-5.09,12.29-11.88,12.54-6.73.24-12.75-5.79-12.39-11.96M61.4,76.02c-5.97-.25-10.42,4.72-10.43,10.24-.01,6.16,4.65,10.55,10.98,10.5,5.35-.04,9.99-4.99,9.85-10.52-.14-5.96-4.55-10.29-10.4-10.23"/>
  <path d="M182.23,61.13c-1.71-.56-3.7-1.22-6.31-2.08.62,1.93,1.15,3.33,1.51,4.78.15.6-.07,1.3-.11,1.95-.4-.49-.93-.93-1.17-1.48-.62-1.42-1.02-2.94-1.7-4.33-.26-.53-1.04-.79-1.58-1.18-.09.15-.18.29-.27.44.57,1.77,1.13,3.54,1.7,5.31-.25.08-.49.16-.73.24-1.71-1.63-2.11-3.81-2.36-6.62-3.95.31-7.91.63-11.87.94-.07-.23-.14-.46-.2-.69.84-.37,1.72-.68,2.51-1.15.6-.35,1.06-.94,1.62-1.36.48-.36,1.03-.62,1.55-.93.11.53.21,1.07.4,2.01,1.12,0,2.58.09,4.03-.02,3.6-.28,6.99.69,10.37,1.67,1.15.33,1.7,0,2.04-1.16-.61-.27-1.22-.54-1.83-.81l-.08-.51c1.02-.42,2.04-.84,3.06-1.26.1.18.21.36.31.54-.25.42-.5.84-.77,1.29.13.11.27.33.4.32,1.25-.09,2.5-.27,3.75-.32.48-.02.97.25,1.46.39-.41.4-.75,1.01-1.24,1.16-1.02.31-2.11.34-3.16.56-.31.06-.58.36-.94.59,2.06,1.13,4.14,2.02,5.94,3.3,2.65,1.89,5.13,4.04,7.64,6.13.32.27.37.85.55,1.28-.52-.09-1.18-.01-1.54-.3-2.19-1.72-4.28-3.58-6.49-5.28-1.11-.86-2.38-1.54-3.63-2.22-.43-.24-.99-.23-1.84-.41.47,1.84.91,3.36,1.22,4.9.09.44-.18.95-.28,1.43-.35-.38-.83-.71-1.03-1.15-.38-.87-.73-1.79-.87-2.72-.15-.93-.03-1.91-.03-3.23"/>
  <path d="M50.48,194.48c.09,4.22-2.87,7.42-6.98,7.57-5.15.18-8.28-2.49-8.41-7.2-.12-4.53,3.03-7.84,7.51-7.87,4.63-.04,7.78,2.97,7.87,7.51M47.64,194.49c-.11-3.14-2.09-5.05-5.12-4.94-2.72.1-4.81,2.31-4.76,5.05.06,2.93,2.31,5.16,5.14,5.1,2.83-.07,4.84-2.27,4.74-5.2"/>
  <path d="M182.12,194.55c0-1.67,0-3.35,0-5.03,0-1.31.7-2.05,1.98-2.05,1.85,0,3.72.01,5.55.26,1.35.18,2.41.98,2.75,2.47.37,1.6.37,3.11-.89,4.34-2.04,1.99-1.97,2.81.48,4.4.4.26.9.4,1.22.72.4.4.65.94.97,1.41-.5.21-1.05.66-1.5.58-2.06-.38-3.45-1.71-4.61-3.4-.55-.81-1.39-1.42-2.09-2.12-.41.93-.82,1.86-1.21,2.8-.07.16.01.4-.08.53-.46.64-.95,1.27-1.44,1.89-.38-.65-1.02-1.28-1.09-1.96-.16-1.6-.05-3.23-.05-4.84,0,0,.01,0,.01,0M186.62,193.69c1.52.15,3.1-.9,3.02-2.05-.08-1.24-.95-1.86-2.16-1.97-1.35-.13-2.41.2-2.52,1.8-.09,1.26.47,2.05,1.65,2.22"/>
  <path d="M67.5,194.79c0,1.68.11,3.37-.06,5.02-.06.61-.77,1.16-1.18,1.74-.44-.55-.95-1.05-1.28-1.65-.19-.33-.07-.82-.11-1.24-.28-2.89-.5-3.11-3.35-3.25-2.99-.15-3.63.47-3.84,3.52-.07.99.33,2.53-1.24,2.51-1.55-.01-1.2-1.54-1.23-2.53-.08-2.93-.07-5.87-.05-8.8,0-.53.07-1.12.33-1.56.19-.33.72-.63,1.11-.65.28-.01.65.41.86.72.16.22.09.59.18.87.36,1.08.54,2.91,1.16,3.09,1.58.44,3.38.25,5.06.03.38-.05.73-1.22.9-1.92.27-1.1-.11-2.83,1.5-2.76,1.68.07,1.16,1.79,1.22,2.91.06,1.31.01,2.63.01,3.95h0Z"/>
  <path d="M85.41,200.53c-.19.26-.52,1.01-.76.99-.62-.07-1.48-.32-1.76-.79-1.01-1.67-2.42-2.06-4.25-2.04-1.78.01-3.09.51-4.08,2.04-.29.45-1.14.53-1.74.78-.13-.6-.54-1.32-.35-1.78,1.5-3.64,3.02-7.28,4.72-10.83.76-1.58,2.34-1.67,3.06-.22,1.8,3.63,3.38,7.36,5.04,11.06.07.16.06.35.12.78M78.96,192.61c-.25.02-.51.03-.76.05-.31.79-.88,1.61-.83,2.38.04.53.94,1.01,1.46,1.51.47-.56,1.34-1.15,1.31-1.68-.05-.77-.75-1.5-1.17-2.25"/>
  <path d="M17.48,200.52c-.31.34-.65,1-.99,1-.57,0-1.44-.27-1.65-.69-.99-1.97-2.65-2.09-4.54-2.12-1.68-.03-2.81.55-3.74,1.92-.32.47-1.14.61-1.73.9-.15-.64-.61-1.39-.42-1.89,1.43-3.6,2.9-7.19,4.56-10.69.84-1.78,2.62-1.67,3.54.23,1.5,3.12,2.79,6.34,4.18,9.52.24.54.48,1.09.8,1.82M12.64,194.94c-.93-.91-1.54-1.5-2.15-2.1-.5.73-1.28,1.42-1.4,2.21-.07.42.95,1.37,1.55,1.43.51.05,1.12-.82,2.01-1.54"/>
  <path d="M172.94,201.82c-5.84.17-4.79-.39-4.86-4.7-.04-2.4,0-4.8-.03-7.2-.03-1.67.76-2.42,2.41-2.38,1.56.04,3.13-.08,4.68.1.67.08,1.26.74,1.89,1.13-.61.34-1.17.84-1.82.99-.86.2-1.87-.07-2.66.24-.65.25-1.49,1.05-1.5,1.61,0,.58.78,1.45,1.41,1.7.85.33,1.91.1,2.84.29.42.09.75.6,1.12.93-.38.38-.7.97-1.14,1.09-.8.2-1.67.11-2.51.15-1.19.06-2.03.67-1.99,1.86.04,1.1.73,1.87,1.99,1.88,1.14.01,2.29-.01,3.41.17.44.07.79.68,1.17,1.04-.39.36-.75.97-1.18,1.04-1.06.15-2.15.05-3.23.05"/>
  <path d="M129.19,97.7c-.95.21-1.87.14-2.32.56-1.32,1.26-1.75.72-1.87-.57-.57.17-1.1.33-1.63.5.07-.6-.04-1.29.24-1.77.75-1.28,1.58-2.55,2.56-3.66.61-.7,1.55-1.12,2.35-1.66.12.13.23.26.35.39.4-1.72.75-3.46,1.21-5.17.98-3.63,1.76-7.33,3.1-10.83,1.13-2.95,2.87-5.67,4.44-8.44.26-.46,1-.64,1.51-.95-.11.62-.01,1.4-.35,1.84-2.24,2.92-3.61,6.23-4.69,9.34,2.17,1.65,4.1,3.1,6,4.59.2.15.28.52.3.8.01.2-.17.41-.32.71-2.11-1.52-4.15-2.98-6.66-4.77-1.46,6.59-2.85,12.9-4.21,19.08M127.96,92.51c-1.04,1.61-1.85,2.87-2.84,4.4,3.26-.35,3.79-1.17,2.84-4.4"/>
  <path d="M121.63,193.39c-.32,1.86-.37,3.82-1.03,5.55-1.01,2.65-3.47,3.52-6.95,2.89-2.29-.41-4.11-2.42-4.23-4.94-.12-2.45-.13-4.92,0-7.37.03-.59.76-1.14,1.17-1.71.44.55,1.2,1.07,1.27,1.66.2,1.72.1,3.47.17,5.21.04.83.1,1.68.3,2.49.4,1.54,1.35,2.53,3.06,2.45,1.62-.08,2.81-.92,3-2.54.23-2.07.2-4.18.27-6.27.04-1.19-.11-2.88,1.32-2.93,1.85-.06,1.25,1.79,1.35,2.94.08.83.01,1.68.01,2.52.1.02.2.03.29.05"/>
  <path d="M95.67,199.84c.84-.15,1.6-.34,2.36-.4.46-.04.94.14,1.42.19,1.19.12,2.21-.43,2.2-1.55,0-.73-.8-1.63-1.47-2.15-.73-.57-1.75-.74-2.6-1.16-2.57-1.25-3.07-3.97-1.15-6.09,1.34-1.47,4.46-2.16,6.15-1.26.4.21.93.88.84,1.13-.17.44-.72.92-1.19,1.03-.74.18-1.6-.1-2.3.12-.59.19-1.34.75-1.46,1.27-.11.51.34,1.36.81,1.73.68.53,1.59.79,2.42,1.11,2.18.85,3.11,2.14,2.94,4.17-.18,2.11-1.58,3.56-3.79,3.93-2.62.44-4.3-.15-5.17-2.09"/>
  <path d="M46.84,78.78L7.28,55.93l.24-.83c.62.11,1.34.05,1.85.34,8.8,5.06,17.58,10.17,26.37,15.26,3.52,2.04,7.05,4.04,10.56,6.11.48.29.82.83,1.22,1.25-.23.24-.45.48-.67.71"/>
  <path d="M60.55,51.94v-16.02c0-.3-.1-.64.01-.89.22-.48.55-.9.83-1.35.29.45.81.88.83,1.34.1,2.1.07,4.2.06,6.3,0,8.82-.02,17.64-.03,26.46,0,.36.1.78-.05,1.07-.21.41-.61.72-.92,1.07-.24-.35-.67-.7-.68-1.06-.08-1.8-.05-3.6-.05-5.4,0-3.84,0-7.68,0-11.52h-.01Z"/>
  <path d="M43.48,96.67c-.35.48-.6,1.15-1.08,1.42-8.56,4.99-17.15,9.94-25.73,14.9-2.21,1.27-4.41,2.56-6.62,3.83-.18-.12-.35-.25-.53-.37.31-.52.49-1.25.95-1.52,9.9-5.76,19.82-11.46,29.75-17.18.91-.52,1.83-1.04,2.74-1.56.17.16.34.32.51.47"/>
  <path d="M0,86.66c1.78-1.25,37.71-1.29,39.61-.15-.83.24-1.37.53-1.92.53-11.94.03-23.88.03-35.82.02-.48,0-.96-.2-1.87-.4"/>
  <path d="M69.37,72.19c.12-.6.08-1.29.37-1.79,3.88-6.79,7.81-13.55,11.72-20.32,1.32-2.27,2.61-4.56,3.96-6.81.35-.59.87-1.09,1.31-1.63.18.05.36.11.53.16-.06.53.04,1.16-.21,1.59-5.24,9.17-10.52,18.32-15.8,27.46-.32.55-.79,1.02-1.19,1.53-.23-.06-.46-.13-.69-.19"/>
  <path d="M22.02,194.11c0-1.5-.12-3.01.06-4.49.08-.62.78-1.17,1.21-1.75.44.61,1.21,1.19,1.25,1.82.16,2.33.05,4.68.09,7.02.04,2.09.73,2.7,2.84,2.87,1.03.09,2.71-.43,2.66,1.23-.04,1.48-1.65.97-2.64,1.05-1.07.09-2.16-.02-3.24.01-1.53.04-2.18-.74-2.17-2.2,0-1.85,0-3.71,0-5.56h-.06Z"/>
  <path d="M51.3,68.5c-.82-.56-1.51-.78-1.78-1.24-4.08-7.03-8.11-14.09-12.15-21.14-1.07-1.87-2.2-3.71-3.25-5.58-.25-.45-.3-1-.44-1.51l.43-.28c.44.33,1.03.56,1.28.99,5.32,9.2,10.61,18.42,15.9,27.64.05.09,0,.23,0,1.1"/>
  <path d="M121.72,3.29c4.08-4.19,9.05-4.36,11.59-.21-.73-.06-1.32.05-1.74-.17-4.75-2.57-7.56-1.51-9.3,3.56-.05.16-.2.29-.5.71-.41-.68-.82-1.2-1.06-1.79-1.65-3.94-4.99-5.02-8.59-2.79-.46.29-1.12.26-1.68.38.29-.53.45-1.22.88-1.57,2.52-2,6.32-1.82,8.77.34.54.47,1.04.98,1.64,1.56"/>
  <path d="M30.85,25.99c-.75-2.35-1.75-4.34-4.3-5.33-2.61-1.01-4.34,1.34-6.72,1.5,1.52-4.16,7.11-4.05,11.35.08.52-.45,1.07-.89,1.59-1.36,2.55-2.3,5.97-2.55,8.72-.55.45.33.65,1.02.96,1.54-.56-.07-1.22.02-1.65-.25-3.6-2.23-6.97-1.18-8.61,2.73-.24.57-.56,1.11-.84,1.66-.17,0-.33-.02-.5-.03"/>
  <path d="M77.9,43.32c-.49-1.01-.81-1.69-1.14-2.37-1.76-3.6-4.64-4.52-8.12-2.58-.21.12-.39.34-.6.38-.46.09-.94.09-1.42.13.21-.45.32-1.01.66-1.33,1.76-1.7,5.25-2.15,7.37-.9,1.16.69,2.2,1.6,3.29,2.41,4.79-3.99,9.49-4.11,11.47.1-.73-.18-1.29-.19-1.71-.44-4.28-2.48-7.28-1.45-9.02,3.13-.16.41-.4.78-.77,1.47"/>
  <path d="M159.49,79.34c-.67.89-1.05,1.87-1.72,2.14-.5.2-1.37-.52-2.22-.89-.22.05-.73.17-1.24.29.12-.42.31-.83.35-1.26.05-.49.11-1.05-.09-1.47-1.25-2.69-2.62-5.32-3.83-8.02-1.27-2.86-2.06-5.84-1.53-9.01.07-.43.51-.8.78-1.2.21.47.65.98.58,1.39-.66,3.51.97,6.54,2.11,9.62.86,2.31,2.35,4.38,3.38,6.64.56,1.24,1.13,1.89,2.55,1.36.21-.08.58.26.88.41"/>
  <path d="M77.37,86.64c1.39-1.21,16.61-1.33,18.46-.18-.53.25-.89.57-1.26.57-5.27.03-10.54.02-15.8-.01-.38,0-.77-.21-1.4-.39"/>
  <path d="M173.54,88.4c-.3-.68-.66-1.12-.65-1.56.06-4.13.17-8.25.29-12.37.02-.61.17-1.21.29-1.99,2.09,2.12,2.13,12.13.07,15.93"/>
  <path d="M89.38,102.78c-2.47-.26-13.6-7.09-13.87-8.43,1.8-.18,13.52,6.85,13.87,8.43"/>
  <path d="M18.6,175.86c1.86,0,3.72-.05,5.58.04.41.02.79.49,1.19.76-.38.29-.75.82-1.14.83-3.66.05-7.32.05-10.98-.03-.48-.01-.94-.53-1.41-.82.51-.26,1.01-.72,1.54-.75,1.74-.09,3.48-.04,5.22-.04h0"/>
  <path d="M89.83,175.85c1.74,0,3.48-.06,5.22.04.45.03.87.53,1.3.81-.41.27-.81.77-1.22.78-3.54.06-7.08.07-10.62-.01-.42,0-.82-.64-1.23-.98.44-.21.88-.59,1.33-.61,1.74-.07,3.48-.03,5.22-.03"/>
  <path d="M177.42,74.82c2.29,1.92,2.26,13.88,0,15.77v-15.77Z"/>
  <path d="M169.43,85.15c-.2-4.68-.4-9.17-.54-13.67-.01-.31.41-.64.66-1,1.75,2.46,1.77,13.03-.12,14.66"/>
  <path d="M185.34,95.3v-13.48c2.37,2.19,2.36,10.83,0,13.48"/>
  <path d="M53.61,100.5c-1.32,4.24-4.32,7.65-6.25,11.6-.17.36-.87.46-1.33.69l-.47-.48c2.38-4.09,4.77-8.19,7.15-12.28.3.16.6.32.9.48"/>
  <path d="M98.28,63.51v12.99c-2.41-2.15-2.46-10.05,0-12.99"/>
  <path d="M100.94,66.19c.13-1.36.22-2.74.43-4.09.06-.36.48-.66.74-.99.21.42.59.83.59,1.25,0,2.86-.11,5.72-.12,8.57,0,.58.32,1.16.34,1.75.01.43-.22.86-.34,1.29-.39-.34-1.06-.63-1.11-1.02-.31-2.23-.48-4.49-.7-6.73.06,0,.12-.02.18-.03"/>
  <path d="M109.07,81.41c1.27,4,2.99,7.75,3.19,11.91-2.1-1.63-4.54-10.75-3.19-11.91"/>
  <path d="M115.08,56.86c.3,3.61.59,7.22.89,10.83-.16.09-.31.18-.47.27-.37-.6-1.01-1.18-1.08-1.81-.35-3.1-1.6-6.27-.01-9.29h.67Z"/>
  <path d="M115.36,74.26c2.28.54,4.69,8.4,3.21,10.79-1.05-3.52-2.1-7.04-3.21-10.79"/>
  <path d="M164.5,78.61c-.05-.56-.14-1.11-.13-1.67.05-2.32.11-4.63.24-6.94.02-.45.37-.88.57-1.32.35.38,1,.76,1.01,1.15.05,2.39.02,4.79-.13,7.17-.04.62-.63,1.19-.97,1.79-.19-.06-.39-.12-.58-.19"/>
  <path d="M105.93,84.31c1.76,1.1,3.99,9.01,2.67,10.94-1.15-3.79-2.2-7.27-3.26-10.75.19-.06.39-.13.58-.19"/>
  <path d="M108.31,34.22c.19-.84.17-1.5.47-1.92,1.59-2.24,3.75-3.79,6.3-4.78.36-.14.86.08,1.29.14-.16.41-.23,1.12-.48,1.19-2.96.78-4.8,2.97-6.7,5.11-.07.08-.22.07-.89.27"/>
  <path d="M113.79,39.1c-.56-2.53,3.02-6.23,7.4-7.7-.16.65-.15,1.43-.42,1.54-2.7,1.16-4.53,3.22-6.12,5.57-.15.22-.47.33-.86.59"/>
  <path d="M90.21,71.03c.08.5.27,1.01.24,1.51-.15,2.38-.31,4.77-.58,7.14-.05.46-.58.87-.89,1.3-.19-.45-.58-.92-.55-1.35.2-2.55.48-5.09.78-7.63.04-.35.35-.66.54-.99.15,0,.3.02.45.03"/>
  <path d="M124.39,33.59c-.29.65-.37,1.22-.69,1.48-2.09,1.65-4.23,3.24-6.38,4.81-.33.24-.78.33-1.28.53.13-2.34,4.75-6.12,8.35-6.83"/>
  <path d="M99.71,53.98c-.7-1.9,2.35-6.8,5.57-8.76,0,.65.18,1.24-.03,1.55-1.65,2.38-3.38,4.71-5.09,7.05-.06.08-.21.08-.45.17"/>
  <path d="M102.68,28.92c-.22-2.34,6.34-6.31,8.99-5.24-3.07,1.79-5.96,3.48-8.99,5.24"/>
  <path d="M110.54,35.46c1.77-2.69,4.06-4.73,7.28-5.57.37-.09.82.17,1.24.26-.3.34-.56.75-.91,1.01-1.89,1.4-3.79,2.78-5.71,4.15-.47.33-1.01.56-1.51.84-.13-.23-.25-.46-.38-.69"/>
  <path d="M115.74,85.79c-1.06-3.1-2.11-6.19-3.32-9.75.8.31,1.57.38,1.67.68.9,2.7,1.7,5.43,2.47,8.16.07.25-.23.6-.35.9h-.48"/>
  <path d="M149.08,78.66c.41-1.64.82-3.29,1.22-4.93.25.02.51.04.76.06.12.98.24,1.96.38,3.08.5-.02.99-.05,1.95-.09-.39,1.31-.74,2.47-1.13,3.76-1.25-.65-1.09-2.62-3.06-1.05-.04-.27-.09-.55-.13-.82"/>
  <path d="M141.89,16.94c-2.06.47-4.12.94-6.82,1.56.6-.76.83-1.34,1.24-1.54,2.6-1.25,5.24-2.38,8.17-1.53.06.22.11.45.17.67-.94.29-1.88.58-2.82.88l.05-.04Z"/>
  <path d="M111.43,78.3c.91,2.6,1.85,5.19,2.68,7.82.11.33-.35.85-.55,1.28-.37-.33-.92-.59-1.07-.99-.74-2.05-1.4-4.13-2.01-6.23-.16-.54-.02-1.16-.02-1.74.32-.05.65-.09.97-.14"/>
  <path d="M119.62,25.53c-1.21-3.16-2.32-6.06-3.59-9.37,2.63,1.1,5.03,7.6,3.59,9.37"/>
  <path d="M189.73,48.03c-.38-.26-.78-.43-1-.72-1.46-2.02-2.89-4.06-4.3-6.12-.16-.23-.15-.66-.05-.94.04-.12.53-.2.76-.12,1.35.45,4.96,6.07,4.88,7.54,0,.05-.07.09-.29.36"/>
  <path d="M113.82,25.98c-2.63,1.66-5.26,3.31-8,5.04-.23-2.05,5.8-6.1,8-5.04"/>
  <path d="M118.53,72.34c2.22,1.19,4.38,7.5,3.16,8.76-1.47-2.84-2.48-5.74-3.16-8.76"/>
  <path d="M174.42,26.19c2.83,2.22,5.3,4.14,6.99,6.76-.25.24-.5.47-.74.71-2.18-1.98-4.37-3.95-6.5-5.97-.15-.14.11-.72.25-1.5"/>
  <path d="M182.89,23.24c.45.14,1.04.14,1.33.44,1.59,1.67,3.12,3.4,4.62,5.16.21.25.13.74.18,1.12-.37-.03-.91.09-1.1-.11-1.81-2-3.57-4.05-5.34-6.09.1-.17.2-.34.3-.52"/>
  <path d="M121.39,94.94c.17-.47.21-1.06.52-1.38,1.7-1.76,3.46-3.47,5.24-5.15.23-.21.71-.16,1.07-.23-.04.37.07.89-.13,1.1-2.01,2.02-4.06,3.99-6.11,5.97-.2-.1-.4-.21-.6-.32"/>
  <path d="M102.08,45.7l-6.01,6.37-.58-.26c.1-.53.01-1.26.33-1.56,1.87-1.8,3.44-4.03,5.85-5.14.14.2.27.4.41.6"/>
  <path d="M126.56,36.82c-2.24,1.43-4.46,2.89-6.73,4.26-.33.2-.91,0-1.38-.02.2-.37.3-.87.61-1.07,1.92-1.3,3.86-2.57,5.85-3.76.4-.24,1.02-.1,1.54-.14.04.24.07.49.11.73"/>
  <path d="M124.2,28.35c-.57-.52-.82-.64-.88-.82-.74-2.32-1.48-4.63-2.13-6.98-.11-.38.24-.89.38-1.34.3.29.76.53.88.89.67,1.9,1.31,3.82,1.83,5.76.17.64-.04,1.38-.09,2.48"/>
  <path d="M148.05,60.75c-3.09,1.05-5.7,1.93-8.71,2.95.11-.52.09-1.37.34-1.45,2.34-.8,4.71-1.49,7.09-2.17.19-.05.48.24,1.28.67"/>
  <path d="M142.88,20.66c-.87,1.33-6.64,4.36-7.68,4.12,1.07-2.14,5.76-4.73,7.68-4.12"/>
  <path d="M121.77,56.43c.69,2.83,1.29,5.23,1.84,7.63.06.26-.13.75-.34.84-.22.09-.81-.11-.85-.29-.62-2.28-1.21-4.58-1.69-6.89-.06-.3.57-.74,1.04-1.3"/>
  <path d="M119.11,56.53c.13.93.22,1.42.27,1.92.19,2.13.38,4.26.5,6.4.02.36-.31.74-.48,1.12-.32-.19-.9-.36-.92-.58-.18-2.55-.3-5.1-.36-7.65,0-.28.45-.57.99-1.2"/>
  <path d="M110.13,45.13c.05,1.63-3.86,6.95-5.24,7.28-.32-1.57,3.06-6.35,5.24-7.28"/>
  <path d="M97.94,60.18c-1.83.51-3.67.99-5.49,1.53-1.1.32-2.17.86-3.67,0,.63-.38.97-.67,1.36-.81,1.78-.65,3.58-1.26,5.36-1.89,1.24-.44,2.11-.2,2.39,1.23,0,0,.05-.05.05-.05"/>
  <path d="M184.3,47.06c-1.71-2.17-3.41-4.33-5.13-6.51,1.48-1.12,4.81,2.4,5.64,6.05l-.5.47Z"/>
  <path d="M170.25,29.53c1.48-.93,5.49,2.14,6.81,5.22-.87.26-5.36-3.18-6.81-5.22"/>
  <path d="M111.6,14.43c2.41,1.72,4.91,6.2,4.34,7.65-1.49-.75-4.67-6.18-4.34-7.65"/>
  <path d="M92.5,64.14c-2.01.86-4.01,1.75-6.05,2.54-.65.25-1.4.27-2.1.39-.07-.23-.14-.46-.21-.69.68-.41,1.33-.88,2.05-1.23,1.38-.67,2.78-1.33,4.21-1.88.9-.35,1.95-.68,2.05.92,0,0,.04-.05.04-.05"/>
  <path d="M150.17,70.72c-1.37,2.3-1.27,5.24-3.3,7.27-.33-2.65.82-4.92,1.66-7.24.1-.29.81-.35,1.24-.52.13.16.27.32.4.49"/>
  <path d="M130.07,74.16c-.25-.16-.61-.26-.68-.46-.07-.21.05-.6.23-.76.79-.72,1.7-1.31,2.43-2.08.52-.55.74-1.38,1.22-1.98.45-.56,1.05-1,1.63-1.44.08-.06.52.13.57.28.08.25.09.65-.06.83-1.39,1.65-2.8,3.28-4.24,4.89-.26.3-.68.46-1.09.73"/>
  <path d="M147.85,67.5c.74,1.48-2.59,6.93-4.63,7.52.95-3.01,2.56-5.26,4.63-7.52"/>
  <path d="M180.15,14.8c-2.93.88-5.69,1.71-8.75,2.63,1.27-2.69,6.48-4.17,8.75-2.63"/>
  <path d="M137.64,71.15c.44.06,1.03-.05,1.28.19,1.52,1.49,2.99,3.03,4.4,4.62.21.24.01.85,0,1.28-.38-.15-.88-.19-1.14-.46-1.62-1.7-3.18-3.45-4.76-5.18.07-.15.14-.3.2-.45"/>
  <path d="M141.84,16.98c.38.37.92.69,1.07,1.14.07.22-.54.78-.95,1.01-1.55.85-3.14,1.63-4.74,2.41-.5.24-1.05.39-1.68.35.91-2.21,3.02-2.71,4.76-3.71.57-.33,1.06-.82,1.59-1.23,0,0-.05.04-.05.04"/>
  <path d="M132.22,87.68c2.28,1.44,4.54,7.15,3.42,8.57-1.17-2.81-2.98-5.15-3.42-8.57"/>
  <path d="M117.02,46.35c-.14.63-.13,1.08-.32,1.38-1.09,1.71-2.21,3.41-3.39,5.07-.18.25-.68.27-1.03.4-.06-.36-.3-.84-.15-1.07,1.15-1.82,2.34-3.6,3.59-5.35.18-.25.71-.24,1.31-.43"/>
  <path d="M144.59,13.9c-.59.1-1.12.21-1.66.27-1.89.2-3.78.4-5.67.56-.31.03-.63-.13-.95-.2.09-.37.07-.88.3-1.1.92-.87,6.76-.9,7.76-.09.08.06.08.21.21.57"/>
  <path d="M188.63,40.05c.5.2,1.17.27,1.49.63,2.09,2.38,3.26,5.06,2.66,6.63-1.58-2.37-3.01-4.52-4.45-6.68.1-.19.2-.39.3-.58"/>
  <path d="M108.91,21.86c-1.26.65-2.53,1.29-3.78,1.94-.9.47-1.77.99-2.69,1.41-.26.12-.68.02-.95-.12-.11-.06-.11-.56,0-.77.72-1.27,5.5-3.24,7.14-2.99.09.18.19.35.28.53"/>
  <path d="M123.03,90.34c-.12-.07-.44-.16-.46-.29-.04-.31-.05-.76.13-.95,1.52-1.59,3.07-3.15,4.65-4.67.18-.17.62-.08.93-.12.03.33.22.81.07.96-1.59,1.66-3.23,3.27-4.87,4.88-.08.08-.22.09-.45.19"/>
  <path d="M92.64,51.24c-.08-.82-.27-1.33-.11-1.48,1.66-1.61,3.36-3.17,5.09-4.71.13-.12.69,0,.77.14.12.24.15.75-.02.9-1.77,1.64-3.59,3.23-5.73,5.14"/>
  <path d="M162.02,66.79c.83,2.46,1.32,4.71.93,7.09-.02.15-1.08.39-1.29.19-.65-.6-.47-6.24.36-7.28"/>
  <path d="M186.42,22.93c2.87-.14,6.39,4.11,5.31,5.71-1.78-1.92-3.55-3.81-5.31-5.71"/>
  <path d="M185.08,77.18c0-1.5.92-1.51,1.94-1.09,1.48.61,2.95,1.26,4.36,2.02.42.23.62.87.92,1.33-.14.13-.28.26-.42.38-2.28-.9-4.57-1.79-6.85-2.69,0,0,.05.05.05.05"/>
  <path d="M139.05,90.17c-.41.55-.53.86-.68.87-.31.02-.76,0-.93-.19-1.37-1.55-2.71-3.14-4.01-4.76-.17-.21-.15-.65-.09-.96.02-.12.51-.3.57-.24,1.72,1.74,3.42,3.5,5.14,5.28"/>
  <path d="M122.31,70.52c.86,2.11,1.74,4.21,2.54,6.35.08.22-.27.71-.54.91-.1.08-.7-.21-.8-.45-.76-1.74-1.5-3.5-2.14-5.29-.14-.38.13-.91.21-1.37.24-.05.49-.1.73-.15"/>
  <path d="M141.07,66.74c.33-.84.38-1.54.73-1.77,1.55-.99,3.18-1.87,4.81-2.72.21-.11.62.16.94.25-.18.46-.22,1.17-.55,1.35-1.76.95-3.59,1.77-5.93,2.89"/>
  <path d="M188.57,69.89c-.21.36-.4.68-.59,1-.28-.24-.71-.42-.82-.72-.65-1.66-1.27-3.34-1.8-5.05-.11-.35.19-.84.3-1.26.37.22.96.35,1.08.66.66,1.73,1.21,3.5,1.83,5.36"/>
  <path d="M152.76,61.11c1.69.38,3.04.62,4.34,1.03.36.11.56.72.83,1.11-.4.1-.81.31-1.19.27-1.23-.13-2.47-.28-3.67-.57-.59-.14-1.11-.59-1.66-.9.51-.35,1.02-.7,1.36-.94"/>
  <path d="M136.38,74.95c.62.13,1.39.08,1.83.44,1.23,1.01,2.36,2.17,3.45,3.33.29.3.32.85.46,1.29-.47-.09-1.07-.03-1.38-.31-1.51-1.33-2.94-2.75-4.4-4.14.01-.21.03-.41.04-.62"/>
  <path d="M103.23,90.29c.41,2.36.83,4.72,1.32,7.55-2.29-1.6-2.97-5.59-1.32-7.55"/>
  <path d="M139.81,86.03c-.32.59-.38.9-.54.97-.23.09-.64.12-.78-.02-1.43-1.35-2.85-2.73-4.19-4.16-.11-.12.3-.74.47-1.13,1.69,1.45,3.38,2.9,5.05,4.34"/>
  <path d="M132.42,75.52c-1.91,1.52-3.75,3-5.61,4.48-.67-1.27.59-2.92,3.67-4.79.64-.39,1.51-.99,1.93.3"/>
  <path d="M133.65,99.33c-1.04-2.41-2.4-4.46-2.28-7.31,2.18,1.67,3.54,5.92,2.28,7.31"/>
  <path d="M62.24,26.81c0,.6.1,1.22-.03,1.79-.1.44-.49.82-.75,1.22-.29-.37-.81-.71-.84-1.1-.11-1.24-.1-2.51,0-3.76.03-.36.48-.69.74-1.03.31.37.77.69.89,1.11.15.56.04,1.19.04,1.78h-.03Z"/>
  <path d="M120.32,46.92c-.12.99-.02,1.59-.26,1.97-.79,1.24-1.7,2.41-2.6,3.57-.22.28-.59.44-.89.66-.12-.41-.44-.89-.32-1.21.69-1.94,1.9-3.48,4.07-4.99"/>
  <path d="M130.88,28.64c.96,2.6,2,4.68,1.07,7.62-1.39-2.18-1.57-4.21-1.81-6.21-.04-.32.34-.69.73-1.41"/>
  <path d="M194.74,27.06c-1.63-1.99-3.6-3.22-4.44-5.7,2.53.7,4.9,3.55,4.44,5.7"/>
  <path d="M167.35,31.08c.46.05,1.08-.07,1.37.19,1.2,1.04,2.35,2.17,3.42,3.34.22.24.05.85.07,1.29-.38-.14-.87-.17-1.14-.43-1.29-1.28-2.53-2.63-3.78-3.95.02-.15.04-.29.07-.44"/>
  <path d="M87.2,75.57c-.32,2.31-.61,4.37-.94,6.69-1.68-1.91-1.12-5.89.94-6.69"/>
  <path d="M127.55,31.37c-.37-.71-.86-1.38-1.09-2.13-.32-1.01-.52-2.08-.61-3.13-.03-.39.38-.83.59-1.24.29.29.74.54.85.89.36,1.19.64,2.41.87,3.63.11.58.02,1.19.02,1.79-.21.07-.41.13-.62.19"/>
  <path d="M126.3,63.27c-1.72-1.31-2.57-4.64-1.85-5.86.12-.21.47-.41.69-.39.25.02.66.27.68.46.19,1.78.31,3.56.48,5.79"/>
  <path d="M152.36,59.32c.37-.3.77-.9,1.12-.86,1.59.15,3.17.44,4.73.76.2.04.4.53.4.82,0,.15-.43.46-.65.44-1.81-.19-3.61-.43-5.42-.66-.06-.16-.12-.33-.19-.49"/>
  <path d="M158.06,66.95c-.5,0-1.01.09-1.48-.02-1.2-.27-2.4-.57-3.55-.99-.38-.14-.62-.66-.93-1.01.43-.16.89-.51,1.29-.45,1.17.18,2.33.45,3.44.84.55.19.97.72,1.46,1.1-.07.18-.15.35-.22.53"/>
  <path d="M148.07,65.03c-1.51,1.64-2.9,3.14-4.35,4.71-1.08-1.22.12-1.95.76-2.59.97-.98,1.76-2.55,3.59-2.12"/>
  <path d="M191.68,72.44c-.41-.37-.95-.63-1.12-1.04-.49-1.2-.86-2.44-1.2-3.69-.07-.25.16-.68.39-.87.14-.11.57,0,.8.15.68.4,1.61,4.5,1.13,5.46"/>
  <path d="M178.66,60.74c1.76,1.25,2.95,4.68,2.24,6.25-1.39-.98-2.81-4.73-2.24-6.25"/>
  <path d="M158.21,70.74c-1.87-1.35-4.34-1.1-5.86-2.98,1.65-.4,5.3.7,5.83,1.66.19.34.03.87.03,1.32"/>
  <path d="M137.62,32.24c-.36-2.26,2.62-5.17,4.91-4.76-1.71,1.66-3.21,3.11-4.91,4.76"/>
  <path d="M164.5,33.16c1.85.16,4.56,2.86,4.23,4.91-1.74-1.62-3.23-3.01-4.72-4.4l.49-.52Z"/>
  <path d="M124.57,43.22c1.55-.77,3.12-1.57,4.74-2.29.13-.06.85.64.79.83-.27.85-4.39,2.37-5.27,2.04-.04-.01-.05-.1-.26-.58"/>
  <path d="M80.17,8.03c1.39-1.4,5.27-1.38,6.49,0h-6.49Z"/>
  <path d="M97.38,19.84c1.7-1.56,3.56-2.29,5.76-1.23-1.87.68-3.58,2.03-5.76,1.23"/>
  <path d="M70.09,100.1c.85,1.39,1.74,2.76,2.52,4.19.17.31-.08.84-.14,1.27-.36-.2-.85-.3-1.07-.6-.65-.92-1.27-1.87-1.74-2.89-.24-.52-.14-1.19-.19-1.8.21-.06.42-.11.63-.17"/>
  <path d="M189.15,74.38c-2.33,1.23-4.68.81-6.58-.99,2.38-.83,4.19.4,6.58.99"/>
  <path d="M80.99,75.62c-1.9,1.21-3.4,2.17-4.91,3.13-.16-.1-.31-.19-.46-.29.08-.42.01-.97.26-1.25.88-1.01,3.63-2.04,5.12-1.59"/>
  <path d="M126.09,83.91c-.08-1.64,2.13-3.97,3.28-4.11.25-.03.58.05.78.2.12.09.17.55.08.63-1.36,1.11-2.75,2.19-4.13,3.28"/>
  <path d="M174.81,55.3c1.38-.48,2.75-1.02,4.16-1.42.3-.09.74.3,1.12.47-.23.29-.41.72-.71.84-.99.4-2,.77-3.04,1-.47.1-1.02-.14-1.53-.23v-.67"/>
  <path d="M185.34,59.42c.36-.2.7-.51,1.07-.57,1.05-.16,2.12-.28,3.18-.26.4,0,.79.48,1.19.73-.36.24-.7.65-1.07.67-1.41.08-2.83.03-4.25.03l-.11-.62Z"/>
  <path d="M153.64,71.63c1.63-.55,5.01.87,5.35,1.77.07.19.02.58-.08.63-.3.13-.75.28-.98.15-1.32-.73-2.59-1.53-4.28-2.55"/>
  <path d="M148.13,13.53c.56,2.03,1.02,3.68,1.56,5.64-2.21-.85-3.08-3.87-1.56-5.64"/>
  <path d="M129.33,62.01c-1.66-.88-2.42-3.3-1.67-4.27.15-.2.53-.39.73-.33.28.08.66.39.69.63.13,1.21.17,2.44.25,3.98"/>
  <path d="M167.67,20.12c1.27,1.45,2.27,2.87,2.48,4.93-2.11-.88-3.29-3.22-2.48-4.93"/>
  <path d="M62.23,104.95c0,.36.11.76-.03,1.06-.16.38-.52.67-.8,1-.28-.36-.72-.7-.81-1.1-.14-.62-.13-1.32,0-1.95.09-.43.49-.8.75-1.19.3.43.65.84.88,1.3.12.24.02.58.02.88h-.02Z"/>
  <path d="M123.23,69.14c2.03.49,3.14,2.88,2.56,4.62-2.01-.87-1.58-2.87-2.56-4.62"/>
  <path d="M152.21,6.66c.15,1.6.33,3.19.42,4.8.01.2-.43.51-.71.61-.12.04-.55-.33-.56-.52-.05-1.61-.03-3.22-.03-4.83.29-.02.58-.04.87-.07"/>
  <path d="M156.2,75.44c1.34-.65,2.92.14,4.56,2.16-1.26.73-2.75.04-4.56-2.16"/>
  <path d="M157.99,10.91c1.37-.88,4.62-1.02,5.34-.43.23.19.38.6.37.9,0,.18-.42.52-.61.49-1.59-.25-3.17-.58-5.1-.95"/>
  <path d="M124.71,48.28c-1.36,1.44-2.37,2.57-3.44,3.63-.17.17-.65.1-.96.03-.1-.02-.21-.41-.17-.6.18-1.06,2.82-3.09,4.57-3.05"/>
  <path d="M128.78,46.12c.02-2.12,2.49-3.36,4.82-2.49-1.73.89-3.13,1.62-4.82,2.49"/>
  <path d="M148.82,10.29c1.42,1.13,1.58,2.69,1.68,4.25,0,.13-.78.53-1,.41-.62-.32-1.12-3.74-.68-4.67"/>
  <path d="M161.73,8.64c1.42-1,3.65-.94,5.14.03-1.02.9-3.29.93-5.14-.03"/>
  <path d="M160.66,55.6c-.78-1.6-2.31-2.53-2.42-4.44,2.44.78,3.67,2.88,2.42,4.44"/>
  <path d="M188.28,17.7c1.69-.85,3-1.51,4.31-2.17.16.14.32.29.48.43-.2.4-.32,1.05-.63,1.16-1.15.42-2.13,1.97-4.16.58"/>
  <path d="M156.41,11.98c1.54.44,2.8.79,4.43,1.26-2.15,1.48-4.24.9-4.43-1.26"/>
  <path d="M142.64,44.27c-.65-2.37.63-4.08,2.85-3.9-.97,1.32-1.79,2.45-2.85,3.9"/>
  <path d="M144.26,22.6c1.52.52,2.83,2.63,2.48,3.45-.11.26-.7.32-1.07.47-.43-1.2-.86-2.4-1.41-3.92"/>
  <path d="M160.95,24.8c.58.81,1.17,1.61,1.71,2.45.14.21.24.59.14.78-.1.19-.63.4-.7.33-.64-.65-1.3-1.31-1.77-2.08-.21-.35.01-.96.04-1.45.19,0,.38-.02.58-.03"/>
  <path d="M138.1,34.22c.77-.96,1.52-1.94,2.34-2.87.11-.13.62-.1.76.04.15.16.23.63.11.79-.75.96-1.57,1.87-2.37,2.79-.28-.25-.56-.5-.83-.75"/>
  <path d="M135.29,38.51c-2.07-.74-1.82-2.09-1.83-3.28,0-.18.46-.56.55-.52.39.19.96.45,1.03.78.19.87.17,1.79.25,3.02"/>
  <path d="M112.14,41.3c-.78.54-1.18.93-1.27.87-.94-.65-1.84-1.36-2.71-2.11-.07-.06.23-.53.35-.81,1.09.62,2.19,1.24,3.63,2.05"/>
  <path d="M194.94,20.81c.8.8,1.63,1.56,2.38,2.41.14.16,0,.64-.12.92-.05.12-.53.21-.61.13-.85-.87-1.66-1.78-2.48-2.68l.84-.78"/>
  <path d="M170.52,55.53c1.18-.77,2.21-1.44,3.25-2.12.15.09.31.18.46.27-.11.46-.11,1.24-.35,1.32-.98.33-1.74,1.88-3.36.53"/>
  <path d="M189.4,61.26h4.54c-1.39,1.51-2.92,1.54-4.54,0"/>
  <path d="M124.91,52.87c-.84-1.68.19-3.11,2.4-2.99-.77.96-1.53,1.91-2.4,2.99"/>
  <path d="M160.66,37.31c.79.6,1.61,1.15,2.33,1.82.14.13-.15.71-.24,1.09-.72-.4-1.51-.7-2.12-1.22-.32-.28-.29-.94-.42-1.43.15-.09.3-.17.45-.25"/>
  <path d="M154.36,15.9c1.32-1.32,2.66-1.31,4.34-.01-1.53.78-2.84.38-4.34.01"/>
  <path d="M194.34,65.19c-.96-.71-1.68-1.24-2.39-1.76.31-.21.69-.67.91-.6.78.26,1.51.69,2.25,1.06-.2.35-.41.69-.77,1.31"/>
  <path d="M193.76,69.66c.45,1.04.84,1.81,1.1,2.62.07.23-.15.73-.37.83-.24.12-.71.03-.94-.16-.61-.48-.57-2.14.21-3.29"/>
  <path d="M13.05,131.91c-.64-.62-1.05-1.01-1.46-1.41.5-.21.99-.59,1.49-.59.48,0,.97.39,1.45.61-.41.39-.83.78-1.48,1.39"/>
  <path d="M77.29,173.51h-3.71c.98-1.69,2.22-1.73,3.71,0"/>
  <path d="M139.64,67.96c1.11.93,1.97,1.64,2.97,2.47-1.92.69-3.24-.37-2.97-2.47"/>
  <path d="M158.61,26.59c1.14,1.06,2.22,1.72,1.48,3.56-.87-1.14-2.25-1.64-1.48-3.56"/>
  <path d="M59.31,15.34c1.09-.51,2.17-.76,3.15.68h-3.19c.01-.22.03-.45.04-.68"/>
  <path d="M184.2,117.09h3.71c-1.36,1.44-2.47,1.44-3.71,0"/>
  <path d="M112.89,177.75c-.64-.58-1.06-.96-1.48-1.34.49-.21.98-.58,1.47-.58.49,0,.99.35,1.49.55-.42.39-.83.78-1.47,1.37"/>
  <path d="M130.82,22.09c.63.95,1.12,1.68,1.82,2.73-2.47-.35-2.87-1-1.82-2.73"/>
  <path d="M158.57,45.01c-.83-.34-1.67-.68-2.57-1.05,1.03-1.39,1.93-1.14,2.78.53l-.22.52Z"/>
  <path d="M166.05,55.61c1.13-.66,1.91-1.11,2.85-1.67.07,2.08-.62,2.5-2.85,1.67"/>
  <path d="M128.53,50.12c1.41,1.65.23,2.03-.57,2.6-.21-.1-.41-.21-.62-.31.4-.76.79-1.53,1.19-2.29"/>
  <path d="M130.55,60.7v-3.39c1.43,1.4,1.37,2.39,0,3.39"/>
  <path d="M100.32,94.21c.71.36.8.37.81.41.13.88.25,1.77.38,2.66-.27.02-.76.08-.77.06-.15-.91-.26-1.84-.42-3.13"/>
  <path d="M127.98,70.06c-.42.36-.72.61-1.01.86-.27-.59-.65-1.16-.77-1.78-.05-.26.42-.63.65-.95.33.55.67,1.11,1.13,1.87"/>
  <path d="M148.25,58.23c.06-.74.1-1.49.23-2.22.01-.07.59-.04.9-.05v2.29h-1.13Z"/>
  <path d="M153.4,18.85c.96-1.55,1.81-1.48,2.91,0h-2.91Z"/>
  <path d="M195.32,66.25c1.29-.64,1.95.16,2.54,1.12-.09.21-.17.42-.26.63l-2.54-1.03c.08-.24.17-.49.25-.73"/>
  <path d="M104.78,77.14c.73-.34,1.46-.69,2.18-1.03.11.3.37.82.31.85-.65.42-1.35.77-2.04,1.14-.15-.32-.3-.64-.46-.96"/>
  <path d="M166.53,62.17c-.27-.73-.54-1.46-.82-2.19.37-.02,1.01-.17,1.07-.05.28.62.41,1.31.59,1.98l-.84.26"/>
  <path d="M132.52,51.2c-.32.61-.59,1.26-1.01,1.8-.1.13-.67-.09-1.02-.15.4-.69.79-1.38,1.19-2.08.28.14.56.29.84.43"/>
  <path d="M187.35,17.87c-.61.44-1.22.88-1.84,1.32-.11-.35-.4-.9-.28-1.01.48-.45,1.09-.76,1.65-1.12.16.27.31.54.47.81"/>
  <path d="M94,30.98c-.9-1.41-.72-2.24,1.4-2.5-.6,1.08-1,1.79-1.4,2.5"/>
  <path d="M42.38,117.92c3.31-.34,6.61-.96,9.92-.98,21.85-.12,43.69-.1,65.54-.13,6.6,0,13.21-.1,19.8.02,1.82.03,3.63.72,5.44,1.1l-.12.76H42.39c0-.26,0-.52,0-.77"/>
  <path d="M98.59,115.21c-7.38,0-14.77-.02-22.15.02-1.41,0-2.18-.32-1.94-1.94.18-1.21.98-1.17,1.85-1.16,4.56.06,9.12.11,13.68.18,10.02.16,20.05.34,30.07.51.3,0,.65-.1.89.02.66.34,1.27.77,1.91,1.16-.66.36-1.31,1.03-1.97,1.04-7.44.07-14.89.05-22.33.05v.13"/>
  <path d="M174.61,22.74l-.9,1.29c-.29-.37-.62-.72-.85-1.12-.33-.55-.6-1.14-.87-1.72-.21-.44-.38-.9-.53-1.37-.01-.04.51-.3.53-.27.34.42.85.86.9,1.35.12,1.15.42,1.96,1.76,1.9l-.05-.05"/>
  <path d="M131.5,145.67c-.9,0-1.8.07-2.69-.04-.37-.05-.68-.49-1.02-.75.32-.28.62-.79.95-.8,1.79-.08,3.59-.07,5.38,0,.31.01.6.53.9.81-.34.26-.65.69-1.02.74-.82.11-1.67.04-2.51.03"/>
  <path d="M52.98,144.11h4.28c-1.54,1.47-2.71,1.5-4.28,0"/>
  <path d="M119.85,122.95c4.5,0,9-.02,13.5,0,2.79.01,4.11,1.29,4.17,4.02.04,1.68-.11,3.37.03,5.04.28,3.36-1.41,4.65-4.84,4.69-5.16.06-10.32,0-15.48,0-3.36,0-6.72.02-10.08.03-3.91.01-5.1-1.14-5.1-4.99,0-1.56.02-3.12.05-4.68.06-2.86,1.22-4.07,4.07-4.1,4.56-.04,9.12-.01,13.68-.01M119.9,135.02v-.04c4.5,0,9,.02,13.5,0,2.17-.01,2.75-.65,2.76-2.83,0-1.38.01-2.76,0-4.14-.01-2.8-.61-3.4-3.36-3.4-8.58,0-17.16,0-25.74,0-.54,0-1.08.03-1.62.09-1.34.15-2.02.87-1.99,2.27.04,1.56,0,3.12,0,4.68,0,2.92.48,3.39,3.47,3.39,4.32,0,8.64,0,12.96,0"/>
  <path d="M81.89,122.91c3.66,0,7.32,0,10.97,0,2.65,0,4.02,1.22,4.17,3.89.12,2.03.12,4.08.03,6.11-.1,2.3-1.45,3.72-3.76,3.74-7.56.07-15.11.09-22.67,0-2.63-.03-3.9-1.52-3.95-4.14-.04-1.86-.06-3.72.02-5.58.11-2.73,1.51-4.02,4.21-4.03,3.66,0,7.32,0,10.98,0h0M81.84,135.01v-.04c3.78,0,7.57-.02,11.35.01,1.6.01,2.3-.69,2.26-2.29-.05-1.92-.08-3.84,0-5.76.07-1.63-.71-2.33-2.23-2.34-7.5-.03-15.01-.06-22.51-.05-1.44,0-2.39.6-2.33,2.28.06,1.74,0,3.48.01,5.22,0,2.7.24,2.95,3.01,2.96,3.48.02,6.97,0,10.45,0"/>
  <path d="M47.08,136.91c-3.06,0-6.12.03-9.18-.01-2.93-.04-4.46-2.44-3.19-5.09,1.16-2.42,2.49-4.77,3.74-7.14.68-1.29,1.74-1.88,3.21-1.87,4.98.03,9.96-.01,14.93.03,2.15.02,3.36,1.12,3.48,3.31.14,2.45.13,4.92-.01,7.37-.13,2.27-1.48,3.37-3.81,3.38-3.06.02-6.12,0-9.18,0h0ZM47.07,135.41v-.03c2.94,0,5.87.06,8.81-.02,2.12-.06,2.61-.58,2.64-2.54.03-2.1-.03-4.19.01-6.29.04-1.72-.92-2.38-2.45-2.39-4.67-.03-9.35-.07-14.02.06-.81.02-1.94.61-2.34,1.29-1.41,2.35-2.57,4.85-3.8,7.3-.49.98-.24,1.81.81,2.17.78.26,1.62.42,2.44.44,2.63.05,5.27.02,7.9.02"/>
  <path d="M130.46,166.65c.02,2.03-1.18,3.34-3.13,3.39-2.06.05-3.71-1.43-3.7-3.31,0-1.72,1.73-3.47,3.46-3.52,1.82-.04,3.36,1.52,3.38,3.44M125.33,166.73c.04,1.24.8,2.05,1.91,1.79.73-.17,1.27-1.17,1.89-1.8-.66-.64-1.22-1.63-1.99-1.83-1.18-.29-1.82.6-1.8,1.84"/>
  <path d="M51.98,170.03c-2.01-.01-3.48-1.38-3.5-3.27-.02-1.8,1.74-3.57,3.54-3.57,1.67,0,3.48,1.83,3.46,3.48-.03,1.82-1.64,3.37-3.5,3.36M52.37,164.52c-.28,0-.56,0-.85.01-.5.69-1.48,1.48-1.37,2.05.16.77,1.06,1.78,1.82,1.95,1.23.28,1.85-.89,1.71-1.95-.1-.74-.85-1.38-1.31-2.07"/>
  <path d="M119.9,135.02c-4.32,0-8.64,0-12.96,0-2.99,0-3.47-.46-3.47-3.39,0-1.56.03-3.12,0-4.68-.04-1.4.64-2.12,1.99-2.27.53-.06,1.08-.09,1.62-.09,8.58,0,17.16,0,25.74,0,2.75,0,3.35.6,3.36,3.4,0,1.38,0,2.76,0,4.14,0,2.18-.59,2.82-2.76,2.83-4.5.03-9,0-13.5,0v.04Z"/>
  <path d="M81.84,135.01c-3.48,0-6.97.01-10.45,0-2.77-.01-3.01-.27-3.01-2.96,0-1.74.05-3.48-.01-5.22-.06-1.67.88-2.28,2.33-2.28,7.51,0,15.01.02,22.51.05,1.52,0,2.3.71,2.23,2.34-.08,1.92-.05,3.84,0,5.76.04,1.6-.66,2.3-2.26,2.29-3.78-.03-7.56-.01-11.35-.01v.04Z"/>
  <path d="M47.07,135.41c-2.63,0-5.27.03-7.9-.02-.82-.02-1.67-.17-2.44-.44-1.05-.36-1.3-1.18-.81-2.17,1.23-2.45,2.39-4.95,3.8-7.3.4-.67,1.53-1.26,2.34-1.29,4.67-.12,9.35-.08,14.02-.06,1.53,0,2.49.67,2.45,2.39-.05,2.1.02,4.19-.01,6.29-.03,1.95-.52,2.48-2.64,2.54-2.93.08-5.87.02-8.81.02v.03"/>
</svg>