<?xml version="1.0" encoding="UTF-8"?>
<svg id="_0" data-name="0" xmlns="http://www.w3.org/2000/svg" viewBox="0 0 197.63 305.36"
  width="197.63" height="305.36">
  <path
    d="M197.51,281.86c-2.17-2.76-16.72-23.66-63.49-32.07-4.51-.81-9.1-1.19-13.64-1.82-9.34-1.29-14.79-4.56-14.77-14.86,0-4.97-.2-9.94-.35-14.91h-.02c-.08-2.77-.16-5.55-.16-8.32h-.04c0-8.63.69-17.26.04-25.89-.08-1.12.16-2.09.92-3.03.57-.7,1.02-.65,1.45-.13.44.54,1.94-.38,1.57.82-.61,1.98.65,1.95,2.05,2.29,1.44.34,3.18.24,3.83-.5,1.7-1.9,3.75-1.17,5.63-1.13,5.54.1,11.01.04,16.11-2.47.4-.2.4-.74.01-.95-.48-.27-.91-.51-.88-.57,1.15-2.7-1.3-1.6-2.19-1.73-2.11-.29-4.43.31-6.54-1.4-.31-.25-.27-.73.1-.91,4.17-1.98,9.21-1.67,12.84-4.45.14-.03.29-.05.43-.07,1.06-.22,2.11-.93,3.11-1.55.19.24.37.47.57.69.58.65.87,1.66,2.15.75,2.04-1.46,2.24-.29,2.08,1.37-.09.97,3.39,4.01,3.97,3.52,2.43-2.09,5.48-3.84,7.29-6.16,1.98-2.54,3.48-5.33,6.57-6.93-.99-1.17-1.86-.53-2.34-.06-1.55,1.48-3.63.68-5.36,1.29-.43.15-.88-.06-.9-.54-.01-.23.25-.65.45-.68,2.51-.44,3.95-2.9,6.64-3.02.62-.03,1.97-.45,1.23-1.08-.6-.51.14-2.42-1.78-1.69-.61.23-1.17.15-2.01-.4-1.88-1.25-2.68-3.02-3.73-4.72-.16-.26-.53-.36-.79-.2-.72.43-.91,1.35-1.58,1.85-1.7,1.28-3.8,2.1-5.44.84-2.2-1.69-2.93-.96-3.9.94-.68,1.33-.6.97-1.79.11-.6-.43-2.41-1.63-2.96-.69-.94,1.63-2.65,1.52-3.84,2.37-1.04.74-2.34,1.1-2.33,3.24.02,3.58-2.99,5.8-6.88,6.56-.9.18-2.04.12-2.58.94-1.4,2.13-3.03,1.16-4.73.67.34-1.23,1.69-.86,2.43-1.24.39-.2.36-.71,0-.94-2.41-1.52-5.66-.34-7.91-2.07-.28-.22-.72-.1-.87.21-.38.8-.29,1.87-1.41,2.02-1.58.21-.76-1.95-1.99-2.12-1.35.27-.49,2.47-2.22,2.12-1.3-.26-.65-.99-.36-1.66.19-.44-.28-.88-.76-.71-3.01,1.06-3.89.36-4.16-2.95-.05-.59-.09-1.18-.17-1.77-.35-2.41,1.12-2.96,3.22-2.67,3.45.47,11.9-1.73,14.46-3.91,1.62-1.39,3-1.83,5.13-.45,2.72,1.75,5.19,1.05,7.28-1.4,1.29-1.51,4.18-1.59,4.92-.1.3.61.29,1.48,1.25,1.44.83-.03,1.24-.74,1.46-1.4.66-2,2.27-3.41,4.22-3.61,2.41-.24,4.68-1.18,6.93-1.34,5.31-.39,8.12-3.4,10.58-7.15.34-.52,1.27-1.01.42-1.75-.84-.74-1.44-.09-2.18.35-1.53.9-3.67,2.42-4.95,1.17-2.48-2.41-4.11-.66-5.38.62-1.72,1.74-3.26,1.53-5.36.84,1.07-1.02,2.33-.87,3.36-1.29,2.18-.88,1.44-1.44.51-1.96-.46-.26-.34-.92.19-1,1.02-.15,2.09-.07,2.83-.71.4-.35.12-.98-.42-.95-.58.03-1.21.19-1.68-.46.52-.26.96-.48,1.41-.7.53-.27,1.35-.43,1.14-1.17-.22-.8-1.05-.26-1.54-.41-1.98-.62-3.58-.69-4.83,1.28-.34.54-1.42.36-1.92-.3-.5-.66.16-1.02.57-1.46,1.25-1.35,3.29-1.55,4.73-2.6.27-.2.33-.59.08-.81-1.15-1.06-3.82-1.98-.72-2.98,3.27-1.05,4.9-3.52,7.51-5.01.47-.27.67-1.47.26-1.26-1.99,1-4.29-1.82-6.05.57-.29.4-.91.85-1.83.53-.24-3.06,3.01-4.04,4.56-6.24.32-.45-.2-1.02-.73-.79-3.13,1.33-6.85.52-9.58,2.72-.19.15-.72.24-.81.13-2.51-2.92-3.6-.42-5.11,1.05-.71.69-1.56,2.67-2.83,1.2-2.34-2.72-2.58-.12-3.28.81-1.73.24-.23-2.25-1.43-1.5-1.25.78-3.38.67-3.7,2.92-.2,1.38-1.27,3.4-3.45,2.27-1.83-.95-1.63.14-1.91,1.05-.75,2.52.62,4.21,3.48,5.78-2.35-.09-3.42-1.03-4.59-1.53-1.57-.67-2.98-2.19-2.9-3.95.04-.88,1.26-1.37,2.36-1.63.38-.09.95-.36,1.24-.6,2.3-1.86,2.96-5.9,7.43-4.94.13.03.47-.4.54-.66.37-1.44,1.55-1.26,2.73-1.4,5.74-.68,6.29-.77,8.27-3.72.27-.41-.11-.93-.61-.83-1.54.31-3.18.62-5.48-.31,1.06-.41,1.67-.46,1.82-.73,1.13-2.13,4.09-.94,5.35-2.61.56-.74.83-.91,1.57-.67,2.68.84,5.19-.45,5.71-3.05.18-.9.83-.49,1.42-.62,2.83-.61,3.96-3.75,2.1-6.02-.47,1.41.27,3.65-1.56,3.91-1.59.22-3.63-.44-4.15-2.85-.68.83-1.05,1.3-1.44,1.75-.95,1.08-1.86,2.05-3.69,1.75-1.8-.29-1.94-1.3-2.16-2.69-.24-1.51-1.36-1.48-2.59-.72-1.33.82-2.55,1.7-2.97,3.18-.14.5-.92.55-1.1.06-.14-.39-.38-.64-1.01-.62-1.36.04-.97,1.55-1.29,2.42-.67,1.8-2.51,2.13-4.31.22-1.51-1.6-2.05-1.04-3.27.15-1.35,1.32-2.94,2.71-4.72,3.29-1.61.52-1.11-1.79-2.06-2.48-.08-.06-.2-.14-.28-.13-2.52.44-2.62-1.09-2.82-2.77-.06-.46-.67-.65-1.01-.31-1.1,1.12-2.02,2.02-.29,3.24,1.86,1.31,2.74,3.11,3.86,4.96.19.31,0,.71-.37.8-.95.21-1.85.39-2.68.71-1.08.42-2.88-.09-3.11,1.46-.19,1.32,1.5,1.17,2.26,1.82.11.09.23.17.38.18,1.23.1,2.26-.45,3.31-.99,1.72-.88,3.1-.77,3.74,1.46-3.11.26-6.12,1.27-9.21.12h0c-1.53.47-1.99-2.2-3.84-1.08-1.45.89-3.12,1.01-4.07-.64-.81-1.39.99-5.01,2.49-5.47,3.82-1.18,3.96-1.49,2.27-4.69-.23-.44-.35-.93-.49-1.4-.16-.52-.3-.92-1.03-.53-.65.35-1.53,1.26-2.03.12-.31-.72.05-1.74.26-2.58.26-1.03,1.22-1.09,2.03-.81,2.68.9,4.8-.06,7.11-1.27,2.86-1.5,6.02-2.95,8.65.44.29.38.94.7,1.43.69,2.8-.07,5.42,1.01,8.19,1.1,1.16.04,3.06.84,2.32-1.67-.13-.46.46-.97,1.33-.83,1.98.32,4.3-1.28,5.96,1.03.42.58,1.26-.1,1.2-.32-.83-3.32,6.44-.14,4.13-4.55.31,0,.63-.02.94-.02.64,0,1.54.06,1.63-.58.31-2.2,1.49-3.9,3-5.45.4-.41-.04-1.06-.6-.88-.92.29-1.79.47-2.59-.24-1.28-1.13-2.15-.57-3.31-.1-.85.34-1.95,1.33-2.62-.19-.5-1.14-.08-2,1.1-2.72,1.58-.96,3.03-2.12,4.49-3.25.86-.66,1.52-1.43.34-2.47-1.88,1.53-3.64,3.32-6.3,2.81-.4-.08-.59-.53-.35-.84.56-.7,2.14-1.17.56-2.02-3.56-1.91-3.15-3.98-.98-6.5.32-.37.39-.92-.24-1.24-2.63,1.78-2.61,1.79-4.19,4.31-.4.64-.86,1.6-1.89,1.1-1.38-.66-1.87.29-2.61.95-.49.44-.71,1.22-1.7,1.05-3.77-.65-5.64.64-5.29,3.56.04.35-.27.67-.64.61-1.47-.27-.73,2.58-2.38,2.15-.58-.53-.75-1.39-.94-2.25-.23-1.02-.81-1.62-2.01-1.27-1.08.32-1.07,1.08-.79,1.91.25.76.55,1.55.18,2.31-.29.6-.67,1.46-1.2,1.61-.91.26-.93-.75-1.29-1.3-.7-1.08-1.49-2.54-2.79-.41-.4.66-.7.45-1.09-.05-.96-1.23-1.72-.96-2.15.38-.21.66-.16,1.41-1.31,1.57.05-1.53-.3-3.16-1.96-3.57-2-.5-2.15,1.51-3.14,2.5-.32.32-.9.12-.98-.31-.6-3.01.83-4.65,3.84-4.27,3.76.48,7.62,1.66,10.76-1.64.27-.28,1.11-.4,1.5-.23,3.28,1.41,5.13-1.24,7.31-2.43,2.92-1.6,2.69-5.77.06-7.88-.77-.62-1.01-.67-1.64.1-1.33,1.63-1.39,1.58-4.19-.29,2.03.5,2.87,0,2.88-1.39,0-.5.19-1.35.57-1.22,2.94,1.07,2.17-2.84,4.13-2.99.27-.02.48-.21.51-.47.31-2.14,2.68-3.84,2.22-6.23-.09-.49-.78-.61-1.07-.2-1.66,2.35-3.65,4.4-6.02,5.91-4.27,2.71-9.59,2.81-14.41,4.19-.3.09-.87,0-.93-.6.14-.84.98-.98,1.63-1.09,4.63-.75,8.34-3.41,12.47-5.19.56-.24,1.06-.65,1.55-1.01.55-.41.67-1,.55-1.6-.17-.82-.93-.59-1.51-.66-.99-.12-2.43.16-2.6-1.07-.18-1.27,1.17-1.72,2.26-2.12.88-.32,1.79-.58,2.67-.91,2.35-.87,2.58-1.33,2-4-.28.15-.54.29-.8.44-1.05.59-2.25,1.76-3.32.64-.87-.91.65-1.67,1.19-2.41,1.63-2.24,1.32-5.5-.44-6.11-2.99-1.04-1.64-2.99-2.34-4.44-.38-.8.24-1.53.34-2.3.16-1.2-.55-2-1.66-2.16-1.24-.18-1.15,1.11-1.19,1.69-.07,1.29-.7,2.21-1.56,3.08-2,2-4.79,3.45-5.19,6.57-.02.12-.52.18-.8.28-1.26-2.38,1.05-3.54,1.94-5.16.17-.3-.01-.68-.36-.77-2.77-.76-2.66-.88-.9-2.83-1.17-.69-2.29,1.93-3.13.29-.65-1.3.4-2.41,2.11-2.59.13-.01.16-.49.31-.71,1.77-2.78,2.66-5.81,2.89-9.01.06-.78.67-1.53-.42-2.35-1.05-.78-1.83-.23-2.56.04-2.35.88-3.66,2.79-5.02,4.88-.25.39-.89.34-1.05-.09-1.25-3.31,1.12-6.94-1.26-9.94-.25-.32-.78-.3-.98.05-.16.28-.41.5-.94.3.5-.91-.63-1.56-.41-2.51.11-.46-.02-1.32-.56-1.07-2.85,1.35-1.74-1.24-2.32-2.02-1-1.33.31-3.2-1.19-5.2-.34,4.41-2.58,7.88-.92,11.98-1.78-.63-.96-1.96-1.98-2.83.53,2.39-.26,4.41-.49,6.49-.13,1.17-.76,1.92-1.8,2.18-1.75.44-.77-1.22-1.34-1.75-.82-.76-.38-2.29-2.27-3.11,1.1,2.16.51,3.55-.99,4.74-.35.28-.72,1.03-.57,1.3,1.94,3.25-.29,7.06,1.65,10.32.4.67.67,1.87-.46,2.36-1.12.48-1.38-.61-1.73-1.25-.4-.74-1-.98-1.8-.88-.99.13-.97.87-1.02,1.57-.08,1.04-.26,2.05-1,3.09-.25.35-.8.31-1.01-.06-1.28-2.25-3.06-4.01-4.62-5.92-.39-.47-.6-1.1-1.39-.93-.24.05-.62.49-.58.55,1.09,1.75-.46,3.47.06,5.36.6,2.16,2.16,3.83,3.31,5.35,1.38,1.81,3.67,4.43,7.3,2.97,2.13-.86,4.04.39,5.61,1.48,1.02.71,2.83,2.29-.21,3.13-.41.11-.85.21-.76.73.09.54.5.88,1.04.98.82.15,1.67.18,2.5.33.5.09,1.11.23,1.06.87-.06.67-.69.63-1.2.64-2.3.04-4.02-1.02-5.4-2.62-1.18-1.37-2.89-2.31-4.39-1.36-2.65,1.67-4.02,1.16-5.07-1.47-.32-.81-1.28-1.14-2.14-.81-1.05.41-.29,1.12-.14,1.74.2.85,1.57,2.05.2,2.49-1.2.38-3.2.94-4.15-.22-2.28-2.79-4.4-2.2-6.85-.61-.34.22-.34.69,0,.9,2.44,1.49,4.08,4,7.95,2.76,1.41-.45,4.77-.38,6.25,1.64,1.67,2.28,4.05,2.75,6.36,2.07,3.56-1.04,6.45.86,9.65,1.22,1.34.15,1.97,1.34,1.79,2.44-.2,1.19-1.53.72-2.4.8-1.7.16-3.59.29-4.91-.67-2.58-1.87-5.6-1.24-8.41-1.71-.8-.13-2.21-1.2-2.6.45-.32,1.41,1.06,1.7,2.12,2.14,2.69,1.11,4.94,2.88,6.02,5.37.77,1.76,1.67,2.27,3.47,2,2.98-.45,4.92,1.26,6.77,3.02.59.56.97,1.46.43,2.14-.53.67-1.29.15-1.97-.15-2.3-1-3.9-3.98-7.19-2.27-.1.05-.48-.12-.54-.25-1.19-2.73-7.16-.84-6.23-5.64.02-.09-.27-.3-.44-.36-3.41-1.04-6.4-2.59-8.26-5.77-.22-.38-.81-.36-1.02.03-1.14,2.04-1.4,4.08-1.67,6.12-.08.62-.31,1.5-1.37,1.18-.77-.23-.62-.82-.5-1.46.18-.99.75-2.82-.45-2.76-2.02.11-3.7-.66-5.55-.86-1.53-.16-2.51,0-2.05,1.84.54,2.15-.03,2.43-2.23,1.41-2.05-.95-3.68-3.33-6.46-2.48-.26.08-.41.35-.36.6.4,2.24.34,4.68,3.17,5.83.17.07.05.64.23.82,1.71,1.65,3.27,3.9,6.24,2.87,3.95-1.38,7.17.66,10.54,1.78,1.44.48,1.2.94.47,1.34-.43.24-.39.83.08.98.83.27,1.55.5,2.28.66.6.13,1.49-.68,1.74.49.2.92-.12,1.57-1.22,1.66-1.43.12-1.52.75-.87,1.78.56.88,1.84,1.89.58,2.83-1.37,1.02-2.22-.43-3.09-1.17-.59-.5-1.37-1.72-1.89-.94-.91,1.35-2.71,1.27-3.5,2.5-.08.13.16.59.37.72,3.01,1.87,4.01,5.78,7.93,6.79.79.2,1.38,1.17,1.98,1.85.42.48.59,1.15.07,1.61-.43.38-1.02.02-1.42-.24-1.81-1.2-3.77-2.01-5.83-2.79-1.17-.45-2.05-.72-3.09-.41-.27.08-.56-.06-.69-.3-.54-.95-1.16-1.16-1.83.34-.56,1.27-.27,2.31,1.22,2.89.47.18,1.27.49,1.28.76.14,3.94,3.69,3.17,6.11,3.95,1.17.38,2.35.73,3.48,1.08.43.13.54.66.19.93-.42.33-.94.59-.47,1.31,1.84,0,4.67-.7,5.39.15,1.34,1.59,3.92-.17,4.49,2.04,1.75-1.15,2.58,1.5,4.27.88,2.01-.74,3.28.26,4.23,1.81-.69.06-1.37.51-2.09.11-2.59-1.45-5.46-.63-7.54.37-2.79,1.34-4.22,1.15-5.84-1.25-.54-.8-.94-2.68-2.6-1.95-1.64.72-3.4.5-5.11,1.17-1.9.76-4.61,1.21-6.3-.95-.64-.81-.59-2.37-2.29-1.17-1.34.95-2.41,1.97-1.28,3.72.63.98,1.65,1.45,2.55,2.12.72.54,2.1,2.15.5,2.36-3.14.4-6.65,1.35-9.53-.99-1.35-1.09-2.43-2.09-3.56.22-.34.71-1.39,1.21-1.98.14-1-1.82-1.96-1.99-3.34-.35-.6.72-1.53.47-2.36.27-.93-.22-1.88-.33-2.79.05-1.29.55-1.27,1.83-.81,2.54,1.03,1.57.71,4.89,2.48,4.65,2.45-.33,4.6-.87,6.94.21.35.16,1.19-.06,1.45-.37,2.09-2.47,4.11-1.02,6.06.08,4.28,2.42,4.99,2.31,7.92-1.47.12-.15.29-.38.44-.38,2.64.05,5.16-1.21,7.79-.88.11.74-.29.69-.56.78-.7.22-1.96-.49-2.01.75-.05,1.01,1.18.97,1.92,1.21,2.65.89,5.71.24,7.65-.7,4.65-2.25,9.39-1.34,14.08-1.72,1.36-.11,3.04.35,2.75,2.08-.2,1.17,1.74,3.76-1.94,3.36-.43-.05-1.1.85-1.46,1.43-.54.86-1.25,1.42-2.27,1.28-1.93-.26-3.25.47-4.46,2.15-.26.36-.85.32-1.02-.08-.77-1.9-2.15-2.23-4.06-1.58-.43.15-1.08,0-1.54-.21-2.11-.94-4.33-.32-6.07.4-1.28.54-4.5.93-3.35,3.1.66,1.24-.27,1.75-.52,2.4-.13.31.11.65.46.72,1.18.21,2.73-.03,2.96,1,.61,2.7,2.37,2.09,3.82,1.34,1.89-.97,4.47.33,6.09-1.27.24-.23.64-.26.86-.02,1.03,1.17,2.9.05,4.15.81,1.21.73,2.78,1.08,4.2.73,4.66-1.16,4.65-1.23,4.8,3.14.01.3.02.59.06.89.18,1.21-.29,1.64-1.66,1.88-5.64.97-11.22,2.2-16.86,3.18-2.85.49-6.02,1.32-8.07-1.57-1.36-1.91-2.82-2.69-4.79-1.55-.33.19-.77,0-.86-.35-.25-.99.04-2.14-1.78-2.27-3.23-.24-6.45-2.21-9.59.41-.32.27-1.42-.12-2.08-.4-.68-.28-1.19-.61-2.01-.2-2.69,1.35-5.47-1.79-8.22.04-.08.05-.46-.36-.73-.51-2.89-1.64-8.18-.53-10.13,2.02-1.55,2.03.5,2.95,1.06,4.47,1.19,3.21,4.16,4.66,6.04,7.08,1.11,1.43,2.26,1.52,3.76,1.53.94,0,1.88.18,2.82.3,7.62,1.01,13.93-.94,18.37-7.14.34-.47.66-1.24,1.37-.64.68.57,1.56,1.7.81,2.28-1.39,1.07-1.83,3.27-4.14,3.32-1.3.03-2.6.37-3.56,1.19-3.27,2.78-7.15,3.69-11.48,3.65-2.2-.02-4.4.4-6.6.53-1.16.07-1.88.46-2.47,1.47-1.38,2.4-.85,4.76,1.17,6.1,1.43.95,3.71.19,5.38-1,4.21-3,9-3.78,14.01-2.56,3.91.96,7.73.4,11.6.13.66-.05,1.32-.19,1.61-.77,1.82-3.51,5.27-2.81,8.33-2.71,4.04.13,8.04-.16,11.96-.91,2.77-.54,3.16-3.2,4.28-5.16,1.02-1.77-1.26-1.29-1.72-2.16-.86-1.65-.02-4.24,1.84-4.63,1.26-.27,2.32-.22,2.3,1.46-.04,4.05-.02,8.1-.01,12.15,0,.75-.31,1.7-1.05,1.59-2.96-.44-5.71.25-8.49.92-.78.19-1.75-.2-2.18-.83-1.14-1.66-2.73-1.46-4.47-1-1.69.44-4-.89-5.07,1.27-.1.21-.32.34-.57.33-5.24-.29-9.12,3.36-13.9,4.4-2,.43-4.33.41-4.44,3.21,0,.16-1,.53-1.37.4-2.23-.79-3.48.48-4.81,1.77-1.08,1.04-2.44,1.45-4.01,1.44-1.24-.01-2.47.13-3.71.7-.37.17-.41.62-.13.9.91.88.95,2.7,2.85,2.05.98-.34,1.54.04,2.23.07,3.37.12,7.08,1.74,10.05-1.19.94-.93,1.9-1.46,3.33-.86.67.28,1.65.24,2.09-.28,1.42-1.67,3.06-2.84,5.55-2.76-.76-.53-1.47-.71-2.04-1.09-.76-.51-2.35-.85-1.51-2.08,1.07-1.57,1.87-.19,2.64.55,2.22,2.16,4.62,3.16,7.53,1.07.04-.03.28.18.57.38-1.03,1.11-1.85,2.35-3.34,3.03-2.2,1-3.05,3.53-5.54,4.29-.55.17-.81,1.15-.4,1.86.7,1.22-.26,1.25-1.1,1.44-1.84.4-2.79,2.52-2.17,4.27.57,1.6,1.44,1.57,2.72.81.49-.29,1.09-.44,2.14-.84-.51.65-.66.86-.84,1.05-.59.63-2.44.55-1.62,1.92.58.98,1.76.87,2.74.1.32-.25.77-.87,1.14.01.77,1.81,1.19.78,1.92-.11.49-.61,1.16-1.09,1.81-1.58.44-.33,1.08.07.92.58-.09.29-.2.58-.17.85.05.5.77.62,1.06.2,1.61-2.36,3.8-4.21,6.03-6.02.34-.28.86-.09.94.32.33,1.59.88,3.17.87,4.83,0,.51.65.77,1.01.38,2.64-2.82,6.2-4.71,7.75-8.06.12-.27.45-.42.74-.31,3.32,1.25,3.62,3.8,3.84,6.88.71,9.88-.29,19.73-.1,29.6.12,6.09-.07,12.18-.22,18.27-.05,2.1-.44,4.15-1.12,6.09-2.09,5.64-6.71,10.27-12.83,12.36-.4.14-.81.26-1.23.38-4.26,1.17-8.64,1.75-13,2.45-3.16.51-14.08,1.69-27.98,6.14-12.26,3.93-26.85,10.42-40.47,21.26H.03s-.02.02-.03.03h.03s.01,6.04.01,6.04l1,6.21s.01.01.02.02l.17,1.06,3.63,6.28,4.67,4.16,5.28,2.59,5.45,1.15h146.62l9.67.1,5.42-.99,6-2.79,3.65-2.99,3.3-4.36,2.21-5.92.49-6.12-.12-.34ZM136.1,164.55c.02-.12.34-.31.48-.28,2.94.56,5.2-.91,7.53-2.18,1.74-.94,3.38-1.79,4.86.4.42.63,1.25.52,2.02.48,1.73-.1,3-1.06,4.49-2.22-.8,2.72-.99,2.96-3.7,2.85-3.77-.15-7.42.4-11.03,1.3-.36.09-.91.14-1.21.48-.36.13-.72.32-1.06.61-1.13.96-2.96,1.79-4.74,2.39-1.67.09-3.4.15-5.09-.53,3.16-.93,6.76.66,7.45-3.31ZM132.05,127.69c.4-.45.98-.91,1.6-.39.64.53-.18.77-.4,1.12-.6.95.39,1.12.86,1.55.32.29,1.13.36.69,1.03-.26.39-.9,1-1.07.92-1.87-.86-3.27.14-4.93,1.76.03-2.39,2.23-2.23,2.4-3.59-1.85-.75-2.34,1.17-3.67,1.75-.25-1.04-1.02-1.64-2.1-2.75,2.77.3,4.96.47,6.61-1.39ZM102.77,89.02c1.58,1.77,2.87,3.05,4.45.93.11-.15.73-.2.8-.1,1.98,2.8,3.56.96,5.38-.26,1.46-.97,3.7-1.9,4.96-.94,1.51,1.15-.27,1.83-1.52,2.1-.71.15-1.45.23-2.17.32-3.18.4-5.97,2.44-9.49,1.62-1.9-.44-2.75-1.1-2.4-3.68ZM94.73,42.21c-.11.56-.38,1.1-.58,1.64-.34-.93-2.9-1.77-.59-2.8.81-.36,1.66-1.89,2.57-.88,1.14,1.26-1.23,1.12-1.4,2.04ZM76.1,145.51c-.58.83-1.32,1.3-2.36.61-.34-.22-.63-.51-.98-.71-.83-.45-2.76.58-2.45-1.31.26-1.6,1.95-1.11,3.14-1.23.31-.03.63,0,.95,0,.21,0,.43-.03.63,0,.88.16,2.16-.48,2.55.54.36.93-.98,1.37-1.47,2.09ZM82.36,146.48c-.38-.06-.81.15-1.21.24-.95.22-2.21,1.31-2.8.21-.66-1.23.76-2.14,1.77-2.76,3.22-1.97,6.7-3.05,10.8-2.44-1.87,3.4-4.37,5.39-8.56,4.74ZM89.21,162.62c-1.03-.45-1.12-1.34-1.18-2.29.15-.75-.22-2,1.36-1.63.8.19,2.19-.37,2.33.93.17,1.61-2.43,1.42-2.51,2.99ZM59.96,299.54c.62.58,1.35.87,2.23.87.81,0,1.49-.24,2.09-.74l.76.8c-.81.67-1.77,1.01-2.85,1.01-1.18,0-2.2-.4-3.04-1.18-.83-.78-1.26-1.74-1.26-2.85s.42-2.06,1.26-2.85c.84-.78,1.86-1.18,3.04-1.18,1.09,0,2.05.34,2.85,1.01l-.76.8c-.6-.5-1.29-.74-2.09-.74-.88,0-1.61.28-2.23.87-.62.58-.92,1.27-.92,2.09s.3,1.51.92,2.09ZM73.41,300.29c-.84.79-1.86,1.18-3.05,1.18s-2.21-.4-3.05-1.19c-.84-.78-1.26-1.75-1.26-2.86s.42-2.07,1.26-2.86c.84-.78,1.86-1.18,3.04-1.18s2.21.4,3.04,1.18c.84.78,1.26,1.75,1.26,2.86s-.42,2.07-1.26,2.86ZM81.97,301.37c.29.16.56.3.79.34-.02,0,.25,0,.4-.39l1.08.37c-.27.68-.86,1.09-1.58,1.09h0c-.53-.08-.9-.28-1.26-.48-.35-.19-.67-.36-.97-.38-.06,0-.31.27-.39.58l-1.11-.25c.06-.23.17-.46.32-.67-.66-.12-1.28-.38-1.83-.77-1.92-1.39-2.31-3.96-.85-5.74.71-.86,1.74-1.41,2.9-1.55,1.16-.13,2.31.16,3.24.83.93.67,1.53,1.63,1.7,2.72.16,1.09-.14,2.16-.84,3.02-.45.55-1.04.95-1.7,1.22.04.02.09.05.13.07ZM91.43,299.15c0,.73-.29,1.35-.87,1.86-.57.5-1.27.76-2.06.76s-1.49-.25-2.06-.76c-.58-.51-.87-1.14-.87-1.87v-5.25h1.17v5.25c0,.42.17.77.51,1.07.7.62,1.82.62,2.52,0,.34-.3.5-.65.5-1.07v-5.25h1.17v5.25ZM97.11,301.45h-4.17s-.03-7.54-.03-7.54l4.14.02v1.02s-2.96-.01-2.96-.01v2.31s2.76-.02,2.76-.02v1.02s-2.74.02-2.74.02v2.16s3.02,0,3.02,0v1.02ZM85.47,80.95c-1.57-1.19-3.11-2.43-4.66-3.66.14-.25.28-.5.42-.74,1.73,2.08,3.65,1.8,5.86,1,2.7-.97,5.51-.86,8.27.12.66.23,1.25.5,1.09,1.18-.21.86-1.03.52-1.54.35-3.27-1.1-6.09-.45-8.61,1.72-.16.14-.67.16-.84.03ZM90.57,92.85c-.4-1.65-1.89-1.96-3.06-2.7-.54-.34-1.64-.5-.86-1.44.69-.82,1.28-.09,1.83.32,1.63,1.21,3.2,2.46,4.19,4.29-.88.35-1.89.39-2.1-.47ZM96.69,110.56c-.34-.02-.93-.43-.92-.65.08-1.66-1.65-2.77-1.49-4.42-.01,0-.02,0-.04,0l.04-.03s0,.03,0,.04c.02,0,.03,0,.05.01,0,0,0,0,0,0,.06,0,.12.02.18.03.92.06,1.32-1.03,2.38-1.08.75,1.62.31,3.4.5,5.09.05.46.03,1.08-.7,1.03ZM97.37,162.5c-.45.73-.96.99-1.7.36-2.12-1.81.95-2.74.55-4.35,2.26,1.08,2.12,2.44,1.15,3.99ZM98.05,98.65c-.14.54-.57.78-1.16.8-.87.03-1.42-.34-1.5-1.16-.21-2.13-2.64-1.54-3.92-2.85,2.43-.29,4.32-.02,5.9,1.36.59.51.86,1.11.67,1.84ZM98.48,93.99c-.56.74-1.06.34-1.52-.08-1.5-1.38-3.06-2.71-4.47-4.17-2.14-2.22-1.58-4.05,1.58-4.89.74-.2,1.24-.75,2.24-1-.28.7-.36,1.2-.65,1.55-1.74,2.11-1.75,2.1.91,3.04.86.3,2.43,4.87,1.92,5.56ZM115.79,151.53c-3.52,2.88-7.06,1.7-10.73,1.32-.57-.06-.97-.38-1.05-.94-.09-.68.26-1.17.92-1.37,3.06-.95,5.51-2.83,8.07-4.57.68-.46,2.11-1.12,2.59-.38,1.31,2.02,2-.1,3.94-.63-2.47,2.22-1.49,4.72-3.74,6.56ZM119.56,131.47c1.21-.5,1.74.81,2.98.49-.52,1.51-2.62,1.23-1.89,2.89.17.39-.37.76-.8.54-3-1.52-4.03.93-5.5,2.4-.78.78-1.31,2.16-2.39.3-.28-.48-.73-.54-.93-.11-.95,2.07-2.7,3.01-5.14,2.75.48,1.55,1.6,1.52,2.4,1.9,2.2,1.03,2.38,2.46.34,3.85-.75.51-1.68.82-2.53,1.19-1.49.65-2.43.44-2.5-1.33-.03-.88-.25-1.76-.34-2.64-.5-4.8-.48-4.75,4.4-6.46,1.46-.51,2.92-1.23,4.13-2.14,2.33-1.76,5.12-2.54,7.77-3.63ZM103.04,134.6c.22-1.79,1.88-1.84,3.31-1.88,1.1-.03,2.88.03,2.6,1.32-.36,1.64-2.38,1.55-3.93,1.66-.93.04-2.14.26-1.98-1.1ZM105.93,130.51q2.34-1.52,8.7.33c-2.88.14-5.76.63-8.7-.33ZM102.61,115.68c.38-1.27,1-2.26,2.64-2.53,3.34-.54,6.47,1.55,6.82,4.72h0c.41-.01.84-.08,1.24-.02.52.08,1.47-.22,1.29.7-.14.72-.81,1.15-1.64.62-.6-.37-1.15-.82-1.72-1.23-2.69.79-5.01-1.71-7.8-.73-.71.25-1.05-.82-.83-1.54ZM104.7,59.56c-.55-.15-1.21-.83-.93-1.36.85-1.64,2.49-1.24,4.87-1.26-1.93.98-1.7,3.22-3.94,2.62ZM113.71,48.41c.19-1.56,1.29-2.06,3.42-2.21-1.01,1.32-1.94,2.02-3.14,2.46-.09-.08-.18-.17-.27-.25.09.08.18.17.28.25-1.16.8-2.31,1.62-3.48,2.41-1.28.86-2.35.22-3.38-.48-.76-.52-.05-1.41.14-1.27,2.54,1.79,4.21-1.32,6.44-.91ZM102.7,41.95c1.43-.52,2.88-1.08,4.38-1.35.86-.16.95.72.55,1.2-.75.89-.6,2.01-1.08,3.18-.95-.71-1.54-2.35-3.11-1.04-.64.54-1.13.06-1.38-.55-.27-.66.02-1.21.65-1.44ZM101.45,71.24c2.56-.74,4.93-2.15,8.17-1.97-1.53,1.71-3.33,1.63-4.85,2.16-1.64.57-3.86.99-1.85,3.38.31.36.26.76-.02,1.08-.29.34-.72.38-1.12.15-1.02-.6-1.21-1.55-1.18-2.57.02-.82-.49-1.84.85-2.22ZM105.84,301.35h-4.17s-.03-7.54-.03-7.54l4.14.02v1.02s-2.96-.01-2.96-.01v2.31s2.76-.02,2.76-.02v1.02s-2.74.02-2.74.02v2.16s3.02,0,3.02,0v1.02ZM111.83,301.39l-3.61-5.29v5.19h-1.15v-7.22h1.12l3.67,5.37-.02-5.27h1.15s.03,7.22.03,7.22h-1.19ZM121.21,300.52c-.54.53-1.21.83-1.97.87l-.61.04v-.04h-1.22v-4.75h0v-3.2h1.65c.48,0,.9.15,1.23.45.34.3.51.7.51,1.16,0,.33-.1.63-.28.89.24.13.47.28.68.48.6.56.9,1.25.9,2.05s-.3,1.49-.9,2.06ZM130.1,300.29c-.84.79-1.86,1.18-3.05,1.18s-2.21-.4-3.05-1.19c-.84-.78-1.26-1.75-1.26-2.86s.42-2.07,1.26-2.86,1.86-1.18,3.04-1.18,2.21.4,3.05,1.18c.84.78,1.26,1.75,1.26,2.86s-.42,2.07-1.26,2.86ZM132.2,294.01h1.15v7.04h-1.15v-7.04ZM138.88,301.09c-.58.55-1.3.82-2.12.82s-1.54-.28-2.12-.83l.81-.76c.73.69,1.89.69,2.62,0,.36-.34.54-.75.54-1.23s-.18-.88-.54-1.22c-.39-.37-.86-.63-1.43-.8-.54-.23-.91-.46-1.19-.72-.36-.33-.54-.76-.54-1.23s.19-.9.54-1.23c.71-.66,1.9-.66,2.61,0,.2.19.35.4.44.63l-1.08.37c-.03-.08-.09-.16-.17-.24-.28-.26-.71-.26-.99,0-.14.13-.2.28-.2.47s.06.33.2.46c.18.17.45.33.8.49.67.2,1.3.55,1.82,1.03.58.54.88,1.21.88,1.98s-.3,1.45-.88,1.99Z"
    fill="#11100d" />
  <path
    d="M70.37,294.47c-.88,0-1.61.28-2.23.87-.62.58-.92,1.27-.92,2.09s.3,1.51.92,2.1c.62.58,1.35.87,2.23.87s1.61-.28,2.23-.87c.62-.59.93-1.27.93-2.1s-.3-1.51-.92-2.09c-.62-.58-1.35-.87-2.23-.87Z"
    fill="#11100d" />
  <path
    d="M119.5,295.41c.07-.06.15-.16.15-.36,0-.17-.05-.28-.16-.38-.12-.11-.25-.15-.44-.15h-.5v1.05h.63c.1-.01.22-.06.32-.15Z"
    fill="#11100d" />
  <path
    d="M127.06,294.47c-.88,0-1.61.28-2.23.87-.62.58-.92,1.27-.92,2.09s.3,1.51.93,2.1c.62.58,1.35.87,2.23.87s1.61-.28,2.23-.87c.62-.58.93-1.27.93-2.1s-.3-1.51-.92-2.09c-.62-.58-1.35-.87-2.24-.87Z"
    fill="#11100d" />
  <path
    d="M119.02,296.64h0s-.46,0-.46,0v3.68h.69c.44-.04.81-.22,1.14-.54.39-.38.58-.81.58-1.32s-.19-.93-.57-1.29c-.38-.36-.83-.53-1.37-.53Z"
    fill="#11100d" />
  <path
    d="M80.02,294.6c-.88,0-1.61.28-2.23.87-.62.58-.92,1.27-.92,2.09s.3,1.51.92,2.1c.62.58,1.35.87,2.23.87s1.61-.28,2.23-.87c.62-.59.93-1.27.93-2.1s-.3-1.51-.92-2.09c-.62-.58-1.35-.87-2.23-.87Z"
    fill="#11100d" />
</svg>