<svg xmlns="http://www.w3.org/2000/svg" viewBox="0 0 840 1680" width="840px" height="1680px">
  <defs></defs>
  <g id="Calque_2" transform="matrix(0.970533, 0, 0, 0.958615, 1000.553345, -758.083862)" style="">
    <g id="Calque_1-2" data-name="Calque 1" transform="matrix(1, 0, 0, 1, -845.441833, 1630.532227)">
      <path class="cls-1"
        d="M495.41,246.18c-1.02,67.56-24.05,124.73-69.07,173.02-51.93,52.08-114.59,77.52-188.17,75.89C108.1,489.76,1.05,384.49,0,247.47c1.05-66.12,24.12-123.34,69.28-171.66C121.45,23.52,184.47-1.74,258.32.09c128.54,5.92,235.83,109.69,237.09,246.08M385.93,384.1c-8-6.28-11.25-14.46-11.7-23.93-.21-4.45.6-8.78,1.83-13.05.9-3.1.03-4.93-2.92-6.16-1.86-.75-3.82-1.38-5.77-1.83-4.72-1.11-8.99-3.01-12.84-5.98-1.23-.96-2.71-1.68-4.15-2.29-5.53-2.32-11.1-4.54-16.3-7.61-2.32-1.35-4.72-2.74-7.85-3.04-.21,2.13-.42,4.12-.57,6.13-.09,1.02.45,1.56,1.53,1.77,2.53.54,3.37,1.68,3.16,4.21-.09,1.02-.21,2.07-.33,3.25.93.24,1.68.45,2.44.66,1.29.33,2.65.45,3.85.93,7.94,3.16,13.86,8.36,16.3,16.84.78,2.68,1.38,5.5,1.5,8.3.21,4.21-.12,8.45-1.71,12.51-6.77-.72-12.09-3.7-16.33-8.9-4.48-5.47-6.89-11.85-8.81-18.49-.27-.93-.51-1.89-.78-2.86-.21,0-.45.03-.66.06-.18,1.17-.51,2.35-.48,3.49.06,2.65.36,5.29.42,7.94.15,6.86-2.68,12.33-8.15,16.36-2.2,1.62-4.75,2.56-7.79,2.35-.21-2.44-.6-4.69-.6-6.98-.03-5.86,1.08-11.46,4.93-16.12,1.68-2.04,3.7-3.79,5.5-5.74,1.11-1.2,2.1-2.56,3.13-3.82-1.77-2.65-2.5-5.38-2.83-8.18-.42-3.58-.78-7.19-1.08-10.79-.18-2.13-.96-3.91-2.53-5.35-1.44-1.35-3.16-1.29-4.96-1.17-1.71.12-1.62,1.44-2.04,2.56-.24.6-1.14,1.23-1.77,1.26-.6,0-1.5-.6-1.77-1.17-.45-.9-.63-2.01-.69-3.07-.15-3.52,0-7.1-.33-10.58-.36-3.67-1.08-7.31-1.89-10.91-.54-2.44-2.26-3.91-4.78-4.36-1.14-.21-2.23-.51-3.37-.69-2.07-.39-3.61-1.5-4.42-3.43-.78-1.86-2.1-3.01-4.03-3.49-3.34-.84-5.83-2.83-7.82-5.56-.57-.78-1.2-1.53-1.86-2.23-1.59-1.65-3.49-2.77-5.86-2.56-1.92.18-3.82.57-5.71,1.02-1.83.42-3.04,1.68-3.94,3.31-1.62,2.89-2.29,5.95-1.32,9.17,1.11,3.73.81,7.31-.54,10.88-.06.15-.12.33-.18.51-.84,2.35-.78,4.69.15,6.98,1.11,2.71,2.23,5.38,3.34,8.09,2.04,5.05,4.87,9.59,8.96,13.26,2.26,1.98,4.51,3.97,6.68,6.04,3.52,3.34,6.22,7.13,7.28,12.03.81,3.7,2.04,7.28,3.25,10.88.6,1.77.69,3.46-.09,5.14-.75,1.59-1.65,3.13-2.41,4.72-1.17,2.47-2.41,4.9-3.43,7.43-1.59,3.94-1.02,7.58,1.68,10.91,2.29,2.8,4.6,5.59,6.8,8.48,2.83,3.7,4.81,7.82,5.26,12.54.42,4.39.63,8.81,1.11,13.2.57,5.14,2.65,9.29,7.97,11.16,3.91,1.38,7.7,3.1,11.64,4.36,2.83.93,5.77,1.71,8.72,1.98,7.37.69,14.79,1.05,22.19,1.53,5.2.36,10.43.48,15.43,2.1,3.19,1.02,6.31,2.23,9.44,3.4.96.36,1.77.57,2.71-.12,5.47-4.03,11.22-7.73,16.45-12.06,7.91-6.49,15.64-13.23,22.7-20.72,9.11-9.65,17.59-19.79,24.93-30.88,1.83-2.8,3.91-5.47,5.53-8.39,4.03-7.16,8.21-14.25,11.76-21.62,5.5-11.37,9.89-23.21,13.47-35.33.18-.66.33-1.32.45-1.8-2.89-1.38-5.68-2.47-8.21-4-6.49-3.91-10.55-9.29-9.86-17.35v-1.05c.09-2.16-.45-4.18-1.44-6.1-4.33-8.24-10.61-14.94-16.96-21.59-1.2-1.26-2.86-1.71-4.63-1.53-1.92.18-3.88.36-5.8.57-2.16.21-3.88,1.14-4.75,3.25-.18.39-.48.75-.66,1.14-1.05,2.29-3.07,2.92-5.29,2.62-1.8-.24-3.55-.99-5.29-1.53-2.1-.66-4.15-1.56-6.28-1.98-2.5-.48-5.08-.6-7.64-.81-.78-.06-1.59.03-2.35.27-1.41.42-2.5,2.04-2.35,3.46.15,1.44,1.23,1.8,2.41,2.07,1.47.33,2.92.63,4.39.99,3.46.87,6.07,2.77,7.37,6.19.93,2.47,1.95,4.93,2.92,7.4.99,2.56,2.65,4,5.59,3.97,2.29-.03,4.6.18,6.86.48,3.55.48,6.62,1.86,8.51,5.14.96,1.68,2.04,3.31,2.98,4.99,2.62,4.75,6.43,8.12,11.58,9.95.96.33,1.86.78,3.07,1.29-6.04,5.08-12.51,6.13-19.57,3.91-5.32-1.65-9.83-4.69-13.92-8.45-3.82-3.52-6.43-7.49-5.83-12.96.18-1.8-.45-3.31-1.74-4.51-3.46-3.31-6.83-6.68-10.37-9.83-3.07-2.71-6.62-4.03-10.76-2.68-.42.12-.87.18-1.29.27-2.16.45-4.03.06-5.38-1.86-1.08-1.5-2.59-2.04-4.42-1.83-.78.09-1.62,0-2.38.21-3.19.72-6.28.36-9.44-.33-6.74-1.41-13.38-.87-19.79,1.47-2.47.9-4.78,2.44-6.92,4.66,1.32.57,2.32,1.11,3.4,1.47,3.13,1.11,6.1.39,9.02-.78,4.27-1.68,8.72-2.26,13.26-1.62,8.51,1.14,16.39,4.12,23.9,8.18.27.15.45.45.69.72-5.32,5.35-11.7,8.42-18.82,9.89-3.85.81-7.85.72-11.49-.78-3.22-1.32-6.28-3.19-9.14-5.2-2.89-2.04-5.71-4.15-8.96-5.56-4.21-1.8-8.48-3.04-13.11-1.77-3.85,1.05-6.65,3.34-7.85,7.16-1.89,5.95-.54,15.67,8.36,18.37,2.83.87,5.2,2.59,7.19,4.81.69.78,1.41,1.56,2.13,2.35,2.13,2.32,4.87,2.68,7.79,2.44,2.41-.21,3.67-1.83,4.72-3.76.72-1.29,1.56-2.62,2.59-3.67,5.05-5.11,11.37-7.91,18.25-9.62,4.69-1.17,9.44-1.26,14.22-.96,2.04.12,4.12.39,6.28,1.29-4.84,6.19-9.41,12.21-15.49,16.93-4.24,3.31-8.84,5.05-14.28,4.09-1.89-.33-3.85-.51-5.8-.54-1.53,0-2.16,1.02-1.32,2.29.63.96,1.68,1.77,2.74,2.29,2.13,1.02,4.57,1.53,6.59,2.71,4.69,2.74,9.53,4.21,15.09,3.88,4.84-.27,8.48,3.34,9.05,8.21.27,2.16.45,4.33.66,6.55,5.38.12,8.36,3.1,9.65,7.97.51,1.95.75,3.97.93,5.98.63,6.22-.57,12.15-3.4,17.68-1.17,2.32-2.89,4.36-4.42,6.65M112.55,398.92c1.95,3.07,1.98,6.25,2.2,9.44.18,2.65-.54,5.08-2.1,7.22-1.41,1.92-2.89,3.79-4.39,5.65-1.53,1.86-2.83,3.88-3.4,6.22-.36,1.53-.54,2.95,1.14,4.18,8.48,6.25,17.17,12.12,26.25,17.44.66.39,1.47.72,2.2.69,3.25,0,6.49-.12,9.71-.96,3.97-1.05,7.07-3.04,9.2-6.55,2.07-3.43,2.89-3.82,6.71-2.83,4.9,1.26,9.59.66,14.31-.93,2.44-.84,4.45-2.2,5.83-4.33,2.29-3.49,5.53-4.39,9.44-3.88,1.83.24,3.7.33,5.53.36,2.2,0,4.15-.75,5.77-2.26.96-.9,1.98-1.8,2.8-2.83,2.01-2.59,4.66-4.27,7.46-5.83,1.38-.78,2.83-1.47,4.21-2.2,3.64-1.92,6.22-4.66,6.86-8.87.51-3.4,2.07-6.13,4.66-8.36,1.98-1.71,3.28-3.94,3.88-6.49.66-2.92,1.14-5.89,1.59-8.84.36-2.35,1.32-4.33,3.1-5.98,1.53-1.44,3.01-2.98,4.45-4.54,3.76-4.15,4.36-9.05,3.28-14.34-.84-4.12-2.56-7.91-4.75-11.43-1.98-3.13-2.86-6.43-2.77-10.04.03-1.83-.42-3.49-1.38-5.02-.6-.96-1.17-1.98-1.86-2.89-1.74-2.35-2.62-4.9-2.77-7.85-.24-4.57-.39-9.14-1.5-13.65-1.68-6.86-1.98-13.77-.33-20.72.45-1.86.48-3.88.36-5.77-.36-5.14-4.72-8.42-9.8-7.46-3.19.6-6.01,2.01-8.6,3.88-1.98,1.41-3.46,3.22-4.42,5.5-.75,1.77-1.68,3.49-2.56,5.23-1.23,2.47-3.22,4.18-5.65,5.38-1.59.78-3.22,1.47-4.75,2.35-.9.51-1.89,1.14-2.41,2.01-2.04,3.55-4.66,6.86-4.51,11.37.09,2.62-1.89,4.36-4.54,4.63-.87.09-1.77,0-2.65.09-3.52.24-5.53,2.23-5.8,5.68-.03.54,0,1.05-.03,1.59-.18,3.82-1.62,7.07-4.57,9.5-1.74,1.44-3.7,2.68-5.65,3.91-1.29.81-2.13,1.77-2.16,3.4,0,1.05-.06,2.13-.33,3.16-.33,1.26-.75,2.53-1.41,3.61-1.05,1.74-2.8,2.74-4.66,3.28-3.04.87-6.16,1.53-9.23,2.32-2.74.69-5.41,1.59-7.7,3.4-4.27,3.37-5.08,8.03-2.23,12.6.84,1.35,1.68,2.71,2.59,4,1.14,1.62,2.56,2.95,4.6,3.37,4.24.87,8.36,1.05,12.39-1.02,1.44-.75,3.22-1.23,4.81-1.17,6.74.33,12.96,2.47,18.64,6.1,1.29.84,2.41,1.95,3.61,2.95-2.92,3.55-6.31,5.77-10.43,6.92-4.33,1.2-8.66,1.2-13.08.36-3.73-.72-6.86-2.26-9.05-5.41-.87-1.26-2.04-1.89-3.49-2.16-1.05-.21-2.07-.45-3.13-.6-2.2-.27-4.06-1.17-5.65-2.65-1.62-1.5-3.16-3.1-4.72-4.63-2.59-2.47-4.51-5.08-3.64-9.08.45-2.1-1.05-3.1-3.16-2.32-.93.36-1.83,1.05-2.53,1.8-.84.9-1.5,1.95-2.16,3.01-2.89,4.48-3.85,9.62-4.84,14.73-.33,1.62-.45,3.52.75,4.84,2.16,2.44,1.68,4.99.96,7.7-.33,1.2-.9,2.01-2.07,2.53-.84.36-1.53,1.02-2.38,1.62M185.19,274.26c-1.53,1.29-3.7.51-4.69,2.41,2.13,1.74,3.25,3.97,2.71,6.74-.3,1.44-.87,2.86-1.35,4.27-.24.69-.57,1.38-1.11,2.62,1.17-.75,1.86-1.14,2.47-1.59,3.19-2.53,6.4-4.99,9.5-7.64,1.32-1.14,2.44-2.56,3.4-4,1.71-2.56,3.25-5.26,4.87-7.88,3.04-4.87,1.86-10.16-2.95-13.38-2.92-1.95-6.19-3.04-9.56-3.7-6.25-1.17-12.51-2.23-18.79-3.1-7.43-1.05-14.43.06-20.45,4.99-2.8,2.29-5.62,4.54-8.51,6.74-1.38,1.08-2.26,2.38-2.71,4.09-.69,2.59-2.07,4.87-3.97,6.8-6.74,6.86-14.94,9.05-24.24,7.31-2.41-.45-4.93-1.14-6.77-3.13,2.95-3.16,13.68-11.82,17.02-13.65,3.43-1.86,7.01-3.79,10.91-3.73,3.25.03,5.08-1.44,6.74-3.76.57-.78,1.17-1.56,1.68-2.38,3.04-4.78,7.22-7.91,12.84-8.96.87-.15,1.74-.24,2.62-.45.99-.21,1.95-.51,2.98-.81-.51-2.26-1.95-2.98-3.67-3.37-2.41-.54-4.9-.84-7.22-1.62-2.77-.93-5.26-.75-7.97.15-5.26,1.74-10.58,3.46-15.94,4.87-6.71,1.77-13.41,3.91-20.54,3.01-2.41-.3-4.42,1.02-6.1,2.71-2.65,2.68-4.24,5.83-4,9.74.3,4.57-.51,8.96-2.38,13.14-.36.81-.63,1.65-.93,2.5-1.17,3.61.36,7.25,3.76,8.84,1.05.48,2.1.93,3.16,1.41,4.12,1.89,6.8,4.96,7.55,9.53.51,3.19,1.38,6.25,4.96,7.79-3.22,2.56-6.49,3.07-10.01,2.23-5.56-1.29-9.68-4.27-11.04-10.1-.42-1.77-.51-3.7-.33-5.53.27-2.71-.96-4.78-2.23-6.92-.54-.93-1.47-1.89-2.59-1.35-.69.33-1.2,1.41-1.5,2.23-.36.99-.27,2.13-.66,3.1-.21.54-.99,1.17-1.47,1.14-.51,0-1.08-.72-1.41-1.26-.24-.42-.09-1.05-.15-1.56-.21-1.92-.27-3.88-.69-5.74-.39-1.68,0-2.95,1.26-4,1.02-.84,2.1-1.62,3.07-2.53,2.8-2.65,4.57-5.89,3.37-9.71-1.38-4.42-.63-7.58,3.58-9.74.99-.51,1.32-1.38,1.08-2.47-.24-1.05-.99-1.71-2.01-1.83-3.91-.42-7.97-.69-11.25,1.8-4.12,3.16-7.97,6.71-11.79,10.25-1.59,1.47-2.5,3.58-1.8,5.8.63,2.07,1.53,4.12,2.59,6.01.87,1.62,2.16,3.01,3.22,4.51,3.19,4.51,3.76,9.35,2.1,14.58-1.68,5.32-5.05,9.44-9.02,13.14-.69.63-1.5,1.11-2.44,1.77-.06-.57-.18-.81-.12-1.05.72-3.1.51-6.13-.36-9.14-.72-2.47-1.62-4.87-2.16-7.37-.51-2.32-.9-4.69-.9-7.04,0-3.94,1.41-5.44,5.26-6.49.15-.03.24-.24.36-.36-.3-2.41-1.5-3.85-3.55-4.24-1.92-.36-3.04.27-4.24,2.38-.9,1.56-1.38,3.19-1.14,5.05.33,2.86-.15,5.62-1.14,8.3-2.16,5.8-5.92,10.13-11.46,12.96-2.74,1.41-5.44,2.92-8.15,4.45-1.26.72-2.44,1.56-3.91,2.53-.87-9.08.81-17.14,5.8-24.45,3.16-4.6,7.4-7.49,12.84-8.57,3.82-.78,7.49-4.42,8.12-8.18.33-1.92-.57-2.92-2.53-2.56-1.38.24-2.71.75-4.09,1.14-9.08,2.56-17.62,1.11-25.71-3.58-1.8-1.05-3.58-2.16-5.59-3.4.87,26.58,6.07,51.9,15.55,76.46,2.2,0,4.3-.09,6.43,0,5.47.3,10.7,1.53,14.97,5.2,1.92,1.65,3.49,3.73,5.05,5.74,1.32,1.65,2.86,2.62,4.99,2.35,2.53-.33,5.08-.66,7.58-1.08,1.38-.24,2.16-1.05,1.98-2.83-.87-.15-1.71-.36-2.56-.45-2.71-.36-4.9-1.65-6.31-3.94-1.11-1.77-1.95-3.76-2.71-5.71-1.47-3.73-1.8-7.73-1.92-11.67-.06-1.83-.15-3.91,1.41-5.44,4.57,1.38,8.84,3.25,12.69,5.92,4.78,3.34,7.46,7.7,5.98,13.83-.39,1.59-.45,3.25-.66,4.84,3.7.87,12.72-2.23,16.45-5.56-.84-.45-1.56-.9-2.35-1.26-1.29-.57-2.71-.9-3.91-1.62-1.32-.81-2.53-1.83-3.61-2.95-.33-.33,0-1.26,0-1.92.63,0,1.32-.06,1.92.09.39.09.69.51,1.05.78,1.29,1.02,2.8,1.53,4.45,1.44,3.82-.18,7.58.33,11.28,1.23,3.04.72,5.92.18,8.78-.99,4.57-1.89,8.24-5.08,12.21-7.85,2.38-1.65,4.9-3.1,7.34-4.69.6-.39,1.05-.99,1.8-1.74-1.23-.78-2.1-1.35-2.98-1.89-1.05-.66-2.26-1.14-3.1-1.98-.84-.81-1.74-1.95-1.86-3.04-.3-2.65-.09-5.65,1.74-7.52,1.71-1.77,2.83-3.61,3.55-5.8.09-.24.27-.45.42-.66,2.77-3.67,6.8-4.99,10.91-6.28,1.17,2.98,1.14,4.78-.15,7.1-2.13,3.82-5.59,5.38-9.74,5.62-.78,3.25-.39,5.89,2.53,7.79.84.54,1.44,1.53,2.04,2.38,1.14,1.68,2.71,2.47,4.69,2.53,6.43.24,12-1.71,16.39-6.55,1.65-1.83,3.25-3.76,5.08-5.89-.75-.06-1.02-.12-1.26-.09-2.47.21-4.09,1.95-5.89,3.34-1.32,1.02-2.59,2.13-3.97,3.07-.81.54-1.77.9-2.62-.72,3.4-2.44,4.12-6.46,5.71-10.07,1.62-3.76,3.61-7.28,6.31-10.37,1.8-2.04,3.76-4,5.71-5.89,1.17-1.14,2.23-2.23,1.95-4.09-.09-.63.21-1.38.45-2.04.87-2.32,2.92-3.73,5.59-3.67,2.5.09,4.99.24,6.04,3.22.21.57.84,1.05,1.41,1.38.72.45,1.56.72,2.65,1.2M272.9,151.49c.66-3.94,1.17-7.94,2.01-11.88,1.02-4.78.69-9.23-1.98-13.47-2.41-3.79-2.74-7.76-.21-11.73.93-1.47,1.2-3.13.9-4.84-.57-2.92-2.1-5.23-4.54-6.89-1.02-.69-2.1-1.29-3.16-1.95-3.55-2.32-6.31-5.35-8.21-9.14-3.31-6.77-3.94-13.83-2.35-21.14.09-.42.33-.78.57-1.29.36.21.72.33.96.54,4.63,4.63,9.5,9.02,13.77,13.95,4,4.66,7.37,9.83,5.59,16.63-.15.54.39,1.68.9,1.89.54.21,1.71-.09,2.07-.57.84-1.17,1.59-2.53,2.01-3.94,1.05-3.64,2.65-6.92,5.35-9.59,1.56-1.53,3.16-3.07,4.75-4.6,2.83-2.71,4.69-5.89,5.35-9.8.48-2.86-.24-5.26-2.32-7.22-2.1-2.01-4.33-3.91-6.37-5.98-1.83-1.86-3.79-3.76-5.2-5.95-2.41-3.79-1.98-8.15-1.44-12.36.66-5.11,2.62-9.86,4.45-14.64.48-1.26,1.14-2.44,1.95-4.18.6,1.59.96,2.59,1.35,3.58,2.01,5.17,3.19,10.7,6.28,15.4,1.38,2.13,3.01,4.12,4.63,6.1,2.04,2.47,3.04,5.11,1.95,8.33-.42,1.23-.72,2.56-1.02,3.82-.3,1.29-.54,2.59-.69,3.91-.15,1.23.21,2.29,1.56,2.71,1.23.36,2.86-.18,3.4-1.38.42-.93.69-2.01.75-3.04.12-2.29.12-4.6.09-6.89-.06-2.65.54-5.14,1.98-7.31,1.35-2.04,2.86-4.09,4.69-5.71,4.27-3.82,8.78-7.37,13.2-11.04.69-.57,1.41-1.14,2.32-1.89-24.36-8.99-49.07-13.68-74.75-14.4-.36.99-.72,1.86-.99,2.8-1.14,3.91-2.71,7.64-4.75,11.19-3.04,5.26-7.22,9.11-13.44,10.22-3.04.54-3.88,1.35-4.3,4.39-.18,1.32-.18,2.65-.24,3.97-.18,3.61-.33,7.22-.54,10.85-.21,3.43,1.35,4.9,4.81,4.42,1.02-.15,2.01-.45,3.1-.69-.24-4.36,1.26-7.85,4.45-10.46,1.95-1.62,4.15-3.01,6.4-4.18,6.04-3.16,12.54-5.2,19.03-7.19.72-.21,1.47-.33,2.65-.57-2.29,5.71-4.39,11.04-7.67,15.79-3.01,4.33-7.01,7.07-12.36,7.85-2.41.36-4.75,1.35-7.13,1.95-3.16.78-6.34,1.53-9.53,2.1-2.07.36-3.88,1.05-5.5,2.38-2.98,2.5-6.13,4.81-8.99,7.43-1.86,1.71-3.49,3.73-4.99,5.8-1.11,1.53-1.41,3.37,0,5.35,1.17-.45,2.29-.93,3.43-1.29,1.11-.36,2.1-.15,2.68,1.02.51,1.02.27,1.95-.6,2.59-1.41,1.02-2.89,2.01-4.39,2.92-2.13,1.29-4.12,2.83-5.32,5.05-1.5,2.8-3.19,5.53-4.18,8.51-.99,2.98-1.29,6.19-1.77,9.32-.15.93.12,2.04,1.2,2.41,1.2.39,2.32,0,3.04-1.05.54-.78,1.02-1.65,1.35-2.56.87-2.32,2.41-4.06,4.48-5.41,3.4-2.23,6.8-4.48,10.19-6.65,1.92-1.23,3.43-2.68,4.12-4.96.54-1.83,1.89-2.95,3.79-3.28,1.14-.21,2.26-.39,3.4-.45,3.64-.18,7.22.18,10.76,1.02,3.04.72,5.89,1.83,8.39,3.73,2.68,2.01,2.74,3.46.24,5.74-3.49,3.19-7.64,5.11-12.15,6.16-2.1.48-4.39.54-6.52.3-2.41-.3-4.78-1.11-7.16-1.77-3.16-.87-5.74-.03-7.76,2.53-1.35,1.74-2.65,3.55-4.12,5.17-2.95,3.28-4.12,7.07-4.03,11.43.09,4.3.54,8.66-.39,12.96-.06.33-.06.69-.03,1.05.09,1.59.96,2.83,2.29,3.25,1.35.42,2.56-.06,3.52-1.65.6-.96,1.02-2.04,1.5-3.1.51-1.11,1.32-1.62,2.56-1.29,1.23.33,1.89,1.26,1.74,2.59-.09.69-.27,1.38-.54,2.04-.6,1.38-1.35,2.68-1.89,4.09-.63,1.53-1.32,3.1-1.65,4.72-.9,4.72.96,8.63,4,12.12,5.56,6.43,12.09,11.61,19.66,15.46,3.97,2.01,6.77,5.05,8.48,9.11,1.23,2.89,2.92,5.44,5.17,7.61,1.02.99,1.47,2.1,1.5,3.55,0,.87.15,1.77.45,2.59.42,1.11,2.01,1.92,3.04,1.68,1.26-.3,1.17-1.38,1.29-2.32.03-.27.09-.54.09-.78.06-3.31.99-6.25,3.37-8.66,1.32-1.32,1.92-2.98,2.1-4.75.27-2.62,1.14-4.96,2.35-7.25,2.41-4.48,3.49-9.17,2.65-14.28-.54-3.22-1.56-6.25-4-8.45-3.88-3.46-7.94-6.74-11.97-10.04-1.95-1.59-4.24-2.01-6.74-1.74-1.29.12-2.68.15-3.94-.06-3.28-.6-5.41-2.86-7.13-5.5-1.59-2.44-2.92-5.05-4.57-7.46-.93-1.35-2.2-2.47-3.37-3.67-.39-.42-.9-.75-1.32-1.08.24-.27.33-.42.48-.51.21-.15.45-.24.72-.36,5.68-2.29,11.37-2.13,17.02.06,4.84,1.89,8.12,5.2,9.17,10.43.18.93.24,1.89.3,2.56,4.99,3.25,9.77,6.31,14.4,9.32M129.9,221.31c3.82,2.44,7.46,4.54,11.85,3.88,4.51-.69,8.54,0,12.24,2.77,1.62,1.23,2.95.63,3.19-1.38.18-1.5-.18-3.13-.63-4.6-.69-2.16-1.74-4.24-2.53-6.4-1.2-3.34-.03-6.1,2.5-8.3,3.46-3.04,7.58-4.84,12.12-5.59,2.92-.48,5.74.12,7.79,2.41,1.62,1.8,3.16,3.82,4.3,5.95,1.83,3.43,3.34,7.01,4.87,10.55.42.93.66,2.01.66,3.04,0,1.53-1.17,2.56-2.71,2.77-3.97.51-7.94-2.86-7.61-6.86.36-4.57-2.16-7.04-5.65-8.99-1.65-.9-2.71-.66-4.03.72-1.41,1.47-2.1,3.25-2.16,5.26-.12,3.76.72,7.34,2.04,10.85,2.1,5.59,5.74,9.23,12,9.65,6.31.42,12.3,2.1,18.13,4.57,4.21,1.8,8.45,3.64,13.11,4.03,5.56.48,10.91-.09,15.85-2.98,2.44-1.41,4.81-2.95,7.31-4.3,2.68-1.47,4.87-.96,6.77,1.44.6.75.99,1.65,1.53,2.47,1.08,1.62,2.23,1.98,4.09,1.38,1.77-.57,2.83-1.77,3.01-3.64.21-2.1.42-4.21.51-6.34.18-4.66-1.29-6.83-5.71-8.36-3.43-1.2-6.83-2.38-9.5-4.99-1.2-1.17-2.74-1.38-4.42-1.23-3.34.3-6.71.57-10.04.57-4.6,0-8.9-1.17-12.81-3.67-4.24-2.71-7.55-6.34-10.25-10.55-1.41-2.23-2.92-4.42-4.33-6.68-4.72-7.58-12.18-11.28-20.21-14.07-2.74-.93-5.38-.45-7.73,1.41-1.59,1.26-3.19,2.53-4.9,3.61-1.32.84-2.77,1.65-4.24,2.04-2.04.57-3.46-.66-3.55-2.74-.15-3.28.78-6.1,3.67-8.03.81-.54,1.59-1.14,2.32-1.77.48-.45.84-1.05,1.47-1.8-1.02-.72-1.8-1.5-2.74-1.83-1.47-.54-3.04-.96-4.6-1.08-8.09-.75-16.18-1.38-24.27-2.04-.78-.06-1.59.06-2.38.15-5.71.72-11.4,1.32-17.14.33-1.38-.24-2.83-.27-4.21-.3-2.5-.09-4.66.75-6.46,2.53-1.5,1.47-2.98,3.04-4.57,4.42-2.41,2.07-4.81,4.15-7.43,5.92-2.89,1.95-6.19,2.92-9.77,2.83-3.1-.09-6.19-.09-9.29,0-1.11.03-2.32.24-3.31.72-5.38,2.83-11.13,3.79-17.17,3.55-4.6-.18-8.87-1.5-12.93-3.46-2.59-1.26-4.99-2.92-7.52-4.42-5.65,20.03-8.51,40.44-8.69,61.4,1.86-.3,3.43-.57,4.99-.81,6.86-1.05,13.53-.27,20,2.26,4.99,1.95,9.44,4.72,13.53,8.15.39.33.93.54,1.41.6,2.71.24,6.59-2.13,7.85-4.63.66-1.29.57-2.41-.45-3.37-.69-.66-1.47-1.23-2.26-1.86-.84-.66-1.77-1.2-2.47-1.98-.39-.42-.72-1.35-.54-1.8.21-.51,1.02-.96,1.62-1.08.63-.12,1.41.09,2.04.33,1.17.42,2.29.93,3.4,1.44,2.68,1.26,5.26,1.17,7.88-.21,1.62-.87,3.34-1.65,4.93-2.56,3.01-1.71,6.16-2.01,9.47-1.32,1.02.21,2.07.36,3.13.39,1.08.06,2.07-.24,2.68-1.38-1.08-1.95-2.74-3.25-4.57-4.3-2.38-1.35-4.75-2.77-7.25-3.85-1.74-.75-3.67-1.29-5.53-1.5-2.65-.33-5.23-.66-7.67-1.8-1.44-.69-2.92-1.26-4.3-2.04-1.11-.63-2.1-.57-3.28-.18-2.86.93-5.74,1.74-8.63,2.5-4.39,1.17-8.39.36-11.88-2.68-2.38-2.04-5.08-3.46-8-4.57-2.04-.78-4-1.86-5.83-3.01-1.08-.66-2.01-1.68-1.89-3.28,5.35-1.83,10.73-3.16,16.24-3.91,7.04-.93,13.35.6,18.25,6.16,2.35,2.68,5.65,3.1,8.87,3.61,1.74.27,2.5-.84,2.1-2.68-.18-.93-.63-2.01-.36-2.83,1.32-3.52,2.98-6.89,7.25-7.64,1.53-.27,2.29-1.23,2.62-2.62.15-.6.21-1.23.27-1.83.3-3.16,2.01-5.47,4.69-6.98,5.5-3.07,11.43-4.06,17.65-2.83.96.18,1.86.78,2.77,1.17-1.44,4.18-4.45,9.8-6.95,12.72-3.67,4.3-8.57,8-16.09,4.3-1.47-.72-2.56-.21-3.58.78-1.95,1.89-2.41,5.8-1.05,8.69,1.14,2.41,3.55,3.43,6.77,2.86,1.56-.27,3.13-.57,4.69-.84,2.16-.39,3.82.27,4.69,2.44.3.72.75,1.41,1.2,2.04,1.92,2.74,4.81,3.79,7.88,2.41,2.38-1.08,4.72-2.47,6.74-4.12,1.35-1.11,2.29-2.86,3.13-4.48,1.05-1.92,1.77-4.03,2.71-6.01,1.62-3.43,3.31-6.83,4.96-10.22.66-1.38,1.53-2.77,3.04-3.16,2.89-.75,4.18-2.71,4.81-5.38.21-.84.48-1.74.96-2.44.51-.75,1.23-1.53,2.04-1.92,2.95-1.41,8.69-.03,10.28,2.83,1.08,1.92,2.53,2.74,4.39,3.4.36.12.66.36,1.29.72-1.11.39-1.83.69-2.59.93-.75.24-1.53.39-2.29.69-2.77,1.05-3.04,1.89-1.26,4.12,1.83,2.35,2.01,4.84.87,7.46-1.11,2.59-3.04,4.51-5.32,6.13-1.92,1.35-3.88,2.74-5.95,4.18M343.6,219.38c-2.98-.42-5.83-.87-8.72-1.17-3.85-.42-7.73-.84-11.61-.96-3.31-.09-6.4,1.05-9.44,2.32-3.34,1.38-6.8,1.89-10.37,1.38-.54-.06-1.05-.21-1.56-.21-1.59,0-2.95,1.11-3.28,2.59-.3,1.38.12,1.98,2.07,2.86,1.86.84,3.79,1.53,5.5,2.56,3.91,2.32,6.1,5.74,6.34,10.37.15,2.71-.42,5.29-1.68,7.67-.96,1.86-1.5,3.76-1.14,5.86.3,1.68-.15,2.98-1.47,4.24-1.92,1.86-1.47,3.46,1.02,4.69.93.45,1.95.87,2.74,1.56,1.62,1.38,1.92,3.19.93,4.72-1.11,1.74-3.16,2.47-5.05,1.77-4.51-1.65-7.58-6.43-7.19-11.25.12-1.29.3-2.56.45-3.79-1.29,0-2.41.03-3.55,0-3.25-.15-5.44-1.68-6.46-4.6-.9-2.59-1.05-5.26-.63-8.57.45.84.6,1.2.81,1.5.81,1.23,1.53,2.62,2.53,3.67,2.04,2.16,4.63,2.38,7.34,1.35,2.8-1.05,4.51-3.13,4.75-6.13.21-2.77-.87-5.02-3.31-6.46-.9-.54-1.86-1.02-2.8-1.5-2.5-1.29-5.02-2.56-7.55-3.82-1.14-.57-2.26-1.29-3.76-.9.06.63.09,1.17.18,1.65.72,3.04-.54,4.69-3.67,4.84-.6,0-1.23-.09-1.86-.09-2.98-.06-4.66,1.2-5.17,4.15-.27,1.53-.75,2.92-1.86,4-2.47,2.47-2.35,5.35-1.41,8.39.72,2.38,1.74,3.13,4.24,3.16,1.14,0,2.32-.12,3.43.03,1.89.24,2.59.84,2.59,2.71-.03,4.27,1.89,7.85,3.61,11.52,2.59,5.53,7.1,8,13.08,8.33,6.01.33,11.82-.51,17.44-2.53,3.7-1.32,6.95-3.4,9.2-6.8,1.05-1.56,1.32-2.83.09-4.51-2.59-3.52-3.19-7.61-2.8-11.85.84-9.14,5.44-16.24,12.15-22.19.51-.45,1.11-.75,1.86-1.26,1.59,4.42,3.13,8.63,4.6,12.84.39,1.08.6,2.23.81,3.34.66,3.46,0,6.49-2.98,8.72-2.68,1.98-4.45,4.75-6.34,7.43-.81,1.14-1.2,2.38-.96,3.73.18,1.17.87,2.04,2.16,1.83,4.36-.72,8.69-1.32,12.45-4.06,3.31-2.44,5.98-5.5,8.84-8.36,1.53-1.56,2.59-3.28,3.07-5.41.81-3.58,2.47-6.8,5.05-9.47,1.83-1.89,4-3.28,6.71-3.31,4.48-.06,8.96,0,13.32,0,2.53,4.81.81,9.71-2.16,12.6-4.96,4.81-10.98,6.89-17.86,6.37-.6-.06-1.32-.18-1.77.12-2.47,1.56-4.06,3.73-4.39,6.77h12.06c4.66,0,9.11-.87,13.23-3.19,1.44-.81,3.01-1.47,4.54-2.2,2.86-1.35,5.74-1.56,8.72-.3,1.14.48,2.38.69,3.52,1.17,2.89,1.2,5.62.93,8.45-.33,3.73-1.68,7.64-2.62,11.73-2.98,3.76-.36,7.55-.78,11.13-2.16,2.74-1.08,4.36-2.65,4.12-5.92-.33-4.51,1.41-8.45,4.93-11.22,5.71-4.51,11.7-8.69,17.89-13.26.12,2.38.36,4.45.27,6.52-.18,3.97-.21,8-.99,11.85-.99,4.72-3.67,7.34-8.69,7.22-1.41-.03-2.83.09-4.24.12-1.2,0-2.41.18-2.83,1.5-.42,1.32.09,2.44,1.14,3.28.54.42,1.14.84,1.74,1.17,3.73,1.92,7.52,1.83,11.19,0,2.04-1.02,3.94-2.35,5.86-3.61,2.89-1.86,5.98-3.04,9.41-3.19,2.07-.09,4.18.15,6.4.24-.15-26.25-4.57-51.66-13.44-76.65-4.57,5.47-10.49,7.55-16.78,8.96-2.74.6-5.77.87-8.12,2.26-5.44,3.22-10.61,6.98-15.76,10.67-1.59,1.14-1.65,3.13-.63,4.51,1.29,1.74,3.34,1.77,5.23,2.2,1.5.33,2.5-.36,3.43-1.44.63-.72,1.44-1.29,2.23-1.83,4.42-3.01,9.38-4.09,14.61-3.49,4.63.54,8.51,2.62,11.43,6.46,2.41,3.13,4,6.65,5.44,10.25.66,1.68,1.17,3.46,1.8,5.32-.69.15-1.11.3-1.53.33-11.85,1.08-22.85-1.56-32.74-8.12-4.27-2.83-8.9-4.6-13.65-6.22-5.98-2.01-11.64-1.68-17.02,1.71-3.28,2.07-6.83,2.68-10.64,2.41-2.83-.21-5.65-.24-8.48-.09-3.52.18-6.49,1.65-8.57,4.57-2.38,3.34-1.83,6.83,1.35,9.32,1.05.81,2.16,1.56,3.16,2.44,1.02.9,2.04,1.11,3.37.6,1.2-.48,2.53-.81,3.82-.96,5.29-.6,10.16.72,14.55,3.73,4.39,3.01,7.19,6.98,7.46,12.45.06.99,0,1.98-.06,3.22-2.92-.21-5.5-.15-8-.6-7.07-1.26-13.11-4.75-18.4-9.41-3.85-3.37-8-6.07-12.75-7.91-2.71-1.02-4.96-2.65-6.71-4.96-.6-.81-1.41-1.77-2.32-2.07-3.61-1.2-7.34-2.13-11.16-1.86-2.23.15-4.15,1.23-5.23,3.82.99.42,1.83.87,2.71,1.17,2.71.84,5.41,1.59,8.12,2.47,1.41.45,2.83.99,4.18,1.65,2.47,1.2,3.91,3.25,4.3,5.95.69,4.81-.33,9.44-1.77,14.07-3.43.09-6.31-1.17-8.9-3.04-5.08-3.67-8.12-8.72-9.65-14.73-.36-1.35-.69-2.71-1.05-4.18M144.39,98.45c1.98,1.92,3.7,3.43,5.23,5.11,4.3,4.69,7.46,10.07,9.53,16.06,2.26,6.4,3.07,13.05,2.74,19.82-.12,2.71.3,5.23,1.44,7.73,2.5,5.38,3.55,11.04,3.22,16.99-.09,1.59,0,3.19.18,4.75.3,2.83,1.65,5.02,4.33,6.19,1.77.78,3.58,1.47,5.44,2.01,4.06,1.14,7.73,2.95,10.88,5.8.84.75,1.83,1.38,2.86,1.89,1.74.87,3.28.15,3.55-1.77.12-.96-.12-2.13-.57-3.01-.63-1.14-1.65-2.04-2.44-3.1-.6-.75-1.23-1.53-1.62-2.41-.54-1.23,0-2.23,1.32-2.26,1.26-.03,2.8.09,3.76.78,3.67,2.65,6.22,5.98,5.62,10.91-.15,1.14-.18,2.29-.18,3.43,0,1.26.24,2.5,1.35,3.31,2.65,1.89,3.97,4.63,4.96,7.64,1.89,5.77,5.98,8.81,11.97,9.17,4.39.27,8.81.36,13.23.42,3.91.03,7.76.21,11.55,1.29.48.12.99.12,1.74.21,0-1.56.15-2.98,0-4.33-.48-3.55-2.35-6.4-4.78-8.96-3.28-3.49-7.58-5.44-11.73-7.55-7.88-4.03-13.26-10.07-15.12-18.94-.48-2.26-1.02-4.48-1.47-6.74-.84-4.21-2.92-7.73-6.04-10.64-2.2-2.04-4.42-4.09-6.52-6.22-5.68-5.71-11.4-11.34-18.7-15.03-.54-.27-1.08-.69-1.41-1.17-.54-.87-1.2-1.83-1.32-2.8-.42-3.61.63-7.07,1.41-11.01.48.75.72,1.02.84,1.32.81,1.95,1.62,3.91,2.35,5.89,1.02,2.71,2.83,4.51,5.59,5.59,3.52,1.35,6.92,3.07,10.37,4.6.27.12.57.12,1.02.21-.93-2.47-1.86-4.66-2.59-6.92-1.17-3.58-1.32-7.28-1.2-11.01.12-3.4-1.02-5.08-4.12-6.31-1.05-.42-2.2-.72-3.31-.87-5.11-.6-8.48-3.25-10.58-8.03-1.89-4.36-5.71-7.04-9.71-9.53-2.47,2.29-5.23,3.79-8.45,4.36-5.17.93-9.89.15-13.62-3.91-2.89-3.13-4.69-6.83-5.17-11.1-.18-1.38-.93-2.83-.15-4.39.33.27.57.39.69.6,1.71,2.71,4.21,3.49,7.31,3.28,2.29-.15,4.57.03,6.86.18,3.43.21,6.04,1.71,7.61,4.9.45.93.99,1.92,2.47,1.65.93-1.89.3-3.79-.33-5.59-1.32-3.73-3.7-6.8-6.16-9.8-1.41-1.71-3.19-2.65-5.47-2.86-4.75-.42-9.5-.78-14.22-1.47-6.71-.99-11.19-4.84-13.5-11.22-.51-1.38-1.02-2.77-1.59-4.3-10.76,6.8-20.72,14.28-30.13,22.67.93.78,1.65,1.44,2.41,2.04,3.7,2.89,7.19,6.04,9.98,9.83,1.95,2.59,3.79,5.35,5.17,8.27,2.8,5.8,3.4,11.97,1.95,18.31-.18.75-.03,1.83.39,2.44,2.68,3.85,4.78,8.03,6.68,12.33.45,1.02.99,2.04,2.62,2.47-3.22-14.34.96-26.37,10.55-37.13,2.71,5.26,4.3,10.55,4.72,16.12.21,2.62.18,5.32-.21,7.94-.84,5.53-2.83,10.73-5.65,15.58-.96,1.62-1.29,3.31-.99,5.05.24,1.56.69,3.1,1.2,4.6,1.44,4.06,3.04,8.09,4.48,12.15.75,2.07,1.89,3.73,3.79,4.93,3.4,2.16,7.19,3.34,11.01,4.48,1.59.48,3.28.75,4.93.84,3.01.18,3.79-.63,3.79-3.64,0-2.65-.12-5.29,0-7.94.12-2.68-.78-4.96-2.16-7.22-2.35-3.85-5.35-6.98-9.2-9.32-2.47-1.5-4.42-3.52-5.65-6.16-1.62-3.52-2.1-7.34-1.95-11.13.18-4.3.84-8.6,1.44-12.87.33-2.41.9-4.78,1.47-7.55M394.02,187.99c-3.22,1.98-6.22,2.74-9.47,2.8-3.73.06-7.19-.99-10.4-2.68-4.42-2.35-8.15-5.47-10.52-10.07-1.89-3.67-2.74-7.67-3.49-11.61-.9-4.69-3.22-7.4-8.12-7.91-2.38-.24-4.66-1.08-6.34-3.01-3.01-3.46-6.59-4.39-10.98-2.92-1.95.66-4.15.96-6.22.87-4.72-.18-4.78-.33-5.89,4.21-.69,2.83-1.83,5.41-4.12,7.22-1.77,1.41-3.73,2.77-5.8,3.61-4.21,1.65-6.95,4.51-8.03,8.81-.9,3.7-2.89,6.01-6.77,6.83-2.44.51-4.15,2.29-5.08,4.66-.78,2.04-.03,4,1.89,5.23,1.62,1.02,3.01.78,4.72-.87.45-.42.81-.93,1.2-1.41,2.07-2.53,4.03-5.14,6.22-7.58,1.47-1.62,3.13-3.13,4.9-4.39,2.32-1.68,5.08-1.92,7.85-1.56,1.02.15,1.71.81,1.44,1.8-.12.45-1.02,1.02-1.53.99-2.92-.21-4.27,1.53-5.32,3.88-.9,2.01-1.68,4.15-3.01,5.86-2.23,2.89-4.27,5.83-5.89,9.08-1.23,2.44-3.25,4.03-6.13,3.82-4.6-.36-8.93.63-13.14,2.41-.81.33-1.65.63-2.53.75-2.77.36-4.51,1.83-5.2,4.54-.66,2.56-1.95,4.69-4,6.4-1.74,1.47-1.98,3.49-1.5,5.56.54,2.5,2.53,3.82,4.96,3.04,1.44-.45,2.92-1.32,4.03-2.35,1.2-1.11,2.07-2.62,3.04-4,1.86-2.68,4.3-4.48,7.55-4.84,2.35-.24,4.75-.09,7.13-.24,1.74-.12,3.64,0,5.17-.69,6.34-2.83,12.96-4.6,19.76-5.77,5.83-.99,10.55-3.97,14.37-8.6-.96-.63-2.01-1.17-2.86-1.89-1.89-1.68-3.88-3.34-5.5-5.26-2.35-2.8-2.53-6.1-1.26-9.5.36-.93.66-1.92,1.05-3.13-1.83-.15-3.22-.27-5.08-.42,1.26-.9,2.1-1.53,2.98-2.13-.06-.57-.15-1.08-.18-1.62-.15-3.37,1.68-5.53,5.02-5.98,3.4-.45,6.19,1.05,7.46,3.94,1.23,2.89,2.98,4.75,5.65,6.04.09.03.12.12.21.18,2.92,2.41,5.02,5.38,6.74,8.72,1.98,3.88,3.19,8.03,4.51,12.12.78,2.44,2.59,3.88,5.11,3.79,1.62-.06,3.34-.45,4.84-1.05,3.1-1.29,6.01-2.98,9.14-4.21,2.77-1.08,5.68-2.13,8.6-2.5,4.72-.54,9.5-.57,14.28-.72,5.41-.18,10.49-1.35,14.85-4.75,3.28-2.56,6.43-5.23,9.68-7.79,1.05-.84,1.53-1.89,1.44-3.22-.06-.87,0-1.74,0-2.74-4-2.01-4.66-5.5-4.15-9.44.15-1.14.36-2.29.78-3.34,2.1-5.5,4.27-10.98,6.46-16.63,2.95,4.81,5.47,9.74,6.13,15.52.54,4.69-.36,8.78-3.91,12.06-1.32,1.23-1.53,2.62-1.05,4.48,1.32-.54,2.53-1.02,3.7-1.56,3.91-1.77,7.04-4.36,8.78-8.39.6-1.38,1.29-2.71,1.8-4.12.9-2.47,2.65-4.24,4.84-5.41,1.92-.99,4.06-1.65,6.19-2.23,2.07-.57,4.24-.84,6.49-1.26-4.75-11.13-10.13-21.68-16.57-32.02-1.38,1.32-2.47,2.65-3.82,3.58-2.95,2.04-5.92,4.15-9.14,5.74-4.96,2.47-10.25,2.35-15.52.99-2.56-.66-4.87-.54-7.13.84-2.04,1.23-4.21,1.23-6.37.39-4.48-1.8-8.51-4.21-11.58-8.06-.3-.39-.75-.66-1.44-1.26-.39,1.08-.9,1.83-.87,2.59.06,3.13.54,6.07,3.01,8.45,2.35,2.26,2.98,5.26,3.04,8.48.06,3.79-1.05,7.34-1.8,10.95-.6,2.83-1.44,5.56-2.2,8.3-.45-.06-.63-.03-.78-.12-.93-.48-1.89-.96-2.8-1.5-5.02-2.92-7.76-7.31-8.18-13.11-.3-3.94.36-7.73,1.68-11.43.75-2.07,1.44-4.18,2.16-6.25.54-1.59.36-3.16-.3-4.66-.84-1.98-2.16-3.4-4.45-3.73-2.32-.33-3.28,1.26-4.33,2.83-1.32,1.98-2.53,4.06-4.09,5.86-3.31,3.88-8,5.38-12.75,6.46-2.13.48-4.39.9-6.55.72-3.43-.27-6.77-1.08-10.16-1.65-.78-.12-1.56-.3-2.35-.24-1.2.06-2.13,1.08-2.16,2.26-.06,1.38.96,1.47,1.95,1.59.27,0,.51.12.78.12,3.49.21,6.52,1.47,9.02,3.91,2.23,2.16,4.84,3.49,7.94,3.91,2.5.33,4.15,1.83,5.2,4.06.66,1.35,1.29,2.71,1.98,4.03,1.68,3.31,4.15,5.47,8.09,5.41.45,0,.87.12,1.32.12,3.34.12,5.83,1.74,7.85,4.3,1.86,2.35,2.83,5.08,3.28,8,.63,4.09,2.74,6.98,6.52,8.66,1.2.54,2.32,1.23,3.91,2.1M315.27,98.27c-1.08,3.34-2.1,6.43-3.1,9.5-.84,2.62-1.5,5.26-2.44,7.82-1.56,4.24-4.24,7.31-9.14,7.64-.69.06-1.38.27-2.07.36-7.13,1.05-11.73,5.08-13.53,12.03-1.05,4.03-1.92,8.06-3.67,11.85-.81,1.77-.48,3.28,1.2,4.36,1.83,1.17,2.07,2.89,1.77,4.87-.27,1.92-.51,3.85-.45,5.77.12,5.47.39,10.95.63,16.42,0,.45.3.87.66,1.83,2.53-3.19,4.9-5.89,6.95-8.87,2.89-4.24,4-8.96,3.16-14.1-.21-1.29-.24-2.65-.21-3.97.06-4.81,2.83-7.91,7.91-8.81-.09.72-.06,1.44-.27,2.07-.69,2.1-1.47,4.15-2.23,6.22-.6,1.62-.78,3.25-.09,4.9.96,2.35,2.29,2.77,4.24,1.08,4.12-3.52,7.7-7.58,10.46-12.24,2.86-4.78,5.14-9.83,7.25-15,1.44-3.55,1.71-6.83.18-10.46-1.95-4.66-2.23-9.65-1.35-14.58,1.08-6.16,4.51-11.04,9.29-14.97.72-.6,1.56-.99,2.44-1.56,1.89,3.43,3.37,6.68,4.15,10.28,1.53,7.04.63,13.47-4.09,19.15-1.14,1.35-2.23,2.77-3.13,4.27-.63,1.02-1.08,2.23-1.32,3.43-.27,1.35.63,2.1,1.89,1.56.9-.39,1.71-1.17,2.44-1.92,1.41-1.44,2.59-3.16,4.12-4.45,1.95-1.68,3.46-3.58,4.03-6.07.84-3.64,2.86-6.37,5.83-8.54.87-.63,1.62-1.35,2.5-1.95,3.7-2.62,5.59-6.49,7.25-10.52.87-2.16.75-4.33-.24-6.43-3.04-6.4-1.89-12.63,1.17-18.58,2.62-5.08,5.65-9.98,8.51-14.94.06-.09.3-.09.45-.12,2.23,4.54,4.51,10.98,4.78,15.58.21,4.03-.81,7.28-3.85,9.92-1.11.99-2.2,2.04-3.19,3.16-.9.99-1.44,2.2-.9,3.97.96-.24,2.04-.21,2.68-.72,4.09-3.31,8.48-6.43,8.75-12.54.24-5.68,2.95-10.07,7.85-13.02.78-.48,1.47-1.05,2.32-1.68-15.37-11.22-31.51-20.3-48.92-27.42-.27,1.11-.45,1.95-.66,2.8-1.08,4.18-1.95,8.42-3.34,12.51-1.26,3.76-3.07,7.43-6.1,10.1-2.1,1.83-4.48,3.46-6.95,4.75-3.37,1.77-5.77,4.27-7.28,7.73-.45,1.05-1.02,2.07-1.47,3.13-.9,2.1-2.47,3.52-4.66,3.94-2.65.51-3.94,1.95-4.18,4.66-.33,3.64-2.16,6.4-5.05,8.63-1.5,1.17-2.83,2.68-3.97,4.21-1.83,2.5-3.4,5.17-5.14,7.7-1.98,2.89-3.25,6.01-3.61,9.53-.27,2.71-.81,5.41-1.2,8.12-.18,1.29.27,2.26,1.59,2.68,1.23.42,2.59.09,3.31-.99.42-.66.72-1.41.93-2.16.39-1.35.81-2.71,1.05-4.09.9-5.26,4.27-8.6,8.69-11.04,5.41-3.04,11.34-4.84,17.38-6.86M66.54,142.98c1.95,3.88,5.11,4.09,8.36,4,.87,0,1.77,0,2.65.09,3.25.27,5.86,1.71,7.94,4.24,2.5,3.01,3.97,6.43,4.42,10.28.21,1.92.9,2.65,2.8,2.83.78.06,1.62.06,2.38-.12,3.97-.96,7.91-.36,11.82.36,1.65.3,3.31.75,4.96.75,4.9,0,9.59-1.26,14.19-2.92.48-.18.96-.42,1.41-.69,2.32-1.38,3.07-2.92,2.56-5.56-.21-1.11-.51-2.29-1.11-3.22-1.32-2.07-2.74-4.09-4.33-5.95-2.35-2.77-4.75-5.44-5.8-9.05-.81-2.83-2.86-4.6-5.23-6.07-3.37-2.07-5.17-1.65-7.07,1.83-4.21,7.73-15.61,9.47-22.22,4.63-1.77-1.29-3.58-2.56-5.35-3.88-3.16-2.35-6.34-2.29-9.59-.18-.84.54-1.56,1.41-2.71,1.32-.63-6.86,4.24-13.47,11.31-15.91,6.55-2.26,12.99-2.04,19.21,1.23,1.8.93,3.52,2.04,5.35,2.89,1.5.69,3.1,1.35,4.72,1.56.84.12,2.01-.57,2.71-1.23.84-.78.3-1.86-.27-2.68-2.35-3.28-4.57-6.62-8.93-7.79-4.84-1.32-7.85-4.81-9.71-9.41-1.86-4.54-2.71-9.29-3.22-14.13-.33-3.13-.6-6.28-.93-9.95-27.75,27-47.42,58.33-59.63,94.99,2.26-.84,3.97-1.53,5.71-2.16,4.72-1.71,9.38-3.7,14.46-4,1.89-.12,3.91-.06,5.74.45,5.41,1.47,8.96,5.2,10.85,10.34.81,2.2,2.16,3.13,4.27,3.19,1.56.03,3.19,0,4.66-.45,4.18-1.26,7.76-3.76,11.4-6.1,1.41-.9,2.74-1.92,4.03-3.01,1.44-1.2,1.44-2.2.18-3.55-1.02-1.11-2.32-1.53-3.82-1.41-2.62.21-5.08-.39-7.46-1.41-5.71-2.5-9.29-6.95-11.1-12.75-1.11-3.55-1.11-7.25.45-11.46M81.4,374.33c1.11-2.38,1.92-4.54,3.07-6.52,2.74-4.75,6.16-8.84,11.37-11.04,1.44-.63,3.01-.99,4.51-1.47,3.04-.96,5.29-2.89,6.31-5.92.96-2.83,1.65-5.77,2.38-8.66.6-2.32-.9-3.85-3.22-3.19-2.62.75-5.2,1.71-7.76,2.65-.63.24-1.29.63-1.8,1.11-2.32,2.26-5.2,3.28-8.3,3.82-4.63.81-8.15,3.7-11.73,6.37-1.89,1.41-1.92,3.4-.6,5.44.39.6.96,1.08,1.26,1.71.51,1.08,1.2,2.26,1.23,3.4.09,2.1,0,4.27-.48,6.31-1.56,7.04-5.26,12.81-10.79,17.47-1.14.96-2.23,1.95-3.31,2.92,3.76,5.98,21.83,25.71,26.91,29.44,4.69-3.7,7.61-8.45,8.33-14.43.33-2.83,1.5-4.9,3.88-6.55,1.32-.9,2.38-2.35,3.16-3.76,1.41-2.59,1.92-5.47,2.04-8.42.15-3.7.21-7.43.39-11.13.21-4.27,1.59-8.12,4.54-11.31,3.37-3.64,6.65-7.34,10.13-10.85,1.14-1.14,2.74-1.86,4.18-2.65.99-.54,2.23-.66,2.62-2.16-.69-1.08-1.77-1.77-2.98-2.35-.72-.33-1.56-.57-2.04-1.14-.51-.6-.96-1.56-.84-2.26.09-.57.99-1.14,1.65-1.44.51-.24,1.26-.21,1.8,0,1.71.63,3.49,1.23,5.05,2.16,3.85,2.29,8.24,1.77,10.88-1.68,1.62-2.13,3.67-3.46,6.04-4.51,1.74-.78,3.43-1.83,4.87-3.07,1.71-1.5,3.16-3.34,4.63-5.08,1.74-2.07,2.32-4.54,2.1-7.19-.12-1.68-.69-2.13-2.44-1.83-1.11.18-2.29.42-3.31.9-4.93,2.23-10.1,3.04-15.46,3.04-3.01,0-5.71.93-8.12,2.77-3.37,2.59-6.83,5.02-10.16,7.64-3.94,3.13-7.1,6.89-8.42,11.88-.66,2.56-1.41,5.11-1.92,7.7-1.14,5.56-3.28,10.61-7.34,14.7-3.43,3.49-7.16,6.59-12,7.94-3.4.93-6.77.9-10.31-.69M396.37,69.4c-1.74,5.17-5.59,8.21-9.86,10.85-5.38,3.37-10.82,6.65-16.18,10.1-1.62,1.05-3.04,2.41-4.42,3.73-.81.75-1.26,1.89-.3,2.83.81.78,1.65.06,2.41-.39.39-.21.72-.51,1.08-.78,2.83-1.98,5.53-4.15,8.45-5.92,5.62-3.4,11.7-5.44,18.37-4.45,2.95.42,5.8,1.35,8.45,3.67-3.01.6-5.41,1.86-7.37,3.82-1.32,1.29-2.56,2.68-3.79,4.06-2.5,2.8-5.32,5.17-8.9,6.49-4.81,1.77-9.53,2.29-14.25-.48-3.25-1.92-5.98-1.17-7.73,2.26-2.04,4.06-4.99,7.07-8.93,9.11-6.34,3.28-8.54,9.65-11.58,15.34-.84,1.56-.12,2.65,1.74,3.04,1.2.24,2.44.33,3.67.36,2.56.06,5.11-.06,7.67.06,2.74.12,5.05-.63,6.86-2.71,1.56-1.8,3.31-3.46,4.69-5.38,4.48-6.13,12.75-7.49,18.79-5.11,2.95,1.14,5.95,2.26,8.93,3.31,3.46,1.23,6.28,3.19,7.85,6.65.81,1.8,2.38,2.59,4.27,2.62,2.65,0,4.84-.93,6.16-3.37.6-1.08,1.2-2.16,1.71-3.28,1.02-2.13,2.68-3.52,4.87-4.21,1.59-.51,3.25-.93,4.9-1.11,4.75-.48,9.5-.78,14.22-1.17.81-.06,1.62-.24,2.56-.39-8.33-13.98-30.49-38.7-44.38-49.52M177.77,74.93c3.01.24,4.21,1.44,4.21,4.24,0,5.35,1.17,10.52,2.26,15.7,1.02,4.96,2.92,6.13,7.91,5.14,2.1-.42,3.25.15,4.24,2.04,1.08,2.07,2.35,2.07,3.4-.06,1.35-2.77,2.56-5.62,3.46-8.54,1.23-4.03,1.98-8.24,4.45-11.82.9-1.29,1.83-2.59,2.8-3.88,1.92-2.56,2.65-5.44,1.74-8.51-.63-2.07-1.35-4.33-2.71-5.92-2.01-2.41-4.54-4.39-6.95-6.46-3.28-2.8-4.87-6.46-5.62-10.52-1.14-6.13-.72-12.3-.15-18.46.21-2.23.36-4.48.54-6.86-21.74,4.9-42.07,12.51-61.52,23.24.78.39,1.23.66,1.71.9,2.26,1.2,4.6,2.23,6.77,3.61,5.17,3.25,9.26,7.58,12.3,12.9.3.54.66,1.05,1.08,1.47,1.05,1.02,2.65,1.26,3.64.51,1.2-.87.81-2.1.39-3.13-.75-1.68-1.59-3.37-2.59-4.9-2.01-3.07-1.77-6.1-.39-9.32,2.86-6.65,7.79-11.7,12.75-16.75.15-.18.45-.21.84-.39,2.38,5.95,4.27,11.94,4.6,18.37.3,6.28-1.32,11.67-6.34,15.79-2.41,1.98-3.22,4.57-2.29,7.61,1.23,3.97,2.41,7.94,3.79,11.85.36,1.02,1.14,2.01,2.01,2.68,1.71,1.32,3.1.84,3.43-1.26.3-1.98.21-4.03.3-6.04v-3.28M300.45,473.62c10.58-2.35,20.69-5.23,30.64-9.02-.69-1.77-1.92-2.26-3.46-2.2-1.32.06-2.65.24-3.94.36-1.92.21-3.4-.33-4.36-2.23-.45-.9-1.2-1.89-2.07-2.26-4.06-1.68-8.06-3.58-12.66-3.34-1.92.09-3.88.06-5.83-.03-3.88-.18-6.71-1.89-8.12-5.68-.45-1.23-.99-2.47-1.53-3.67-.99-2.23-2.44-4.06-4.6-5.29-3.22-1.83-4.3-1.77-6.86.99-1.53,1.65-3.28,2.26-5.44,1.92-1.14-.18-2.29-.3-3.43-.36-1.29-.06-1.92.63-2.04,1.89-.42,4.45,1.5,7.55,5.74,9.2.66.24,1.32.51,1.98.69,2.8.81,4.57,2.62,5.08,5.5.57,3.22,2.77,4.63,5.71,4.93,2.62.27,5.29.15,7.91.33,1.56.12,3.16.33,4.66.72,1.83.51,2.74,1.8,2.59,3.79-.09,1.14,0,2.29,0,3.7M202.09,19.94c1.23,2.29,2.2,4.45,3.46,6.43,2.56,3.94,5.38,7.67,7.88,11.61,3.01,4.72,4.63,9.89,3.82,15.58-.3,2.16-.96,4.27-1.32,6.43-.3,1.8-.6,3.67-.51,5.47.15,3.1,2.07,3.94,4.72,2.2,2.29-1.5,3.37-3.79,3.82-6.4.99-5.5.99-11.1.33-16.63-.3-2.53-.24-4.54,2.5-5.74-.63-4.21-1.05-8.3.21-12.39,1.23-4,3.73-7.25,6.77-10.64-10.82.54-21.02,1.98-31.66,4.03M195.3,473.56c.96-1.5,1.98-2.86,2.77-4.33,1.83-3.55,4.36-6.37,7.79-8.45,5.89-3.58,11.46-7.64,16.6-12.24,2.23-1.98,4.84-3.19,7.52-4.36,1.35-.6,2.89-.78,4.27-1.35.93-.39,2.1-.9,2.56-1.68,1.23-2.1,1.56-4.48,1.05-6.89-.12-.6-.9-1.32-1.53-1.47-.99-.24-1.92.33-2.29,1.38-.21.66-.21,1.38-.39,2.07-.42,1.62-1.47,2.59-3.1,2.89-.87.15-1.74.15-2.65.18-3.58.18-7.04.84-10.04,2.92-1.8,1.26-3.31,2.92-5.02,4.3-1.23.96-2.53,1.95-3.97,2.53-1.62.63-3.4.99-5.14,1.17-4.54.48-8.51,2.13-11.88,5.26-.9.84-1.92,1.53-2.86,2.35-3.55,3.16-7.43,5.62-12.06,6.86-1.44.39-3.04.78-4,2.56,7.31,2.56,14.58,4.57,22.31,6.31M479.51,260.04c-1.11.48-1.8.84-2.56,1.08-2.1.66-4.18,1.5-6.31,1.8-2.86.42-5.56-.3-8.15-1.68-1.98-1.08-4.09-2.26-6.25-2.65-2.83-.51-5.8-.33-8.72-.36-1.59,0-2.1.54-1.83,2.13.24,1.38.63,2.77,1.26,4,1.23,2.44,2.83,4.69,4.03,7.13,2.35,4.75,5.95,7.88,10.98,9.71,3.61,1.35,7.13,3.07,10.1,5.71,1.23,1.11,2.5,2.16,3.79,3.34,1.98-9.74,3.07-19.76,3.7-30.25M58.42,381.91c.21,0,.39,0,.6-.06.36-3.58.78-7.13,1.08-10.67.36-4.15.93-8.21,2.53-12.09.81-1.98,1.95-3.43,4.27-3.85,1.83-.33,2.53-1.47,2.16-2.98-.3-1.29-1.56-2.35-3.19-2.07-1.62.3-3.37.33-4.99.12-1.86-.24-3.46.24-5.08.99-1.26.6-2.56,1.14-3.91,1.5-2.92.81-5.77.06-8.63-.39-.87-.12-1.74-.33-2.95-.54,5.47,10.76,11.34,20.66,18.1,30.01M166.46,464.72c1.32-1.26,2.35-2.71,3.76-3.43,3.67-1.89,6.13-4.51,7.07-8.66.54-2.41,2.41-3.85,4.75-4.54.75-.21,1.56-.36,2.26-.69.78-.39,1.56-.87,2.13-1.47.78-.84.9-1.92.36-2.98-.57-1.11-1.65-.99-2.56-.69-1.32.42-2.65.99-3.85,1.65-1.08.6-2.04,1.41-3.04,2.13-2.47,1.8-5.14,2.95-8.21,3.31-5.68.69-11.34,1.62-17.02,2.5-2.53.39-4.99,1.05-7.04,2.77,2.74,2.29,17.23,8.9,21.35,10.1M235.08,478.76c7.88.63,20.84.54,24.69-.15.75-1.65,0-3.13-.99-4.33-1.86-2.35-2.1-4.93-1.77-7.73.54-4.57.27-5.02-3.67-7.1-3.97-2.1-4.75-1.86-5.59,2.62-.63,3.31-2.65,5.05-5.44,6.22-1.95.81-3.97,1.47-5.95,2.16-2.23.78-2.59,1.41-2.13,3.76.27,1.47.54,2.92.87,4.54M202.66,475.27c8.33,1.11,16.54,2.2,24.48,3.25,1.56-1.62.69-2.83-.03-3.88-1.14-1.65-1.02-3.19-.18-4.93,1.44-2.98,3.37-5.35,6.52-6.59.66-.24,1.29-.6,1.89-.96,1.95-1.23,3.07-2.86,2.68-5.29-.15-.87-.21-1.74-.24-2.65-.06-1.2-.69-1.5-1.92-1.11.3,1.53-.54,2.59-1.62,3.61-1.35,1.26-2.65,2.59-3.88,3.97-1.86,2.07-4.15,3.16-6.92,3.46-3.52.39-7.01.93-10.46,1.47-3.04.48-5.41,1.86-6.89,4.75-.84,1.62-2.07,3.01-3.43,4.93M365.55,447.49c-1.11-.12-2.23-.42-3.34-.33-4.21.36-8.42.75-12.63,1.32-7.31.96-14.43.78-21.23-2.53-1.65-.81-3.37-1.56-5.08-2.2-2.07-.75-4.09-.6-6.13,1.08,2.92,2.44,5.71,4.66,9.47,5.05,2.56.27,5.05.54,7.31,1.98.75.48,1.83.6,2.77.66,3.67.21,3.67.15,3.67,3.82,0,.69-.06,1.41.06,2.1.09.66.39,1.26.69,2.2,8.6-3.76,16.75-7.85,24.42-13.11M289.2,475.63c-.51-1.98-1.68-2.38-3.13-2.26-1.14.12-2.26.42-3.4.48-2.8.21-4.24-.87-5.05-3.52-.24-.81-.57-1.8-1.2-2.23-2.38-1.56-5.08-2.44-7.94-2.62-1.29-.09-1.77.51-1.44,1.86.39,1.53,1.02,2.98,1.56,4.45.36.99.99,1.98.93,2.95-.06.9-.9,1.74-1.41,2.68.48,1.38,1.71.87,2.65.75,5.41-.63,10.82-1.32,16.24-2.01.66-.09,1.32-.33,2.16-.54M332.29,177.23c1.02.06,1.89-.69,1.95-1.68.09-1.08-.81-2.1-1.89-2.07-.93,0-1.83.9-1.86,1.86-.03.99.75,1.86,1.77,1.92M137.59,195.96c-1.08-.66-1.68-1.26-2.26-1.26-.45,0-1.2.72-1.29,1.23-.18.87.48,1.56,1.35,1.44.6-.09,1.14-.69,2.2-1.41M179.15,273.21c-.81-.6-1.23-1.14-1.68-1.17-.36-.03-1.14.63-1.08.84.12.48.54,1.14.96,1.26.36.12.9-.42,1.8-.9M247.14,6.02c-.66-.48-1.08-.96-1.56-1.02-.27,0-.96.72-.87.96.15.45.63.93,1.08,1.08.27.09.72-.51,1.35-1.02"
        style="fill: rgb(29, 29, 27);"></path>
    </g>
  </g>
</svg>