<?xml version="1.0" encoding="UTF-8"?>
<svg id="Calque_1" data-name="Calque 1" xmlns="http://www.w3.org/2000/svg"
  viewBox="0 0 164.76 164.67" width="164.76" height="164.67">
  <path
    d="M164.76,81.87c-.34,22.47-8,41.48-22.97,57.54-17.27,17.32-38.11,25.78-62.58,25.24C35.95,162.88.35,127.87,0,82.3c.35-21.99,8.02-41.02,23.04-57.09C40.39,7.82,61.35-.58,85.91.03c42.75,1.97,78.43,36.48,78.85,81.84M128.35,127.74c-2.66-2.09-3.74-4.81-3.89-7.96-.07-1.48.2-2.92.61-4.34.3-1.03.01-1.64-.97-2.05-.62-.25-1.27-.46-1.92-.61-1.57-.37-2.99-1-4.27-1.99-.41-.32-.9-.56-1.38-.76-1.84-.77-3.69-1.51-5.42-2.53-.77-.45-1.57-.91-2.61-1.01-.07.71-.14,1.37-.19,2.04-.03.34.15.52.51.59.84.18,1.12.56,1.05,1.4-.03.34-.07.69-.11,1.08.31.08.56.15.81.22.43.11.88.15,1.28.31,2.64,1.05,4.61,2.78,5.42,5.6.26.89.46,1.83.5,2.76.07,1.4-.04,2.81-.57,4.16-2.25-.24-4.02-1.23-5.43-2.96-1.49-1.82-2.29-3.94-2.93-6.15-.09-.31-.17-.63-.26-.95-.07,0-.15.01-.22.02-.06.39-.17.78-.16,1.16.02.88.12,1.76.14,2.64.05,2.28-.89,4.1-2.71,5.44-.73.54-1.58.85-2.59.78-.07-.81-.2-1.56-.2-2.32-.01-1.95.36-3.81,1.64-5.36.56-.68,1.23-1.26,1.83-1.91.37-.4.7-.85,1.04-1.27-.59-.88-.83-1.79-.94-2.72-.14-1.19-.26-2.39-.36-3.59-.06-.71-.32-1.3-.84-1.78-.48-.45-1.05-.43-1.65-.39-.57.04-.54.48-.68.85-.08.2-.38.41-.59.42-.2,0-.5-.2-.59-.39-.15-.3-.21-.67-.23-1.02-.05-1.17,0-2.36-.11-3.52-.12-1.22-.36-2.43-.63-3.63-.18-.81-.75-1.3-1.59-1.45-.38-.07-.74-.17-1.12-.23-.69-.13-1.2-.5-1.47-1.14-.26-.62-.7-1-1.34-1.16-1.11-.28-1.94-.94-2.6-1.85-.19-.26-.4-.51-.62-.74-.53-.55-1.16-.92-1.95-.85-.64.06-1.27.19-1.9.34-.61.14-1.01.56-1.31,1.1-.54.96-.76,1.98-.44,3.05.37,1.24.27,2.43-.18,3.62-.02.05-.04.11-.06.17-.28.78-.26,1.56.05,2.32.37.9.74,1.79,1.11,2.69.68,1.68,1.62,3.19,2.98,4.41.75.66,1.5,1.32,2.22,2.01,1.17,1.11,2.07,2.37,2.42,4,.27,1.23.68,2.42,1.08,3.62.2.59.23,1.15-.03,1.71-.25.53-.55,1.04-.8,1.57-.39.82-.8,1.63-1.14,2.47-.53,1.31-.34,2.52.56,3.63.76.93,1.53,1.86,2.26,2.82.94,1.23,1.6,2.6,1.75,4.17.14,1.46.21,2.93.37,4.39.19,1.71.88,3.09,2.65,3.71,1.3.46,2.56,1.03,3.87,1.45.94.31,1.92.57,2.9.66,2.45.23,4.92.35,7.38.51,1.73.12,3.47.16,5.13.7,1.06.34,2.1.74,3.14,1.13.32.12.59.19.9-.04,1.82-1.34,3.73-2.57,5.47-4.01,2.63-2.16,5.2-4.4,7.55-6.89,3.03-3.21,5.85-6.58,8.29-10.27.61-.93,1.3-1.82,1.84-2.79,1.34-2.38,2.73-4.74,3.91-7.19,1.83-3.78,3.29-7.72,4.48-11.75.06-.22.11-.44.15-.6-.96-.46-1.89-.82-2.73-1.33-2.16-1.3-3.51-3.09-3.28-5.77,0-.12,0-.23,0-.35.03-.72-.15-1.39-.48-2.03-1.44-2.74-3.53-4.97-5.64-7.18-.4-.42-.95-.57-1.54-.51-.64.06-1.29.12-1.93.19-.72.07-1.29.38-1.58,1.08-.06.13-.16.25-.22.38-.35.76-1.02.97-1.76.87-.6-.08-1.18-.33-1.76-.51-.7-.22-1.38-.52-2.09-.66-.83-.16-1.69-.2-2.54-.27-.26-.02-.53.01-.78.09-.47.14-.83.68-.78,1.15.05.48.41.6.8.69.49.11.97.21,1.46.33,1.15.29,2.02.92,2.45,2.06.31.82.65,1.64.97,2.46.33.85.88,1.33,1.86,1.32.76-.01,1.53.06,2.28.16,1.18.16,2.2.62,2.83,1.71.32.56.68,1.1.99,1.66.87,1.58,2.14,2.7,3.85,3.31.32.11.62.26,1.02.43-2.01,1.69-4.16,2.04-6.51,1.3-1.77-.55-3.27-1.56-4.63-2.81-1.27-1.17-2.14-2.49-1.94-4.31.06-.6-.15-1.1-.58-1.5-1.15-1.1-2.27-2.22-3.45-3.27-1.02-.9-2.2-1.34-3.58-.89-.14.04-.29.06-.43.09-.72.15-1.34.02-1.79-.62-.36-.5-.86-.68-1.47-.61-.26.03-.54,0-.79.07-1.06.24-2.09.12-3.14-.11-2.24-.47-4.45-.29-6.58.49-.82.3-1.59.81-2.3,1.55.44.19.77.37,1.13.49,1.04.37,2.03.13,3-.26,1.42-.56,2.9-.75,4.41-.54,2.83.38,5.45,1.37,7.95,2.72.09.05.15.15.23.24-1.77,1.78-3.89,2.8-6.26,3.29-1.28.27-2.61.24-3.82-.26-1.07-.44-2.09-1.06-3.04-1.73-.96-.68-1.9-1.38-2.98-1.85-1.4-.6-2.82-1.01-4.36-.59-1.28.35-2.21,1.11-2.61,2.38-.63,1.98-.18,5.21,2.78,6.11.94.29,1.73.86,2.39,1.6.23.26.47.52.71.78.71.77,1.62.89,2.59.81.8-.07,1.22-.61,1.57-1.25.24-.43.52-.87.86-1.22,1.68-1.7,3.78-2.63,6.07-3.2,1.56-.39,3.14-.42,4.73-.32.68.04,1.37.13,2.09.43-1.61,2.06-3.13,4.06-5.15,5.63-1.41,1.1-2.94,1.68-4.75,1.36-.63-.11-1.28-.17-1.93-.18-.51,0-.72.34-.44.76.21.32.56.59.91.76.71.34,1.52.51,2.19.9,1.56.91,3.17,1.4,5.02,1.29,1.61-.09,2.82,1.11,3.01,2.73.09.72.15,1.44.22,2.18,1.79.04,2.78,1.03,3.21,2.65.17.65.25,1.32.31,1.99.21,2.07-.19,4.04-1.13,5.88-.39.77-.96,1.45-1.47,2.21M37.43,132.67c.65,1.02.66,2.08.73,3.14.06.88-.18,1.69-.7,2.4-.47.64-.96,1.26-1.46,1.88-.51.62-.94,1.29-1.13,2.07-.12.51-.18.98.38,1.39,2.82,2.08,5.71,4.03,8.73,5.8.22.13.49.24.73.23,1.08,0,2.16-.04,3.23-.32,1.32-.35,2.35-1.01,3.06-2.18.69-1.14.96-1.27,2.23-.94,1.63.42,3.19.22,4.76-.31.81-.28,1.48-.73,1.94-1.44.76-1.16,1.84-1.46,3.14-1.29.61.08,1.23.11,1.84.12.73,0,1.38-.25,1.92-.75.32-.3.66-.6.93-.94.67-.86,1.55-1.42,2.48-1.94.46-.26.94-.49,1.4-.73,1.21-.64,2.07-1.55,2.28-2.95.17-1.13.69-2.04,1.55-2.78.66-.57,1.09-1.31,1.29-2.16.22-.97.38-1.96.53-2.94.12-.78.44-1.44,1.03-1.99.51-.48,1-.99,1.48-1.51,1.25-1.38,1.45-3.01,1.09-4.77-.28-1.37-.85-2.63-1.58-3.8-.66-1.04-.95-2.14-.92-3.34.01-.61-.14-1.16-.46-1.67-.2-.32-.39-.66-.62-.96-.58-.78-.87-1.63-.92-2.61-.08-1.52-.13-3.04-.5-4.54-.56-2.28-.66-4.58-.11-6.89.15-.62.16-1.29.12-1.92-.12-1.71-1.57-2.8-3.26-2.48-1.06.2-2,.67-2.86,1.29-.66.47-1.15,1.07-1.47,1.83-.25.59-.56,1.16-.85,1.74-.41.82-1.07,1.39-1.88,1.79-.53.26-1.07.49-1.58.78-.3.17-.63.38-.8.67-.68,1.18-1.55,2.28-1.5,3.78.03.87-.63,1.45-1.51,1.54-.29.03-.59,0-.88.03-1.17.08-1.84.74-1.93,1.89-.01.18,0,.35-.01.53-.06,1.27-.54,2.35-1.52,3.16-.58.48-1.23.89-1.88,1.3-.43.27-.71.59-.72,1.13,0,.35-.02.71-.11,1.05-.11.42-.25.84-.47,1.2-.35.58-.93.91-1.55,1.09-1.01.29-2.05.51-3.07.77-.91.23-1.8.53-2.56,1.13-1.42,1.12-1.69,2.67-.74,4.19.28.45.56.9.86,1.33.38.54.85.98,1.53,1.12,1.41.29,2.78.35,4.12-.34.48-.25,1.07-.41,1.6-.39,2.24.11,4.31.82,6.2,2.03.43.28.8.65,1.2.98-.97,1.18-2.1,1.92-3.47,2.3-1.44.4-2.88.4-4.35.12-1.24-.24-2.28-.75-3.01-1.8-.29-.42-.68-.63-1.16-.72-.35-.07-.69-.15-1.04-.2-.73-.09-1.35-.39-1.88-.88-.54-.5-1.05-1.03-1.57-1.54-.86-.82-1.5-1.69-1.21-3.02.15-.7-.35-1.03-1.05-.77-.31.12-.61.35-.84.6-.28.3-.5.65-.72,1-.96,1.49-1.28,3.2-1.61,4.9-.11.54-.15,1.17.25,1.61.72.81.56,1.66.32,2.56-.11.4-.3.67-.69.84-.28.12-.51.34-.79.54M61.59,91.21c-.51.43-1.23.17-1.56.8.71.58,1.08,1.32.9,2.24-.1.48-.29.95-.45,1.42-.08.23-.19.46-.37.87.39-.25.62-.38.82-.53,1.06-.84,2.13-1.66,3.16-2.54.44-.38.81-.85,1.13-1.33.57-.85,1.08-1.75,1.62-2.62,1.01-1.62.62-3.38-.98-4.45-.97-.65-2.06-1.01-3.18-1.23-2.08-.39-4.16-.74-6.25-1.03-2.47-.35-4.8.02-6.8,1.66-.93.76-1.87,1.51-2.83,2.24-.46.36-.75.79-.9,1.36-.23.86-.69,1.62-1.32,2.26-2.24,2.28-4.97,3.01-8.06,2.43-.8-.15-1.64-.38-2.25-1.04.98-1.05,4.55-3.93,5.66-4.54,1.14-.62,2.33-1.26,3.63-1.24,1.08.01,1.69-.48,2.24-1.25.19-.26.39-.52.56-.79,1.01-1.59,2.4-2.63,4.27-2.98.29-.05.58-.08.87-.15.33-.07.65-.17.99-.27-.17-.75-.65-.99-1.22-1.12-.8-.18-1.63-.28-2.4-.54-.92-.31-1.75-.25-2.65.05-1.75.58-3.52,1.15-5.3,1.62-2.23.59-4.46,1.3-6.83,1-.8-.1-1.47.34-2.03.9-.88.89-1.41,1.94-1.33,3.24.1,1.52-.17,2.98-.79,4.37-.12.27-.21.55-.31.83-.39,1.2.12,2.41,1.25,2.94.35.16.7.31,1.05.47,1.37.63,2.26,1.65,2.51,3.17.17,1.06.46,2.08,1.65,2.59-1.07.85-2.16,1.02-3.33.74-1.85-.43-3.22-1.42-3.67-3.36-.14-.59-.17-1.23-.11-1.84.09-.9-.32-1.59-.74-2.3-.18-.31-.49-.63-.86-.45-.23.11-.4.47-.5.74-.12.33-.09.71-.22,1.03-.07.18-.33.39-.49.38-.17,0-.36-.24-.47-.42-.08-.14-.03-.35-.05-.52-.07-.64-.09-1.29-.23-1.91-.13-.56,0-.98.42-1.33.34-.28.7-.54,1.02-.84.93-.88,1.52-1.96,1.12-3.23-.46-1.47-.21-2.52,1.19-3.24.33-.17.44-.46.36-.82-.08-.35-.33-.57-.67-.61-1.3-.14-2.65-.23-3.74.6-1.37,1.05-2.65,2.23-3.92,3.41-.53.49-.83,1.19-.6,1.93.21.69.51,1.37.86,2,.29.54.72,1,1.07,1.5,1.06,1.5,1.25,3.11.7,4.85-.56,1.77-1.68,3.14-3,4.37-.23.21-.5.37-.81.59-.02-.19-.06-.27-.04-.35.24-1.03.17-2.04-.12-3.04-.24-.82-.54-1.62-.72-2.45-.17-.77-.3-1.56-.3-2.34,0-1.31.47-1.81,1.75-2.16.05-.01.08-.08.12-.12-.1-.8-.5-1.28-1.18-1.41-.64-.12-1.01.09-1.41.79-.3.52-.46,1.06-.38,1.68.11.95-.05,1.87-.38,2.76-.72,1.93-1.97,3.37-3.81,4.31-.91.47-1.81.97-2.71,1.48-.42.24-.81.52-1.3.84-.29-3.02.27-5.7,1.93-8.13,1.05-1.53,2.46-2.49,4.27-2.85,1.27-.26,2.49-1.47,2.7-2.72.11-.64-.19-.97-.84-.85-.46.08-.9.25-1.36.38-3.02.85-5.86.37-8.55-1.19-.6-.35-1.19-.72-1.86-1.13.29,8.84,2.02,17.26,5.17,25.43.73,0,1.43-.03,2.14,0,1.82.1,3.56.51,4.98,1.73.64.55,1.16,1.24,1.68,1.91.44.55.95.87,1.66.78.84-.11,1.69-.22,2.52-.36.46-.08.72-.35.66-.94-.29-.05-.57-.12-.85-.15-.9-.12-1.63-.55-2.1-1.31-.37-.59-.65-1.25-.9-1.9-.49-1.24-.6-2.57-.64-3.88-.02-.61-.05-1.3.47-1.81,1.52.46,2.94,1.08,4.22,1.97,1.59,1.11,2.48,2.56,1.99,4.6-.13.53-.15,1.08-.22,1.61,1.23.29,4.23-.74,5.47-1.85-.28-.15-.52-.3-.78-.42-.43-.19-.9-.3-1.3-.54-.44-.27-.84-.61-1.2-.98-.11-.11,0-.42,0-.64.21,0,.44-.02.64.03.13.03.23.17.35.26.43.34.93.51,1.48.48,1.27-.06,2.52.11,3.75.41,1.01.24,1.97.06,2.92-.33,1.52-.63,2.74-1.69,4.06-2.61.79-.55,1.63-1.03,2.44-1.56.2-.13.35-.33.6-.58-.41-.26-.7-.45-.99-.63-.35-.22-.75-.38-1.03-.66-.28-.27-.58-.65-.62-1.01-.1-.88-.03-1.88.58-2.5.57-.59.94-1.2,1.18-1.93.03-.08.09-.15.14-.22.92-1.22,2.26-1.66,3.63-2.09.39.99.38,1.59-.05,2.36-.71,1.27-1.86,1.79-3.24,1.87-.26,1.08-.13,1.96.84,2.59.28.18.48.51.68.79.38.56.9.82,1.56.84,2.14.08,3.99-.57,5.45-2.18.55-.61,1.08-1.25,1.69-1.96-.25-.02-.34-.04-.42-.03-.82.07-1.36.65-1.96,1.11-.44.34-.86.71-1.32,1.02-.27.18-.59.3-.87-.24,1.13-.81,1.37-2.15,1.9-3.35.54-1.25,1.2-2.42,2.1-3.45.6-.68,1.25-1.33,1.9-1.96.39-.38.74-.74.65-1.36-.03-.21.07-.46.15-.68.29-.77.97-1.24,1.86-1.22.83.03,1.66.08,2.01,1.07.07.19.28.35.47.46.24.15.52.24.88.4M90.76,50.38c.22-1.31.39-2.64.67-3.95.34-1.59.23-3.07-.66-4.48-.8-1.26-.91-2.58-.07-3.9.31-.49.4-1.04.3-1.61-.19-.97-.7-1.74-1.51-2.29-.34-.23-.7-.43-1.05-.65-1.18-.77-2.1-1.78-2.73-3.04-1.1-2.25-1.31-4.6-.78-7.03.03-.14.11-.26.19-.43.12.07.24.11.32.18,1.54,1.54,3.16,3,4.58,4.64,1.33,1.55,2.45,3.27,1.86,5.53-.05.18.13.56.3.63.18.07.57-.03.69-.19.28-.39.53-.84.67-1.31.35-1.21.88-2.3,1.78-3.19.52-.51,1.05-1.02,1.58-1.53.94-.9,1.56-1.96,1.78-3.26.16-.95-.08-1.75-.77-2.4-.7-.67-1.44-1.3-2.12-1.99-.61-.62-1.26-1.25-1.73-1.98-.8-1.26-.66-2.71-.48-4.11.22-1.7.87-3.28,1.48-4.87.16-.42.38-.81.65-1.39.2.53.32.86.45,1.19.67,1.72,1.06,3.56,2.09,5.12.46.71,1,1.37,1.54,2.03.68.82,1.01,1.7.65,2.77-.14.41-.24.85-.34,1.27-.1.43-.18.86-.23,1.3-.05.41.07.76.52.9.41.12.95-.06,1.13-.46.14-.31.23-.67.25-1.01.04-.76.04-1.53.03-2.29-.02-.88.18-1.71.66-2.43.45-.68.95-1.36,1.56-1.9,1.42-1.27,2.92-2.45,4.39-3.67.23-.19.47-.38.77-.63-8.1-2.99-16.32-4.55-24.86-4.79-.12.33-.24.62-.33.93-.38,1.3-.9,2.54-1.58,3.72-1.01,1.75-2.4,3.03-4.47,3.4-1.01.18-1.29.45-1.43,1.46-.06.44-.06.88-.08,1.32-.06,1.2-.11,2.4-.18,3.61-.07,1.14.45,1.63,1.6,1.47.34-.05.67-.15,1.03-.23-.08-1.45.42-2.61,1.48-3.48.65-.54,1.38-1,2.13-1.39,2.01-1.05,4.17-1.73,6.33-2.39.24-.07.49-.11.88-.19-.76,1.9-1.46,3.67-2.55,5.25-1,1.44-2.33,2.35-4.11,2.61-.8.12-1.58.45-2.37.65-1.05.26-2.11.51-3.17.7-.69.12-1.29.35-1.83.79-.99.83-2.04,1.6-2.99,2.47-.62.57-1.16,1.24-1.66,1.93-.37.51-.47,1.12,0,1.78.39-.15.76-.31,1.14-.43.37-.12.7-.05.89.34.17.34.09.65-.2.86-.47.34-.96.67-1.46.97-.71.43-1.37.94-1.77,1.68-.5.93-1.06,1.84-1.39,2.83-.33.99-.43,2.06-.59,3.1-.05.31.04.68.4.8.4.13.77,0,1.01-.35.18-.26.34-.55.45-.85.29-.77.8-1.35,1.49-1.8,1.13-.74,2.26-1.49,3.39-2.21.64-.41,1.14-.89,1.37-1.65.18-.61.63-.98,1.26-1.09.38-.07.75-.13,1.13-.15,1.21-.06,2.4.06,3.58.34,1.01.24,1.96.61,2.79,1.24.89.67.91,1.15.08,1.91-1.16,1.06-2.54,1.7-4.04,2.05-.7.16-1.46.18-2.17.1-.8-.1-1.59-.37-2.38-.59-1.05-.29-1.91-.01-2.58.84-.45.58-.88,1.18-1.37,1.72-.98,1.09-1.37,2.35-1.34,3.8.03,1.43.18,2.88-.13,4.31-.02.11-.02.23-.01.35.03.53.32.94.76,1.08.45.14.85-.02,1.17-.55.2-.32.34-.68.5-1.03.17-.37.44-.54.85-.43.41.11.63.42.58.86-.03.23-.09.46-.18.68-.2.46-.45.89-.63,1.36-.21.51-.44,1.03-.55,1.57-.3,1.57.32,2.87,1.33,4.03,1.85,2.14,4.02,3.86,6.54,5.14,1.32.67,2.25,1.68,2.82,3.03.41.96.97,1.81,1.72,2.53.34.33.49.7.5,1.18,0,.29.05.59.15.86.14.37.67.64,1.01.56.42-.1.39-.46.43-.77.01-.09.03-.18.03-.26.02-1.1.33-2.08,1.12-2.88.44-.44.64-.99.7-1.58.09-.87.38-1.65.78-2.41.8-1.49,1.16-3.05.88-4.75-.18-1.07-.52-2.08-1.33-2.81-1.29-1.15-2.64-2.24-3.98-3.34-.65-.53-1.41-.67-2.24-.58-.43.04-.89.05-1.31-.02-1.09-.2-1.8-.95-2.37-1.83-.53-.81-.97-1.68-1.52-2.48-.31-.45-.73-.82-1.12-1.22-.13-.14-.3-.25-.44-.36.08-.09.11-.14.16-.17.07-.05.15-.08.24-.12,1.89-.76,3.78-.71,5.66.02,1.61.63,2.7,1.73,3.05,3.47.06.31.08.63.1.85,1.66,1.08,3.25,2.1,4.79,3.1M43.2,73.6c1.27.81,2.48,1.51,3.94,1.29,1.5-.23,2.84,0,4.07.92.54.41.98.21,1.06-.46.06-.5-.06-1.04-.21-1.53-.23-.72-.58-1.41-.84-2.13-.4-1.11-.01-2.03.83-2.76,1.15-1.01,2.52-1.61,4.03-1.86.97-.16,1.91.04,2.59.8.54.6,1.05,1.27,1.43,1.98.61,1.14,1.11,2.33,1.62,3.51.14.31.22.67.22,1.01,0,.51-.39.85-.9.92-1.32.17-2.64-.95-2.53-2.28.12-1.52-.72-2.34-1.88-2.99-.55-.3-.9-.22-1.34.24-.47.49-.7,1.08-.72,1.75-.04,1.25.24,2.44.68,3.61.7,1.86,1.91,3.07,3.99,3.21,2.1.14,4.09.7,6.03,1.52,1.4.6,2.81,1.21,4.36,1.34,1.85.16,3.63-.03,5.27-.99.81-.47,1.6-.98,2.43-1.43.89-.49,1.62-.32,2.25.48.2.25.33.55.51.82.36.54.74.66,1.36.46.59-.19.94-.59,1-1.21.07-.7.14-1.4.17-2.11.06-1.55-.43-2.27-1.9-2.78-1.14-.4-2.27-.79-3.16-1.66-.4-.39-.91-.46-1.47-.41-1.11.1-2.23.19-3.34.19-1.53,0-2.96-.39-4.26-1.22-1.41-.9-2.51-2.11-3.41-3.51-.47-.74-.97-1.47-1.44-2.22-1.57-2.52-4.05-3.75-6.72-4.68-.91-.31-1.79-.15-2.57.47-.53.42-1.06.84-1.63,1.2-.44.28-.92.55-1.41.68-.68.19-1.15-.22-1.18-.91-.05-1.09.26-2.03,1.22-2.67.27-.18.53-.38.77-.59.16-.15.28-.35.49-.6-.34-.24-.6-.5-.91-.61-.49-.18-1.01-.32-1.53-.36-2.69-.25-5.38-.46-8.07-.68-.26-.02-.53.02-.79.05-1.9.24-3.79.44-5.7.11-.46-.08-.94-.09-1.4-.1-.83-.03-1.55.25-2.15.84-.5.49-.99,1.01-1.52,1.47-.8.69-1.6,1.38-2.47,1.97-.96.65-2.06.97-3.25.94-1.03-.03-2.06-.03-3.09,0-.37.01-.77.08-1.1.24-1.79.94-3.7,1.26-5.71,1.18-1.53-.06-2.95-.5-4.3-1.15-.86-.42-1.66-.97-2.5-1.47-1.88,6.66-2.83,13.45-2.89,20.42.62-.1,1.14-.19,1.66-.27,2.28-.35,4.5-.09,6.65.75,1.66.65,3.14,1.57,4.5,2.71.13.11.31.18.47.2.9.08,2.19-.71,2.61-1.54.22-.43.19-.8-.15-1.12-.23-.22-.49-.41-.75-.62-.28-.22-.59-.4-.82-.66-.13-.14-.24-.45-.18-.6.07-.17.34-.32.54-.36.21-.04.47.03.68.11.39.14.76.31,1.13.48.89.42,1.75.39,2.62-.07.54-.29,1.11-.55,1.64-.85,1-.57,2.05-.67,3.15-.44.34.07.69.12,1.04.13.36.02.69-.08.89-.46-.36-.65-.91-1.08-1.52-1.43-.79-.45-1.58-.92-2.41-1.28-.58-.25-1.22-.43-1.84-.5-.88-.11-1.74-.22-2.55-.6-.48-.23-.97-.42-1.43-.68-.37-.21-.7-.19-1.09-.06-.95.31-1.91.58-2.87.83-1.46.39-2.79.12-3.95-.89-.79-.68-1.69-1.15-2.66-1.52-.68-.26-1.33-.62-1.94-1-.36-.22-.67-.56-.63-1.09,1.78-.61,3.57-1.05,5.4-1.3,2.34-.31,4.44.2,6.07,2.05.78.89,1.88,1.03,2.95,1.2.58.09.83-.28.7-.89-.06-.31-.21-.67-.12-.94.44-1.17.99-2.29,2.41-2.54.51-.09.76-.41.87-.87.05-.2.07-.41.09-.61.1-1.05.67-1.82,1.56-2.32,1.83-1.02,3.8-1.35,5.87-.94.32.06.62.26.92.39-.48,1.39-1.48,3.26-2.31,4.23-1.22,1.43-2.85,2.66-5.35,1.43-.49-.24-.85-.07-1.19.26-.65.63-.8,1.93-.35,2.89.38.8,1.18,1.14,2.25.95.52-.09,1.04-.19,1.56-.28.72-.13,1.27.09,1.56.81.1.24.25.47.4.68.64.91,1.6,1.26,2.62.8.79-.36,1.57-.82,2.24-1.37.45-.37.76-.95,1.04-1.49.35-.64.59-1.34.9-2,.54-1.14,1.1-2.27,1.65-3.4.22-.46.51-.92,1.01-1.05.96-.25,1.39-.9,1.6-1.79.07-.28.16-.58.32-.81.17-.25.41-.51.68-.64.98-.47,2.89-.01,3.42.94.36.64.84.91,1.46,1.13.12.04.22.12.43.24-.37.13-.61.23-.86.31-.25.08-.51.13-.76.23-.92.35-1.01.63-.42,1.37.61.78.67,1.61.29,2.48-.37.86-1.01,1.5-1.77,2.04-.64.45-1.29.91-1.98,1.39M114.27,72.96c-.99-.14-1.94-.29-2.9-.39-1.28-.14-2.57-.28-3.86-.32-1.1-.03-2.13.35-3.14.77-1.11.46-2.26.63-3.45.46-.18-.02-.35-.07-.52-.07-.53,0-.98.37-1.09.86-.1.46.04.66.69.95.62.28,1.26.51,1.83.85,1.3.77,2.03,1.91,2.11,3.45.05.9-.14,1.76-.56,2.55-.32.62-.5,1.25-.38,1.95.1.56-.05.99-.49,1.41-.64.62-.49,1.15.34,1.56.31.15.65.29.91.52.54.46.64,1.06.31,1.57-.37.58-1.05.82-1.68.59-1.5-.55-2.52-2.14-2.39-3.74.04-.43.1-.85.15-1.26-.43,0-.8.01-1.18,0-1.08-.05-1.81-.56-2.15-1.53-.3-.86-.35-1.75-.21-2.85.15.28.2.4.27.5.27.41.51.87.84,1.22.68.72,1.54.79,2.44.45.93-.35,1.5-1.04,1.58-2.04.07-.92-.29-1.67-1.1-2.15-.3-.18-.62-.34-.93-.5-.83-.43-1.67-.85-2.51-1.27-.38-.19-.75-.43-1.25-.3.02.21.03.39.06.55.24,1.01-.18,1.56-1.22,1.61-.2,0-.41-.03-.62-.03-.99-.02-1.55.4-1.72,1.38-.09.51-.25.97-.62,1.33-.82.82-.78,1.78-.47,2.79.24.79.58,1.04,1.41,1.05.38,0,.77-.04,1.14.01.63.08.86.28.86.9-.01,1.42.63,2.61,1.2,3.83.86,1.84,2.36,2.66,4.35,2.77,2,.11,3.93-.17,5.8-.84,1.23-.44,2.31-1.13,3.06-2.26.35-.52.44-.94.03-1.5-.86-1.17-1.06-2.53-.93-3.94.28-3.04,1.81-5.4,4.04-7.38.17-.15.37-.25.62-.42.53,1.47,1.04,2.87,1.53,4.27.13.36.2.74.27,1.11.22,1.15,0,2.16-.99,2.9-.89.66-1.48,1.58-2.11,2.47-.27.38-.4.79-.32,1.24.06.39.29.68.72.61,1.45-.24,2.89-.44,4.14-1.35,1.1-.81,1.99-1.83,2.94-2.78.51-.52.86-1.09,1.02-1.8.27-1.19.82-2.26,1.68-3.15.61-.63,1.33-1.09,2.23-1.1,1.49-.02,2.98,0,4.43,0,.84,1.6.27,3.23-.72,4.19-1.65,1.6-3.65,2.29-5.94,2.12-.2-.02-.44-.06-.59.04-.82.52-1.35,1.24-1.46,2.25,1.38,0,2.7,0,4.01,0,1.55,0,3.03-.29,4.4-1.06.48-.27,1-.49,1.51-.73.95-.45,1.91-.52,2.9-.1.38.16.79.23,1.17.39.96.4,1.87.31,2.81-.11,1.24-.56,2.54-.87,3.9-.99,1.25-.12,2.51-.26,3.7-.72.91-.36,1.45-.88,1.37-1.97-.11-1.5.47-2.81,1.64-3.73,1.9-1.5,3.89-2.89,5.95-4.41.04.79.12,1.48.09,2.17-.06,1.32-.07,2.66-.33,3.94-.33,1.57-1.22,2.44-2.89,2.4-.47-.01-.94.03-1.41.04-.4,0-.8.06-.94.5-.14.44.03.81.38,1.09.18.14.38.28.58.39,1.24.64,2.5.61,3.72,0,.68-.34,1.31-.78,1.95-1.2.96-.62,1.99-1.01,3.13-1.06.69-.03,1.39.05,2.13.08-.05-8.73-1.52-17.18-4.47-25.49-1.52,1.82-3.49,2.51-5.58,2.98-.91.2-1.92.29-2.7.75-1.81,1.07-3.53,2.32-5.24,3.55-.53.38-.55,1.04-.21,1.5.43.58,1.11.59,1.74.73.5.11.83-.12,1.14-.48.21-.24.48-.43.74-.61,1.47-1,3.12-1.36,4.86-1.16,1.54.18,2.83.87,3.8,2.15.8,1.04,1.33,2.21,1.81,3.41.22.56.39,1.15.6,1.77-.23.05-.37.1-.51.11-3.94.36-7.6-.52-10.89-2.7-1.42-.94-2.96-1.53-4.54-2.07-1.99-.67-3.87-.56-5.66.57-1.09.69-2.27.89-3.54.8-.94-.07-1.88-.08-2.82-.03-1.17.06-2.16.55-2.85,1.52-.79,1.11-.61,2.27.45,3.1.35.27.72.52,1.05.81.34.3.68.37,1.12.2.4-.16.84-.27,1.27-.32,1.76-.2,3.38.24,4.84,1.24,1.46,1,2.39,2.32,2.48,4.14.02.33,0,.66-.02,1.07-.97-.07-1.83-.05-2.66-.2-2.35-.42-4.36-1.58-6.12-3.13-1.28-1.12-2.66-2.02-4.24-2.63-.9-.34-1.65-.88-2.23-1.65-.2-.27-.47-.59-.77-.69-1.2-.4-2.44-.71-3.71-.62-.74.05-1.38.41-1.74,1.27.33.14.61.29.9.39.9.28,1.8.53,2.7.82.47.15.94.33,1.39.55.82.4,1.3,1.08,1.43,1.98.23,1.6-.11,3.14-.59,4.68-1.14.03-2.1-.39-2.96-1.01-1.69-1.22-2.7-2.9-3.21-4.9-.12-.45-.23-.9-.35-1.39M48.02,32.74c.66.64,1.23,1.14,1.74,1.7,1.43,1.56,2.48,3.35,3.17,5.34.75,2.13,1.02,4.34.91,6.59-.04.9.1,1.74.48,2.57.83,1.79,1.18,3.67,1.07,5.65-.03.53,0,1.06.06,1.58.1.94.55,1.67,1.44,2.06.59.26,1.19.49,1.81.67,1.35.38,2.57.98,3.62,1.93.28.25.61.46.95.63.58.29,1.09.05,1.18-.59.04-.32-.04-.71-.19-1-.21-.38-.55-.68-.81-1.03-.2-.25-.41-.51-.54-.8-.18-.41,0-.74.44-.75.42-.01.93.03,1.25.26,1.22.88,2.07,1.99,1.87,3.63-.05.38-.06.76-.06,1.14,0,.42.08.83.45,1.1.88.63,1.32,1.54,1.65,2.54.63,1.92,1.99,2.93,3.98,3.05,1.46.09,2.93.12,4.4.14,1.3.01,2.58.07,3.84.43.16.04.33.04.58.07,0-.52.05-.99,0-1.44-.16-1.18-.78-2.13-1.59-2.98-1.09-1.16-2.52-1.81-3.9-2.51-2.62-1.34-4.41-3.35-5.03-6.3-.16-.75-.34-1.49-.49-2.24-.28-1.4-.97-2.57-2.01-3.54-.73-.68-1.47-1.36-2.17-2.07-1.89-1.9-3.79-3.77-6.22-5-.18-.09-.36-.23-.47-.39-.18-.29-.4-.61-.44-.93-.14-1.2.21-2.35.47-3.66.16.25.24.34.28.44.27.65.54,1.3.78,1.96.34.9.94,1.5,1.86,1.86,1.17.45,2.3,1.02,3.45,1.53.09.04.19.04.34.07-.31-.82-.62-1.55-.86-2.3-.39-1.19-.44-2.42-.4-3.66.04-1.13-.34-1.69-1.37-2.1-.35-.14-.73-.24-1.1-.29-1.7-.2-2.82-1.08-3.52-2.67-.63-1.45-1.9-2.34-3.23-3.17-.82.76-1.74,1.26-2.81,1.45-1.72.31-3.29.05-4.53-1.3-.96-1.04-1.56-2.27-1.72-3.69-.06-.46-.31-.94-.05-1.46.11.09.19.13.23.2.57.9,1.4,1.16,2.43,1.09.76-.05,1.52.01,2.28.06,1.14.07,2.01.57,2.53,1.63.15.31.33.64.82.55.31-.63.1-1.26-.11-1.86-.44-1.24-1.23-2.26-2.05-3.26-.47-.57-1.06-.88-1.82-.95-1.58-.14-3.16-.26-4.73-.49-2.23-.33-3.72-1.61-4.49-3.73-.17-.46-.34-.92-.53-1.43-3.58,2.26-6.89,4.75-10.02,7.54.31.26.55.48.8.68,1.23.96,2.39,2.01,3.32,3.27.65.86,1.26,1.78,1.72,2.75.93,1.93,1.13,3.98.65,6.09-.06.25-.01.61.13.81.89,1.28,1.59,2.67,2.22,4.1.15.34.33.68.87.82-1.07-4.77.32-8.77,3.51-12.35.9,1.75,1.43,3.51,1.57,5.36.07.87.06,1.77-.07,2.64-.28,1.84-.94,3.57-1.88,5.18-.32.54-.43,1.1-.33,1.68.08.52.23,1.03.4,1.53.48,1.35,1.01,2.69,1.49,4.04.25.69.63,1.24,1.26,1.64,1.13.72,2.39,1.11,3.66,1.49.53.16,1.09.25,1.64.28,1,.06,1.26-.21,1.26-1.21,0-.88-.04-1.76,0-2.64.04-.89-.26-1.65-.72-2.4-.78-1.28-1.78-2.32-3.06-3.1-.82-.5-1.47-1.17-1.88-2.05-.54-1.17-.7-2.44-.65-3.7.06-1.43.28-2.86.48-4.28.11-.8.3-1.59.49-2.51M131.04,62.52c-1.07.66-2.07.91-3.15.93-1.24.02-2.39-.33-3.46-.89-1.47-.78-2.71-1.82-3.5-3.35-.63-1.22-.91-2.55-1.16-3.86-.3-1.56-1.07-2.46-2.7-2.63-.79-.08-1.55-.36-2.11-1-1-1.15-2.19-1.46-3.65-.97-.65.22-1.38.32-2.07.29-1.57-.06-1.59-.11-1.96,1.4-.23.94-.61,1.8-1.37,2.4-.59.47-1.24.92-1.93,1.2-1.4.55-2.31,1.5-2.67,2.93-.3,1.23-.96,2-2.25,2.27-.81.17-1.38.76-1.69,1.55-.26.68-.01,1.33.63,1.74.54.34,1,.26,1.57-.29.15-.14.27-.31.4-.47.69-.84,1.34-1.71,2.07-2.52.49-.54,1.04-1.04,1.63-1.46.77-.56,1.69-.64,2.61-.52.34.05.57.27.48.6-.04.15-.34.34-.51.33-.97-.07-1.42.51-1.77,1.29-.3.67-.56,1.38-1,1.95-.74.96-1.42,1.94-1.96,3.02-.41.81-1.08,1.34-2.04,1.27-1.53-.12-2.97.21-4.37.8-.27.11-.55.21-.84.25-.92.12-1.5.61-1.73,1.51-.22.85-.65,1.56-1.33,2.13-.58.49-.66,1.16-.5,1.85.18.83.84,1.27,1.65,1.01.48-.15.97-.44,1.34-.78.4-.37.69-.87,1.01-1.33.62-.89,1.43-1.49,2.51-1.61.78-.08,1.58-.03,2.37-.08.58-.04,1.21,0,1.72-.23,2.11-.94,4.31-1.53,6.57-1.92,1.94-.33,3.51-1.32,4.78-2.86-.32-.21-.67-.39-.95-.63-.63-.56-1.29-1.11-1.83-1.75-.78-.93-.84-2.03-.42-3.16.12-.31.22-.64.35-1.04-.61-.05-1.07-.09-1.69-.14.42-.3.7-.51.99-.71-.02-.19-.05-.36-.06-.54-.05-1.12.56-1.84,1.67-1.99,1.13-.15,2.06.35,2.48,1.31.41.96.99,1.58,1.88,2.01.03.01.04.04.07.06.97.8,1.67,1.79,2.24,2.9.66,1.29,1.06,2.67,1.5,4.03.26.81.86,1.29,1.7,1.26.54-.02,1.11-.15,1.61-.35,1.03-.43,2-.99,3.04-1.4.92-.36,1.89-.71,2.86-.83,1.57-.18,3.16-.19,4.75-.24,1.8-.06,3.49-.45,4.94-1.58,1.09-.85,2.14-1.74,3.22-2.59.35-.28.51-.63.48-1.07-.02-.29,0-.58,0-.91-1.33-.67-1.55-1.83-1.38-3.14.05-.38.12-.76.26-1.11.7-1.83,1.42-3.65,2.15-5.53.98,1.6,1.82,3.24,2.04,5.16.18,1.56-.12,2.92-1.3,4.01-.44.41-.51.87-.35,1.49.44-.18.84-.34,1.23-.52,1.3-.59,2.34-1.45,2.92-2.79.2-.46.43-.9.6-1.37.3-.82.88-1.41,1.61-1.8.64-.33,1.35-.55,2.06-.74.69-.19,1.41-.28,2.16-.42-1.58-3.7-3.37-7.21-5.51-10.65-.46.44-.82.88-1.27,1.19-.98.68-1.97,1.38-3.04,1.91-1.65.82-3.41.78-5.16.33-.85-.22-1.62-.18-2.37.28-.68.41-1.4.41-2.12.13-1.49-.6-2.83-1.4-3.85-2.68-.1-.13-.25-.22-.48-.42-.13.36-.3.61-.29.86.02,1.04.18,2.02,1,2.81.78.75.99,1.75,1.01,2.82.02,1.26-.35,2.44-.6,3.64-.2.94-.48,1.85-.73,2.76-.15-.02-.21-.01-.26-.04-.31-.16-.63-.32-.93-.5-1.67-.97-2.58-2.43-2.72-4.36-.1-1.31.12-2.57.56-3.8.25-.69.48-1.39.72-2.08.18-.53.12-1.05-.1-1.55-.28-.66-.72-1.13-1.48-1.24-.77-.11-1.09.42-1.44.94-.44.66-.84,1.35-1.36,1.95-1.1,1.29-2.66,1.79-4.24,2.15-.71.16-1.46.3-2.18.24-1.14-.09-2.25-.36-3.38-.55-.26-.04-.52-.1-.78-.08-.4.02-.71.36-.72.75-.02.46.32.49.65.53.09,0,.17.04.26.04,1.16.07,2.17.49,3,1.3.74.72,1.61,1.16,2.64,1.3.83.11,1.38.61,1.73,1.35.22.45.43.9.66,1.34.56,1.1,1.38,1.82,2.69,1.8.15,0,.29.04.44.04,1.11.04,1.94.58,2.61,1.43.62.78.94,1.69,1.09,2.66.21,1.36.91,2.32,2.17,2.88.4.18.77.41,1.3.7M104.85,32.68c-.36,1.11-.7,2.14-1.03,3.16-.28.87-.5,1.75-.81,2.6-.52,1.41-1.41,2.43-3.04,2.54-.23.02-.46.09-.69.12-2.37.35-3.9,1.69-4.5,4-.35,1.34-.64,2.68-1.22,3.94-.27.59-.16,1.09.4,1.45.61.39.69.96.59,1.62-.09.64-.17,1.28-.15,1.92.04,1.82.13,3.64.21,5.46,0,.15.1.29.22.61.84-1.06,1.63-1.96,2.31-2.95.96-1.41,1.33-2.98,1.05-4.69-.07-.43-.08-.88-.07-1.32.02-1.6.94-2.63,2.63-2.93-.03.24-.02.48-.09.69-.23.7-.49,1.38-.74,2.07-.2.54-.26,1.08-.03,1.63.32.78.76.92,1.41.36,1.37-1.17,2.56-2.52,3.48-4.07.95-1.59,1.71-3.27,2.41-4.99.48-1.18.57-2.27.06-3.48-.65-1.55-.74-3.21-.45-4.85.36-2.05,1.5-3.67,3.09-4.98.24-.2.52-.33.81-.52.63,1.14,1.12,2.22,1.38,3.42.51,2.34.21,4.48-1.36,6.37-.38.45-.74.92-1.04,1.42-.21.34-.36.74-.44,1.14-.09.45.21.7.63.52.3-.13.57-.39.81-.64.47-.48.86-1.05,1.37-1.48.65-.56,1.15-1.19,1.34-2.02.28-1.21.95-2.12,1.94-2.84.29-.21.54-.45.83-.65,1.23-.87,1.86-2.16,2.41-3.5.29-.72.25-1.44-.08-2.14-1.01-2.13-.63-4.2.39-6.18.87-1.69,1.88-3.32,2.83-4.97.02-.03.1-.03.15-.04.74,1.51,1.5,3.65,1.59,5.18.07,1.34-.27,2.42-1.28,3.3-.37.33-.73.68-1.06,1.05-.3.33-.48.73-.3,1.32.32-.08.68-.07.89-.24,1.36-1.1,2.82-2.14,2.91-4.17.08-1.89.98-3.35,2.61-4.33.26-.16.49-.35.77-.56-5.11-3.73-10.48-6.75-16.27-9.12-.09.37-.15.65-.22.93-.36,1.39-.65,2.8-1.11,4.16-.42,1.25-1.02,2.47-2.03,3.36-.7.61-1.49,1.15-2.31,1.58-1.12.59-1.92,1.42-2.42,2.57-.15.35-.34.69-.49,1.04-.3.7-.82,1.17-1.55,1.31-.88.17-1.31.65-1.39,1.55-.11,1.21-.72,2.13-1.68,2.87-.5.39-.94.89-1.32,1.4-.61.83-1.13,1.72-1.71,2.56-.66.96-1.08,2-1.2,3.17-.09.9-.27,1.8-.4,2.7-.06.43.09.75.53.89.41.14.86.03,1.1-.33.14-.22.24-.47.31-.72.13-.45.27-.9.35-1.36.3-1.75,1.42-2.86,2.89-3.67,1.8-1.01,3.77-1.61,5.78-2.28M22.13,47.55c.65,1.29,1.7,1.36,2.78,1.33.29,0,.59,0,.88.03,1.08.09,1.95.57,2.64,1.41.83,1,1.32,2.14,1.47,3.42.07.64.3.88.93.94.26.02.54.02.79-.04,1.32-.32,2.63-.12,3.93.12.55.1,1.1.25,1.65.25,1.63,0,3.19-.42,4.72-.97.16-.06.32-.14.47-.23.77-.46,1.02-.97.85-1.85-.07-.37-.17-.76-.37-1.07-.44-.69-.91-1.36-1.44-1.98-.78-.92-1.58-1.81-1.93-3.01-.27-.94-.95-1.53-1.74-2.02-1.12-.69-1.72-.55-2.35.61-1.4,2.57-5.19,3.15-7.39,1.54-.59-.43-1.19-.85-1.78-1.29-1.05-.78-2.11-.76-3.19-.06-.28.18-.52.47-.9.44-.21-2.28,1.41-4.48,3.76-5.29,2.18-.75,4.32-.68,6.39.41.6.31,1.17.68,1.78.96.5.23,1.03.45,1.57.52.28.04.67-.19.9-.41.28-.26.1-.62-.09-.89-.78-1.09-1.52-2.2-2.97-2.59-1.61-.44-2.61-1.6-3.23-3.13-.62-1.51-.9-3.09-1.07-4.7-.11-1.04-.2-2.09-.31-3.31-9.23,8.98-15.77,19.4-19.83,31.59.75-.28,1.32-.51,1.9-.72,1.57-.57,3.12-1.23,4.81-1.33.63-.04,1.3-.02,1.91.15,1.8.49,2.98,1.73,3.61,3.44.27.73.72,1.04,1.42,1.06.52.01,1.06,0,1.55-.15,1.39-.42,2.58-1.25,3.79-2.03.47-.3.91-.64,1.34-1,.48-.4.48-.73.06-1.18-.34-.37-.77-.51-1.27-.47-.87.07-1.69-.13-2.48-.47-1.9-.83-3.09-2.31-3.69-4.24-.37-1.18-.37-2.41.15-3.81M27.07,124.49c.37-.79.64-1.51,1.02-2.17.91-1.58,2.05-2.94,3.78-3.67.48-.21,1-.33,1.5-.49,1.01-.32,1.76-.96,2.1-1.97.32-.94.55-1.92.79-2.88.2-.77-.3-1.28-1.07-1.06-.87.25-1.73.57-2.58.88-.21.08-.43.21-.6.37-.77.75-1.73,1.09-2.76,1.27-1.54.27-2.71,1.23-3.9,2.12-.63.47-.64,1.13-.2,1.81.13.2.32.36.42.57.17.36.4.75.41,1.13.03.7,0,1.42-.16,2.1-.52,2.34-1.75,4.26-3.59,5.81-.38.32-.74.65-1.1.97,1.25,1.99,7.26,8.55,8.95,9.79,1.56-1.23,2.53-2.81,2.77-4.8.11-.94.5-1.63,1.29-2.18.44-.3.79-.78,1.05-1.25.47-.86.64-1.82.68-2.8.05-1.23.07-2.47.13-3.7.07-1.42.53-2.7,1.51-3.76,1.12-1.21,2.21-2.44,3.37-3.61.38-.38.91-.62,1.39-.88.33-.18.74-.22.87-.72-.23-.36-.59-.59-.99-.78-.24-.11-.52-.19-.68-.38-.17-.2-.32-.52-.28-.75.03-.19.33-.38.55-.48.17-.08.42-.07.6,0,.57.21,1.16.41,1.68.72,1.28.76,2.74.59,3.62-.56.54-.71,1.22-1.15,2.01-1.5.58-.26,1.14-.61,1.62-1.02.57-.5,1.05-1.11,1.54-1.69.58-.69.77-1.51.7-2.39-.04-.56-.23-.71-.81-.61-.37.06-.76.14-1.1.3-1.64.74-3.36,1.01-5.14,1.01-1,0-1.9.31-2.7.92-1.12.86-2.27,1.67-3.38,2.54-1.31,1.04-2.36,2.29-2.8,3.95-.22.85-.47,1.7-.64,2.56-.38,1.85-1.09,3.53-2.44,4.89-1.14,1.16-2.38,2.19-3.99,2.64-1.13.31-2.25.3-3.43-.23M131.82,23.08c-.58,1.72-1.86,2.73-3.28,3.61-1.79,1.12-3.6,2.21-5.38,3.36-.54.35-1.01.8-1.47,1.24-.27.25-.42.63-.1.94.27.26.55.02.8-.13.13-.07.24-.17.36-.26.94-.66,1.84-1.38,2.81-1.97,1.87-1.13,3.89-1.81,6.11-1.48.98.14,1.93.45,2.81,1.22-1,.2-1.8.62-2.45,1.27-.44.43-.85.89-1.26,1.35-.83.93-1.77,1.72-2.96,2.16-1.6.59-3.17.76-4.74-.16-1.08-.64-1.99-.39-2.57.75-.68,1.35-1.66,2.35-2.97,3.03-2.11,1.09-2.84,3.21-3.85,5.1-.28.52-.04.88.58,1.01.4.08.81.11,1.22.12.85.02,1.7-.02,2.55.02.91.04,1.68-.21,2.28-.9.52-.6,1.1-1.15,1.56-1.79,1.49-2.04,4.24-2.49,6.25-1.7.98.38,1.98.75,2.97,1.1,1.15.41,2.09,1.06,2.61,2.21.27.6.79.86,1.42.87.88,0,1.61-.31,2.05-1.12.2-.36.4-.72.57-1.09.34-.71.89-1.17,1.62-1.4.53-.17,1.08-.31,1.63-.37,1.58-.16,3.16-.26,4.73-.39.27-.02.54-.08.85-.13-2.77-4.65-10.14-12.87-14.76-16.47M59.12,24.92c1,.08,1.4.48,1.4,1.41,0,1.78.39,3.5.75,5.22.34,1.65.97,2.04,2.63,1.71.7-.14,1.08.05,1.41.68.36.69.78.69,1.13-.02.45-.92.85-1.87,1.15-2.84.41-1.34.66-2.74,1.48-3.93.3-.43.61-.86.93-1.29.64-.85.88-1.81.58-2.83-.21-.69-.45-1.44-.9-1.97-.67-.8-1.51-1.46-2.31-2.15-1.09-.93-1.62-2.15-1.87-3.5-.38-2.04-.24-4.09-.05-6.14.07-.74.12-1.49.18-2.28-7.23,1.63-13.99,4.16-20.46,7.73.26.13.41.22.57.3.75.4,1.53.74,2.25,1.2,1.72,1.08,3.08,2.52,4.09,4.29.1.18.22.35.36.49.35.34.88.42,1.21.17.4-.29.27-.7.13-1.04-.25-.56-.53-1.12-.86-1.63-.67-1.02-.59-2.03-.13-3.1.95-2.21,2.59-3.89,4.24-5.57.05-.06.15-.07.28-.13.79,1.98,1.42,3.97,1.53,6.11.1,2.09-.44,3.88-2.11,5.25-.8.66-1.07,1.52-.76,2.53.41,1.32.8,2.64,1.26,3.94.12.34.38.67.67.89.57.44,1.03.28,1.14-.42.1-.66.07-1.34.1-2.01,0-.34,0-.69,0-1.09M99.92,157.51c3.52-.78,6.88-1.74,10.19-3-.23-.59-.64-.75-1.15-.73-.44.02-.88.08-1.31.12-.64.07-1.13-.11-1.45-.74-.15-.3-.4-.63-.69-.75-1.35-.56-2.68-1.19-4.21-1.11-.64.03-1.29.02-1.94-.01-1.29-.06-2.23-.63-2.7-1.89-.15-.41-.33-.82-.51-1.22-.33-.74-.81-1.35-1.53-1.76-1.07-.61-1.43-.59-2.28.33-.51.55-1.09.75-1.81.64-.38-.06-.76-.1-1.14-.12-.43-.02-.64.21-.68.63-.14,1.48.5,2.51,1.91,3.06.22.08.44.17.66.23.93.27,1.52.87,1.69,1.83.19,1.07.92,1.54,1.9,1.64.87.09,1.76.05,2.63.11.52.04,1.05.11,1.55.24.61.17.91.6.86,1.26-.03.38,0,.76,0,1.23M67.21,6.63c.41.76.73,1.48,1.15,2.14.85,1.31,1.79,2.55,2.62,3.86,1,1.57,1.54,3.29,1.27,5.18-.1.72-.32,1.42-.44,2.14-.1.6-.2,1.22-.17,1.82.05,1.03.69,1.31,1.57.73.76-.5,1.12-1.26,1.27-2.13.33-1.83.33-3.69.11-5.53-.1-.84-.08-1.51.83-1.91-.21-1.4-.35-2.76.07-4.12.41-1.33,1.24-2.41,2.25-3.54-3.6.18-6.99.66-10.53,1.34M64.95,157.49c.32-.5.66-.95.92-1.44.61-1.18,1.45-2.12,2.59-2.81,1.96-1.19,3.81-2.54,5.52-4.07.74-.66,1.61-1.06,2.5-1.45.45-.2.96-.26,1.42-.45.31-.13.7-.3.85-.56.41-.7.52-1.49.35-2.29-.04-.2-.3-.44-.51-.49-.33-.08-.64.11-.76.46-.07.22-.07.46-.13.69-.14.54-.49.86-1.03.96-.29.05-.58.05-.88.06-1.19.06-2.34.28-3.34.97-.6.42-1.1.97-1.67,1.43-.41.32-.84.65-1.32.84-.54.21-1.13.33-1.71.39-1.51.16-2.83.71-3.95,1.75-.3.28-.64.51-.95.78-1.18,1.05-2.47,1.87-4.01,2.28-.48.13-1.01.26-1.33.85,2.43.85,4.85,1.52,7.42,2.1M159.47,86.48c-.37.16-.6.28-.85.36-.7.22-1.39.5-2.1.6-.95.14-1.85-.1-2.71-.56-.66-.36-1.36-.75-2.08-.88-.94-.17-1.93-.11-2.9-.12-.53,0-.7.18-.61.71.08.46.21.92.42,1.33.41.81.94,1.56,1.34,2.37.78,1.58,1.98,2.62,3.65,3.23,1.2.45,2.37,1.02,3.36,1.9.41.37.83.72,1.26,1.11.66-3.24,1.02-6.57,1.23-10.06M19.43,127.01c.07,0,.13,0,.2-.02.12-1.19.26-2.37.36-3.55.12-1.38.31-2.73.84-4.02.27-.66.65-1.14,1.42-1.28.61-.11.84-.49.72-.99-.1-.43-.52-.78-1.06-.69-.54.1-1.12.11-1.66.04-.62-.08-1.15.08-1.69.33-.42.2-.85.38-1.3.5-.97.27-1.92.02-2.87-.13-.29-.04-.58-.11-.98-.18,1.82,3.58,3.77,6.87,6.02,9.98M55.36,154.55c.44-.42.78-.9,1.25-1.14,1.22-.63,2.04-1.5,2.35-2.88.18-.8.8-1.28,1.58-1.51.25-.07.52-.12.75-.23.26-.13.52-.29.71-.49.26-.28.3-.64.12-.99-.19-.37-.55-.33-.85-.23-.44.14-.88.33-1.28.55-.36.2-.68.47-1.01.71-.82.6-1.71.98-2.73,1.1-1.89.23-3.77.54-5.66.83-.84.13-1.66.35-2.34.92.91.76,5.73,2.96,7.1,3.36M78.18,159.22c2.62.21,6.93.18,8.21-.05.25-.55,0-1.04-.33-1.44-.62-.78-.7-1.64-.59-2.57.18-1.52.09-1.67-1.22-2.36-1.32-.7-1.58-.62-1.86.87-.21,1.1-.88,1.68-1.81,2.07-.65.27-1.32.49-1.98.72-.74.26-.86.47-.71,1.25.09.49.18.97.29,1.51M67.4,158.06c2.77.37,5.5.73,8.14,1.08.52-.54.23-.94-.01-1.29-.38-.55-.34-1.06-.06-1.64.48-.99,1.12-1.78,2.17-2.19.22-.08.43-.2.63-.32.65-.41,1.02-.95.89-1.76-.05-.29-.07-.58-.08-.88-.02-.4-.23-.5-.64-.37.1.51-.18.86-.54,1.2-.45.42-.88.86-1.29,1.32-.62.69-1.38,1.05-2.3,1.15-1.17.13-2.33.31-3.48.49-1.01.16-1.8.62-2.29,1.58-.28.54-.69,1-1.14,1.64M121.57,148.82c-.37-.04-.74-.14-1.11-.11-1.4.12-2.8.25-4.2.44-2.43.32-4.8.26-7.06-.84-.55-.27-1.12-.52-1.69-.73-.69-.25-1.36-.2-2.04.36.97.81,1.9,1.55,3.15,1.68.85.09,1.68.18,2.43.66.25.16.61.2.92.22,1.22.07,1.22.05,1.22,1.27,0,.23-.02.47.02.7.03.22.13.42.23.73,2.86-1.25,5.57-2.61,8.12-4.36M96.18,158.18c-.17-.66-.56-.79-1.04-.75-.38.04-.75.14-1.13.16-.93.07-1.41-.29-1.68-1.17-.08-.27-.19-.6-.4-.74-.79-.52-1.69-.81-2.64-.87-.43-.03-.59.17-.48.62.13.51.34.99.52,1.48.12.33.33.66.31.98-.02.3-.3.58-.47.89.16.46.57.29.88.25,1.8-.21,3.6-.44,5.4-.67.22-.03.44-.11.72-.18M110.51,58.94c.34.02.63-.23.65-.56.03-.36-.27-.7-.63-.69-.31,0-.61.3-.62.62-.01.33.25.62.59.64M45.76,65.17c-.36-.22-.56-.42-.75-.42-.15,0-.4.24-.43.41-.06.29.16.52.45.48.2-.03.38-.23.73-.47M59.58,90.86c-.27-.2-.41-.38-.56-.39-.12-.01-.38.21-.36.28.04.16.18.38.32.42.12.04.3-.14.6-.3M82.19,2c-.22-.16-.36-.32-.52-.34-.09,0-.32.24-.29.32.05.15.21.31.36.36.09.03.24-.17.45-.34"
    fill="#010101" />
</svg>