<svg xmlns="http://www.w3.org/2000/svg" viewBox="0 0 840 1680" width="840px" height="1680px">
  <defs></defs>
  <g id="Calque_2" transform="matrix(0.969844, 0, 0, 0.958981, 161.924179, 178.770248)" style="">
    <g id="Calque_1-2" data-name="Calque 1" transform="matrix(1, 0, 0, 1, -88.474556, 462.028931)">
      <path class="cls-1"
        d="M711.47,1014.81c-7.81-9.94-60.21-85.21-228.65-115.49-16.24-2.92-32.77-4.29-49.12-6.55-33.64-4.65-53.26-16.42-53.19-53.52,0-17.9-.72-35.8-1.26-53.7h-.07c-.29-9.98-.58-19.99-.58-29.96h-.14c0-31.08,2.48-62.16.14-93.24-.29-4.03.58-7.53,3.31-10.91,2.05-2.52,3.67-2.34,5.22-.47,1.58,1.94,6.99-1.37,5.65,2.95-2.2,7.13,2.34,7.02,7.38,8.25,5.19,1.22,11.45.86,13.79-1.8,6.12-6.84,13.5-4.21,20.28-4.07,19.95.36,39.65.14,58.02-8.9,1.44-.72,1.44-2.66.04-3.42-1.73-.97-3.28-1.84-3.17-2.05,4.14-9.72-4.68-5.76-7.89-6.23-7.6-1.04-15.95,1.12-23.55-5.04-1.12-.9-.97-2.63.36-3.28,15.02-7.13,33.17-6.01,46.24-16.03.5-.11,1.04-.18,1.55-.25,3.82-.79,7.6-3.35,11.2-5.58.68.86,1.33,1.69,2.05,2.48,2.09,2.34,3.13,5.98,7.74,2.7,7.35-5.26,8.07-1.04,7.49,4.93-.32,3.49,12.21,14.44,14.3,12.68,8.75-7.53,19.74-13.83,26.25-22.18,7.13-9.15,12.53-19.19,23.66-24.96-3.57-4.21-6.7-1.91-8.43-.22-5.58,5.33-13.07,2.45-19.3,4.65-1.55.54-3.17-.22-3.24-1.94-.04-.83.9-2.34,1.62-2.45,9.04-1.58,14.23-10.44,23.91-10.88,2.23-.11,7.09-1.62,4.43-3.89-2.16-1.84.5-8.72-6.41-6.09-2.2.83-4.21.54-7.24-1.44-6.77-4.5-9.65-10.88-13.43-17-.58-.94-1.91-1.3-2.84-.72-2.59,1.55-3.28,4.86-5.69,6.66-6.12,4.61-13.68,7.56-19.59,3.03-7.92-6.09-10.55-3.46-14.04,3.39-2.45,4.79-2.16,3.49-6.45.4-2.16-1.55-8.68-5.87-10.66-2.48-3.39,5.87-9.54,5.47-13.83,8.54-3.75,2.66-8.43,3.96-8.39,11.67.07,12.89-10.77,20.89-24.78,23.62-3.24.65-7.35.43-9.29,3.39-5.04,7.67-10.91,4.18-17.03,2.41,1.22-4.43,6.09-3.1,8.75-4.47,1.4-.72,1.3-2.56,0-3.39-8.68-5.47-20.38-1.22-28.49-7.45-1.01-.79-2.59-.36-3.13.76-1.37,2.88-1.04,6.73-5.08,7.27-5.69.76-2.74-7.02-7.17-7.63-4.86.97-1.76,8.9-7.99,7.63-4.68-.94-2.34-3.57-1.3-5.98.68-1.58-1.01-3.17-2.74-2.56-10.84,3.82-14.01,1.3-14.98-10.62-.18-2.12-.32-4.25-.61-6.37-1.26-8.68,4.03-10.66,11.6-9.62,12.42,1.69,42.86-6.23,52.07-14.08,5.83-5.01,10.8-6.59,18.47-1.62,9.8,6.3,18.69,3.78,26.22-5.04,4.65-5.44,15.05-5.73,17.72-.36,1.08,2.2,1.04,5.33,4.5,5.19,2.99-.11,4.47-2.66,5.26-5.04,2.38-7.2,8.17-12.28,15.2-13,8.68-.86,16.85-4.25,24.96-4.83,19.12-1.4,29.24-12.24,38.1-25.75,1.22-1.87,4.57-3.64,1.51-6.3-3.03-2.66-5.19-.32-7.85,1.26-5.51,3.24-13.22,8.72-17.83,4.21-8.93-8.68-14.8-2.38-19.37,2.23-6.19,6.27-11.74,5.51-19.3,3.03,3.85-3.67,8.39-3.13,12.1-4.65,7.85-3.17,5.19-5.19,1.84-7.06-1.66-.94-1.22-3.31.68-3.6,3.67-.54,7.53-.25,10.19-2.56,1.44-1.26.43-3.53-1.51-3.42-2.09.11-4.36.68-6.05-1.66,1.87-.94,3.46-1.73,5.08-2.52,1.91-.97,4.86-1.55,4.11-4.21-.79-2.88-3.78-.94-5.55-1.48-7.13-2.23-12.89-2.48-17.39,4.61-1.22,1.94-5.11,1.3-6.91-1.08s.58-3.67,2.05-5.26c4.5-4.86,11.85-5.58,17.03-9.36.97-.72,1.19-2.12.29-2.92-4.14-3.82-13.76-7.13-2.59-10.73,11.78-3.78,17.65-12.68,27.05-18.04,1.69-.97,2.41-5.29.94-4.54-7.17,3.6-15.45-6.55-21.79,2.05-1.04,1.44-3.28,3.06-6.59,1.91-.86-11.02,10.84-14.55,16.42-22.47,1.15-1.62-.72-3.67-2.63-2.85-11.27,4.79-24.67,1.87-34.5,9.8-.68.54-2.59.86-2.92.47-9.04-10.52-12.96-1.51-18.4,3.78-2.56,2.48-5.62,9.62-10.19,4.32-8.43-9.8-9.29-.43-11.81,2.92-6.23.86-.83-8.1-5.15-5.4-4.5,2.81-12.17,2.41-13.32,10.52-.72,4.97-4.57,12.24-12.42,8.17-6.59-3.42-5.87.5-6.88,3.78-2.7,9.08,2.23,15.16,12.53,20.82-8.46-.32-12.32-3.71-16.53-5.51-5.65-2.41-10.73-7.89-10.44-14.23.14-3.17,4.54-4.93,8.5-5.87,1.37-.32,3.42-1.3,4.47-2.16,8.28-6.7,10.66-21.25,26.76-17.79.47.11,1.69-1.44,1.94-2.38,1.33-5.19,5.58-4.54,9.83-5.04,20.67-2.45,22.65-2.77,29.78-13.4.97-1.48-.4-3.35-2.2-2.99-5.55,1.12-11.45,2.23-19.74-1.12,3.82-1.48,6.01-1.66,6.55-2.63,4.07-7.67,14.73-3.39,19.27-9.4,2.02-2.66,2.99-3.28,5.65-2.41,9.65,3.03,18.69-1.62,20.56-10.98.65-3.24,2.99-1.76,5.11-2.23,10.19-2.2,14.26-13.5,7.56-21.68-1.69,5.08.97,13.14-5.62,14.08-5.73.79-13.07-1.58-14.95-10.26-2.45,2.99-3.78,4.68-5.19,6.3-3.42,3.89-6.7,7.38-13.29,6.3-6.48-1.04-6.99-4.68-7.78-9.69-.86-5.44-4.9-5.33-9.33-2.59-4.79,2.95-9.18,6.12-10.7,11.45-.5,1.8-3.31,1.98-3.96.22-.5-1.4-1.37-2.3-3.64-2.23-4.9.14-3.49,5.58-4.65,8.72-2.41,6.48-9.04,7.67-15.52.79-5.44-5.76-7.38-3.75-11.78.54-4.86,4.75-10.59,9.76-17,11.85-5.8,1.87-4-6.45-7.42-8.93-.29-.22-.72-.5-1.01-.47-9.08,1.58-9.44-3.93-10.16-9.98-.22-1.66-2.41-2.34-3.64-1.12-3.96,4.03-7.27,7.27-1.04,11.67,6.7,4.72,9.87,11.2,13.9,17.86.68,1.12,0,2.56-1.33,2.88-3.42.76-6.66,1.4-9.65,2.56-3.89,1.51-10.37-.32-11.2,5.26-.68,4.75,5.4,4.21,8.14,6.55.4.32.83.61,1.37.65,4.43.36,8.14-1.62,11.92-3.57,6.19-3.17,11.16-2.77,13.47,5.26-11.2.94-22.04,4.57-33.17.43h0c-5.51,1.69-7.17-7.92-13.83-3.89-5.22,3.21-11.24,3.64-14.66-2.3-2.92-5.01,3.57-18.04,8.97-19.7,13.76-4.25,14.26-5.37,8.17-16.89-.83-1.58-1.26-3.35-1.76-5.04-.58-1.87-1.08-3.31-3.71-1.91-2.34,1.26-5.51,4.54-7.31.43-1.12-2.59.18-6.27.94-9.29.94-3.71,4.39-3.93,7.31-2.92,9.65,3.24,17.29-.22,25.61-4.57,10.3-5.4,21.68-10.62,31.15,1.58,1.04,1.37,3.39,2.52,5.15,2.48,10.08-.25,19.52,3.64,29.49,3.96,4.18.14,11.02,3.03,8.35-6.01-.47-1.66,1.66-3.49,4.79-2.99,7.13,1.15,15.49-4.61,21.46,3.71,1.51,2.09,4.54-.36,4.32-1.15-2.99-11.96,23.19-.5,14.87-16.39,1.12,0,2.27-.07,3.39-.07,2.3,0,5.55.22,5.87-2.09,1.12-7.92,5.37-14.05,10.8-19.63,1.44-1.48-.14-3.82-2.16-3.17-3.31,1.04-6.45,1.69-9.33-.86-4.61-4.07-7.74-2.05-11.92-.36-3.06,1.22-7.02,4.79-9.44-.68-1.8-4.11-.29-7.2,3.96-9.8,5.69-3.46,10.91-7.63,16.17-11.7,3.1-2.38,5.47-5.15,1.22-8.9-6.77,5.51-13.11,11.96-22.69,10.12-1.44-.29-2.12-1.91-1.26-3.03,2.02-2.52,7.71-4.21,2.02-7.27-12.82-6.88-11.34-14.33-3.53-23.41,1.15-1.33,1.4-3.31-.86-4.47-9.47,6.41-9.4,6.45-15.09,15.52-1.44,2.3-3.1,5.76-6.81,3.96-4.97-2.38-6.73,1.04-9.4,3.42-1.76,1.58-2.56,4.39-6.12,3.78-13.58-2.34-20.31,2.3-19.05,12.82.14,1.26-.97,2.41-2.3,2.2-5.29-.97-2.63,9.29-8.57,7.74-2.09-1.91-2.7-5.01-3.39-8.1-.83-3.67-2.92-5.83-7.24-4.57-3.89,1.15-3.85,3.89-2.85,6.88.9,2.74,1.98,5.58.65,8.32-1.04,2.16-2.41,5.26-4.32,5.8-3.28.94-3.35-2.7-4.65-4.68-2.52-3.89-5.37-9.15-10.05-1.48-1.44,2.38-2.52,1.62-3.93-.18-3.46-4.43-6.19-3.46-7.74,1.37-.76,2.38-.58,5.08-4.72,5.65.18-5.51-1.08-11.38-7.06-12.86-7.2-1.8-7.74,5.44-11.31,9-1.15,1.15-3.24.43-3.53-1.12-2.16-10.84,2.99-16.75,13.83-15.38,13.54,1.73,27.44,5.98,38.75-5.91.97-1.01,4-1.44,5.4-.83,11.81,5.08,18.47-4.47,26.33-8.75,10.52-5.76,9.69-20.78.22-28.38-2.77-2.23-3.64-2.41-5.91.36-4.79,5.87-5.01,5.69-15.09-1.04,7.31,1.8,10.34,0,10.37-5.01,0-1.8.68-4.86,2.05-4.39,10.59,3.85,7.81-10.23,14.87-10.77.97-.07,1.73-.76,1.84-1.69,1.12-7.71,9.65-13.83,7.99-22.44-.32-1.76-2.81-2.2-3.85-.72-5.98,8.46-13.14,15.85-21.68,21.28-15.38,9.76-34.54,10.12-51.89,15.09-1.08.32-3.13,0-3.35-2.16.5-3.03,3.53-3.53,5.87-3.93,16.67-2.7,30.03-12.28,44.91-18.69,2.02-.86,3.82-2.34,5.58-3.64,1.98-1.48,2.41-3.6,1.98-5.76-.61-2.95-3.35-2.12-5.44-2.38-3.57-.43-8.75.58-9.36-3.85-.65-4.57,4.21-6.19,8.14-7.63,3.17-1.15,6.45-2.09,9.62-3.28,8.46-3.13,9.29-4.79,7.2-14.41-1.01.54-1.94,1.04-2.88,1.58-3.78,2.12-8.1,6.34-11.96,2.3-3.13-3.28,2.34-6.01,4.29-8.68,5.87-8.07,4.75-19.81-1.58-22-10.77-3.75-5.91-10.77-8.43-15.99-1.37-2.88.86-5.51,1.22-8.28.58-4.32-1.98-7.2-5.98-7.78-4.47-.65-4.14,4-4.29,6.09-.25,4.65-2.52,7.96-5.62,11.09-7.2,7.2-17.25,12.42-18.69,23.66-.07.43-1.87.65-2.88,1.01-4.54-8.57,3.78-12.75,6.99-18.58.61-1.08-.04-2.45-1.3-2.77-9.98-2.74-9.58-3.17-3.24-10.19-4.21-2.48-8.25,6.95-11.27,1.04-2.34-4.68,1.44-8.68,7.6-9.33.47-.04.58-1.76,1.12-2.56,6.37-10.01,9.58-20.92,10.41-32.45.22-2.81,2.41-5.51-1.51-8.46-3.78-2.81-6.59-.83-9.22.14-8.46,3.17-13.18,10.05-18.08,17.57-.9,1.4-3.21,1.22-3.78-.32-4.5-11.92,4.03-24.99-4.54-35.8-.9-1.15-2.81-1.08-3.53.18-.58,1.01-1.48,1.8-3.39,1.08,1.8-3.28-2.27-5.62-1.48-9.04.4-1.66-.07-4.75-2.02-3.85-10.26,4.86-6.27-4.47-8.35-7.27-3.6-4.79,1.12-11.52-4.29-18.73-1.22,15.88-9.29,28.38-3.31,43.14-6.41-2.27-3.46-7.06-7.13-10.19,1.91,8.61-.94,15.88-1.76,23.37-.47,4.21-2.74,6.91-6.48,7.85-6.3,1.58-2.77-4.39-4.83-6.3-2.95-2.74-1.37-8.25-8.17-11.2,3.96,7.78,1.84,12.78-3.57,17.07-1.26,1.01-2.59,3.71-2.05,4.68,6.99,11.7-1.04,25.43,5.94,37.17,1.44,2.41,2.41,6.73-1.66,8.5-4.03,1.73-4.97-2.2-6.23-4.5-1.44-2.66-3.6-3.53-6.48-3.17-3.57.47-3.49,3.13-3.67,5.65-.29,3.75-.94,7.38-3.6,11.13-.9,1.26-2.88,1.12-3.64-.22-4.61-8.1-11.02-14.44-16.64-21.32-1.4-1.69-2.16-3.96-5.01-3.35-.86.18-2.23,1.76-2.09,1.98,3.93,6.3-1.66,12.5.22,19.3,2.16,7.78,7.78,13.79,11.92,19.27,4.97,6.52,13.22,15.95,26.29,10.7,7.67-3.1,14.55,1.4,20.2,5.33,3.67,2.56,10.19,8.25-.76,11.27-1.48.4-3.06.76-2.74,2.63.32,1.94,1.8,3.17,3.75,3.53,2.95.54,6.01.65,9,1.19,1.8.32,4,.83,3.82,3.13-.22,2.41-2.48,2.27-4.32,2.3-8.28.14-14.48-3.67-19.45-9.44-4.25-4.93-10.41-8.32-15.81-4.9-9.54,6.01-14.48,4.18-18.26-5.29-1.15-2.92-4.61-4.11-7.71-2.92-3.78,1.48-1.04,4.03-.5,6.27.72,3.06,5.65,7.38.72,8.97-4.32,1.37-11.52,3.39-14.95-.79-8.21-10.05-15.85-7.92-24.67-2.2-1.22.79-1.22,2.48,0,3.24,8.79,5.37,14.69,14.41,28.63,9.94,5.08-1.62,17.18-1.37,22.51,5.91,6.01,8.21,14.59,9.9,22.9,7.45,12.82-3.75,23.23,3.1,34.75,4.39,4.83.54,7.09,4.83,6.45,8.79-.72,4.29-5.51,2.59-8.64,2.88-6.12.58-12.93,1.04-17.68-2.41-9.29-6.73-20.17-4.47-30.29-6.16-2.88-.47-7.96-4.32-9.36,1.62-1.15,5.08,3.82,6.12,7.63,7.71,9.69,4,17.79,10.37,21.68,19.34,2.77,6.34,6.01,8.17,12.5,7.2,10.73-1.62,17.72,4.54,24.38,10.88,2.12,2.02,3.49,5.26,1.55,7.71-1.91,2.41-4.65.54-7.09-.54-8.28-3.6-14.05-14.33-25.89-8.17-.36.18-1.73-.43-1.94-.9-4.29-9.83-25.79-3.03-22.44-20.31.07-.32-.97-1.08-1.58-1.3-12.28-3.75-23.05-9.33-29.75-20.78-.79-1.37-2.92-1.3-3.67.11-4.11,7.35-5.04,14.69-6.01,22.04-.29,2.23-1.12,5.4-4.93,4.25-2.77-.83-2.23-2.95-1.8-5.26.65-3.57,2.7-10.16-1.62-9.94-7.27.4-13.32-2.38-19.99-3.1-5.51-.58-9.04,0-7.38,6.63,1.94,7.74-.11,8.75-8.03,5.08-7.38-3.42-13.25-11.99-23.26-8.93-.94.29-1.48,1.26-1.3,2.16,1.44,8.07,1.22,16.85,11.42,21,.61.25.18,2.3.83,2.95,6.16,5.94,11.78,14.05,22.47,10.34,14.23-4.97,25.82,2.38,37.96,6.41,5.19,1.73,4.32,3.39,1.69,4.83-1.55.86-1.4,2.99.29,3.53,2.99.97,5.58,1.8,8.21,2.38,2.16.47,5.37-2.45,6.27,1.76.72,3.31-.43,5.65-4.39,5.98-5.15.43-5.47,2.7-3.13,6.41,2.02,3.17,6.63,6.81,2.09,10.19-4.93,3.67-7.99-1.55-11.13-4.21-2.12-1.8-4.93-6.19-6.81-3.39-3.28,4.86-9.76,4.57-12.6,9-.29.47.58,2.12,1.33,2.59,10.84,6.73,14.44,20.82,28.56,24.45,2.85.72,4.97,4.21,7.13,6.66,1.51,1.73,2.12,4.14.25,5.8-1.55,1.37-3.67.07-5.11-.86-6.52-4.32-13.58-7.24-21-10.05-4.21-1.62-7.38-2.59-11.13-1.48-.97.29-2.02-.22-2.48-1.08-1.94-3.42-4.18-4.18-6.59,1.22-2.02,4.57-.97,8.32,4.39,10.41,1.69.65,4.57,1.76,4.61,2.74.5,14.19,13.29,11.42,22,14.23,4.21,1.37,8.46,2.63,12.53,3.89,1.55.47,1.94,2.38.68,3.35-1.51,1.19-3.39,2.12-1.69,4.72,6.63,0,16.82-2.52,19.41.54,4.83,5.73,14.12-.61,16.17,7.35,6.3-4.14,9.29,5.4,15.38,3.17,7.24-2.66,11.81.94,15.23,6.52-2.48.22-4.93,1.84-7.53.4-9.33-5.22-19.66-2.27-27.15,1.33-10.05,4.83-15.2,4.14-21.03-4.5-1.94-2.88-3.39-9.65-9.36-7.02-5.91,2.59-12.24,1.8-18.4,4.21-6.84,2.74-16.6,4.36-22.69-3.42-2.3-2.92-2.12-8.54-8.25-4.21-4.83,3.42-8.68,7.09-4.61,13.4,2.27,3.53,5.94,5.22,9.18,7.63,2.59,1.94,7.56,7.74,1.8,8.5-11.31,1.44-23.95,4.86-34.32-3.57-4.86-3.93-8.75-7.53-12.82.79-1.22,2.56-5.01,4.36-7.13.5-3.6-6.55-7.06-7.17-12.03-1.26-2.16,2.59-5.51,1.69-8.5.97-3.35-.79-6.77-1.19-10.05.18-4.65,1.98-4.57,6.59-2.92,9.15,3.71,5.65,2.56,17.61,8.93,16.75,8.82-1.19,16.57-3.13,24.99.76,1.26.58,4.29-.22,5.22-1.33,7.53-8.9,14.8-3.67,21.82.29,15.41,8.72,17.97,8.32,28.52-5.29.43-.54,1.04-1.37,1.58-1.37,9.51.18,18.58-4.36,28.05-3.17.4,2.66-1.04,2.48-2.02,2.81-2.52.79-7.06-1.76-7.24,2.7-.18,3.64,4.25,3.49,6.91,4.36,9.54,3.21,20.56.86,27.55-2.52,16.75-8.1,33.82-4.83,50.71-6.19,4.9-.4,10.95,1.26,9.9,7.49-.72,4.21,6.27,13.54-6.99,12.1-1.55-.18-3.96,3.06-5.26,5.15-1.94,3.1-4.5,5.11-8.17,4.61-6.95-.94-11.7,1.69-16.06,7.74-.94,1.3-3.06,1.15-3.67-.29-2.77-6.84-7.74-8.03-14.62-5.69-1.55.54-3.89,0-5.55-.76-7.6-3.39-15.59-1.15-21.86,1.44-4.61,1.94-16.21,3.35-12.06,11.16,2.38,4.47-.97,6.3-1.87,8.64-.47,1.12.4,2.34,1.66,2.59,4.25.76,9.83-.11,10.66,3.6,2.2,9.72,8.54,7.53,13.76,4.83,6.81-3.49,16.1,1.19,21.93-4.57.86-.83,2.3-.94,3.1-.07,3.71,4.21,10.44.18,14.95,2.92,4.36,2.63,10.01,3.89,15.13,2.63,16.78-4.18,16.75-4.43,17.29,11.31.04,1.08.07,2.12.22,3.21.65,4.36-1.04,5.91-5.98,6.77-20.31,3.49-40.41,7.92-60.72,11.45-10.26,1.76-21.68,4.75-29.06-5.65-4.9-6.88-10.16-9.69-17.25-5.58-1.19.68-2.77,0-3.1-1.26-.9-3.57.14-7.71-6.41-8.17-11.63-.86-23.23-7.96-34.54,1.48-1.15.97-5.11-.43-7.49-1.44-2.45-1.01-4.29-2.2-7.24-.72-9.69,4.86-19.7-6.45-29.6.14-.29.18-1.66-1.3-2.63-1.84-10.41-5.91-29.46-1.91-36.48,7.27-5.58,7.31,1.8,10.62,3.82,16.1,4.29,11.56,14.98,16.78,21.75,25.5,4,5.15,8.14,5.47,13.54,5.51,3.39,0,6.77.65,10.16,1.08,27.44,3.64,50.17-3.39,66.16-25.71,1.22-1.69,2.38-4.47,4.93-2.3,2.45,2.05,5.62,6.12,2.92,8.21-5.01,3.85-6.59,11.78-14.91,11.96-4.68.11-9.36,1.33-12.82,4.29-11.78,10.01-25.75,13.29-41.34,13.14-7.92-.07-15.85,1.44-23.77,1.91-4.18.25-6.77,1.66-8.9,5.29-4.97,8.64-3.06,17.14,4.21,21.97,5.15,3.42,13.36.68,19.37-3.6,15.16-10.8,32.41-13.61,50.45-9.22,14.08,3.46,27.84,1.44,41.77.47,2.38-.18,4.75-.68,5.8-2.77,6.55-12.64,18.98-10.12,30-9.76,14.55.47,28.95-.58,43.07-3.28,9.98-1.94,11.38-11.52,15.41-18.58,3.67-6.37-4.54-4.65-6.19-7.78-3.1-5.94-.07-15.27,6.63-16.67,4.54-.97,8.35-.79,8.28,5.26-.14,14.59-.07,29.17-.04,43.76,0,2.7-1.12,6.12-3.78,5.73-10.66-1.58-20.56.9-30.57,3.31-2.81.68-6.3-.72-7.85-2.99-4.11-5.98-9.83-5.26-16.1-3.6-6.09,1.58-14.41-3.21-18.26,4.57-.36.76-1.15,1.22-2.05,1.19-18.87-1.04-32.84,12.1-50.06,15.85-7.2,1.55-15.59,1.48-15.99,11.56,0,.58-3.6,1.91-4.93,1.44-8.03-2.84-12.53,1.73-17.32,6.37-3.89,3.75-8.79,5.22-14.44,5.19-4.47-.04-8.9.47-13.36,2.52-1.33.61-1.48,2.23-.47,3.24,3.28,3.17,3.42,9.72,10.26,7.38,3.53-1.22,5.55.14,8.03.25,12.14.43,25.5,6.27,36.19-4.29,3.39-3.35,6.84-5.26,11.99-3.1,2.41,1.01,5.94.86,7.53-1.01,5.11-6.01,11.02-10.23,19.99-9.94-2.74-1.91-5.29-2.56-7.35-3.93-2.74-1.84-8.46-3.06-5.44-7.49,3.85-5.65,6.73-.68,9.51,1.98,7.99,7.78,16.64,11.38,27.12,3.85.14-.11,1.01.65,2.05,1.37-3.71,4-6.66,8.46-12.03,10.91-7.92,3.6-10.98,12.71-19.95,15.45-1.98.61-2.92,4.14-1.44,6.7,2.52,4.39-.94,4.5-3.96,5.19-6.63,1.44-10.05,9.08-7.81,15.38,2.05,5.76,5.19,5.65,9.8,2.92,1.76-1.04,3.93-1.58,7.71-3.03-1.84,2.34-2.38,3.1-3.03,3.78-2.12,2.27-8.79,1.98-5.83,6.91,2.09,3.53,6.34,3.13,9.87.36,1.15-.9,2.77-3.13,4.11.04,2.77,6.52,4.29,2.81,6.91-.4,1.76-2.2,4.18-3.93,6.52-5.69,1.58-1.19,3.89.25,3.31,2.09-.32,1.04-.72,2.09-.61,3.06.18,1.8,2.77,2.23,3.82.72,5.8-8.5,13.68-15.16,21.72-21.68,1.22-1.01,3.1-.32,3.39,1.15,1.19,5.73,3.17,11.42,3.13,17.39,0,1.84,2.34,2.77,3.64,1.37,9.51-10.16,22.33-16.96,27.91-29.03.43-.97,1.62-1.51,2.66-1.12,11.96,4.5,13.04,13.68,13.83,24.78,2.56,35.58-1.04,71.05-.36,106.6.43,21.93-.25,43.86-.79,65.8-.18,7.56-1.58,14.95-4.03,21.93-7.53,20.31-24.16,36.99-46.2,44.51-1.44.5-2.92.94-4.43,1.37-15.34,4.21-31.12,6.3-46.82,8.82-11.38,1.84-50.71,6.09-100.76,22.11-44.15,14.15-96.69,37.53-145.74,76.56h.29s-.07.07-.11.11h.11l.04,21.75,3.6,22.36s.04.04.07.07l.61,3.82,13.07,22.62,16.82,14.98,19.01,9.33,19.63,4.14h528.02l34.82.36,19.52-3.57,21.61-10.05,13.14-10.77,11.88-15.7,7.96-21.32,1.76-22.04-.43-1.22.04-.11ZM490.31,592.34c.07-.43,1.22-1.12,1.73-1.01,10.59,2.02,18.73-3.28,27.12-7.85,6.27-3.39,12.17-6.45,17.5,1.44,1.51,2.27,4.5,1.87,7.27,1.73,6.23-.36,10.8-3.82,16.17-7.99-2.88,9.8-3.57,10.66-13.32,10.26-13.58-.54-26.72,1.44-39.72,4.68-1.3.32-3.28.5-4.36,1.73-1.3.47-2.59,1.15-3.82,2.2-4.07,3.46-10.66,6.45-17.07,8.61-6.01.32-12.24.54-18.33-1.91,11.38-3.35,24.34,2.38,26.83-11.92v.04ZM475.73,459.6c1.44-1.62,3.53-3.28,5.76-1.4,2.3,1.91-.65,2.77-1.44,4.03-2.16,3.42,1.4,4.03,3.1,5.58,1.15,1.04,4.07,1.3,2.48,3.71-.94,1.4-3.24,3.6-3.85,3.31-6.73-3.1-11.78.5-17.75,6.34.11-8.61,8.03-8.03,8.64-12.93-6.66-2.7-8.43,4.21-13.22,6.3-.9-3.75-3.67-5.91-7.56-9.9,9.98,1.08,17.86,1.69,23.8-5.01l.04-.04ZM370.28,320.33c5.69,6.37,10.34,10.98,16.03,3.35.4-.54,2.63-.72,2.88-.36,7.13,10.08,12.82,3.46,19.37-.94,5.26-3.49,13.32-6.84,17.86-3.39,5.44,4.14-.97,6.59-5.47,7.56-2.56.54-5.22.83-7.81,1.15-11.45,1.44-21.5,8.79-34.18,5.83-6.84-1.58-9.9-3.96-8.64-13.25l-.04.04ZM341.33,151.76c-.4,2.02-1.37,3.96-2.09,5.91-1.22-3.35-10.44-6.37-2.12-10.08,2.92-1.3,5.98-6.81,9.26-3.17,4.11,4.54-4.43,4.03-5.04,7.35ZM274.24,523.77c-2.09,2.99-4.75,4.68-8.5,2.2-1.22-.79-2.27-1.84-3.53-2.56-2.99-1.62-9.94,2.09-8.82-4.72.94-5.76,7.02-4,11.31-4.43,1.12-.11,2.27,0,3.42,0,.76,0,1.55-.11,2.27,0,3.17.58,7.78-1.73,9.18,1.94,1.3,3.35-3.53,4.93-5.29,7.53l-.04.04ZM296.78,527.26c-1.37-.22-2.92.54-4.36.86-3.42.79-7.96,4.72-10.08.76-2.38-4.43,2.74-7.71,6.37-9.94,11.6-7.09,24.13-10.98,38.89-8.79-6.73,12.24-15.74,19.41-30.83,17.07v.04ZM321.45,585.39c-3.71-1.62-4.03-4.83-4.25-8.25.54-2.7-.79-7.2,4.9-5.87,2.88.68,7.89-1.33,8.39,3.35.61,5.8-8.75,5.11-9.04,10.77ZM216.11,1078.48c2.23,2.09,4.86,3.13,8.03,3.13,2.92,0,5.37-.86,7.53-2.66l2.74,2.88c-2.92,2.41-6.37,3.64-10.26,3.64-4.25,0-7.92-1.44-10.95-4.25-2.99-2.81-4.54-6.27-4.54-10.26s1.51-7.42,4.54-10.26c3.03-2.81,6.7-4.25,10.95-4.25,3.93,0,7.38,1.22,10.26,3.64l-2.74,2.88c-2.16-1.8-4.65-2.66-7.53-2.66-3.17,0-5.8,1.01-8.03,3.13-2.23,2.09-3.31,4.57-3.31,7.53s1.08,5.44,3.31,7.53ZM264.55,1081.18c-3.03,2.85-6.7,4.25-10.98,4.25s-7.96-1.44-10.98-4.29c-3.03-2.81-4.54-6.3-4.54-10.3s1.51-7.45,4.54-10.3c3.03-2.81,6.7-4.25,10.95-4.25s7.96,1.44,10.95,4.25c3.03,2.81,4.54,6.3,4.54,10.3s-1.51,7.45-4.54,10.3l.07.04ZM295.38,1085.07c1.04.58,2.02,1.08,2.85,1.22-.07,0,.9,0,1.44-1.4l3.89,1.33c-.97,2.45-3.1,3.93-5.69,3.93h0c-1.91-.29-3.24-1.01-4.54-1.73-1.26-.68-2.41-1.3-3.49-1.37-.22,0-1.12.97-1.4,2.09l-4-.9c.22-.83.61-1.66,1.15-2.41-2.38-.43-4.61-1.37-6.59-2.77-6.91-5.01-8.32-14.26-3.06-20.67,2.56-3.1,6.27-5.08,10.44-5.58,4.18-.47,8.32.58,11.67,2.99,3.35,2.41,5.51,5.87,6.12,9.8.58,3.93-.5,7.78-3.03,10.88-1.62,1.98-3.75,3.42-6.12,4.39.14.07.32.18.47.25l-.11-.04ZM329.45,1077.07c0,2.63-1.04,4.86-3.13,6.7-2.05,1.8-4.57,2.74-7.42,2.74s-5.37-.9-7.42-2.74c-2.09-1.84-3.13-4.11-3.13-6.73v-18.91h4.21v18.91c0,1.51.61,2.77,1.84,3.85,2.52,2.23,6.55,2.23,9.08,0,1.22-1.08,1.8-2.34,1.8-3.85v-18.91h4.21v18.91l-.04.04ZM349.9,1085.35h-15.02l-.11-27.15,14.91.07v3.67l-10.66-.04v8.32l9.94-.07v3.67l-9.87.07v7.78h10.88v3.67h-.07ZM307.98,291.27c-5.65-4.29-11.2-8.75-16.78-13.18.5-.9,1.01-1.8,1.51-2.66,6.23,7.49,13.14,6.48,21.1,3.6,9.72-3.49,19.84-3.1,29.78.43,2.38.83,4.5,1.8,3.93,4.25-.76,3.1-3.71,1.87-5.55,1.26-11.78-3.96-21.93-1.62-31.01,6.19-.58.5-2.41.58-3.03.11h.04ZM326.35,334.13c-1.44-5.94-6.81-7.06-11.02-9.72-1.94-1.22-5.91-1.8-3.1-5.19,2.48-2.95,4.61-.32,6.59,1.15,5.87,4.36,11.52,8.86,15.09,15.45-3.17,1.26-6.81,1.4-7.56-1.69ZM348.39,397.91c-1.22-.07-3.35-1.55-3.31-2.34.29-5.98-5.94-9.98-5.37-15.92h-.14l.14-.11v.14c.07,0,.11,0,.18.04h0c.22,0,.43.07.65.11,3.31.22,4.75-3.71,8.57-3.89,2.7,5.83,1.12,12.24,1.8,18.33.18,1.66.11,3.89-2.52,3.71v-.07ZM350.84,584.96c-1.62,2.63-3.46,3.57-6.12,1.3-7.63-6.52,3.42-9.87,1.98-15.67,8.14,3.89,7.63,8.79,4.14,14.37ZM353.29,355.01c-.5,1.94-2.05,2.81-4.18,2.88-3.13.11-5.11-1.22-5.4-4.18-.76-7.67-9.51-5.55-14.12-10.26,8.75-1.04,15.56-.07,21.25,4.9,2.12,1.84,3.1,4,2.41,6.63l.04.04ZM354.83,338.23c-2.02,2.66-3.82,1.22-5.47-.29-5.4-4.97-11.02-9.76-16.1-15.02-7.71-7.99-5.69-14.59,5.69-17.61,2.66-.72,4.47-2.7,8.07-3.6-1.01,2.52-1.3,4.32-2.34,5.58-6.27,7.6-6.3,7.56,3.28,10.95,3.1,1.08,8.75,17.54,6.91,20.02l-.04-.04ZM417.17,545.45c-12.68,10.37-25.43,6.12-38.64,4.75-2.05-.22-3.49-1.37-3.78-3.39-.32-2.45.94-4.21,3.31-4.93,11.02-3.42,19.84-10.19,29.06-16.46,2.45-1.66,7.6-4.03,9.33-1.37,4.72,7.27,7.2-.36,14.19-2.27-8.9,7.99-5.37,17-13.47,23.62v.04ZM430.75,473.21c4.36-1.8,6.27,2.92,10.73,1.76-1.87,5.44-9.44,4.43-6.81,10.41.61,1.4-1.33,2.74-2.88,1.94-10.8-5.47-14.51,3.35-19.81,8.64-2.81,2.81-4.72,7.78-8.61,1.08-1.01-1.73-2.63-1.94-3.35-.4-3.42,7.45-9.72,10.84-18.51,9.9,1.73,5.58,5.76,5.47,8.64,6.84,7.92,3.71,8.57,8.86,1.22,13.86-2.7,1.84-6.05,2.95-9.11,4.29-5.37,2.34-8.75,1.58-9-4.79-.11-3.17-.9-6.34-1.22-9.51-1.8-17.29-1.73-17.11,15.85-23.26,5.26-1.84,10.52-4.43,14.87-7.71,8.39-6.34,18.44-9.15,27.98-13.07h0ZM371.26,484.48c.79-6.45,6.77-6.63,11.92-6.77,3.96-.11,10.37.11,9.36,4.75-1.3,5.91-8.57,5.58-14.15,5.98-3.35.14-7.71.94-7.13-3.96ZM381.66,469.75c5.62-3.65,16.06-3.25,31.33,1.19-10.37.5-20.74,2.27-31.33-1.19ZM369.71,416.34c1.37-4.57,3.6-8.14,9.51-9.11,12.03-1.94,23.3,5.58,24.56,17h0c1.48-.04,3.03-.29,4.47-.07,1.87.29,5.29-.79,4.65,2.52-.5,2.59-2.92,4.14-5.91,2.23-2.16-1.33-4.14-2.95-6.19-4.43-9.69,2.85-18.04-6.16-28.09-2.63-2.56.9-3.78-2.95-2.99-5.55v.04ZM377.23,214.24c-1.98-.54-4.36-2.99-3.35-4.9,3.06-5.91,8.97-4.47,17.54-4.54-6.95,3.53-6.12,11.6-14.19,9.44ZM409.68,174.09c.68-5.62,4.65-7.42,12.32-7.96-3.64,4.75-6.99,7.27-11.31,8.86-.32-.29-.65-.61-.97-.9.32.29.65.61,1.01.9-4.18,2.88-8.32,5.83-12.53,8.68-4.61,3.1-8.46.79-12.17-1.73-2.74-1.87-.18-5.08.5-4.57,9.15,6.45,15.16-4.75,23.19-3.28h-.04ZM370.03,150.82c5.15-1.87,10.37-3.89,15.77-4.86,3.1-.58,3.42,2.59,1.98,4.32-2.7,3.21-2.16,7.24-3.89,11.45-3.42-2.56-5.55-8.46-11.2-3.75-2.3,1.94-4.07.22-4.97-1.98-.97-2.38.07-4.36,2.34-5.19h-.04ZM365.53,256.3c9.22-2.66,17.75-7.74,29.42-7.09-5.51,6.16-11.99,5.87-17.47,7.78-5.91,2.05-13.9,3.57-6.66,12.17,1.12,1.3.94,2.74-.07,3.89-1.04,1.22-2.59,1.37-4.03.54-3.67-2.16-4.36-5.58-4.25-9.26.07-2.95-1.76-6.63,3.06-7.99v-.04ZM381.34,1084.99h-15.02l-.11-27.15,14.91.07v3.67l-10.66-.04v8.32l9.94-.07v3.67l-9.87.07v7.78h10.88v3.67h-.07ZM402.91,1085.14l-13-19.05v18.69h-4.14v-26h4.03l13.22,19.34-.07-18.98h4.14l.11,26h-4.29ZM436.69,1082c-1.94,1.91-4.36,2.99-7.09,3.13l-2.2.14v-.14h-4.39v-17.11h0v-11.52h5.94c1.73,0,3.24.54,4.43,1.62,1.22,1.08,1.84,2.52,1.84,4.18,0,1.19-.36,2.27-1.01,3.21.86.47,1.69,1.01,2.45,1.73,2.16,2.02,3.24,4.5,3.24,7.38s-1.08,5.37-3.24,7.42l.04-.04ZM468.71,1081.18c-3.03,2.85-6.7,4.25-10.98,4.25s-7.96-1.44-10.98-4.29c-3.03-2.81-4.54-6.3-4.54-10.3s1.51-7.45,4.54-10.3c3.03-2.84,6.7-4.25,10.95-4.25s7.96,1.44,10.98,4.25c3.03,2.81,4.54,6.3,4.54,10.3s-1.51,7.45-4.54,10.3l.04.04ZM476.27,1058.56h4.14v25.35h-4.14v-25.35ZM500.33,1084.06c-2.09,1.98-4.68,2.95-7.63,2.95s-5.55-1.01-7.63-2.99l2.92-2.74c2.63,2.48,6.81,2.48,9.44,0,1.3-1.22,1.94-2.7,1.94-4.43s-.65-3.17-1.94-4.39c-1.4-1.33-3.1-2.27-5.15-2.88-1.94-.83-3.28-1.66-4.29-2.59-1.3-1.19-1.94-2.74-1.94-4.43s.68-3.24,1.94-4.43c2.56-2.38,6.84-2.38,9.4,0,.72.68,1.26,1.44,1.58,2.27l-3.89,1.33c-.11-.29-.32-.58-.61-.86-1.01-.94-2.56-.94-3.57,0-.5.47-.72,1.01-.72,1.69s.22,1.19.72,1.66c.65.61,1.62,1.19,2.88,1.76,2.41.72,4.68,1.98,6.55,3.71,2.09,1.94,3.17,4.36,3.17,7.13s-1.08,5.22-3.17,7.17v.07Z"
        style="fill: rgb(29, 29, 27);"></path>
    </g>
  </g>
</svg>