<?xml version="1.0" encoding="UTF-8"?>
<svg id="Calque_1" data-name="Calque 1" xmlns="http://www.w3.org/2000/svg"
  xmlns:xlink="http://www.w3.org/1999/xlink" viewBox="0 0 426.94 410.85" width="426.94"
  height="410.85">
  <defs>
    <clipPath id="clippath">
      <path
        d="M134.67,0c-10.56,0-19.13,8.24-19.13,18.41l-.89,370.12c0,11.16,9.68,21.7,21.28,21.7l155.11.62c11.73,0,21.25-9.15,21.25-20.45V18.25c0-10.08-8.49-18.25-18.96-18.25h-158.65Z"
        fill="none" />
    </clipPath>
  </defs>
  <g clip-path="url(#clippath)">
    <path
      d="M213.94,410.85h-.95c-.17-.4-.25-.88-.54-1.18-2.89-2.98-5.8-5.93-8.72-8.88-.68-.68-1.4-1.32-2.1-1.98.24.38.49.77.73,1.15-3.64,3.01-7.29,5.99-10.89,9.04-.55.47-.84,1.22-1.25,1.85h-95.82c-3.71-4.02-7.41-8.04-11.27-12.24-3.82,3.86-7.38,7.43-10.91,11.04-.3.31-.4.79-.59,1.2h-.95c-3.7-4.03-7.4-8.05-11.24-12.24-3.84,3.87-7.4,7.45-10.94,11.05-.3.31-.4.79-.59,1.19H0v-12.78c.29-.08.67-.07.84-.25,2.64-2.77,5.21-5.6,7.88-8.35,4.96-5.13,9.97-10.21,14.99-15.34-3.76-3.79-7.46-7.5-11.14-11.22-4.2-4.25-8.38-8.51-12.57-12.77v-31.04h426.94v31.04c-2.11,2.11-4.24,4.21-6.34,6.33-5.77,5.85-11.53,11.71-17.39,17.67,3.45,3.46,6.87,6.9,10.28,10.34,4.49,4.53,8.97,9.06,13.45,13.59v12.78h-47.91c-3.7-4.02-7.41-8.04-11.26-12.22-3.82,3.85-7.39,7.43-10.92,11.03-.3.31-.4.79-.59,1.2h-.95c-3.7-4.03-7.39-8.05-11.24-12.24-3.84,3.87-7.4,7.45-10.94,11.05-.3.31-.4.79-.59,1.2h-95.82c-1.67-1.84-3.36-3.66-5.01-5.52-2.04-2.3-4.05-4.63-6.07-6.95,7.56,0,15.11,0,23.08,0-4.01-4.18-7.68-8.02-11.53-12.04-3.95,4.16-7.72,8.12-11.48,12.09-3.74,3.74-7.49,7.48-11.21,11.24-.29.29-.36.78-.54,1.17M225.68,349.78c3.78,3.99,7.56,7.98,11.48,12.13,3.98-4.12,7.68-7.96,11.63-12.07h-23.19c.37-.56.65-1.2,1.11-1.68,3-3.1,6.05-6.16,9.07-9.24.37-.38.66-.85,1.24-1.63h-23.02c.45-.66.82-1.4,1.37-1.97,3.18-3.29,6.41-6.54,9.91-10.09h-23.62c3.55,3.6,6.8,6.87,10,10.17.56.58.93,1.33,1.39,2h-23.3c3.64,3.73,6.86,7,10.04,10.31.56.58.94,1.32,1.4,1.99h-23.31c4.22,4.31,7.97,8.14,11.85,12.09,3.87-3.88,7.56-7.58,11.23-11.3.17-.18.12-.57.17-.86,3.94-3.87,7.89-7.74,11.81-11.64.12-.12.04-.44.05-.66.36-.04.72-.08,1.08-.11.27.56.41,1.24.83,1.67,3.56,3.65,7.18,7.26,10.79,10.87M58.95,349.78c3.69-3.7,7.39-7.38,11.05-11.1.34-.34.45-.89.66-1.34.3.03.6.06.9.09.21.38.35.83.64,1.14,1.99,2.11,3.97,4.22,6.04,6.26,1.7,1.67,3.51,3.22,5.28,4.82.05.29,0,.68.17.85,3.66,3.73,7.35,7.43,11.22,11.32,3.9-3.99,7.66-7.85,11.83-12.11h-23.28c.24-.45.39-.99.73-1.35,3.01-3.09,6.06-6.15,9.09-9.23.43-.44.8-.95,1.38-1.63-8.02,0-15.59,0-23.15,0,.3-.52.5-1.11.9-1.53,3.01-3.09,6.05-6.15,9.08-9.22.42-.43.77-.93,1.23-1.48h-23.32c3.52,3.58,6.76,6.85,9.95,10.15.56.58.93,1.33,1.39,2h-23.07c.41.61.54.88.73,1.07,3.01,3.07,6.04,6.11,9.03,9.2.62.64,1.07,1.43,1.59,2.15h-23.25c4.08,4.2,7.83,8.05,11.76,12.1,1.62-1.79,2.95-3.36,4.39-4.84,1.45-1.5,3.02-2.89,4.48-4.39.9-.92,1.71-1.94,2.56-2.91M368.14,349.65c.05.29,0,.68.17.85,3.66,3.73,7.35,7.43,11.22,11.32,3.9-3.99,7.66-7.85,11.83-12.11h-23.28c.24-.45.38-.99.73-1.34,2.99-3.08,6.03-6.12,9.04-9.18.44-.45.83-.96,1.62-1.88h-23.15c.45-.66.82-1.39,1.37-1.96,3.19-3.29,6.43-6.54,9.92-10.09h-23.59c3.28,3.35,6.28,6.39,9.24,9.47.78.82,1.4,1.77,2.1,2.67h-23.36c4.24,4.33,7.99,8.16,11.89,12.15,3.89-3.92,7.57-7.63,11.23-11.36.18-.18.12-.57.17-.86.36-.03.73-.06,1.09-.08,0,.29-.11.7.04.85,3.89,3.87,7.81,7.71,11.73,11.56M355.79,398.57c7.92-8.19,15.79-16.32,23.65-24.44-7.93-8.16-15.73-16.19-23.67-24.37-8.07,8.32-15.84,16.33-23.65,24.38,7.83,8.08,15.66,16.16,23.67,24.42M94.82,374.14c-7.86-8.09-15.67-16.14-23.66-24.37-8.05,8.29-15.85,16.32-23.66,24.37,7.96,8.21,15.82,16.31,23.68,24.42,7.93-8.19,15.79-16.3,23.65-24.41M213.45,398.53c7.98-8.21,15.84-16.3,23.7-24.38-7.92-8.15-15.73-16.19-23.69-24.39-8.05,8.3-15.83,16.31-23.65,24.37,7.85,8.1,15.71,16.22,23.63,24.4M118.63,374.14c7.97,8.22,15.82,16.3,23.68,24.4,7.93-8.17,15.78-16.27,23.67-24.4-7.87-8.09-15.7-16.14-23.67-24.35-8.04,8.26-15.81,16.26-23.68,24.35M284.66,398.56c7.95-8.22,15.78-16.33,23.62-24.43-7.86-8.08-15.66-16.12-23.67-24.35-8.03,8.27-15.82,16.31-23.65,24.38,7.91,8.14,15.76,16.23,23.71,24.41M332.06,361.84c3.92-4.05,7.64-7.89,11.7-12.09h-23.43c4.06,4.18,7.76,8.01,11.72,12.09M260.54,362.2h-22.96c3.97,4.12,7.67,7.97,11.49,11.94,3.88-4.05,7.57-7.88,11.47-11.94M106.75,374.13c3.94-4.1,7.61-7.93,11.51-11.99h-23.08c4,4.14,7.7,7.98,11.57,11.99M166.24,362.08c4.12,4.25,7.84,8.08,11.68,12.04,3.87-4.05,7.56-7.92,11.5-12.04h-23.18ZM320.56,398.38h23c-3.96-4.13-7.66-7.98-11.51-12-3.85,4.02-7.52,7.85-11.49,12M201.27,398.42c-4-4.17-7.71-8.05-11.55-12.04-3.89,4.09-7.56,7.94-11.47,12.04h23.02ZM35.98,398.34h22.93c-3.96-4.13-7.65-7.98-11.46-11.96-3.89,4.05-7.57,7.89-11.47,11.96M402.91,362.1h-23.15c4.05,4.19,7.79,8.05,11.62,12.01,3.85-4.01,7.51-7.83,11.53-12.01M308.62,362.06c4.05,4.23,7.74,8.08,11.58,12.1,3.88-4.06,7.59-7.94,11.57-12.1h-23.15ZM47.05,362.21h-22.93c3.96,4.13,7.65,7.98,11.42,11.91,3.89-4.03,7.57-7.83,11.51-11.91M391.09,398.47c-4.07-4.23-7.77-8.07-11.61-12.07-3.87,4.05-7.56,7.92-11.52,12.07h23.13ZM83.43,398.33h22.91c-3.97-4.13-7.67-7.97-11.47-11.92-3.86,4.03-7.52,7.84-11.44,11.92M249.05,374.14c-3.85,4.01-7.53,7.86-11.45,11.95h22.89c-3.9-4.08-7.57-7.91-11.43-11.95M35.6,374.17c-3.84,3.99-7.54,7.82-11.4,11.83h22.74c-3.87-4.03-7.51-7.84-11.34-11.83M166.52,386h22.72c-3.9-4.08-7.6-7.93-11.33-11.82-3.83,3.98-7.5,7.78-11.39,11.82M320.23,374.17c-3.88,4.04-7.56,7.88-11.4,11.88h22.79c-3.9-4.07-7.58-7.91-11.38-11.88M118.21,386.1c-4.01-4.17-7.71-8.02-11.46-11.91-3.84,4-7.53,7.83-11.45,11.91h22.91ZM402.87,386.13c-4.02-4.17-7.72-8-11.51-11.93-3.8,3.96-7.52,7.83-11.45,11.93h22.96Z"
      fill="#010101" />
    <path
      d="M236.71,0h95.82c3.7,4.03,7.4,8.05,11.24,12.24,3.84-3.87,7.4-7.45,10.94-11.05.3-.31.4-.79.59-1.19h.95c.02.22-.05.53.08.66,3.71,3.77,7.44,7.53,11.31,11.43,3.87-3.9,7.6-7.66,11.31-11.43.13-.13.06-.44.08-.66h47.91v12.78c-.29.08-.67.07-.84.26-2.64,2.77-5.22,5.6-7.88,8.35-4.96,5.13-9.97,10.22-14.98,15.35,3.75,3.78,7.45,7.49,11.13,11.21,4.2,4.25,8.38,8.51,12.57,12.77v30.13H0v-30.13c2.33-2.32,4.69-4.62,7-6.97,5.56-5.65,11.1-11.31,16.72-17.04-5.18-5.28-10.35-10.51-15.49-15.78C5.47,18.09,2.75,15.19,0,12.33V0h47.91c3.7,4.04,7.4,8.08,11.25,12.28,1.88-1.89,3.47-3.4,4.96-5.01,2.22-2.39,4.38-4.85,6.56-7.27h.95c3.72,4.03,7.44,8.07,11.26,12.22,3.7-3.75,7.11-7.19,10.49-10.66.43-.44.69-1.04,1.02-1.56h95.82c3.72,4.03,7.44,8.07,11.26,12.22,3.7-3.75,7.11-7.19,10.49-10.66.43-.44.69-1.04,1.02-1.56h.95c.29.5.47,1.09.87,1.49,3.6,3.67,7.23,7.3,10.86,10.93,3.8,3.97,7.6,7.94,11.5,12.03,3.9-4.05,7.6-7.89,11.53-11.97h-23.11c.3-.51.51-1.1.92-1.51,2.81-2.9,5.67-5.75,8.47-8.65.67-.69,1.16-1.54,1.73-2.32M237.55,48.76c-3.69,3.69-7.4,7.38-11.07,11.1-.34.34-.44.9-.65,1.35-3.92,3.84-7.84,7.68-11.73,11.55-.15.15-.03.56-.03.85-.36-.03-.73-.06-1.09-.09-.01-.22.07-.54-.05-.66-3.92-3.89-7.87-7.77-11.81-11.65-.05-.29,0-.68-.17-.85-3.67-3.72-7.36-7.42-11.22-11.29-3.89,3.98-7.66,7.83-11.82,12.08h23.28c-.24.45-.38.99-.73,1.35-3,3.09-6.05,6.13-9.06,9.21-.44.45-.81.95-1.5,1.75,8.06,0,15.61,0,23.15,0-1.01,1.21-1.98,2.46-3.05,3.61-2.64,2.81-5.33,5.57-8.11,8.46h23.33c-3.5-3.55-6.7-6.76-9.84-10.01-.55-.57-.91-1.31-1.36-1.96h23.3c-3.75-3.84-6.97-7.11-10.14-10.42-.56-.58-.93-1.32-1.39-1.99h22.72c.1-.2.19-.4.29-.6-1.94-1.83-3.97-3.57-5.8-5.5-1.93-2.03-3.67-4.22-5.48-6.34h23c-3.93-4.13-7.63-8.03-11.43-12.03-4,4.2-7.75,8.14-11.51,12.08M355.35,73.45c-.46.67-.83,1.42-1.39,1.99-3.19,3.29-6.42,6.54-9.96,10.13h23.51c-3.44-3.51-6.67-6.77-9.85-10.06-.55-.57-.91-1.31-1.36-1.97h23.29c-3.62-3.71-6.89-7.04-10.12-10.41-.56-.58-.94-1.32-1.4-1.99h23.3c-4.23-4.3-7.98-8.13-11.86-12.07-3.85,3.86-7.54,7.56-11.21,11.28-.17.18-.12.57-.17.86-3.92,3.84-7.84,7.68-11.73,11.55-.15.15-.03.56-.03.85-.37-.03-.73-.06-1.1-.09-.01-.22.07-.54-.05-.66-3.7-3.79-7.42-7.56-11.33-11.53-3.93,4.03-7.69,7.89-11.83,12.13,8.18,0,15.72,0,23.27,0M83.52,61.21c-4.02,3.93-8.03,7.86-12.39,12.11h23.44c-.32-.48-.44-.74-.64-.94-3.02-3.08-6.07-6.14-9.07-9.24-.56-.58-.94-1.32-1.4-1.99h23.3c-4.23-4.3-7.98-8.12-11.85-12.07-3.85,3.86-7.54,7.56-11.21,11.28-.17.18-.12.57-.17.86M70.85,73.32c-.58.79-1.07,1.65-1.74,2.34-3.13,3.24-6.31,6.43-9.77,9.93h23.64c-4.27-4.29-8.22-8.26-12.17-12.23-2.22-2.43-4.43-4.85-6.64-7.28-1.5-1.64-3-3.27-4.64-5.07-4.25,4.38-7.99,8.23-11.92,12.29,8.11,0,15.69,0,23.25.01M94.82,36.69c-7.95-8.19-15.81-16.27-23.66-24.37-7.92,8.16-15.77,16.27-23.64,24.38,7.85,8.1,15.66,16.17,23.63,24.39,8.05-8.3,15.82-16.3,23.67-24.41M237.11,36.7c-7.89-8.14-15.74-16.24-23.63-24.37-7.92,8.15-15.81,16.26-23.68,24.36,7.93,8.17,15.73,16.2,23.7,24.41,8.01-8.28,15.74-16.27,23.61-24.4M332.13,36.71c7.84,8.09,15.65,16.14,23.64,24.38,8.05-8.3,15.84-16.33,23.65-24.39-7.93-8.17-15.78-16.27-23.64-24.38-7.88,8.12-15.69,16.17-23.65,24.38M284.64,61.11c8.06-8.32,15.84-16.36,23.64-24.4-7.95-8.2-15.79-16.29-23.65-24.38-7.94,8.17-15.81,16.28-23.67,24.38,7.87,8.11,15.63,16.11,23.68,24.41M142.31,12.3c-7.97,8.23-15.82,16.33-23.66,24.43,7.9,8.13,15.72,16.17,23.68,24.35,8.05-8.3,15.82-16.31,23.63-24.36-7.85-8.11-15.71-16.22-23.65-24.42M343.85,61.05c-4.14-4.22-7.88-8.04-11.78-12.03-3.94,4.02-7.7,7.87-11.77,12.03h23.55ZM59.26,61.09c-4.16-4.24-7.94-8.08-11.83-12.05-3.95,4.05-7.7,7.89-11.77,12.05h23.6ZM189.57,48.76c-4.11-4.23-7.85-8.09-11.7-12.06-3.9,4.07-7.58,7.9-11.56,12.06h23.26ZM95.2,48.69h23.02c-3.95-4.13-7.64-7.98-11.5-12.01-3.87,4.04-7.56,7.88-11.52,12.01M379.87,48.65h22.94c-3.96-4.13-7.65-7.98-11.46-11.96-3.91,4.07-7.59,7.9-11.48,11.96M332.09,24.46c3.88-4.04,7.57-7.88,11.55-12.03h-23.16c4,4.14,7.68,7.96,11.61,12.03M35.79,12.4c4.12,4.25,7.83,8.07,11.67,12.03,3.87-4.03,7.58-7.88,11.57-12.03h-23.23ZM106.46,12.43h-23.19c4.06,4.19,7.8,8.06,11.62,12,3.89-4.04,7.58-7.85,11.57-12M367.91,12.42c4.04,4.19,7.76,8.06,11.59,12.04,3.9-4.07,7.58-7.91,11.53-12.04h-23.13ZM189.73,24.48c3.9-4.07,7.59-7.91,11.48-11.97h-22.91c3.9,4.09,7.56,7.91,11.43,11.97M331.79,48.78c-4.07-4.23-7.77-8.07-11.61-12.07-3.86,4.07-7.54,7.94-11.46,12.07h23.08ZM47.17,48.8c-4.07-4.23-7.77-8.06-11.65-12.09-3.83,4.04-7.51,7.93-11.44,12.09h23.09ZM177.89,36.7c3.82-3.99,7.53-7.86,11.41-11.91h-22.83c3.92,4.09,7.61,7.93,11.42,11.91M391.39,36.68c3.86-4.03,7.53-7.87,11.38-11.9h-22.86c3.94,4.09,7.64,7.92,11.48,11.9M260.42,24.83h-22.76c3.91,4.08,7.6,7.93,11.36,11.85,3.84-3.99,7.53-7.83,11.4-11.85M24.12,24.77c4,4.14,7.7,7.98,11.47,11.88,3.81-3.96,7.5-7.8,11.44-11.88h-22.91ZM331.55,24.85h-22.71c3.93,4.07,7.63,7.91,11.4,11.82,3.79-3.96,7.44-7.78,11.31-11.82M95.28,24.72c3.97,4.13,7.71,8.02,11.5,11.96,3.84-4.03,7.5-7.87,11.4-11.96h-22.9Z"
      fill="#010101" />
    <path
      d="M426.94,100.43v2.28c-2.99,2.96-5.99,5.92-9.49,9.39,3.27,2.9,6.38,5.66,9.49,8.42v4.57H0v-4.57c3.16-2.79,6.32-5.58,9.86-8.7C6.16,108.4,3.08,105.56,0,102.71v-2.28h426.94ZM103.36,120.47c-2.73-3.45-6.49-5.61-8.98-9.87,2.84-2.68,5.65-5.33,8.19-7.72h-28.29c3.17,2.92,6.01,5.54,9.18,8.46-3.04,3.09-5.92,6-9,9.13h28.9ZM272.05,111.17c3.19-3,6.04-5.66,8.9-8.34h-28.86c2.88,2.72,5.38,5.1,7.91,7.45.91.85,1.31,1.41.05,2.52-2.62,2.31-4.98,4.91-7.6,7.53h28.81c-3.06-3.05-5.93-5.91-9.2-9.16M388.24,120.43c-2.8-2.67-5.15-5.03-7.64-7.25-1.3-1.16-1.31-1.96,0-3.12,2.51-2.24,4.89-4.62,7.61-7.22h-29.26c3.19,2.93,6.07,5.58,9.31,8.55-3.21,3.14-6.11,5.98-9.24,9.05h29.23ZM352.62,102.91h-29.28c3.29,3.08,6.23,5.83,9.55,8.94-3.16,2.83-6.2,5.56-9.52,8.54h29.36c-2.67-2.53-4.92-4.79-7.33-6.88-1.42-1.24-1.95-2.13-.23-3.6,2.48-2.11,4.76-4.44,7.46-6.99M317.09,102.91h-29.42c3.22,3,6.05,5.63,9.29,8.65-3.02,2.94-5.94,5.78-9.07,8.82h28.9c-2.56-2.64-4.77-5.31-7.4-7.51-1.41-1.18-1.09-1.69-.09-2.62,2.49-2.33,4.97-4.67,7.8-7.35M3.32,120.32h28.76c-2.43-2.54-4.47-5.23-7.08-7.23-2.01-1.54-1.04-2.18.1-3.26,2.36-2.25,4.69-4.52,7.22-6.96H3.17c3.15,2.9,5.99,5.51,9.3,8.55-3.11,3.02-6,5.84-9.14,8.89M68.03,120.4c-2.6-2.47-4.79-4.73-7.18-6.78-1.66-1.42-1.86-2.43-.07-3.94,2.44-2.06,4.63-4.39,7.14-6.81h-29.23c2.85,2.7,5.36,5.1,7.89,7.47.95.89,1.16,1.42-.07,2.5-2.62,2.3-4.94,4.91-7.56,7.57h29.08ZM110.15,120.31h28.99c-2.75-2.6-5.11-4.95-7.61-7.16-1.34-1.18-1.23-1.99.04-3.12,2.51-2.24,4.89-4.6,7.62-7.2h-29.38c2.87,2.71,5.37,5.1,7.9,7.46.92.86,1.26,1.41,0,2.51-2.6,2.27-4.92,4.85-7.55,7.5M174.86,102.89h-29.39c2.66,2.53,4.96,4.83,7.4,6.98,1.4,1.24,1.63,2.11.07,3.45-2.5,2.15-4.82,4.5-7.47,7.01h28.94c-2.51-2.6-4.66-5.25-7.28-7.39-1.55-1.27-1.1-1.82-.06-2.78,2.48-2.3,4.95-4.62,7.79-7.27M180.89,102.79c2.87,2.7,5.25,5.04,7.74,7.25,1.28,1.13,1.38,1.94.04,3.12-2.53,2.23-4.92,4.6-7.72,7.25h28.86l.4-.49c-3.13-2.63-6.26-5.26-10-8.39,3.53-3.34,6.46-6.12,9.22-8.74h-28.55ZM394.46,102.83c2.83,2.69,5.29,5.04,7.77,7.37.94.89,1.46,1.42.02,2.64-2.65,2.25-4.92,4.91-7.5,7.55h28.86c-3.24-2.96-6.24-5.7-9.62-8.8,3.37-3.08,6.38-5.82,9.6-8.77h-29.12ZM236.05,111.41c3.32-3.11,6.28-5.88,9.14-8.55h-28.65c3.3,3.13,6.25,5.92,9.45,8.95-3.14,2.83-6.15,5.53-9.57,8.6h29.72c-3.46-3.08-6.47-5.77-10.09-9M71.42,120.4c2.78-2.84,5.71-5.83,8.65-8.83-2.97-3.06-5.89-6.06-8.89-9.14-3.16,3.27-6.04,6.25-9.33,9.66,3.15,2.74,6.31,5.48,9.57,8.32M168.69,111.93c3.16,2.79,6.34,5.6,8.65,7.64,3.21-2.5,6.51-5.08,9.77-7.62-3.29-3.41-6.16-6.38-9.19-9.52-3.09,3.18-6,6.17-9.23,9.5M381.96,112.1c3.23,2.7,6.46,5.41,9.23,7.73,2.94-2.58,6.09-5.34,9.2-8.08-3.14-3.21-6.04-6.18-9.09-9.3-3.07,3.17-5.97,6.17-9.34,9.65M346.52,112.01c3.13,2.82,6.24,5.62,9.42,8.49,2.9-2.96,5.82-5.95,8.72-8.92-2.95-3.05-5.82-6.03-8.84-9.16-3.07,3.17-5.95,6.13-9.3,9.59M320.21,102.49c-3.1,3.16-6.02,6.14-9.3,9.49,3.25,2.76,6.43,5.46,9.38,7.96,2.86-2.47,6.03-5.21,9.18-7.94-3.25-3.34-6.15-6.31-9.26-9.51M293.98,112.09c-3.38-3.48-6.32-6.51-9.37-9.65-3.11,3.22-5.99,6.21-9.32,9.66,3.27,2.66,6.53,5.3,9.32,7.56,2.84-2.29,6.1-4.93,9.38-7.58M213.14,120.32c3.27-2.88,6.42-5.64,9.53-8.37-3.28-3.35-6.21-6.36-9.29-9.51-3.06,3.17-5.93,6.16-8.82,9.14,2.9,2.96,5.8,5.91,8.57,8.73M26.3,111.99c3.16,2.85,6.27,5.66,8.86,7.99,3.24-2.71,6.45-5.4,9.61-8.05-3.29-3.37-6.21-6.36-9.24-9.46-3.04,3.14-5.9,6.09-9.23,9.51M132.97,112.08c3.22,2.75,6.4,5.47,9.18,7.84,3.04-2.55,6.25-5.25,9.44-7.93-3.35-3.42-6.29-6.42-9.33-9.52-3.04,3.15-5.9,6.09-9.29,9.6M97.35,112.07c3.3,2.73,6.53,5.41,9.43,7.8,2.86-2.48,6.02-5.23,9.14-7.94-3.28-3.37-6.21-6.38-9.24-9.5-3.07,3.17-5.93,6.13-9.33,9.64M249.1,102.47c-3.11,3.19-6.03,6.18-8.94,9.16,2.95,2.97,5.91,5.95,8.54,8.6,3.27-2.83,6.43-5.58,9.55-8.28-3.21-3.32-6.07-6.29-9.15-9.48"
      fill="#010101" />
    <path
      d="M426.94,286.23v4.11c-3.13,2.83-6.25,5.66-9.86,8.93,3.66,3.29,6.76,6.09,9.86,8.88v2.28H0v-2.28c3.11-2.84,6.23-5.69,9.88-9.03-3.64-3.23-6.76-6.01-9.88-8.78v-4.11h426.94ZM39.31,290.39c-.22.25-.44.51-.66.76,2.61,2.28,5.18,4.6,7.83,6.84,1.28,1.08.93,1.83-.15,2.81-2.49,2.26-4.88,4.62-7.52,7.14h29.41c-3.3-3.03-6.15-5.65-9.34-8.58,2.99-2.98,5.88-5.85,9.01-8.96h-28.59ZM333.06,299.55c-3.13,2.93-6.13,5.73-9.02,8.44h28.67c-2.15-2.01-3.97-3.68-5.75-5.38q-3.51-3.36,0-6.75c1.79-1.73,3.57-3.47,5.53-5.38h-28.66l-.35.48c3.01,2.7,6.03,5.4,9.58,8.59M216.59,307.94h29.34c-2.83-2.67-5.29-5.03-7.81-7.33-.96-.87-1.18-1.4-.05-2.45,2.58-2.39,4.95-4.99,7.53-7.63h-29.05c2.84,2.66,5.28,5.04,7.82,7.32,1.12,1,1.2,1.73.03,2.78-2.54,2.28-4.98,4.66-7.81,7.33M109.94,307.94h29.21c-3.27-3.05-6.21-5.8-9.68-9.04,3.1-2.94,6.08-5.76,8.88-8.41h-28.25c3.08,3.08,5.96,5.96,8.94,8.93-3.25,3.04-6.02,5.63-9.1,8.52M145.64,290.46c3.23,2.96,6.24,5.71,9.63,8.81-3.37,3.08-6.37,5.83-9.5,8.69h29.09c-3.23-2.97-6.08-5.6-9.26-8.53,3.01-3.02,5.89-5.91,8.94-8.97h-28.9ZM316.9,290.49h-29.24c2.52,2.35,4.67,4.33,6.8,6.35,2.51,2.38,2.49,2.39-.04,4.84-2.12,2.04-4.23,4.08-6.5,6.28h28.7c.11-.17.22-.34.33-.5-3-2.75-6-5.49-9.23-8.45,3.05-2.84,5.99-5.57,9.17-8.52M103.63,308.06c-2.64-2.52-4.8-4.83-7.24-6.83-1.86-1.53-1.46-2.61.05-3.98,2.33-2.11,4.59-4.31,7.14-6.72h-29.27c2.74,2.6,5.11,4.95,7.61,7.16,1.33,1.17,1.25,1.98-.03,3.12-2.51,2.24-4.89,4.61-7.66,7.25h29.39ZM181.06,307.94h29.25c-3.28-3.06-6.23-5.81-9.79-9.13,3.14-2.9,6.15-5.68,8.98-8.29h-28.5c2.75,2.6,5.13,4.93,7.62,7.15,1.27,1.13,1.38,1.94.04,3.12-2.5,2.21-4.86,4.56-7.61,7.16M281.21,308.08c-.26-.4-.32-.54-.42-.64-1.72-1.67-3.47-3.33-5.18-5.02-3.81-3.76-3.82-2.61-.08-6.28,1.85-1.82,3.76-3.59,5.89-5.61h-29.14c3.22,3.03,6.15,5.79,9.62,9.05-3.1,2.93-6.08,5.74-9,8.5h28.31ZM358.71,290.39c2.88,2.7,5.24,5.02,7.73,7.19,1.38,1.2,1.46,2.03.04,3.28-2.51,2.21-4.85,4.6-7.48,7.14h29.34c-2.79-2.62-5.15-4.94-7.64-7.11-1.38-1.2-1.46-2.03-.04-3.28,2.51-2.21,4.85-4.6,7.57-7.22h-29.51ZM394.3,307.94h29.47c-3.27-3.05-6.21-5.8-9.76-9.11,3.17-2.88,6.2-5.63,9.17-8.33h-28.52c3.12,3.06,6.01,5.88,9.02,8.83-3.24,2.97-6.09,5.59-9.38,8.61M32.6,308.08c-3.45-3.17-6.44-5.93-9.87-9.09,3.19-3,6.15-5.78,9.08-8.54H3.08c2.69,2.54,4.95,4.84,7.39,6.95,1.52,1.31,1.68,2.22.07,3.61-2.47,2.14-4.74,4.5-7.4,7.07h29.45ZM365.08,298.78c-3.19-2.68-6.4-5.38-9.09-7.64-2.94,2.46-6.18,5.16-9.41,7.87,3.27,3.34,6.2,6.33,9.2,9.39,3.14-3.25,6.02-6.22,9.3-9.62M391.33,308.42c3.14-3.22,6.04-6.21,8.93-9.17-2.97-3.01-5.9-5.98-8.58-8.69-3.27,2.84-6.43,5.6-9.58,8.33,3.23,3.34,6.12,6.33,9.22,9.53M177.88,308.42c3.11-3.21,6.02-6.2,9.26-9.54-3.16-2.8-6.34-5.61-9.51-8.41-2.85,2.9-5.75,5.86-8.64,8.8,2.94,3.03,5.8,5.97,8.89,9.16M80.56,298.68c-3.21-2.62-6.44-5.27-9.46-7.74-2.82,2.42-6.03,5.18-9.26,7.95,3.34,3.41,6.29,6.42,9.32,9.51,3.13-3.24,6.01-6.22,9.4-9.72M35.61,308.45c3.12-3.25,6-6.24,9.31-9.68-3.19-2.7-6.4-5.42-9.25-7.82-2.92,2.58-6.06,5.35-9.16,8.09,3.16,3.27,6.02,6.22,9.1,9.41M222.75,298.87c-3.19-2.85-6.33-5.66-8.89-7.96-3.29,2.65-6.54,5.26-9.74,7.83,3.43,3.53,6.35,6.54,9.39,9.66,3.06-3.16,5.92-6.11,9.24-9.53M248.7,290.62c-2.65,2.67-5.62,5.65-8.56,8.61,3.01,3.09,5.93,6.09,8.93,9.18,3.12-3.23,5.98-6.19,9.18-9.51-3.12-2.71-6.29-5.45-9.55-8.27M293.96,298.76c-3.24-2.72-6.44-5.41-9.27-7.79-2.97,2.45-6.21,5.12-9.44,7.78,3.42,3.51,6.36,6.54,9.38,9.65,3.08-3.19,5.94-6.14,9.33-9.63M142.31,308.45c3.1-3.2,6.02-6.21,9.32-9.62-3.21-2.73-6.38-5.43-9.23-7.85-2.91,2.52-6.09,5.28-9.26,8.03,3.2,3.3,6.1,6.28,9.17,9.45M116.08,298.76c-3.27-2.7-6.5-5.38-9.36-7.74-2.88,2.47-6.05,5.2-9.21,7.92,3.26,3.36,6.17,6.34,9.23,9.49,3.05-3.15,5.92-6.13,9.34-9.66M320.23,290.31c-3.2,2.97-6.24,5.79-9.26,8.59,3.29,3.36,6.24,6.38,9.28,9.49,3.09-3.2,5.96-6.18,8.84-9.17-2.92-2.93-5.86-5.89-8.86-8.91"
      fill="#010101" />
    <rect x="0" y="274.81" width="426.94" height="5.02" fill="#010101" />
    <rect y="131.47" width="426.94" height="4.56" fill="#010101" />
    <rect x="0" y="97.69" width="426.94" height="2.28" fill="#010101" />
    <rect y="310.88" width="426.94" height="1.37" fill="#010101" />
    <rect y="94.04" width="426.94" height="1.37" fill="#010101" />
    <rect x="0" y="314.07" width="426.94" height="1.37" fill="#010101" />
    <rect x="0" y="126.91" width="426.94" height=".91" fill="#010101" />
    <rect y="283.49" width="426.94" height=".91" fill="#010101" />
    <path
      d="M244.3,205.11c11.97,12.09,23.75,23.98,35.89,36.24h-36.67c4.72,4.84,8.96,9.17,13.49,13.81h-26.74c3.89,3.95,7.4,7.52,11.11,11.29h-55.79c3.64-3.72,7.14-7.29,11.02-11.26h-26.73c4.72-4.74,8.96-8.99,13.5-13.56h-36.51c1.19-1.42,1.96-2.48,2.87-3.39,4.88-4.89,9.82-9.73,14.69-14.63,5.68-5.71,11.29-11.49,16.97-17.2.93-.93.89-1.55-.02-2.46-6.85-6.85-13.68-13.72-20.46-20.62-4.57-4.66-9.07-9.39-13.87-14.37h36.6c-4.78-4.87-9.09-9.27-13.73-14h26.79c-3.82-3.82-7.25-7.25-11.05-11.06h55.6c-3.75,3.77-7.18,7.21-10.86,10.91h26.72c-4.6,4.69-8.97,9.15-13.74,14.02h36.78c-12.21,12.36-24,24.28-35.85,36.27M225.52,233.66h34.99c-9.74-9.81-19.03-19.18-28.31-28.53,9.49-9.66,18.7-19.02,28.15-28.64h-34.79c5.51-5.62,10.76-10.98,16.01-16.34-.11-.18-.22-.36-.33-.53h-23.86c3.52-3.63,6.83-7.03,10.31-10.62h-28.41c3.52,3.62,6.84,7.04,10.48,10.78h-24.75c5.7,5.77,10.97,11.11,16.6,16.81h-34.98c9.48,9.64,18.7,19.01,28.07,28.54-9.31,9.43-18.55,18.8-28.27,28.65h34.91c-5.48,5.59-10.59,10.8-16.12,16.45h24.89c-3.96,3.94-7.46,7.41-11.24,11.18h29.26c-3.84-3.82-7.35-7.32-10.86-10.81.13-.18.26-.37.4-.55h23.89c-5.36-5.48-10.43-10.67-16.02-16.39"
      fill="#010101" />
    <path
      d="M338.88,154.84c-3.69-3.69-7.11-7.11-10.9-10.9h55.49c-3.69,3.74-7.1,7.18-10.74,10.87h26.71c-4.68,4.81-8.99,9.24-13.65,14.03h36.43c-2.26,2.44-4.16,4.61-6.19,6.65-5.26,5.28-10.62,10.48-15.87,15.77-4.17,4.21-8.21,8.53-12.37,12.76-.95.97-.79,1.59.1,2.46,3.75,3.69,7.46,7.42,11.16,11.17,7.21,7.32,14.41,14.66,21.6,22,.45.46.86.97,1.58,1.79h-36.59c4.73,4.72,9,8.98,13.76,13.74h-26.8c3.87,3.95,7.35,7.5,10.99,11.21h-55.68c3.63-3.7,7.14-7.28,10.83-11.04h-26.66c4.67-4.77,8.93-9.12,13.58-13.87h-36.72c12.2-12.33,24-24.24,35.99-36.35-11.78-11.93-23.58-23.89-35.79-36.25h36.76c-4.79-4.88-9.15-9.34-13.76-14.03h26.73ZM343.84,176.59h-34.74c2.17,2.3,4.08,4.41,6.08,6.42,4.68,4.71,9.43,9.37,14.12,14.07,2.23,2.23,4.39,4.53,6.59,6.79.71.73,1.35,1.09.14,2.27-5,4.81-9.75,9.85-14.62,14.79-3.85,3.9-7.74,7.76-11.6,11.65-.23.23-.34.58-.69,1.21h34.5c-5.45,5.58-10.55,10.8-16.05,16.42h24.76c-3.92,3.95-7.4,7.46-11.06,11.14h29.11c-3.81-3.78-7.3-7.26-11.21-11.15h24.83c-5.37-5.52-10.54-10.82-16.15-16.6h34.86c-9.63-9.75-18.9-19.14-28.12-28.47,9.46-9.61,18.65-18.94,28.17-28.61h-35.02c5.6-5.67,10.87-11.01,16.15-16.36l-.31-.51h-23.91c3.54-3.65,6.87-7.08,10.38-10.7h-28.51c3.56,3.67,6.89,7.11,10.57,10.9h-24.74c5.64,5.72,10.89,11.04,16.5,16.73"
      fill="#010101" />
    <path
      d="M43.24,266.48c3.65-3.76,7.12-7.33,10.88-11.19h-26.58c4.61-4.72,8.86-9.05,13.47-13.78H4.39c1.06-1.18,1.73-2,2.48-2.75,3.53-3.57,7.06-7.13,10.61-10.67,5.26-5.24,10.56-10.43,15.8-15.69,2.34-2.35,4.55-4.8,6.97-7.37-11.72-11.86-23.53-23.8-35.73-36.14h36.79c-4.81-4.9-9.17-9.36-13.78-14.06h26.74c-3.7-3.69-7.12-7.11-10.92-10.9h55.42c-3.63,3.71-7.02,7.17-10.64,10.87h26.73c-4.78,4.87-9.16,9.32-13.74,13.99h36.54c-2.53,2.7-4.68,5.09-6.95,7.37-5.09,5.12-10.29,10.16-15.37,15.29-4.12,4.16-8.16,8.38-12.13,12.66-.39.42-.38,1.75.02,2.18,2.57,2.81,5.27,5.51,7.97,8.21,5.28,5.27,10.61,10.49,15.88,15.77,3.08,3.09,6.09,6.26,9.11,9.41.44.46.78,1.02,1.43,1.89h-36.4c4.56,4.6,8.79,8.85,13.47,13.56h-26.72c3.91,4,7.41,7.58,11.09,11.34h-55.81ZM59.12,233.65c-5.58,5.71-10.68,10.93-16.14,16.52h24.8c-3.97,3.97-7.46,7.48-11.22,11.24h29.34c-3.93-3.8-7.47-7.23-11.02-10.67.15-.21.3-.43.46-.64h23.96c-5.45-5.56-10.56-10.77-16.13-16.46h34.91c-9.63-9.77-18.89-19.15-28.12-28.51,9.45-9.6,18.67-18.96,28.16-28.6h-35c5.57-5.64,10.86-10.99,16.5-16.71h-24.73c3.54-3.63,6.95-7.13,10.6-10.87h-28.61c3.57,3.68,6.9,7.12,10.56,10.89h-24.71c5.65,5.73,10.9,11.05,16.51,16.75H24.36c9.47,9.62,18.65,18.96,27.91,28.37-.68.87-1.26,1.76-2,2.5-5.14,5.14-10.32,10.24-15.46,15.37-3.28,3.27-6.51,6.58-9.76,9.88-.18.19-.25.47-.49.93h34.56Z"
      fill="#010101" />
    <path
      d="M284.63,180.42c8.21,8.3,16.13,16.31,24.42,24.7-8.02,8.14-16.09,16.32-24.41,24.76-8.17-8.27-16.26-16.45-24.46-24.74,8.18-8.27,16.18-16.37,24.44-24.71"
      fill="#010101" />
    <path
      d="M142.34,229.85c-8.25-8.34-16.32-16.52-24.45-24.74,8.22-8.3,16.22-16.38,24.43-24.67,8.19,8.27,16.19,16.34,24.44,24.66-8.08,8.19-16.13,16.35-24.42,24.75"
      fill="#010101" />
    <path
      d="M225.22,374.12c-3.89,3.99-7.79,7.99-11.77,12.08-3.88-4.01-7.78-8.03-11.7-12.08,3.9-4,7.81-8.02,11.73-12.05,3.91,4.01,7.81,8.02,11.74,12.05"
      fill="#010101" />
    <path
      d="M154.15,374.13c-3.95,4.13-7.81,8.16-11.83,12.35-4.07-4.22-7.95-8.26-11.86-12.32,3.97-4.15,7.84-8.18,11.85-12.37,3.98,4.15,7.84,8.18,11.84,12.34"
      fill="#010101" />
    <path
      d="M272.75,374.2c3.97-4.15,7.84-8.19,11.85-12.38,3.98,4.12,7.86,8.14,11.91,12.33-3.88,4.04-7.75,8.05-11.86,12.33-4.03-4.16-7.96-8.21-11.9-12.29"
      fill="#010101" />
    <path
      d="M213.43,48.74c-4-4.11-7.82-8.02-11.73-12.04,3.86-3.97,7.75-7.96,11.73-12.05,3.93,4.02,7.87,8.06,11.8,12.09-3.96,4.04-7.88,8.03-11.79,12.01"
      fill="#010101" />
    <path
      d="M272.77,36.71c3.9-4.06,7.78-8.09,11.86-12.33,4.02,4.15,7.9,8.17,11.88,12.28-3.95,4.11-7.81,8.13-11.84,12.32-3.96-4.08-7.89-8.14-11.9-12.27"
      fill="#010101" />
    <path
      d="M142.31,24.35c4.13,4.29,8,8.29,11.91,12.35-3.97,4.12-7.85,8.14-11.91,12.34-3.95-4.09-7.82-8.1-11.9-12.33,3.91-4.07,7.8-8.11,11.9-12.36"
      fill="#010101" />
    <path
      d="M259.27,105.57h15.12c-1.76,1.66-3.12,3.12-4.67,4.35-1.61,1.28-1.39,2.26.08,3.44,1.51,1.21,2.89,2.56,4.78,4.24h-15.13c1.52-1.47,2.77-2.9,4.25-4.05,1.86-1.45,1.65-2.57-.07-3.93-1.43-1.14-2.69-2.48-4.36-4.05"
      fill="#010101" />
    <path
      d="M310.16,117.66h-15.01c2.07-2.17,3.98-4.16,6.14-6.42-2.25-1.96-4.17-3.62-6.48-5.62h15.45c-1.52,1.3-2.66,2.16-3.67,3.15-3.43,3.32-3.4,2.41.07,5.79.97.95,2.04,1.81,3.5,3.11"
      fill="#010101" />
    <path
      d="M132.17,105.59c-2.02,1.87-3.59,3.37-5.22,4.81-.99.87-.96,1.59.02,2.45,1.63,1.43,3.2,2.93,5.17,4.74h-14.95c1.64-1.6,3.08-3.13,4.67-4.51,1.25-1.08,1.23-1.9-.02-2.95-1.58-1.33-3.05-2.8-4.94-4.55h15.27Z"
      fill="#010101" />
    <path
      d="M152.41,117.65c2.02-1.86,3.52-3.33,5.12-4.68,1.21-1.02,1.09-1.81-.05-2.77-1.6-1.35-3.11-2.79-5.09-4.58h15.05c-1.6,1.56-2.97,3.07-4.53,4.36-1.47,1.23-1.35,2.13.06,3.28,1.54,1.26,2.93,2.67,4.77,4.37h-15.34Z"
      fill="#010101" />
    <path
      d="M188.02,117.66c1.78-1.64,3.09-3.04,4.6-4.19,1.83-1.39,1.58-2.47-.08-3.76-1.46-1.14-2.79-2.44-4.63-4.08h15.16c-1.2,1.16-2.22,2.13-3.23,3.12-3.41,3.35-3.39,2.42.08,5.81.97.95,2.03,1.82,3.49,3.11h-15.39Z"
      fill="#010101" />
    <path
      d="M238.92,105.58c-2.03,1.87-3.6,3.37-5.23,4.8-.97.86-1.01,1.57-.02,2.44,1.63,1.43,3.19,2.94,5.14,4.74h-15.36c1.99-1.77,3.53-3.2,5.14-4.54,1.14-.94,1.35-1.71.12-2.76-1.63-1.38-3.16-2.88-5.14-4.7h15.35Z"
      fill="#010101" />
    <path
      d="M177.77,115.56c-1.34-1.35-2.63-2.66-3.99-4.04,1.4-1.23,2.89-2.55,4.37-3.86,1.2,1.21,2.56,2.58,3.9,3.93-1.39,1.29-2.75,2.54-4.29,3.97"
      fill="#010101" />
    <path
      d="M280.78,111.29c1.04-1.09,2.39-2.52,3.84-4.05,1.39,1.47,2.78,2.93,4.1,4.31-1.33,1.34-2.62,2.65-3.84,3.87-1.4-1.41-2.74-2.76-4.09-4.13"
      fill="#010101" />
    <path
      d="M213.88,107.74c1.05,1.06,2.42,2.45,3.76,3.8-1.38,1.36-2.69,2.66-3.94,3.9-1.4-1.4-2.76-2.74-4.49-4.46,1.36-.94,3.06-2.12,4.66-3.24"
      fill="#010101" />
    <path
      d="M146.52,111.63c-1.34,1.25-2.69,2.51-4.25,3.96-1.16-1.42-2.36-2.87-3.84-4.68,1.04-.76,2.68-1.97,4.28-3.14.98.99,2.36,2.4,3.8,3.86"
      fill="#010101" />
    <path
      d="M245.07,111.4c1.21-1.23,2.59-2.63,3.97-4.03,1.36,1.38,2.74,2.78,4.05,4.11-1.35,1.32-2.7,2.64-3.95,3.86-1.34-1.3-2.7-2.62-4.07-3.94"
      fill="#010101" />
    <path
      d="M223.94,304.81c1.06-.9,2.16-1.75,3.16-2.72,3.42-3.32,3.38-2.4-.08-5.79-.97-.95-2.03-1.82-3.48-3.1h14.71c-2.04,1.89-4.05,3.75-6.3,5.84,2.44,2.23,4.47,4.08,6.81,6.22h-14.45c-.12-.15-.24-.3-.36-.45"
      fill="#010101" />
    <path
      d="M117.28,305.21c2.15-1.96,4.14-3.77,6.2-5.66-2.31-2.09-4.35-3.93-6.38-5.78.11-.17.22-.34.33-.51h14.01c-2.01,1.7-4.09,3.47-6.23,5.28,2.67,2.45,4.69,4.31,6.72,6.16-.11.17-.22.33-.32.5h-14.32Z"
      fill="#010101" />
    <path
      d="M153.13,293.16h14.39c-1.72,1.68-3.15,3.2-4.71,4.58-1.19,1.05-1.35,1.87-.04,2.94,1.61,1.32,3.11,2.75,5.13,4.56h-14.98c2.2-1.82,4.31-3.57,6.5-5.38-2.65-2.4-4.68-4.25-6.72-6.1.14-.2.29-.4.43-.6"
      fill="#010101" />
    <path
      d="M295.46,293.14h14.42c-1.77,1.73-3.21,3.26-4.8,4.63-1.25,1.08-1.22,1.89.02,2.94,1.58,1.33,3.05,2.79,4.94,4.54h-14.78c2.18-1.86,4.26-3.64,6.52-5.57-2.59-2.35-4.62-4.21-6.65-6.06.11-.17.23-.33.34-.49"
      fill="#010101" />
    <path
      d="M202.62,305.34h-14.2c2.28-1.92,4.38-3.68,6.54-5.5-2.6-2.41-4.61-4.28-7.09-6.58h15.12c-1.62,1.59-3.06,3.12-4.63,4.49-1.21,1.06-1.32,1.88-.02,2.94,1.61,1.31,3.12,2.74,4.67,4.12-.13.17-.26.35-.39.52"
      fill="#010101" />
    <path
      d="M267.3,298.85c2.71,2.45,4.72,4.26,7.07,6.37h-14.85c1.62-1.59,3.06-3.11,4.63-4.49,1.21-1.06,1.31-1.87.02-2.94-1.59-1.33-3.05-2.81-4.93-4.55h14.73c-2.17,1.82-4.26,3.58-6.68,5.62"
      fill="#010101" />
    <path
      d="M177.96,303.56c-1.42-1.44-2.8-2.85-4.07-4.14,1.37-1.3,2.74-2.61,4-3.81,1.21,1.17,2.53,2.44,3.97,3.83-1.15,1.22-2.52,2.67-3.89,4.13"
      fill="#010101" />
    <path
      d="M213.11,303.11c-1.03-1.04-2.41-2.44-3.85-3.9,1.34-1.27,2.68-2.54,4.22-4,1.18,1.48,2.36,2.96,3.81,4.79-.97.72-2.6,1.93-4.19,3.11"
      fill="#010101" />
    <path
      d="M252.77,299.71c-.99,1-2.37,2.4-3.72,3.77-1.38-1.4-2.76-2.8-4.2-4.26,1.34-1.26,2.68-2.52,4.24-3.97,1.18,1.43,2.38,2.88,3.69,4.47"
      fill="#010101" />
    <path
      d="M284.92,295.46c1.2,1.19,2.51,2.49,3.85,3.82-1.34,1.37-2.72,2.77-4.14,4.21-1.32-1.33-2.7-2.73-3.97-4.01,1.36-1.28,2.72-2.57,4.26-4.02"
      fill="#010101" />
    <path
      d="M146.26,299.43c-1.14,1.25-2.47,2.71-3.94,4.32-1.41-1.54-2.73-2.98-3.97-4.33,1.31-1.29,2.65-2.61,3.9-3.84,1.27,1.23,2.65,2.54,4.01,3.85"
      fill="#010101" />
    <path
      d="M235.17,184.56c-6.74,6.78-13.48,13.56-20.36,20.47,6.72,6.86,13.44,13.73,20.32,20.75h-47.65c6.85-6.95,13.59-13.81,20.44-20.76-6.68-6.74-13.28-13.41-20.27-20.46,16.18,0,31.85,0,47.53,0"
      fill="#010101" />
  </g>
</svg>