<svg xmlns="http://www.w3.org/2000/svg" viewBox="0 0 840 1680" width="840px" height="1680px">
  <g id="Calque_2" transform="matrix(0.927121, 0, 0, 0.931616, 277.182495, -9.278598)" style="">
    <g id="Calque_1-2" data-name="Calque 1" transform="matrix(1, 0, 0, 1, -293.98819, 14.384376)">
      <g>
        <path class="cls-1"
          d="M897.71,1671.37v-65.67H.01v65.67c8.81,9,17.58,18.03,26.43,27.03,7.71,7.86,15.5,15.69,23.4,23.74-10.55,10.85-21.1,21.59-31.49,32.44-5.63,5.82-11.04,11.8-16.6,17.66-.34.38-1.13.38-1.74.53v27.07h100.72c.42-.87.61-1.89,1.25-2.53,7.45-7.6,14.93-15.2,22.99-23.37,8.09,8.85,15.88,17.35,23.63,25.9h2c.42-.87.61-1.89,1.25-2.57,7.41-7.64,14.9-15.16,22.95-23.33,8.09,8.89,15.88,17.39,23.67,25.9h201.48c.87-1.36,1.47-2.95,2.65-3.93,7.56-6.47,15.24-12.74,22.87-19.13-.49-.79-1.02-1.63-1.51-2.42,1.47,1.4,2.99,2.76,4.42,4.2,6.12,6.24,12.25,12.48,18.34,18.79.61.61.76,1.63,1.13,2.5h2.04c.38-.83.49-1.85,1.13-2.46,7.79-7.98,15.65-15.84,23.52-23.74,4.2,4.88,8.39,9.72,12.67,14.56,3.44,3.93,6.99,7.79,10.51,11.68h201.48c.42-.87.6-1.89,1.25-2.53,7.45-7.64,14.93-15.2,22.99-23.4,8.09,8.89,15.88,17.39,23.63,25.9h2c.42-.87.6-1.89,1.25-2.53,7.41-7.6,14.93-15.2,22.95-23.33,8.13,8.85,15.92,17.35,23.71,25.86h100.72v-27.07c-9.41-9.57-18.83-19.17-28.28-28.73-7.18-7.3-14.37-14.56-21.63-21.89,12.33-12.59,24.46-24.99,36.56-37.39,4.42-4.46,8.92-8.92,13.35-13.38ZM742.77,1638.74c-6.2-6.5-12.51-12.93-19.4-20.04h49.61c-7.37,7.52-14.18,14.41-20.87,21.36-1.13,1.17-1.89,2.65-2.76,4.01v.15h48.55c-1.66,1.93-2.5,3.02-3.4,3.97-6.31,6.47-12.7,12.89-19.02,19.43-.68.68-.98,1.74-1.44,2.65l.04.04v.15h48.81c-8.77,9-16.67,17.17-24.88,25.63-8.13-8.24-15.88-16.07-23.59-23.97-.3-.3-.23-1.06-.34-1.66h-.11c.04-.08.08-.11.08-.19-8.2-8.09-16.45-16.22-24.61-24.39-.26-.26-.11-1.06-.08-1.66h-.11s.08-.11.11-.15c-.76.08-1.51.11-2.27.19.04.04.08.11.11.15h-.15c-.08.57,0,1.32-.34,1.66-7.71,7.9-15.43,15.73-23.63,24.05-8.2-8.43-16.07-16.56-24.99-25.71h48.96v-.15h.04c-1.44-1.89-2.68-3.82-4.31-5.52ZM722.8,1670.54c-8.54,8.88-16.37,17.01-24.61,25.6-8.32-8.66-16.11-16.75-24.65-25.6h49.26ZM420.11,1666.23c-6.69-6.99-13.46-13.91-21.14-21.82h48.89v-.15c-.91-1.4-1.66-2.91-2.8-4.08-6.73-6.99-13.57-13.91-21.02-21.51h49.64c-7.37,7.49-14.14,14.37-20.83,21.32-1.13,1.17-1.89,2.68-2.8,4.05h.08s.04.11.08.15h48.17c-1.21,1.63-1.81,2.65-2.61,3.44-6.35,6.5-12.78,13.01-19.06,19.55-.91.95-1.51,2.23-2.23,3.33t.08.08l-.04.04s.08.08.11.11h48.51c-8.32,8.7-16.11,16.82-24.46,25.56-8.2-8.77-16.11-17.17-24.05-25.56h-.26c.04-.08.08-.15.11-.23-7.56-7.6-15.16-15.24-22.61-22.95-.87-.87-1.13-2.23-1.66-3.36h-.23s.08-.11.08-.15c-.72.04-1.47.15-2.19.23.04.04.08.11.11.15h-.11c0,.42.11,1.02-.11,1.25-8.24,8.24-16.56,16.45-24.84,24.61.04.04.08.11.11.15h-.11c-.11.6-.04,1.32-.34,1.66-7.75,7.9-15.5,15.73-23.63,23.93-8.17-8.36-16.03-16.48-24.92-25.6h48.89v-.15c-.91-1.36-1.66-2.87-2.8-4.05ZM123.95,1670.62l.04-.04c-1.06-1.47-1.97-3.06-3.25-4.39-6.28-6.54-12.63-12.97-18.98-19.47-.38-.42-.68-.98-1.51-2.27h48.24c.04-.08.04-.11.08-.19h.08c-.95-1.4-1.66-2.87-2.84-4.05-6.69-6.99-13.5-13.91-20.91-21.48h49.04c-.98,1.17-1.7,2.23-2.57,3.14-6.39,6.5-12.78,12.97-19.09,19.51-.83.83-1.25,2.04-1.81,3.1.04.04.04.08.08.11h48.51c-1.21,1.47-2,2.53-2.91,3.48-6.35,6.5-12.78,12.97-19.09,19.51-.68.72-1.02,1.78-1.47,2.68l.04.04v.15h48.85c-8.77,9-16.67,17.17-24.88,25.63-8.13-8.24-15.92-16.07-23.59-23.97-.34-.3-.26-1.06-.38-1.66h-.11c.04-.08.08-.11.08-.19-3.71-3.37-7.49-6.62-11.04-10.13-4.35-4.31-8.51-8.81-12.7-13.27-.57-.6-.87-1.51-1.29-2.27h-.15s.04-.08.08-.11c-.57-.08-1.21-.15-1.81-.23.04.08.08.11.11.19h-.26c-.38.95-.64,1.97-1.29,2.65-7.71,7.9-15.46,15.65-23.21,23.48.04.04.08.11.11.15h-.19c-1.78,2-3.48,4.16-5.33,6.09-3.06,3.18-6.35,6.09-9.41,9.26-3.02,3.14-5.82,6.47-9.23,10.25-8.28-8.54-16.14-16.71-24.73-25.6h48.7s.04-.04.08-.08l-.04-.04ZM98.92,1696.89c-8.28,8.66-16.03,16.67-24.2,25.22-7.94-8.32-15.69-16.45-24.01-25.22h48.21ZM74.84,1722.22c8.05,8.43,15.73,16.48,23.86,25.03h-47.83c8.13-8.51,15.92-16.6,23.97-25.03ZM75.67,1773.38c8.17-8.62,15.92-16.75,24.08-25.33,8.02,8.43,15.8,16.56,24.12,25.33h-48.21ZM149.66,1773.83c-16.52-17.17-33.04-34.29-49.79-51.68,16.45-17.01,32.82-34.03,49.76-51.57,16.79,17.43,33.23,34.44,49.76,51.57v.04c-16.52,17.17-33.04,34.29-49.72,51.65ZM175.41,1773.34c8.24-8.62,15.96-16.71,24.08-25.22,7.98,8.36,15.77,16.48,24.12,25.22h-48.21ZM200.4,1747.44c8.24-8.62,15.99-16.71,24.05-25.18,7.9,8.24,15.69,16.37,24.12,25.18h-48.17ZM224.45,1722.15c-8.13-8.51-15.92-16.64-24.31-25.41h48.51c-8.17,8.62-15.92,16.71-24.2,25.41ZM299.23,1773.8c-16.52-17.17-33.04-34.25-49.79-51.65,16.56-17.13,32.89-34.03,49.79-51.53,16.75,17.39,33.23,34.41,49.76,51.53-16.6,17.2-33.08,34.33-49.76,51.65ZM398.29,1696.63c-8.28,8.73-16.07,16.9-24.2,25.48-8.05-8.39-15.88-16.48-24.54-25.48h48.74ZM374.09,1722.22c7.83,8.24,15.61,16.41,23.82,25.03h-47.79c8.2-8.54,15.92-16.6,23.97-25.03ZM374.81,1773.53c8.2-8.66,15.92-16.82,24.12-25.48,8.05,8.43,15.84,16.67,24.27,25.48h-48.4ZM448.8,1773.76c-16.67-17.32-33.2-34.48-49.68-51.61,16.41-17.09,32.78-34.03,49.72-51.57,16.71,17.35,33.16,34.37,49.79,51.61-16.52,17.09-33.05,34.22-49.83,51.57ZM474.7,1773.49c7.86-8.39,15.77-16.71,24.01-25.48,8.13,8.51,15.84,16.64,24.27,25.48h-48.28ZM547.71,1747.44h-48.13c8.24-8.66,15.99-16.79,24.08-25.29h.04c-8.02-8.39-15.8-16.56-24.16-25.26h48.28c-8.2,8.58-15.96,16.67-24.12,25.26,8.09,8.54,15.8,16.67,24.01,25.29ZM598.53,1773.8c-16.71-17.28-33.2-34.37-49.83-51.61,16.48-17.05,32.86-34.07,49.76-51.57,16.82,17.39,33.23,34.41,49.76,51.53-16.48,17.13-32.89,34.25-49.68,51.65ZM697.59,1696.59c-8.36,8.81-16.14,17.01-24.31,25.6-8.09-8.51-15.84-16.64-24.35-25.6h48.66ZM673.35,1722.22c7.98,8.39,15.73,16.52,23.93,25.14h-47.9c8.05-8.47,15.8-16.6,23.97-25.14ZM674.03,1773.46c8.36-8.81,16.07-16.9,24.16-25.41,8.09,8.51,15.88,16.67,24.2,25.41h-48.36ZM748.1,1773.83c-16.82-17.47-33.31-34.6-49.76-51.68,16.41-17.01,32.74-33.99,49.72-51.57,16.71,17.28,33.08,34.29,49.76,51.57-16.52,17.17-33.04,34.37-49.72,51.68ZM773.69,1773.64c8.32-8.77,16.07-16.98,24.24-25.56,8.05,8.47,15.84,16.6,24.39,25.56h-48.62ZM798.84,1747.52c8.24-8.66,16.07-16.86,24.05-25.26,7.98,8.32,15.77,16.45,24.2,25.26h-48.24ZM822.92,1722.07c-8.05-8.36-15.92-16.52-24.42-25.41h48.7c-8.47,8.85-16.14,16.94-24.27,25.41Z"
          style="fill: rgb(29, 29, 27);"></path>
        <path class="cls-1"
          d="M796.98,930.43c-.08.49.08,1.13-.19,1.4-.68.68-1.36,1.4-2.04,2.08-7.11,7.3-14.33,14.59-21.74,22.12-7.45-7.56-14.67-14.9-21.85-22.23-.64-.64-1.29-1.32-1.93-1.97-.26-.26-.11-.91-.15-1.4h-2c-.42.87-.6,1.89-1.25,2.53-.3.3-.6.64-.95.95-7.11,7.33-14.33,14.59-22.04,22.46-7.18-7.9-14.14-15.46-21.02-23.06-.87-.95-1.74-1.93-2.61-2.87h-201.48c-.79,1.1-1.51,2.27-2.34,3.37-.38.57-.83,1.06-1.29,1.55-5.9,6.16-11.91,12.17-17.81,18.3-.83.83-1.29,1.97-1.85,3.02-7.52-7.6-15.09-15.2-22.53-22.84-.08-.08-.15-.15-.23-.23-.83-.87-1.21-2.12-1.85-3.18h-1.97c-.6.95-1.06,1.97-1.74,2.84-.11.19-.26.34-.42.49-7.11,7.33-14.29,14.63-22.04,22.53-7.15-7.79-14.14-15.39-21.1-22.99-.87-.95-1.74-1.93-2.61-2.87h-201.48c-.68,1.13-1.21,2.38-2.12,3.33-.04.04-.08.08-.11.11-7.07,7.3-14.22,14.56-21.97,22.42-7.15-7.79-14.1-15.43-21.1-23.03-.83-.95-1.7-1.89-2.57-2.84h-2c-.87.98-1.78,1.97-2.65,2.99-3.67,4.16-7.37,8.36-11.12,12.4-3.14,3.4-6.5,6.62-10.44,10.62-7.18-7.9-14.14-15.5-21.06-23.14-.87-.95-1.74-1.93-2.61-2.87H.01v26.13c5.78,6.05,11.49,12.17,17.28,18.19,10.81,11.15,21.7,22.23,32.59,33.38-11.83,12.14-23.48,24.12-35.16,36.07-4.88,4.95-9.83,9.83-14.71,14.75v63.75h897.69v-63.75c-8.81-9.04-17.58-18.03-26.43-27.03-7.75-7.86-15.5-15.73-23.4-23.71,10.55-10.85,21.06-21.63,31.49-32.48,5.6-5.82,11-11.83,16.56-17.69.38-.38,1.17-.38,1.78-.53v-27.07h-100.72ZM822.2,956.75c-8.32,8.73-16.03,16.86-24.24,25.45-8.05-8.39-15.88-16.6-24.39-25.45h48.62ZM846.89,982.88c-8.09,8.54-15.8,16.67-23.93,25.18-8.09-8.39-15.84-16.52-24.12-25.18h48.05ZM748.1,956.52c16.52,17.17,33.01,34.29,49.68,51.57-16.41,17.09-32.78,34.07-49.72,51.65-16.79-17.47-33.23-34.48-49.72-51.61v-.04c16.75-17.35,33.16-34.41,49.76-51.57ZM722.54,956.75c-8.36,8.77-16.11,16.9-24.27,25.45-8.24-8.58-15.99-16.67-24.42-25.45h48.7ZM697.13,983.03c-8.13,8.54-15.8,16.64-23.78,25.03-7.94-8.28-15.69-16.41-23.97-25.03h47.75ZM522.95,956.86c-8.28,8.62-16.07,16.75-24.27,25.33-8.17-8.62-16.11-16.98-24.05-25.33h48.32ZM547.56,982.99c-8.13,8.51-15.88,16.64-23.97,25.07-7.9-8.28-15.65-16.41-23.86-25.07h47.83ZM448.88,956.56c16.6,17.2,33.08,34.33,49.68,51.53-16.56,17.24-32.82,34.14-49.64,51.65-16.75-17.35-33.16-34.37-49.83-51.65,16.56-17.13,33.12-34.29,49.79-51.53ZM423.09,956.94c-8.2,8.58-15.96,16.71-24.16,25.33-8.13-8.62-15.84-16.67-24.05-25.33h48.21ZM398.03,982.91c-8.17,8.58-15.96,16.75-23.97,25.18-8.02-8.39-15.77-16.52-24.01-25.18h47.98ZM223.84,956.75c-8.39,8.77-16.14,16.86-24.31,25.41-8.05-8.36-15.92-16.52-24.42-25.41h48.74ZM248.49,982.76c-8.2,8.66-15.88,16.79-23.97,25.29-7.98-8.32-15.84-16.56-24.2-25.29h48.17ZM149.62,956.52c16.52,17.13,33.01,34.22,49.76,51.53-16.52,17.17-32.86,34.1-49.79,51.68-16.75-17.43-33.16-34.48-49.68-51.65,16.56-17.13,33.08-34.29,49.72-51.57ZM124.1,956.67c-8.36,8.81-16.18,16.94-24.31,25.48-8.09-8.39-15.88-16.48-24.54-25.48h48.85ZM98.88,982.88c-8.28,8.62-16.03,16.75-24.05,25.14-7.94-8.28-15.73-16.37-24.12-25.14h48.17ZM74.69,1008.13c8.17,8.54,15.96,16.64,24.5,25.6h-48.55c8.24-8.81,15.99-17.05,24.05-25.6ZM99.72,1034.22c8.2,8.39,16.14,16.52,24.88,25.52h-49.61c8.54-8.81,16.45-16.94,24.73-25.52ZM124.78,1111.58c7.26-7.41,13.95-14.18,20.53-21.02,1.36-1.44,2.42-3.25,3.59-4.88-.04-.04-.08-.08-.11-.11h-48.7c8.28-8.58,16.14-16.75,25.07-26.01,3.44,3.82,6.62,7.26,9.75,10.74,4.61,5.1,9.23,10.17,13.88,15.27h.19v.04s-.04.04-.08.08c8.28,8.39,16.6,16.82,25.56,25.9h-49.68ZM178.43,1064.05c6.31,6.58,12.7,13.04,19.06,19.55.42.45.68.98,1.36,2h-49.3c9.19-9,17.58-17.28,26.01-25.6,0-.04-.04-.11-.08-.15h.15c.11-.57.04-1.32.34-1.66,7.75-7.9,15.5-15.73,23.59-23.89,8.13,8.36,16.03,16.45,24.92,25.56h-48.85v.15l-.04-.04-.04.04c.98,1.36,1.74,2.87,2.87,4.05ZM200.17,1033.5c8.32-8.77,16.07-16.9,24.24-25.45,8.09,8.54,15.88,16.67,24.16,25.45h-48.4ZM299.27,1059.7c-16.75-17.32-33.2-34.33-49.79-51.53,16.48-17.13,33.01-34.29,49.76-51.68,16.67,17.35,33.23,34.52,49.72,51.68-16.41,17.01-32.74,33.95-49.68,51.53ZM373.98,1008.09c8.13,8.43,15.99,16.6,24.61,25.52h-48.89c8.36-8.77,16.11-16.9,24.27-25.52ZM510.96,1046.92c3.82,4.12,8.09,7.79,12.17,11.65-.19.42-.38.87-.61,1.29h-47.64s-.04.08-.04.11l-.04.04c.98,1.36,1.74,2.87,2.87,4.05,6.65,7.03,13.42,13.95,21.32,22.04h-48.89v.11h-.04c.91,1.36,1.66,2.87,2.8,4.05,6.58,6.88,13.31,13.69,20.68,21.17h-49.08c5.86-6.09,11.53-11.95,17.05-17.88,2.23-2.38,4.23-4.99,6.31-7.52h-.04v-.11h-48.51c1.44-1.7,2.19-2.76,3.14-3.71,6.31-6.5,12.74-12.97,19.06-19.51.68-.72.98-1.74,1.44-2.65l-.08-.08v-.11h-48.77c8.73-9,16.67-17.13,24.84-25.56,8.13,8.17,15.88,15.99,23.59,23.89.3.3.26,1.1.34,1.66h.15c-.04.08-.08.11-.08.19,8.28,8.17,16.56,16.41,24.76,24.58.23.23.15.83.11,1.29h.15l-.11.11c.72.08,1.51.15,2.23.19-.04-.04-.04-.08-.08-.11h.11c-.04-.6-.26-1.36.04-1.66,8.2-8.2,16.41-16.3,24.65-24.42,0-.04-.04-.11-.08-.15h.15c.38-.91.64-2.04,1.32-2.72,7.71-7.9,15.5-15.69,23.25-23.52t-.04-.08h.19c7.86-8.28,15.77-16.64,24.12-25.48,8.02,8.47,15.77,16.75,24.05,25.48h-48.17s-.04.04-.08.08h-.04c3.74,4.42,7.41,9.07,11.46,13.31ZM598.49,1059.78c-16.9-17.54-33.23-34.48-49.79-51.65,16.52-17.13,33.08-34.29,49.79-51.57,16.52,17.09,33.01,34.22,49.72,51.57-16.41,17.01-32.74,34.03-49.72,51.65ZM673.24,1008.13c8.05,8.47,15.84,16.6,24.39,25.56h-48.51c8.24-8.77,15.99-16.94,24.12-25.56ZM698.23,1034.18c8.2,8.43,16.07,16.52,24.76,25.45h-49.53c8.58-8.81,16.48-16.94,24.76-25.45ZM776.87,1064.05c6.81,7.11,13.65,14.18,21.29,22h-48.85v.15c.87,1.36,1.63,2.87,2.72,4.05,6.69,6.96,13.5,13.84,20.72,21.29h-49.45c7.45-7.6,14.25-14.48,20.95-21.44,1.17-1.17,1.93-2.68,2.84-4.08h-.08v-.11h-48.81c8.73-8.96,16.64-17.13,24.88-25.67,8.24,8.39,16.07,16.37,23.82,24.39.23.23.15.83.11,1.29h.15s-.04.08-.08.11c.76.08,1.51.15,2.23.19-.04-.04-.08-.11-.11-.15h.11c-.04-.57-.19-1.36.08-1.63,8.17-8.2,16.41-16.33,24.65-24.46-.04-.04-.08-.11-.11-.15h.11c.11-.57.04-1.32.38-1.66,7.71-7.86,15.46-15.69,23.55-23.86,8.17,8.32,16.07,16.45,24.95,25.52h-48.89v.15c.91,1.4,1.7,2.87,2.84,4.08ZM798.72,1033.39c8.2-8.58,15.92-16.67,24.16-25.29,8.02,8.43,15.77,16.56,24.08,25.29h-48.24Z"
          style="fill: rgb(29, 29, 27);"></path>
        <path class="cls-1"
          d="M897.71,1142.96H.01v4.84c6.47,6.01,12.93,12.02,20.72,19.28-7.45,6.58-14.1,12.51-20.72,18.41v9.64h897.69v-9.64c-6.54-5.86-13.08-11.68-19.96-17.85,7.37-7.33,13.69-13.57,19.96-19.85v-4.84ZM7.01,1185.04c6.58-6.47,12.67-12.44,19.21-18.83-6.96-6.43-12.93-11.95-19.55-18.07h61.29c-5.33,5.14-10.21,9.94-15.16,14.71-2.42,2.31-4.46,3.67-.23,6.92,5.48,4.23,9.79,9.91,14.9,15.27H7.01ZM55.29,1167.42c6.99-7.26,13.01-13.5,19.43-20.15,6.35,6.58,12.48,12.89,19.4,20.04-6.62,5.6-13.38,11.3-20.19,17.01-5.44-4.92-11.99-10.85-18.64-16.9ZM143.04,1185.27h-61.14c5.48-5.63,10.36-11.15,15.88-16.03,2.61-2.31,2.16-3.4.15-5.29-5.33-5.03-10.59-10.09-16.6-15.8h61.48c-5.29,5.1-9.91,10.06-15.01,14.41-3.78,3.18-3.37,5.33.15,8.32,5.03,4.35,9.6,9.15,15.09,14.37v.04ZM150.15,1185.27c-6.84-6.01-13.5-11.83-20.11-17.62,6.92-7.22,12.97-13.54,19.62-20.45,6.31,6.54,12.44,12.85,18.72,19.36-6.2,6.35-12.36,12.67-18.22,18.68v.04ZM156.58,1185.38c6.47-6.62,12.51-12.78,18.9-19.32-6.65-6.2-12.63-11.72-19.28-17.92h59.47c-5.33,5.07-11.27,10.66-17.24,16.33,5.26,9.04,13.16,13.61,18.9,20.91h-60.76ZM204.71,1167.61c7.15-7.45,13.16-13.69,19.58-20.42,6.39,6.62,12.55,12.97,19.43,20.11-6.54,5.75-13.2,11.53-19.21,16.79-6.09-5.03-12.89-10.7-19.81-16.48ZM231.59,1185.04l.04-.04c5.52-5.6,10.4-11.04,15.88-15.84,2.65-2.34,1.93-3.52,0-5.33-5.33-4.99-10.59-10.06-16.64-15.77h61.78c-5.71,5.48-10.74,10.47-15.99,15.24-2.68,2.38-2.91,4.08-.11,6.58,5.26,4.69,10.25,9.64,16.03,15.16h-60.99ZM279.57,1167.61c7.15-7.45,13.16-13.65,19.55-20.34,6.39,6.58,12.59,12.93,19.62,20.15-6.69,5.67-13.46,11.38-19.85,16.79-5.86-5.03-12.51-10.78-19.32-16.6ZM305.89,1185.08c5.56-5.29,10.44-10.28,15.69-14.82,3.29-2.84,2.8-4.69-.15-7.3-5.14-4.57-9.94-9.41-15.54-14.78h61.78c-5.97,5.6-11.15,10.51-16.37,15.39-2.19,2.04-3.14,3.18.11,5.86,5.52,4.54,10.02,10.17,15.31,15.65h-60.83ZM354.7,1167.31c6.81-7.03,12.89-13.38,19.4-20.11,6.39,6.65,12.4,12.93,19.32,20.15-6.84,5.37-13.76,10.85-20.53,16.11-4.84-4.31-11.53-10.25-18.19-16.14ZM441.17,1185.27h-60.68c5.9-5.63,10.89-10.62,16.22-15.35,2.84-2.5,2.61-4.23-.08-6.62-5.26-4.69-10.25-9.64-16.3-15.35h60.04c-5.82,5.56-11.99,11.46-19.4,18.53,7.86,6.62,14.44,12.17,21.02,17.73l-.83,1.06ZM448.12,1185.04c-5.82-5.97-11.91-12.21-18-18.49,6.09-6.28,12.1-12.63,18.53-19.32,6.5,6.65,12.67,13.04,19.55,20.11-6.54,5.78-13.16,11.61-20.04,17.69h-.04ZM455.04,1185.27c7.22-6.5,13.54-12.21,20.15-18.22-6.73-6.39-12.93-12.33-19.89-18.94h60.23c-6.01,5.67-12.21,11.53-19.21,18.11,7.6,6.84,13.95,12.51,21.21,19.06h-62.5ZM504.99,1166.66c6.09-6.31,12.25-12.63,18.79-19.4,6.47,6.77,12.48,13.04,19.24,20.08-6.58,5.71-13.23,11.53-20.08,17.51-5.56-5.6-11.76-11.91-17.96-18.19ZM530.81,1185.08c5.52-5.56,10.47-11.04,15.99-15.92,2.65-2.38,1.81-3.55-.11-5.33-5.33-4.99-10.59-10.02-16.64-15.77h60.68c-6.01,5.67-11.95,11.23-18.68,17.62,6.88,6.88,12.89,12.93,19.32,19.4h-60.57ZM578.83,1167.65c7.03-7.3,13.08-13.61,19.62-20.42,6.39,6.65,12.55,13.01,19.66,20.38-6.88,5.67-13.69,11.19-19.66,16.07-5.9-4.8-12.74-10.4-19.62-16.03ZM605.33,1185.19c6.58-6.43,12.7-12.44,19.06-18.68-6.81-6.39-12.74-11.95-19.51-18.3h61.85c-5.94,5.67-11.15,10.59-16.37,15.54-2.12,1.97-2.8,3.02.19,5.56,5.52,4.65,10.17,10.28,15.54,15.88h-60.76ZM653.73,1167.42c6.92-7.11,13.04-13.42,19.55-20.08,6.54,6.77,12.67,13.04,19.47,20.11-6.62,5.78-13.27,11.57-19.28,16.79-6.2-5.29-12.89-11-19.74-16.82ZM679.93,1185.19c6.99-6.28,13.38-12.06,20.04-18.07-6.99-6.58-13.2-12.4-20.08-18.9h61.55v.04c-5.67,5.37-10.47,10.32-15.65,14.78-3.63,3.1-2.53,4.99.45,7.6,5.07,4.42,9.79,9.23,15.43,14.56h-61.74ZM728.63,1167.46c7.03-7.3,13.08-13.57,19.55-20.27,6.35,6.62,12.36,12.93,18.56,19.36-6.09,6.31-12.21,12.63-18.34,18.9-6.65-6.09-13.2-12.02-19.77-18ZM754.9,1185.3c6.58-6.5,12.67-12.51,19.43-19.13-6.84-6.31-12.89-11.91-19.58-18.11h61.51c-5.71,5.52-10.74,10.55-15.99,15.27-2.76,2.46-2.72,4.16,0,6.62,5.22,4.69,10.17,9.68,16.07,15.35h-61.44ZM803.15,1167.65c7.07-7.33,13.16-13.69,19.62-20.42,6.43,6.62,12.51,12.89,19.09,19.7-6.5,5.78-13.16,11.65-19.32,17.09-5.82-4.92-12.63-10.62-19.4-16.37ZM870.48,1166.59c7.11,6.54,13.42,12.36,20.23,18.6h-60.68c5.41-5.56,10.21-11.19,15.77-15.96,3.02-2.57,1.93-3.71-.04-5.6-5.22-4.92-10.4-9.91-16.33-15.58v-.04h61.25c-6.77,6.24-13.12,12.02-20.19,18.56Z"
          style="fill: rgb(29, 29, 27);"></path>
        <path class="cls-1"
          d="M897.71,1536.13H.01v8.7c6.54,5.86,13.12,11.76,20.76,18.56-7.68,7.07-14.22,13.12-20.76,19.13v4.8h897.69v-4.8c-6.5-5.9-13.04-11.83-20.72-18.79,7.56-6.92,14.14-12.93,20.72-18.9v-8.7ZM6.59,1582.37c5.6-5.44,10.36-10.44,15.58-14.97,3.37-2.95,3.02-4.88-.15-7.64-5.14-4.46-9.87-9.34-15.54-14.71h60.42c-6.16,5.86-12.4,11.72-19.09,18.07,7.18,6.69,13.46,12.48,20.72,19.24H6.59ZM55.74,1563.24c6.5-5.78,13.12-11.65,19.24-17.13,6.01,5.07,12.74,10.85,19.47,16.56-6.96,7.26-13.01,13.61-19.58,20.49-6.47-6.77-12.48-13.01-19.13-19.93ZM81.61,1582.07c5.56-5.33,10.59-10.32,15.8-15.12,2.27-2.04,3.02-3.63.34-5.94-5.6-4.73-11-9.64-16.48-14.48.45-.53.95-1.06,1.4-1.59h60.08c-6.58,6.58-12.67,12.67-18.94,18.98,6.73,6.2,12.7,11.72,19.66,18.15h-61.86ZM130.04,1562.94c6.77-5.86,13.54-11.72,19.47-16.82,6.35,5.22,13.12,10.81,19.89,16.37-7.15,7.41-13.2,13.69-19.77,20.57-6.35-6.54-12.59-12.93-19.58-20.11ZM156.09,1582.33c5.82-5.6,10.81-10.62,16.11-15.35,2.68-2.42,2.84-4.12.04-6.62-5.26-4.65-10.21-9.64-15.99-15.12h61.55c-5.37,5.1-10.09,9.75-15.01,14.22-3.18,2.87-4.01,5.18-.11,8.43,5.14,4.2,9.64,9.07,15.2,14.44h-61.78ZM205.01,1563.01c6.65-5.75,13.31-11.53,19.4-16.75,6.01,4.99,12.78,10.66,19.66,16.37v.04c-7.18,7.45-13.23,13.76-19.62,20.42-6.43-6.65-12.55-12.97-19.43-20.08ZM231.18,1582.07c6.47-6.12,12.29-11.61,19.13-18.03-6.28-6.28-12.33-12.36-18.79-18.9h59.4c-5.9,5.63-12.17,11.61-18.68,17.81,7.3,6.84,13.46,12.67,20.34,19.13h-61.4ZM279.95,1563.16c6.65-5.82,13.35-11.64,19.47-16.98,5.97,5.1,12.67,10.81,19.4,16.6-6.92,7.22-13.08,13.61-19.58,20.38-6.47-6.69-12.55-13.01-19.28-20ZM306.49,1582.11c6.58-6.05,12.89-11.87,20-18.37-7.15-6.58-13.46-12.4-20.27-18.64h60.76c-6.39,6.47-12.44,12.59-18.79,18.98,6.69,6.2,12.67,11.76,19.47,18.03h-61.17ZM355.34,1563.73c6.05-6.24,12.17-12.48,18.15-18.64,6.65,5.94,13.35,11.87,20,17.81-6.81,7.07-12.93,13.38-19.47,20.19-6.5-6.73-12.51-12.97-18.68-19.36ZM380.71,1582.07c5.78-5.52,10.74-10.44,15.99-15.12,2.8-2.5,2.57-4.2-.11-6.62-5.22-4.69-10.21-9.6-15.99-15.12h59.93c-5.97,5.52-12.29,11.42-18.9,17.54,7.49,7.03,13.69,12.86,20.61,19.32h-61.51ZM429.18,1562.6c6.73-5.44,13.57-10.96,20.49-16.56,5.37,4.88,11.99,10.81,18.68,16.82-6.96,7.26-12.97,13.5-19.4,20.19-6.43-6.62-12.55-12.97-19.77-20.45ZM455.46,1582.07l-.04.04v-.04h.04c5.94-5.63,11.04-10.62,16.37-15.46,2.46-2.23,2.31-3.78-.08-5.9-5.33-4.8-10.44-9.83-16.41-15.46h61.06c-5.41,5.56-10.4,11.08-15.84,16.14-2.34,2.19-1.89,3.33.11,5.18,5.29,4.88,10.47,9.87,16.45,15.5h-61.67ZM504.95,1563.65c6.16-6.28,12.4-12.59,18-18.22,6.84,5.97,13.5,11.76,20.08,17.51-6.73,7.03-12.74,13.31-19.32,20.11-6.31-6.54-12.44-12.85-18.75-19.4ZM531.76,1582.37c6.16-5.86,12.4-11.8,18.94-18-7.3-6.88-13.46-12.74-20.23-19.13h61.25c-4.46,4.27-8.47,8.02-12.36,11.87-7.86,7.75-7.86,5.33.15,13.27,3.59,3.59,7.3,7.11,10.89,10.62.23.23.34.53.91,1.36h-59.55ZM578.75,1562.63c6.81-5.63,13.61-11.3,19.85-16.48,5.94,5.03,12.67,10.74,19.51,16.48v.04c-7.15,7.37-13.16,13.61-19.62,20.38-6.35-6.58-12.55-13.01-19.74-20.42ZM665.75,1582.11h-60.34c4.76-4.65,9.19-8.96,13.65-13.27,5.33-5.18,5.37-5.22.08-10.25-4.46-4.27-9-8.47-14.29-13.46h61.48c-6.69,6.28-12.89,12.02-19.28,18.03,6.77,6.28,13.08,12.06,19.4,17.88-.23.34-.45.72-.68,1.06ZM653.88,1562.94c6.35-5.94,12.74-11.87,19.47-18.19,6.28,6.39,12.48,12.67,18.6,18.87-6.05,6.31-12.06,12.63-18.56,19.4-6.39-6.58-12.59-12.97-19.51-20.08ZM681.33,1582.18c6.09-5.75,12.4-11.68,18.98-17.88-7.45-6.73-13.8-12.44-20.15-18.15l.76-1.02h60.27c-4.12,4.05-7.86,7.71-11.65,11.38-4.92,4.76-4.92,9.53,0,14.29,3.74,3.59,7.56,7.11,12.1,11.38h-60.3ZM728.74,1563.16c6.81-5.71,13.61-11.46,19.77-16.64,5.67,4.76,12.4,10.47,19.13,16.14-6.92,7.22-12.97,13.5-19.55,20.38-6.31-6.47-12.48-12.82-19.36-19.89ZM754.87,1582.18c5.52-5.37,10.44-10.44,15.73-15.09,2.99-2.65,2.8-4.42-.11-6.96-5.22-4.57-10.17-9.49-16.22-15.2h62.04c-5.71,5.52-10.62,10.59-15.92,15.27-2.99,2.65-2.8,4.39.08,6.92,5.26,4.61,10.21,9.53,16.07,15.05h-61.67ZM822.81,1583.09c-6.5-6.77-12.59-13.12-19.4-20.15,6.65-5.78,13.27-11.64,20.15-17.66,5.63,5.75,11.8,12.02,18.03,18.41-6.05,6.24-12.17,12.59-18.75,19.4h-.04ZM870.52,1562.79c7.45,6.99,13.65,12.82,20.53,19.28h-61.97c6.92-6.39,12.89-11.95,19.7-18.22-6.31-6.24-12.4-12.21-18.94-18.68h59.96c-6.24,5.71-12.63,11.53-19.28,17.62Z"
          style="fill: rgb(29, 29, 27);"></path>
        <rect class="cls-1" y="1511.97" width="897.71" height="10.62" style="fill: rgb(29, 29, 27);"></rect>
        <rect class="cls-1" y="1208.65" width="897.71" height="9.65" style="fill: rgb(29, 29, 27);"></rect>
        <rect class="cls-1" y="1137.17" width="897.71" height="4.82" style="fill: rgb(29, 29, 27);"></rect>
        <rect class="cls-1" y="1588.29" width="897.71" height="2.9" style="fill: rgb(29, 29, 27);"></rect>
        <rect class="cls-1" y="1129.45" width="897.71" height="2.9" style="fill: rgb(29, 29, 27);"></rect>
        <rect class="cls-1" y="1595.04" width="897.71" height="2.9" style="fill: rgb(29, 29, 27);"></rect>
        <rect class="cls-1" y="1199" width="897.71" height="1.93" style="fill: rgb(29, 29, 27);"></rect>
        <rect class="cls-1" y="1530.33" width="897.71" height="1.93" style="fill: rgb(29, 29, 27);"></rect>
        <path class="cls-1"
          d="M512.02,1441.15h77.13c-25.52-25.94-50.29-51.08-75.47-76.68v-.04c24.92-25.37,49.72-50.59,75.39-76.75h-77.32c10.02-10.28,19.21-19.74,28.89-29.64h-56.18c7.75-7.83,14.93-15.12,22.84-23.1h-116.9c7.98,8.05,15.2,15.31,23.21,23.4h-56.33c9.75,10.02,18.83,19.32,28.89,29.64h-76.94c10.06,10.51,19.55,20.53,29.15,30.4,14.25,14.59,28.62,29.15,43.03,43.63,1.89,1.93,2,3.25.04,5.22-11.95,12.06-23.74,24.31-35.69,36.37-10.25,10.4-20.64,20.61-30.89,30.97-1.93,1.93-3.52,4.16-6.05,7.18h76.79c-9.57,9.68-18.45,18.64-28.39,28.7h56.22c-8.17,8.39-15.54,15.96-23.18,23.82h117.28c-7.79-7.98-15.16-15.54-23.33-23.9h56.22c-9.53-9.83-18.45-18.98-28.39-29.23ZM457.69,1459.57c-.3.38-.57.79-.83,1.17,7.37,7.37,14.75,14.78,22.84,22.87h-61.55c7.98-7.98,15.31-15.31,23.63-23.67h-52.33c11.64-11.95,22.38-22.99,33.91-34.78h-73.42c20.45-20.87,39.89-40.68,59.44-60.65-19.7-20.15-39.06-40-59.02-60.38h73.58c-11.83-12.06-22.91-23.37-34.9-35.58h52.02c-7.64-7.9-14.63-15.16-22.04-22.8h59.74c-7.3,7.6-14.25,14.78-21.66,22.46h50.17c.23.38.45.76.68,1.13-11.04,11.34-22.08,22.69-33.65,34.56h73.12c-19.85,20.38-39.21,40.15-59.17,60.61,19.51,19.77,39.06,39.62,59.51,60.38h-73.5c11.72,12.1,22.38,23.06,33.65,34.67h-50.21Z"
          style="fill: rgb(29, 29, 27);"></path>
        <path class="cls-1"
          d="M884.47,1437.56c-15.12-15.54-30.25-31.08-45.41-46.54-7.79-7.94-15.58-15.84-23.48-23.63-1.85-1.85-2.19-3.18-.19-5.22,8.73-8.96,17.24-18.11,26.01-27,11.04-11.19,22.31-22.19,33.35-33.38,4.27-4.31,8.28-8.89,13.04-14.06h-76.6c9.79-10.13,18.83-19.51,28.7-29.68h-56.18c7.68-7.83,14.82-15.09,22.61-23.03h-116.68c7.94,8.05,15.16,15.27,22.91,23.06l-.04.04h-56.18c9.68,9.94,18.83,19.36,28.92,29.68h-77.28c25.67,26.16,50.47,51.46,75.24,76.71-25.22,25.63-50.02,50.81-75.69,76.9h77.24c-9.79,10.06-18.75,19.28-28.58,29.38h56.07c-7.75,7.94-15.12,15.54-22.76,23.37h117.06c-7.64-7.86-14.97-15.39-23.1-23.74h56.34c-9.98-10.06-18.98-19.09-28.92-29.07h76.94c-1.51-1.74-2.38-2.8-3.33-3.78ZM773.47,1424.75c11.8,12.25,22.65,23.48,33.95,35.16h-52.21c8.24,8.2,15.58,15.58,23.59,23.59h-61.21c7.68-7.79,15.01-15.24,23.25-23.59h-52.06c11.57-11.87,22.27-22.95,33.73-34.75h-72.52c.72-1.32.95-2.08,1.44-2.57,8.13-8.2,16.3-16.37,24.39-24.65,10.25-10.44,20.23-21.1,30.74-31.27,2.57-2.5,1.21-3.29-.3-4.8-4.61-4.8-9.15-9.68-13.84-14.37-9.87-9.98-19.85-19.81-29.68-29.79-4.23-4.23-8.24-8.73-12.78-13.57h73.05l.04-.04c-11.8-12.02-22.84-23.29-34.67-35.39h52.02c-7.75-8.02-14.75-15.31-22.23-23.06h59.93c-7.37,7.64-14.37,14.9-21.82,22.65h50.29l.64,1.06c-11.12,11.34-22.19,22.61-33.95,34.63h73.61c-20,20.45-39.32,40.19-59.21,60.53,19.36,19.74,38.87,39.62,59.13,60.23h-73.31Z"
          style="fill: rgb(29, 29, 27);"></path>
        <path class="cls-1"
          d="M286.38,1437.64c-6.35-6.69-12.7-13.38-19.17-19.93-11.08-11.15-22.31-22.23-33.39-33.39-5.67-5.71-11.38-11.42-16.75-17.35-.87-.91-.87-3.74-.08-4.61,8.36-9.07,16.86-18,25.52-26.81,10.7-10.85,21.63-21.51,32.33-32.33,4.76-4.84,9.3-9.91,14.59-15.61h-76.83c9.64-9.87,18.83-19.28,28.89-29.6h-56.18c7.6-7.83,14.75-15.16,22.38-22.99h-116.56c8.02,8.02,15.2,15.24,22.99,23.06h-56.22c9.68,9.94,18.83,19.4,28.96,29.76H9.5c25.63,26.09,50.47,51.38,75.13,76.45-5.1,5.44-9.72,10.62-14.67,15.62-11,11.12-22.16,22.12-33.2,33.2-7.49,7.49-14.9,15.01-22.31,22.57-1.59,1.59-2.99,3.33-5.22,5.82h76.98c-9.68,10.02-18.6,19.17-28.32,29.15h55.88c-7.9,8.17-15.16,15.69-22.84,23.67h117.36c-7.75-7.94-15.12-15.54-23.33-24.01h56.18c-9.83-9.94-18.75-18.94-28.32-28.66h76.52c-1.36-1.85-2.08-3.06-2.99-4.01ZM174.88,1424.86c11.72,12.02,22.46,23.06,33.91,34.82h-50.4c-.3.45-.64.91-.95,1.36,7.45,7.26,14.9,14.52,23.18,22.57h-61.7c7.9-7.98,15.24-15.39,23.59-23.78h-52.14c11.49-11.83,22.19-22.87,33.91-34.97H51.62c.53-.98.68-1.59,1.06-1.97,6.81-6.99,13.61-13.99,20.53-20.91,10.78-10.85,21.66-21.66,32.48-32.55,1.55-1.55,2.8-3.44,4.23-5.26-19.47-19.93-38.79-39.7-58.72-60.04h73.35c-11.8-12.06-22.84-23.33-34.71-35.46h51.95c-7.68-7.98-14.71-15.24-22.19-23.03h60.15c-7.68,7.9-14.86,15.31-22.31,22.99h52.02c-11.87,12.1-22.99,23.44-34.71,35.35h73.61c-19.96,20.42-39.36,40.23-59.21,60.53,19.4,19.81,38.87,39.66,59.1,60.34h-73.39Z"
          style="fill: rgb(29, 29, 27);"></path>
        <path class="cls-1"
          d="M598.48,1312.23c17.26,17.56,33.92,34.51,51.35,52.27-16.86,17.22-33.83,34.53-51.33,52.39-17.18-17.5-34.19-34.81-51.43-52.35,17.2-17.5,34.02-34.64,51.39-52.29l.02-.02Z"
          style="fill: rgb(29, 29, 27);"></path>
        <path class="cls-1"
          d="M299.29,1416.83c-17.35-17.65-34.32-34.96-51.41-52.35,17.28-17.56,34.11-34.66,51.37-52.2,17.22,17.5,34.04,34.58,51.39,52.18-16.99,17.33-33.92,34.6-51.35,52.37h0Z"
          style="fill: rgb(29, 29, 27);"></path>
        <path class="cls-1"
          d="M473.56,1722.11c-8.18,8.44-16.38,16.91-24.75,25.56-8.16-8.49-16.36-16.99-24.6-25.56,8.2-8.46,16.42-16.97,24.66-25.5,8.22,8.49,16.42,16.97,24.69,25.5h0Z"
          style="fill: rgb(29, 29, 27);"></path>
        <path class="cls-1"
          d="M324.12,1722.13c-8.31,8.74-16.42,17.27-24.87,26.13-8.56-8.93-16.72-17.48-24.94-26.07,8.35-8.78,16.48-17.31,24.92-26.18,8.37,8.78,16.48,17.31,24.9,26.11h0Z"
          style="fill: rgb(29, 29, 27);"></path>
        <path class="cls-1"
          d="M573.5,1722.28c8.35-8.78,16.48-17.33,24.92-26.2,8.37,8.72,16.53,17.22,25.04,26.09-8.16,8.55-16.3,17.03-24.94,26.09-8.47-8.8-16.74-17.37-25.02-26.01v.02Z"
          style="fill: rgb(29, 29, 27);"></path>
        <path class="cls-1"
          d="M448.77,1033.59c-8.41-8.7-16.44-16.97-24.66-25.48,8.12-8.4,16.3-16.84,24.66-25.5,8.26,8.51,16.55,17.06,24.81,25.58-8.33,8.55-16.57,16.99-24.79,25.41l-.02-.02Z"
          style="fill: rgb(29, 29, 27);"></path>
        <path class="cls-1"
          d="M573.54,1008.13c8.2-8.59,16.36-17.12,24.94-26.09,8.45,8.78,16.61,17.29,24.98,25.99-8.31,8.7-16.42,17.2-24.9,26.07-8.33-8.63-16.59-17.22-25.02-25.96h0Z"
          style="fill: rgb(29, 29, 27);"></path>
        <path class="cls-1"
          d="M299.23,981.98c8.68,9.08,16.82,17.54,25.04,26.13-8.35,8.72-16.51,17.22-25.04,26.11-8.31-8.65-16.44-17.14-25.02-26.09,8.22-8.61,16.4-17.16,25.02-26.15h0Z"
          style="fill: rgb(29, 29, 27);"></path>
        <path class="cls-1"
          d="M545.16,1153.84h31.79c-3.7,3.51-6.56,6.6-9.82,9.2-3.39,2.71-2.92,4.78.17,7.28,3.18,2.56,6.08,5.42,10.05,8.97h-31.81c3.2-3.11,5.82-6.14,8.94-8.57,3.91-3.07,3.47-5.44-.15-8.32-3.01-2.41-5.66-5.25-9.17-8.57h0Z"
          style="fill: rgb(29, 29, 27);"></path>
        <path class="cls-1"
          d="M652.16,1179.43h-31.56c4.35-4.59,8.37-8.8,12.91-13.59-4.73-4.15-8.77-7.66-13.63-11.89h32.49c-3.2,2.75-5.59,4.57-7.72,6.67-7.21,7.03-7.15,5.1.15,12.25,2.04,2.01,4.29,3.83,7.36,6.58v-.02Z"
          style="fill: rgb(29, 29, 27);"></path>
        <path class="cls-1"
          d="M277.91,1153.89c-4.25,3.96-7.55,7.13-10.98,10.18-2.08,1.84-2.02,3.36.04,5.18,3.43,3.03,6.73,6.2,10.87,10.03h-31.43c3.45-3.39,6.48-6.62,9.82-9.54,2.63-2.29,2.59-4.02-.04-6.24-3.32-2.81-6.41-5.92-10.39-9.63h32.11v.02Z"
          style="fill: rgb(29, 29, 27);"></path>
        <path class="cls-1"
          d="M320.47,1179.41c4.25-3.94,7.4-7.05,10.77-9.9,2.54-2.16,2.29-3.83-.11-5.86-3.36-2.86-6.54-5.9-10.7-9.69h31.64c-3.36,3.3-6.24,6.5-9.53,9.23-3.09,2.6-2.84,4.51.13,6.94,3.24,2.67,6.16,5.65,10.03,9.25h-32.25l.02.04Z"
          style="fill: rgb(29, 29, 27);"></path>
        <path class="cls-1"
          d="M395.34,1179.43c3.74-3.47,6.5-6.43,9.67-8.87,3.85-2.94,3.32-5.23-.17-7.96-3.07-2.41-5.87-5.16-9.74-8.63h31.88c-2.52,2.45-4.67,4.51-6.79,6.6-7.17,7.09-7.13,5.12.17,12.29,2.04,2.01,4.27,3.85,7.34,6.58h-32.36v-.02Z"
          style="fill: rgb(29, 29, 27);"></path>
        <path class="cls-1"
          d="M502.37,1153.87c-4.27,3.96-7.57,7.13-11,10.16-2.04,1.82-2.12,3.32-.04,5.16,3.43,3.03,6.71,6.22,10.81,10.03h-32.3c4.18-3.75,7.42-6.77,10.81-9.61,2.4-1.99,2.84-3.62.25-5.84-3.43-2.92-6.64-6.09-10.81-9.95h32.28v.04Z"
          style="fill: rgb(29, 29, 27);"></path>
        <path class="cls-1"
          d="M373.79,1174.98c-2.82-2.86-5.53-5.63-8.39-8.55,2.94-2.6,6.08-5.4,9.19-8.17,2.52,2.56,5.38,5.46,8.2,8.32-2.92,2.73-5.78,5.37-9.02,8.4h.02Z"
          style="fill: rgb(29, 29, 27);"></path>
        <path class="cls-1"
          d="M590.38,1165.95c2.19-2.31,5.03-5.33,8.07-8.57,2.92,3.11,5.85,6.2,8.62,9.12-2.8,2.84-5.51,5.61-8.07,8.19-2.94-2.98-5.76-5.84-8.6-8.74h-.02Z"
          style="fill: rgb(29, 29, 27);"></path>
        <path class="cls-1"
          d="M449.72,1158.44c2.21,2.24,5.09,5.18,7.91,8.04-2.9,2.88-5.66,5.63-8.28,8.25-2.94-2.96-5.8-5.8-9.44-9.44,2.86-1.99,6.43-4.49,9.8-6.86h.02Z"
          style="fill: rgb(29, 29, 27);"></path>
        <path class="cls-1"
          d="M308.08,1166.67c-2.82,2.65-5.66,5.31-8.94,8.38-2.44-3-4.96-6.07-8.07-9.9,2.19-1.61,5.64-4.17,9-6.64,2.06,2.09,4.96,5.08,7.99,8.17h.02Z"
          style="fill: rgb(29, 29, 27);"></path>
        <path class="cls-1"
          d="M515.3,1166.18c2.54-2.6,5.45-5.57,8.35-8.53,2.86,2.92,5.76,5.88,8.52,8.7-2.84,2.79-5.68,5.59-8.31,8.17-2.82-2.75-5.68-5.54-8.56-8.34h0Z"
          style="fill: rgb(29, 29, 27);"></path>
        <path class="cls-1"
          d="M470.87,1575.45c2.23-1.9,4.54-3.7,6.64-5.76,7.19-7.03,7.11-5.08-.17-12.25-2.04-2.01-4.27-3.85-7.32-6.56h30.93c-4.29,4-8.52,7.94-13.25,12.36,5.13,4.72,9.4,8.63,14.32,13.16h-30.38c-.25-.32-.5-.63-.76-.95h-.02Z"
          style="fill: rgb(29, 29, 27);"></path>
        <path class="cls-1"
          d="M246.6,1576.29c4.52-4.15,8.7-7.98,13.04-11.98-4.86-4.42-9.15-8.32-13.41-12.23.23-.36.46-.72.69-1.08h29.46c-4.23,3.6-8.6,7.34-13.1,11.17,5.61,5.18,9.86,9.12,14.13,13.03-.23.36-.46.7-.67,1.06h-30.11l-.02.02Z"
          style="fill: rgb(29, 29, 27);"></path>
        <path class="cls-1"
          d="M321.98,1550.79h30.26c-3.62,3.55-6.62,6.77-9.9,9.69-2.5,2.22-2.84,3.96-.08,6.22,3.39,2.79,6.54,5.82,10.79,9.65h-31.5c4.63-3.85,9.06-7.55,13.67-11.38-5.57-5.08-9.84-8.99-14.13-12.91.29-.42.61-.85.9-1.27h0Z"
          style="fill: rgb(29, 29, 27);"></path>
        <path class="cls-1"
          d="M621.25,1550.75h30.32c-3.72,3.66-6.75,6.9-10.09,9.8-2.63,2.29-2.57,4,.04,6.22,3.32,2.81,6.41,5.9,10.39,9.61h-31.08c4.58-3.94,8.96-7.7,13.71-11.79-5.45-4.97-9.71-8.91-13.98-12.82.23-.36.48-.7.71-1.04l-.02.02Z"
          style="fill: rgb(29, 29, 27);"></path>
        <path class="cls-1"
          d="M426.04,1576.57h-29.86c4.79-4.06,9.21-7.79,13.75-11.64-5.47-5.1-9.69-9.06-14.91-13.92h31.79c-3.41,3.36-6.43,6.6-9.74,9.5-2.54,2.24-2.78,3.98-.04,6.22,3.39,2.77,6.56,5.8,9.82,8.72-.27.36-.55.74-.82,1.1v.02Z"
          style="fill: rgb(29, 29, 27);"></path>
        <path class="cls-1"
          d="M562.04,1562.84c5.7,5.18,9.92,9.01,14.87,13.48h-31.22c3.41-3.36,6.43-6.58,9.74-9.5,2.54-2.24,2.75-3.96.04-6.22-3.34-2.81-6.41-5.95-10.37-9.63h30.97c-4.56,3.85-8.96,7.58-14.05,11.89l.02-.02Z"
          style="fill: rgb(29, 29, 27);"></path>
        <path class="cls-1"
          d="M374.19,1572.8c-2.99-3.05-5.89-6.03-8.56-8.76,2.88-2.75,5.76-5.52,8.41-8.06,2.54,2.48,5.32,5.16,8.35,8.1-2.42,2.58-5.3,5.65-8.18,8.74l-.02-.02Z"
          style="fill: rgb(29, 29, 27);"></path>
        <path class="cls-1"
          d="M448.1,1571.85c-2.17-2.2-5.07-5.16-8.1-8.25,2.82-2.69,5.64-5.37,8.87-8.46,2.48,3.13,4.96,6.26,8.01,10.14-2.04,1.52-5.47,4.08-8.81,6.58h.02Z"
          style="fill: rgb(29, 29, 27);"></path>
        <path class="cls-1"
          d="M531.49,1564.65c-2.08,2.12-4.98,5.08-7.82,7.98-2.9-2.96-5.8-5.92-8.83-9.01,2.82-2.67,5.64-5.33,8.92-8.4,2.48,3.03,5,6.09,7.76,9.46l-.02-.02Z"
          style="fill: rgb(29, 29, 27);"></path>
        <path class="cls-1"
          d="M599.09,1555.66c2.52,2.52,5.28,5.27,8.1,8.08-2.82,2.9-5.72,5.86-8.71,8.91-2.78-2.81-5.68-5.78-8.35-8.49,2.86-2.71,5.72-5.44,8.96-8.51h0Z"
          style="fill: rgb(29, 29, 27);"></path>
        <path class="cls-1"
          d="M307.53,1564.06c-2.4,2.65-5.19,5.73-8.28,9.14-2.96-3.26-5.74-6.31-8.35-9.16,2.75-2.73,5.57-5.52,8.2-8.13,2.67,2.6,5.57,5.37,8.43,8.15h0Z"
          style="fill: rgb(29, 29, 27);"></path>
        <path class="cls-1"
          d="M494.48,1320.99c-14.17,14.35-28.34,28.69-42.81,43.32,14.13,14.52,28.26,29.05,42.73,43.91h-100.19c14.4-14.71,28.58-29.22,42.98-43.93-14.05-14.26-27.92-28.38-42.62-43.29h99.94-.02Z"
          style="fill: rgb(29, 29, 27);"></path>
      </g>
      <g>
        <path class="cls-1"
          d="M898.12,808.31v-65.67H.39v65.67c8.81,9,17.62,18.03,26.47,27.03,7.71,7.86,15.5,15.69,23.4,23.74-10.55,10.85-21.1,21.59-31.53,32.44-5.6,5.82-11,11.8-16.56,17.66-.34.38-1.13.38-1.78.53v27.07h100.76c.38-.87.6-1.89,1.25-2.53.3-.3.61-.64.95-.95,7.11-7.3,14.33-14.59,22.04-22.42,7.03,7.68,13.8,15.12,20.57,22.53,1.02,1.13,2.04,2.23,3.06,3.37h2c.42-.87.6-1.89,1.25-2.57.3-.3.61-.64.91-.95,7.11-7.33,14.33-14.56,22.04-22.38,7.18,7.86,14.1,15.46,21.02,22.99.87.98,1.78,1.93,2.65,2.91h201.48c.76-1.17,1.29-2.5,2.19-3.48.11-.15.3-.3.45-.45,7.56-6.47,15.24-12.74,22.87-19.13-.49-.79-1.02-1.63-1.51-2.42,1.47,1.4,2.99,2.76,4.39,4.2,5.82,5.9,11.61,11.8,17.35,17.77.34.34.64.68.98,1.02.64.6.79,1.63,1.13,2.5h2.04c.38-.83.53-1.85,1.13-2.46l.49-.49c7.64-7.79,15.39-15.54,23.06-23.25,4.2,4.88,8.39,9.72,12.67,14.56,2.53,2.91,5.14,5.78,7.75,8.66.95,1.02,1.85,2,2.76,3.02h201.48c.42-.87.6-1.89,1.25-2.53.3-.34.64-.64.95-.98,7.15-7.3,14.33-14.56,22.04-22.42,7.18,7.9,14.14,15.46,21.02,23.03.87.95,1.74,1.93,2.61,2.87h2c.42-.87.6-1.89,1.25-2.53.15-.15.3-.3.42-.45,7.3-7.45,14.67-14.9,22.53-22.87,7.18,7.86,14.14,15.43,21.06,22.99.87.95,1.74,1.93,2.61,2.87h100.76v-27.07c-9.41-9.57-18.83-19.17-28.28-28.73-7.18-7.3-14.37-14.56-21.63-21.89,12.33-12.59,24.42-24.99,36.56-37.39,4.42-4.5,8.92-8.92,13.35-13.38ZM823.34,859.01c-8.05-8.36-15.92-16.52-24.42-25.41h48.66c-8.43,8.85-16.14,16.94-24.24,25.41ZM847.5,884.46h-48.28c8.28-8.66,16.11-16.86,24.08-25.26,7.98,8.32,15.77,16.45,24.2,25.26ZM743.18,775.68c-6.2-6.5-12.51-12.93-19.43-20.04h49.61c-7.33,7.52-14.14,14.41-20.83,21.36-1.13,1.17-1.89,2.65-2.84,4.01h.08v.15h48.55c-1.66,1.93-2.5,3.02-3.4,3.97-6.35,6.47-12.74,12.89-19.02,19.43-.68.68-.98,1.74-1.47,2.65l.08.08v.11h48.81c-8.77,9-16.67,17.17-24.88,25.63-8.13-8.24-15.88-16.07-23.59-23.97-.3-.34-.23-1.06-.34-1.66h-.15c.04-.08.08-.11.08-.19-8.2-8.09-16.45-16.22-24.58-24.39-.26-.26-.11-1.06-.08-1.66h-.15s.08-.11.08-.15c-.72.08-1.47.11-2.19.19.04.04.08.11.11.15h-.15c-.08.57,0,1.32-.34,1.66-7.71,7.9-15.43,15.73-23.63,24.05-8.2-8.43-16.07-16.56-24.99-25.71h48.96v-.15h.04c-1.44-1.89-2.68-3.82-4.31-5.52ZM723.22,807.48c-8.54,8.89-16.37,17.01-24.61,25.6-8.32-8.66-16.11-16.75-24.65-25.6h49.26ZM698,833.53c-8.36,8.81-16.14,17.01-24.31,25.6-8.09-8.51-15.84-16.64-24.35-25.6h48.66ZM697.7,884.31h-47.94c8.09-8.47,15.84-16.6,23.97-25.14h.04c7.98,8.39,15.73,16.52,23.93,25.14ZM598.83,807.56c16.86,17.39,33.27,34.41,49.79,51.53-16.48,17.13-32.93,34.25-49.68,51.65-16.71-17.28-33.2-34.37-49.83-51.61,16.48-17.05,32.86-34.07,49.72-51.57ZM524.12,859.09c-8.02-8.39-15.8-16.56-24.16-25.26h48.28c-8.2,8.58-15.96,16.67-24.12,25.26ZM548.13,884.38h-48.13c8.24-8.66,15.99-16.79,24.08-25.29,8.13,8.54,15.84,16.67,24.05,25.29ZM420.48,803.17c-6.65-6.99-13.46-13.91-21.1-21.82h48.85v-.15h.04c-.91-1.4-1.66-2.91-2.84-4.08-6.69-6.99-13.54-13.91-21.02-21.51h49.68c-7.37,7.49-14.14,14.37-20.83,21.32-1.13,1.17-1.89,2.68-2.8,4.05h.08s.04.11.08.15h48.17c-1.21,1.63-1.85,2.65-2.61,3.44-6.35,6.5-12.78,13.01-19.09,19.55-.87.95-1.47,2.23-2.19,3.33t.08.08l-.04.04s.08.08.11.11h48.47c-8.28,8.7-16.07,16.82-24.42,25.56-8.2-8.77-16.14-17.17-24.05-25.56h-.26c.04-.08.08-.15.11-.23-7.56-7.6-15.16-15.24-22.61-22.95-.87-.87-1.13-2.23-1.66-3.37h-.23s.08-.11.08-.15c-.72.04-1.47.15-2.19.23.04.04.08.11.11.15h-.15c.04.42.11,1.02-.08,1.25-8.24,8.24-16.56,16.45-24.84,24.61.04.04.08.11.11.15h-.11c-.11.6-.04,1.32-.38,1.66-7.71,7.9-15.46,15.73-23.59,23.93-8.17-8.36-16.03-16.48-24.92-25.6h48.89v-.15c-.91-1.36-1.66-2.87-2.84-4.05ZM398.71,833.57c-8.28,8.73-16.07,16.9-24.2,25.48-8.05-8.39-15.88-16.48-24.54-25.48h48.74ZM398.33,884.19h-47.79c8.17-8.54,15.92-16.6,23.97-25.03,7.83,8.24,15.62,16.41,23.82,25.03ZM299.65,807.56c16.75,17.39,33.2,34.41,49.76,51.53-16.6,17.2-33.08,34.33-49.76,51.65-16.52-17.17-33.05-34.25-49.79-51.65,16.56-17.13,32.89-34.03,49.79-51.53ZM224.86,859.09c-8.13-8.51-15.92-16.64-24.31-25.41h48.51c-8.2,8.62-15.92,16.71-24.2,25.41ZM248.95,884.38h-48.17c8.24-8.62,16.03-16.71,24.08-25.18,7.9,8.24,15.65,16.37,24.08,25.18ZM121.15,803.13c-6.28-6.54-12.63-12.97-18.98-19.47-.38-.42-.68-.98-1.51-2.27h48.24c.04-.08.04-.11.08-.19h.08c-.95-1.4-1.7-2.87-2.84-4.05-6.69-6.99-13.5-13.91-20.91-21.48h49.04c-.98,1.17-1.7,2.23-2.61,3.14-6.35,6.5-12.74,12.97-19.09,19.51-.79.83-1.21,2.04-1.81,3.1h.04s.04.08.08.11h48.51c-1.21,1.44-2,2.53-2.91,3.48-6.35,6.5-12.78,12.97-19.09,19.51-.68.72-1.02,1.78-1.47,2.68l.04.04v.15h48.85c-8.77,9-16.67,17.17-24.88,25.63-8.17-8.24-15.92-16.07-23.59-23.97-.34-.34-.26-1.06-.38-1.66h-.11c.04-.08.08-.11.08-.19-3.71-3.36-7.49-6.62-11.04-10.13-4.35-4.31-8.54-8.81-12.7-13.27-.57-.61-.87-1.51-1.29-2.27h-.19s.04-.08.08-.11c-.6-.08-1.17-.15-1.78-.23.04.08.08.11.11.19h-.26c-.42.95-.64,1.97-1.32,2.65-7.68,7.9-15.43,15.65-23.18,23.48.04.04.08.11.11.15h-.23c-1.74,2-3.44,4.16-5.29,6.09-3.06,3.18-6.35,6.09-9.41,9.26-3.02,3.14-5.82,6.47-9.23,10.25-8.28-8.54-16.14-16.71-24.73-25.6h48.66s.04-.04.08-.08v-.04l.04-.04c-1.06-1.47-1.97-3.06-3.25-4.39ZM99.34,833.83c-8.28,8.66-16.03,16.67-24.2,25.22-7.94-8.32-15.69-16.45-24.01-25.22h48.21ZM99.11,884.19h-47.83c8.13-8.51,15.92-16.6,23.97-25.03,8.05,8.43,15.73,16.48,23.86,25.03ZM76.05,910.28c8.2-8.58,15.96-16.71,24.12-25.29,8.02,8.43,15.77,16.56,24.12,25.29h-48.24ZM150.08,910.77c-16.52-17.17-33.05-34.29-49.79-51.68,16.41-17.01,32.82-34.03,49.76-51.57,16.79,17.43,33.23,34.44,49.76,51.57v.04c-16.52,17.17-33.04,34.29-49.72,51.65ZM175.82,910.28c8.24-8.62,15.96-16.71,24.05-25.22,8.02,8.36,15.8,16.48,24.12,25.22h-48.17ZM375.19,910.47c8.24-8.7,15.96-16.82,24.12-25.48,8.09,8.43,15.88,16.67,24.31,25.48h-48.43ZM449.22,910.7h-.04c-16.64-17.32-33.16-34.48-49.68-51.61,16.45-17.09,32.82-34.03,49.76-51.57,16.71,17.35,33.16,34.37,49.79,51.61-16.52,17.09-33.04,34.22-49.83,51.57ZM475.12,910.43c7.86-8.39,15.77-16.71,24.01-25.48,8.09,8.51,15.84,16.64,24.27,25.48h-48.28ZM674.45,910.4c8.36-8.81,16.07-16.9,24.16-25.41,8.09,8.51,15.88,16.67,24.2,25.41h-48.36ZM748.51,910.77c-16.82-17.47-33.31-34.59-49.76-51.68,16.41-17.01,32.74-33.99,49.72-51.57,16.67,17.28,33.08,34.29,49.76,51.57-16.52,17.17-33.08,34.37-49.72,51.68ZM774.11,910.59c8.32-8.81,16.07-16.98,24.2-25.56,8.09,8.47,15.88,16.6,24.42,25.56h-48.62Z"
          style="fill: rgb(29, 29, 27);"></path>
        <path class="cls-1"
          d="M797.36,67.38c-.04.49.11,1.13-.15,1.4l-6.47,6.58c-5.67,5.82-11.42,11.64-17.32,17.62-5.94-6.01-11.68-11.87-17.39-17.69-2.16-2.16-4.27-4.35-6.39-6.5-.26-.26-.11-.91-.15-1.4h-2c-.42.87-.6,1.89-1.25,2.53-1.78,1.81-3.55,3.63-5.33,5.44-5.71,5.82-11.53,11.72-17.66,17.96-5.71-6.28-11.27-12.33-16.75-18.38-2.31-2.53-4.61-5.03-6.92-7.56h-201.44c-1.21,1.66-2.23,3.48-3.67,4.92-.95,1.02-1.93,2-2.95,3.02-4.88,5.1-9.91,10.17-14.86,15.27-.79.83-1.25,1.97-1.81,3.02-6.05-6.09-12.06-12.17-18.07-18.3-1.59-1.59-3.14-3.18-4.69-4.76-.87-.87-1.25-2.12-1.85-3.18h-2c-.68,1.13-1.21,2.38-2.12,3.33-1.36,1.4-2.72,2.8-4.08,4.2-5.78,5.94-11.68,11.95-18,18.34-5.52-6.05-10.96-11.99-16.41-17.88-2.42-2.68-4.84-5.33-7.26-7.98h-201.48c-.68,1.13-1.21,2.38-2.12,3.33-1.51,1.55-2.99,3.1-4.54,4.65-5.63,5.78-11.38,11.64-17.54,17.88-5.67-6.2-11.23-12.29-16.79-18.34-2.31-2.53-4.57-5.03-6.88-7.52h-2c-2.27,2.57-4.57,5.18-6.84,7.75-2.31,2.57-4.61,5.14-6.96,7.64-3.1,3.4-6.47,6.62-10.4,10.62-5.75-6.28-11.3-12.36-16.82-18.45-2.27-2.53-4.54-5.03-6.84-7.56H.39v26.13c5.78,6.05,11.53,12.17,17.32,18.19,10.81,11.15,21.7,22.23,32.59,33.39-11.83,12.14-23.48,24.08-35.16,36.07-4.88,4.95-9.83,9.83-14.75,14.75v63.75h897.73v-63.75c-8.81-9.04-17.62-18.03-26.43-27.03-7.75-7.86-15.54-15.73-23.4-23.71,10.51-10.85,21.06-21.63,31.49-32.48,5.6-5.82,11-11.83,16.56-17.69.38-.38,1.17-.38,1.78-.53v-27.07h-100.76ZM822.62,93.69c-8.32,8.73-16.07,16.86-24.24,25.45-8.05-8.39-15.88-16.6-24.39-25.45h48.62ZM847.31,119.82c-8.09,8.54-15.84,16.67-23.93,25.18-8.09-8.39-15.88-16.52-24.16-25.18h48.09ZM748.48,93.46c16.56,17.17,33.04,34.29,49.72,51.57-16.41,17.09-32.78,34.07-49.72,51.65-16.79-17.47-33.23-34.48-49.72-51.61v-.04c16.75-17.35,33.16-34.41,49.72-51.57ZM722.95,93.69c-8.36,8.77-16.11,16.9-24.27,25.45-8.28-8.58-15.99-16.67-24.42-25.45h48.7ZM697.55,119.97c-8.13,8.54-15.8,16.64-23.78,25.03-7.94-8.28-15.69-16.41-23.97-25.03h47.75ZM523.32,93.8c-8.24,8.62-16.03,16.75-24.24,25.33-8.17-8.62-16.11-16.98-24.05-25.33h48.28ZM547.98,119.93c-8.13,8.51-15.88,16.64-23.97,25.07-7.9-8.28-15.65-16.45-23.9-25.07h47.87ZM449.3,93.5c16.6,17.2,33.08,34.33,49.68,51.53-16.56,17.2-32.82,34.14-49.64,51.65-16.75-17.35-33.16-34.37-49.83-51.65,16.52-17.13,33.12-34.29,49.79-51.53ZM423.47,93.88c-8.17,8.58-15.92,16.71-24.12,25.33-8.13-8.62-15.84-16.67-24.05-25.33h48.17ZM398.44,119.85c-8.17,8.58-15.96,16.75-24.01,25.18-7.98-8.39-15.77-16.52-24.01-25.18h48.02ZM224.26,93.69c-8.39,8.77-16.14,16.86-24.31,25.41-8.05-8.36-15.92-16.52-24.46-25.41h48.77ZM248.91,119.7c-8.2,8.66-15.92,16.79-23.97,25.29-7.98-8.32-15.84-16.56-24.2-25.29h48.17ZM150.04,93.46c16.48,17.13,33.01,34.22,49.76,51.53-16.52,17.17-32.86,34.1-49.79,51.68-16.75-17.43-33.16-34.48-49.68-51.65,16.56-17.13,33.04-34.29,49.72-51.57ZM124.52,93.61c-8.39,8.81-16.18,16.94-24.31,25.48-8.09-8.39-15.88-16.48-24.54-25.48h48.85ZM99.3,119.82c-8.28,8.62-16.03,16.75-24.05,25.14-7.94-8.28-15.73-16.41-24.12-25.14h48.17ZM75.1,145.07c8.17,8.54,15.92,16.64,24.5,25.6h-48.55c8.24-8.81,15.99-17.05,24.05-25.6ZM100.13,171.16c8.2,8.39,16.14,16.52,24.88,25.52h-49.61c8.54-8.81,16.45-16.94,24.73-25.52ZM125.2,248.52c7.26-7.41,13.95-14.18,20.53-21.02,1.36-1.44,2.38-3.21,3.59-4.84l-.04-.04s-.08-.08-.11-.11h-48.66c8.28-8.58,16.14-16.75,25.07-26.01,3.44,3.82,6.62,7.26,9.75,10.74,4.61,5.1,9.23,10.17,13.84,15.27h.23v.04s-.04.08-.08.11c8.32,8.39,16.6,16.79,25.56,25.86h-49.68ZM178.85,200.99c6.31,6.58,12.7,13.04,19.06,19.55.42.45.68.98,1.36,2h-49.3c9.19-9,17.58-17.28,26.01-25.6,0-.04-.04-.11-.08-.15h.15c.11-.57.04-1.32.34-1.66,7.71-7.9,15.5-15.73,23.59-23.9,8.13,8.36,15.99,16.45,24.92,25.56h-48.85v.15l-.04-.04-.04.04c.98,1.36,1.74,2.87,2.87,4.05ZM200.59,170.44c8.32-8.77,16.07-16.9,24.2-25.45,8.13,8.54,15.88,16.67,24.2,25.45h-48.4ZM299.69,196.64c-16.75-17.32-33.2-34.33-49.79-51.53,16.48-17.13,33.01-34.29,49.76-51.68,16.67,17.35,33.2,34.52,49.72,51.68-16.41,17.01-32.74,33.95-49.68,51.53ZM374.4,145.03c8.09,8.43,15.96,16.6,24.61,25.52h-48.92c8.39-8.77,16.11-16.9,24.31-25.52ZM511.34,183.86c3.86,4.08,8.13,7.79,12.21,11.65-.23.42-.42.87-.6,1.29h-47.64s-.04.08-.04.11l-.04.04c.95,1.36,1.7,2.87,2.87,4.05,6.65,6.99,13.42,13.95,21.32,22.04h-48.89v.11h-.04c.91,1.36,1.66,2.87,2.76,4.05,6.62,6.88,13.35,13.69,20.72,21.17h-49.08c5.86-6.09,11.49-11.95,17.05-17.88,2.23-2.38,4.23-4.99,6.31-7.52h-.04v-.11h-48.55c1.47-1.7,2.23-2.76,3.18-3.71,6.31-6.5,12.74-12.97,19.06-19.51.68-.72.98-1.74,1.44-2.65l-.08-.08v-.11h-48.77c8.73-9,16.67-17.13,24.84-25.56,8.13,8.17,15.88,15.99,23.59,23.9.3.3.26,1.1.34,1.66h.15c-.04.08-.08.11-.08.19,8.24,8.17,16.56,16.41,24.76,24.58.23.23.11.83.11,1.29h.15s-.08.08-.11.11c.72.08,1.51.15,2.23.19-.04-.04-.04-.08-.08-.11h.11c-.04-.61-.26-1.36.04-1.66,8.2-8.2,16.41-16.3,24.65-24.42,0-.04-.04-.11-.08-.15h.15c.38-.91.64-2.04,1.32-2.72,7.71-7.9,15.5-15.69,23.25-23.52t-.04-.08h.19c7.86-8.28,15.77-16.64,24.12-25.48,7.98,8.47,15.77,16.71,24.05,25.48h-48.17l-.08.08h-.04c3.74,4.42,7.41,9.07,11.42,13.31ZM598.9,196.72c-16.94-17.54-33.23-34.48-49.79-51.65,16.52-17.13,33.08-34.29,49.79-51.57,16.52,17.09,33.01,34.22,49.72,51.57-16.41,17.01-32.78,34.03-49.72,51.65ZM673.65,145.07c8.05,8.47,15.84,16.6,24.39,25.56h-48.51c8.24-8.77,15.99-16.94,24.12-25.56ZM698.64,171.12c8.2,8.43,16.07,16.52,24.76,25.45h-49.53c8.58-8.81,16.48-16.94,24.76-25.45ZM777.29,200.99c6.77,7.11,13.65,14.18,21.29,22h-48.85v.15h-.08c.91,1.36,1.66,2.87,2.8,4.05,6.69,6.96,13.46,13.84,20.72,21.29h-49.45c7.45-7.6,14.25-14.48,20.95-21.44,1.13-1.17,1.93-2.68,2.84-4.08h-.08v-.11h-48.81c8.73-8.96,16.64-17.17,24.88-25.67,8.24,8.39,16.07,16.37,23.82,24.39.23.23.15.83.11,1.29h.11l.08-.04s-.08.11-.11.15c.76.08,1.44.15,2.16.19,0-.04-.04-.11-.08-.15h.15c-.04-.57-.19-1.36.08-1.63,8.17-8.2,16.41-16.33,24.65-24.46-.04-.04-.08-.11-.11-.15h.11c.11-.57.04-1.32.38-1.66,7.71-7.86,15.46-15.69,23.55-23.86,8.17,8.32,16.03,16.45,24.95,25.52h-48.89v.15c.91,1.4,1.7,2.87,2.84,4.08ZM799.14,170.33c8.17-8.58,15.92-16.67,24.16-25.29,7.98,8.43,15.77,16.56,24.08,25.29h-48.24Z"
          style="fill: rgb(29, 29, 27);"></path>
        <path class="cls-1"
          d="M898.12,279.9H.39v4.84c6.5,6.01,12.97,12.02,20.76,19.28-7.45,6.58-14.1,12.48-20.76,18.41v9.64h897.73v-9.64c-6.54-5.86-13.08-11.68-19.96-17.85,7.37-7.33,13.69-13.57,19.96-19.85v-4.84ZM7.42,321.98c6.58-6.47,12.67-12.44,19.21-18.83-6.96-6.43-12.93-11.95-19.55-18.07h61.29c-5.33,5.14-10.21,9.94-15.2,14.71-2.38,2.31-4.42,3.67-.19,6.92,5.48,4.23,9.75,9.91,14.9,15.27H7.42ZM55.71,304.36c6.99-7.26,13.01-13.5,19.4-20.15,6.39,6.58,12.51,12.89,19.43,20.04-6.62,5.6-13.38,11.3-20.19,17.01-5.44-4.92-11.99-10.85-18.64-16.9ZM82.32,322.17c5.48-5.6,10.36-11.12,15.88-15.99,2.57-2.31,2.16-3.4.15-5.29-5.33-5.03-10.59-10.09-16.6-15.8h61.48c-5.29,5.1-9.91,10.06-15.01,14.41-3.78,3.18-3.37,5.33.15,8.32,4.99,4.35,9.6,9.15,15.09,14.37h-61.14ZM130.45,304.59c6.92-7.22,12.97-13.54,19.62-20.45,6.31,6.54,12.44,12.86,18.68,19.36-6.16,6.35-12.33,12.67-18.19,18.68-6.84-5.97-13.5-11.8-20.11-17.58ZM156.96,322.32c6.5-6.62,12.55-12.78,18.94-19.32-6.65-6.2-12.63-11.72-19.32-17.92h59.51c-5.37,5.07-11.27,10.66-17.24,16.33,5.26,9.04,13.16,13.61,18.9,20.91h-60.8ZM205.09,304.55c7.15-7.45,13.2-13.69,19.62-20.42,6.39,6.62,12.55,12.97,19.43,20.11-6.54,5.75-13.2,11.53-19.21,16.79-6.09-5.03-12.89-10.7-19.85-16.48ZM232.01,321.98l.04-.04c5.52-5.6,10.4-11.04,15.88-15.84,2.65-2.34,1.93-3.52,0-5.33-5.33-4.99-10.59-10.06-16.64-15.77h61.78c-5.75,5.48-10.74,10.47-16.03,15.24-2.65,2.38-2.87,4.08-.08,6.58,5.26,4.69,10.25,9.64,15.99,15.16h-60.95ZM279.99,304.55c7.15-7.45,13.16-13.65,19.55-20.34,6.39,6.58,12.59,12.93,19.62,20.15-6.73,5.67-13.46,11.38-19.85,16.79-5.86-5.03-12.55-10.78-19.32-16.6ZM306.26,322.02c5.6-5.29,10.47-10.28,15.73-14.82,3.29-2.84,2.8-4.69-.15-7.3-5.14-4.57-9.98-9.41-15.58-14.78h61.82c-5.97,5.6-11.15,10.51-16.37,15.39-2.19,2.04-3.14,3.18.11,5.86,5.52,4.54,10.02,10.13,15.31,15.65h-60.87ZM355.11,304.25c6.77-7.03,12.89-13.38,19.4-20.11,6.39,6.65,12.4,12.93,19.32,20.15-6.84,5.37-13.8,10.85-20.53,16.11-4.88-4.31-11.53-10.25-18.19-16.14ZM441.58,322.17h-60.68c5.86-5.6,10.89-10.59,16.22-15.31,2.8-2.5,2.61-4.23-.08-6.62-5.26-4.69-10.25-9.64-16.3-15.35h60c-5.78,5.56-11.95,11.46-19.36,18.53,7.86,6.62,14.44,12.17,21.02,17.73l-.83,1.02ZM448.54,321.98c-5.82-5.97-11.91-12.21-18-18.49,6.05-6.28,12.1-12.63,18.53-19.32,6.47,6.65,12.63,13.04,19.55,20.11-6.54,5.78-13.16,11.61-20.04,17.69h-.04ZM455.46,322.17c7.18-6.47,13.54-12.17,20.11-18.19-6.73-6.39-12.93-12.33-19.85-18.94h60.23c-6.01,5.67-12.21,11.53-19.21,18.11,7.6,6.84,13.95,12.51,21.21,19.02h-62.5ZM505.37,303.6c6.12-6.31,12.29-12.63,18.83-19.4,6.47,6.77,12.48,13.04,19.24,20.08-6.58,5.71-13.23,11.53-20.11,17.51-5.52-5.6-11.72-11.91-17.96-18.19ZM531.23,322.02c5.52-5.56,10.47-11.04,15.99-15.92,2.65-2.38,1.78-3.55-.11-5.33-5.33-4.99-10.59-10.02-16.64-15.77h60.68c-6.01,5.67-11.99,11.23-18.68,17.62,6.84,6.88,12.89,12.93,19.32,19.4h-60.57ZM579.24,304.59c6.99-7.3,13.08-13.61,19.59-20.42,6.43,6.62,12.59,13.01,19.7,20.38-6.88,5.67-13.72,11.19-19.7,16.07-5.86-4.8-12.7-10.4-19.59-16.03ZM605.75,322.13c6.58-6.43,12.7-12.44,19.06-18.68-6.81-6.39-12.74-11.95-19.51-18.3h61.85c-5.94,5.63-11.15,10.59-16.37,15.54-2.12,1.97-2.8,3.02.19,5.52,5.52,4.69,10.17,10.32,15.54,15.92h-60.76ZM654.14,304.36c6.88-7.11,13.04-13.42,19.55-20.08,6.54,6.77,12.67,13.04,19.47,20.11-6.62,5.78-13.27,11.57-19.28,16.79-6.2-5.29-12.89-11-19.74-16.82ZM680.34,322.13c6.99-6.28,13.38-12.06,20-18.07-6.96-6.58-13.16-12.4-20.08-18.9h61.59v.04c-5.67,5.37-10.47,10.32-15.69,14.78-3.59,3.1-2.5,4.99.49,7.6,5.07,4.42,9.79,9.23,15.43,14.56h-61.74ZM729,304.4c7.07-7.3,13.12-13.57,19.58-20.27,6.35,6.62,12.36,12.93,18.56,19.36-6.09,6.31-12.21,12.63-18.34,18.9-6.69-6.09-13.2-12.02-19.81-18ZM755.32,322.24c6.58-6.5,12.67-12.51,19.4-19.13-6.81-6.31-12.85-11.91-19.55-18.11h61.51c-5.71,5.52-10.74,10.55-15.99,15.27-2.76,2.46-2.76,4.16,0,6.62,5.22,4.69,10.17,9.68,16.07,15.35h-61.44ZM803.52,304.59c7.11-7.33,13.2-13.69,19.66-20.42,6.39,6.62,12.51,12.89,19.09,19.7-6.54,5.78-13.16,11.64-19.32,17.09-5.82-4.92-12.63-10.62-19.43-16.37ZM870.9,303.53c7.11,6.54,13.38,12.36,20.23,18.6h-60.68c5.41-5.56,10.17-11.19,15.77-15.96,3.02-2.57,1.93-3.71-.04-5.6-5.22-4.92-10.4-9.91-16.33-15.58v-.04h61.25c-6.81,6.24-13.12,12.02-20.19,18.56Z"
          style="fill: rgb(29, 29, 27);"></path>
        <path class="cls-1"
          d="M898.12,673.07H.39v8.7c6.58,5.86,13.12,11.76,20.79,18.56-7.68,7.07-14.25,13.12-20.79,19.13v4.8h897.73v-4.8c-6.54-5.9-13.04-11.83-20.72-18.79,7.56-6.92,14.14-12.93,20.72-18.9v-8.7ZM7.01,719.31c5.6-5.44,10.36-10.44,15.58-14.97,3.37-2.95,3.02-4.88-.15-7.64-5.14-4.46-9.91-9.34-15.54-14.71h60.42c-6.16,5.86-12.4,11.72-19.09,18.07,7.18,6.69,13.5,12.51,20.72,19.24H7.01ZM56.16,700.18c6.5-5.78,13.12-11.64,19.24-17.13,6.01,5.07,12.74,10.85,19.47,16.56-6.96,7.26-13.04,13.61-19.58,20.49-6.47-6.77-12.51-13.01-19.13-19.93ZM82.02,719.01c5.56-5.33,10.59-10.32,15.8-15.12,2.27-2.04,3.02-3.63.3-5.94-5.56-4.73-10.96-9.64-16.45-14.48.45-.53.91-1.06,1.4-1.59h60.08c-6.58,6.58-12.67,12.67-18.94,18.98,6.69,6.2,12.7,11.72,19.62,18.15h-61.82ZM130.45,699.88c6.77-5.86,13.54-11.72,19.47-16.82,6.31,5.22,13.12,10.81,19.89,16.37-7.15,7.41-13.2,13.69-19.77,20.57-6.39-6.54-12.59-12.93-19.58-20.11ZM156.5,719.27c5.82-5.6,10.81-10.62,16.11-15.35,2.68-2.42,2.84-4.12.04-6.62-5.26-4.65-10.25-9.64-15.99-15.12h61.55c-5.37,5.1-10.13,9.75-15.01,14.22-3.18,2.87-4.01,5.18-.11,8.43,5.14,4.2,9.64,9.07,15.2,14.44h-61.78ZM205.43,699.95c6.65-5.75,13.31-11.53,19.36-16.75,6.05,4.99,12.82,10.66,19.7,16.37v.04c-7.18,7.45-13.23,13.76-19.62,20.42-6.47-6.65-12.55-12.97-19.43-20.08ZM231.59,719.01c6.47-6.12,12.29-11.61,19.13-18.03-6.28-6.28-12.33-12.36-18.83-18.9h59.44c-5.9,5.63-12.17,11.61-18.68,17.81,7.3,6.84,13.46,12.67,20.34,19.13h-61.4ZM280.37,700.1c6.65-5.82,13.35-11.65,19.47-16.98,5.97,5.1,12.67,10.81,19.4,16.6-6.92,7.22-13.08,13.57-19.58,20.38-6.47-6.69-12.55-13.01-19.28-20ZM306.91,719.05c6.58-6.05,12.89-11.87,19.96-18.38-7.11-6.58-13.42-12.4-20.23-18.64h60.76c-6.39,6.47-12.48,12.59-18.79,18.98,6.69,6.2,12.67,11.76,19.47,18.03h-61.17ZM355.72,700.67c6.09-6.24,12.17-12.48,18.19-18.64,6.65,5.94,13.35,11.87,20,17.81-6.81,7.07-12.93,13.38-19.47,20.19-6.5-6.73-12.51-12.97-18.72-19.36ZM381.13,719.01c5.78-5.52,10.7-10.44,15.96-15.12,2.84-2.5,2.61-4.23-.08-6.62-5.22-4.69-10.25-9.6-16.03-15.12h59.93c-5.94,5.52-12.25,11.42-18.87,17.54,7.49,7.03,13.69,12.85,20.57,19.32h-61.48ZM429.6,699.54c6.73-5.44,13.57-10.96,20.49-16.56,5.37,4.88,11.99,10.81,18.68,16.82-6.96,7.26-12.97,13.5-19.43,20.19-6.39-6.62-12.51-12.97-19.74-20.45ZM455.87,719.01l-.04.04v-.04h.04c5.94-5.63,11.04-10.62,16.37-15.46,2.46-2.23,2.31-3.78-.08-5.9-5.33-4.8-10.47-9.83-16.45-15.46h61.1c-5.41,5.56-10.4,11.08-15.84,16.14-2.38,2.19-1.89,3.33.11,5.18,5.29,4.88,10.47,9.87,16.41,15.5h-61.63ZM505.33,700.6c6.2-6.28,12.44-12.59,18-18.22,6.88,5.97,13.54,11.76,20.11,17.51-6.73,7.03-12.78,13.31-19.32,20.11-6.31-6.54-12.44-12.86-18.79-19.4ZM532.17,719.31c6.12-5.86,12.4-11.8,18.9-18-7.26-6.88-13.42-12.74-20.23-19.13h61.29c-4.46,4.27-8.51,8.02-12.4,11.87-7.83,7.75-7.83,5.33.19,13.27,3.59,3.59,7.26,7.11,10.89,10.62.23.23.34.49.87,1.36h-59.51ZM579.17,699.57c6.81-5.63,13.61-11.3,19.85-16.48,5.94,5.03,12.67,10.74,19.47,16.48v.04c-7.11,7.37-13.12,13.61-19.58,20.38-6.35-6.58-12.55-13.01-19.74-20.42ZM666.17,719.05h-60.34c4.76-4.65,9.19-8.96,13.65-13.27,5.33-5.18,5.37-5.22.08-10.25-4.46-4.27-9-8.47-14.29-13.46h61.48c-6.69,6.28-12.89,12.02-19.28,18.03,6.77,6.28,13.08,12.06,19.4,17.88-.23.34-.45.72-.68,1.06ZM654.26,699.88c6.35-5.94,12.74-11.87,19.47-18.19,6.31,6.39,12.51,12.67,18.64,18.87-6.05,6.31-12.1,12.63-18.56,19.4-6.43-6.58-12.63-12.97-19.55-20.08ZM681.74,719.12c6.09-5.75,12.4-11.68,18.98-17.88-7.49-6.73-13.8-12.44-20.15-18.15l.76-1.02h60.23c-4.12,4.05-7.86,7.71-11.61,11.38-4.92,4.76-4.92,9.53,0,14.29,3.74,3.59,7.56,7.11,12.1,11.38h-60.3ZM729.16,700.1c6.77-5.71,13.61-11.46,19.77-16.64,5.67,4.76,12.4,10.47,19.13,16.14-6.92,7.22-12.97,13.5-19.58,20.38-6.28-6.47-12.44-12.82-19.32-19.89ZM755.28,719.12c5.52-5.37,10.44-10.44,15.69-15.09,2.99-2.65,2.84-4.42-.08-6.96-5.22-4.57-10.13-9.45-16.22-15.2h62.04c-5.71,5.52-10.62,10.59-15.92,15.27-2.99,2.65-2.8,4.39.08,6.92,5.26,4.61,10.21,9.53,16.07,15.05h-61.67ZM803.83,699.88c6.62-5.78,13.27-11.65,20.15-17.66,5.63,5.75,11.8,12.02,18.03,18.41-6.09,6.24-12.17,12.59-18.79,19.4-6.5-6.77-12.59-13.12-19.4-20.15ZM870.94,699.73c7.45,6.99,13.65,12.82,20.53,19.28h-61.97c6.92-6.39,12.89-11.95,19.7-18.22-6.31-6.24-12.4-12.21-18.94-18.68h59.96c-6.24,5.71-12.63,11.53-19.28,17.62Z"
          style="fill: rgb(29, 29, 27);"></path>
        <rect class="cls-1" x=".41" y="648.91" width="897.71" height="10.62"
          style="fill: rgb(29, 29, 27);"></rect>
        <rect class="cls-1" x=".41" y="345.59" width="897.71" height="9.65"
          style="fill: rgb(29, 29, 27);"></rect>
        <rect class="cls-1" x=".41" y="274.11" width="897.71" height="4.82"
          style="fill: rgb(29, 29, 27);"></rect>
        <rect class="cls-1" x=".41" y="725.23" width="897.71" height="2.9"
          style="fill: rgb(29, 29, 27);"></rect>
        <rect class="cls-1" x=".41" y="266.39" width="897.71" height="2.9"
          style="fill: rgb(29, 29, 27);"></rect>
        <rect class="cls-1" x=".41" y="731.98" width="897.71" height="2.9"
          style="fill: rgb(29, 29, 27);"></rect>
        <rect class="cls-1" x=".41" y="335.94" width="897.71" height="1.93"
          style="fill: rgb(29, 29, 27);"></rect>
        <rect class="cls-1" x=".41" y="667.27" width="897.71" height="1.93"
          style="fill: rgb(29, 29, 27);"></rect>
        <path class="cls-1"
          d="M512.44,578.1h77.13c-25.52-25.94-50.32-51.08-75.47-76.68v-.04c24.92-25.37,49.72-50.59,75.39-76.75h-77.32c10.02-10.28,19.21-19.74,28.89-29.64h-56.18c7.71-7.83,14.93-15.12,22.84-23.1h-116.9c7.98,8.05,15.2,15.31,23.21,23.4h-56.34c9.75,10.02,18.83,19.32,28.89,29.64h-76.98c10.09,10.51,19.58,20.53,29.19,30.4,14.25,14.59,28.62,29.15,43.03,43.63,1.89,1.93,1.97,3.25.04,5.22-11.95,12.06-23.74,24.31-35.69,36.37-10.25,10.4-20.64,20.61-30.89,30.97-1.93,1.93-3.52,4.16-6.05,7.18h76.79c-9.57,9.68-18.49,18.64-28.39,28.7h56.22c-8.17,8.39-15.54,15.96-23.18,23.82h117.28c-7.79-7.98-15.16-15.54-23.37-23.9h56.26c-9.53-9.83-18.45-18.98-28.39-29.23ZM458.1,596.51c-.3.38-.57.79-.87,1.17,7.41,7.37,14.78,14.78,22.84,22.87h-61.51c7.94-7.98,15.31-15.31,23.63-23.67h-52.33c11.65-11.95,22.38-22.99,33.91-34.78h-73.42c20.45-20.87,39.89-40.68,59.44-60.65-19.7-20.15-39.09-40-59.02-60.38h73.58c-11.87-12.06-22.95-23.37-34.94-35.58h52.06c-7.68-7.9-14.63-15.16-22.04-22.8h59.74c-7.33,7.6-14.29,14.78-21.66,22.46h50.17c.23.34.45.76.68,1.13-11.04,11.34-22.08,22.69-33.65,34.56h73.12c-19.85,20.38-39.21,40.15-59.17,60.61,19.51,19.77,39.06,39.62,59.51,60.38h-73.54c11.76,12.1,22.42,23.06,33.69,34.67h-50.21Z"
          style="fill: rgb(29, 29, 27);"></path>
        <path class="cls-1"
          d="M811.28,578.28h76.94c-1.51-1.74-2.38-2.8-3.33-3.78-15.12-15.54-30.25-31.08-45.41-46.54-7.79-7.94-15.58-15.84-23.48-23.63-1.85-1.85-2.19-3.18-.19-5.22,8.73-8.96,17.24-18.11,26.01-27,11.04-11.19,22.31-22.19,33.35-33.39,4.27-4.31,8.28-8.89,13.01-14.06h-76.6c9.83-10.13,18.87-19.51,28.73-29.68h-56.18c7.68-7.83,14.82-15.09,22.57-23.03h-116.68c7.98,8.05,15.16,15.27,22.95,23.06l-.04.04h-56.22c9.72,9.91,18.87,19.36,28.96,29.68h-77.32c25.67,26.16,50.51,51.46,75.28,76.71-25.22,25.63-50.02,50.81-75.69,76.9h77.21c-9.75,10.06-18.72,19.28-28.55,29.38h56.07c-7.75,7.94-15.16,15.54-22.76,23.37h117.06c-7.64-7.86-14.97-15.39-23.1-23.74h56.34c-9.98-10.06-18.98-19.09-28.92-29.07ZM755.62,596.81c8.2,8.24,15.58,15.62,23.55,23.63h-61.21c7.71-7.79,15.05-15.24,23.29-23.59h-52.06c11.53-11.87,22.27-22.95,33.73-34.75h-72.52c.72-1.32.95-2.08,1.44-2.57,8.13-8.2,16.3-16.37,24.39-24.65,10.25-10.44,20.23-21.1,30.74-31.27,2.53-2.5,1.21-3.29-.3-4.8-4.61-4.8-9.15-9.68-13.84-14.37-9.87-9.98-19.85-19.81-29.68-29.79-4.23-4.23-8.24-8.73-12.82-13.57h73.05l.08-.04c-11.8-12.02-22.84-23.29-34.71-35.39h52.02c-7.71-8.02-14.75-15.31-22.19-23.06h59.93c-7.37,7.64-14.37,14.9-21.82,22.65h50.25l.68,1.06c-11.12,11.34-22.19,22.61-33.95,34.63h73.61c-20,20.45-39.32,40.19-59.21,60.53,19.36,19.74,38.87,39.62,59.1,60.23h-73.27c11.8,12.25,22.65,23.48,33.95,35.12h-52.21Z"
          style="fill: rgb(29, 29, 27);"></path>
        <path class="cls-1"
          d="M286.76,574.58c-6.35-6.69-12.67-13.38-19.13-19.93-11.08-11.15-22.31-22.23-33.39-33.38-5.71-5.71-11.38-11.42-16.79-17.35-.83-.91-.83-3.74-.04-4.61,8.36-9.07,16.86-18,25.52-26.81,10.66-10.85,21.63-21.51,32.33-32.33,4.76-4.84,9.26-9.91,14.59-15.62h-76.83c9.64-9.87,18.83-19.28,28.89-29.6h-56.18c7.6-7.83,14.71-15.16,22.34-22.99h-116.53c8.02,8.02,15.2,15.24,22.99,23.06h-56.26c9.72,9.94,18.87,19.4,29,29.76H9.92c25.63,26.09,50.47,51.38,75.13,76.45-5.1,5.44-9.75,10.62-14.67,15.62-11,11.12-22.16,22.12-33.2,33.2-7.49,7.49-14.9,15.01-22.31,22.57-1.59,1.59-2.99,3.33-5.22,5.82h76.98c-9.68,10.02-18.64,19.17-28.32,29.15h55.88c-7.9,8.17-15.16,15.69-22.84,23.67h117.32c-7.71-7.94-15.09-15.54-23.29-24.01h56.18c-9.87-9.94-18.75-18.94-28.32-28.7h76.52c-1.36-1.81-2.08-3.02-3.02-3.97ZM175.3,561.8c11.72,12.02,22.46,23.06,33.91,34.82h-50.4c-.34.45-.64.91-.95,1.36,7.45,7.26,14.9,14.52,23.18,22.57h-61.7c7.9-7.98,15.24-15.39,23.59-23.78h-52.14c11.46-11.83,22.19-22.87,33.91-34.97H52.04c.53-.98.68-1.59,1.06-1.97,6.81-6.99,13.61-13.99,20.49-20.91,10.81-10.85,21.7-21.66,32.52-32.55,1.55-1.55,2.8-3.44,4.2-5.26-19.47-19.93-38.75-39.7-58.68-60.04h73.35c-11.8-12.06-22.84-23.33-34.71-35.46h51.95c-7.71-7.98-14.71-15.24-22.19-23.03h60.15c-7.68,7.9-14.86,15.31-22.31,22.99h52.02c-11.87,12.1-22.99,23.44-34.71,35.35h73.58c-19.93,20.42-39.32,40.23-59.21,60.53,19.43,19.81,38.91,39.66,59.13,60.34h-73.39Z"
          style="fill: rgb(29, 29, 27);"></path>
        <path class="cls-1"
          d="M598.89,449.17c17.26,17.56,33.92,34.51,51.35,52.27-16.86,17.22-33.83,34.53-51.33,52.39-17.18-17.5-34.19-34.81-51.43-52.35,17.2-17.5,34.02-34.64,51.39-52.29l.02-.02Z"
          style="fill: rgb(29, 29, 27);"></path>
        <path class="cls-1"
          d="M299.7,553.77c-17.35-17.65-34.32-34.96-51.41-52.35,17.28-17.56,34.11-34.66,51.37-52.2,17.22,17.5,34.04,34.58,51.39,52.18-16.99,17.33-33.92,34.6-51.35,52.37h0Z"
          style="fill: rgb(29, 29, 27);"></path>
        <path class="cls-1"
          d="M473.97,859.05c-8.18,8.44-16.38,16.91-24.75,25.56-8.16-8.49-16.36-16.99-24.6-25.56,8.2-8.46,16.42-16.97,24.66-25.5,8.22,8.49,16.42,16.97,24.69,25.5h0Z"
          style="fill: rgb(29, 29, 27);"></path>
        <path class="cls-1"
          d="M324.53,859.07c-8.31,8.74-16.42,17.27-24.87,26.13-8.56-8.93-16.72-17.48-24.94-26.07,8.35-8.78,16.48-17.31,24.92-26.18,8.37,8.78,16.48,17.31,24.9,26.11h0Z"
          style="fill: rgb(29, 29, 27);"></path>
        <path class="cls-1"
          d="M573.91,859.22c8.35-8.78,16.48-17.33,24.92-26.2,8.37,8.72,16.53,17.22,25.04,26.09-8.16,8.55-16.3,17.03-24.94,26.09-8.47-8.8-16.74-17.37-25.02-26.01v.02Z"
          style="fill: rgb(29, 29, 27);"></path>
        <path class="cls-1"
          d="M449.18,170.53c-8.41-8.7-16.44-16.97-24.66-25.48,8.12-8.4,16.3-16.84,24.66-25.5,8.26,8.51,16.55,17.06,24.81,25.58-8.33,8.55-16.57,16.99-24.79,25.41l-.02-.02Z"
          style="fill: rgb(29, 29, 27);"></path>
        <path class="cls-1"
          d="M573.95,145.07c8.2-8.59,16.36-17.12,24.94-26.09,8.45,8.78,16.61,17.29,24.98,25.99-8.31,8.7-16.42,17.2-24.9,26.07-8.33-8.63-16.59-17.22-25.02-25.96h0Z"
          style="fill: rgb(29, 29, 27);"></path>
        <path class="cls-1"
          d="M299.64,118.92c8.68,9.08,16.82,17.54,25.04,26.13-8.35,8.72-16.51,17.22-25.04,26.11-8.31-8.65-16.44-17.14-25.02-26.09,8.22-8.61,16.4-17.16,25.02-26.15h0Z"
          style="fill: rgb(29, 29, 27);"></path>
        <path class="cls-1"
          d="M545.56,290.78h31.79c-3.7,3.51-6.56,6.6-9.82,9.2-3.39,2.71-2.92,4.78.17,7.28,3.18,2.56,6.08,5.42,10.05,8.97h-31.81c3.2-3.11,5.82-6.14,8.94-8.57,3.91-3.07,3.47-5.44-.15-8.32-3.01-2.41-5.66-5.25-9.17-8.57h0Z"
          style="fill: rgb(29, 29, 27);"></path>
        <path class="cls-1"
          d="M652.57,316.37h-31.56c4.35-4.59,8.37-8.8,12.91-13.59-4.73-4.15-8.77-7.66-13.63-11.89h32.49c-3.2,2.75-5.59,4.57-7.72,6.67-7.21,7.03-7.15,5.1.15,12.25,2.04,2.01,4.29,3.83,7.36,6.58v-.02Z"
          style="fill: rgb(29, 29, 27);"></path>
        <path class="cls-1"
          d="M278.32,290.83c-4.25,3.96-7.55,7.13-10.98,10.18-2.08,1.84-2.02,3.36.04,5.18,3.43,3.03,6.73,6.2,10.87,10.03h-31.43c3.45-3.39,6.48-6.62,9.82-9.54,2.63-2.29,2.59-4.02-.04-6.24-3.32-2.81-6.41-5.92-10.39-9.63h32.11v.02Z"
          style="fill: rgb(29, 29, 27);"></path>
        <path class="cls-1"
          d="M320.88,316.35c4.25-3.94,7.4-7.05,10.77-9.9,2.54-2.16,2.29-3.83-.11-5.86-3.36-2.86-6.54-5.9-10.7-9.69h31.64c-3.36,3.3-6.24,6.5-9.53,9.23-3.09,2.6-2.84,4.51.13,6.94,3.24,2.67,6.16,5.65,10.03,9.25h-32.25l.02.04Z"
          style="fill: rgb(29, 29, 27);"></path>
        <path class="cls-1"
          d="M395.75,316.37c3.74-3.47,6.5-6.43,9.67-8.87,3.85-2.94,3.32-5.23-.17-7.96-3.07-2.41-5.87-5.16-9.74-8.63h31.88c-2.52,2.45-4.67,4.51-6.79,6.6-7.17,7.09-7.13,5.12.17,12.29,2.04,2.01,4.27,3.85,7.34,6.58h-32.36v-.02Z"
          style="fill: rgb(29, 29, 27);"></path>
        <path class="cls-1"
          d="M502.78,290.81c-4.27,3.96-7.57,7.13-11,10.16-2.04,1.82-2.12,3.32-.04,5.16,3.43,3.03,6.71,6.22,10.81,10.03h-32.3c4.18-3.75,7.42-6.77,10.81-9.61,2.4-1.99,2.84-3.62.25-5.84-3.43-2.92-6.64-6.09-10.81-9.95h32.28v.04Z"
          style="fill: rgb(29, 29, 27);"></path>
        <path class="cls-1"
          d="M374.2,311.92c-2.82-2.86-5.53-5.63-8.39-8.55,2.94-2.6,6.08-5.4,9.19-8.17,2.52,2.56,5.38,5.46,8.2,8.32-2.92,2.73-5.78,5.37-9.02,8.4h.02Z"
          style="fill: rgb(29, 29, 27);"></path>
        <path class="cls-1"
          d="M590.79,302.89c2.19-2.31,5.03-5.33,8.07-8.57,2.92,3.11,5.85,6.2,8.62,9.12-2.8,2.84-5.51,5.61-8.07,8.19-2.94-2.98-5.76-5.84-8.6-8.74h-.02Z"
          style="fill: rgb(29, 29, 27);"></path>
        <path class="cls-1"
          d="M450.13,295.38c2.21,2.24,5.09,5.18,7.91,8.04-2.9,2.88-5.66,5.63-8.28,8.25-2.94-2.96-5.8-5.8-9.44-9.44,2.86-1.99,6.43-4.49,9.8-6.86h.02Z"
          style="fill: rgb(29, 29, 27);"></path>
        <path class="cls-1"
          d="M308.49,303.61c-2.82,2.65-5.66,5.31-8.94,8.38-2.44-3-4.96-6.07-8.07-9.9,2.19-1.61,5.64-4.17,9-6.64,2.06,2.09,4.96,5.08,7.99,8.17h.02Z"
          style="fill: rgb(29, 29, 27);"></path>
        <path class="cls-1"
          d="M515.71,303.12c2.54-2.6,5.45-5.57,8.35-8.53,2.86,2.92,5.76,5.88,8.52,8.7-2.84,2.79-5.68,5.59-8.31,8.17-2.82-2.75-5.68-5.54-8.56-8.34h0Z"
          style="fill: rgb(29, 29, 27);"></path>
        <path class="cls-1"
          d="M471.28,712.39c2.23-1.9,4.54-3.7,6.64-5.76,7.19-7.03,7.11-5.08-.17-12.25-2.04-2.01-4.27-3.85-7.32-6.56h30.93c-4.29,4-8.52,7.94-13.25,12.36,5.13,4.72,9.4,8.63,14.32,13.16h-30.38c-.25-.32-.5-.63-.76-.95h-.02Z"
          style="fill: rgb(29, 29, 27);"></path>
        <path class="cls-1"
          d="M247.01,713.23c4.52-4.15,8.7-7.98,13.04-11.98-4.86-4.42-9.15-8.32-13.41-12.23.23-.36.46-.72.69-1.08h29.46c-4.23,3.6-8.6,7.34-13.1,11.17,5.61,5.18,9.86,9.12,14.13,13.03-.23.36-.46.7-.67,1.06h-30.11l-.02.02Z"
          style="fill: rgb(29, 29, 27);"></path>
        <path class="cls-1"
          d="M322.39,687.73h30.26c-3.62,3.55-6.62,6.77-9.9,9.69-2.5,2.22-2.84,3.96-.08,6.22,3.39,2.79,6.54,5.82,10.79,9.65h-31.5c4.63-3.85,9.06-7.55,13.67-11.38-5.57-5.08-9.84-8.99-14.13-12.91.29-.42.61-.85.9-1.27h0Z"
          style="fill: rgb(29, 29, 27);"></path>
        <path class="cls-1"
          d="M621.66,687.69h30.32c-3.72,3.66-6.75,6.9-10.09,9.8-2.63,2.29-2.57,4,.04,6.22,3.32,2.81,6.41,5.9,10.39,9.61h-31.08c4.58-3.94,8.96-7.7,13.71-11.79-5.45-4.97-9.71-8.91-13.98-12.82.23-.36.48-.7.71-1.04l-.02.02Z"
          style="fill: rgb(29, 29, 27);"></path>
        <path class="cls-1"
          d="M426.45,713.51h-29.86c4.79-4.06,9.21-7.79,13.75-11.64-5.47-5.1-9.69-9.06-14.91-13.92h31.79c-3.41,3.36-6.43,6.6-9.74,9.5-2.54,2.24-2.78,3.98-.04,6.22,3.39,2.77,6.56,5.8,9.82,8.72-.27.36-.55.74-.82,1.1v.02Z"
          style="fill: rgb(29, 29, 27);"></path>
        <path class="cls-1"
          d="M562.45,699.77c5.7,5.18,9.92,9.01,14.87,13.48h-31.22c3.41-3.36,6.43-6.58,9.74-9.5,2.54-2.24,2.75-3.96.04-6.22-3.34-2.81-6.41-5.95-10.37-9.63h30.97c-4.56,3.85-8.96,7.58-14.05,11.89l.02-.02Z"
          style="fill: rgb(29, 29, 27);"></path>
        <path class="cls-1"
          d="M374.6,709.74c-2.99-3.05-5.89-6.03-8.56-8.76,2.88-2.75,5.76-5.52,8.41-8.06,2.54,2.48,5.32,5.16,8.35,8.1-2.42,2.58-5.3,5.65-8.18,8.74l-.02-.02Z"
          style="fill: rgb(29, 29, 27);"></path>
        <path class="cls-1"
          d="M448.51,708.79c-2.17-2.2-5.07-5.16-8.1-8.25,2.82-2.69,5.64-5.37,8.87-8.46,2.48,3.13,4.96,6.26,8.01,10.14-2.04,1.52-5.47,4.08-8.81,6.58h.02Z"
          style="fill: rgb(29, 29, 27);"></path>
        <path class="cls-1"
          d="M531.9,701.59c-2.08,2.12-4.98,5.08-7.82,7.98-2.9-2.96-5.8-5.92-8.83-9.01,2.82-2.67,5.64-5.33,8.92-8.4,2.48,3.03,5,6.09,7.76,9.46l-.02-.02Z"
          style="fill: rgb(29, 29, 27);"></path>
        <path class="cls-1"
          d="M599.5,692.6c2.52,2.52,5.28,5.27,8.1,8.08-2.82,2.9-5.72,5.86-8.71,8.91-2.78-2.81-5.68-5.78-8.35-8.49,2.86-2.71,5.72-5.44,8.96-8.51h0Z"
          style="fill: rgb(29, 29, 27);"></path>
        <path class="cls-1"
          d="M307.94,701c-2.4,2.65-5.19,5.73-8.28,9.14-2.96-3.26-5.74-6.31-8.35-9.16,2.75-2.73,5.57-5.52,8.2-8.13,2.67,2.6,5.57,5.37,8.43,8.15h0Z"
          style="fill: rgb(29, 29, 27);"></path>
        <path class="cls-1"
          d="M494.89,457.93c-14.17,14.35-28.34,28.69-42.81,43.32,14.13,14.52,28.26,29.05,42.73,43.91h-100.19c14.4-14.71,28.58-29.22,42.98-43.93-14.05-14.26-27.92-28.38-42.62-43.29h99.94-.02Z"
          style="fill: rgb(29, 29, 27);"></path>
      </g>
      <path class="cls-1"
        d="M870.11,27.11c-7.18-7.26-14.37-14.56-21.63-21.89,1.7-1.74,3.4-3.48,5.1-5.22h-25.03c-1.63,1.7-3.29,3.44-4.95,5.18-1.66-1.74-3.29-3.44-4.95-5.18h-25.18c1.66,1.74,3.37,3.48,5.03,5.22-16.52,17.17-33.01,34.33-49.72,51.68-16.82-17.47-33.31-34.56-49.76-51.68,1.66-1.74,3.36-3.48,5.03-5.22h-25.11c-1.66,1.74-3.33,3.48-4.99,5.26-1.7-1.78-3.37-3.52-4.99-5.26h-25.11c1.66,1.74,3.37,3.48,5.03,5.22-16.48,17.13-32.93,34.29-49.68,51.68-16.71-17.32-33.2-34.41-49.83-51.65,1.7-1.74,3.4-3.52,5.07-5.26h-25.1c-1.63,1.74-3.29,3.48-4.95,5.22,8.09,8.54,15.8,16.67,24.01,25.29h-48.13c8.24-8.66,15.99-16.79,24.08-25.29h.04c-1.66-1.74-3.33-3.48-4.95-5.22h-25.18c1.66,1.74,3.37,3.52,5.07,5.26-16.52,17.09-33.05,34.22-49.83,51.57-16.67-17.28-33.2-34.48-49.68-51.61,1.66-1.74,3.37-3.48,5.03-5.22h-25.14c-1.59,1.7-3.25,3.44-4.92,5.18-1.66-1.74-3.33-3.44-4.99-5.18h-25.18c1.7,1.74,3.4,3.48,5.07,5.22-16.56,17.2-33.08,34.37-49.76,51.65-16.52-17.13-33.04-34.25-49.79-51.65,1.7-1.74,3.37-3.48,5.07-5.22h-25.07c-1.66,1.7-3.33,3.44-4.99,5.22-1.66-1.74-3.33-3.52-4.99-5.22h-25.14c1.7,1.74,3.4,3.48,5.07,5.22v.04c-16.52,17.17-33.04,34.33-49.72,51.65-16.52-17.17-33.04-34.29-49.79-51.68,1.66-1.74,3.37-3.48,5.03-5.22h-25.18c-1.66,1.7-3.29,3.44-4.99,5.18-1.66-1.74-3.29-3.48-4.92-5.18h-25.1c1.7,1.74,3.4,3.48,5.14,5.22-10.55,10.85-21.1,21.59-31.49,32.44-5.63,5.82-11.04,11.83-16.6,17.69-.34.38-1.13.34-1.74.53v27.03h100.72c.42-.83.61-1.85,1.25-2.53,1.78-1.81,3.55-3.63,5.33-5.44,5.71-5.82,11.53-11.68,17.66-17.92,5.63,6.16,11.12,12.14,16.52,18.11,2.38,2.61,4.76,5.18,7.11,7.79h2c.42-.87.61-1.89,1.25-2.53,1.78-1.81,3.55-3.67,5.37-5.48,5.67-5.82,11.46-11.68,17.58-17.88,5.71,6.28,11.27,12.33,16.75,18.34,2.34,2.53,4.65,5.03,6.96,7.56h201.44c.87-1.32,1.47-2.91,2.65-3.93,1.44-1.21,2.87-2.46,4.35-3.63,6.12-5.22,12.36-10.32,18.56-15.5-.53-.79-1.06-1.63-1.55-2.42,1.47,1.4,2.99,2.76,4.42,4.2,4.35,4.42,8.66,8.81,12.97,13.27,1.81,1.81,3.59,3.67,5.37,5.52.61.64.76,1.66,1.13,2.5h2.04c.38-.79.53-1.85,1.13-2.46,1.7-1.7,3.4-3.44,5.07-5.14,6.16-6.2,12.29-12.44,18.45-18.6,4.23,4.88,8.39,9.72,12.67,14.56,1.21,1.36,2.42,2.72,3.63,4.05,2.31,2.57,4.61,5.1,6.88,7.64h201.48c.42-.87.6-1.89,1.25-2.53,1.78-1.81,3.59-3.67,5.37-5.48,5.71-5.82,11.49-11.68,17.62-17.92,5.71,6.28,11.27,12.33,16.79,18.34,2.27,2.53,4.57,5.03,6.88,7.56h1.97c.42-.83.6-1.85,1.25-2.53,1.66-1.7,3.33-3.4,5.03-5.1,5.78-5.94,11.68-11.91,17.92-18.22,5.71,6.24,11.27,12.29,16.79,18.3,2.31,2.53,4.61,5.03,6.92,7.56h100.72v-27.03c-9.41-9.6-18.83-19.17-28.28-28.77ZM75.56,5.29c8.05,8.43,15.69,16.52,23.82,25.03h-47.79c8.09-8.47,15.88-16.6,23.97-25.03ZM76.35,56.45c8.2-8.62,15.92-16.75,24.12-25.33,7.98,8.43,15.77,16.6,24.08,25.33h-48.21ZM374.77,5.33c7.83,8.2,15.62,16.37,23.82,24.99h-47.79c8.2-8.54,15.92-16.6,23.97-24.99ZM225.13,5.33c7.9,8.24,15.69,16.37,24.12,25.22h-48.17c8.24-8.66,15.99-16.75,24.05-25.22ZM176.09,56.41c8.24-8.62,15.96-16.67,24.08-25.22,7.98,8.36,15.77,16.48,24.12,25.22h-48.21ZM375.49,56.6c8.2-8.66,15.92-16.82,24.12-25.48,8.05,8.47,15.84,16.67,24.27,25.48h-48.4ZM674.03,5.29c8.02,8.39,15.73,16.52,23.93,25.14h-47.9c8.05-8.47,15.8-16.6,23.97-25.14ZM475.38,56.56c7.86-8.36,15.77-16.71,24.05-25.48,8.09,8.51,15.8,16.64,24.24,25.48h-48.28ZM674.71,56.52c8.36-8.77,16.07-16.9,24.16-25.41,8.09,8.51,15.88,16.67,24.2,25.41h-48.36ZM823.56,5.37c7.98,8.32,15.77,16.41,24.2,25.22h-48.24c8.24-8.66,16.07-16.86,24.05-25.22ZM774.37,56.71c8.32-8.77,16.07-16.98,24.24-25.52,8.05,8.43,15.84,16.56,24.39,25.52h-48.62Z"
        style="fill: rgb(29, 29, 27);"></path>
      <path class="cls-1"
        d="M474.25,5.18c-8.17,8.47-16.37,16.9-24.76,25.56-8.13-8.47-16.33-16.98-24.58-25.56,1.66-1.74,3.33-3.44,5.03-5.18h39.28c1.66,1.74,3.33,3.44,5.03,5.18Z"
        style="fill: rgb(29, 29, 27);"></path>
      <path class="cls-1"
        d="M324.79,5.22c-8.28,8.73-16.41,17.28-24.84,26.13-8.58-8.92-16.75-17.47-24.95-26.09,1.66-1.78,3.37-3.52,5.03-5.26h39.81c1.63,1.74,3.29,3.48,4.95,5.22Z"
        style="fill: rgb(29, 29, 27);"></path>
      <path class="cls-1"
        d="M624.12,5.26c-8.13,8.54-16.3,17.01-24.92,26.09-8.47-8.81-16.71-17.32-25.03-25.97,1.7-1.81,3.4-3.59,5.1-5.37h39.81c1.66,1.74,3.33,3.48,5.03,5.26Z"
        style="fill: rgb(29, 29, 27);"></path>
    </g>
  </g>
</svg>