<?xml version="1.0" encoding="UTF-8"?>
<svg id="Calque_1" data-name="Calque 1" xmlns="http://www.w3.org/2000/svg" viewBox="0 0 174.57 179.36">
  <path d="M88.04,59.22c-1.15,2.6-1.15,4.84-.04,7.02,1.12,2.21.94,4.29-.07,6.5-2.19,4.78-4.25,9.61-6.31,14.44-.22.52-.14,1.17-.2,1.75.54-.09,1.12-.08,1.62-.28,2.51-.98,5-2.02,7.51-3.02.4-.16.83-.31,1.25-.32.33,0,.85.15.94.37.1.24-.09.79-.33.96-1.1.78-2.2,1.61-3.41,2.16-3.07,1.38-6.21,2.63-9.32,3.92-.27.11-.55.18-.84.23-1.34.25-1.8-.11-1.49-1.42.35-1.49.82-2.98,1.42-4.39,2.13-5.01,4.29-10.01,6.54-14.97.84-1.85,1.02-3.57.07-5.4-1.01-1.97-1.12-4.06-.61-6.2.22-.93.32-1.9.26-2.92-1.67,1.43-2.89,3.04-3.63,5.08-1.2,3.35-2.2,6.85-3.96,9.89-2.25,3.9-5.12,7.45-7.84,11.07-1.41,1.88-3.06,3.6-4.64,5.35-.89.99-.71,1.85-.16,3,1.85,3.85,3.55,7.78,5.27,11.7.11.26-.06.92-.22.97-.34.1-.88.04-1.12-.19-.52-.49-.99-1.07-1.31-1.71-1.04-2.06-1.9-4.23-3.04-6.23-.84-1.47-1.96-2.81-3.08-4.09-.72-.83-1.66-1.46-2.5-2.2-1.45-1.27-1.9-1.15-3.48,0-2.6,1.89-3.22,4.8-4.3,7.51-.38.95-1.01,1.8-1.53,2.7-.75-.68-1.65-1.26-2.24-2.07-1.98-2.74-3.82-5.57-5.76-8.33-1.16-1.65-1.28-3.4-.62-5.23.45-1.27.86-2.58,1.5-3.76,1.74-3.2,2.1-6.57,1.45-10.09-.13-.7-.38-1.38-.57-2.06-.52.53-1.12,1-1.54,1.59-4.92,6.81-10.03,13.45-16.22,19.18-.66.62-1.45,1.13-2.26,1.54-.45.23-1.05.16-1.58.23.15-.5.16-1.12.48-1.48,2.29-2.67,4.77-5.19,6.95-7.94,4.34-5.47,8.54-11.06,12.79-16.6.29-.38.55-.79.85-1.17,1.79-2.32,2.18-2.36,4.1-.07,1.49,1.77,3.15,3.48,4.23,5.49,1.12,2.08,1.76,4.45,2.38,6.75,1.06,3.96,3.12,7.35,5.73,10.43,1.38,1.63,2.56,1.7,3.98.07,3.07-3.52,6.09-7.1,8.96-10.78,3.37-4.31,5.34-9.29,6.86-14.54,1.09-3.78,3.96-6.55,6.88-9.12.85-.75,1.44-.12,1.85.59,1.7,3.02,3.59,5.96,4.99,9.12,1.58,3.58,3.1,7.16,5.3,10.42.28.41.25,1.02.37,1.53-.58-.12-1.3-.07-1.7-.4-2.38-1.93-3.88-4.5-5.04-7.29-.83-2-1.68-3.99-2.56-5.97-.18-.41-.54-.73-1.01-1.34M46.81,68.53c-.15.03-.29.06-.44.1.05.84.09,1.68.14,2.51.17,3.02.62,6.05-.82,8.95-.83,1.68-1.61,3.42-2.13,5.21-.29.98-.34,2.31.1,3.16,1.14,2.16,2.58,4.18,3.99,6.18.84,1.2,1.49,1.08,1.93-.35.71-2.34,1.99-4.23,3.93-5.74,1.65-1.29,1.75-1.89.68-3.68-1.92-3.22-3.15-6.69-3.89-10.36-.48-2.37-1.76-4.32-3.49-5.98"/>
  <path d="M54.19,161.82c.29.5.7,1.48,1.35,2.26,1.21,1.43,2.62,2.7,3.82,4.14.43.52.5,1.34.73,2.02-.74-.14-1.52-.19-2.2-.47-.61-.25-1.08-.79-1.65-1.15-1.17-.73-1.91-.33-2.06,1.06-.11,1-.15,2.03-.4,3-.12.46-.67.82-1.02,1.22-.34-.42-.85-.8-.98-1.28-.24-.87-.24-1.81-.35-2.72-.21-1.73-.94-2.05-2.41-1.06-.76.51-1.49,1.08-2.3,1.49-.32.16-.81-.02-1.22-.05.04-.4-.08-.93.13-1.18,1.32-1.59,2.75-3.1,4.08-4.68.58-.69,1.17-1.45,1.44-2.28.19-.58-.17-1.33-.29-2-.61.15-1.32.14-1.81.47-2.21,1.46-4.33,3.06-6.54,4.52-.47.31-1.18.26-1.77.37.23-.61.29-1.4.71-1.81,2.45-2.39,5.01-4.66,7.47-7.04.85-.83,1.7-1.75,2.23-2.79.29-.57-.12-1.49-.21-2.25-.64.2-1.39.24-1.9.61-1.63,1.19-3.17,2.51-4.75,3.77-.11.09-.21.22-.34.27-.77.27-1.54.53-2.32.79.3-.79.42-1.73.94-2.33,1.58-1.81,3.37-3.44,4.99-5.22,1.2-1.32,2.27-2.75,3.37-4.15.5-.65.82-1.51,0-2.02-.34-.21-1.24.14-1.69.49-1.72,1.32-3.33,2.77-5.05,4.09-.36.27-1,.18-1.52.25.14-.52.14-1.16.46-1.53,2.18-2.58,4.44-5.08,6.63-7.64.55-.65,1.1-1.37,1.4-2.15.18-.48-.11-1.14-.18-1.73-.54.19-1.19.26-1.59.61-1.34,1.17-2.51,2.54-3.9,3.64-.66.52-1.68.59-2.54.86.33-.76.54-1.63,1.02-2.28,1.89-2.56,3.89-5.03,5.81-7.57.55-.72,1.05-1.51,1.41-2.34.15-.34-.13-.86-.22-1.3-.38.11-.86.11-1.13.34-1.24,1.06-2.39,2.23-3.66,3.26-.42.34-1.08.38-1.63.55.05-.66-.13-1.48.19-1.94,1.63-2.32,3.44-4.53,5.11-6.83.59-.81,1.06-1.72,1.42-2.66.15-.4-.13-.96-.22-1.45-.44.18-.95.27-1.3.56-.99.84-1.86,1.82-2.88,2.62-.33.26-.96.15-1.46.2.06-.48-.04-1.07.21-1.41,2.55-3.54,4.61-7.33,6.1-11.45.18-.51.76-.89,1.15-1.33.34.44.8.83.99,1.32,1.51,4.05,3.49,7.82,6.06,11.31.29.39.14,1.1.2,1.66-.52-.11-1.16-.07-1.53-.37-.97-.78-1.79-1.75-2.72-2.58-.32-.28-.79-.39-1.2-.57-.13.48-.48,1.05-.34,1.41.43,1.06.96,2.11,1.63,3.03,1.52,2.11,3.14,4.15,4.71,6.22.26.34.57.71.65,1.1.07.36-.05.88-.29,1.14-.14.15-.77.07-1.02-.12-1.07-.82-2.08-1.72-3.1-2.6-.44-.38-.8-.85-1.27-1.17-.28-.19-.89-.37-1-.25-.24.27-.42.8-.31,1.12.2.63.56,1.23.96,1.76,2.01,2.65,4.06,5.27,6.09,7.91.35.46.75.9,1.01,1.4.18.35.16.79.23,1.2-.44,0-1.01.17-1.3-.04-1.43-1.05-2.79-2.19-4.14-3.34-.44-.37-.73-.92-1.18-1.26-.34-.26-1.07-.55-1.2-.41-.31.32-.61.97-.48,1.34.29.84.73,1.69,1.31,2.36,2.14,2.49,4.38,4.88,6.51,7.37.43.51.53,1.3.79,1.96-.68-.18-1.5-.17-2.02-.56-1.58-1.18-3.02-2.55-4.58-3.75-.44-.33-1.14-.31-1.72-.45.02.66-.21,1.52.11,1.93,1.76,2.23,3.64,4.36,5.52,6.48,1.05,1.19,2.25,2.26,3.24,3.5.38.48.39,1.25.57,1.89-.61-.15-1.33-.14-1.8-.48-1.86-1.37-3.63-2.87-5.47-4.27-.64-.49-1.47-1.53-2.18-.62-.42.54-.33,2,.11,2.6,1.11,1.49,2.53,2.76,3.89,4.06,1.88,1.8,3.85,3.5,5.71,5.32.37.37.43,1.06.63,1.6-.6-.04-1.34.14-1.78-.15-1.95-1.24-3.81-2.62-5.7-3.95-.47-.33-.91-.73-1.4-1.01-1.08-.61-1.8-.2-1.85,1.56"/>
  <path d="M123.24,117.95c.15.83.08,1.8.5,2.45,1.42,2.18,3.01,4.24,4.54,6.34.57.78,1.24,1.49,1.7,2.33.26.47.17,1.13.24,1.71-.56-.11-1.25-.04-1.65-.35-1.21-.95-2.27-2.09-3.46-3.06-.42-.35-1.05-.45-1.58-.66.03.63-.15,1.39.14,1.86.88,1.43,1.91,2.78,2.93,4.12,1.57,2.07,3.21,4.1,4.76,6.19.25.34.18.93.26,1.41-.44-.05-1.01.06-1.3-.18-1.6-1.3-3.13-2.68-4.69-4.02-.57-.49-1.07-1.69-1.91-.92-.4.37-.33,1.84.08,2.39,1.88,2.44,3.95,4.72,5.96,7.06.69.8,1.43,1.57,2.06,2.42.2.27.08.76.11,1.16-.39,0-.91.15-1.16-.05-1.67-1.3-3.24-2.72-4.93-3.99-.61-.46-1.79-1.07-2.13-.82-1.05.77-.29,1.77.32,2.48,2.08,2.4,4.25,4.73,6.36,7.1.89,1,1.75,2.04,2.58,3.1.16.21.2.82.08.89-.28.17-.78.27-1.02.12-1.18-.74-2.32-1.54-3.43-2.38-1.23-.93-2.38-1.97-3.65-2.85-1.09-.76-1.85-.34-1.66.96.14.93.57,1.99,1.22,2.65,1.88,1.93,3.95,3.67,5.93,5.51.99.92,1.99,1.83,2.87,2.85.34.4.36,1.07.53,1.61-.56-.06-1.24.07-1.66-.21-2.18-1.42-4.25-3-6.44-4.41-.59-.38-1.44-.35-2.18-.51-.01.78-.35,1.79.02,2.3,1.17,1.63,2.6,3.07,3.91,4.6.47.55,1,1.07,1.35,1.69.23.4.18.96.26,1.45-.49-.02-1.06.11-1.46-.09-.81-.4-1.53-1-2.3-1.49-1.29-.81-1.95-.49-2.14,1.01-.13,1.05-.24,2.11-.49,3.14-.09.39-.54.69-.82,1.03-.35-.34-.9-.62-1.02-1.03-.25-.82-.2-1.72-.39-2.56-.15-.66-.32-1.59-.77-1.82-.42-.21-1.27.27-1.87.57-.68.35-1.26.91-1.96,1.22-.37.17-.89.02-1.34.01.06-.44-.04-1.02.21-1.31,1.42-1.7,2.96-3.3,4.38-4.99.51-.61.94-1.36,1.13-2.12.13-.51-.07-1.29-.43-1.66-.2-.21-1.11,0-1.52.28-1.84,1.23-3.62,2.56-5.42,3.84-.35.25-.69.59-1.09.69-.67.18-1.38.21-2.08.3.27-.61.38-1.37.82-1.8,2.78-2.67,5.67-5.23,8.42-7.93.67-.66,1.07-1.67,1.4-2.59.13-.37-.12-1.14-.44-1.34-.31-.2-1.04-.05-1.39.21-1.58,1.18-3.08,2.48-4.64,3.7-.72.56-1.49,1.07-2.29,1.51-.27.15-.7,0-1.06,0,.03-.36-.08-.82.1-1.05.9-1.13,1.85-2.21,2.82-3.28,1.84-2.04,3.72-4.04,5.55-6.1.47-.53.93-1.16,1.15-1.82.15-.44-.13-1.03-.21-1.55-.48.1-1.06.06-1.41.32-1.52,1.19-2.96,2.47-4.44,3.7-.33.28-.69.58-1.09.69-.4.11-.86-.01-1.29-.03.09-.39.06-.89.29-1.16,1.67-1.99,3.41-3.94,5.11-5.91.82-.95,1.64-1.89,2.43-2.87.29-.37.62-.82.66-1.25.05-.56-.18-1.15-.29-1.72-.52.23-1.13.36-1.55.71-1.66,1.38-3.22,2.87-4.91,4.22-.33.27-1.03.08-1.55.11.16-.47.2-1.02.49-1.39,2.26-3.01,4.56-5.98,6.85-8.96.03-.04.07-.07.09-.11.54-.88,1.65-1.94.65-2.78-.97-.81-1.53.69-2.21,1.23-.94.75-1.76,1.64-2.72,2.36-.4.3-1.02.3-1.54.43.03-.58-.14-1.28.13-1.71.69-1.15,1.58-2.18,2.38-3.27,1.23-1.67,2.44-3.34,3.66-5.02.11-.16.28-.32.29-.49.04-.8.04-1.6.06-2.4-.61.38-1.25.7-1.81,1.14-.9.71-1.71,1.55-2.63,2.23-.27.2-.78.06-1.19.07.02-.4-.09-.88.09-1.19.5-.88,1.2-1.64,1.66-2.53,1.56-3.04,3.04-6.12,4.6-9.15.26-.51.75-.9,1.13-1.35.33.42.81.8.98,1.28,1.45,4.08,3.54,7.8,6.02,11.33.29.41.15,1.12.21,1.69-.52-.13-1.15-.12-1.54-.42-.87-.68-1.61-1.52-2.42-2.27-.43-.4-.91-.75-1.36-1.12l-.54.26Z"/>
  <path d="M145.76,147.32c.43.75.75,1.5,1.24,2.12,1.02,1.28,2.19,2.44,3.19,3.74.28.37.17,1.04.24,1.57-.5-.01-1.01.03-1.5-.06-.37-.07-.69-.33-1.06-.46-1.21-.44-1.8-.04-1.95,1.25-.13,1.05-.28,2.1-.54,3.12-.08.32-.52.68-.86.75-.19.04-.66-.4-.73-.69-.25-1.02-.4-2.07-.54-3.12-.19-1.5-.86-1.86-2.15-1.06-.57.35-1.06.88-1.66,1.15-.64.28-1.36.36-2.05.52.19-.68.22-1.48.61-2.01.8-1.08,1.79-2.01,2.71-3,.49-.53,1.1-.99,1.47-1.59.44-.71.87-1.53.96-2.33.15-1.36-.63-1.8-1.78-1.07-1.09.7-2.09,1.55-3.16,2.29-1.35.93-2.7,1.86-4.11,2.67-.41.24-1.05.07-1.58.09.15-.5.15-1.17.48-1.49,2.03-1.99,4.14-3.9,6.22-5.84.99-.92,2.08-1.76,2.93-2.79.55-.66.86-1.58,1.06-2.44.09-.39-.24-1.06-.59-1.31-.23-.17-.92.07-1.25.33-1.6,1.24-3.13,2.57-4.72,3.82-.68.54-1.41,1.03-2.17,1.43-.31.16-.76.03-1.15.04.03-.35-.06-.8.13-1.04.82-1.07,1.68-2.1,2.59-3.09,1.97-2.18,3.99-4.32,5.95-6.51.44-.49.84-1.09,1.05-1.71.14-.42.08-1.14-.2-1.39-.24-.22-1.03-.13-1.36.12-1.08.81-2.03,1.77-3.08,2.63-.82.67-1.66,1.32-2.57,1.85-.31.18-.85-.03-1.28-.06.11-.39.1-.87.34-1.14,2.34-2.75,4.74-5.46,7.07-8.22.51-.61.93-1.35,1.17-2.1.12-.39-.24-.93-.39-1.4-.45.17-1.01.22-1.34.52-1.25,1.13-2.41,2.35-3.65,3.49-.45.42-1,.77-1.57,1.01-.38.16-.86.06-1.29.07.06-.44-.02-.99.21-1.3,1.44-1.93,2.96-3.81,4.44-5.71.98-1.25,1.96-2.51,2.89-3.8.33-.46.61-1.01.71-1.56.07-.34-.15-.83-.4-1.09-.12-.12-.72.07-.96.29-1.19,1.05-2.31,2.19-3.52,3.23-.53.46-1.19,1.43-1.89.59-.3-.37,0-1.56.4-2.12,1.78-2.52,3.71-4.93,5.52-7.43.44-.6.71-1.37.87-2.11.08-.36-.26-.82-.41-1.24-.36.17-.78.26-1.06.52-1,.89-1.9,1.9-2.95,2.74-.36.28-1.03.17-1.56.24.09-.47.07-1.01.29-1.41,1.81-3.34,3.68-6.64,5.51-9.97.25-.46.26-1.05.53-1.49.3-.49.78-.87,1.18-1.29.35.42.82.79,1.04,1.28.83,1.79,1.46,3.68,2.4,5.41,1.09,2.03,2.44,3.92,3.62,5.9.26.44.26,1.03.38,1.56-.57-.07-1.28.04-1.67-.26-.95-.72-1.72-1.67-2.62-2.46-.38-.33-.92-.47-1.39-.7-.1.58-.46,1.3-.24,1.71.85,1.55,1.84,3.04,2.87,4.49,1.09,1.53,2.31,2.97,3.43,4.47.31.41.55.91.67,1.41.07.27-.09.73-.3.88-.19.14-.69.08-.89-.09-1.27-1.03-2.46-2.16-3.75-3.16-.53-.41-1.24-.6-1.87-.9.1.75-.04,1.67.35,2.21,1.75,2.48,3.65,4.85,5.5,7.26.67.88,1.4,1.73,2.01,2.65.23.35.22.86.32,1.3-.49-.01-1.14.17-1.44-.07-1.68-1.36-3.25-2.84-4.91-4.23-.45-.38-1.07-.56-1.61-.83-.08.7-.5,1.65-.2,2.07,1.57,2.13,3.31,4.12,5.01,6.14.99,1.18,2.06,2.3,3.01,3.51.28.35.28.92.42,1.38-.52-.06-1.17.05-1.53-.22-1.43-1.05-2.78-2.22-4.15-3.36-.41-.34-.73-.82-1.19-1.04-.45-.21-1.02-.16-1.53-.23-.05.53-.35,1.24-.11,1.57,1.03,1.5,2.15,2.96,3.36,4.33,1.89,2.13,3.9,4.14,5.8,6.25.31.35.29.99.42,1.5-.54-.04-1.22.11-1.58-.16-1.98-1.45-3.85-3.05-5.83-4.5-.54-.4-1.32-.48-1.98-.7-.06.8-.47,1.85-.11,2.35,1.08,1.51,2.43,2.82,3.73,4.17,1.23,1.28,2.55,2.48,3.76,3.78.27.29.26.85.38,1.29-.49.04-1.09.3-1.44.1-1.64-.91-3.19-1.97-4.81-2.92-.37-.22-.99-.43-1.28-.26-.38.22-.56.81-.91,1.38"/>
  <path d="M27.89,103.49c-.46.45-.92.91-1.4,1.35-.85.78-1.67,1.59-2.59,2.27-.29.22-.85.06-1.29.07.03-.41-.07-.89.11-1.2.58-.99,1.37-1.87,1.9-2.9,1.49-2.91,2.87-5.88,4.33-8.8.24-.48.69-.86,1.05-1.28.35.41.86.76,1.04,1.23,1.44,3.91,3.29,7.6,5.84,10.92.15.19.33.4.36.62.08.48.08.97.11,1.45-.49-.06-1.12.04-1.45-.22-.9-.7-1.66-1.59-2.53-2.35-.44-.38-.99-.63-1.49-.93-.08.63-.4,1.35-.2,1.86.45,1.1,1.1,2.14,1.8,3.1,1.37,1.86,2.91,3.61,4.23,5.5.46.66.94,2.04.65,2.35-.91.94-1.59-.26-2.23-.78-1.09-.87-2.04-1.91-3.11-2.81-.3-.26-.81-.27-1.23-.4-.06.45-.31,1-.14,1.33.51,1.03,1.12,2.03,1.81,2.94,1.83,2.42,3.72,4.8,5.59,7.2.21.27.48.51.59.82.12.36.1.77.13,1.16-.41,0-.91.15-1.2-.03-1.05-.67-2.08-1.4-3.02-2.22-.87-.75-1.59-1.68-2.44-2.47-.27-.25-.83-.52-1.07-.4-.29.15-.6.79-.49,1.05.45,1.08.91,2.23,1.64,3.12,2.05,2.49,4.26,4.85,6.35,7.32.31.36.31.98.46,1.48-.53-.06-1.2.06-1.57-.21-1.68-1.29-3.25-2.73-4.93-4.02-.44-.33-1.15-.31-1.73-.45.02.63-.22,1.46.1,1.84,2.31,2.77,4.72,5.45,7.1,8.17.67.76,1.39,1.48,1.95,2.31.26.4.19,1.02.28,1.53-.49-.1-1.08-.05-1.44-.32-1.82-1.34-3.58-2.77-5.36-4.16-.19-.15-.33-.39-.54-.47-.66-.26-1.35-.47-2.02-.7-.06.82-.44,1.8-.13,2.43.51,1.04,1.4,1.94,2.26,2.76,2.51,2.4,5.1,4.7,7.6,7.11.34.33.32,1.02.47,1.55-.52-.04-1.15.11-1.54-.14-2.14-1.39-4.22-2.88-6.32-4.33-.35-.25-.69-.54-1.08-.72-1.01-.45-1.72-.06-1.59,1.02.11.9.48,1.89,1.05,2.6,1.11,1.39,2.47,2.57,3.65,3.9.63.72,1.69,1.48.92,2.54-.16.22-1.65-.27-2.34-.73-2.93-1.97-3.12-1.91-3.61,1.54-.05.38-.05.81-.22,1.13-.27.49-.67.91-1.01,1.36-.33-.49-.8-.93-.95-1.47-.26-.87-.32-1.8-.44-2.71-.14-1.05-.62-1.48-1.67-1.01-.48.21-.96.49-1.47.59-.43.08-.89-.08-1.34-.13.05-.41-.05-.93.17-1.21,1.07-1.36,2.27-2.61,3.32-3.98.45-.58.76-1.34.9-2.06.09-.44-.13-1.17-.46-1.38-.31-.2-1,.02-1.42.25-.76.41-1.43.98-2.17,1.43s-1.47.95-2.27,1.25c-.51.19-1.15.07-1.72.09.18-.56.2-1.26.56-1.65,1.07-1.17,2.26-2.23,3.41-3.33,1.04-1,2.12-1.97,3.13-3,.36-.37.76-.85.82-1.32.09-.75-.11-1.53-.18-2.3-.67.22-1.44.3-1.98.7-1.55,1.14-3,2.42-4.51,3.62-.53.41-1.1.79-1.71,1.06-.33.14-.78.02-1.18.02.04-.4-.06-.92.16-1.17,1.34-1.57,2.77-3.07,4.14-4.62,1.6-1.8,3.17-3.62,4.74-5.44.25-.29.54-.65.55-.99.03-.52-.16-1.06-.26-1.59-.47.12-1.05.1-1.39.37-1.39,1.11-2.7,2.33-4.05,3.49-.36.31-.74.66-1.17.84-.48.2-1.03.22-1.55.32.12-.51.11-1.12.4-1.51.93-1.22,1.97-2.37,2.98-3.53,1.36-1.56,2.79-3.07,4.09-4.69.52-.65.82-1.5,1.05-2.31.09-.32-.24-.77-.38-1.15-.41.15-.92.2-1.23.48-1.29,1.16-2.5,2.4-3.78,3.57-.49.45-1.06.86-1.67,1.12-.36.15-.86-.02-1.3-.05.08-.39.05-.87.27-1.16,1.98-2.61,4.02-5.18,6-7.79.7-.92,1.38-1.87,1.89-2.89.21-.41-.04-1.06-.09-1.6-.45.17-1,.24-1.35.54-1.25,1.06-2.39,2.24-3.66,3.27-.37.3-1.02.26-1.54.37.04-.57-.14-1.28.14-1.67,1.62-2.28,3.35-4.47,5.02-6.71.46-.62.98-1.23,1.24-1.94.3-.83.35-1.75.51-2.63l-.68-.26Z"/>
  <path d="M89.63,139.88c-1.86-.35-3.81-.69-5.74-1.09-6-1.22-11.99-2.46-17.98-3.72-2.19-.46-2.54-1.19-1.33-3.09,3.55-5.56,6.14-11.56,8.42-17.72.73-1.96,1.3-2.31,3.28-1.76,7,1.92,14.06,2.3,21.21,1.02,1.33-.24,2,.36,2.61,1.48,2.3,4.17,4.65,8.32,7.06,12.42.65,1.11,1.59,2.05,2.39,3.08,1.25,1.6,1.12,2.23-.81,2.97-3.7,1.4-7.42,2.74-11.14,4.06-2.09.74-4.19,1.42-6.3,2.09-.5.16-1.04.17-1.66.26M88.36,137.12c1.35.11,1.91-.8,2.42-1.77,2.8-5.28,4.67-10.89,5.88-16.73.38-1.85-.02-2.35-1.88-2.14-5.91.66-11.75.28-17.52-1.14-1.32-.32-2,.14-2.56,1.39-2.17,4.83-4.43,9.61-6.7,14.4-.67,1.42-.61,1.75.94,2.07,3.92.82,7.84,1.6,11.77,2.39,2.55.51,5.11,1.02,7.66,1.53M101.13,122.91c-.17.06-.35.12-.52.18,0,3.26-.04,6.51.03,9.77.02.86.75.9,1.41.63,1.16-.47,2.3-1,3.47-1.44,1.09-.41,1.13-1.01.5-1.88-.96-1.33-1.89-2.68-2.81-4.03-.72-1.06-1.39-2.14-2.09-3.22M93.39,136.22c1.29-.36,2.1-.61,2.92-.82,1.44-.37,2-1.26,1.93-2.75-.09-2.06,0-4.14-.03-6.2,0-.45-.15-.91-.25-1.54-1.55,3.83-2.98,7.38-4.57,11.31"/>
  <path d="M134.54,76.93c.2.63.35,1.51.74,2.26,1.07,2.05,1.21,4.01.39,6.25-1.44,3.93-2.59,7.97-3.91,11.94-.18.54-.66.98-1,1.47-.53-.42-1.26-.74-1.57-1.29-2-3.63-3.92-7.3-5.84-10.97-.95-1.81-1.35-1.9-2.87-.54-.94.83-1.87,1.68-2.89,2.4-.39.27-1.03.17-1.56.24.04-.49-.08-1.1.16-1.45.8-1.14,1.74-2.18,2.61-3.27,4.01-5.06,8.01-10.13,12.01-15.2,1.32-1.68,1.35-1.76,3.11-.54,1.74,1.21,3.45,2.48,5.05,3.85.7.6,1.37,1.45,1.64,2.32,1.49,4.63,4.36,8.32,7.67,11.76,1.51,1.56,2.95,3.18,4.33,4.85.33.39.28,1.1.4,1.66-.53-.07-1.24.06-1.57-.24-2.45-2.16-4.95-4.29-7.21-6.64-2.6-2.7-4.39-5.96-5.69-9.49-.3-.8-.69-1.63-1.25-2.25-1-1.13-2.04-.8-2.38.66-.15.66-.23,1.33-.37,2.23M132.79,71.72c-.57.37-.89.48-1.07.71-2.11,2.68-4.19,5.39-6.29,8.08-.92,1.18-1.05,2.38-.32,3.75,1.33,2.5,2.55,5.07,3.86,7.58.22.42.66.74.99,1.1.31-.44.74-.84.91-1.34.78-2.27,1.41-4.59,2.26-6.84.53-1.4.68-2.72-.1-4.01-1.4-2.34-1.35-4.74-.53-7.23.15-.46.16-.98.28-1.81"/>
  <path d="M48.24,41.12c.34-10.25,9.11-16.43,17.65-13.35,1.27.46,2.38,1.4,3.52,2.19.24.16.44.76.32.95-.15.24-.64.38-.99.37-1.3-.02-2.61-.25-3.9-.16-2.94.2-5.33,1.56-6.67,4.19-1.36,2.67-1.19,5.46.54,7.97,2.25,3.26,7.18,3.92,10.91,1.42,1.13-.76,1.99-1.91,3-2.86.32-.29.73-.49,1.09-.73.14.38.42.78.39,1.15-.28,3.57-1.9,6.5-4.77,8.54-4.33,3.08-9.09,3.78-13.93,1.3-4.81-2.47-7.03-6.65-7.18-10.99M67.27,48.76c-.07-.05-.14-.15-.21-.15-.29,0-.58,0-.86.05-2.4.45-4.61-.15-6.66-1.34-5.63-3.27-6.38-11.07-1.57-15.96.33-.33.61-.71,1.06-1.26-3.97.48-7.45,4.17-8.07,8.2-.79,5.15,1.55,9.69,6.09,11.81,3.37,1.57,8.26.93,10.22-1.34"/>
  <path d="M97.2,175.3c-.66.47-1.14.82-1.62,1.16-.9.64-1.76,1.34-2.71,1.9-.32.19-.84.06-1.27.07.05-.45-.03-.98.19-1.32.76-1.17,1.63-2.27,2.45-3.4.96-1.33,1.97-2.62,2.82-4.02.26-.42.04-1.13.04-1.7-.5.18-1.1.24-1.48.56-1.11.92-2.09,2.02-3.22,2.9-.49.38-1.25.41-1.88.6.11-.69.01-1.54.38-2.05,1.81-2.56,3.77-5,5.59-7.55.48-.67.71-1.56.92-2.38.08-.28-.14-.84-.38-.95-.23-.11-.73.11-.97.33-1.07.96-2.05,2.03-3.15,2.95-.32.27-.94.21-1.42.29.07-.51-.03-1.14.23-1.52,2.46-3.59,4.61-7.33,6.06-11.46.17-.48.67-.84,1.02-1.26.39.45.95.83,1.13,1.35,1.41,4.04,3.5,7.71,5.93,11.2.3.43.27,1.1.4,1.65-.57-.11-1.28-.05-1.68-.37-.97-.77-1.78-1.75-2.71-2.58-.31-.27-.78-.36-1.18-.53-.13.44-.47.95-.35,1.3.33.94.76,1.88,1.34,2.69,1.49,2.07,3.09,4.07,4.64,6.1.23.31.59.58.68.92.15.6.13,1.25.18,1.87-.55-.14-1.21-.13-1.61-.45-1.24-.99-2.35-2.13-3.57-3.15-.34-.29-.89-.34-1.34-.5-.04.53-.31,1.2-.08,1.55,1.22,1.84,2.57,3.6,3.88,5.38.46.62,1.01,1.18,1.39,1.84.18.3.21.93.02,1.14-.21.23-.87.34-1.14.17-.95-.56-1.83-1.24-2.71-1.9-1.27-.96-1.7-.81-1.97.72-.11.61-.21,1.25-.45,1.81-.12.29-.56.61-.85.6-.27-.01-.67-.4-.76-.69-.3-.99-.49-2.02-.79-3.29"/>
  <path d="M77.28,159.06c0,.68-.25,1.51.05,2.01,1.13,1.89,2.41,3.7,3.68,5.51.86,1.22,1.89,2.33,2.7,3.57.31.48.23,1.21.32,1.82-.59-.11-1.33-.04-1.75-.37-1.29-1.01-2.43-2.2-3.68-3.25-.3-.25-.81-.24-1.22-.35-.04.43-.26,1-.08,1.29,1.28,1.97,2.64,3.89,3.98,5.82.47.67,1.02,1.3,1.41,2.01.19.35.1.86.14,1.3-.45-.02-1,.13-1.33-.08-1.1-.69-2.16-1.45-3.15-2.29-.87-.74-1.24-.55-1.41.49-.1.62-.12,1.27-.35,1.84-.16.39-.61.66-.94.98-.31-.33-.74-.6-.9-.99-.24-.62-.32-1.31-.43-1.97-.17-.98-.71-1.09-1.42-.56-.73.55-1.35,1.26-2.12,1.74-.42.26-1.05.2-1.59.28.02-.57-.17-1.29.1-1.7,1.2-1.81,2.54-3.51,3.8-5.28.39-.55.72-1.15.95-1.77.11-.3-.07-.71-.12-1.07-.39.06-.89-.01-1.15.2-1.07.89-2.07,1.88-3.11,2.82-.39.35-.81.7-1.27.94-.3.16-.82.28-1.02.12-.23-.18-.37-.72-.28-1.02.16-.54.48-1.05.82-1.5,1.73-2.32,3.53-4.58,5.21-6.94.51-.71.77-1.63,1.02-2.5.08-.28-.21-.68-.33-1.02-.37.14-.82.2-1.09.45-.92.84-1.72,1.83-2.69,2.61-.43.34-1.17.3-1.77.43.1-.57.03-1.26.34-1.68,2.54-3.5,4.48-7.3,6.04-11.32.18-.46.7-.78,1.06-1.17.35.43.8.81,1.04,1.29,1.51,3,2.95,6.04,4.48,9.04.43.85,1.13,1.57,1.59,2.41.22.41.18.96.25,1.44-.53-.08-1.2.02-1.57-.27-.95-.72-1.77-1.62-2.64-2.45-.34-.33-.68-.65-1.03-.98-.18.03-.36.07-.54.1"/>
  <path d="M95.48,90.9c.4-5.21,2.32-10.61,7.29-14.54,2.7-2.13,4.65-4.72,5.31-8.18.34-1.83-.06-3.47-1.27-4.85-1-1.14-2.31-1.34-3.53-.71-1.37.71-1.47,1.9-1.23,3.23.02.09.07.19.07.28.03.62,1.01,1.5-.14,1.76-.51.11-1.49-.61-1.83-1.19-1.73-3.03.02-6.31,3.48-6.72,3.49-.41,6.04,1.4,6.84,4.95,1.03,4.57-.92,8.2-3.85,11.42-1.38,1.52-3.18,2.7-4.46,4.3-4.56,5.72-5.93,14-.4,20.6,2.38,2.84,4.29,5.99,3.96,9.95-.09,1.14-.05,2.8-1.36,2.83-1.31.03-.98-1.65-1.04-2.61-.24-3.48-1.73-6.37-3.91-8.98-2.47-2.96-3.9-6.87-3.92-11.54"/>
  <path d="M111.32,108.8c0,3.55-.42,6.68-2.11,9.52-.32.54-.65,1.09-1.09,1.52-.26.26-.75.28-1.14.41-.12-.42-.42-.9-.32-1.26.41-1.48,1.07-2.91,1.41-4.4,1.1-4.89,1.06-9.68-1.67-14.12-.7-1.15-1.62-2.16-2.36-3.29-2.22-3.38-2.93-7-1.44-10.87,1.08-2.8,4.26-3.96,7.11-2.65,2.86,1.32,3.99,4.49,2.51,7.12-.27.48-.71.99-1.19,1.21-.51.23-1.18.13-1.77.17.1-.51.12-1.06.33-1.52.52-1.17,1.03-2.32.21-3.56-.65-.99-1.57-1.37-2.73-1.25-1.61.16-2.16,1.32-2.43,2.66-.53,2.6.13,4.97,1.57,7.16.93,1.41,1.96,2.75,2.82,4.2,1.68,2.85,2.42,5.97,2.29,8.95"/>
  <path d="M168.31,80.75c1.4,0,2.79.02,4.19,0,1.29-.03,2.03.54,2.04,1.86.01,1.49.11,3-.07,4.47-.37,3.04-4.09,4.66-6.5,2.77-1.34-1.06-2.36-1-3.54.05-.25.22-.54.41-.84.56-.92.49-1.37.02-1.21-.82.13-.65.58-1.3,1.04-1.8.55-.59,1.45-.9,1.87-1.55.4-.61.58-1.52.47-2.24-.05-.33-1.03-.53-1.6-.75-.17-.07-.43.06-.56-.03-.48-.31-.93-.68-1.38-1.02.44-.42.85-1.16,1.32-1.2,1.57-.15,3.17-.06,4.76-.06,0-.08,0-.16,0-.24M172.28,85.9c0-.72,0-1,0-1.29-.04-1.48-1.09-1.44-2.15-1.44-1.01,0-1.86.13-1.79,1.45.04.76-.13,1.64.19,2.26.32.62,1.14,1.39,1.71,1.37.66-.03,1.38-.78,1.9-1.37.26-.29.13-.92.14-.97"/>
  <path d="M20.46,42.49c-1.48-.96-2.96-1.94-4.45-2.89-.67-.43-1.31-1.01-.63-1.7.34-.34,1.39-.41,1.86-.14,2.52,1.41,4.99,2.92,7.4,4.5.52.34.77,1.1,1.15,1.66-.58.38-1.12.99-1.74,1.09-2.14.34-4.31.5-6.46.75-.46.05-.92.15-1.51.6,1.21.8,2.42,1.6,3.64,2.39.32.21.81.3.97.59.32.54.46,1.19.67,1.79-.6.07-1.34.4-1.78.16-1.82-.98-3.55-2.13-5.31-3.22-.78-.48-1.62-.89-2.31-1.47-.47-.39-.72-1.03-1.08-1.55.57-.37,1.11-.96,1.72-1.06,2.14-.34,4.31-.49,6.46-.74.48-.06.94-.21,1.41-.32-.01-.15-.02-.3-.03-.45"/>
  <path d="M123.31,11.7c-.05,3.51-2.94,6.36-6.4,6.3-3.54-.06-6.54-3.08-6.46-6.49.09-3.59,3-6.41,6.56-6.36,3.58.05,6.35,2.93,6.3,6.55M116.87,7.47c-2.28.03-4.04,1.88-4,4.22.04,2.26,1.79,3.96,4.1,3.98,2.17.01,4.05-1.87,4.05-4.07,0-2.28-1.88-4.15-4.14-4.13"/>
  <path d="M49.02,8.84c3.39-.03,5.57,2.49,4.89,4.95-.42,1.51.04,2.29,1.36,2.81.04.02.09.03.13.06.58.46,1.91.56,1.37,1.57-.25.46-1.6.51-2.41.42-.67-.07-1.26-.83-1.93-.91-.87-.11-1.9-.06-2.66.32-.98.48-.26,1.33,0,2.01.29.72.77,1.52-.19,2.02-.98.51-1.46-.18-1.88-.99-1.23-2.4-2.51-4.77-3.76-7.17-.96-1.85-.86-2.21.98-3.14,1.57-.79,3.17-1.51,4.1-1.94M51.66,13.06c0-1.12-1-2.14-2.08-1.86-1,.26-1.92.83-2.84,1.35-.21.12-.32.59-.31.89.02.96,1.25,2.46,1.93,2.43,1.37-.07,3.3-1.7,3.3-2.81"/>
  <path d="M6.34,90.44H1.71c-1.13,0-1.65-.58-1.68-1.7-.08-2.78-.12-5.56,2.28-7.58,1.9-1.59,4.06-1.94,6.36-1,2.14.87,3.41,2.5,3.66,4.79.14,1.29.05,2.6.09,3.9.03,1.2-.5,1.78-1.73,1.75-1.44-.03-2.89,0-4.34,0v-.16ZM6.21,88.25v.06c.86,0,1.75.1,2.59-.04.47-.08,1.09-.48,1.26-.89.7-1.69-.5-4.23-2.29-5.08-1.64-.78-3.93-.18-4.71,1.57-.49,1.1-.56,2.51-.39,3.72.05.34,1.64.47,2.53.65.32.07.67.01,1.01.01"/>
  <path d="M62.97,13.79c1.39-.43,2.49-.78,3.59-1.11.46-.14.95-.36,1.39-.28.4.07.94.42,1.04.76.1.32-.2,1.04-.49,1.15-2.17.78-4.35,1.53-6.59,2.1-.41.1-1.36-.58-1.54-1.08-1.03-2.9-1.91-5.86-2.81-8.8-.31-1.02.14-1.65,1.14-1.96,1.8-.54,3.58-1.13,5.37-1.67.76-.23,1.62-.38,1.9.65.27,1.01-.53,1.32-1.29,1.58-1.09.37-2.2.7-3.29,1.08-.82.29-1.31.76-.95,1.75.35.96.96,1.05,1.83.77,1.1-.36,2.2-.76,3.33-.93.45-.07.99.42,1.48.65-.28.48-.46,1.19-.88,1.39-1.12.53-2.41.74-3.51,1.3-.41.21-.68,1.06-.66,1.61.01.38.63.74.93,1.05"/>
  <path d="M173.99,97.56c-.39,2.48-.63,4.49-1.07,6.47-.1.46-.87.78-1.33,1.16-.3-.49-.85-.98-.84-1.46.03-1.24.33-2.48.5-3.72.12-.91-.06-1.65-1.17-1.77-1.09-.12-1.42.55-1.56,1.47-.16,1.09-.26,2.21-.57,3.27-.12.41-.76.67-1.16,1-.33-.46-.94-.91-.94-1.37,0-1.14.26-2.29.47-3.43.17-.93-.16-1.5-1.08-1.71-.9-.2-1.39.28-1.55,1.09-.24,1.23-.31,2.5-.67,3.69-.17.55-.86.93-1.31,1.39-.32-.56-.95-1.15-.9-1.68.18-1.91.59-3.8.89-5.71.19-1.23.93-1.59,2.06-1.41,2.95.47,5.92.87,8.84,1.45.59.12,1.04.92,1.39,1.25"/>
  <path d="M9.57,58.84c.18-.19.65-.51.87-.96.45-.96.65-2.04,1.17-2.95.29-.5,1.08-1.09,1.54-1.01.82.14.95.94.62,1.74-.41,1.02-.71,2.1-1.17,3.1-.43.94-.09,1.46.75,1.82.85.36,1.4-.01,1.72-.79.47-1.11.9-2.24,1.37-3.35.31-.74.73-1.51,1.7-1.08.97.42.65,1.29.39,2.01-.6,1.63-1.27,3.23-1.87,4.85-.45,1.21-1.16,1.7-2.45,1.18-2.82-1.13-5.65-2.22-8.47-3.33-.87-.34-1.17-.95-.83-1.84.73-1.89,1.4-3.81,2.24-5.64.21-.45.99-.63,1.51-.94.18.62.62,1.3.48,1.84-.28,1.16-.9,2.23-1.29,3.37-.41,1.2.13,1.96,1.69,1.97"/>
  <path d="M171.17,66.06c.34.34,1,.71,1.13,1.21.51,1.96.93,3.94,1.21,5.95.07.52-.46,1.12-.72,1.69-.47-.37-1.19-.64-1.36-1.12-.43-1.17-.62-2.42-.87-3.64-.19-.95-.63-1.49-1.69-1.25-1.1.25-1.16.99-.97,1.89.19.9.51,1.79.51,2.69,0,.66-.26,1.74-.68,1.89-1.07.39-1.3-.7-1.53-1.45-.26-.87-.37-1.79-.55-2.69-.18-.96-.55-1.67-1.73-1.37-1.05.27-1.16,1-.97,1.91.24,1.13.56,2.26.62,3.41.03.55-.45,1.12-.71,1.69-.48-.38-1.25-.68-1.38-1.15-.54-2-.96-4.04-1.24-6.09-.06-.47.53-1.4.96-1.5,3.19-.75,6.41-1.35,9.95-2.06"/>
  <path d="M93.49,12.63c-2.14-.1-3.9-.72-4.77-2.65-.25-.56-.17-1.68.21-2.01.79-.67,1.32.1,1.75.82.81,1.35,2.64,1.99,4.01,1.37.44-.2,1.06-.68,1.06-1.02,0-.45-.45-1.09-.88-1.31-1.02-.51-2.15-.82-3.23-1.22-1.78-.67-2.76-2.01-2.6-3.55.16-1.59,1.49-3,3.33-3.05,1.38-.04,2.85.25,4.15.75.67.26,1.21,1.21,1.52,1.97.18.45-.19,1.12-.31,1.69-.55-.26-1.26-.38-1.6-.8-1.03-1.27-2.57-1.93-3.76-1.29-.38.2-.83.66-.85,1.02-.02.34.42.88.78,1.04.92.41,1.92.63,2.87.97,2.12.76,3.22,2.28,2.99,4.07-.23,1.72-1.62,2.88-3.81,3.15-.33.04-.67.05-.86.06"/>
  <path d="M165.81,50.18c.2.16.83.43.83.7,0,.48-.24,1.14-.61,1.4-.7.49-1.57.71-2.34,1.11-.31.16-.81.59-.76.73.53,1.48,1.1,2.95,1.81,4.35.11.21.98.17,1.45.05.74-.18,1.42-.64,2.17-.76.4-.06,1.1.23,1.26.56.15.32-.08,1.09-.39,1.31-.69.49-1.53.78-2.33,1.11-1.91.79-3.83,1.56-5.76,2.32-.49.19-1.02.44-1.52.4-.43-.03-1.01-.34-1.2-.69-.14-.25.15-.95.45-1.16.62-.43,1.35-.72,2.07-.98,1.11-.4,1.58-1.01,1.02-2.19-.39-.82-.73-1.68-1.04-2.54-.35-.95-.98-1.06-1.84-.73-.8.31-1.61.68-2.45.8-.38.05-1.09-.38-1.19-.72-.1-.35.25-1.13.59-1.27,3.01-1.28,6.06-2.47,9.09-3.68.13-.05.28-.05.69-.11"/>
  <path d="M12.61,95.16c-.26.29-.61.97-1.18,1.28-1.91,1.07-1.21,2.68-1.05,4.21.13,1.31,1.02,1.71,2.11,2.02.48.14,1.01.42,1.32.79.25.31.4.96.24,1.28-.14.27-.83.47-1.2.38-3.37-.8-6.73-1.62-10.06-2.55-.55-.15-1.25-.79-1.34-1.3-.09-.49.37-1.32.83-1.64,2.91-1.96,5.87-3.84,8.85-5.69.94-.58,1.52-.22,1.48,1.2M5.59,100.17c.05.29.09.57.14.86.7-.05,1.4-.09,2.1-.14-.07-.45-.15-.9-.22-1.34-.67.21-1.35.41-2.02.62"/>
  <path d="M37.93,29.19c-1.3.03-2.65-.63-3.69-1.89-1.19-1.45-2.34-2.94-3.48-4.42-.53-.68-.98-1.48-.07-2.13.84-.6,1.42.06,1.91.69,1.03,1.33,2.05,2.67,3.09,3.99,1.64,2.07,4.32,1.88,5.26-.37.49-1.18,0-2.17-.68-3.08-1.03-1.39-2.11-2.75-3.17-4.12-.5-.65-.9-1.37-.11-2.03.77-.64,1.37-.06,1.83.51,1.34,1.7,2.73,3.38,3.91,5.18,1.09,1.67.93,3.51-.01,5.22-.95,1.71-2.5,2.47-4.8,2.44"/>
  <path d="M130.47,25.11c-3.49.04-6.2-3.64-4.77-6.83.99-2.22,2.45-4.24,3.81-6.26.23-.34,1.06-.28,1.61-.41.08.56.42,1.26.2,1.66-.88,1.6-1.93,3.1-2.91,4.64-1.09,1.72-.84,3.62.57,4.46,1.42.85,3.21.26,4.3-1.42.94-1.45,1.82-2.95,2.86-4.33.32-.42,1.07-.52,1.62-.77.11.64.52,1.45.28,1.88-1.1,1.91-2.22,3.87-3.68,5.5-.91,1.03-2.43,1.52-3.67,2.25-.07-.12-.14-.25-.21-.37"/>
  <path d="M32.31,68.23c-.4-.6-.75-.9-.82-1.26-.23-1.08-.36-2.18-.51-3.28-.25-1.92-.76-2.48-2.66-2.87-.38-.08-.79-.07-1.12-.24-.31-.15-.52-.48-.78-.73.25-.25.5-.69.77-.71,3.15-.21,4.05-2.15,4.07-4.97,0-.72-.08-2.07,1.16-1.89.44.07.76,1.34,1.02,2.11.15.44.06.95.09,1.43.13,1.76.78,2.43,2.47,2.91.75.21,1.41.74,2.12,1.13-.68.34-1.32.81-2.04.98-1.52.37-2.33,1.23-2.47,2.78-.09,1.05-.17,2.12-.38,3.15-.09.43-.5.8-.94,1.44"/>
  <path d="M99.73,45.59c-.44-.66-.85-1.03-.95-1.46-.24-1.03-.36-2.09-.49-3.14-.24-1.97-.72-2.42-2.65-2.85-.68-.15-1.3-.6-1.95-.91.65-.36,1.26-.88,1.95-1.05,1.98-.49,2.37-.81,2.69-2.84.15-.95.19-1.93.41-2.86.09-.37.56-.89.87-.89.34,0,.88.45.97.8.19.73.14,1.53.2,2.29.19,2.24.79,2.92,3,3.45.23.06.52.03.7.16.36.26.66.6.99.9-.31.27-.61.57-.95.8-.14.1-.37.09-.56.12-2.2.35-2.87,1.05-3.1,3.28-.1.91-.13,1.83-.31,2.73-.08.41-.43.78-.83,1.46"/>
  <path d="M130.37,61.39c-.4-.57-.74-.88-.82-1.24-.22-.98-.37-1.98-.46-2.99-.18-2.03-.62-2.52-2.61-3.06-.72-.2-1.37-.65-2.05-.99.67-.35,1.3-.84,2.01-1.03,2.13-.59,2.48-.95,2.69-3.16.08-.86.13-1.74.36-2.57.1-.36.63-.85.95-.83.32.02.8.53.88.91.21.88.26,1.81.32,2.72.09,1.55.79,2.46,2.39,2.79.76.16,1.44.75,2.15,1.14-.71.37-1.38.9-2.14,1.06-1.52.32-2.22,1.19-2.35,2.67-.1,1.1-.21,2.21-.42,3.29-.08.38-.47.7-.88,1.28"/>
  <path d="M1.76,75.45c-.16-.1-.59-.23-.65-.46-.1-.37-.11-.94.11-1.18.36-.39.9-.73,1.42-.85,1.91-.47,3.86-.82,5.78-1.26.39-.09.73-.35,1.09-.54-.26-.37-.44-.84-.79-1.09-1.47-1.08-3.01-2.08-4.49-3.14-.42-.3-.94-.66-1.08-1.09-.16-.51.04-1.14.08-1.71.48.09,1.05.05,1.42.3,2.71,1.83,5.41,3.69,8.04,5.63.55.41,1.25,1.32,1.12,1.78-.18.6-1.05,1.25-1.73,1.42-3.36.81-6.76,1.46-10.32,2.2"/>
  <path d="M32.02,36.16c-.3.4-.48.89-.74.94-.46.08-1.09.05-1.43-.22-1.46-1.18-2.84-2.46-4.25-3.71-.11-.1-.22-.19-.33-.29q-1.83-1.63-3.5.09c-.58.6-1.31,1.14-1.95.4-.29-.34-.18-1.43.16-1.84,1.66-2,3.43-3.91,5.25-5.77.28-.29,1.22-.4,1.46-.17.3.28.21,1,.27,1.53,0,.07-.11.15-.16.23q-1.56,2.29.45,4.15c1.21,1.11,2.46,2.17,3.66,3.28.4.38.7.87,1.11,1.38"/>
  <path d="M159.47,42.84c-.61.34-1,.52-1.36.75-1.79,1.13-3.58,2.28-5.37,3.4-.69.43-1.46.77-2.02-.13-.59-.94.21-1.43.84-1.84,1.81-1.19,3.65-2.34,5.49-3.47,1.01-.61,1.32-1.25.58-2.35-.5-.75-1.61-1.78-.31-2.59,1.3-.81,1.68.64,2.19,1.41,1.18,1.76,2.3,3.56,3.43,5.35.43.68.81,1.44-.07,2.03-.95.65-1.36-.26-1.85-.79-.53-.57-1.02-1.17-1.55-1.77"/>
  <path d="M150.22,26.77c-.25.37-.39.85-.67.94-.4.12-.94.08-1.32-.1-.86-.42-1.74-1.45-2.46-1.33-.82.14-1.49,1.25-2.19,1.97-1.14,1.17-2.2,2.43-3.41,3.52-.39.35-1.15.28-1.73.4.04-.64-.17-1.49.17-1.89,1.46-1.78,3.06-3.45,4.66-5.11.79-.82.7-1.49-.09-2.2-.14-.13-.28-.26-.41-.4-.61-.62-1.42-1.31-.59-2.19.8-.85,1.51-.05,2.1.48,1.75,1.58,3.46,3.19,5.17,4.82.3.28.49.68.78,1.1"/>
  <path d="M162.83,122.05c-1.54,0-3.09.03-4.63-.02-.51-.02-1.06-.16-1.51-.39-.29-.15-.62-.57-.62-.86,0-.27.4-.61.7-.76.47-.22,1-.42,1.51-.43,3.09-.04,6.17-.08,9.26,0,.88.02,2.23.01,2.19,1.25-.01.43-1.45,1.07-2.29,1.17-1.52.19-3.08.05-4.62.05v-.03"/>
  <path d="M11.71,122.08c-1.49,0-2.99.03-4.48-.02-.57-.02-1.17-.13-1.67-.37-.33-.15-.66-.59-.7-.94-.03-.23.39-.66.69-.77.62-.23,1.3-.41,1.96-.42,2.84-.04,5.69-.04,8.53.03.97.02,2.42,0,2.41,1.23,0,1.16-1.36,1.24-2.4,1.25-1.45,0-2.89,0-4.34,0h0"/>
  <path d="M73.42,143.07c-2.04-.09-3.73-.07-5.39-.28-.59-.07-1.11-.71-1.66-1.08.5-.37.99-1.06,1.5-1.07,3.64-.06,7.28-.02,10.91.09.43.01.83.62,1.25.95-.45.35-.88.96-1.37,1.02-1.85.23-3.73.28-5.24.38"/>
  <path d="M87.4,149.2c-1.83-.09-3.57-.09-5.28-.32-.57-.08-1.06-.75-1.59-1.16.51-.36,1.02-1.02,1.54-1.04,3.51-.1,7.02-.1,10.53,0,.51.01,1.01.71,1.51,1.1-.49.38-.96,1.01-1.49,1.08-1.76.23-3.55.25-5.23.34"/>
  <path d="M83.92,6.93c.06,1.25.23,2.5.14,3.74-.04.54-.6,1.05-.92,1.57-.43-.48-1.18-.93-1.23-1.45-.27-3.06-.38-6.13-.54-9.2-.04-.81.2-1.59,1.11-1.45.43.06.99.83,1.06,1.34.25,1.8.31,3.63.44,5.45h-.06Z"/>
  <path d="M113.69,93.05c.67.56,1.07.78,1.31,1.11,1.59,2.23,3.18,4.47,4.7,6.76.23.35.08.96.1,1.44-.45-.03-1.05.11-1.34-.13-2.43-1.98-4.4-4.31-5.1-7.47-.1-.43.17-.94.33-1.72"/>
  <path d="M87.53,155.38c-1.45-.13-2.65-.15-3.82-.38-.46-.09-.83-.64-1.25-.98.4-.35.8-1,1.21-1.01,2.52-.06,5.04-.01,7.56.1.34.02.66.58.98.89-.36.33-.68.87-1.09.96-1.26.25-2.55.32-3.6.43"/>
  <path d="M12.36,129.19c-1.22-.14-2.47-.21-3.68-.46-.42-.09-.74-.62-1.11-.95.34-.34.67-.97,1.03-.99,2.52-.1,5.05-.11,7.58-.04.38.01.73.63,1.1.96-.39.35-.74.92-1.18,1.01-1.21.26-2.46.31-3.74.45"/>
  <path d="M103.55,143.09c-1.34-.13-2.55-.16-3.71-.39-.41-.08-.73-.62-1.09-.96.33-.35.65-.98,1-.99,2.57-.08,5.13-.06,7.7.02.34.01.67.56,1.01.86-.35.34-.65.91-1.04.99-1.31.26-2.65.34-3.85.47"/>
  <path d="M162.28,126.31c1.25.15,2.55.22,3.81.49.39.08.67.67,1.01,1.02-.34.3-.66.84-1.01.85-2.57.08-5.15.09-7.72.02-.33,0-.97-.65-.92-.85.11-.43.54-1.01.93-1.08,1.26-.25,2.56-.31,3.91-.45"/>
  <path d="M73.82,58.73c0,1.1-1.04,2.04-2.21,2-1.11-.04-1.97-.95-1.96-2.06.02-1.17.84-2.03,1.96-2.05,1.3-.02,2.2.84,2.2,2.11"/>
  <path d="M60.61,73.54c1.13.08,1.97,1.02,1.91,2.12-.06,1.15-1.05,1.99-2.27,1.92-1.21-.07-2.07-1.01-1.99-2.2.08-1.1,1.14-1.94,2.34-1.85"/>
  <path d="M40.78,43.49c.03,1.14-.9,2.07-2.08,2.1-1.11.02-1.98-.83-2.03-1.97-.05-1.22.78-2.13,1.98-2.16,1.18-.03,2.1.85,2.13,2.04"/>
  <path d="M115.98,72.87c1.1.03,2.04.95,2.05,2,0,1.14-1.1,2.15-2.27,2.09-1.08-.06-1.95-.99-1.94-2.1.01-1.18.93-2.03,2.16-1.99"/>
  <path d="M111.04,29.02c-1.21.01-2.12-.87-2.12-2.05,0-1.16.83-2.07,1.92-2.12,1.25-.06,2.2.87,2.19,2.15-.01,1.13-.88,2.02-2,2.03"/>
  <path d="M23.24,80.22c.04,1.13-.95,2.18-2.06,2.18-1.17,0-2.05-.82-2.09-1.96-.05-1.2.83-2.15,2.02-2.17,1.08-.02,2.1.91,2.14,1.95"/>
  <path d="M118.94,43.4c1.11-.04,2.2.96,2.21,2.03.01,1.09-1.02,2.16-2.1,2.17-1.07,0-2.05-.9-2.12-1.96-.07-1.09.93-2.2,2.01-2.24"/>
  <path d="M147.77,57.44c-.04,1.12-1.08,2.03-2.25,1.97-1.12-.06-1.96-.96-1.95-2.1.01-1.25.88-2.09,2.12-2.03,1.18.05,2.12,1.02,2.08,2.15"/>
  <path d="M89.9,22.56c-.03,1.19-.98,2.06-2.18,2.02-1.1-.04-1.97-.97-1.96-2.09.02-1.18.98-2.07,2.18-2.01,1.14.05,2,.95,1.96,2.08"/>
  <path d="M153.23,84.16c-1.06-.03-2.04-1.03-2-2.06.04-1.14,1.05-2.07,2.19-2.01,1.22.06,2.11.99,2.06,2.14-.05,1.16-.99,1.96-2.25,1.92"/>
  <path d="M160.94,135.82c-.94-.16-1.71-.21-2.43-.44-.34-.11-.77-.56-.79-.87-.01-.29.41-.73.75-.88,1.57-.72,3.18-.64,4.73.08.9.42.85,1.06.04,1.45-.75.36-1.62.48-2.29.66"/>
  <path d="M13.8,135.84c-.79-.2-1.62-.28-2.33-.61-.81-.37-.89-1.05-.03-1.49,1.64-.84,3.35-.83,4.97.02.87.45.69,1.17-.08,1.51-.77.33-1.65.39-2.53.58"/>
  <path d="M69.31,146.32c.71.14,1.43.21,2.11.45.29.1.64.52.65.81.01.28-.36.81-.59.83-1.55.1-3.11.13-4.67.06-.27-.01-.73-.6-.71-.91.01-.32.44-.79.78-.88.78-.22,1.6-.25,2.43-.36"/>
  <path d="M87.56,161.04c-.74-.08-1.44-.05-2.06-.27-.47-.17-.83-.64-1.24-.98.37-.33.72-.9,1.1-.93,1.35-.09,2.73-.05,4.08.07.32.03.9.58.85.76-.1.39-.46.86-.83,1.01-.61.24-1.3.25-1.9.35"/>
  <path d="M102.12,147.52c1.1-1.21,4.4-1.6,5.67-.6.24.19.39.9.24,1.14-.91,1.38-5.08.97-5.91-.54"/>
  <path d="M74.15,25.13c-.58-.86-1.22-1.38-1.16-1.82.05-.46.8-1.18,1.2-1.15.46.03,1.15.73,1.21,1.2.05.43-.62.94-1.25,1.77"/>
  <path d="M125.45,32.54c-.9.58-1.44,1.19-1.88,1.13-.46-.06-1.1-.76-1.14-1.22-.03-.36.72-1.1,1.14-1.12.48-.01.98.59,1.88,1.21"/>
  <path d="M44.45,55.15c-.6-.85-1.19-1.32-1.18-1.78.01-.41.73-1.17,1.05-1.12.51.07,1.23.62,1.33,1.08.08.39-.58.94-1.2,1.83"/>
  <path d="M83.27,31.23c.57.84,1.21,1.38,1.16,1.82-.06.45-.8,1.13-1.25,1.13-.41,0-1.12-.75-1.15-1.2-.03-.45.63-.94,1.24-1.75"/>
  <path d="M106.33,51.74c-.48.35-.96.95-1.45.96-.4,0-1.09-.66-1.13-1.08-.04-.38.6-1.14.99-1.18.49-.05,1.04.47,1.56.74.01.19.02.38.03.56"/>
  <path d="M108.14,153.92c-.71.59-1.16,1.26-1.56,1.22-.5-.04-1.23-.57-1.37-1.04-.25-.85.45-1.39,1.25-1.31.49.05.92.59,1.68,1.13"/>
  <path d="M22.51,71.9c-.55-.86-1.12-1.37-1.11-1.86.01-.38.81-1.07,1.16-1.01.49.07,1.21.7,1.23,1.13.03.44-.65.93-1.29,1.74"/>
  <path d="M122.12,61.18c.58.77,1.23,1.28,1.16,1.66-.09.49-.7,1.14-1.17,1.22-.35.06-1.18-.68-1.18-1.07,0-.49.61-.99,1.19-1.81"/>
  <path d="M69.75,153.89c-.77.58-1.26,1.22-1.64,1.16-.51-.08-.95-.69-1.41-1.08.42-.45.79-1.19,1.27-1.26.42-.07.96.6,1.78,1.18"/>
  <path d="M152.34,73.03c-.61-.85-1.27-1.38-1.21-1.8.07-.45.79-1.04,1.29-1.11.33-.05,1.09.71,1.09,1.11,0,.48-.59.96-1.17,1.8"/>
  <path d="M87.2,163.44c.59.81,1.21,1.29,1.15,1.68-.08.51-.69.93-1.07,1.39-.44-.41-1.17-.78-1.24-1.24-.06-.43.58-.97,1.16-1.83"/>
  <path d="M140.02,44.91c-.84.63-1.34,1.29-1.77,1.25-.47-.04-.88-.74-1.32-1.15.44-.4.83-1.02,1.34-1.13.37-.08.89.49,1.75,1.03"/>
  <path d="M58.68,65.65c-.78.59-1.28,1.24-1.65,1.17-.51-.09-.93-.72-1.39-1.12.44-.41.84-1.05,1.34-1.14.38-.07.9.55,1.7,1.1"/>
  <path d="M80.41,48.86c.58.79,1.19,1.26,1.2,1.75,0,.39-.66,1.03-1.12,1.14-.85.2-1.42-.41-1.29-1.24.08-.48.63-.88,1.21-1.64"/>
  <path d="M101.13,122.91c.69,1.07,1.37,2.16,2.09,3.22.92,1.36,1.85,2.71,2.81,4.03.63.87.58,1.46-.5,1.88-1.17.44-2.31.98-3.47,1.44-.67.27-1.4.23-1.42-.63-.07-3.25-.03-6.51-.03-9.77.17-.06.35-.12.52-.18"/>
  <path d="M93.39,136.22c1.59-3.93,3.02-7.48,4.57-11.31.11.63.25,1.08.25,1.54.02,2.07-.06,4.14.03,6.2.06,1.49-.49,2.38-1.93,2.75-.82.21-1.64.46-2.92.82"/>
  <path d="M5.59,100.17c.67-.21,1.35-.41,2.02-.62.07.45.15.9.22,1.34-.7.05-1.4.09-2.1.14-.05-.29-.09-.57-.14-.86"/>
  <path d="M88.64,130.33c-4.82-.95-9.36-1.82-13.89-2.75-1.13-.23-1.69-1.04-1.23-2.16.8-1.96,1.66-3.9,2.64-5.77.24-.46,1.04-.63,1.58-.93.05.58.24,1.19.11,1.72-.25,1.07-.66,2.11-1.03,3.16-.4,1.12-.16,1.92,1.09,2.17,2.83.56,5.67,1.09,8.51,1.62,1.51.28,2.49-.33,3.02-1.78.48-1.31.97-2.63,1.62-3.86.27-.52.94-.84,1.43-1.26.16.6.58,1.27.43,1.77-.65,2.26-1.35,4.52-2.28,6.68-.28.64-1.34.95-2.03,1.39"/>
</svg>