<svg xmlns="http://www.w3.org/2000/svg" viewBox="0 0 840 1680" width="840px" height="1680px">
  <defs></defs>
  <g id="Calque_2" transform="matrix(0.99388, 0, 0, 0.940119, 179.363007, 105.769569)" style="">
    <g id="Calque_1-2" data-name="Calque 1" transform="matrix(1, 0, 0, 1, 30.248741, 584.417542)">
      <path class="cls-1"
        d="M427.58,753.32H0V85.52h427.58v667.8ZM5,748.32h417.58V90.52H5v657.8ZM405.11,703.58l-101.31-2.71-6.24-17.66-8.28,17.26-8.83-.25,18.24-39.35,96.51,15.53,9.9,27.17ZM307.37,695.96l90.52,2.42-6.38-17.51-89.88-14.46-2.67,5.76,8.41,23.79Z"
        style="fill: rgb(29, 29, 27);"></path>
      <circle class="cls-1" cx="145.1" cy="330.15" r="68.69" style="fill: rgb(29, 29, 27);"></circle>
      <polygon class="cls-1"
        points="220.17 651.44 2.5 651.44 2.5 336.47 29.98 345.31 36 398.84 71.67 407.2 98.81 462.4 162.13 484.16 176.7 559.43 200.8 610.43 220.17 651.44"
        style="fill: rgb(29, 29, 27);"></polygon>
      <polygon class="cls-1" points="297.91 679.27 305.58 700.98 287.73 700.49 297.91 679.27"
        style="fill: rgb(29, 29, 27);"></polygon>
      <polygon class="cls-1"
        points="425.08 432.21 425.08 704.18 401.5 703.55 393.35 681.21 300.16 666.21 284.31 700.41 113.22 695.83 157.43 654.01 200.8 613 238.8 577.06 252.07 593.79 297.8 516.83 366.39 541.92 381.44 466.65 404.86 466.65 425.08 432.21"
        style="fill: rgb(29, 29, 27);"></polygon>
      <polygon class="cls-1"
        points="425.08 383.26 425.08 419.59 405.6 455.98 376.66 456.42 362.64 528.33 292.91 505.1 289.83 510.36 253.44 576.12 239.86 556.39 201.53 592.9 212.15 515.94 256.8 497.54 300.87 398.84 344.64 387.13 381.44 348.66 425.08 383.26"
        style="fill: rgb(29, 29, 27);"></polygon>
      <path class="cls-1"
        d="M232.29,455.83c6.16-.39,5.17,3.56,5.88,7.16.99-.94,1.51-1.22,1.7-1.64,1.07-2.23,1.63-4.67,5.69-3.34,1.71.56,1.53-1.02.62-1.86-1.53-1.41-1.92-2.65-.13-4.19.65-.55.27-2.38-.5-1.79-3.93,3.04-5.29-1.57-8.57-2.06.71,3.59.82,6.88-4.71,7.71h.03Z"
        style="fill: rgb(29, 29, 27);"></path>
      <path class="cls-1"
        d="M279.03,285.56c6.12-.39,5.14,3.53,5.84,7.11.99-.93,1.5-1.22,1.69-1.63,1.06-2.22,1.62-4.64,5.65-3.32,1.7.56,1.52-1.02.62-1.85-1.52-1.4-1.9-2.63-.13-4.16.64-.54.27-2.36-.5-1.77-3.91,3.02-5.25-1.56-8.51-2.05.7,3.56.82,6.84-4.68,7.65h.03Z"
        style="fill: rgb(29, 29, 27);"></path>
      <path class="cls-1"
        d="M242.58,267.05c4.19-8.7,8.81-4.32,14.26-2.53-.52-2.07-.51-3-.94-3.58-2.23-3.16-5.12-5.8-.2-10.32,2.08-1.91-.22-2.87-2.06-2.27-3.09,1-5.08.58-5.81-3.03-.25-1.3-3.03-2.19-2.82-.68,1.13,7.69-6.19,6.01-9.38,10.11,5.43,1.79,10.02,4.16,6.9,12.33l.04-.03Z"
        style="fill: rgb(29, 29, 27);"></path>
      <path class="cls-1"
        d="M46.49,311.8c2.68-5.57,5.64-2.77,9.12-1.62-.33-1.33-.33-1.92-.6-2.29-1.42-2.02-3.27-3.71-.13-6.6,1.33-1.22-.14-1.83-1.32-1.45-1.98.64-3.25.37-3.72-1.94-.16-.83-1.94-1.4-1.81-.44.72,4.92-3.96,3.84-6,6.47,3.47,1.14,6.41,2.66,4.41,7.89l.03-.02Z"
        style="fill: rgb(29, 29, 27);"></path>
      <path class="cls-1"
        d="M425.08,336.96c-.08.38-.08.72,0,1.07v4.37c-2.48-1.04-4.68-1.67-6.73,2.58l-.03.02c2-5.22-.93-6.73-4.4-7.88,2.03-2.63,6.71-1.54,5.99-6.46-.13-.96,1.65-.39,1.81.44.44,2.17,1.59,2.55,3.36,2.03v3.84Z"
        style="fill: rgb(29, 29, 27);"></path>
      <path class="cls-1"
        d="M154.81,425.06c3.2-6.65,6.73-3.3,10.89-1.93-.39-1.58-.39-2.29-.72-2.73-1.7-2.42-3.91-4.43-.15-7.88,1.59-1.46-.17-2.19-1.57-1.73-2.36.76-3.88.44-4.44-2.32-.19-1-2.31-1.68-2.15-.52.86,5.87-4.73,4.59-7.16,7.72,4.15,1.36,7.65,3.17,5.27,9.41l.03-.02Z"
        style="fill: rgb(29, 29, 27);"></path>
      <polygon class="cls-1"
        points="284.31 697.84 287.73 697.93 272.32 730 271.05 726.45 284.31 697.84"
        style="fill: rgb(29, 29, 27);"></polygon>
      <polygon class="cls-1"
        points="416.79 742.97 319.61 738.08 305.58 698.42 401.5 700.98 416.79 742.97"
        style="fill: rgb(29, 29, 27);"></polygon>
      <path class="cls-1"
        d="M100.09,188.57c-6.06-.38-5.08,3.5-5.78,7.04-.98-.92-1.49-1.2-1.67-1.61-1.05-2.2-1.6-4.59-5.59-3.29-1.69.55-1.5-1.01-.61-1.83,1.5-1.39,1.88-2.61.13-4.12-.64-.54-.27-2.34.5-1.76,3.87,2.99,5.2-1.54,8.43-2.03-.69,3.53-.81,6.77,4.63,7.58h-.03Z"
        style="fill: rgb(29, 29, 27);"></path>
      <path class="cls-1"
        d="M136.18,170.24c-4.15-8.62-8.73-4.28-14.12-2.5.51-2.05.51-2.97.93-3.54,2.21-3.13,5.07-5.74.2-10.22-2.06-1.89.22-2.84,2.04-2.25,3.06.99,5.03.58,5.76-3,.25-1.29,3-2.17,2.79-.67-1.12,7.61,6.13,5.95,9.28,10.01-5.38,1.77-9.92,4.11-6.83,12.2l-.04-.03Z"
        style="fill: rgb(29, 29, 27);"></path>
      <path class="cls-1"
        d="M345.05,162.11c-2.68-5.56-5.63-2.76-9.12-1.62.33-1.32.33-1.92.6-2.29,1.42-2.02,3.27-3.7.13-6.6-1.33-1.22.14-1.83,1.32-1.45,1.98.64,3.25.37,3.72-1.94.16-.83,1.94-1.4,1.8-.44-.72,4.92,3.96,3.84,5.99,6.46-3.47,1.14-6.4,2.66-4.41,7.88l-.03-.02Z"
        style="fill: rgb(29, 29, 27);"></path>
      <g>
        <path class="cls-1"
          d="M94.44,8.4c-.8,1.26-1.7,2.68-2.86,3.87l-.72.75c-2.61,2.71-5.31,5.51-8.18,8.04-5.1,4.49-10.99,9-18.01,13.77-.04.03-.09.07-.13.11-.21.17-.49.4-.89.44-1.12.09-1.61.82-2.32,2.01-.09.15-.18.3-.27.44-3.08,4.95-6.45,10.91-8.06,17.55-.33,1.37-.45,2.85-.56,4.29-.04.52-.08,1.04-.13,1.56-.04.42,0,.87.12,1.23.87,2.73,1.7,3.23,3.02,3.23.39,0,.86-.05,1.44-.15,2.13-.38,4.09-1.26,5.81-2.62l1.45-1.14c3.03-2.38,6.16-4.83,9-7.48,2.4-2.24,3.22-2.86,5.43-5.24,1-1.07,2.03-2.18,3.06-3.25.14-.15.29-.26.42-.34.04-.03.08-.06.12-.08.14-.11.31-.16.47-.16s.34.06.49.17l.31.25c.17.13.27.33.29.54.02.21-.05.43-.19.59-.41.46-1.55,1.62-2.49,2.62l-.92.98c-4.39,4.7-8.92,9.56-14.33,13.39-2.34,1.65-5.1,3.48-8.38,4.22-.69.15-1.35.23-1.97.23-1.88,0-4.38-.76-5.67-4.39-.77-2.16-.87-4.55-.33-7.51.66-3.63,1.97-7.29,3.99-11.17,1.24-2.38,2.6-4.75,3.92-7.03.48-.83.95-1.66,1.43-2.49.06-.12.14-.23.2-.34.32-.52.39-.65.2-1.02-.25-.48-.28-.99-.09-1.46.23-.56.79-1.04,1.5-1.28,1.15-.38,1.81-1.28,2.57-2.32l.16-.21c6.27-8.5,13.4-15.69,21.19-21.38,1.85-1.35,3.83-2.47,5.88-3.6.54-.3,1.36-.7,2.22-.7.77,0,1.43.3,1.97.88,1.48,1.61.3,3.48-.15,4.18ZM89.46,8.56c-7.13,3.95-12.93,9.48-18.88,16.4,2.01-1.51,4.08-3.06,6.08-4.65,5.18-4.11,9.27-7.86,12.8-11.75Z"
          style="fill: rgb(29, 29, 27);"></path>
        <path class="cls-1"
          d="M109.92,46.29l-.59.72c-.42.51-.84,1.02-1.25,1.53-4.83,6.02-8.9,9.88-14.69,14.17-2.57,1.9-5.71,3.93-9.53,4.58-.54.09-1.12.14-1.73.14-.5,0-1.03-.03-1.57-.09-1.61-.18-2.66-1.2-3.51-2.14-2.86-3.14-2.46-6.59-1.59-9.84.11-.42.22-.85.33-1.27.16-.63.32-1.26.5-1.88.09-.35.28-.69.53-.97.34-.39.69-.77,1.03-1.16.42-.46.85-.94,1.26-1.42,2.27-2.69,4.72-4.46,7.49-5.43,1.15-.4,2.14-.6,3.04-.6.09,0,.18,0,.27,0,1.64.08,3.02.92,3.7,2.26.68,1.32.55,2.92-.33,4.27-.6.92-1.5,1.81-2.66,2.65-2.67,1.93-5.87,3.08-9.79,3.51-.16.02-.32.03-.5.03-.47,0-.94-.06-1.4-.13-.1-.01-.19-.03-.29-.04-1.12,2.7-1.16,5.12-.12,7.4.76,1.66,1.83,2.4,3.49,2.4.28,0,.57-.02.89-.06,2.33-.31,4.37-1.31,6.07-2.25,4.48-2.48,8.26-5.96,11.36-9.04,2.06-2.04,2.75-2.85,4.7-4.95.93-1,1.85-2,2.79-2.99.29-.3.72-.65,1.5-.66h0c.3,0,.58.17.71.44.13.27.09.6-.1.83ZM81.89,50.09c2.63-.53,5.31-2.07,6.59-3.55-2.38.29-4.46,1.41-6.59,3.55Z"
          style="fill: rgb(29, 29, 27);"></path>
        <path class="cls-1"
          d="M188.25.6c.38.42.55,1,.5,1.73-.09,1.18-.23,2.53-.81,3.68-1.25,2.46-2.4,4.65-3.93,6.63-2.41,3.12-4.93,6.01-7.48,8.57-3.2,3.22-6.59,6.36-9.86,9.4-.77.71-1.54,1.42-2.3,2.14-.83.77-1.77,1.19-2.72,1.19-1.06,0-2.04-.52-2.8-1.45-6,9.55-11.03,18.78-15.3,28.09,3.69-4.52,7.45-8.83,11.89-12.48,1.97-1.62,4.25-3.21,6.77-4.74,1.21-.74,2.71-1.31,4.57-1.74.62-.14,1.22-.22,1.8-.22,3.32,0,5.59,2.35,5.78,5.98.04.73.03,1.44.02,2.19,0,.03,0,.05,0,.08.24-.06.49-.11.73-.17,1.31-.3,2.55-.59,3.84-.83,1.34-.25,2.77-.43,4.51-.58.11-.01.22-.01.33-.01.42,0,.82.06,1.2.12.19.03.39.06.58.08.4.04.71.39.7.79v.49c-.02.39-.31.71-.69.76-.33.04-.66.08-1,.12-.71.08-1.44.17-2.14.28-1.09.18-2.19.37-3.28.56-1.37.24-2.79.48-4.19.71-.84.13-1.28.54-1.7,1.55-2.89,7.11-8.1,12.65-15.49,16.48-2.85,1.48-5.47,2.2-7.98,2.2-.34,0-.69-.01-1.03-.04-1.17-.09-2.35-.38-3.42-.82-1.26-.53-2.15-1.44-2.5-2.56-.25-.8-.21-1.67.1-2.52-.35.53-.7,1.07-1.04,1.61-.08.12-.15.24-.22.36-.31.52-.64,1.05-1.08,1.51-.36.37-1.05.68-1.55.68-.24,0-.44-.06-.62-.18-.53-.37-1.03-1.23-.92-1.98.11-.79.39-1.53.67-2.25l.12-.33c3.47-9.28,8.02-18.29,13.89-27.54,5.67-8.93,11.83-18.36,19.24-26.78,2.27-2.58,4.76-5.03,7.42-7.3,1.25-1.07,2.72-1.87,4.13-2.65.52-.29,1.06-.58,1.58-.88.55-.32,1.16-.46,1.57-.51.19-.03.37-.04.54-.04.67,0,1.2.2,1.57.6h0ZM144.61,68.08c.14.34.64.49.92.55.87.18,2,.38,3.1.38.5,0,.96-.04,1.38-.13,8.87-1.84,15.67-7.03,20.19-15.43-6.76,2.36-13.83,5.12-20.37,9.03-1.03.61-2.06,1.38-3.18,2.34-.66.57-1.26,1.27-1.74,2.03-.31.5-.43.95-.3,1.23ZM144.82,63.54c.37-.37.78-.73,1.23-1.04l.82-.55c2.2-1.47,4.48-3,6.93-4.11,5.37-2.44,10.96-4.65,16.21-6.68,1.26-.49,1.49-.98,1.48-1.72-.03-1.27-.05-2.71-.41-4-.4-1.43-1.66-1.73-2.65-1.73-1.74,0-3.33.69-4.66,1.37-3.33,1.69-6.44,4.07-9.8,7.5-3.3,3.36-6.36,7.03-9.15,10.94ZM186.53,2.51c-.13-.05-.26-.08-.39-.08-.36,0-.74.18-1.09.38l-.04.02c-1.47.81-2.99,1.65-4.23,2.71-4.43,3.79-8.66,8.36-12.93,13.98-1.88,2.48-3.7,5.08-5.46,7.6-.43.62-.87,1.24-1.3,1.86.4-.22.78-.46,1.13-.72,4.62-3.42,9.1-7.48,13.7-12.44,2.87-3.09,5.59-6.43,8.22-9.66l.55-.67c.58-.71,1.04-1.54,1.53-2.42.1-.19.21-.38.31-.56Z"
          style="fill: rgb(29, 29, 27);"></path>
        <path class="cls-1"
          d="M208.66,45.29c.26.23.33.61.18.92-.12.24-.21.44-.28.6-.14.32-.25.54-.4.77-4.24,6.24-7.85,9.88-14.68,15.8-2.11,1.82-5,3.99-8.72,4.55-.43.06-.85.1-1.24.1-3.11,0-5.04-1.94-5.17-5.18-.09-2.1.15-3.93.71-5.45.85-2.32,1.92-4.58,2.97-6.76.31-.66.63-1.31.93-1.97.31-.67,1.59-2.86,1.94-3.49.24-.44.49-.89.72-1.33.58-1.14,1.84-1.87,3.23-1.87.9,0,1.72.32,2.32.9.49.48.74,1.09.67,1.68-.07.56-.4,1.04-.94,1.37-4.17,2.47-7.08,8.16-8.76,12.2-.5,1.2-.83,2.61-.95,4.09-.09,1.17.16,2.14.71,2.74.42.45,1.01.69,1.71.69.53,0,1.1-.13,1.71-.38,1.73-.72,3.52-1.7,5.47-3,4.74-3.16,8.53-7.43,12-11.54,1.28-1.51.75-.82,1.97-2.36.65-.82,1.3-1.65,1.96-2.47.16-.19.33-.29.56-.42.11-.06.26-.14.46-.27.13-.08.27-.11.41-.11.19,0,.38.07.53.2h0ZM189.02,38.33c-.1-.99.26-1.99,1.02-2.83.88-.97,2.12-1.55,3.33-1.55.43,0,.85.07,1.24.22.93.36,1.57.97,1.79,1.73.14.49.18,1.26-.49,2.17l-.15.21c-.74,1.02-1.66,2.29-3.78,2.29-.08,0-.17,0-.26,0-.09,0-.17-.02-.25-.06-.05-.02-.11-.04-.19-.07-.32-.11-.84-.29-1.32-.58-.48-.3-.88-.94-.94-1.53Z"
          style="fill: rgb(29, 29, 27);"></path>
        <path class="cls-1"
          d="M246.24,47.42c-6.81,2.03-9.48,2.62-14.75,1.79-.26-.04-.54-.04-.78.05-.33.12-.56.41-.78.69-3.15,4.06-6.76,7.76-10.73,11.02-3.09,2.54-6.48,4.85-10.34,5.91-2.47.68-5.48.67-7.16-1.26-1.54-1.78-1.34-4.46-.75-6.74,1.26-4.85,3.85-9.24,6.57-13.46.53-.82,1.12-1.69,2.01-2.1,1.13-.52,2.5-.17,3.55.5.77.49,1.5,1.31,1.34,2.22-.16.9-1.08,1.4-1.85,1.9-2.29,1.5-3.79,3.92-5.2,6.27-1.49,2.48-3,5.08-3.19,7.97-.03.45-.02.93.22,1.32.41.66,1.3.81,2.08.8,3.41-.05,6.58-1.76,9.37-3.73,4.9-3.46,9.09-7.85,12.67-12.67-1.37-.69-2.14-2.41-1.73-3.89.41-1.48,1.94-2.57,3.47-2.46.87.06,1.75.52,2.11,1.31.65,1.41-.52,2.95-.74,4.49,6.94.86,8.02-.31,14.79-2.1.53-.14,1.15-.26,1.59.06.08.05.14.11.19.16.88.9-1.52,1.8-1.99,1.94ZM230.51,43.9s-.11-.09-.25-.11c-.05,0-.1,0-.15,0-.41,0-.76.26-1.2.86-.18.25-.29.54.09,1.04.2.26.41.51.62.77.47-.57.65-1.33.85-2.18l.04-.19c.02-.08.02-.15,0-.18Z"
          style="fill: rgb(29, 29, 27);"></path>
        <path class="cls-1"
          d="M277.05,45.4c.16.39,0,.85-.35,1.05-4.62,2.54-9.56,3.32-14.64,4.37-.12.49-.23.99-.33,1.47-.31,1.44-.59,2.79-1.26,4-2.54,4.62-6.34,10.12-13.27,11.74-.47.11-1.17.25-1.89.26h-.09c-1.65,0-3.06-.61-3.99-1.71-.89-1.06-1.27-2.53-1.07-4.13.27-2.1.79-3.88,1.56-5.3,1.02-1.89,2.21-3.7,3.36-5.45.58-.89,1.19-1.82,1.76-2.73.19-.3.34-.64.5-1.01.16-.35.32-.71.52-1.07.07-.12.14-.25.21-.38.34-.62.72-1.32,1.35-1.75,1.42-.98,3-1.47,4.68-1.47.99,0,2.03.17,3.08.52,1.81.59,2.82,2.15,3.56,3.59.21.4.41.81.61,1.22v.02c4.58-.8,9.27-1.7,14.72-3.7.09-.03.17-.05.26-.05.3,0,.59.18.72.49h0ZM259.69,51.25s-.1.01-.15.02c-1.38.19-2.8.4-4.2.4s-2.59-.2-3.7-.6c-2.08,2.03-3.6,3.96-4.76,6.05-.74,1.33-1.56,2.91-2.03,4.58-.48,1.67-.25,2.34-.07,2.59.19.26.56.4,1.1.4.43,0,.96-.08,1.56-.25,4.66-1.3,8.36-4.42,11.32-9.52.4-.69.59-1.56.79-2.48.05-.25.11-.5.17-.75.02-.08,0-.25-.03-.44ZM253.79,49.12c.77.1,1.54.16,2.32.16.95,0,1.94-.08,2.94-.24-.55-1.64-1.65-3.27-3.84-3.36.31.42.51.87.46,1.37-.08.83-.81,1.37-1.49,1.8-.13.08-.26.17-.39.27Z"
          style="fill: rgb(29, 29, 27);"></path>
        <path class="cls-1"
          d="M323.1,45.51c.29.25.35.67.16.99-.07.11-.13.23-.2.34-.15.27-.31.55-.5.83-4.48,6.36-8.76,10.5-15.38,15.46-1.68,1.25-3.95,2.77-6.66,3.4-.6.14-1.2.21-1.77.21-3.08,0-5.41-2.02-6.09-5.27-.39-1.87-.29-3.69.31-5.41.44-1.28.96-2.55,1.47-3.77-3.2,3.24-6.65,6.55-10.49,9.32-2.11,1.52-4.45,2.99-7.27,3.48-.49.08-.98.13-1.45.13-3.69,0-6.26-2.59-6.41-6.45-.07-1.89.29-3.79,1.12-5.82,1.27-3.11,3.2-5.93,5.76-8.39.99-.95,2.05-1.43,3.17-1.43.45,0,.9.08,1.35.23.65.22,1.51.83,1.84,1.62.52,1.23-.54,1.95-1.05,2.29l-.17.12c-3.84,2.68-6.14,5.99-7.03,10.12-.16.76-.2,1.55-.11,2.24.12.91.55,1.99,1.89,1.99.23,0,.47-.03.73-.09,1.58-.37,2.88-.88,3.88-1.52,2.37-1.53,4.38-3.02,6.12-4.58,2-1.78,3.96-3.68,5.86-5.52,1.08-1.04,2.19-2.12,3.3-3.17.81-.76,1.63-1.47,2.5-2.22.4-.34.8-.68,1.2-1.04.14-.12.33-.19.52-.19.04,0,.07,0,.11,0,.22.03.42.16.55.35.81,1.23.24,2.16-.06,2.66-.05.08-.1.16-.14.25-.37.71-.75,1.42-1.14,2.13-.65,1.21-1.32,2.45-1.92,3.7-.52,1.08-.98,2.32-1.37,3.69-.26.93-.41,1.92-.42,2.86-.03,1.85.39,3.25,1.19,4.07.58.59,1.39.89,2.39.89.76,0,1.62-.17,2.57-.5,1.38-.49,2.82-1.21,4.13-2.1,5.96-4,9.91-7.76,15.36-15.25.16-.22.33-.42.5-.6.07-.08.14-.15.21-.23.13-.16.33-.25.54-.27.02,0,.04,0,.06,0,.19,0,.37.07.51.19l.34.29h0Z"
          style="fill: rgb(29, 29, 27);"></path>
        <path class="cls-1"
          d="M359.57,45.3c.26.18.39.51.32.82-.03.12-.05.25-.08.37-.06.31-.12.63-.24.95-1.86,5.19-4.1,8.44-8.64,13.78-1.75,2.06-3.73,4.16-6.35,5.53-1.24.65-2.87,1.4-4.52,1.44-.07,0-.14,0-.21,0-3.41,0-5.71-2.35-6.01-6.14-.22-2.77.2-5.62,1.28-8.71,0-.03.02-.06.03-.09-2.64,3.2-5.3,6.28-8.49,8.92-1.7,1.41-3.22,2.45-5.11,2.99-.59.17-1.17.25-1.72.25-2.53,0-4.35-1.71-4.74-4.46-.27-1.9.02-3.83.86-5.74,2.29-5.22,5.97-9.21,10.96-11.88,2.02-1.08,4.15-1.63,6.31-1.63,1.66,0,3.36.32,5.05.96,1.24.47,2.63,1.16,3.53,2.77.13.24.13.52,0,.76-.1.19-.21.38-.32.57-.25.43-.5.88-.73,1.34-2.07,4-3.3,7.82-3.73,11.69-.18,1.6.02,3.06.61,4.34.53,1.16,1.29,1.74,2.26,1.74.33,0,.68-.07,1.05-.19,1.47-.51,2.83-1.19,3.93-1.98,3.76-2.69,7-6.48,10.19-11.94.85-1.46,1.58-3.04,2.28-4.58.33-.72-.08.21.27-.51.2-.41.46-.96,1.1-1.38.13-.09.28-.13.43-.13s.31.05.45.14h0ZM336.16,46.93c-.59-.58-1.26-.87-2.03-.87h-.62c-1.37.03-2.78.04-4,.41-4.3,1.29-7.77,4.1-10.33,8.35-.83,1.39-1.26,2.87-1.28,4.4-.01,1.2.25,2.11.76,2.62.32.33.75.49,1.28.49h0c.55,0,1.18-.17,1.87-.52,1.14-.56,2.33-1.36,3.52-2.38,1.19-1.01,2.35-2.19,3.45-3.5,1.86-2.21,3.65-4.41,5.53-6.74.61-.76,1.23-1.52,1.85-2.28Z"
          style="fill: rgb(29, 29, 27);"></path>
        <path class="cls-1"
          d="M386.93,46.5c-.3,1.06-10.89,13.89-18.11,18.54-2.23,1.44-4.64,2.88-7.51,3.35-.46.08-.94.11-1.4.11-4.38,0-7.93-3.25-8.25-7.56-.12-1.54.02-3.22.41-4.85,1.22-5.18,4.11-9.4,8.58-12.54,1.19-.84,2.53-1.28,3.85-1.28,1.82,0,3.55.82,4.89,2.32.4.45.88,1.05,1.09,1.76.05.16.43,1.55-.24,2.33-.52.6-1.47.66-1.86.66-.14,0-.27,0-.4-.02-1.42-.17-2.52-.99-3.02-2.26-.19-.47-.34-.47-.42-.47-.09,0-.27.03-.55.16l-.19.09c-.69.31-1.34.6-1.89,1-3.48,2.57-5.64,6.11-6.42,10.5-.1.56-.13,1.17-.1,1.76.18,3.36,2.1,5.37,5.12,5.37.56,0,1.16-.07,1.77-.21,2.49-.58,4.9-1.75,7.16-3.49,5.51-4.23,10.41-9.11,14.56-14.49.3-.39,1.15-1.56,1.15-1.56.1-.19.28-.33.49-.38.07-.02.13-.03.2-.03.14,0,.29.04.41.12l.35.22c.3.18.44.54.34.88Z"
          style="fill: rgb(29, 29, 27);"></path>
      </g>
    </g>
  </g>
</svg>