<svg xmlns="http://www.w3.org/2000/svg" viewBox="0 0 840 1680" width="840px" height="1680px">
  <g id="Calque_2" transform="matrix(0.934633, 0, 0, 0.996481, 180.049698, -372.459625)" style="">
    <g id="Calque_1-2" data-name="Calque 1" transform="matrix(1, 0, 0, 1, -191.93692, 370.215302)">
      <g>
        <path class="cls-1"
          d="M438.72,156.81c-6.07-.52-13.45,1.94-16.16,8.48-1,1.37-2.6,3.89-2.96,3.03l-1.99-4.71c-1.09-2.58-1.32-7.58-3.29-8.54-1.97-.96-6.32-2.46-9.49-3.6l7.91-3.62c4.23-1.94,2.04-15.55,4.08-14.4l4.61,2.57c4.97,2.78,11.17,3.64,15.99,1.6-.46,5.93-.29,11.22,1.31,19.19Z"
          style="fill: rgb(29, 29, 27);"></path>
        <path class="cls-1"
          d="M741.24,108.34l-19.09-.76c-2.5-3.75-6.81-9.63-14.25-13.73,7.44-2.84,14.9-8.78,16.8-15.91,4.44,4.64,9.78,7.09,16.64,7.13l-4.34,9.68c-1.16,2.59,2.83,8.26,4.23,13.61Z"
          style="fill: rgb(29, 29, 27);"></path>
        <path class="cls-1"
          d="M152.73,27.38c5.3,9.49-11.66-2.58-19.04,4.82-1.27-6.46-4.45-10.6-12.82-15.43l11.77-7.37,3.41-9.4c5.89,5.16,8.78,6.68,16.81,8.56l-4.03,9.06c-.95,2.14,2.44,7.17,3.88,9.76Z"
          style="fill: rgb(29, 29, 27);"></path>
        <path class="cls-1"
          d="M651.14,507.26c-5.53,1.5-9.37,4.38-13.81,8.75l-3.75-8.68c-.8-1.85-5.71-2.68-7.62-3.49,2.89-1.3,6.64-2.07,7.18-3.7l2.65-8,14.55,3.08.79,12.04Z"
          style="fill: rgb(29, 29, 27);"></path>
        <path class="cls-1"
          d="M83.51,762.82c-4.49,2.49-9.64,5.97-13.48,9.19l-6.27-12.25,4.66-11.67,14.45,3.41.64,11.33Z"
          style="fill: rgb(29, 29, 27);"></path>
        <polygon class="cls-1"
          points="494.42 178.72 482.55 185.91 474.99 175.53 481.74 165.41 494.07 168.66 494.42 178.72"
          style="fill: rgb(29, 29, 27);"></polygon>
        <polygon class="cls-1"
          points="149.5 357.78 138.46 358.66 130.69 349.02 140.46 339.23 149.37 343.77 149.5 357.78"
          style="fill: rgb(29, 29, 27);"></polygon>
        <polygon class="cls-1"
          points="625.8 550.84 614.48 558.31 607.39 547.82 613.74 538.09 625.93 540.97 625.8 550.84"
          style="fill: rgb(29, 29, 27);"></polygon>
        <polygon class="cls-1"
          points="596.69 356.38 585.28 357.7 578.62 347.68 587.72 338.05 596.25 342.68 596.69 356.38"
          style="fill: rgb(29, 29, 27);"></polygon>
        <path class="cls-1"
          d="M897.83,874.94c-.9,1.91-5.79,4.76-9.69,6.54l9.81,4.36-9.72,13.54-19.85-5.04c-3.5,4.1-8.52,10.91-12.29,16.4,6.16-.45,14.04-3.27,17.01-.83l10.51,8.62-15.56,28.79,13.2,3.25,12.59-19.88.36,11.2c1.62.92,4.53,8.39,3.18,11.42l-17.89,40.05,5.05,1.48c1.5.44,4.42-2.72,5.03-4.56l6.6-20.18c1.67,8.99,2.34,19.4-.4,25.91-2.72,6.47-17.69,36.57-8.53,39.03l9.58-18.84.54,22.75c-20.99.98-37.9,3.42-53.29,18.14l51.56,7.44c2.48,2.54,3.03,11.77,0,13.23-.49.24-4.27-1.11-4.78-.91l-2.13.85c2.35,1.72,6.18,3.66,5.34,4.29l-5.6,4.14,9.56,5.22-.81,22.03-25.62-11.12-6.08,13.23-5.33-7.92c-1.88,3.18-6.25,8.78-10.08,10.16l-13.42,4.84c3.75,2.22,9.73,4.48,12.75,3.6l38.53-11.16c9.54,3.4,12.6,18.43,7.08,23.19-1.31,1.13-8.22,2.06-7.67,3.6l2.71,7.65-44.23-6.65-18.98-4.36c7.17,9.6,16.81,1.38,26.42,10.03l-28.46,1.89c-1.58.1-6.33-4.97-7.13-3.69l-4.22,6.84-22.83-15.71,2.41,54,20.93-20.84c1.94,3.76,1.32,11.28-1.83,14.96l-19.63,23,1.51,77.88,20.14,7.18c-7.92,3.24-12.05,2.86-20.04,2.59l1.63,119.49,59.66-14.73c-3.29-10.42-6.74-16.48-10.62-24.44l-24.03-49.32,31.72,10.64c17.69,7.59,32.58,17.75,45.1,33.76l-.15,314.56H2.54s-.37-249.28-.37-249.28c0-3.59-4.86-8.02-.04-10.8l.61-44.41c4.18-7.47,14.07-17.59,20.42-24.46l-2.41-5.09c3.76-.75,9.78-1.96,12.5-3.38l28.2-14.79-.82-3.82c-.2-.93,3.87.81,5.02.89,11.24.76,21.62-5.45,30.5-12.02l14.79-10.96-12.63-3.07,22.12-12.32c-13.21,2.17-24.35,12.36-37.21,6.2-31.24-14.96-19.02.09-39.19-10.24l23.56-5.94-25.69-11.91,10.36-6.72-20.28-17.24,38.29,2.38c11.25.7,23.72-5.94,34.14-6.27l28.88-.92,17.63.05c5.81-3.19,8.78-14.4,7.85-22.34-.34-2.89-6.4-7.36-9.28-7.19-2.88.17-6.32,5.48-7.97,8.17-6.92,11.27-19.79,4.6-28.36,5.01-16.89.79-31.29,9.46-48.9,1.43l9.34-5.46-16.01-20.27-15.93,1.83c-3.3.38-7.06-.77-10.02-3.36l17.77-5.49-4.09-2.9c-.42-.3-1.48-.51-1.17-.84l3.43-3.65c-7.02-12.2-18.85-29.19-25.79-43.22-5.86-11.86-7.22-25.03-13.58-35.87-3.21-5.48-6.89-9.16-4.74-16.91,30.14,36.26,7.93,36.29,48.93,90.06,1.92,2.51,4.03,5.19,5.47,6.73,1.74,1.85,10.18.32,10.31-1.01l-3.24-6.23c-.64-1.23,5.6-3.47,7.39-3.25l32.19,3.97-15.94-10.5c35.99-4.54,36.42,12.24,71.45-4.17-.07-2.75-3.57-9.53-6.03-8.95-2.48.59-6.93,2.67-9.76,4.23l-8.43,4.63c-2.04,1.12-4.85-6.18-7.31-6.94l-33.37-10.27,60.45-8.02c4.12-.55,5.04-9.34,3.88-13.33-2.5-8.58-17.92-5.2-23.09-3.81-2.18.58-2.13,3.6-2.91,8.23-13.42,3.61-26.5,6.09-43.15,7.92l13.2-13.76-23.87-7.18-.44,5c-.12,1.33-5.73,2.58-5.86,1.21l-2.74-30.46-14.07-11.99,13.81-.05c-.5-10.1-2.56-21.02-5-32.08l-9.96-45.19c-15.99-14.74-31.36-30-46.51-46.4-4.41-4.77-6.91-9.84-6.98-16.57-.05-5.46,6.4-8.4,11.34-12.67l96.92-83.74c8.04-6.95,12.24-5.87,24.78-1.76l-6.17-7.98c6.33-.71,15.19-1.29,22.34-2.8,9.65-2.03,10.63-17.79,6.82-23.93l-11.39-5.78c2.46-2.6,11.76-8.34,12.45-12.86l4.26-28.1,5.51,37.11,15.29,12.36,30.52-27.42c-96.97-63.48-126.73-187.98-72.28-286.91,54.58-99.17,177.1-140.05,281.08-93.46,103.35,46.31,154.41,164.49,115.67,272.05,42.64,45.2,57.6,83.72,108.88,125.05l52.73-29.28-18.35-8.95c12.63-6.37,23.46-8.79,37.65-9.19,42.8-1.23,16.94-13.99,42.16-18.9-.09-.42-1.01-2.34-.79-3.17l1.6-6.1-44.98,19.59-7.98-10.64-16.33,8.97.2,5.31c.04,1.03-5.15,1.51-6.02.83l-24.98-19.51c12.43.3,18.22,1.88,29.33.99l-12.43-7.12c19.17-9.44,27.65,6.23,42.98-4.64-1.94-3.53-3.73-7.42-3.91-9.32,14.02-.88,25.46-1.35,36.82-6.36,8.7-3.84,13.44-16.24,8.43-21.96l-18.68-2.45,7.42-6.88-17.17-.08c-7.32,7.19-19.55,11.68-27.01,4.31l2.64-5.14-29.72-7.17,29.38-3.13-2.99-5.71,20.25-4.99c-.3-2.04-2.65-7.5-1.08-7.64l8.15-.72,8.15-.72c1.83-.16,1.05-4.5,1.57-7.48l15.97-.27-3.42-2.53c-.91-.67-3.59-3.41-2.52-3.8l5.84-2.11,5.12-3.01c1.25-.73,1.01-5.02.32-6.28-.92-1.68-6.82-1.47-8.48-.42l-17.97,11.33c-6.18-13.77-16.25-16.21-30.87-17.94,1.07-1.27,5.35-3.47,4.55-4.5l-5.01-6.51,26.37-.2,27.19-8.61c2.4-.76,6.12-6.35,4.97-8.47-1.15-2.12-5.66-2.91-10.35-4.04,5.86-6.06,12.27-9.49,9.31-19.49l-17.74,3.7c-2.89.6-7.61-.91-10.35-3.64l12.6-9.55-29.61-9.54,17.93-8.45c5.07-1.55,13.2-2.52,20.42-3.72l7.16-17.34c-4.64-1.26-11.24-2.9-14.93-2.84-1.52.02-3.32,4.99-4.25,6.15-5.27,6.63-11.67-11.4-28.88-16.01l23.17-5.5-6.7-6.99c8.67-.77,17.88-.61,24.51-3.2,8.8-3.43,8.33-17.66,4.94-23.32l-10.34-6.01,11.94-10.89,3.77-30.08,5.74,37.03,9.86,8.17c.91.75,2.81,3.44,3.38,4.44.76,1.34-2.03,5-3.51,4.52l-7.17-2.3c-8.45,18.49,30.91,25.84,43.74,32.76-10.14,6.68-21.06,12.56-30.3,17.07l-9.71,25.79,11.75-.04c.08.28.83,2.85.78,2.67l-3.89,2.47c-3.31,2.11,4.34,2.35,4.46,2.38l7.35,1.69c1.75.4,1.02,4.37,1.59,8.11l20.12-2.12c4.75-.5,9.93,1.9,13.99.55l5.94-1.97c1.26-.42.52,5.04.88,5.38l14.35,12.11-25.17,2.83-1.55,5.75-16.08,2.98,7.52,3.1c-13.14,4.06-27.84-1.75-40.59,8.98l63.23-3.08c-4.08,5.67-9.25,10.1-15.73,13.89l26.72,2.65c-6.89,8.91-15.64,13.04-24.9,16.74l10.1,6.03-32.34,3.13,13.64,6.82,1.29,7.72c-19.01,5.43-30.46-7.85-41.01,1.3,12.92,23.52,54.3,1.58,54.35,7.59l.05,5.81c8.35,2.79,17.61,4.98,27.07,6.26l-18.83,6.82c8.95,5.34,15.8,6.28,25.7,7.95-20.12,3.27-30.92,17.05-45.94,5.15-13-10.3-15.11.99-39.67,7.51-1.28.34-3.93,4.3-2.94,4.99,10.96,7.6.14-3.41,26.48,5.39l30.93,10.33c3.3,1.1,10.97-.87,16.14,1.87-12.68,9.67-27.21,12.01-43.16,6.31l-4.38,12.44c-6.44-2.41-13.65-4.8-21.69-5.57-3.14-.3-4.98,10.97-1.82,11.82,22.93,6.11,34.18-8.61,43.4-4.53,2,.89,3.85,8.22,1.89,9.01l-16.93,6.84c28.82.73,37.67-10.2,69.39-9.35-.06,1.62.26,6.78,1.83,6.8,4.89.06,16.56,6.83,13.55,11.77-1.69,2.78-4.28,5.77-3.86,7.57.87,3.67,2.89,11.97,1.61,15.06-1.46,3.53-8.2,5.03-14.61,7.88l14.54,7.7-9.63,5.23c10.83,13.74,12.17,29.69,7.92,45.09l-3.66-18.39c-1.36-6.83-5.34-21.25-13.19-22.09-9.4-1.01-16.03-2-26.87-4.42l-18.93,25.58c12.17,8.75,25.55-8.04,55.4,6.43l-16.52,8.34-10.92-2.62c-2.43-.58-4.26,6.22-4.86,9.52,11.65-1.67,28.46-1.8,39.83,1.88,2.42.78,2.39,10.15.1,10.68l-12.2,2.81,14.16,4.92ZM448.2,936.94c15.65,20,31.77,37.76,51.67,54.65l31.27-26.36c5.6,1.26,13.15,3.26,17.32,5.66l75.15,43.18,6.79-7.78c1.17-1.34-2.82-5.35-3.47-5.91,7.24-1.17,11.53-3.82,16.26-8.62l44.39-44.95c-14.85-13.14-28.43-1.06-35.02-10.3l21.55-5.79-25.38-11.8,9.98-6.82-18.74-16.36,24.46-.08-7.44-45.58c-6.89,1.11-13.02,2.45-19.04-1.75l15.7-5.15-1.48-4.58c1.5,4.63,9.41-13.9-16.28-37.6-48.35-44.61-59.85-74.69-92.63-108.53-22.41-23.13-45.23-44.47-63.92-70.69-7.74-10.86-15.36-21.31-26.99-28.22-47.92-28.49-50.41-55.94-92.53-73.94-9.34,49.31,33.01,49.21,38.06,72.34,10.28,47.14,20.81,38.19,36.35,85.82,9.88,30.3,28.5,54.23,45.95,82.58-44.1-28.14-53.23-101.69-85.78-146.34l-10.35,32.37c-1.79,5.6-6.98,12.5-11.71,15.92l-26.31,19.06,29.15,15.36-27.91,13.85c-3.68,1.83-6.87,9.58-3.75,13.33,15.53.69,32.71-.54,48.39-2.03l-2.05,14.63c13.71,6.39,25.33,12.66,35.31,22.88,28.31,29.03,55.85,34.31,69.21,49.76l42.46,49.08c-19.37-1.58-35.46-38.8-56.62-51.82l-47.97-29.53c-87.58,36.82-46.22,61.18-73.33,114.43-4.92,9.66-8.95,17.91-9.92,30.05l37.35-36.55c22.67,6.52,47.28,33.5,61.84,52.11ZM354.44,556.28c1.09-2.09-.86-9.11-2.51-10.21-5.13,12.45-8.59,22.16-10.61,35.34l13.12-25.12ZM195.36,889.65l55.38-90.33c26.04-42.47,45.35-84.17,64.52-130.34,13.22-31.85,31.04-69.1,45.46-97.93.83-1.65,1.09-5.41.88-6.2s-2.26-1.46-2.84-.87-2.23,2.46-2.59,3.24l-73.47,159.89c-19.24,41.86-42.07,77.76-67.68,115.51-2.66,3.92-4.95,7.68-8.09,11.86l-18.99,25.3c-1.51,2.01-1.57,7.29-.64,9.26.74,1.57,6.98,2.39,8.08.59ZM380.12,584.11c.27-1.45-2.08-6.89-2.9-6.07s-3.32,3.3-3.9,5.04l-29.67,88.39c18.44-26.68,25.36-59.41,36.47-87.35ZM201.58,897.42c25.31-23.79,38.33-53.22,57.16-79.19l53.5-98.88c22.82-42.17,37.56-86.74,51.69-134.26-13.11,17.06-20.61,36.19-28.78,56.14-21.75,53.08-44.83,103.84-72.79,153.97-19.4,34.78-44.53,64.41-60.77,102.21ZM376.99,644.81l15.04-47.13c.89-2.77-2.68-8.8-5.31-9.81-5.37,13.59-10,25.17-14.19,37.98l-10.38,31.76c5.44-1.67,12.92-6.78,14.84-12.8ZM270.35,683.88c-4.41,14.58-9.12,27.62-10.7,43.18,13.97-34,31.56-61.92,51.54-93.35-10,10.61-17.6,21.06-27.8,30.84-5.44,5.22-10.83,12.01-13.04,19.33ZM189.92,836.89c7.53,4.67,10.39,5.5,16.01,6,38.4-53.61,72.25-108.66,93.11-172.06-11.86,11.66-18.63,26.6-24.49,42.31-18.08,48.52-45.6,89.87-84.63,123.75ZM296.81,925.74c15.28-25.16,26.52-48.6,37.48-74.28l15.77-36.96c11.83-27.72,22.4-53.77,31.84-83.23-6.29-.83-13.25.33-16.87,3.22l-18.61,72.05c-6.14,23.78-14.7,47.58-30.04,66.78l-34.22,42.82c1.54,5.65,8.04,10.23,14.65,9.61ZM311.34,866.79c4.14-9.95,57.04-143.28,42.55-134.2-1.03.65-4.78,2.86-5.51,4.77-9.22,24.08-20.49,57.09-28.24,84.15-6.69,23.38-14.56,42.7-24.49,65.21,6.78-4.29,11.72-10.39,15.69-19.94ZM318.73,800.85c4.26-15.26,9.24-29.53,15.38-44.12,2.98-7.07,6.08-13.39,3.61-22.45l-25.1,56.79c-16.49,37.31-33.45,76.46-47.58,114.41-.64,1.72.35,5.36.97,6.65.61,1.27,6.43-.27,7.17-1.65,28.36-52.81,28.65-49.05,45.55-109.64ZM256.56,906.23l37.64-89.94c10.47-25.02,22.42-47.81,29.77-75.27-14.24,15.42-26.49,31.72-34.47,50.27l-48.83,113.59c2.54,2.69,14.44,4.82,15.89,1.35ZM387.04,793.32l12.94-39.2c.66-2-3.29-6.23-6.51-6.7l-17.45,56c4.63-2.73,7.89-6.05,11.02-10.1ZM399.24,783.76c14.27-6.66,15.82-21.13,9.27-30.79-4.11,10.78-7.34,21.13-9.27,30.79ZM299.76,933.78l15.09,11.74,64.49-177.72c-15.92,29.5-26.96,60-40.48,90.72-11.59,26.56-24.41,50.43-39.1,75.26ZM764.77,787.3c2.93-2.24,2.14-12.71-.88-14.51-5.82-3.47-18.57-3.52-21.82,1.12l-6.39,9.13c5.85,8.03,20.11,11.15,29.09,4.26ZM186.81,829.6l22.72-20.87c5.98-5.5,11.53-12.09,13.23-20.19l-47.21,39.25c.04,1.61,3.53,6.06,5.3,5.54,1.42-.41,4.28-2.19,5.96-3.73ZM704.74,788.64c-19.11,2.27-29.74,15.57-42.46,25.15,16.72-4.05,30.8-13.55,42.46-25.15ZM797.95,820.37l9.71-15.54-13.53-12.2-10.48,14.14c1.09,6.34,7.07,11.96,14.3,13.6ZM658.22,836.52c18.95-11.56,36.12-21.08,49.84-37.27-4.42-2.01-61.63,31.79-49.84,37.27ZM830.62,825.29l16.45-24.54c-1.54-1.57-8.57-2.52-8.55-.54l.07,7.58c-8.81,1.85-15.99,10.75-15.73,16.78.06,1.35,6.96,1.92,7.77.71ZM765.38,813.13c.88-2.99-6.7-8.03-8.86-6.57l-10.8,7.28c3.86,6.07,17.54,6.51,19.66-.71ZM232.77,903.83l23.23-48.96c5.55-11.69,9.15-23.36,11.61-36.14l-53.72,80.18c6.76,3.78,12.8,5.61,18.88,4.92ZM337.03,932.77l18.44-53.87c4.33-12.64,9.81-24.54,6.72-38.82l-41.32,109.89c8.41-2.9,13.47-9.35,16.16-17.2ZM684.69,855.02c-11.36-2.02-17.39,9.03-17.77,19.87l17.77-19.87ZM16.81,946.24l67.89-59.37c10.78-9.43,19.56-19.45,28.45-30.61-9.98,5.01-15.75,10.08-25.04,18.19-23.79,20.75-58.59,51.11-78.61,68.56-2.34,2.04.08,6.72,1.25,6.23,1.14-.47,4.97-2.04,6.06-2.99ZM134.09,864.16c-2.72-1.99-7.46-6.05-8.2-4.29-2.28,5.38,1.18,16.41,6.03,19.01,6.29,3.37,18.54,2.61,21.75-1.6-1.97-11.33-14.51-9.43-19.57-13.12ZM804.99,862.15l-7.58-3.36-14.44,15.54c10.42,5.33,19.06-1.61,22.02-12.17ZM762.53,861.55l-24.01,26.87c7.7,9.2,35.04-21.06,24.01-26.87ZM49.55,937.39c10.36-8.09,16.79-18.56,25.43-26.77,12.29-11.67,25.66-21.12,39.24-31.43,4.44-3.37,6.33-9.43,1.31-13.42-30.67,29.46-64.46,59.59-96.41,87.25-1.61,1.4-2.53,6.01-1.17,5.79,1.04-.16,5.08-.72,5.91-1.37l25.69-20.05ZM733.02,884.62l8.25-10c-7.22,1.26-14.55.45-22.91-1.74-2.92.65-5.68,11.72-3.69,14.97,4.05,6.61,14.05,1.97,18.35-3.23ZM683.01,879.78c-1.6-.91-5.98-2.88-7.36-2.02-4.14,2.58-8.89,13.2-1.96,18.77l9.32-16.75ZM697.95,885.05c.84-1.75,2.29-7.13.53-7.01-1.32.09-7.09-.02-7.73,1.13l-9.07,16.32c4.19.54,10.92.72,12.05-1.63l4.22-8.8ZM88.41,930.48c12.84-10.26,23.57-23.06,34.53-34.54l-8.92-5.44c8.1-3.26,15.76-.52,13.13-10.33-47.87,23.48-47.32,46.65-97.14,80.44-2.81,1.91-4.12,8.87-2.51,10.62,1.61,1.75,7.28,2.11,9.19.59l51.72-41.34ZM846.19,913.64l13.63-20.61c-5.31-3.3-8.77-3.43-11.18.67-2.09,3.55-2.13,3.68,1.08,9.58l-10.43,8.45.45,2.92c.12.77,6.01-.34,6.45-1.01ZM711.05,1132.21c-10.09,7.53-14.59,15.29-22.42,26.46l-10.51-16.84-9.87,9.01-10.12-12.84,17.3-6.08c-22.29.23-28.76,12.5-44.67.69l9.25-4.23-18.5-7.1,26.2-2.95-5.49-8.98c17.3,2.87,31.9,8.73,48.69,9.41,25.63,1.03,50.93-7.94,73.02-20.35,4.49-2.52,0-12.42-3.54-14.75-5.17-3.4-8.81.23-14.64,3.17l-15.24,7.68c-10.42-7.39-29.65-6.74-42.75,2.52l-16.1,1.63,4.37-7.22c-7.37.42-11.9-.04-17.4-3.4l10.11-7.84-30.42,9.45,7.82-11.21-16.63,7.8c-6.64,3.11-12.62,4.54-21.24,3.86l8.46-7.97-11.68-2.56,6.46-5.13c-11.96-2.26-23.45,1.12-30.27-5.38-18.24-17.4-34.59-37.04-55.42-50.66-30.91-20.2-56.65-41.69-78.16-72.14-15.52-21.98-34.84-40.9-58.79-52.64-.92,11.72,5.55,22.68,9.44,32.13l-6.03,11.29c-1.35,2.54,2.97,8.96,5.16,11.5,11.5,13.33,20.4,28.79,28.89,45.35l23.97,46.73c-5.35,1.15-7.7-.65-9.41-3.85l-30.21-56.62c-10.66.33-60,29.21-48.67,39.82,19.72,18.46,5.05,39.06,8.03,49.75,13.79,49.4,46.45,35.86,71.01,86.28,3.69,7.57,12.14,18.36,20.59,19.79l61.3,10.39c19.65,3.33,44.44-16.46,62.07-4.67l41.37,27.66c40.95,27.37,63.06,8.44,79.06,24.38,17.39,17.34,35.55,30.75,59.66,41.74l1.09-97.26-20.38-18.03,20.38,3.11-1.53-24.85-11.64,10.15,3.08-16.05c-4.92.31-11.65,34.3-18.6,24.93-2.75-3.7-3.3-6.72-5.09-6.61l-8.52.55,12.62-18.09-24.14,7.99-1.31-8.9ZM156,924.76c2.43-1.91,4.43-8.91,2.16-10.92-8.6-7.6-16.79,6.8-27.74-2.85l11.93-9.62c-1.12-1.42-10.63-4.75-12.98-2.32l-22.53,23.39,50.3,13.42c.78.2,4.04-1.29,3.1-1.95-7.72-5.44-12.89-2.32-8.92-5.45l4.68-3.69ZM311.54,993.86l72.43-73.41c1.97-2,1.2-6.83-1.11-9.77l-34.5,36.52c-30.22,31.99-66.05,56.42-101.88,83.03,4.05,15.22,62.31-33.57,65.06-36.36ZM235.33,981.81l-30.78,3.55c8.42,3.91,11.24,5.33,14.67,13.58l-17.97,3.13c9.38,5.85,18.64,9.64,29.65,4.01l2.11,8.81,62.71-39.1c7.74-4.83,13.76-11.56,21.19-18.47l-18.43-16.88c-14.6-13.38-32.18-21.85-50.67-26.3l3.19,8.55-24.91,1.95c-.22,2.45.55,5.4-.87,5.72l-7.89,1.75-5.25,1.15c-.52.12.08.57.61.86l4.71,2.55-9.46,2.36c10.04,6.43,18.77,3.89,30.14,3.76l-7.58,12.86,21.15,4.23c-8.27,7.05-15.37,11.54-23.95,15.47l7.61,6.46ZM45.58,985.94c18.14-20.2,38.1-32.43,53.01-51.57-7.32,2.99-13.58,7.41-20.15,12.73l-40.05,32.44c1.13,2.09,5.83,6.48,7.18,6.39ZM65.94,993.98c18.62-19.12,35.67-37.88,50.37-61.16-26.13,15.75-45.47,37.33-64.14,58.4,3.26,5.02,10.1,6.53,13.77,2.76ZM338.03,996.87l51.59-45.45-6.61-17.58-14.52,19.86-30.46,43.17ZM143.81,936.79c-11.22-.07-17.79,6.68-21.98,14.92,2.33,5.39,24.88-10.73,21.98-14.92ZM201.53,943.28c-9.09-6.21-17.7-4.12-24.23,1.38,9.27,2.74,17.73,2.18,24.23-1.38ZM805.61,946.73l-2.09-6.45c-14.6,6.98-23.86,22.86-16.61,38.37l18.7-31.91ZM747.72,978.16l14.78-22.2c1.82-2.73,1.07-8.34-1.56-11.66l-24.23,35.74c3.97.71,9.48.42,11-1.88ZM822.35,943.88l-22.19,39.94,5.36,2.95,22.19-39.94-5.36-2.95ZM698.71,947.59c-12.98,9.38-20.71,18.49-30.84,29.11,5.56,13.35,30.65-25.58,30.84-29.11ZM852.05,950.2c1.91-23.31-35.85,49.59-27.42,44.01,11.49-13.56,18.96-28.8,27.42-44.01ZM719.1,981.26c6.95-.05,12.95-3.63,13.86-9.6l2.8-18.4c-.62-3.15-10.11-1.13-11.95,1.62l-21.03,31.36,19.32,1.13-3.01-6.11ZM694.54,984.35l19.43-27.4-10.29-2.53-20.78,27.39c2.3,1.95,10.13,4.67,11.64,2.54ZM871.19,993.72c5.28-10.02,12.98-27.68,16.47-37.36.48-1.34-4.65-3.96-5.4-3.02-.48.61-1.75,2.15-2.31,3.19l-20.93,38.77c2.09,1.11,10.76,1.07,12.16-1.58ZM407.95,973.53l-10.35-11.13-16.29,21.26,26.63-10.13ZM97.98,994.66l22.84-28.19-11.61-2.05-24.89,37.11c5.37-.33,10.7-3.23,13.66-6.88ZM116.18,999.22l23.95-21.38c-3.25.05-6.94,1.32-8.08,0l-6.3-7.3-33.4,39.82c-1.31,1.57,4.66,6.26,5.79,4.89l4.35-5.28c3.62-2.77,9.57-7.06,13.7-10.75ZM235.29,1062.17l78.24-55.1c12.05-8.49,23.38-18.09,29.54-31.58l-41.24,35.35c-24.31,20.84-52.58,34.29-80.13,52.08,4.15,3.98,8.66,2.72,13.59-.75ZM589.46,1066.55l103.97-12.73c-20.36-7.32-39.57-14.29-58.66-25.18l-94-53.65c8.15,26.58,20.93,25.41,16.25,58.93l32.43,32.63ZM668.68,989.01c1.34-2.21,2.33-6.1,1.7-7.85-.47-1.31-5.36-2.2-6.33-1.21l-17.08,17.47c8.78,5.12,15.88,1.17,21.71-8.42ZM257.91,1096.9l65.84-66.39c15.35-15.48,31.05-28.94,43.44-47.46l-138.58,121.64c9.41-1.52,20.78-4.1,29.3-7.79ZM532.97,1011.35c6.44-6.23,9.36-19.85-.1-26.25-3.62,4.6-8.33,11.31-11.62,17.52-1.77,3.35,8.28,10.53,11.71,8.72ZM686.18,996.16c.61-2.77-6.33-8.18-8.54-6.95s-6.62,6.87-5.89,9.29c1.18,3.89,13.4,2.32,14.43-2.34ZM116.78,1059.21l-25.17-35.91c-2.5-3.57-13.6-3.68-18.26-5.14l12.63-3.15-12.26-16.64c-11.05,4.21-11.34,13.6-9.04,23.05l12.74,52.41,23.01,2.46c5.06.54,13.52-1.15,14.95-3.82l-3.21-7.31c-.57-1.29,5.72-4.36,4.61-5.95ZM256.06,1015.97l14.58-14.07c-11.46,3.46-19.02,8.63-26.56,15.62,3.6.87,9.95.41,11.98-1.54ZM210.41,1091l9.71-.73c2-.15,4.52,3.1,7.41,5.83l102.69-91.65c-10.25,4.8-16.72,11.03-24.67,16.93l-64.36,44.91,10.22,5.52c-22.43,11.53-27.55,2.97-41.01,19.19ZM549.48,1026.27c.35-9.22-.44-15.84-3.6-22.17l-4.41,14.01c-.81,2.57,4.28,6.26,8.02,8.15ZM843.34,1048.55l17.39-34.6c-1.02-1.75-9.64-3.6-10.87-1.09l-20.16,41.39c4.86,2.75,11.2-.87,13.63-5.7ZM796.38,1041.38c9.72-7.69,17.12-17.81,16.96-30.46l-16.96,30.46ZM879.14,1016.92l-10.97-2.09-11.74,22.93c4.96.04,12.53-1.52,16.03-4.2,3.35-2.56,5.58-10.83,6.68-16.64ZM293.79,1106.41l52.5-73.1c3.68-5.12,5.11-10.93,2.2-16.39-29.31,26.39-56.99,51.15-81.69,79.88l9.7,1.21c1.19.15.74,2.19.98,5.92,4.17,1.18,11.28,2.43,16.31,2.48ZM661.7,1033.2c3.51-2.5,6.34-7.88,8.67-12.37-7.35-1.6-16.81-1.55-21.84,4.81.85,3.97,9.52,10.15,13.17,7.55ZM684,1024.42l11.38-4.49c-3.88-.72-12.18-1.5-14.79.33-3.86,2.71-8.93,11.59-9.28,16.29-.19,2.59,7.27,6.4,9.48,5.03,1.64-1.02,13.87-8.9,10.66-11.38l-7.45-5.77ZM728.67,1044.95l10.34-17.14-9.2-10.54-20.35,31.32c6.08,4.91,15.06,3.23,19.2-3.64ZM826.81,1046.56c3.27-7.61,6.85-17.04,9.1-25.91-9.31,7.36-14.89,15.7-19.97,25.86,3.93.3,8.82.45,10.87.05ZM702.73,1045.81l15.57-23.99c-7.9-.39-13.19,3.07-16.77,7.75l-11.32,14.78c1.7,1.91,10.69,4.29,12.52,1.46ZM133.78,1025.4l-17.54,7.82c-1.97.88-3.88,5.15-4.24,7.06-2.67,14.43,21.21-11.1,21.78-14.88ZM289.53,1124.84c3.91,1.09,8.21,1.66,10.95.88l61.34-86.85c1.03-1.46,1.66-6.3,2.03-7.69.26-1-5.86-2.08-6.98-.53l-54.59,75.63,3.03,4.64c-6.77,3.23-12.01,6.76-15.78,13.92ZM135.07,1060.75l18.62-24.36-15.55-4.15-13.81,16.25c-1.81,2.13-1.4,8.5.14,11.01,1.45,2.37,8.71,3.72,10.6,1.25ZM760.62,1042.39c1.5-.4,4.99-3.36,4.4-4.6l-2.11-4.48c-.58-1.23-6.27.04-7.26.99l-13.58,13.01,18.55-4.92ZM214.44,1059.33l20.91-13.03-13.02-2.6-21.96,12.95c4.62,3.13,11,4.59,14.07,2.68ZM307.68,1160.75l50.94-87.11c3.88-6.63,5.53-15.46,3.39-21.99-34.88,43.8-63.96,88.49-90.88,134.92l9.68,6.07c9.08-9.71,19.67-19.58,26.87-31.89ZM200.19,1089.87c-1.21-2.5-9.63-6.02-11.88-4.15l-10.08,8.36c7.54,5.02,16.66,4.71,21.96-4.2ZM139.91,1101.28c1.76-.95,1.78-7.16.95-8.98-.82-1.81-5.07-4.4-6.93-3.57l-22.45,9.88-7.87-10.32c-8.09,2.65-15.03,7.1-18.98,14.71-1.97-.06-6.35-1.52-6.27,0l.51,10.01c25.27-8.6,43.28-2.08,61.04-11.72ZM340.63,1198.78c7.32-13.58,50.42-107.12,28.06-111.49l-41.57,100.77c-2.76,6.7-6.14,11.54-10.47,18.84l23.98-8.12ZM843.24,1109.63c4.47.27,11.54-7.11,8.42-9.18-6.54-4.34-9.23-6.44-13.92-13.54l-32.71,10.63c-5.02,1.63-9.8.74-12.86,5.4l35.76-4.52c1.23,8.43,5.1,10.61,15.31,11.22ZM299.08,1210.64c6.87-6.24,15.29-12.04,18.42-18.82,14.86-32.27,28.66-63.05,39.15-97.65-17.78,21.35-27.91,45.14-42.02,68.16-9.79,15.98-22.32,27.99-34.5,43.36l18.95,4.95ZM357.88,1189.86c4.82-12.88,37.39-79.15,25.35-83.8l-18.35,55.53c-3.91,11.84-9.06,22.43-14.42,33.51,1.96.11,5.3.44,5.78-.86l1.64-4.38ZM395.14,1183.09l13.88-55.45-15.07-10.38-19.18,71.89,20.38-6.07ZM415.72,1178.26l6.75-29.91c1.41-6.26-1.32-12.32-7.91-15l-12.01,47.8,13.17-2.89ZM227.51,1182.2l-14.35,4.3c7.51,5.65,17.48,6.05,24.44,1.05l-50.32-42.39-9.85,14.04c.53,3.68.13,9.52-1.24,14.65,9.53,8.4,25.55,6.06,37.9,1.73l13.42,6.64ZM241.55,1179.27l12.18-17.09-12.45-5.12,7.04-2.85-22.25-6.1c-.95-.26-4.56,1.89-3.73,2.43l4.15,2.66,5.5,3.52c.92.59-.96,4.43-1.44,5.26l-14.72-3.65c7.7,8.77,15.18,14.4,25.72,20.96ZM246.87,1184.17l17.85,1.69,13.5-24.57c-21.16,2.18-19.01,4.45-31.35,22.89ZM566.86,1185.35c-.99-1.3-7.99-.9-7.84.72l.81,8.45c.44,4.61,9.33,7.81,16.72,6.74-2.88-5.43-7.12-12.52-9.69-15.9ZM603.85,1210.05c-6.14-8.32-12-17.22-23.87-21.92,1.47,6.34,4.24,14.04,7.46,17.71,2.2,2.51,9.82,2.94,16.41,4.21ZM80.11,1211.74c9.78-2.43,12.31-4.05,15.96-9.96l18.75-2.12,1.79-6.84c-23.34-1.95-25.6,7.34-46.3,15.41l7.48,12.85,12.42-3.29-10.11-6.05ZM191.4,1211.46c-2.2,2.07-27.06,17.62-15.86,17,40.2-2.23,23.55.72,57.14-13.71,9.93-4.27,18.76-7.42,28-9.97-11.61-13.44-28.84-1.9-28.78-1.67l2.01,8.72-21.08-1.08,2.05,9.09-23.48-8.37ZM599.24,1307.2c13.39,52.79,25.32,98.74,44.72,144.98l19.03-4.74,101.26-23.6.94-140.33c-26.85-14.73-49.9-29.52-69.43-51.15l-31.52,12.56c14.65,10.37,30.44,14.22,48.1,21.19-40.25,7.98-79.45,6.62-120.68,7.09l-35.66,82.87-16.56,35.82c-1.04,2.26-.2,8.51,1.95,8.53,1.71.01,5.49-2.26,6.5-4.06,16.56-29.64,32.84-60.87,51.35-89.15ZM108.96,1271.14c-10.31-1.25-38.81-2.59-44.68,2.91,15.85.33,29.75,3.35,44.68-2.91ZM490.17,1454.4l-16.82-7.61,20.81-3.04c2.22-.32,5.46-5.14,4.47-7.14-.79-1.6-4.97-3.53-7.01-3.39l-23.05,1.56,20.68-14.63c-7-8.59-14.8-4.58-22.71.91-.07-11.03-1.96-21.96-11.96-26.2l-3.93,14.6c3.17-30.62-12.41-13.16-8.13-40.97-14.77-.96-13,15.03-16.79,21.83-5.55,9.93-14.31,18.72-6.82,32.35-7.04-1.48-10.67-2.37-12.8-1.33-2.14,1.04-2.68,8.29-.45,9.44l13.06,6.73-28.15,1.38c-1.98.1-3.74,5-2.82,6.41s4.59,3.61,6.44,3.59l26.87-.28-14.2,11.86c3.23,4.36,9.66,8.26,12.8,6.38l29.48-17.67,36.52,16.37c2.42,1.08,8.03-.45,8.64-2.63.61-2.17-1.78-7.41-4.15-8.48Z"
          style="fill: rgb(29, 29, 27);"></path>
      </g>
    </g>
  </g>
</svg>