<?xml version="1.0" encoding="UTF-8"?>
<svg id="_0" data-name="0" xmlns="http://www.w3.org/2000/svg" viewBox="0 0 197.63 397.32"
  width="197.63" height="397.32">
  <path
    d="M162.42,340.25c-1.38.08-2.81.18-4.06.97-1.4.88-1.16,1.58.19,2.1,1,.38,2.11.52,3.17.8.97.26,1.65.79,1.8,1.76.15.95-.23,1.67-1.1,2.19-.81.48-1.73.68-2.67.81-5.22.74-10.47,1.1-15.74,1.33-11.32.49-22.65.92-33.97,1.35-2.2.08-4.43.23-6.58-.36-1.23-.34-1.96-1.11-2.14-2.3-.15-1.03.46-1.53,1.38-1.97,2.31-1.11,2.53-2.01,1.12-4-1.12-1.58-2.84-2.34-4.78-2.34-7.39-.02-14.78-.02-22.16.19-5.42.16-10.82.65-16.24,1-2.98.19-6-.08-8.95.5-4.65.92-5.66,2.55-3.99,6.43.98,2.28.17,3.57-2.5,4.14-5.01,1.07-10.15,1.1-15.24,1.49-2.19.17-4.39.54-6.58.05-3.36-.75-4.02-2.22-2.22-4.82,1.61-2.32,1.48-3.89-.5-5.5-1.31-1.07-2.93-1.4-4.61-1.33-5.4.25-10.59.56-16.07.85v10.49c.24-.39,1.1-.1,1.58-.17,4.29-.6,8.62-.44,12.94-.54.49-.01,1.08-.13,1.59.56-1.28.61-2.62.35-3.86.43-3.45.21-6.9.34-10.35.57-.71.05-1.63.33-1.89-.26v22.76c0,3.36.94,6.53,2.58,9.31l.36.57c.9,1.41,1.99,2.71,3.24,3.88l2.05,1.7c2.6,1.89,5.69,3.26,9.07,3.94l.55.11c1.38.24,2.79.38,4.25.38h153.02c12.19,0,22.1-8.92,22.1-19.88v-39.19c-.36,0-.87,0-.88,0-11.31.67-22.62,1.3-33.92,2M100.03,355.34c5.44-.04,10.88-.07,16.32-.09,6.06-.02,12.12-.04,18.18-.04.95,0,2.02-.26,3.06.83-3.42.14-6.53.48-9.62.36-9.31-.37-18.6.02-27.9.04-.55,0-1.49.46-1.6-.3-.13-.89.89-.78,1.56-.79M49.6,356.05c4.13-.26,8.33.09,12.36-1.16,2.14-.66,2.99-1.7,2.28-3.79-.83-2.44.03-3.83,2.84-4.47,2.18-.5,4.46-.73,6.72-.87,6.02-.39,12-1.31,18.05-1.34.89,0,1.91-.34,2.79.95-6.22.5-12.13.92-18.03,1.46-2.81.26-5.66.2-8.41.93-2.07.55-3.4,1.36-2.47,3.61.78,1.89-.16,3.36-2.16,4.09-5.8,2.1-11.93,1.38-17.98,1.61,1.15-1.05,2.6-.92,4-1M1.98,355.64c3.28-.87,6.61-.47,9.84-.86.33-.04.66,0,.69.35.01.16-.13.39-.29.5-.76.56-9.28.62-10.25.01M6.56,358.78c-.39.07-.8-.22-.84-.6-.04-.47.48-.48.82-.52,2.61-.26,5.22-.5,7.84.01-2.54.94-5.25.62-7.83,1.1M10.9,361.07c-.68.12-1.35-.19-1.4-.75-.07-.88.84-.54,1.36-.57,2.6-.15,5.21-.22,7.81-.39,1.63-.11,3.55.34,4.16-1.84.21-.76,1.31-.56,2.08-.59,2.78-.09,5.55-.2,8.33-.31,1.16-.04,2.52-.08,3.07.88,1.16,2.03,3,1.63,4.9,1.48,3.39-.26,6.79-.66,10.84-.03-2.56,1.24-4.77.55-6.82.9-1.87.32-3.8.38-5.7.47-1.1.05-2.54.28-3.09-.74-1.08-1.99-2.89-1.83-4.81-1.74-1.82.08-3.65.07-5.47.13-1.19.04-2.36-.1-2.73,1.47-.24,1.01-1.66,1-2.67,1.07-3.28.22-6.6-.02-9.86.55M96.93,370.95c1.4,0,2.97-.38,4.5,1.22-5.03.21-9.61.7-14.15.53-13.69-.54-27.37.02-41.05.05-.8,0-2.19.68-2.35-.45-.19-1.31,1.31-1.15,2.3-1.15,8-.06,16.01-.11,24.02-.14,8.91-.03,17.82-.06,26.74-.06M81.21,368.63c-.21-1.5,1.5-1.31,2.63-1.32,9.15-.07,18.29-.12,27.44-.16,10.18-.04,20.37-.07,30.55-.07,1.6,0,3.4-.43,5.14,1.39-5.75.24-10.98.81-16.17.6-15.64-.61-31.26.03-46.9.06-.92,0-2.51.78-2.69-.51M61.42,380.51c7.6-.05,15.2-.08,22.8-.11,8.46-.03,16.92-.05,25.38-.05,1.33,0,2.82-.29,4.27.94-4.78.16-9.12.54-13.43.4-13-.41-25.98.02-38.97.04-.76,0-2.08.52-2.24-.35-.18-1.01,1.25-.88,2.18-.89M18.28,370c-.19-1.39,1.32-.79,2.07-.9,5.53-.77,11.12-.56,16.69-.69.63-.01,1.39-.17,2.06.71-1.65.78-3.37.45-4.99.55-4.45.27-8.9.44-13.35.72-.94.06-2.2.46-2.48-.39M19.54,372.61c4.22-1.12,8.5-.6,12.66-1.11.43-.05.85,0,.89.45.02.21-.17.5-.37.65-.98.72-11.95.79-13.19.01M24.36,377.2c-.06-.6.61-.62,1.06-.66,3.36-.33,6.72-.64,10.1.01-3.27,1.21-6.75.8-10.08,1.42-.5.09-1.03-.28-1.07-.77M121.58,385.89c.34.29.52.67.52,1.11,0,.32-.1.6-.28.84.24.12.48.27.69.45.6.54.91,1.19.91,1.95s-.3,1.42-.9,1.96c-.55.51-1.21.79-1.98.83l-.61.04s-1.22-.04-1.22-.04v-4.53c-.32-.24-.66-.16-1.02-.12-1.14.16-2.27.23-3.41.27l.03,6.04-4.36-6.05c-.16,0-.31,0-.47-.01v4.31h-1.15v-4.34c-.98-.03-1.96-.06-2.93-.07-.55,0-1.1,0-1.64.01,0,.35,2.7.32,2.7.32.16.19.17.7.17.7-.16.32-2.87.35-2.87.35v2.16s2.97,0,2.97,0c.16.19.16.7.16.7-.16.32-4.27.32-4.27.32l-.02-4.55c-2.66.02-5.33.05-8,.05,0,.29,2.7.26,2.7.26.16.19.17.7.17.7-.16.32-2.87.35-2.87.35v2.16s2.97,0,2.97,0c.16.19.16.7.16.7-.16.32-4.27.32-4.27.32l-.02-4.5c-.32,0-.63,0-.95,0v2.35c0,.68-.29,1.26-.85,1.74-.56.47-1.25.71-2.03.71s-1.47-.24-2.03-.7c-.57-.48-.86-1.07-.86-1.74v-2.46c-.15,0-.31,0-.46-.01-.28-.01-.56-.02-.84-.02.04.15.1.3.12.45.16,1.04-.14,2.06-.85,2.88-.45.52-1.04.91-1.7,1.16.42.21.69.35.92.39-.02,0,.25,0,.4-.37.4.09.42.05.43.02l.54.18c-.16.8-.75,1.19-1.48,1.19-.54-.08-.91-.27-1.27-.46-.35-.18-.68-.35-.98-.36-.06,0-.31.25-.39.55l-1.12-.24c.06-.22.17-.44.32-.64-.66-.12-1.29-.36-1.84-.74-1.48-1.01-2.04-2.68-1.57-4.17-.44,0-.88,0-1.31,0,.09.31.15.63.15.97,0,1.06-.43,1.97-1.26,2.72-.84.75-1.87,1.13-3.06,1.13s-2.22-.38-3.06-1.13c-.84-.75-1.26-1.66-1.26-2.72,0-.3.04-.58.11-.86-2.35.05-4.7.1-7.05.16-.06.23-.11.46-.11.71,0,.79.3,1.44.93,1.99.62.56,1.35.82,2.23.82.81,0,1.5-.23,2.1-.71.35.12.74.51.74.51-.78.9-1.75,1.22-2.84,1.22-1.19,0-2.21-.38-3.05-1.12-.84-.75-1.26-1.66-1.26-2.72,0-.24.03-.46.07-.68-3.78.09-7.56.17-11.35.19-7.18.03-14.36-.15-21.54-.26-.51,0-1.51.28-1.38-.62.11-.74.99-.48,1.59-.47,9.29.12,18.58.51,27.87.16,1.75-.07,3.51-.1,5.26-.14.19-.31.43-.62.73-.89.84-.75,1.86-1.12,3.05-1.12,1.09,0,2.05.32,2.86.96-.03.12-.41.51-.41.51-.96-.22-1.64-.45-2.45-.45-.88,0-1.61.27-2.23.82,2.16.08,4.44.06,6.71.05.19-.28.4-.55.67-.79.84-.75,1.87-1.13,3.06-1.13s2.22.38,3.06,1.13c.28.25.5.52.68.81.73,0,1.47.02,2.2.03.08-.13.16-.26.26-.38,1.46-1.7,4.22-2,6.16-.68.5.34.89.76,1.18,1.23.57.02,1.13.03,1.7.05v-1.55h.45c0-.07.58-.07.58-.07.13.07.13,1.65.13,1.65.21,0,.42.01.63.02.95.03,1.89.04,2.84.06v-1.65h.45c0-.07.58-.07.58-.07.13.07.13,1.75.13,1.75l.94.02v-2.21s4.06.02,4.06.02c.16.19.16.7.16.7-.16.32-3.07.31-3.07.31v1.2c2.67.03,5.34.03,8,.02v-2.25s4.06.02,4.06.02c.16.19.16.7.16.7-.16.32-3.07.31-3.07.31v1.22c1.53,0,3.06-.01,4.58-.02v-3.26l2.34,3.25c.65,0,1.31,0,1.96,0,.16,0,.33,0,.49-.01v-1.58s.44,0,.44,0c0-.07.58-.07.58-.07.13.07.13,1.59.13,1.59.95-.06,1.89-.16,2.84-.21.75-.04,1.28-.32,1.59-.8v-1.21h.47c.52-1.04,1.61-1.46,2.86-1.53,3.54-.22,7.09-.32,10.63-.46.44-.02,1.07-.05,1.03.54-.04.56-.69.5-1.11.51-2.99.07-5.99.1-8.99.17-1.17.03-2.27.13-2.95.81.36.05.68.16.94.38M141.01,391.56c-.13.44-.38.84-.77,1.19-.59.52-1.3.79-2.13.79-.26.08-.34.16-.42.22-.79.54-9.3.31-10.24-.33,2.95-.67,5.9-.36,8.8-.48-.27-.2.54-.93.54-.93.73.66,1.89.66,2.63,0,.17-.15.29-.31.38-.49-.32-.01-.64-.03-.95-.02-1.39.04-2.78.06-4.17.08v1.11h-1.15v-1.09c-.6.01-1.2.03-1.8.04-1.14,1.07-2.17,1.45-3.36,1.45s-2.22-.38-3.06-1.13c-.84-.75-1.26-1.66-1.26-2.72s.43-1.97,1.26-2.72c.84-.75,1.87-1.13,3.06-1.13s2.22.38,3.06,1.13c.84.75,1.27,1.66,1.27,2.72,0,.43-.09.84-.23,1.22.36,0,.71,0,1.07,0v-4.47h.45c0-.07.58-.07.58-.07.13.07.13,4.54.13,4.54,1.75.02,3.51.08,5.26.11-.06-.35-.22-.65-.52-.9-.39-.35-.86-.6-1.43-.76-.55-.22-.92-.44-1.2-.69-.36-.32-.55-.72-.55-1.17s.19-.86.55-1.17c.71-.63,1.91-.63,2.62,0,.2.18.35.38.44.6l-1.08.35c-.45-.47-.88-.47-1.17-.22-.14.12-.2.26-.2.44s.07.32.21.44c.18.16.45.32.8.46.67.19,1.31.53,1.82.98.52.46.8,1.02.86,1.65.57,0,1.17-.09,1.65.61-.58.25-1.16.32-1.74.34M165.48,374.15c-.15,1.06-1.2,1.31-2.31,1.46-4.1.56-8.19.17-12.29.13-6.38,0-12.76.21-19.12-.05-12.88-.53-25.73.24-38.59.31-7.18.03-14.36-.14-21.54-.26-.51,0-1.51.28-1.38-.62.11-.74.99-.47,1.59-.47,9.29.12,18.58.51,27.87.16,11.43-.44,22.85-.33,34.29.05,8.03.26,16.07.11,24.11.11,1.49,0,2.99-.2,4.48-.28,1.02-.05,1.63-.54,1.83-1.38.36-1.52,1.62-2.07,3.1-2.17,3.54-.22,7.09-.32,10.63-.46.44-.02,1.07-.05,1.03.54-.04.56-.69.5-1.11.51-2.99.08-5.99.1-8.99.17-1.73.04-3.32.2-3.61,2.23M181.11,383.26c.47-.06.93,0,.98.49.02.23-.19.55-.4.71-1.08.8-13.1.87-14.46.02,4.63-1.22,9.33-.66,13.89-1.22M171.56,389.2c-.62.12-1.27-.35-1.32-.94-.07-.74.75-.77,1.3-.82,4.13-.4,8.27-.79,12.42.02-4.03,1.49-8.31.98-12.4,1.75M184.23,381.99c-3.46.21-6.92.34-10.38.56-.73.05-1.71.35-1.93-.31-.15-1.08,1.03-.62,1.61-.7,4.3-.6,8.65-.43,12.98-.54.49-.01,1.08-.13,1.6.55-1.29.6-2.62.35-3.88.43M190.17,357.3c-3.84.1-7.67.13-11.51.22-2.22.05-4.25.26-4.62,2.86-.19,1.35-1.54,1.68-2.96,1.88-5.25.72-10.5.22-15.75.17-8.16,0-16.34.27-24.49-.06-16.49-.67-32.95.31-49.42.39-9.2.04-18.39-.18-27.59-.33-.65-.01-1.94.36-1.77-.79.14-.95,1.27-.61,2.04-.6,11.9.15,23.8.66,35.7.2,14.64-.56,29.27-.42,43.92.06,10.28.34,20.59.14,30.88.14,1.91,0,3.83-.25,5.74-.35,1.3-.07,2.08-.69,2.34-1.77.46-1.95,2.07-2.66,3.97-2.78,4.53-.28,9.08-.41,13.62-.58.57-.02,1.37-.07,1.32.69-.05.71-.88.64-1.42.66M188.83,349.73c-4.72.19-9.44.28-14.16.43-1.72.06-3.21.13-2.95,2.43.18,1.61-1.64,1.9-3.08,1.97-5.27.28-10.54.54-15.82.69-2.75.08-5.47.74-8.33-.1,2.32-.29,4.62-.7,6.95-.84,5.43-.31,10.86-.48,16.29-.73,1.65-.08,3.28-.15,2.62-2.37-.24-.82.7-1.15,1.39-1.49,1.45-.71,3.05-.65,4.6-.72,4.49-.21,8.99-.31,13.49-.46.7-.02,1.44-.13,1.83.64-.78.91-1.91.51-2.85.55"
    fill="#13110c" />
  <path
    d="M28.61,177.05l-.45.02c.05.83.33,1.4.85,1.67.56.3,1.32.24,2.39-.2,1.36-.56,2.17-.84,3.03.1.86.93.51,1.78.08,2.85l-.18.44c-1.65,4.29-3.88,8.44-6.03,12.45l-1.2,2.24c-.09.18-.21.36-.32.55-.6.97-1.42,2.31-.03,3.53,1.21,1.07,2.64.56,3.78.14.18-.07.36-.13.53-.19,2.24-.73,4.48-1.56,6.65-2.36.76-.28,1.52-.56,2.29-.84,1.51-.55,2.58-.84,3.65.06,1.38,1.17,1.76,2.27,1.17,3.38-.91,1.71-1.09,3.16-.55,4.43.59,1.39,2.08,2.53,4.53,3.47,1.17.45,1.89,1.03,2.14,1.72.27.74.03,1.68-.7,2.78-1.15,1.71-1.67,3.6-2.07,5.4-.21.96-.07,1.61.43,1.93.2.13.43.19.7.19.42,0,.93-.16,1.55-.46,4.05-2.05,7.13-4.69,9.16-7.84,2.43-3.77,6.02-6.43,9.2-8.63,1.72-1.93,3.65-3.64,5.75-5.14,1.66-1.19,2.04-2.02-.1-3.11-8.93-4.54-12.61-13.67-20.81-18.88-.64-.41-1.11-1.25-1.3-1.97-1.59-5.83-6.81-9.25-11.05-13.34-2.24-2.16-3.45-1.68-5.21.79-3.33,4.69-4.27,9.62-7.53,14.3l-.36.54ZM43.97,187.34c1.69.42,1.87-.67,2.44-1.38,3.25-4.01,4.03-4.08,8-.65.34.29.85.73,1.2.67,4.77-.76,6.13,3.17,8.94,5.09.7.48.7,1.18.27,1.77-.51.72-1.33.15-1.52-.15-2.48-3.81-7.86-3.99-10.96-6.92-1.48-1.41-2.38-1.13-3.55.14-1.55,1.69-1.98,5.03-6.17,2.54-1.27-.76-2.67,2.35-5.11,2.56,1.27-3.53,2.93-4.54,6.44-3.66"
    fill="#13110c" />
  <path
    d="M11.07,112.85c2.11-.11,4.22-.17,6.32-.25,5.79-.27,11.59.03,17.35.25,6.26.24,12.5.16,18.76.17,9.8.02,19.6-.19,29.39-.32,2.58-.03,5.16-.41,7.75-.13.72.08,1.21,0,.58-.89-2.02-2.86-4.8-4.37-8.65-4.09-.8.06-.97-.18-1.23-.8-.73-1.69-2.11-2.68-4.26-2.3-.85.15-.96-.06-1.17-.72-1.87-6.2-7.91-8.25-14.35-6.94-1.93.39-3.4,1.58-4.2,3.21-.49.98-.92,1.02-1.96.54-2.19-1.01-3.53-.68-5,1.17-.6.76-.99.46-1.63.15-4.22-2.05-8.33-1.4-11.46,1.87-.51.53-.75.42-1.31.19-4.48-1.8-5.55-1.57-8.73,2.03-.74.83-1.2.13-1.7-.08-2.24-.96-4.44-1.07-6.59.16-.62.35-1.27.76-1.5,1.44-.3.89-.73,1.16-1.89.94-1.99-.39-4.93,1.31-5.57,2.93-.36.9-.38,1.55,1.05,1.47M77.91,106.04c.91.11,1.37.67,1.57,1.42.11.4-.04.86-.48.83-1.14-.07-.51-1.45-1.49-1.66.05-.3.08-.62.4-.59M68.22,99.27c.04-.28.31-.34.61-.3,1.45-.03,3.81,2.15,3.63,3.38-.68.62-1,.32-1.1.11-.56-1.15-1.34-2.05-2.76-2.42-.35-.09-.42-.46-.38-.76M56.06,103.38c.17.3.12.65-.17.83-.45.28-.71.04-.9-.36-.31-.66-1.17-1.02-1.4-2.09,1.31.21,1.99.81,2.46,1.63M47.91,103.72c.54.52.52,1.11-.14,1.98-.34-1.4-1.41-1.94-2.39-2.71,1.32-.57,1.93.16,2.54.73M34.95,105.52c.59.34.87.94.43,1.37-.66.67-.85-.28-1.08-.51-.44-.43-1.27-.46-1.49-1.25.95-.42,1.54.04,2.14.39M25.4,109.06c-.89.14-.99-.5-1.37-.79-.4-.3-1.11-.12-1.31-.7,1.56-.47,2.09-.19,2.68,1.5"
    fill="#13110c" />
  <path
    d="M185.03,18.13c.69-.65,1.05-.85,1.18-1.14.74-1.55,1.13-3.24,3.95-2.32,1.19.39,1.06-.71.43-1.29-1.06-.98-1.33-1.84-.09-2.91.45-.38.19-1.65-.35-1.24-2.64,2.04-3.61-.9-5.74-1.39-.1-.02-.19.06-.17.15.4,2.14.43,4.11-2.19,4.91-.15.05-.13.24.03.25,3.01.27,2.5,2.71,2.94,4.96"
    fill="#13110c" />
  <path
    d="M113.17,15.6c6.33-.41,12.66-.86,18.99-1.33,6.57-.49,13.13-1.02,18.49-1.43,4.03.18,4.21-.1,3.08-2.35-.54-1.08-1.45-1.72-2.64-2.01-.85-.21-1.24-.54-1.62-1.29-4.03-8.12-13.81-9.61-20.72-3.17-.6.56-1.02.86-2.02.65-3.8-.81-6.22.26-8.05,3.43-.39.67-.6,1.14-1.73.97-2.85-.43-4.68,1.08-6.18,2.97-.66.84-1.19,1.83-.64,2.8.62,1.11,1.97.83,3.04.76M131.81,4.5c.41-.9,1.13-1.53,2.24-1.68.43-.06.69.23.74.67-.81.67-1.55,1.41-2.45,1.94-.25.15-.76-.44-.53-.92M124,6.56c.3,0,.65,0,.76.34.11.34-.16.55-.45.65-1.12.37-1.67,1.17-2.1,2.6-.87-2.07.15-3.6,1.79-3.59M115.65,10.37c.18.17.36.34.54.51-.76.62-1.52,1.23-2.28,1.85-.28-1.52.49-2.14,1.74-2.36"
    fill="#13110c" />
  <path
    d="M118.88,82.78c4.28-.27,3.59,2.47,4.08,4.97.69-.65,1.05-.85,1.18-1.14.74-1.55,1.13-3.24,3.95-2.32,1.19.39,1.06-.71.43-1.29-1.06-.98-1.33-1.84-.09-2.91.45-.38.19-1.65-.35-1.24-2.73,2.11-3.67-1.09-5.95-1.43.49,2.49.57,4.78-3.27,5.35"
    fill="#13110c" />
  <path
    d="M104.96,115.91c-1.9,5.02-2.2,9.98-2.53,15.23l-.09,1.53c-.59,9.17,2.86,16.64,10.97,23.15,1.01.52,1.22.26,1.87-.77,5.32-8.46,11.35-16.66,18.44-25.11,1.52-1.81,2.9-2.67,4.35-2.72,1.42-.07,2.82.7,4.41,2.34,3.73,3.85,7.01,7.32,10.02,10.59.16.17.32.34.48.51.95,1,2.03,2.13,2.11,3.31.29,4.27,3.26,6.78,6.4,9.43,1.75,1.48,3.57,3.01,4.85,4.86.35.51.99.67,1.74.86.2.05.4.1.59.16,1.92.58,3.84,1.16,5.76,1.75l1.85.56c.77.1,1.23.29,1.68.47.7.28,1.25.51,2.07.02,2.69-1.59,5.48-3.23,7.29-5.74,11.58-16,12.66-32.21,3.23-48.19-4.55-7.71-11.38-13.14-20.29-16.13-14.85-4.99-29.65-4.04-44,2.82-10.87,5.19-17.8,12.08-21.2,21.06M112.59,117.41c-1.85,3.26-1.38,6.15-3.22,8.44-1.92-2.51-.87-6.23,3.22-8.44M111.72,146.4c-.72.21-1.05-.45-1.33-.87-2.12-3.21-2.12-6.69-1.59-10.26,2.47,3.11,1.59,7.04,3.7,10.19.09.14-.42.83-.78.94M113.7,135.86c-1.59.11-1.19-1.1-1.24-1.84-.05-.92-.21-2.39,1.08-2.4,2-.03.29,1.84,1.1,2.38.28,1,.19,1.79-.95,1.87M117.3,122.3c-.1.07-.8-.21-.86-.4-.41-1.45.32-2.41,1.99-3.28.44,1.84-.06,2.87-1.13,3.68M130.47,99.75c2.25-1.49,4.5-3,7.37-3.43.8-.12,1.41.13,1.61,1.08-.35.23-.69.61-1.1.69-2.44.48-4.43,1.76-6.58,2.77-.48.23-1.05.72-1.57.03-.33-.44-.11-.89.27-1.14M127.59,108.68c.78-.82,1.62-1.65,2.61-2.23,1.1-.64,2.37-2.59,3.54-1.21,1.02,1.2-1.61,1.34-2.34,2.21-.86,1.03-1.89,1.94-2.87,2.93-.42-.2-.91-.29-.99-.51-.13-.37-.19-.95.04-1.19M124.64,117.77c.42-.86.82-1.89,2.21-1.86.77.02,1.43.27,1.63,1.1-.64.96-1.69,1.52-2.9,1.73-.64.11-1.27-.31-.94-.97M124.22,126.58c1.07.24,1.35.94,1.08,1.75-.8,2.38-1.93,4.7-1.42,7.3.09.45-.31.81-.88.84-.57.03-.83-.3-1.05-.72-.85-1.62.31-7.65,1.72-8.78.17-.14.37-.26.56-.39M121.07,103.11c.65-.33,1.18-.28,1.45.56-.12.19-.2.56-.45.71-3.47,2.03-5.21,5.43-8.04,7.97-.39.34-.69.65-1.18.37-.72-.42-.99-1.24-.44-1.7,3.03-2.51,4.92-6.01,8.66-7.9"
    fill="#13110c" />
  <path
    d="M195.24,187.49c-1.93-1.79-4.1-4.11-6.21-6.53-5.03-5.78-9.75-12.13-10.18-13.27-.56-1.53-1.21-2.77-2.33-3.65-.51-.4-1.11-.72-1.84-.95-11.56-1.61-18.03-8.1-21.95-17.28-1.65-3.86-4.99-6.78-8.03-9.81-1.56-1.56-3.35-2.93-4.45-4.83-1.14-1.97-2.34-1.19-3.18.13-2.12,3.34-4.56,6.53-5.92,10.22-.37,1.01-.8,2.15.54,2.55,2.54.76,4.23,2.76,6.47,3.59,3.39,1.27,2.69,3.07,1.7,4.99-1.84,3.58-2.75,7.5-5.26,10.84-.6.8-1.33,2.08.02,2.98,1.13.75,2.09-.09,3.02-.58,2.42-1.27,5.01-2.23,6.48-4.69,1.04-1.74,3.22-1.6,4.91-.68,3.27,1.76,4.38,8.24,2.03,11.1-.6.73-1.17,1.41-.89,2.38,1.2,4.21-1.18,7.7-3.13,11.17-1.15,2.04-1.09,3.05,1.67,3.14,2.82.1,4.61.67,5.34,3.72.59,2.46,2.3,5,6.68,3.8,3.54-.97,6.24,1.04,7.65,3.89,1.39,2.8,3.81,3.48,6.25,2,6.81-4.14,15.51-3.94,22.27-8.05.42-.21.61-.46.72-.76v-1.43c-.41-1.6-1.85-3.49-2.39-3.99"
    fill="#13110c" />
  <path
    d="M17.08,138.29c.69-.65,1.05-.85,1.18-1.14.74-1.55,1.13-3.24,3.95-2.32,1.19.39,1.06-.71.43-1.29-1.06-.98-1.33-1.84-.09-2.91.45-.38.19-1.65-.35-1.24-2.73,2.11-3.67-1.09-5.94-1.43.49,2.49.57,4.78-3.27,5.35,4.28-.27,3.59,2.47,4.08,4.97"
    fill="#13110c" />
  <path
    d="M182.53,200.07c-1.76,0-2.91.82-4.02,1.62-.5.36-.98.7-1.49.97-2.18,1.14-4.09,1.51-5.71,1.13-1.56-.38-2.93-1.51-4.07-3.36-1.5-2.42-3.43-3.42-6.11-3.12-4.27.47-7.87-1.55-8.54-4.81-.53-2.59-2.21-2.78-3.99-2.98-2.11-.24-3.2-.64-3.58-1.27-.38-.63-.16-1.65.71-3.2l.58-1.02c1.81-3.18,3.69-6.46,2.42-10.46-.14-.44.21-1.34.65-1.7,3.35-2.67,1.89-5.58.6-8.15-.74-1.48-1.58-2.21-2.51-2.26-.88-.06-1.74.55-2.53,1.76-1.29,1.96-3.46,2.8-5.77,3.69-.88.34-1.8.69-2.64,1.11-.74.37-1.47.37-2.14.01-.95-.52-1.53-1.66-1.47-2.91.08-1.66.96-3,1.94-4.34,1.01-1.38,1.53-2.93,2.04-4.43.56-1.66,1.09-3.23,2.22-4.59.38-.45.5-.88.38-1.26-.12-.38-.47-.68-1.03-.89-1.11-.41-2.01-1.11-2.96-1.85-1.29-1-2.61-2.04-4.56-2.38-1.49-.26-1.6-2.19-1.57-3.09l2.72-5.4-1.06.4c-1.69.64-2.83,1.67-3.48,3.14-2.73,2.92-4.75,6.27-6.71,9.51-1.09,1.81-2.22,3.68-3.46,5.45-.48.68-.94,1.37-1.41,2.06l-.65.97c-.13.22-.22.42-.32.62-.2.41-.38.79-.65,1.11-6.87,8.12-13.89,15.85-20.88,22.98-.63.64-1.32,1.28-1.99,1.89-1.3,1.19-2.65,2.42-3.65,3.83-3.99,5.61-9.76,9.77-15.34,13.79-.94.67-1.87,1.35-2.8,2.03-3.22,2.3-5.75,5.19-8.19,7.98-1.24,1.41-2.51,2.87-3.86,4.22-1.41,1.19-2.86,2.37-4.44,3.46-.18.07-.35.15-.53.24-.35.19-.64.37-.93.57-1.46,1.05-2.77,1.19-3.9.43-1.39-.94-1.02-2.14-.6-3.53l.27-.9c.3-1.05.61-2.13,1.25-2.92,1.01-1.23,1.35-2.27,1.05-3.18-.3-.89-1.2-1.58-2.77-2.11-3.56-1.21-4.55-3.22-3.2-6.54.45-1.11,1.07-2.64-.38-3.79-1.38-1.1-2.8-.51-3.93-.03-.23.09-.45.19-.67.27-1.43.52-2.86,1.09-4.25,1.63-1.29.51-2.58,1.02-3.88,1.5-1.95.72-3.54.56-4.72-.46-1.24-1.07-.85-2.33-.22-3.86.94-2.29,2.15-4.53,3.31-6.71,1.86-3.48,3.79-7.08,4.79-11.05.09-.34-.28-.46-.28-.46-.79-.26-1.8-.08-2.77.1-1.07.19-2.17.39-2.73-.05-.45-.36-.62-1.18-.49-2.43.37-.79.76-1.58,1.15-2.37,1.67-3.42,3.4-6.95,4.01-10.86l.18-1.13-1.92,1.6c-3.76,3.14-7.65,6.38-9.78,10.46-3.35,6.44-8.31,11.74-13.98,17.51-1.97,2.01-4.03,4.02-6.02,5.97-.25.25-.51.5-.77.75v1.2c.48-.47.96-.95,1.44-1.41,2-1.95,4.06-3.96,6.04-5.98,5.71-5.82,10.71-11.17,14.11-17.7,2.05-3.94,5.88-7.13,9.58-10.21-.71,3.34-2.24,6.46-3.72,9.48-.4.81-.8,1.63-1.18,2.45l.42.15-.45-.04c-.17,1.59.08,2.6.79,3.16.9.71,2.23.47,3.51.24.67-.12,1.36-.25,1.89-.21-1,3.73-2.84,7.16-4.62,10.49-1.17,2.19-2.39,4.46-3.34,6.78-.52,1.27-1.31,3.19.44,4.7,1.45,1.25,3.42,1.46,5.7.63,1.31-.48,2.6-.99,3.9-1.51,1.38-.55,2.8-1.11,4.22-1.62.24-.09.48-.19.72-.29,1.24-.52,2.06-.79,2.94-.1.93.74.64,1.68.13,2.95-1.5,3.7-.28,6.16,3.73,7.53,1.29.44,2.01.96,2.23,1.6.21.64-.09,1.47-.92,2.48-.75.91-1.08,2.07-1.4,3.19l-.26.89c-.43,1.38-.96,3.1.92,4.37,1.46.98,3.24.83,5.01-.44.12.23.12.35.16.48-.21.3-.13.43.06.59-.15.54-.17.6-.29.63-.38.11-.41.11-.44.12-.41.1-.47.1-.47.1-.21-.34-.22-.39-.22-.39-.27-.34-.35-.36-.39-.37-.19-.04-.36-.03-.49-.02-.35.38-.31.49-.26.56-.13.12-.13.28-.12.39,0,.27,0,.33,0,.39-.17.28-.12.41.02.55-.14.33-.44.4-.44.4-.38.07-.55.11-.55.11-.39.48-.36.59-.28.67.4.13.43.28.43.28-.07.2-.17.37-.17.37-.28.11-.66.41-.66.41-.33.17-.46.08-.63.15-.28.05-.51-.13-.51-.13.32-.19.35-.31.33-.45-.38-.36-.48-.4-.48-.4-.47-.14-.55-.16-.64-.17-.41-.09-.45-.1-.5-.11-.23-.33-.25-.38-.27-.42.12-.41.2-.58.16-.72-.18-.32-.18-.43-.18-.56,0-.44,0-.64-.14-.75-.02-.14.11-.29.02-.48-.47-.31-.7-.33-.95-.27-.27.12-.45.06-.45.06,0,.37,0,.4,0,.43-.03.21-.05.36.04.46-.24.44-.12.72-.03.92.07.34.05.4.03.46-.08.35-.08.38-.09.4.02.35.02.38.02.38-.05.27-.03.33,0,.4-.41.18-.43.17-.44.16-.07-.07-.21-.2-.42-.15-.24-.09-.37-.08-.48.03-.38.05-.43.07-.43.07-.38.31-.46.47-.47.6.45.3.55.31.65.33.28,0,.37,0,.45-.01.36-.01.42,0,.48.05.4.43.45.48.52.56-.48.32-.59.31-.65.3-.29-.01-.36-.01-.41-.03-.23-.14-.36-.15-.56-.08-.23-.04-.53-.12-.65.09-.38.08-.55.14-.61.3l-2.08-.07c-.63-.36-.82-.41-1.07-.52-.41-.08-.44-.08-.47-.08-.05,0-.63-.86-.63-.86-.01-.33-.02-.34-.03-.37.56-.19.78-.3.8-.59-.44-.38-.46-.39-.49-.39-.42-.05-.47-.04-.51-.04-.23.05-.64-.37-.64-.37.17-.36.23-.39.23-.39.08-.41-.07-.42-.12-.42-.13-.07-.28-.16-.45-.09-.24.07-.24-.67-.24-.67-.05-.25-.27-.34-.41-.39-.34-.13-.38-.14-.42-.15-.45-.08-.49-.08-.53-.09-.35-.08-.4-.1-.44-.1-.28-.38-.3-.44-.32-.49.14-.48.22-.66.18-.81-.2-.36-.2-.49-.21-.64,0-.49,0-.71-.15-.82-.03-.19.11-.35.01-.54-.51-.34-.76-.35-1.04-.29-.31.15-.49.08-.49.08,0,.38,0,.42,0,.46-.04.23-.05.39.04.5-.26.51-.13.82-.03,1.04.08.4.05.47.03.53-.06.2-.1.53-.1.53.03.36-.09.4-.09.4.06.24.08.31.12.39-.34.24-.41.23-.48.25-.13-.13-.27-.27-.5-.22-.17-.05-.36-.14-.54.03-.16,0-.29-.01-.42.05-.19.09-.38.18-.46.35-.11.33-.11.39-.11.39.42.25.47.25.54.26l-.74,1.05c-.59.12-.74.28-.71.57-.01.32.37.42.37.42-.45.3-.66.32-.82.45l-.81.51-1.16.43-.8-.16-.87-.46-.47-.34-.6.03c-.41-.3-.64-.6-.64-.6l-.63-.51-.48-.03-.42-.17c0-.27.14-.31.18-.43.05-.39.19-.43.38-.46.17-.02.43-.14.43-.14-.01-.21-.03-.3-.06-.38l-.16-1.08c.24-.35.03-.81-.34-1.1-.35-.22-.61-.22-.84-.21-.31-.01-.27-.62-.27-.62.17-.14.16-.34.16-.45-.02-.36-.21-.53-.6-.53-.44-.06-.45-.08-.48-.11-.18-.23-.53-.09-.72-.01-.22.04-.62-.22-.62-.22l-.18-.54.08-.43c.26-.27.38-.3.5-.32.34-.53.21-.74.17-.8-.14-.21-.39-.29-.59-.36-.24-.09-.4-.06-.52-.04-.38-.16-.55-.09-.67-.02-.48.04-.63.21-.72.33-.25.08-.38.12-.45.15-.48.18-.56-.03-.57-.08.1-.44.12-.51.13-.59-.14-.28-.15-.4-.15-.4,0-.13-.01-.27-.03-.4-.06-.34-.11-.46-.11-.46-.17-.36-.22-.46-.25-.56-.04-.13.01-.32.06-.51.09-.32.21-.72-.17-1.01-.16-.25-.13-.34-.06-.45.08-.14.03-.34-.05-.64-.05-.23-.09-.52-.09-.52-.28-.03-.47-.07-.62-.09-.38-.04-.72.02-.97.07-.22.21-.28.32-.32.43-.08.24.11.41.22.51-.27.42-.24.66-.19.94.06.58.09.79.17,1.01-.32.55-.17.76.15,1,.06.32-.03.38-.03.38-.14.64-.19.8-.43.88-.18.06-.51.2-.51.2-.42.08-.56.13-.73.19-.37.18-.43.2-.46.22-.33.17-.59.3-.6.61-.01.23.09.36.18.42.09.07.25.13.52.08.08-.02-.46.56-.46.56-.17.07-.31.04-.56-.02-.21-.05-.36.07-.44.14-.41.26-.42.31-.42.31.37.27.42.3.46.36.1.2-.18,1.17-.18,1.17-.38-.03-.53-.05-.53-.05-.22-.01-.58.05-.58.05-.32.2-.46.31-.58.45.03.46.25.62.52.59.49.03.66.1.67.28-.03.42.01.47.06.52.47.1.63.13.76.23.51.02.63,0,.68.02.35.16.67.25.67.25.19.05.37.11.57.17.16.05.32.12.49.2.16.08.32.15.5.2-.65.09-.98.09-1.25.29-.17.12-.42.13-.68.14-.46.03-.69.11-.89.18-.37.13-.57.19-.86.01-.19-.17-.27-.25-.51-.3-.29-.04-.66,0-.66,0-.57.33-.83.44-1.16.52-.3.23-.46.38-.44.58-.2.27-.2.38-.2.38.23.12.36.17.48.19.45-.03.54-.04.63-.04.31-.1.4-.13.54-.1.07.19-.04.39-.04.39.32.1.4.12.49.13.45.17.48.21.5.27-.5.49-.68.59-.6.77.25.31.18.38.15.46-.36.29.61.36.61.36.4.02.48.02.57.03.32.02.54.08.67.18.26.33.31.37.31.37-.37.15-.42.19-.42.19-.63.15-.98.05-1.34-.06-.16-.05-.32-.09-.49-.13-.38-.03-.43.04-.43.04-.43.07-.48.09-.53.1-.32.04-.56-.04-.88-.13-.5.09-.67.1-.79.11-.27,0-.36,0-.47.01-.36-.05-.41-.06-.45-.06-.5.2-.55.32-.55.47.04.25.08.35.13.42.19.28.52.29.76.3.42.35.21.53.03.67-.31.23-.42.3-.51.38-.09.07-.29.23-.19.41.1.18.36.12.45.1.27.34.3.49.3.49.4.19.45.25.52.31l.53.23c.27.33.34.54.34.54-.36.26-.48.22-.48.22-.39.26-.48.32-.58.38-.57.3-.48.57-.43.68.33.34.46.34.62.34.09,0,.45-.03.45-.03.59-.04,1.04-.04,1.48.33-.32.15-.63.11-.95.05-.19-.04-.33-.06-.47-.07-.36.35-.36.39-.36.43.05.65-.07.72-.26.75-.45-.02-.49-.03-.53-.04-.7-.19-.99-.25-1.29-.24-.87-.06-1.65-.42-2.39-.83v10.57c4.95.47,9.9.95,14.86,1.33,6.93.53,13.54,2.5,20.44,3.13,4.43.4,8.62-.43,12.88-1.08.97-.15,2.24-.51,1.73-1.63-.42-.92-1.53-.28-2.3-.06-7.22,2.03-14.3,1.15-21.46-1.22,1.95-.33,3.88-.73,5.84-.99,9.21-1.21,17.8-4.03,26.24-7.21,1.69-.12,3.04-.7,4.03-1.54,2.26-.88,4.51-1.76,6.77-2.64,7.88-3.05,15.83-5.63,24.68-5,1.8.13,3.65-.52,5.48-.58.63-.02,1.18.03,1.57.19-5.46,10.85-10.91,21.7-16.37,32.55-1.16,2.31,2.69,4.33,3.86,2,5.57-11.08,11.15-22.17,16.72-33.25v34.65c0,1.93,2.54,2.4,3.79,1.42,1.16-.22,1.18-1.23,1.18-2.14-.04-6.57-.09-13.13-.13-19.7-.12-1.22-.24-2.45-.36-3.68v-10.91c1.26,2.01,2.38,4.08,3.58,6.12.17.29.26.42.33.55,2.83,3.08,4.82,7.1,7.07,10.37l9.79,14.66c15.69.34,31.33-.62,46.95-2.34,2.39-.26,4.79-.49,7.2-.69-2.83-3.39-5.51-6.93-7.61-10.64-.38-.39-.73-.84-1.01-1.33-2.27-3.9-4.61-7.76-7.16-12.02,5.63,1.03,10.83,2.24,16.18,2.56,3.13.19,6.28.15,9.42.26.68,0,1.35,0,2.03-.01.29-.05.6-.11.89-.13v-7.02c-.79-.2-1.53-.47-2.23-.77.25-.34.32-.72.32-.72.01-.25,0-.39-.04-.55-.13-.42-.22-.62-.36-.86-.33-.34-.55-.5-.55-.5-.83.04-1.21.22-1.55.38-.24.12-.47.23-.77.26-.18-.05-.45-.03-.45-.03-.41.11-.46.17-.46.17-.49.3-.6.36-.7.41-.26.16-.6-.4-.6-.4.23-.1.44-.19.64-.27.48-.09.91-.17,1.05-.6.25-.13.43-.1.57-.09.49.05.85.03,1.16-.02.4-.07.28-.51.28-.51-.08-.17-.02-.67-.02-.67.15-.19.01-.42-.2-.61-.4-.16-.51-.19-.53-.21-.41-.15-.48-.27-.48-.27-.14-.2-.91.3-.91.3-.24.1-.37.12-.51.14-.21.03-.39.03-.55.02-.62-.15-.85-.14-1.06-.09l.06-2.53c.47-.44.35-.6.3-.66.17-.06.35-.09.54-.11.17,0,.66-.17.66-.17,0-.36-.01-.48-.05-.6-.17-.3-.37-.58-.78-.77.25-.31.5-.29.5-.29.56-.68.31-1.36-.19-1.8-.47-.33-.83-.35-1.13-.36-.18,0-.34-.02-.49-.07-.36-.08-.49.03-.49.03-.25,0-.46.09-.62.16-.36.08-.63.02-.63.02-.45.3-.59.33-.78.44-.21.12-.36.2-.54.2-.24-.07-.34-.23-.33-.44.04-.23.14-.33.28-.38.35-.02.57.01.57.01.18,0,.31.04.43.1.47.02.67-.09.84-.18.42-.19.57-.23.71-.26l.56-.14s.55-.21.55-.21c-.02-.26-.01-.46,0-.57.01-.51-.27-.79-.82-.82-.27-.01-.41-.01-.46-.06-.33-.45-.86-.27-1.12-.19-.65-.09-.89-.06-1.21.16-.24.13-.4.14-.58.15-.52.06-.75.1-1.03.1-.49,0-.82-.11-.93-.28.04-.28.16-.44.16-.44.09-.12.19-.24.26-.4.05-.11.29-.48.29-.48.54-.41.7-.44,1.02-.45.56,0,.73-.01.9-.01.63-.07.83-.11,1.08-.14.33-.01.55-.17.55-.46-.05-.33-.21-.62-.24-.68-.17-.3-.52-.44-.77-.55-.41-.12-.92-.1-.92-.1-.28-.28-.6-.11-.7-.06-.62,0-.85.25-.98.4-.22.06-.38.09-.49.12-.36.15-.49.21-.55.22-.12-.36-.05-.54.02-.69.05-.13.09-.25.11-.38-.17-.36-.17-.46-.17-.46,0-.17,0-.34,0-.52-.04-.34-.05-.4-.05-.4-.09-.34-.14-.46-.19-.58-.05-.12-.1-.25-.14-.37-.04-.15.04-.38.12-.6.15-.41.35-.97-.15-1.41-.15-.26-.11-.36-.03-.47.14-.2.09-.48,0-.9-.04-.17-.17-.75-.17-.75-.36-.07-.6-.13-.78-.16-.5-.09-.95-.03-1.3.03-.37.3-.46.44-.52.59-.15.35.11.62.25.76-.43.44-.39.83-.35,1.14.02.22.02.32.02.42,0,.33.02.61.11.91-.29.12-.38.31-.4.41-.07.27.11.58.54.93-.09.35-.12.5-.12.5-.22.72-.28.87-.54.94-.24.07-.65.22-.65.22-.57.08-.77.14-.99.21-.29.08-.42.08-.42.08-.65.37-1.03.53-1.09,1.04l.08,1.29c-.12,0-.25-.03-.45-.1-.31-.1-.56.08-.68.16-.23.06-.48.1-.58.34-.09.28-.14.43-.14.43l.43.03c.31.24.34.36.38.5.08.29.3.39.43.42.3.03.36.02.41.02.52.34.68.42,1.03.42.38,0,.4.08.49.09-.25.06-.49.05-.71.03-.36-.03-.64-.05-.64-.05-.5.26-.53.39-.5.5-.13-.08-.28-.21-.47-.31-.08-.05-.42-.07-.42-.07-.16-.02-.31-.04-.47-.07-.26-.04-.34-.05-.42-.05-.01-.02-.66.05-.66.05-.36.24-.56.38-.73.56l-.25-.47v.41c-.08-.04-.16-.09-.25-.13.64-.63.49-1.02.2-1.29-.26-.19-.47-.19-.65-.2-.39-.06-.51-.08-.51-.08-.22.07-.34.11-.45.15-.39.02-.46.13-.46.13-.53.22-.63.28-.76.28-.22-.44-.17-.54-.04-.59.47,0,.57.03.65.07.25,0,.36-.05.47-.11.27-.12.36-.14.45-.17.32-.09.61-.19.61-.19.03-.62-.12-.77-.43-.79-.5-.3-.8-.21-.95-.15-.42-.05-.55-.03-.73.09-.46.1-.55.11-.63.12-.59.03-.9,0-1-.16.16-.38.21-.46.26-.56.29-.37.37-.42.43-.47.1-.1.21-.11.42-.12.34,0,.45,0,.55,0,.38-.05.5-.07.62-.08.31-.43.2-.62.19-.64-.1-.17-.29-.25-.45-.32-.19-.08-.32-.07-.42-.06-.29-.15-.43-.1-.53-.04-.38,0-.51.15-.59.24-.36.09-.51.16-.51.16-.29-.21-.24-.32-.19-.42.08-.33.09-.37.09-.37-.13-.24-.12-.34-.13-.45-.03-.27-.06-.37-.06-.37-.12-.29-.15-.37-.17-.45-.03-.1.03-.25.08-.39.09-.26.21-.57-.08-.82.05-.45.02-.62-.03-.86-.03-.18-.06-.42-.06-.42-.21-.05-.36-.09-.48-.11-.3-.05-.57-.02-.78.02-.36.53-.22.68-.14.76-.24.31-.23.5-.21.73.02.46.03.63.08.81-.28.42-.18.6.07.8-.08.42-.1.48-.12.54-.07.24-.11.36-.3.41-.15.04-.42.14-.42.14-.33.05-.45.08-.59.12-.38.15-.5.21-.5.21-.16.07-.37.16-.4.42.19.41.32.47.55.44.03,0-.4.4-.4.4-.13.04-.23.02-.43-.04-.43.12-.45.13-.47.13-.31.36-.1.38-.1.38.31.49.41.55.5.57.36,0,.37,0,.44.07.15.15.21.2.44.2-.36.14-.46.13-.46.13-.34.35-.35.37-.35.4-.39-.32-.59-.33-.59-.33-.46-.07-.51-.07-.57-.07-.35.07-.39.09-.44.11-.41.31-.4.38-.4.38.04.25.21.39.43.37.38.04.51.1.51.24-.04.34-.01.38.02.42.37.11.49.14.59.22.4.04.5.03.54.05.26.14.52.23.52.23.15.05.3.1.44.16.5.25.62.32.75.35-.51.03-.77.02-1,.16-.14.09-.33.09-.54.08-.37,0-.56.06-.72.11-.29.09-.45.12-.67-.03-.46-.28-.53-.29-.6-.3-.39.05-.46.07-.53.11-.27.13-.48.21-.74.26-.25.17-.39.28-.39.45,0,.42.1.46.24.5.33-.01.4-.01.47-.01.25-.07.33-.09.43-.06-.07.3.13.38.13.38.31.09.42.13.49.18-.05.33-.1.35-.15.37-.27.39-.2.47-.02.45-.18.36-.52.46-.52.46l.82.1c.31.03.38.04.45.05.25.03.42.08.51.16.14.37.06.38-.02.39-.6.13-.86.03-1.15-.07-.45-.14-.52-.15-.59-.16-.34.05-.44.07-.44.07-.37.04-.56-.03-.81-.11-.41.05-.54.05-.64.05-.41-.04-.46-.04-.46-.04-.43-.05-.54,0-.6.04-.14.36-.13.4-.13.4.22.46.48.48.67.5.3.27.13.41-.02.51-.26.17-.35.22-.43.28-.1.48.11.45.19.44.18.27.19.4.19.4.4.27.46.3.46.3.19.08.38.11.66.11.18,0,.35.04.53.08.51.1.72.1.92.11.35.01.47.02.47.02.25.02.5.03.72.11-.36.32-.92.25-1.36.19-.43-.06-.71-.09-.99-.08-.36.14-.43.17-.49.21-.37.07-.43.1-.48.13-.36.19-.43.22-.43.22-.29.14-.22.36-.2.45.26.29.36.3.49.3.83,0,1.18,0,1.51.3-.25.1-.49.05-.74-.01-.37-.08-.46-.08-.46-.08-.23.34-.23.43-.23.43,0,.42-.09.47-.23.48-.41-.05-.42-.05-.42-.05-.69-.24-1.05-.31-1.49-.2-.91.01-1.6-.09-2.29-.18-.01-.3.18-.38.18-.38.44-.09.5-.12.55-.16-.04-.4-.12-.47-.16-.5-.26-.1-.36-.14-.5-.2-.4-.06-.43-.05-.46-.04-.32.21-.36.2-.51.15-.14-.18-.02-.58-.02-.58l-.27-.48.07-.39.45-.07-.83-.58c.24-.41.27-.5.26-.6-.35-.34-.45-.37-.45-.37-.4-.09-.55-.14-.55-.14-.23-.36-.29-.39-.29-.39.2-.43.16-.48.09-.51.03-.21.03-.41.03-.41-.08-.35-.11-.37-.11-.37.05-.33.02-.39-.03-.44-.24-.09-.39-.11-.57-.08-.39.49-.41.59-.35.68-.19.25-.12.46-.07.6-.02.32-.03.36-.05.4-.04.28-.04.33-.04.39,0,.34.03.4.02.42-.31-.1-.39-.19-.53-.19-.45,0-.54-.01-.66.04-.29.22-.35.32-.36.4.32.27.38.28.45.3.12.23-.02.66-.02.66-.04.24-.2.39-.24.44-.04.05-.16.28-.22.41.05.27.08.4.08.4-.47.05-.63.03-.77.06-.42.39-.43.43-.43.48-1.14.2-2.69.05-4.23-.06-.06-.13-.06-.26-.15-.4-.4-.28-.44-.31-.44-.31-.19-.39-.22-.52-.34-.61.23,0,.35,0,.46,0,.34.03.46.07.51.13.39.1.6,0,.69-.25.09-.25.04-.53,0-.78-.07-.36-.13-.43-.13-.43-.48-.12-.59-.11-.71-.08-.53.2-.66.26-.79.28-.32.12-.51.2-.68.2-.18.06-.34.08-.48.09-.28.04-.36.05-.44.07-.17.04-.34.07-.49.08.12-.3.16-.39.18-.5-.35-.19-.46-.19-.52-.24.08-.05.63-.14.63-.14l-.55-.25c-.31-.16-.47-.25-.67-.31.14-.04.28-.06.46-.07.4.02.56.03.56.03.15.01.3.02.45.03.39-.02.42-.02.44-.03.3-.07.41-.13.5-.22.14-.17.18-.27.2-.37.2-.33.23-.52.23-.52-.02-.28-.05-.38-.05-.38-.19-.37-.24-.43-.31-.48-.52-.06-.7.02-.87.1-.38.13-.46.13-.46.13-.37.07-.39.09-.43.1-.41.25-.57-.03-.57-.03.34-.14.38-.15.43-.16.41-.29.44-.31.48-.32.44.03.62.02.77,0,.1-.33.13-.58.13-.58-.2-.35-.23-.36-.26-.37-.34-.17-.43-.16-.43-.16-.47.19-.54.2-.61.21-.32,0-.37-.01-.44-.03-.35,0-.32-1.25-.32-1.25.23-.35.32-.37.41-.38.33-.26.31-.32.3-.38-.08-.15-.18-.29-.38-.38.52-.48.4-.81.15-1.03-.23-.16-.41-.17-.55-.18-.3-.05-.42-.07-.42-.07-.46.17-.49.19-.54.18-.35.11-.42.13-.51.18-.39.07-.44-.01-.43-.12.31-.2.42-.18.42-.18.44.06.54,0,.62-.04.35-.13.62-.2.62-.2.26-.23.26-.33.26-.38,0-.25-.13-.39-.41-.4-.39-.25-.65-.16-.78-.12-.32-.04-.44-.03-.59.08-.35.08-.42.08-.49.09-.55.03-.71-.02-.76-.11.13-.28.17-.33.21-.42.22-.29.29-.32.33-.37.31-.09.5-.09.5-.09.41,0,.44-.01.44-.01.5-.07.61-.15.61-.29-.2-.48-.38-.55-.5-.6-.2-.06-.45-.05-.45-.05-.37-.01-.4,0-.43,0-.42.19-.45.22-.44.23-.39.08-.45.11-.48.11.04-.4.05-.46.06-.53-.08-.31-.08-.4-.08-.48-.07-.36-.09-.42-.12-.48-.09-.26-.05-.37,0-.48.07-.2.17-.48-.07-.69.06-.33.03-.47-.01-.67-.26-.4-.38-.43-.47-.45-.25-.04-.47-.02-.64.01-.33.47-.2.6-.13.67-.21.22-.19.41-.17.56.01.37.02.51.06.65-.23.34-.14.49.07.66-.08.3-.09.35-.11.4-.34.34-.54.41-.54.41-.28.04-.38.07-.49.1-.53.22-.72.3-.74.55l.04.63c-.38-.1-.5-.01-.56.03-.29.17-.47.24-.47.24.4.19.43.21.45.24.27.37.37.38.37.38.36.16.44.2.61.2-.29.04-.43.03-.43.03-.31.21-.38.15-.48.09-.28-.04-.36-.06-.44-.07-.22-.03-.53,0-.53,0-.36.28-.41.33-.41.33.05.29.19.41.39.4.25.29.32.41.32.41.39.21.48.23.55.28.35.05.42.04.44.05.16.09.42.18.42.18.45.16.55.21.65.27-.09.1-.31.09-.5.21-.41.06-.53.06-.53.06-.18,0-.33.05-.47.09-.23.07-.34.09-.5-.02-.38-.23-.44-.24-.49-.24-.35.04-.4.06-.45.09-.21.1-.38.16-.58.2-.21.14-.33.24-.34.37.02.38.11.42.22.45.38-.01.49-.03.49-.03.39.29.44.31.5.32-.05.41-.19.48-.14.63.05.36-.33.47-.33.47l.82.1c.55.06.68.1.75.16-.46.35-.66.28-.89.2-.37-.12-.42-.13-.49-.13-.39.07-.42.07-.46.08-.19.01-.34-.04-.53-.11-.34.04-.45.04-.52.04-.4-.04-.44-.04-.48-.05-.44.1-.5.17-.51.28.19.52.42.55.57.56-.08.38-.13.41-.18.44-.26.18-.43.29-.35.44.38.11.43.14.44.29.34.34.4.38.4.38.35.08.27,1.61.27,1.61-.37.28-.38.37-.38.37-.41.32-.44.31-.46.31-.57-.2-.87-.26-1.23-.17-.14.06-.53.3-.53.3-.33.07-.4.03-.47,0-.35,0-.38,0-.42,0-.44.03-.61.04-.78.06-.24-.4-.22-.42-.01-.44.18-.02.43-.04.56-.26.06-.47,0-.55-.05-.59-.35-.07-.39-.07-.43-.06-.3.05-.36.05-.43.05-.22,0-.33,0-.45-.01-.5.05-.67.11-.89.1-.39-.05-.43-.09-.43-.09-.42.06-.53.1-.65.15-.26.09-.5.18-.76.15-.36-.1-.42-.11-.49-.13.28-.37.44-.42.66-.44.41-.04,1.23-.15,1.23-.15-.41-.28-.46-.33-.52-.39.29-.3.14-.38-.04-.46-.08-.37.02-.39.13-.43.25-.34.24-.37.25-.38.34,0,.45.03.45.03.29.02.36.02.47,0,.36-.35.3-.42.2-.47-.24-.34-.26-.35-.28-.37-.33-.09-.53-.16-.77-.28-.47-.11-.58-.1-.69-.07-.56.37-.7.34-.97.26-.15-.04-.33-.1-.53-.1-.32,0-.5,0-.62-.07-.22-.14-.46-.13-.68-.12.22-.23.33-.29.45-.33.41-.14.69-.21.69-.21.44-.13.49-.13.55-.13.23-.13.34-.16.49-.18.36-.32.25-.41.25-.41.64-.27.8-.4.84-.63-.41-.38-.45-.4-.48-.41-.36-.06-.41-.05-.46-.05-.37.05-.55.07-.55.07-.34.07-.44-.05-.44-.05-.37-.01-.52,0-.52,0,.39-.36.42-.35.45-.35.29-.03.41-.08.45-.25.23-.28.45-.29.45-.29-.37-.37-.38-.38-.4-.39-.55-.03-.64-.01-.75-.05l-.52-.36c.36.05.48,0,.55-.06.09-.58-.11-.66-.26-.73-.41-.18-.51-.21-.51-.21-.35-.07-.39-.08-.43-.09-.35-.11-.4-.12-.44-.13-.16-.04-.2-.13-.27-.37-.18-.41-.16-.45-.11-.49.23-.19.33-.36.3-.5-.18-.4-.17-.56-.17-.71.03-.45.06-.67-.08-.78-.02-.24.12-.38.04-.57-.46-.35-.72-.38-.99-.33-.32.14-.47.08-.47.08-.03.33-.03.37-.04.41-.05.23-.08.38,0,.49-.29.53-.18.83-.1,1.07.05.43.02.5,0,.57-.12.38-.12.41-.13.44-.01.21-.01.3,0,.4-.08.35-.06.41-.03.48.06.28.03.4-.03.41-.36-.14-.45-.16-.52-.12-.15-.16-.28-.3-.5-.26-.19-.07-.34-.15-.5,0-.22,0-.34-.02-.46.03-.2.08-.39.16-.48.32-.13.36-.13.37-.13.37.43.25.54.27.68.3.15.06.22.4.22.4.09.35.04.57.04.57-.19,0-.32-.02-.52.04-.31-.07-.59-.16-.72.03-.63.11-.77.25-.76.53.02.32.28.4.28.4-.45.36-.64.37-.83.5-.33.29-.47.66-.24.93.13.4.01.56-.07.69-.03.35.2.44.2.44.2.01.32.03.45.07-.02.34.09.36.16.37.39.25.56.38.83.39.33.23.25.92.25.92-.31-.43-.36-.57-.47-.67-.08-.07-.22-.15-.47-.14-.39.03-.46.03-.46.03-.39.03-.6.02-.6.02-.14,0-.33-.01-.51-.05-.77.03-1.05.11-1.36.08-.38-.08-.51-.14-.51-.14-.45-.06-.55-.05-.65-.03-.15.03-.3.08-.44.12-.11-.23-.17-.5-.2-.8l.96-.07-.54-.19c.09-.23.01-.32-.09-.42.47-.46.27-.58,0-.73-.19-.3-.18-.41-.14-.56.51-.19.6-.21.7-.24.11-.39.1-.46.12-.48.28-.08.39-.05.59.02.26.05.36.06.47.07.37.03.42.02.42.02.15-.03.3-.08.44-.16.13-.32.05-.42-.1-.51.02-.24-.17-.41-.29-.52-.59-.26-.9-.38-1.27-.6-.32-.8-.65-1.34-1.61-1.47l.43-.11-.98-.07c.07-.01.14-.03.22-.04.35-.15.4-.21.44-.28-.05-.3-.08-.34-.08-.42.02-.21.2-.29.78-.32.31.04.57-.15.65-.49-.18-.34-.34-.47-.53-.57-.18-.13-.6-.2-.6-.2-.26.01-.43.03-.43.03-.14.01-.28.03-.42.04-.02,0-.34-1.11-.34-1.11.29-.37.41-.42.41-.42.16-.47-.02-.5-.1-.52-.24-.15-.42-.29-.66-.23-.29.07-.45.1-.65.02l-.62-.66c.41.08.6,0,.7-.07.1-.07.22-.22.21-.49-.02-.36-.31-.51-.53-.62-.33-.23-.43-.25-.43-.25-.46-.16-.63-.22-.81-.25-.29-.06-.68-.22-.68-.22-.49-.16-.54-.35-.62-.71-.07-.28-.08-.38-.08-.38-.16-.3-.12-.37-.03-.43.38-.28.55-.51.51-.73-.35-.36-.35-.38-.35-.38.11-.3.14-.55.17-.81.03-.32.04-.35.05-.4.06-.32.09-.6-.08-.76,0-.43.21-.63.11-.9-.05-.13-.11-.26-.21-.4-.45-.17-.84-.24-1.27-.19-.18.02-.39.06-.52.2-.27.38-.29.44-.31.5-.1.34-.16.58-.06.74.09.3.06.38.06.38-.57.47-.44.93-.34,1.31.06.21.12.43.07.59-.2.44-.25.54-.29.64-.1.36-.12.46-.12.46-.03.22-.03.38-.04.53-.39.33-.17.46-.17.46.11.4.17.57.15.68-.28.28-.38.23-.46.19-.28-.14-.42-.19-.57-.14-.25-.28-.41-.48-.7-.45-.41-.16-.6-.24-.79-.07-.4,0-.58-.04-.76.03-.33.11-.62.21-.77.45-.05.07-.2.31-.24.5-.03.28.13.39.28.4.29.04.44.07.61.12.12.26.22.76.22.76l-.21.62-.47.3c-.46-.14-.87-.3-1.08-.03-.17.14-.3.14-.44.13-.57,0-.79.2-.81.61,0,.13-.02.36.18.52l.05.7c-.62.01-.92,0-1.22.19-.53.4-.78.93-.5,1.34l-.18,1.24c-.06.28-.07.43-.07.43.4.13.45.15.5.16.22.04.39.08.54.14-.06.17-.15.27-.1.4.29.2.21.49.21.49l-.49.2-.56.04-.73.58c-.26.35-.74.69-.74.69l-.69-.04-.54.39-1,.52-.93.18-1.33-.5-.93-.6c-.19-.15-.43-.18-.61-.19-.33-.33.11-.45.11-.45.02-.69-.15-.88-.51-.93-.33-.1-1.18-1.31-1.18-1.31.45-.02.61-.11.62-.3-.02-.22-.11-.42-.12-.45-.1-.2-.31-.3-.47-.38-.21-.1-.36-.09-.46-.09-.29-.2-.5-.1-.57-.07-.4-.03-.56.13-.65.22-.3.04-.55.14-.55.14-.16-.19-.1-.3-.07-.37.1-.26.14-.45.14-.45-.12-.22-.11-.33-.11-.43,0-.03-.04-.4-.04-.4-.1-.32-.13-.39-.14-.48-.02-.09.04-.24.11-.38.11-.26.27-.61-.03-.91.11-.41.09-.6.05-.87-.02-.11,0-.53,0-.53-.3-.02-.45-.07-.56-.09-.32-.07-.61-.06-.83-.03-.48.59-.32.77-.24.87-.3.25-.29.51-.28.71-.02.53-.01.68.02.85-.33.42-.23.62.03.86-.13.37-.15.44-.18.5-.09.25-.14.34-.3.37-.16.03-.47.11-.47.11-.3.03-.41.06-.52.08-.37.07-.44.15-.44.15-.35.12-.6.21-.66.5v.85c-.48-.16-.65-.05-.73,0-.39.22-.65.28-.65.28.13.2.43.23.43.23.22.36.24.41.27.45l-.47.48c-.41-.08-.42-.09-.42-.09l-.45.02c-.21.14-.35.22-.47.33-.04.51.21.64.44.64.4.27.24.38.24.38.14.27-.53,1.26-.53,1.26-.17,0-.44,0-.44,0-.44.21-.67.28-.93.31-.28.16-.4.25-.46.37l-2.41.07c-.08-.19-.27-.25-.44-.27-.41-.32-.76-.23-.9-.19-.35-.07-.5-.06-.7.05-.39.06-.47.06-.55.07-.61,0-.78-.07-.83-.16.16-.27.22-.34.27-.41.29-.33.36-.37.42-.42.35-.07.55-.06.55-.06.34.01.4.02.45.02.19-.02.3-.04.42-.05.38-.49.29-.68.29-.68-.09-.19-.29-.28-.43-.35-.19-.09-.33-.09-.43-.08-.19-.12-.34-.14-.52-.06-.34-.03-.5.12-.58.2-.24.02-.5.12-.5.12.04-.39.07-.46.09-.54-.07-.37-.06-.47-.06-.57-.05-.43-.07-.5-.1-.57-.08-.29-.02-.41.03-.53.1-.24.25-.56-.04-.84.1-.35.08-.52.05-.76-.01-.09,0-.5,0-.5-.29,0-.42-.05-.52-.07-.29-.07-.55-.05-.75-.03-.45.55-.3.73-.23.81-.27.2-.26.43-.25.62-.01.47-.01.6.02.75-.29.38-.2.57.04.8-.12.3-.14.36-.16.42-.39.35-.67.41-.67.41-.26.03-.36.05-.45.07-.36.07-.42.15-.42.15-.3.1-.54.18-.59.46-.03.16,0,.29.11.39-.51.2-.67.3-.75.35-.36.19-.63.26-.63.26.15.21.44.24.44.24.19.34.23.41.28.46l-.77.26s-.5,0-.5,0c-.4.3-.48.38-.48.38.04.42.27.53.49.54.18.28.26.47.26.47.45.28.55.31.62.37.41.09.49.08.51.09.13.12.47.24.47.24.51.21.61.28.72.35-.1.05-.36.03-.59.16-.11.06-.27.05-.45.04-.35-.02-.54.02-.7.06-.27.06-.38.08-.54-.04-.43-.29-.49-.31-.55-.32-.46.03-.51.05-.57.07-.25.1-.44.16-.68.19-.28.16-.42.26-.46.42-.19.35-.08.43-.08.43.41.17.48.17.54.16.49-.05.54-.06.61-.03.15.38.21.4.27.42-.08.4-.29.49-.24.69.01.31.02.39.02.39l-.58.13,1.1.21c.62.1.76.16.83.22-.52.32-.74.23-1,.12-.42-.16-.49-.18-.56-.18-.21,0-.43.05-.43.05-.31.01-.47-.05-.66-.13-.44,0-.54,0-.64,0-.46-.07-.51-.08-.55-.09-.29-.05-.41,0-.49.05-.19.26-.18.37-.18.37.2.55.48.59.66.62-.08.34-.25.43-.25.43-.28.17-.37.22-.42.29l-.03-.02c-.3-.26-.46-.27-.59-.28-.37-.07-.43-.01-.43-.01-.35.1-.39.11-.43.1-.31.1-.37.12-.46.16.39-.22.47-.26.55-.3.31-.11.56-.18.56-.18.24-.57.12-.69-.13-.7-.35-.22-.58-.14-.69-.11-.29-.04-.39-.02-.53.07-.31.07-.38.07-.43.08-.49.02-.63-.02-.68-.1.11-.25.15-.3.19-.37.36-.39.43-.4.57-.41.44,0,.48,0,.52,0,.49-.06.59-.14.59-.26-.18-.43-.33-.49-.45-.54-.53-.17-.67-.09-.71-.07-.27,0-.37.11-.43.18-.37.12-.43.15-.45.15.03-.36.05-.41.06-.47-.07-.28-.07-.35-.08-.43-.06-.32-.08-.38-.11-.43-.08-.23-.04-.33,0-.43.06-.18.15-.43-.07-.62.05-.3.03-.42-.01-.6,1.59-1.18,3.07-2.38,4.5-3.59,1.53-1.38,2.8-2.83,4.03-4.24,2.41-2.75,4.91-5.6,8.04-7.85.93-.68,1.87-1.36,2.8-2.03,5.63-4.06,11.46-8.26,15.53-13.98.96-1.34,2.27-2.54,3.53-3.7.68-.62,1.38-1.26,2.03-1.92,6.99-7.14,14.03-14.89,20.91-23.02.33-.39.55-.84.76-1.27.09-.19.18-.37.28-.55l.64-.95c.46-.69.92-1.37,1.4-2.05,1.25-1.79,2.39-3.67,3.48-5.5,1.94-3.22,3.95-6.56,6.65-9.43.48-1.05,1.09-1.77,1.96-2.31l-1.74,3.45c-.14,2.4.69,3.85,2.25,4.13,1.7.3,2.88,1.22,4.14,2.2.96.75,1.96,1.53,3.21,1.99.29.11.47.24.51.36.04.13-.04.34-.24.58-1.23,1.48-1.8,3.19-2.36,4.84-.51,1.51-.99,2.94-1.93,4.23-1.01,1.38-2,2.88-2.09,4.74-.07,1.53.67,2.96,1.9,3.62.94.51,2.02.51,3.05,0,.8-.4,1.7-.75,2.56-1.08,2.33-.9,4.75-1.84,6.19-4.02.6-.91,1.22-1.39,1.7-1.36.55.03,1.15.63,1.67,1.66,1.34,2.68,2.55,5.08-.31,7.36-.63.51-1.17,1.71-.92,2.51,1.17,3.69-.54,6.7-2.36,9.88l-.58,1.02c-1.02,1.82-1.23,3.04-.69,3.93.54.89,1.81,1.41,4.11,1.67,1.89.21,2.95.33,3.36,2.35.76,3.69,4.76,5.99,9.54,5.46,2.29-.25,3.89.58,5.21,2.71,1.26,2.05,2.82,3.31,4.62,3.74.49.12,1,.18,1.53.18,1.48,0,3.11-.46,4.88-1.39.57-.3,1.09-.67,1.6-1.03,1.04-.74,2.01-1.44,3.25-1.44,4.7.04,8.6-1.85,12.33-3.68.97-.48,1.97-.96,2.98-1.41v-.9c-1.16.51-2.31,1.06-3.42,1.61-3.74,1.84-7.28,3.58-11.68,3.58"
    fill="#13110c" />
  <path
    d="M84.55,141.93c4.28-.27,3.59,2.47,4.08,4.97.69-.65,1.05-.85,1.18-1.14.74-1.55,1.14-3.24,3.95-2.32,1.19.39,1.06-.71.43-1.29-1.06-.98-1.33-1.84-.09-2.91.45-.38.19-1.65-.35-1.24-2.72,2.11-3.67-1.09-5.94-1.43.49,2.49.57,4.78-3.27,5.35"
    fill="#13110c" />
  <path
    d="M127.27,149.89c-1.86-.11-2.71.82-2.99,1.58-1.43,3.76-4.73,6.6-6.24,10.3-.96,2.35-1.99,4.61-4.6,6.11-1.53.88-2.27,2.49-2.03,4.62,7.96-6.28,11.43-14.55,15.86-22.6"
    fill="#13110c" />
  <path
    d="M132.44,171.43c.52.1,1.05-.18.94-.7-.08-.38-.42-.84-.79-1.01-1.48-.71-2.8-.24-4.14.49-2.31,1.26-2.89,3.48-3.91,5.43-.99,1.87-2.03,3.06-4.35,1.38-1.96-1.41-3.47-.78-5.07.67-1.86,1.67-3.49,3.46-6.21,4.44-2.01.73-3.62,2.73-4.07,5.19,2.67-3.54,7.96-3.93,10.75-7.33.64-.79,1.15-2.3,3.1-1.47,4.97,2.08,6.04,1.84,8.31-3.28.92-2.07,1.86-4.52,5.45-3.79"
    fill="#13110c" />
  <path
    d="M140.5,176.18c-.54-1.22-1.67-.52-2.45-.03-1.01.62-2.09.42-3.19.46-1.32.05-2.8.17-2.86,2.16,2.29-.41,4.63.02,6.74-.94.75-.34,2.25-.53,1.75-1.65"
    fill="#13110c" />
  <path
    d="M122.78,188.69c-2.23,2.46-4.66,4.1-8.58,3.16-2.97-.71-4.75.92-6.1,3.28,2.59.77,3.65-2.43,5.84-1.53,4.54,1.86,7.19-.61,9.85-3.15,3.1-2.95,3.23-2.97,6.43.21,1.44-1.32,1.3-2.26-.5-3.37-3.04-1.88-5.08-.64-6.94,1.41"
    fill="#13110c" />
  <path
    d="M15.45,196.74c.73-.04,1.29-1.27,1.42-2.18.29-1.97,1.2-2.98,3.91-1.84-.73-1.47-1.43-2.78-3.2-2.45-1.42.27-2.16,1.34-2.35,2.68-.24,1.75-1.16,2.72-3.38,2.69-1.29-.02-8.13,6.07-8.45,7.27-.06.22.25.51.32.64,4.9-1.02,6.28-6.53,11.72-6.81"
    fill="#13110c" />
  <path
    d="M51.02,279.73c.05.58-.24,1.5.96,1.58.71.05,1.42.1,2.13.09,1.72-.01,3.43-.39,5.47-.15-1.13.7-2.03,1.19-2.84,1.78-.52.38-1.74.75-1,1.45.63.59,1.4,1.87,2.9.76,1.5-1.1,3.24-1.95,4.77-3.03,1.05-.75,1.9-.73,3.04-.17,2.27,1.13,4.63,2.12,6.95,3.19.6.28,1.05.37,1.44-.32.31-.55.66-1.02.04-1.54-.52-.44-1.17-.7-1.83-.95-1.13-.43-2.22-.94-3.71-1.58,2.19-.24,3.88-.44,5.56-.61,1.5-.16,1.32-1.05.88-1.84-.41-.74-1.28-.31-1.92-.25-1.81.16-3.61.41-5.42.62,1.45-1.09,2.55-2.47,4.41-2.83,0-.59,1.01-.72.83-1.39-1.47-1.18-2.78-.83-4,.39-.87.34-1.39.59-1.11-.41.49-1.71-.33-3.2-1.33-4.61-.2-.29-.47-.5-.86-.42-.49.1-.4.47-.33.77.16.77-.08,1.46-.45,2.14-.2.36-.57.67-.98.52-.64-.23-.07-.59.02-.89.41-1.37,1.11-2.78-.23-4.03-1.25-1.17-1.77-2.45-1.19-4.03.12-.34.06-.74-.35-.99-3.17,1.92-3.65,3.58-1.92,6.66.25.45.8.87.19,1.4-.29.25-.63.25-.98.09-.64-.3-.5-.77-.34-1.24.12-.34.13-.65-.27-.8-.42-.17-.66.12-.84.39-.21.32-.35.67-.55.99-1.17,1.87-.56,3.72.36,5.7-.77-.32-1.23-.58-1.73-.71-.55-.15-1.19-1.08-1.7,0-.38.81-.87,1.68.61,2.18,1.32.44,2.59,1.02,3.88,1.54-2.49-.05-4.95.14-7.42.15-.47,0-1.2-.35-1.13.43M59.32,273.79c0-.73-.31-1.8,1.33-1.08.62.27,1.34,0,1.8-.51.55-.62.16-1.25-.14-1.8-.55-.99-1.28-1.91-.72-3.09.05-.11.18-.2.43-.48.14,1.21.71,2.09,1.5,2.83.91.86.2,1.61-.08,2.4-.3.84-.65,1.69.61,2.21.65.27,1.17.22,1.68-.24.38-.35.8-.66,1.2-.98.29,1.24.06,2.27-.76,3.12-.39.74-1.67,1.23-2.53,1.26-.85.03-1.93-.11-2.6-.62-.47-.36-.72-.78-.95-1.22-.51-.55-.74-1.16-.74-1.82"
    fill="#13110c" />
  <path
    d="M157.03,300.84c10.27-2.77,20.93-4.31,31.89-4.86.99-.05,2.55.29,2.45-.79-.08-.75-1.63-.66-2.53-.56-6.73.75-13.63.87-20.18,2.36-9.67,2.21-19.25,4.65-29.01,6.65-11.42,2.34-22.87,3.49-34.98,1.66-13.85-2.08-27.84-1.13-41.41,1.82-2.47.54-5.13,1.12-6.99,2.66,1.23.58,2.03,0,2.86-.28,12.29-4.01,25.46-4.48,38.53-3.81,15.64.81,30.66,4.31,45.99,6.47,10.26,1.45,20.38,3.61,30.99,3.39.11-.13.17-.29.14-.47-.05-.28-.56-.37-.88-.47-17.38-.75-33.97-4.38-50.88-7.21.94-.16,1.86-.37,2.81-.48,10.7-1.28,21.08-3.35,31.2-6.08"
    fill="#13110c" />
  <path
    d="M119.85,388.51v3.5h.69c.44-.04.82-.21,1.15-.51.39-.36.58-.77.58-1.25s-.19-.88-.57-1.23c-.38-.34-.83-.51-1.38-.51h-.46Z"
    fill="#13110c" />
  <path d="M120.34,386.48h-.5v1h.63c.39-.2.48-.29.48-.49-.28-.47-.42-.51-.6-.51" fill="#13110c" />
  <path d="M111.26,388.59l1.86,2.59v-2.58c-.63.01-1.25,0-1.86,0" fill="#13110c" />
  <path
    d="M87.87,390.94c0,.39.16.72.5,1,.69.58,1.79.58,2.48,0,.33-.28.49-.6.49-.99v-2.44c-1.16,0-2.32-.04-3.47-.07v2.51Z"
    fill="#13110c" />
  <path
    d="M84.17,388.34c-1.99-.06-3.98-.1-5.96-.11-.57,1.18-.18,2.6,1.03,3.43.69.47,1.55.68,2.41.59.86-.09,1.62-.48,2.14-1.08s.74-1.35.62-2.11c-.04-.25-.12-.48-.23-.71"
    fill="#13110c" />
  <path d="M83.14,387.13c-1.3-.89-3.1-.77-4.23.2,1.53.03,3.06.06,4.23-.2" fill="#13110c" />
  <path
    d="M68.49,388.29c-.12.3-.19.62-.19.97,0,.79.3,1.44.93,2,.62.56,1.36.83,2.24.83s1.62-.27,2.24-.83c.63-.56.93-1.21.93-2,0-.38-.07-.73-.22-1.05-1.98.01-3.95.04-5.93.07"
    fill="#13110c" />
  <path d="M71.47,386.45c-.87,0-1.59.26-2.21.8,1.48,0,2.96,0,4.43.02-.62-.55-1.35-.82-2.23-.82"
    fill="#13110c" />
  <path
    d="M128.38,386.45c-.88,0-1.62.27-2.24.83-.62.56-.93,1.21-.93,2s.3,1.44.93,2c0-1.07,1.15-.57,1.74-.63,1.13-.12,2.27-.18,3.4-.21.18-.35.27-.73.27-1.15,0-.79-.3-1.44-.93-2-.63-.56-1.36-.83-2.24-.83"
    fill="#13110c" />
  <path
    d="M126.77,391.7c.48.26,1.01.39,1.61.39.68,0,1.27-.16,1.78-.49-.67.01-1.34.02-2.01.04-.45.01-.99.12-1.38.05"
    fill="#13110c" />
</svg>