<?xml version="1.0" encoding="UTF-8"?>
<svg id="Calque_1" data-name="Calque 1" xmlns="http://www.w3.org/2000/svg" viewBox="0 0 167.06 271.96">
  <path d="M67.9,266.09c-2.07-2.2-3.91-4.47-6.11-6.4.02-.05.02-.13.05-.15q.77-.41.77-1.3c0-.76,0-1.52.16-2.32.12.19.24.38.35.56.12-.26.06-.5-.17-.7-.25-.22-.34-.48-.34-.81,0-1.16.02-2.3.32-3.44.18-.7.16-1.44.24-2.17.11-.9.26-1.8.34-2.7.06-.67,0-1.35.03-2.02.09-1.46.18-2.92.2-4.39.02-1.24.19-2.48.36-3.71.27-1.98.69-3.94.86-5.92.15-1.7.63-3.33.82-5.02.18-1.62.64-3.2.92-4.81.22-1.28.6-2.52.73-3.83.14-1.5.48-2.98.7-4.48.11-.75.12-1.51.2-2.27.08-.72.22-1.43.31-2.15.09-.72.15-1.45.24-2.17.11-.84.24-1.68.34-2.51.08-.69.15-1.39.2-2.08.07-.81.12-1.63.17-2.38.35-.23.55-.14.72.07.74.89,1.45,1.8,2.22,2.66,1.49,1.67,2.99,3.33,4.52,4.96.98,1.05,2.05,2.02,3.04,3.07.64.68,1.19,1.44,1.81,2.13.53.58,1.09,1.12,1.68,1.63.66.57,1.14,1.31,1.92,1.75.17.09.29.5.23.71-.28.92-.62,1.83-.95,2.73-.72,1.94-1.38,3.89-2.22,5.78-.75,1.69-1.32,3.45-1.85,5.22-.33,1.1-.66,2.21-1.05,3.29-.43,1.2-.92,2.38-1.4,3.56-.68,1.69-1.38,3.37-2.07,5.06-.15.37-.28.74-.44,1.1-.61,1.4-.87,2.9-1.31,4.35-.39,1.28-.82,2.54-1.31,3.78-.54,1.39-1.1,2.76-1.48,4.2-.27,1.02-.69,2.01-1.01,3.02-.23.72-.45,1.45-.59,2.19-.22,1.1-.51,2.18-.99,3.21-.34.74-.6,1.53-.9,2.29-.04.11-.13.2-.27.41" fill="#010101"/>
  <path d="M82.7,265.05c.18.2.28.3.37.41-.03.07-.04.14-.08.17-.5.35-1,.7-1.51,1.02-.23.14-.49.26-.75.32-.2.04-.21.14-.3.28-.19.28-.55.44-.86.64-.17.11-.37.19-.55.3-2,1.28-4.05,2.49-6.16,3.59-.5.26-.67.28-1.04-.13-.49-.53-1.19-.89-1.36-1.68-.01-.05-.07-.11-.12-.13-.41-.16-.71-.5-.68-.89.03-.47.16-.98.41-1.38.86-1.36,1.31-2.86,1.79-4.36.49-1.53.93-3.08,1.45-4.6.32-.91.76-1.78,1.14-2.67.08-.19.17-.39.23-.59.36-1.16.91-2.24,1.44-3.32.37-.76.58-1.59.89-2.38.22-.57.5-1.11.7-1.69.39-1.15.79-2.3,1.09-3.46.49-1.85,1.11-3.65,1.82-5.43.77-1.92,1.52-3.84,2.32-5.74.49-1.17,1.11-2.29,1.61-3.45.57-1.34,1.18-2.68,1.56-4.08.31-1.17.6-2.35,1.02-3.49.33-.91.76-1.77,1.47-2.47.27-.26.37-.69.55-1.04.14-.29.29-.58.46-.93.21.14.36.19.45.3,1.17,1.37,2.66,2.38,3.99,3.56,1.62,1.42,3,3.01,4.29,4.7.18.24.43.44.64.66.43.44.83.87,1.14,1.42.3.52.81.91,1.18,1.31-.53.89-1.09,1.72-1.54,2.6-.8,1.58-1.51,3.2-2.32,4.77-.64,1.24-1.37,2.43-2.07,3.63-.43.74-.86,1.47-1.29,2.21-.84,1.44-1.71,2.86-2.52,4.32-.81,1.46-1.57,2.96-2.34,4.44-.86,1.65-1.76,3.28-2.56,4.96-.82,1.73-1.49,3.53-2.3,5.27-.48,1.03-.64,2.25-1.66,3.04" fill="#010101"/>
  <path d="M83.6,112.65c.24.14.45.21.58.35,1.22,1.32,2.42,2.65,3.63,3.97.74.81,1.48,1.6,2.21,2.42.26.29.49.62.74.93.21.25.45.48.66.73.13.16.29.35.32.54.1.6.14,1.2.22,1.81.1.84.21,1.68.31,2.52.03.24.05.49.05.73,0,1.35.06,2.7-.01,4.05-.06,1.18-.25,2.35-.4,3.52-.09.75-.2,1.5-.32,2.24-.14.83-.32,1.66-.47,2.5-.16.89-.29,1.79-.45,2.68-.12.65-.29,1.3-.4,1.96-.13.84-.19,1.69-.35,2.51-.21,1.09-.16,2.19-.18,3.29,0,.09.01.22-.04.27-.59.57-.17,1.02.25,1.47-.5.25-.97.13-1.41.15-.63.03-1.23.01-1.84.34-.78.42-1.67.63-2.56.82-.28.06-.51.14-.78,0-.15-.07-.36-.06-.54-.06-1.04,0-2.05-.17-3.07-.34-.42-.07-.86,0-1.29-.03-.35-.03-.7-.12-1.07-.18.14-.21.3-.36.28-.45-.42-1.46-.28-2.96-.32-4.46-.04-1.52-.14-3.05-.17-4.57-.03-1.5-.02-3.01,0-4.51,0-.36.1-.72.14-1.08.03-.3.08-.62.02-.91-.25-1.27-.26-2.54,0-3.81.04-.21.02-.43.02-.64,0-.89-.02-1.78,0-2.67.05-1.68.09-3.36.2-5.03.03-.43.27-.88.52-1.24.54-.8,1.05-1.62,1.58-2.43,1.26-1.96,2.1-4.13,3.23-6.16.22-.39.46-.77.73-1.21" fill="#010101"/>
  <path d="M44.76,246.19c-.27-.45-.44-.7-.57-.96-.51-1-.98-2.02-1.51-3.02-.43-.81-.94-1.57-1.36-2.38-.49-.95-.92-1.93-1.36-2.9-.88-1.94-1.68-3.91-2.84-5.72-.73-1.15-1.33-2.38-1.97-3.58-.66-1.23-1.29-2.48-1.99-3.82.94-.75,1.91-1.52,2.87-2.29.75-.61,1.48-1.23,2.23-1.83,1.32-1.07,2.65-2.13,3.98-3.21.65-.53,1.3-1.08,1.95-1.61,1.33-1.1,2.67-2.19,3.99-3.29.81-.67,1.62-1.36,2.43-2.03.92-.75,1.85-1.48,2.77-2.23.52-.43,1.01-.89,1.52-1.32,1.39-1.18,2.91-2.2,4.36-3.3,1.36-1.03,2.7-2.07,4.13-2.99.21-.14.38-.32.7-.08-.05.14-.08.31-.16.46-.95,1.85-1.94,3.67-2.84,5.54-.92,1.91-1.84,3.83-2.52,5.85-.29.86-.7,1.68-1.05,2.52-.5,1.21-.99,2.42-1.5,3.62-.63,1.51-1.3,3-1.91,4.52-.54,1.34-1.32,2.53-1.97,3.8-.46.88-.74,1.85-1.1,2.79-.19.48-.39.96-.54,1.45-.33,1.07-.61,2.15-.95,3.22-.36,1.16-.75,2.31-1.15,3.45-.27.77-.57,1.54-.85,2.31-.34.94-.59,1.92-1,2.82-.45.97-.72,1.99-1.06,2.99-.12.36-.4.66-.74,1.2" fill="#010101"/>
  <path d="M108.79,176.45c.15.1.23.14.23.17.02.95.04,1.9.03,2.84,0,.42-.09.84-.16,1.26-.26,1.58-.08,3.18-.21,4.76-.12,1.42-.28,2.84-.37,4.27-.08,1.18-.29,2.34-.36,3.53-.08,1.26-.36,2.51-.51,3.77-.15,1.17-.24,2.35-.39,3.53-.15,1.2-.36,2.39-.53,3.59-.14.99-.25,1.98-.39,2.97-.11.78-.26,1.55-.38,2.33-.12.78-.24,1.55-.35,2.33-.07.51-.11,1.02-.19,1.53-.17,1.14-.38,2.27-.53,3.4-.11.84-.12,1.7-.21,2.55-.09.9-.23,1.8-.34,2.7-.01.09-.02.18-.02.28-.06.94-.11,1.88-.2,2.82-.04.39-.17.76-.28,1.22-.19-.14-.34-.23-.46-.34-.35-.32-.69-.65-1.03-.99-.47-.47-.93-.95-1.42-1.41-1.04-.99-2.14-1.93-3.13-2.97-.87-.91-1.86-1.63-2.88-2.35-1.16-.82-2.22-1.78-3.31-2.71-.53-.45-1.01-.97-1.55-1.49.28-.59.57-1.21.87-1.83.68-1.38,1.36-2.77,2.06-4.15.37-.73.75-1.45,1.16-2.16.89-1.56,1.81-3.1,2.71-4.66.3-.52.59-1.05.88-1.58.71-1.31,1.42-2.62,2.1-3.94.33-.65.61-1.32.91-1.99.04-.08.04-.18.08-.26.63-1.25,1.23-2.52,1.9-3.75,1-1.84,2.09-3.63,3.07-5.48.96-1.83,1.71-3.75,2.35-5.71.23-.69.54-1.35.84-2.08" fill="#010101"/>
  <path d="M46.36,250.09c.36-.99.67-1.87,1-2.75.59-1.59,1.18-3.19,1.8-4.77.65-1.64,1.35-3.26,2.01-4.89.99-2.42,1.99-4.83,2.94-7.27.47-1.18.83-2.41,1.29-3.59.49-1.25,1.01-2.48,1.57-3.69.59-1.27,1.34-2.47,1.84-3.77.78-2.04,1.89-3.93,2.54-6.03.34-1.1.91-2.12,1.37-3.18.45-1.02.9-2.05,1.37-3.07.07-.16.25-.27.52-.55-.06.62-.09,1.03-.14,1.44-.11,1.04-.19,2.09-.36,3.12-.21,1.22-.15,2.48-.5,3.69-.14.49-.15,1.02-.22,1.53-.18,1.32-.39,2.63-.54,3.96-.15,1.3-.24,2.6-.39,3.89-.09.84-.23,1.68-.35,2.52-.01.09,0,.18-.01.28-.06,1.52-.1,3.05-.19,4.57-.06.93-.22,1.86-.33,2.79-.02.18-.03.37-.02.55,0,1.01-.18,1.99-.34,2.98-.16.99-.26,1.98-.4,2.97-.08.57-.21,1.13-.29,1.7-.1.69-.2,1.38-.25,2.08-.05.73-.09,1.45-.16,2.18-.16,1.51-.15,3.05-.22,4.57-.06,1.4-.14,2.79-.19,4.19-.02.48,0,.96,0,1.43,0,.12-.03.23-.06.4-.63-.1-1.16-.26-1.65-.67-.48-.39-1.1-.61-1.64-.94-.53-.32-1.02-.7-1.55-1.02-.47-.28-.95-.54-1.45-.75-1.65-.69-3.12-1.68-4.64-2.61-.74-.45-1.53-.84-2.36-1.29" fill="#010101"/>
  <path d="M84.58,208.05c-.21-.18-.43-.33-.6-.51-.95-1-1.86-2.02-2.83-3-2.18-2.21-4.36-4.4-6.58-6.57-1.04-1.02-2.19-1.93-3.24-2.94-.48-.46-.76-1.03-.82-1.77-.2-2.44-.06-4.89-.2-7.33-.07-1.22-.04-2.44-.17-3.65-.17-1.54-.26-3.09-.38-4.63-.14-1.67-.21-3.34-.37-5-.22-2.3-.05-4.59-.15-6.88-.04-.85-.19-1.7-.16-2.54.03-.9.2-1.8.31-2.7.03-.24.04-.49.04-.73,0-.36,0-.72,0-1.11.58-.18.78.16.98.5.49.84,1.01,1.67,1.45,2.54.98,1.97,2.31,3.72,3.47,5.57.39.62.84,1.19,1.22,1.81.16.28.23.62.29.95.09.51.19,1.02.2,1.53,0,.98.3,1.91.48,2.86.23,1.19.56,2.35.79,3.54.13.65.13,1.33.22,1.99.09.72.22,1.43.32,2.15.08.6.11,1.21.22,1.8.3,1.48.61,2.96.98,4.43.43,1.73,1,3.43,1.35,5.18.51,2.56,1.39,5.02,2.02,7.54.47,1.87.79,3.78,1.18,5.68.08.4.36.8,0,1.3" fill="#010101"/>
  <path d="M43.55,193.1c1.71-.08,3.39-.19,5.06-.23,1.78-.04,3.56,0,5.34-.01,1.13-.01,2.24.1,3.35.35.21.05.43,0,.64.03.42.05.84.1,1.26.17,1.04.18,2.11.29,3.11.59.81.24,1.64.37,2.53.61-.05.18-.05.4-.15.46-1.46.96-2.97,1.86-4.4,2.87-1.22.86-2.34,1.83-3.51,2.76-1.06.84-2.13,1.69-3.19,2.53-1.05.82-2.09,1.65-3.15,2.46-1.18.9-2.38,1.76-3.55,2.66-.94.72-1.84,1.49-2.76,2.24-.66.54-1.32,1.08-1.98,1.62-1.06.87-2.12,1.73-3.17,2.61-.48.4-.95.83-1.49,1.31-.04-.18-.13-.35-.09-.48.36-1.06.76-2.11,1.1-3.18.38-1.21.7-2.44,1.06-3.66.11-.38.23-.75.34-1.13.61-1.94,1.13-3.9,1.52-5.89.13-.68.4-1.33.58-2.01.47-1.78.94-3.57,1.38-5.36.11-.43.1-.88.15-1.32" fill="#010101"/>
  <path d="M105.3,147.94c.36.04.42.26.49.51.29,1.02.61,2.03.89,3.05.35,1.25.68,2.51,1.01,3.77.09.35.21.7.24,1.06.09,1.22.49,2.37.75,3.55.12.53.15,1.08.21,1.62.07.69.07,1.4.21,2.08.21,1.03.12,2.07.18,3.1.05.78.21,1.56.3,2.34.02.16-.06.35-.14.51-1.12,2.15-2.06,4.4-3.5,6.38-.57.78-1.01,1.66-1.48,2.51-.71,1.31-1.41,2.64-2.09,3.97-.36.7-.67,1.44-1,2.15-.06.13-.15.25-.34.54-.23-1.37-.73-2.51-.32-3.76.05-.17.07-.38.03-.55-.34-1.36-.1-2.74-.18-4.11-.02-.42-.11-.84-.16-1.26-.01-.12-.04-.25-.02-.37.24-1.05-.08-2.1-.02-3.16.06-1.04.01-2.09.01-3.13v-3.22c0-1.04-.02-2.09,0-3.13.02-.68.14-1.35.16-2.03.02-.63-.03-1.26-.05-1.89-.04-.94-.08-1.89-.11-2.83,0-.14.07-.29.15-.42,1.43-2.18,2.88-4.36,4.31-6.55.16-.25.31-.51.45-.75" fill="#010101"/>
  <path d="M97.02,161.5c.15.14.23.17.23.21.01,1.16.19,2.32-.09,3.47-.04.18-.06.37-.04.55.09.78.2,1.56.3,2.34.03.27.06.55.06.82,0,2.12-.02,4.24.01,6.35.02,1.27.01,2.56.2,3.81.29,1.93.11,3.85.15,5.77.04,1.93,0,3.87,0,5.8,0,.09-.05.18-.08.29.13.07.27.15.42.23-.02.08-.02.15-.05.19-.51.75-1.05,1.48-1.54,2.24-.73,1.12-1.45,2.25-2.14,3.39-.79,1.3-1.54,2.62-2.33,3.92-.53.87-1.1,1.72-1.67,2.57-.09.13-.3.17-.53.3,0-1.05-.02-2.03,0-3,.01-.53.14-1.05.14-1.57,0-1.28.13-2.55.37-3.8.01-.06,0-.12,0-.18.06-1.31.05-2.63.2-3.93.35-2.97.05-5.94.18-8.9.05-1.12.23-2.23.34-3.34.08-.76.15-1.51.2-2.27.07-1.06.1-2.13.2-3.19.09-1.03.17-2.06.39-3.06.15-.67.48-1.31.81-1.93.62-1.15,1.28-2.28,1.95-3.4.74-1.22,1.52-2.41,2.32-3.67" fill="#010101"/>
  <path d="M93.99,118.86c-1.36-1.32-2.84-2.53-4.04-3.98-1.04-1.26-2.04-2.6-2.62-4.18-.13-.34-.27-.76-.76-.7.02-.2.01-.27.04-.31.82-1.33,1.3-2.81,2.01-4.18.78-1.52,1.3-3.14,2-4.69.33-.74.71-1.47,1.07-2.23.81.19,1.32.74,1.93,1.11,1.66,1.01,3.03,2.4,4.57,3.56.48.36.92.79,1.38,1.18.27.22.35.5.26.82-.54,1.95-.99,3.93-1.63,5.85-.8,2.39-1.88,4.67-3.31,6.77-.23.34-.56.61-.91.99" fill="#010101"/>
  <path d="M88.93,169c-.11.21-.26.36-.27.52-.14,1.68-.37,3.37-.07,5.06.1.58-.06,1.18,0,1.78.04.41-.11.84-.13,1.26-.03.43,0,.86,0,1.29-.06,1.92-.1,3.85-.19,5.77-.03.69-.21,1.37-.31,2.06-.03.21-.04.43-.04.64,0,.8-.02,1.6,0,2.4.03,1.25-.13,2.48-.34,3.71-.19,1.1-.27,2.23-.39,3.34-.07.66-.11,1.33-.2,1.99-.03.25-.18.48-.45.7-.11-.33-.26-.65-.31-.99-.23-1.87-.74-3.68-1.23-5.49-.29-1.08-.53-2.18-.83-3.25-.3-1.05-.67-2.08-.97-3.12-.15-.52-.23-1.06-.3-1.6-.28-2.01-.53-4.02-1.01-5.99-.3-1.23-.54-2.48-.82-3.72-.25-1.06-.45-2.14-.81-3.17-.3-.86-.22-1.74-.4-2.6-.03-.13.19-.4.35-.46.34-.12.71-.21,1.06-.21,2.49-.01,4.97,0,7.46,0,.06,0,.11.04.23.08" fill="#010101"/>
  <path d="M138.29,64.51c2.07,3.23,4.34,6.31,6.12,9.83-.11.08-.27.27-.48.34-.54.19-1.08.4-1.64.49-.81.12-1.63.13-2.45.21-1.12.11-2.23.23-3.34.35-.76.08-1.51.13-2.27.21-.33.03-.65.11-.98.15-.63.08-1.27.14-1.9.22-.48.06-.97.09-1.44.19-1.1.23-2.22.31-3.32.47-1.13.16-2.28.29-3.43.44-1.02.14-2.04.24-3.07.35-.15.02-.31,0-.46.02-.54.05-1.08.12-1.63.17-.2.02-.4-.02-.7-.05.17-.19.24-.34.36-.4,2.59-1.35,4.91-3.1,7.38-4.64,1.75-1.09,3.54-2.12,5.28-3.21.82-.51,1.58-1.12,2.38-1.67,1.43-.99,2.89-1.92,4.42-2.73.39-.21.76-.47,1.15-.71" fill="#010101"/>
  <path d="M136.23,94.88c-1.39.99-2.65,1.81-4.02,2.46-.41.19-.78.46-1.16.7-.88.55-1.89.76-2.85,1.06-1.08.33-2.04.87-3.03,1.37-.92.47-1.82.94-2.8,1.29-.58.21-1.07.7-1.65.91-.56.2-.81.58-1.02,1.06-.62,1.42-1.65,2.55-2.61,3.72-.42.52-.83,1.04-1.24,1.57-1.15,1.53-2.27,3.08-3.46,4.58-.87,1.08-1.83,2.09-2.76,3.12-.05.06-.16.05-.34.11-.14-.82-.28-1.62-.42-2.41-.12-.68-.22-1.38-.4-2.05-.26-1-.56-1.98-.52-3.03,0-.09.02-.19,0-.27-.41-1.22.25-2.07,1.07-2.78,1.34-1.16,2.66-2.35,4.17-3.3.96-.61,1.81-1.41,2.76-2.03,1.11-.72,2.29-1.35,3.43-2.02.81-.48,1.62-.95,2.55-1.19,1.05-.28,2.09-.59,3.12-.92.67-.21,1.32-.47,1.97-.7,1.36-.49,2.76-.85,4.19-1.1,1.1-.19,2.19-.32,3.3-.35.36,0,.72-.16,1.07-.15.19,0,.37.21.66.38" fill="#010101"/>
  <path d="M21.67,37.15c.21-.35.35-.65.55-.9,1.18-1.5,2.38-2.98,3.58-4.47.61-.76,1.2-1.54,1.86-2.25.47-.51,1-.99,1.57-1.39,1.52-1.06,3.11-2.02,4.61-3.11,2.27-1.66,4.69-3.11,6.75-5.05.7-.66,1.5-1.22,2.28-1.79.31-.22.71-.3,1.04-.49.28-.17.52-.41.78-.61.09-.07.2-.11.39-.21,0,.19.04.32,0,.39-.44.73-.92,1.43-1.34,2.17-.88,1.53-1.76,3.06-2.58,4.62-.42.81-.85,1.61-1.3,2.39-1.05,1.82-2.08,3.64-3.1,5.48-.37.67-.68,1.36-.98,2.06-.14.33-.26.57-.65.35-.34-.2-.32.22-.46.27-.92.29-1.86.53-2.79.78-.79.21-1.58.39-2.36.64-1.24.39-2.53.59-3.8.78-1.1.16-2.23.22-3.33.42-.19.03-.41-.04-.7-.08" fill="#010101"/>
  <path d="M81.19,108.92c-.38.74-.7,1.46-1.11,2.13-.98,1.64-1.98,3.26-2.99,4.88-.21.33-.47.63-.75.91-.47.47-.78.45-1.2-.06-.37-.44-.72-.91-1.09-1.34-.79-.92-1.59-1.83-2.38-2.75-.16-.18-.3-.38-.44-.58-.68-.93-1.38-1.85-2.01-2.81-.66-1-1.35-2-1.83-3.12-.2-.47-.48-.9-.72-1.34,2.09-2.18,4.15-4.33,6.27-6.55,2.92,3.48,5.71,6.98,8.26,10.63" fill="#010101"/>
  <path d="M45.86,84.63c-.09.05-.19.13-.24.11-1-.34-2.08-.39-3.04-.88-.73-.37-1.49-.66-2.25-.96-.99-.38-2-.69-2.98-1.09-1.28-.53-2.53-1.13-3.79-1.7-.11-.05-.22-.12-.33-.13-.77-.09-1.15-.58-1.36-1.27-.04-.15-.14-.28-.22-.42-.12.06-.19.07-.23.11-.17.18.05.61-.38.62-.37.01-.26-.36-.39-.54-1.33-1.83-2.24-3.88-3.05-5.98-.69-1.79-1.18-3.64-1.85-5.42-.68-1.82-1.17-3.7-1.72-5.55-.06-.22-.06-.45-.11-.83.98.78,1.6,1.64,2.28,2.45,1.04,1.23,1.91,2.6,3.07,3.74.61.6,1.14,1.27,1.72,1.89.86.93,1.74,1.85,2.61,2.76.33.35.67.7,1.01,1.04,1.23,1.23,2.47,2.45,3.69,3.7,1.13,1.16,2.24,2.35,3.35,3.53.87.92,1.73,1.84,2.59,2.77.53.58,1.05,1.18,1.57,1.77.05.06.05.17.08.27" fill="#010101"/>
  <path d="M8.23,53.22c-.31-.43-.57-.8-.94-1.31.49.04.85.02,1.18.12.95.29,1.88.66,2.84.93,1.22.35,2.4.79,3.58,1.24.73.28,1.5.45,2.25.67.29.08.59.12.88.21.33.1.64.23.61.67,0,.11.07.23.13.33,1.33,2.41,2.01,5.06,2.83,7.66.34,1.07.78,2.11,1.19,3.15.29.73.58,1.47.91,2.19.46.98.95,1.95,1.43,2.91.34.68.69,1.36,1.06,2.07-.11.15-.21.3-.29.43.51.9,1.02,1.79,1.53,2.69.02.03-.05.1-.08.15-.06,0-.14.03-.16,0-1.19-1.15-2.4-2.29-3.56-3.48-.59-.61-1.08-1.31-1.62-1.97-.5-.61-1-1.22-1.48-1.84-1.06-1.36-2.13-2.72-3.15-4.11-.9-1.22-1.74-2.49-2.83-3.57-.77-.76-1.33-1.73-2.07-2.52-.97-1.02-1.59-2.29-2.49-3.35-.53-.62-1.02-1.28-1.57-1.89-.59-.66-.61-.64-.17-1.38" fill="#010101"/>
  <path d="M57.46,68.96c.37-.02.69-.04.88-.06.92,1.05,1.72,2.08,2.65,2.99,1.22,1.19,2.08,2.62,2.91,4.07.47.82.94,1.64,1.41,2.45.51.9,1.03,1.8,1.54,2.7.61,1.09,1.18,2.2,1.84,3.26,1.25,2.02,2.24,4.15,2.98,6.4.24.73.43,1.45-.12,2.19-.2-.07-.46-.13-.68-.26-.46-.27-.87-.74-1.36-.84-.7-.14-1.08-.67-1.58-1.02-.69-.49-1.37-.97-2.11-1.39-1.22-.71-2.36-1.57-3.53-2.36-.23-.15-.47-.29-.68-.46-.23-.19-.53-.38-.61-.63-.19-.57-.29-1.17-.4-1.77-.36-1.9-.71-3.8-1.08-5.7-.43-2.16-.88-4.33-1.34-6.48-.18-.83-.43-1.64-.64-2.46-.05-.2-.04-.41-.06-.64" fill="#010101"/>
  <path d="M113.5,225.27c-.36,1.28-.71,2.38-.97,3.5-.38,1.59-.75,3.18-1.03,4.78-.16.95-.13,1.94-.21,2.91-.03.42-.17.84-.17,1.26,0,.92.09,1.83.09,2.75,0,.41-.03.81.03,1.22.03.21-.23.48-.4.68-.23.27-.47.56-.76.76-1.01.71-1.72,1.71-2.63,2.52-.98.87-1.96,1.74-2.96,2.57-.27.22-.58.44-1,.22-.47-.24-.61-.42-.52-.94.16-.95.35-1.9.52-2.85.01-.06.01-.12.02-.18.06-1.19.1-2.37.19-3.55.06-.81.2-1.62.3-2.43.02-.15.06-.3.05-.45-.01-.95.17-1.87.34-2.79.12-.65.14-1.33.21-1.99.04-.41.1-.82.17-1.35,1-.69,2.14-1.43,3.22-2.24,1.25-.95,2.47-1.95,3.67-2.95.46-.38.83-.86,1.26-1.28.1-.1.3-.1.56-.18" fill="#010101"/>
  <path d="M69.62,95.78c-.33.38-.27.86-.66,1.13-.38.26-.76.52-1.07.84-.67.69-1.51,1.2-2.1,1.99-.12.16-.35.23-.52.36-.23.18-.42.13-.67.01-1.39-.67-2.55-1.66-3.67-2.69-.49-.45-1.02-.86-1.45-1.35-.97-1.09-1.88-2.23-2.83-3.34-.42-.49-.94-.9-.88-1.58-1.02-.72-1.96-1.42-2.68-2.37-.05-.07-.12-.14-.19-.2-1.34-1.06-2.32-2.45-3.38-3.76-.32-.4-.67-.78-.99-1.18-.5-.61-1.02-1.21-1.48-1.85-1-1.37-1.98-2.75-2.97-4.13-.03-.04-.01-.12-.02-.18.24-.25.38-.02.52.12.72.65,1.41,1.33,2.15,1.95.92.76,1.73,1.62,2.57,2.46.65.65,1.54,1.07,2.33,1.58.6.39,1.22.75,1.83,1.12.72.45,1.45.89,2.17,1.35.68.43,1.37.86,2.03,1.33,1.07.75,2.15,1.48,3.15,2.32,1.64,1.37,3.49,2.43,5.23,3.65.87.61,1.72,1.24,2.59,1.84.31.22.66.38,1.01.58" fill="#010101"/>
  <path d="M103.42,123.86c.77.28,1.41-.27,2.13-.28.69,0,1.39-.06,2.14-.09.02.05.1.18.07.26-.49,1.56-.84,3.15-1.22,4.74-.44,1.82-.98,3.62-1.41,5.44-.25,1.06-.53,2.11-.49,3.23.02.5-.06,1.05-.26,1.51-.26.6-.29,1.23-.47,1.84-.07.25-.18.53-.36.7-1.46,1.31-2.93,2.6-4.41,3.89-.85.74-1.7,1.47-2.57,2.18-.42.34-.89.61-1.33.92-.2-.18-.34-.3-.46-.42,0-.07,0-.14.02-.18.13-.23.34-.43.41-.68.37-1.38.86-2.72,1.51-4,.9-1.76,1.65-3.59,2.27-5.47.57-1.7,1.19-3.37,1.75-5.07.3-.92.48-1.87.58-2.84.22-2.04.82-3.95,2.11-5.69" fill="#010101"/>
  <path d="M1.34,26.55c-.03-.21-.11-.38-.06-.5.23-.56.12-1.15.17-1.72.09-.99.25-1.98.33-2.97.05-.67,0-1.35.03-2.02.07-1.24.13-2.48.34-3.71.11-.69.16-1.39.21-2.08.07-1.03.1-2.07.2-3.1.09-1.02.25-2.04.36-3.07.04-.39.22-.65.55-.88,1.62-1.17,3.16-2.45,4.7-3.73,1.14-.95,2.34-1.82,3.52-2.72.09-.07.27-.03.45-.05-.42,1.27-.82,2.46-1.22,3.65-.63,1.87-1.06,3.79-1.49,5.71-.24,1.06-.51,2.12-.71,3.18-.17.87-.56,1.65-.9,2.45-.55,1.28-1.11,2.56-1.73,3.8-.65,1.31-1.36,2.59-2.09,3.85-.75,1.28-1.57,2.53-2.36,3.79-.03.04-.1.05-.28.13" fill="#010101"/>
  <path d="M35.13,94.48c.56.09,1.15.11,1.68.28,1.3.41,2.56.95,3.86,1.35,1.4.43,2.65,1.13,3.89,1.87.67.4,1.36.76,2.01,1.2.88.59,1.73,1.23,2.57,1.86,1.08.82,2.17,1.63,3.22,2.5.86.71,1.67,1.48,2.5,2.23.7.63,1.39,1.26,2.12,1.87.77.64,1.55,1.26,2.35,1.86.59.44.74.8.45,1.45-.26.59-.57,1.15-.85,1.73-.36.73-.71,1.46-1.06,2.2-.24.49-.45,1-.71,1.49-.2.38-.42.38-.66.03-.66-.98-1.31-1.97-1.99-2.95-.42-.6-.89-1.16-1.3-1.76-.72-1.09-1.39-2.21-2.12-3.29-.42-.63-.9-1.23-1.41-1.79-.83-.94-1.67-1.87-2.57-2.75-.95-.93-2.06-1.67-3.17-2.4-.73-.47-1.38-1.06-2.08-1.58-.36-.27-.76-.49-1.14-.73-.68-.45-1.4-.86-2.04-1.36-.76-.59-1.46-1.27-2.18-1.91-.48-.42-.97-.83-1.45-1.25.02-.04.04-.09.06-.13" fill="#010101"/>
  <path d="M108.59,56.98c.47,1.76.97,3.5,1.37,5.26.23,1,.24,2.05.42,3.06.17.9.19,1.79.21,2.69,0,.15.16.3.24.45-.15.13-.31.23-.42.37-.82,1.05-1.63,2.11-2.46,3.15-1.03,1.28-2.02,2.58-3.02,3.88-1.09,1.42-2.13,2.89-3.36,4.2-1.28,1.37-2.42,2.88-3.64,4.31-.37.43-.76.85-1.22,1.19-.05-.03-.11-.07-.16-.11.34-.98.7-1.96,1.03-2.95.27-.8.52-1.62.78-2.42.42-1.28,1.14-2.41,1.72-3.62.65-1.34,1.3-2.68,1.94-4.03.93-1.98,1.64-4.05,2.42-6.1.32-.85.8-1.63,1.2-2.45.92-1.89,1.59-3.88,2.26-5.87.14-.41.26-.81.68-1.02" fill="#010101"/>
  <path d="M105.87,89.29c.18-.59.33-1.14.52-1.66.32-.86.48-1.75.6-2.65.05-.39.23-.64.54-.79.94-.46,1.82-1.02,2.83-1.37.73-.25,1.46-.54,2.2-.79.5-.17.99-.32,1.52-.27.12.01.25,0,.36-.03,1.07-.41,2.24-.49,3.3-.97.51-.22,1.13-.16,1.69-.29.75-.18,1.51-.14,2.27-.19.78-.05,1.56-.2,2.34-.29.36-.04.73-.07,1.1-.06.89.03,1.75-.13,2.61-.32.09-.02.18-.04.27-.04,1.34-.06,2.68-.17,4.02-.17.84,0,1.68.16,2.71.26-.57.25-.98.45-1.41.63-1.11.44-2.2.98-3.3,1.41-.86.34-1.74.68-2.65.93-.97.27-1.97.52-2.92.95-.87.39-1.84.57-2.76.84-.46.13-.94.22-1.39.39-1.49.57-3.04.95-4.47,1.69-1.11.58-2.4.84-3.61,1.23-.66.21-1.33.4-2,.61-.89.28-1.77.61-2.67.84-.49.12-1.02.08-1.69.13" fill="#010101"/>
  <path d="M100.49,251.5c-.67.93-1.6,1.75-2.62,2.44-2.48,1.69-4.44,3.9-6.5,6.03-1.34,1.38-2.75,2.7-4.14,4.04-.09.09-.24.12-.48.23.04-.24.04-.35.09-.45.76-1.66,1.49-3.32,2.3-4.95.66-1.34,1.42-2.62,2.13-3.93.49-.91.99-1.82,1.46-2.74.7-1.35,1.38-2.7,2.24-3.98.69-1.02,1.18-2.19,1.71-3.32.69-1.45,1.31-2.94,2-4.39.76-1.59,1.56-3.15,2.35-4.72.08-.16.18-.31.28-.47.28.06.39.18.34.45-.23,1.09-.48,2.18-.66,3.28-.12.75-.12,1.51-.21,2.27-.1.87-.23,1.74-.34,2.61-.01.09-.02.18-.02.27-.06,2.08-.14,4.15-.17,6.23,0,.34.14.68.23,1.1" fill="#010101"/>
  <path d="M73.59,144.23c-.46-1.71-.92-3.37-1.35-5.04-.29-1.11-.49-2.25-.82-3.35-.27-.9-.62-1.78-1-2.64-.59-1.34-1.07-2.71-1.5-4.1-.5-1.65-1.08-3.28-1.62-4.92-.08-.23-.21-.45-.24-.69-.05-.47-.18-.88-.72-1.22.33-.08.49-.15.65-.15,1.17,0,2.34-.1,3.5.03.94.1,1.88.11,2.83.16.68.04.82.34.96.97.27,1.26.09,2.54.31,3.81.21,1.22.17,2.49.22,3.74.07,1.88.2,3.76.16,5.64-.02,1.2-.09,2.42-.32,3.62-.13.65-.14,1.33-.21,1.99-.06.54-.1,1.09-.22,1.62-.06.26-.14.64-.64.52" fill="#010101"/>
  <path d="M25.81,28.05c-.1.24-.15.45-.27.6-.28.35-.61.66-.91.99-.77.83-1.56,1.64-2.3,2.49-.92,1.05-1.79,2.15-2.7,3.21-.24.28-.51.53-.77.79-1.05,1.1-2.08,2.22-3.14,3.31-.87.88-1.77,1.73-2.67,2.58-1.62,1.54-3.24,3.06-4.86,4.59-.15.14-.32.25-.6.47.02-.27,0-.42.04-.53.43-.94.88-1.88,1.31-2.82.94-2.05,1.88-4.1,2.82-6.14.48-1.05.95-2.1,1.46-3.13.16-.31.39-.64.68-.82.51-.3.65-.76.79-1.26.11-.38.2-.76.39-1.11.24-.45.53-.88.85-1.29.22-.28.47-.5.89-.58.89-.17,1.75-.49,2.63-.67.95-.19,1.91-.28,2.87-.42.21-.03.41-.1.62-.15.92-.23,1.85-.31,2.86-.14" fill="#010101"/>
  <path d="M167.06,21.51c-2.26,3.61-5.17,6.54-8.19,9.42,0-1.24-.27-2.42.04-3.6.03-.12.03-.24.04-.36.06-.97.08-1.95.2-2.91.19-1.51.23-3.03.38-4.54.13-1.36.21-2.73.38-4.08.23-1.81.06-3.61.16-5.41.03-.51.14-1.01.24-1.67.21.22.35.32.42.45.38.73.74,1.46,1.11,2.19.4.78.81,1.56,1.21,2.33.2.38.41.74.59,1.12.92,1.96,1.83,3.92,2.76,5.88.19.41.44.8.65,1.18" fill="#010101"/>
  <path d="M48.84,110.78c-.28-.08-.58-.13-.83-.25-1.33-.66-2.66-1.31-3.96-2.01-1.25-.67-2.48-1.4-3.71-2.11-2.09-1.19-4.18-2.39-6.38-3.38-1.56-.71-3.09-1.48-4.62-2.27-.34-.18-.86-.03-1.03-.49-.13-.36-.17-.76-.25-1.14-.24-1.24-.49-2.48-.74-3.8.31.03.63,0,.87.11,1.34.63,2.76,1.07,4.15,1.56,1.93.68,3.46,1.97,5.14,3.02,1.33.83,2.66,1.66,4.01,2.46,1.19.71,2.33,1.57,3.13,2.77.15.23.37.4.55.61.3.35.58.7.87,1.05.73.89,1.47,1.78,2.2,2.68.26.32.5.67.75,1-.05.07-.11.13-.16.2" fill="#010101"/>
  <path d="M95.62,96.25c.4-.1.77-.19,1.24-.31-.22-.1-.33-.15-.57-.26.46-.24.82-.47,1.22-.64.59-.24,1.19-.45,1.79-.66.84-.3,1.7-.55,2.52-.91,1.38-.61,2.87-.89,4.29-1.37.48-.16.99-.26,1.44-.48,1.16-.56,2.4-.79,3.65-1.04.71-.14,1.39-.41,2.08-.62q.35-.11.91.12c-.1.21-.16.44-.3.61-1.17,1.45-2.49,2.74-3.87,3.99-.67.61-1.35,1.21-2.02,1.81-.92.83-1.84,1.66-2.76,2.49-.54.49-1.09.98-1.64,1.46-.43.37-.86.74-1.32,1.13-.64-.46-1.35-.65-1.88-1.19-.44-.45-1-.78-1.5-1.16-.9-.67-1.79-1.33-2.69-2-.33-.24-.56-.55-.6-.99" fill="#010101"/>
  <path d="M6.89,21.51c.42.14.51.35.5.61-.08,1.25.19,2.51-.17,3.74-.03.09,0,.18-.01.27-.06,1.37-.09,2.74-.19,4.11-.06.87-.24,1.74-.34,2.61-.09.75-.12,1.51-.2,2.27-.13,1.11-.24,2.23-.44,3.33-.31,1.72-.69,3.43-1.02,5.15-.07.35-.15.68-.44,1.11-1.5-4.15-2.78-8.22-4.55-12.18,1.94-3.85,4.06-7.65,6.89-11.03" fill="#010101"/>
  <path d="M89.67,95.45c-1.62,3.43-3.66,6.5-5.88,9.45-.08.11-.25.16-.44.27-.28-1.04-1.16-1.59-1.81-2.32-1.51-1.67-3.06-3.31-4.58-4.97-.56-.6-1.09-1.22-1.65-1.84.18-.4.34-.71.82-.49,1.02-.32,2.06-.09,3.09-.18.72-.07,1.43-.22,2.15-.32.24-.03.49-.04.73-.04,1.26,0,2.51-.03,3.77,0,1.06.03,2.12.11,3.18.19.2.02.39.14.63.22" fill="#010101"/>
  <path d="M64.51,144.84c.12.27.25.53.36.8.61,1.49,1.23,2.97,1.83,4.47.38.95.91,1.88.75,2.97-.06.42-.13.84-.18,1.26-.18,1.35-.37,2.7-.54,4.04-.02.12,0,.24,0,.37-.25,4.19-.16,8.38-.19,12.57-.01,1.47-.12,2.95-.19,4.42,0,.05-.06.09-.16.21-.15-.26-.33-.47-.4-.71-.27-.87-.62-1.73-.72-2.62-.11-.99-.47-1.88-.75-2.8-.27-.88-.39-1.77-.57-2.66-.15-.73-.23-1.48-.25-2.22-.03-1.2.08-2.4.34-3.57.04-.18.08-.36.08-.54.06-2.9.28-5.8.19-8.71-.04-1.32-.03-2.64,0-3.96.02-1.09.11-2.18.17-3.27l.25-.05Z" fill="#010101"/>
  <path d="M114.45,220.83c-2.65,2.15-5.27,4.14-8,5.96-.05.04-.17-.02-.29-.04-.2-.66.12-1.25.23-1.85.19-1.06.42-2.11.61-3.16.22-1.19.42-2.38.63-3.57.03-.18.09-.35.11-.53.12-1.02.25-2.04.36-3.06.08-.72.13-1.45.2-2.17.11-1.11.25-2.22.34-3.34.05-.61,0-1.23.03-1.84.01-.29-.12-.61.22-.93.13.16.32.29.36.46.57,2.42,1.41,4.75,2.13,7.13.47,1.54,1.1,3,1.92,4.39.46.78.76,1.65,1.16,2.56" fill="#010101"/>
  <path d="M64.64,139c.03-.36.03-.61-.1-.91-.25-.6-.32-1.28-.46-1.93-.15-.68-.24-1.38-.47-2.03-.93-2.6-1.85-5.2-2.89-7.76-.35-.87-.73-1.72-1.04-2.61-.11-.31-.12-.65-.21-.97-.08-.31-.21-.61-.35-1.02.4,0,.76-.03,1.12,0,.75.07,1.5.21,2.25.24.3.01.61-.18.93-.28.18.73.4,1.39.49,2.07.14.97.51,1.87.81,2.79.51,1.55,1.08,3.09,1.43,4.69.38,1.72,1.01,3.36,1.64,5.01.36.93.62,1.9.95,2.85.25.72.54,1.42.8,2.13.06.16.07.33.12.6-1.08-.16-1.8-.84-2.62-1.28-.82-.44-1.58-1.02-2.4-1.57" fill="#010101"/>
  <path d="M57.66,171.59c.64-.27.89-.94,1.37-1.42.47-.46.83-1.03,1.24-1.55.13-.17.24-.35.35-.5.56.21.71.5.77.95.11.78.25,1.56.48,2.3.8,2.51,1.47,5.05,2.08,7.62.38,1.62.88,3.2,1.4,4.78.49,1.49.79,3.04,1.18,4.56.05.2.1.39.2.77-.3-.17-.49-.24-.62-.36-1.31-1.19-2.61-2.4-3.9-3.6-.15-.14-.27-.33-.39-.5-.09-.12-.13-.34-.24-.38-.61-.19-.68-.75-.92-1.22-.12-.23-.34-.33-.03-.56.04-.03-.02-.21-.05-.32-.68-2.76-1.37-5.52-2.06-8.27-.12-.47-.25-.94-.42-1.39-.11-.3-.28-.57-.45-.91" fill="#010101"/>
  <path d="M47.69,113.69c-.58-.07-1.11-.12-1.63-.2-.72-.11-1.43-.23-2.15-.35-.89-.15-1.79-.31-2.68-.47-.18-.03-.36-.06-.54-.08-.84-.11-1.68-.23-2.52-.34-.09-.01-.18-.02-.27-.03-1.06-.06-2.14-.05-3.19-.21-1.1-.17-2.28,0-3.29-.56-.37-.21-.81-.48-.88-1.03-.1-.75-.21-1.5-.37-2.24-.35-1.53-.73-3.06-1.11-4.63.14-.09.38-.11.57.09.65.69,1.6.82,2.35,1.33.17.12.4.15.58.26.98.53,1.95,1.08,2.93,1.61.21.11.45.18.66.29.94.46,1.88.93,2.81,1.41,1.12.58,2.22,1.22,3.37,1.75,1.85.87,3.54,1.99,5.23,3.13.04.03.05.11.12.26" fill="#010101"/>
  <path d="M64.51,192.05c-.16.06-.25.12-.32.11-.95-.2-1.88-.49-2.83-.59-.97-.11-1.87-.54-2.85-.49-.06,0-.13.01-.18,0-.66-.24-1.37-.27-2.03-.44-.87-.22-1.73-.31-2.62-.29-1.16.02-2.3-.13-3.43-.35-.21-.04-.43-.02-.64-.02-1.07,0-2.15,0-3.22,0-.22,0-.45-.05-.71-.25.36-.17.72-.37,1.1-.51,1.76-.65,3.47-1.43,5.13-2.3.8-.42,1.57-.92,2.4-1.24,1.03-.39,1.92-1.04,3.06-1.44,1.04.74,2.15,1.55,3,2.61,1.38,1.72,3.13,3.17,4.16,5.22" fill="#010101"/>
  <path d="M158.75,49.6c-.26-.12-.46-.19-.62-.3-.75-.51-1.5-1.02-2.23-1.55-.69-.5-1.37-1.01-2.02-1.54-.17-.14-.32-.39-.36-.62-.17-.98-.28-1.96-.45-2.94-.27-1.58-.52-3.16-.85-4.73-.6-2.81-1.25-5.6-1.87-8.4-.03-.12.04-.33.13-.39.17-.1.31-.01.45.17.52.71,1.07,1.4,1.61,2.1.8,1.03,1.61,2.06,2.39,3.1.18.24.4.54.38.8-.06,1.1.43,2.07.64,3.11.2,1.04.44,2.07.69,3.1.16.68.38,1.34.57,2.01.53,1.86,1.06,3.72,1.59,5.59.04.13-.02.28-.03.5" fill="#010101"/>
  <path d="M75.53,152.66c-.25.9-.25,1.78-.06,2.69.15.71.24,1.44.26,2.16.04,1.61.01,3.23,0,4.84,0,.29.09.63-.28.83-.71-.36-.98-1.09-1.19-1.75-.47-1.45-1.14-2.79-1.82-4.14-.58-1.16-1.2-2.31-1.74-3.5-.71-1.58-1.35-3.19-2.01-4.78-.25-.59-.47-1.19-.74-1.77-.54-1.16-1.05-2.32-1.33-3.58-.06-.26-.21-.49-.37-.84.25.01.47-.04.56.04.8.75,1.68,1.44,2.34,2.3.95,1.24,2.18,2.2,3.07,3.51.94,1.4,2.16,2.62,3.31,3.99" fill="#010101"/>
  <path d="M103.36,107.66c.16.24.31.38.38.56.34.88.69,1.75.99,2.64.15.43.22.88.3,1.32.24,1.34.49,2.67.71,4.01.17,1.07.29,2.15.43,3.18-.34.23-.63.4-.88.6-.53.43-1.21.35-1.81.53-.89.26-1.81.16-2.73.2-.63.02-1.27.14-1.9.16-.32.01-.64-.1-.95-.16.48-1.27.93-2.45,1.37-3.63.63-1.71,1.19-3.44,1.89-5.12.6-1.45,1.29-2.87,2.2-4.3" fill="#010101"/>
  <path d="M17.15,42.63c.24,1.57.49,3.18.73,4.79.24,1.6.47,3.21.7,4.82-.29.13-.63-.21-.83.2-.05.1-.4.09-.6.07-1.14-.12-2.24-.47-3.39-.56-.68-.05-1.35-.31-2.03-.45-.47-.1-.95-.15-1.42-.27-.79-.19-1.57-.41-2.42-.63.06-.19.07-.39.17-.49,1.05-1,2.12-1.99,3.18-2.98.16-.15.34-.26.48-.42,1.01-1.13,2.29-2,3.14-3.29.43-.65,1.36-.92,2.29-.8" fill="#010101"/>
  <path d="M98.69,129.64c-.17.06-.28.11-.39.15.01,1.17-.18,2.25-.73,3.33-.83,1.61-1.45,3.33-2.11,5.02-.17.44-.45.81-.52,1.33-.05.38-.37.76-.49,1.2-.08.29-.39.52-.6.77-.28-.14-.3-.35-.24-.62.21-.92.17-2.87-.02-3.9-.06-.36-.05-.73-.03-1.1.05-.92.1-1.84.18-2.76.11-1.36.13-2.74.4-4.07.25-1.22-.01-2.42.15-3.62.09-.69.19-1.37.29-2.1,1.62.39,3.25.78,5.04.71-.33,1.23-.83,2.37-.81,3.65-.07.03-.21.1-.34.16-.19.24-.07,1.43.21,1.86" fill="#010101"/>
  <path d="M119.18,109.38c.14-.22.23-.37.35-.51.4-.5.83-.97,1.2-1.48.62-.88,1.44-1.51,2.35-2.05.42-.25.82-.53,1.22-.79,1.02-.65,2.04-1.31,3.07-1.94.93-.56,1.95-.93,2.96-1.31.47-.18.93-.4,1.38-.63.53-.28,1.08-.54,1.57-.9,1.57-1.15,3.43-1.8,5-2.95.39-.28.75-.61,1.14-.9.08-.06.2-.09.44-.18-.1.39-.17.67-.25.95-.25.86-.5,1.73-.74,2.59-.06.23-.13.49-.09.72.1.7-.33,1.05-.84,1.35-.91.54-1.94.78-2.93,1.13-1.17.41-2.31.9-3.46,1.37-1.2.5-2.41.99-3.59,1.53-.87.4-1.7.88-2.56,1.31-.54.27-1.09.5-1.63.75-.65.3-1.3.61-1.96.91-.77.36-1.54.71-2.31,1.06-.05.02-.11,0-.3-.02" fill="#010101"/>
  <path d="M111.42,34.1c2.46,5.57,4.03,11.37,4.98,17.36-.21.23-.52.2-.75.1-1.24-.51-2.57-.84-3.57-1.84-.43-.42-.96-.74-1.46-1.11-.16-1.6-.07-3.24-.11-4.87-.04-1.62,0-3.24.21-4.85.21-1.6.26-3.23.71-4.8" fill="#010101"/>
  <path d="M146.99,70.75c-1.12-1.65-2.19-3.08-3.11-4.6-.9-1.49-1.54-3.12-2.07-4.78,2.33-1.94,4.71-3.93,7.15-5.97.1.2.25.36.24.49-.09.96-.21,1.92-.32,2.88-.06.51-.11,1.02-.19,1.53-.11.78-.24,1.55-.34,2.33-.08.63-.19,1.26-.2,1.9-.03,1.89-.52,3.71-.76,5.57-.02.18-.19.33-.4.66" fill="#010101"/>
  <path d="M136.74,105.12c-.28.46-.54.89-.8,1.32-.48.81-1.06,1.55-1.37,2.46-.11.34-.35.64-.55.94-.54.8-1.12,1.59-1.64,2.4-.28.43-.69.6-1.13.69-1.65.37-3.3.72-4.96,1.06-.18.04-.36.06-.54.05-1.04-.03-2.06.12-3.06.35-.06.01-.12.01-.18.02-1.61.06-3.23.13-4.84.18-.14,0-.28-.03-.45-.05.32-.45.79-.47,1.2-.65.77-.34,1.5-.76,2.26-1.12.51-.24,1.05-.41,1.57-.63.62-.26,1.26-.47,1.83-.8,1.05-.61,2.15-1.07,3.29-1.48.92-.33,1.76-.91,2.64-1.38.87-.46,1.71-1.01,2.63-1.36,1.24-.48,2.28-1.26,3.38-1.95q.22-.14.72-.06" fill="#010101"/>
  <path d="M57.26,52.01c.54-3.05,1.73-5.79,2.46-8.67.44-1.73.82-3.47,1.24-5.2.12-.49.29-.98.45-1.48.41.08.33.36.33.58,0,1.96-.11,3.93.03,5.89.28,3.92.05,7.83.19,11.75.03.84.16,1.69.15,2.55,0,.2-.06.4-.12.77-.98-1.07-1.65-2.17-2.46-3.16-.82-.99-1.55-2.06-2.27-3.02" fill="#010101"/>
  <path d="M153.41,50.22c.38.23.73.41,1.04.64.92.68,1.81,1.4,2.74,2.08.29.21.65.32.96.5.38.23.79.47.77.88-1.17,1.97-2.27,3.85-3.4,5.71-1.13,1.86-2.3,3.71-3.43,5.52-.32.07-.51-.01-.49-.3.03-.33.13-.65.16-.98.13-1.33.18-2.67.4-3.98.16-.95.08-1.89.17-2.83.13-1.29.36-2.58.51-3.87.1-.81.15-1.63.21-2.45.03-.4.02-.41.35-.94" fill="#010101"/>
  <path d="M164.39,29.12c.05.07.12.12.12.16-.17,1.07-.33,2.15-.51,3.22-.17,1.01-.38,2.02-.55,3.03-.21,1.19-.34,2.4-.6,3.58-.39,1.74-.85,3.47-1.3,5.19-.09.34-.25.66-.43,1.09-.56-.64-.85-1.32-1.15-1.96-.49-1.05-.96-2.11-1.33-3.2-.34-1-.54-2.04-.77-3.08-.15-.67.25-1.16.65-1.63,1-1.18,1.99-2.37,3-3.54.34-.39.74-.74,1.1-1.11.52-.55,1.03-1.11,1.55-1.66.05-.06.15-.07.23-.1" fill="#010101"/>
  <path d="M58,57.5c.61.75,1.23,1.49,1.83,2.24.77.97,1.38,2.05,2.2,3,.56.66.93,1.49,1.36,2.26.81,1.46,1.6,2.94,2.4,4.41.65,1.21,1.08,2.48,1.13,3.88.03.69.23,1.37.33,2.05.05.35.08.72-.11,1.18-.13-.17-.23-.26-.28-.38-.52-1.21-1.27-2.28-2.01-3.35-.71-1.02-1.34-2.09-2.04-3.12-.76-1.13-1.52-2.27-2.35-3.35-.53-.7-1.2-1.3-1.75-1.99-.28-.34-.66-.8-.61-1.15.06-.42-.07-.76-.09-1.14-.06-1.31-.13-2.62-.18-3.92,0-.18,0-.36,0-.54.06-.03.12-.05.19-.08" fill="#010101"/>
  <path d="M93.56,161.09c0-1.47,0-2.93,0-4.4,0-.61.07-1.21-.15-1.81-.1-.27-.02-.61,0-.91.03-.37.07-.74.11-1.1.74-.69,1.51-1.4,2.29-2.12.98-.9,1.94-1.83,2.95-2.69.73-.63,1.54-1.18,2.3-1.78.31-.24.6-.51.9-.76.18-.15.19-.15.65,0-.75.8-1,1.86-1.42,2.81-1.16,2.62-2.32,5.22-3.88,7.63-.36.56-.65,1.17-1.02,1.72-.51.75-1.07,1.46-1.61,2.2-.16.22-.31.45-.46.67-.15.21-.31.43-.46.64-.07-.03-.13-.06-.2-.09" fill="#010101"/>
  <path d="M7.95,39.74c-.02-.21-.09-.42-.05-.61.19-.92.31-1.85.36-2.79.07-1.24.21-2.48.36-3.71.16-1.26.32-2.53.37-3.8.03-.78.24-1.55.33-2.33.09-.75.13-1.51.21-2.27.08-.75.17-1.5.25-2.22.26-.16.42-.11.55.13.53.96,1.08,1.91,1.62,2.86.45.79.89,1.58,1.34,2.37.13.24.25.49.39.72.19.32.15.62-.01.95-1.36,2.76-2.69,5.53-4.07,8.28-.43.86-.97,1.65-1.46,2.48-.07-.02-.13-.04-.2-.06" fill="#010101"/>
  <path d="M71.77,118.61c-.2.02-.44.07-.67.06-1.12-.07-2.26.18-3.38-.15-.15-.04-.34.11-.52.14-.9.13-1.79.3-2.69.36-.47.03-.95-.14-1.46-.22-.12-.49-.1-.95,0-1.44.42-1.89.81-3.78,1.22-5.67.17-.77.36-1.53.57-2.29.04-.15.22-.25.38-.41.52.87.97,1.7,1.49,2.47,1.06,1.55,2.13,3.09,3.24,4.6.47.64,1.04,1.19,1.57,1.78.18.2.42.38.24.77" fill="#010101"/>
  <path d="M104.51,81.19c-.05.41-.15.83-.16,1.24-.03,1.1-.46,2.14-.56,3.2-.13,1.38-.54,2.66-.89,3.98-.22.86-.81,1.17-1.48,1.4-.93.32-1.84.72-2.76,1.03-1.14.39-2.19.96-3.29,1.41-.29.12-.55.25-.88,0,1.59-2.73,3.69-5.07,5.64-7.52,1.32-1.66,2.51-3.47,4.18-4.84l.2.1Z" fill="#010101"/>
  <path d="M53.57,117.8c-.21.11-.45.15-.57.3-.35.44-.87.49-1.32.53-1.48.15-2.97.32-4.47.21-.3-.02-.59-.13-.89-.17-1.28-.19-2.57-.36-3.85-.57-.29-.05-.56-.24-.84-.33-1.26-.39-2.54-.74-3.79-1.14-.43-.14-.85-.34-1.25-.56-.66-.36-1.3-.75-1.9-1.27.25,0,.54-.08.76.02.42.18.89.22,1.3.38.74.29,1.49.25,2.25.3.99.07,1.98.22,2.97.33.24.03.49.03.73.03,1.07,0,2.15-.02,3.22.01.73.02,1.45.1,2.17.2,1.1.15,2.21.32,3.3.54.83.17,1.65.43,2.18,1.2" fill="#010101"/>
  <path d="M78.41,165.35c-.06-.79-.09-1.42-.16-2.04-.1-.93-.19-1.86-.37-2.77-.25-1.34-.14-2.68-.18-4.02,0-.3-.08-.6-.11-.9-.03-.32-.04-.65-.06-.99.75-.19,1.29-.1,1.8.46.84.92,1.73,1.79,2.45,2.82.36.52.84.96,1.24,1.46.2.25.34.56.53.88-.52.4-1.01.71-1.41,1.11-.58.58-1.09,1.23-1.62,1.86-.51.6-1.01,1.22-1.54,1.81-.12.14-.35.19-.58.32" fill="#010101"/>
  <path d="M79.77,166.66c.42-.85,1.87-2.25,5.41-5.25.08.04.21.06.28.14.85,1.02,1.9,1.86,2.59,3.02.2.35.56.6.86.89.15.15.33.27.48.38-.06.17-.07.31-.13.33-.59.2-1.19.54-1.79.55-2.39.06-4.78.03-7.18.02-.17,0-.34-.06-.52-.09" fill="#010101"/>
  <path d="M112.26,119.61c.51-.44.98-.54,1.46-.62,1.04-.18,2.08-.37,3.12-.54.21-.03.43,0,.64-.02.48-.05.96-.12,1.44-.18.54-.06,1.08-.12,1.62-.19.33-.04.65-.13.98-.18,1.17-.18,2.3-.45,3.43-.82.63-.21,1.38-.04,2.16-.04-.19.22-.32.42-.5.57-.88.75-1.77,1.48-2.65,2.22-.02.02-.04.05-.07.06-.63.15-1.26.41-1.9.43-1.75.06-3.5.03-5.24.01-.36,0-.71-.12-1.07-.17-.99-.13-1.98-.25-2.97-.38-.11-.01-.21-.07-.45-.15" fill="#010101"/>
  <path d="M116.35,54.18c-1.34,2.59-2.17,5.27-3.31,7.85-.9-3.31-1.37-6.67-2.05-10.17,1.92.81,3.39,2.15,5.35,2.31" fill="#010101"/>
  <path d="M81.09,153.76c.33-.12.51-.25.66-.22,1.48.24,2.98.2,4.46.31,1.13.09,2.25.12,3.38.15.08,0,.16.05.34.11-.87.81-1.58,1.68-2.49,2.37-.63.47-1.21,1.02-1.79,1.55-.3.28-.57.34-.87.03-.51-.51-1.06-.99-1.53-1.55-.72-.85-1.38-1.76-2.16-2.76" fill="#010101"/>
  <path d="M90.53,163.96c-1.24-1.35-2.36-2.56-3.51-3.8.13-.19.28-.45-.07-.71.59-.54,1.18-1.05,1.74-1.59.65-.64,1.29-1.29,1.89-1.97.23-.27.44-.26.74-.17-.17,1.12-.03,2.24-.1,3.36-.1,1.57-.22,3.13-.68,4.88" fill="#010101"/>
  <path d="M148.3,31.86c-1.02-.41-1.62-1.14-2.18-1.88-1.2-1.61-2.37-3.24-3.93-4.63.16-.12.28-.3.37-.28.89.18,1.79.3,2.7.35.58.03,1.16.3,1.9.5.41.77.28,1.84.57,2.82.29.97.37,2,.57,3.11" fill="#010101"/>
</svg>