<svg xmlns="http://www.w3.org/2000/svg" viewBox="0 0 840 1680" width="840px" height="1680px">
  <defs></defs>
  <g id="Calque_2" transform="matrix(0.902313, 0, 0, 0.901269, 140.950073, 144.61821)" style="">
    <g id="Calque_1-2" data-name="Calque 1" transform="matrix(1, 0, 0, 1, 66.903404, 605.236938)">
      <g>
        <path class="cls-1"
          d="M200.93,787.75c-6.13-6.51-11.58-13.23-18.09-18.95.06-.15.06-.38.15-.44,1.52-.81,2.28-2.09,2.28-3.85,0-2.25,0-4.5.47-6.87.36.56.71,1.12,1.04,1.66.36-.77.18-1.48-.5-2.07-.74-.65-1.01-1.42-1.01-2.4,0-3.43.06-6.81.95-10.18.53-2.07.47-4.26.71-6.42.33-2.66.77-5.33,1.01-7.99.18-1.98,0-4,.09-5.98.27-4.32.53-8.64.59-13,.06-3.67.56-7.34,1.07-10.98.8-5.86,2.04-11.66,2.55-17.53.44-5.03,1.87-9.86,2.43-14.86.53-4.8,1.89-9.47,2.72-14.24.65-3.79,1.78-7.46,2.16-11.34.41-4.44,1.42-8.82,2.07-13.26.33-2.22.36-4.47.59-6.72.24-2.13.65-4.23.92-6.36s.44-4.29.71-6.42c.33-2.49.71-4.97,1.01-7.43.24-2.04.44-4.12.59-6.16.21-2.4.36-4.83.5-7.05,1.04-.68,1.63-.41,2.13.21,2.19,2.63,4.29,5.33,6.57,7.87,4.41,4.94,8.85,9.86,13.38,14.68,2.9,3.11,6.07,5.98,9,9.09,1.89,2.01,3.52,4.26,5.36,6.31,1.57,1.72,3.23,3.32,4.97,4.83,1.95,1.69,3.37,3.88,5.68,5.18.5.27.86,1.48.68,2.1-.83,2.72-1.84,5.42-2.81,8.08-2.13,5.74-4.09,11.52-6.57,17.11-2.22,5-3.91,10.21-5.48,15.45-.98,3.26-1.95,6.54-3.11,9.74-1.27,3.55-2.72,7.05-4.14,10.54-2.01,5-4.09,9.98-6.13,14.98-.44,1.1-.83,2.19-1.3,3.26-1.81,4.14-2.58,8.59-3.88,12.88-1.15,3.79-2.43,7.52-3.88,11.19-1.6,4.12-3.26,8.17-4.38,12.43-.8,3.02-2.04,5.95-2.99,8.94-.68,2.13-1.33,4.29-1.75,6.48-.65,3.26-1.51,6.45-2.93,9.5-1.01,2.19-1.78,4.53-2.66,6.78-.12.33-.38.59-.8,1.21"
          style="fill: rgb(29, 29, 27);"></path>
        <path class="cls-1"
          d="M244.74,784.67c.53.59.83.89,1.1,1.21-.09.21-.12.41-.24.5-1.48,1.04-2.96,2.07-4.47,3.02-.68.41-1.45.77-2.22.95-.59.12-.62.41-.89.83-.56.83-1.63,1.3-2.55,1.89-.5.33-1.1.56-1.63.89-5.92,3.79-11.99,7.37-18.24,10.63-1.48.77-1.98.83-3.08-.38-1.45-1.57-3.52-2.63-4.03-4.97-.03-.15-.21-.33-.36-.38-1.21-.47-2.1-1.48-2.01-2.63.09-1.39.47-2.9,1.21-4.09,2.55-4.03,3.88-8.47,5.3-12.91,1.45-4.53,2.75-9.12,4.29-13.62.95-2.69,2.25-5.27,3.37-7.9.24-.56.5-1.15.68-1.75,1.07-3.43,2.69-6.63,4.26-9.83,1.1-2.25,1.72-4.71,2.63-7.05.65-1.69,1.48-3.29,2.07-5,1.15-3.4,2.34-6.81,3.23-10.24,1.45-5.48,3.29-10.81,5.39-16.08,2.28-5.68,4.5-11.37,6.87-16.99,1.45-3.46,3.29-6.78,4.77-10.21,1.69-3.97,3.49-7.93,4.62-12.08.92-3.46,1.78-6.96,3.02-10.33.98-2.69,2.25-5.24,4.35-7.31.8-.77,1.1-2.04,1.63-3.08.41-.86.86-1.72,1.36-2.75.62.41,1.07.56,1.33.89,3.46,4.06,7.87,7.05,11.81,10.54,4.8,4.2,8.88,8.91,12.7,13.91.53.71,1.27,1.3,1.89,1.95,1.27,1.3,2.46,2.58,3.37,4.2.89,1.54,2.4,2.69,3.49,3.88-1.57,2.63-3.23,5.09-4.56,7.7-2.37,4.68-4.47,9.47-6.87,14.12-1.89,3.67-4.06,7.19-6.13,10.75-1.27,2.19-2.55,4.35-3.82,6.54-2.49,4.26-5.06,8.47-7.46,12.79-2.4,4.32-4.65,8.76-6.93,13.14-2.55,4.88-5.21,9.71-7.58,14.68-2.43,5.12-4.41,10.45-6.81,15.6-1.42,3.05-1.89,6.66-4.91,9"
          style="fill: rgb(29, 29, 27);"></path>
        <path class="cls-1"
          d="M247.41,333.5c.71.41,1.33.62,1.72,1.04,3.61,3.91,7.16,7.85,10.75,11.75,2.19,2.4,4.38,4.74,6.54,7.16.77.86,1.45,1.84,2.19,2.75.62.74,1.33,1.42,1.95,2.16.38.47.86,1.04.95,1.6.3,1.78.41,3.55.65,5.36.3,2.49.62,4.97.92,7.46.09.71.15,1.45.15,2.16,0,4,.18,7.99-.03,11.99-.18,3.49-.74,6.96-1.18,10.42-.27,2.22-.59,4.44-.95,6.63-.41,2.46-.95,4.91-1.39,7.4-.47,2.63-.86,5.3-1.33,7.93-.36,1.92-.86,3.85-1.18,5.8-.38,2.49-.56,5-1.04,7.43-.62,3.23-.47,6.48-.53,9.74,0,.27.03.65-.12.8-1.75,1.69-.5,3.02.74,4.35-1.48.74-2.87.38-4.17.44-1.87.09-3.64.03-5.45,1.01-2.31,1.24-4.94,1.87-7.58,2.43-.83.18-1.51.41-2.31,0-.44-.21-1.07-.18-1.6-.18-3.08,0-6.07-.5-9.09-1.01-1.24-.21-2.55,0-3.82-.09-1.04-.09-2.07-.36-3.17-.53.41-.62.89-1.07.83-1.33-1.24-4.32-.83-8.76-.95-13.2-.12-4.5-.41-9.03-.5-13.53-.09-4.44-.06-8.91,0-13.35,0-1.07.3-2.13.41-3.2.09-.89.24-1.84.06-2.69-.74-3.76-.77-7.52,0-11.28.12-.62.06-1.27.06-1.89,0-2.63-.06-5.27,0-7.9.15-4.97.27-9.95.59-14.89.09-1.27.8-2.61,1.54-3.67,1.6-2.37,3.11-4.8,4.68-7.19,3.73-5.8,6.22-12.23,9.56-18.24.65-1.15,1.36-2.28,2.16-3.58"
          style="fill: rgb(29, 29, 27);"></path>
        <path class="cls-1"
          d="M132.42,728.84c-.8-1.33-1.3-2.07-1.69-2.84-1.51-2.96-2.9-5.98-4.47-8.94-1.27-2.4-2.78-4.65-4.03-7.05-1.45-2.81-2.72-5.71-4.03-8.59-2.61-5.74-4.97-11.58-8.41-16.93-2.16-3.4-3.94-7.05-5.83-10.6-1.95-3.64-3.82-7.34-5.89-11.31,2.78-2.22,5.65-4.5,8.5-6.78,2.22-1.81,4.38-3.64,6.6-5.42,3.91-3.17,7.85-6.31,11.78-9.5,1.92-1.57,3.85-3.2,5.77-4.77,3.94-3.26,7.9-6.48,11.81-9.74,2.4-1.98,4.8-4.03,7.19-6.01,2.72-2.22,5.48-4.38,8.2-6.6,1.54-1.27,2.99-2.63,4.5-3.91,4.12-3.49,8.61-6.51,12.91-9.77,4.03-3.05,7.99-6.13,12.23-8.85.62-.41,1.12-.95,2.07-.24-.15.41-.24.92-.47,1.36-2.81,5.48-5.74,10.86-8.41,16.4-2.72,5.65-5.45,11.34-7.46,17.32-.86,2.55-2.07,4.97-3.11,7.46-1.48,3.58-2.93,7.16-4.44,10.72-1.87,4.47-3.85,8.88-5.65,13.38-1.6,3.97-3.91,7.49-5.83,11.25-1.36,2.61-2.19,5.48-3.26,8.26-.56,1.42-1.15,2.84-1.6,4.29-.98,3.17-1.81,6.36-2.81,9.53-1.07,3.43-2.22,6.84-3.4,10.21-.8,2.28-1.69,4.56-2.52,6.84-1.01,2.78-1.75,5.68-2.96,8.35-1.33,2.87-2.13,5.89-3.14,8.85-.36,1.07-1.18,1.95-2.19,3.55"
          style="fill: rgb(29, 29, 27);"></path>
        <path class="cls-1"
          d="M321.98,522.38c.44.3.68.41.68.5.06,2.81.12,5.62.09,8.41,0,1.24-.27,2.49-.47,3.73-.77,4.68-.24,9.41-.62,14.09-.36,4.2-.83,8.41-1.1,12.64-.24,3.49-.86,6.93-1.07,10.45-.24,3.73-1.07,7.43-1.51,11.16-.44,3.46-.71,6.96-1.15,10.45-.44,3.55-1.07,7.08-1.57,10.63-.41,2.93-.74,5.86-1.15,8.79-.33,2.31-.77,4.59-1.12,6.9-.36,2.31-.71,4.59-1.04,6.9-.21,1.51-.33,3.02-.56,4.53-.5,3.37-1.12,6.72-1.57,10.07-.33,2.49-.36,5.03-.62,7.55-.27,2.66-.68,5.33-1.01,7.99-.03.27-.06.53-.06.83-.18,2.78-.33,5.57-.59,8.35-.12,1.15-.5,2.25-.83,3.61-.56-.41-1.01-.68-1.36-1.01-1.04-.95-2.04-1.92-3.05-2.93-1.39-1.39-2.75-2.81-4.2-4.17-3.08-2.93-6.34-5.71-9.27-8.79-2.58-2.69-5.51-4.83-8.53-6.96-3.43-2.43-6.57-5.27-9.8-8.02-1.57-1.33-2.99-2.87-4.59-4.41.83-1.75,1.69-3.58,2.58-5.42,2.01-4.09,4.03-8.2,6.1-12.29,1.1-2.16,2.22-4.29,3.43-6.39,2.63-4.62,5.36-9.18,8.02-13.8.89-1.54,1.75-3.11,2.61-4.68,2.1-3.88,4.2-7.76,6.22-11.66.98-1.92,1.81-3.91,2.69-5.89.12-.24.12-.53.24-.77,1.87-3.7,3.64-7.46,5.62-11.1,2.96-5.45,6.19-10.75,9.09-16.22,2.84-5.42,5.06-11.1,6.96-16.9.68-2.04,1.6-4,2.49-6.16"
          style="fill: rgb(29, 29, 27);"></path>
        <path class="cls-1"
          d="M137.16,740.38c1.07-2.93,1.98-5.54,2.96-8.14,1.75-4.71,3.49-9.44,5.33-14.12,1.92-4.86,4-9.65,5.95-14.48,2.93-7.16,5.89-14.3,8.7-21.52,1.39-3.49,2.46-7.13,3.82-10.63,1.45-3.7,2.99-7.34,4.65-10.92,1.75-3.76,3.97-7.31,5.45-11.16,2.31-6.04,5.6-11.63,7.52-17.85,1.01-3.26,2.69-6.28,4.06-9.41,1.33-3.02,2.66-6.07,4.06-9.09.21-.47.74-.8,1.54-1.63-.18,1.84-.27,3.05-.41,4.26-.33,3.08-.56,6.19-1.07,9.24-.62,3.61-.44,7.34-1.48,10.92-.41,1.45-.44,3.02-.65,4.53-.53,3.91-1.15,7.79-1.6,11.72-.44,3.85-.71,7.7-1.15,11.52-.27,2.49-.68,4.97-1.04,7.46-.03.27,0,.53-.03.83-.18,4.5-.3,9.03-.56,13.53-.18,2.75-.65,5.51-.98,8.26-.06.53-.09,1.1-.06,1.63,0,2.99-.53,5.89-1.01,8.82-.47,2.93-.77,5.86-1.18,8.79-.24,1.69-.62,3.35-.86,5.03-.3,2.04-.59,4.09-.74,6.16-.15,2.16-.27,4.29-.47,6.45-.47,4.47-.44,9.03-.65,13.53-.18,4.14-.41,8.26-.56,12.4-.06,1.42,0,2.84,0,4.23,0,.36-.09.68-.18,1.18-1.87-.3-3.43-.77-4.88-1.98-1.42-1.15-3.26-1.81-4.86-2.78-1.57-.95-3.02-2.07-4.59-3.02-1.39-.83-2.81-1.6-4.29-2.22-4.88-2.04-9.24-4.97-13.74-7.73-2.19-1.33-4.53-2.49-6.99-3.82"
          style="fill: rgb(29, 29, 27);"></path>
        <path class="cls-1"
          d="M250.31,615.93c-.62-.53-1.27-.98-1.78-1.51-2.81-2.96-5.51-5.98-8.38-8.88-6.45-6.54-12.91-13.03-19.48-19.45-3.08-3.02-6.48-5.71-9.59-8.7-1.42-1.36-2.25-3.05-2.43-5.24-.59-7.22-.18-14.48-.59-21.7-.21-3.61-.12-7.22-.5-10.81-.5-4.56-.77-9.15-1.12-13.71-.41-4.94-.62-9.89-1.1-14.8-.65-6.81-.15-13.59-.44-20.37-.12-2.52-.56-5.03-.47-7.52.09-2.66.59-5.33.92-7.99.09-.71.12-1.45.12-2.16v-3.29c1.72-.53,2.31.47,2.9,1.48,1.45,2.49,2.99,4.94,4.29,7.52,2.9,5.83,6.84,11.01,10.27,16.49,1.15,1.84,2.49,3.52,3.61,5.36.47.83.68,1.84.86,2.81.27,1.51.56,3.02.59,4.53,0,2.9.89,5.65,1.42,8.47.68,3.52,1.66,6.96,2.34,10.48.38,1.92.38,3.94.65,5.89.27,2.13.65,4.23.95,6.36.24,1.78.33,3.58.65,5.33.89,4.38,1.81,8.76,2.9,13.11,1.27,5.12,2.96,10.15,4,15.34,1.51,7.58,4.12,14.86,5.98,22.32,1.39,5.54,2.34,11.19,3.49,16.82.24,1.18,1.07,2.37,0,3.85"
          style="fill: rgb(29, 29, 27);"></path>
        <path class="cls-1"
          d="M128.84,571.67c5.06-.24,10.04-.56,14.98-.68,5.27-.12,10.54,0,15.81-.03,3.35-.03,6.63.3,9.92,1.04.62.15,1.27,0,1.89.09,1.24.15,2.49.3,3.73.5,3.08.53,6.25.86,9.21,1.75,2.4.71,4.86,1.1,7.49,1.81-.15.53-.15,1.18-.44,1.36-4.32,2.84-8.79,5.51-13.03,8.5-3.61,2.55-6.93,5.42-10.39,8.17-3.14,2.49-6.31,5-9.44,7.49-3.11,2.43-6.19,4.88-9.33,7.28-3.49,2.66-7.05,5.21-10.51,7.87-2.78,2.13-5.45,4.41-8.17,6.63-1.95,1.6-3.91,3.2-5.86,4.8-3.14,2.58-6.28,5.12-9.38,7.73-1.42,1.18-2.81,2.46-4.41,3.88-.12-.53-.38-1.04-.27-1.42,1.07-3.14,2.25-6.25,3.26-9.41,1.12-3.58,2.07-7.22,3.14-10.84.33-1.12.68-2.22,1.01-3.35,1.81-5.74,3.35-11.55,4.5-17.44.38-2.01,1.18-3.94,1.72-5.95,1.39-5.27,2.78-10.57,4.09-15.87.33-1.27.3-2.61.44-3.91"
          style="fill: rgb(29, 29, 27);"></path>
        <path class="cls-1"
          d="M311.65,437.97c1.07.12,1.24.77,1.45,1.51.86,3.02,1.81,6.01,2.63,9.03,1.04,3.7,2.01,7.43,2.99,11.16.27,1.04.62,2.07.71,3.14.27,3.61,1.45,7.02,2.22,10.51.36,1.57.44,3.2.62,4.8.21,2.04.21,4.14.62,6.16.62,3.05.36,6.13.53,9.18.15,2.31.62,4.62.89,6.93.06.47-.18,1.04-.41,1.51-3.32,6.36-6.1,13.03-10.36,18.89-1.69,2.31-2.99,4.91-4.38,7.43-2.1,3.88-4.17,7.82-6.19,11.75-1.07,2.07-1.98,4.26-2.96,6.36-.18.38-.44.74-1.01,1.6-.68-4.06-2.16-7.43-.95-11.13.15-.5.21-1.12.09-1.63-1.01-4.03-.3-8.11-.53-12.17-.06-1.24-.33-2.49-.47-3.73-.03-.36-.12-.74-.06-1.1.71-3.11-.24-6.22-.06-9.36.18-3.08.03-6.19.03-9.27v-9.53c0-3.08-.06-6.19,0-9.27.06-2.01.41-4,.47-6.01.06-1.87-.09-3.73-.15-5.6-.12-2.78-.24-5.6-.33-8.38,0-.41.21-.86.44-1.24,4.23-6.45,8.53-12.91,12.76-19.39.47-.74.92-1.51,1.33-2.22"
          style="fill: rgb(29, 29, 27);"></path>
        <path class="cls-1"
          d="M287.14,478.12c.44.41.68.5.68.62.03,3.43.56,6.87-.27,10.27-.12.53-.18,1.1-.12,1.63.27,2.31.59,4.62.89,6.93.09.8.18,1.63.18,2.43,0,6.28-.06,12.55.03,18.8.06,3.76.03,7.58.59,11.28.86,5.71.33,11.4.44,17.08.12,5.71,0,11.46,0,17.17,0,.27-.15.53-.24.86.38.21.8.44,1.24.68-.06.24-.06.44-.15.56-1.51,2.22-3.11,4.38-4.56,6.63-2.16,3.32-4.29,6.66-6.34,10.04-2.34,3.85-4.56,7.76-6.9,11.61-1.57,2.58-3.26,5.09-4.94,7.61-.27.38-.89.5-1.57.89,0-3.11-.06-6.01,0-8.88.03-1.57.41-3.11.41-4.65,0-3.79.38-7.55,1.1-11.25.03-.18,0-.36,0-.53.18-3.88.15-7.79.59-11.63,1.04-8.79.15-17.59.53-26.35.15-3.32.68-6.6,1.01-9.89.24-2.25.44-4.47.59-6.72.21-3.14.3-6.31.59-9.44.27-3.05.5-6.1,1.15-9.06.44-1.98,1.42-3.88,2.4-5.71,1.84-3.4,3.79-6.75,5.77-10.07,2.19-3.61,4.5-7.13,6.87-10.86"
          style="fill: rgb(29, 29, 27);"></path>
        <path class="cls-1"
          d="M278.17,351.88c-4.03-3.91-8.41-7.49-11.96-11.78-3.08-3.73-6.04-7.7-7.76-12.37-.38-1.01-.8-2.25-2.25-2.07.06-.59.03-.8.12-.92,2.43-3.94,3.85-8.32,5.95-12.37,2.31-4.5,3.85-9.3,5.92-13.88.98-2.19,2.1-4.35,3.17-6.6,2.4.56,3.91,2.19,5.71,3.29,4.91,2.99,8.97,7.11,13.53,10.54,1.42,1.07,2.72,2.34,4.09,3.49.8.65,1.04,1.48.77,2.43-1.6,5.77-2.93,11.63-4.83,17.32-2.37,7.08-5.57,13.83-9.8,20.04-.68,1.01-1.66,1.81-2.69,2.93"
          style="fill: rgb(29, 29, 27);"></path>
        <path class="cls-1"
          d="M263.19,500.32c-.33.62-.77,1.07-.8,1.54-.41,4.97-1.1,9.98-.21,14.98.3,1.72-.18,3.49,0,5.27.12,1.21-.33,2.49-.38,3.73-.09,1.27,0,2.55,0,3.82-.18,5.68-.3,11.4-.56,17.08-.09,2.04-.62,4.06-.92,6.1-.09.62-.12,1.27-.12,1.89,0,2.37-.06,4.74,0,7.11.09,3.7-.38,7.34-1.01,10.98-.56,3.26-.8,6.6-1.15,9.89-.21,1.95-.33,3.94-.59,5.89-.09.74-.53,1.42-1.33,2.07-.33-.98-.77-1.92-.92-2.93-.68-5.54-2.19-10.89-3.64-16.25-.86-3.2-1.57-6.45-2.46-9.62-.89-3.11-1.98-6.16-2.87-9.24-.44-1.54-.68-3.14-.89-4.74-.83-5.95-1.57-11.9-2.99-17.73-.89-3.64-1.6-7.34-2.43-11.01-.74-3.14-1.33-6.34-2.4-9.38-.89-2.55-.65-5.15-1.18-7.7-.09-.38.56-1.18,1.04-1.36,1.01-.36,2.1-.62,3.14-.62,7.37-.03,14.71,0,22.09,0,.18,0,.33.12.68.24"
          style="fill: rgb(29, 29, 27);"></path>
        <path class="cls-1"
          d="M409.32,190.98c6.13,9.56,12.85,18.68,18.12,29.1-.33.24-.8.8-1.42,1.01-1.6.56-3.2,1.18-4.86,1.45-2.4.36-4.83.38-7.25.62-3.32.33-6.6.68-9.89,1.04-2.25.24-4.47.38-6.72.62-.98.09-1.92.33-2.9.44-1.87.24-3.76.41-5.62.65-1.42.18-2.87.27-4.26.56-3.26.68-6.57.92-9.83,1.39-3.35.47-6.75.86-10.15,1.3-3.02.41-6.04.71-9.09,1.04-.44.06-.92,0-1.36.06-1.6.15-3.2.36-4.83.5-.59.06-1.18-.06-2.07-.15.5-.56.71-1.01,1.07-1.18,7.67-4,14.54-9.18,21.85-13.74,5.18-3.23,10.48-6.28,15.63-9.5,2.43-1.51,4.68-3.32,7.05-4.94,4.23-2.93,8.56-5.68,13.09-8.08,1.15-.62,2.25-1.39,3.4-2.1"
          style="fill: rgb(29, 29, 27);"></path>
        <path class="cls-1"
          d="M403.22,280.89c-4.12,2.93-7.85,5.36-11.9,7.28-1.21.56-2.31,1.36-3.43,2.07-2.61,1.63-5.6,2.25-8.44,3.14-3.2.98-6.04,2.58-8.97,4.06-2.72,1.39-5.39,2.78-8.29,3.82-1.72.62-3.17,2.07-4.88,2.69-1.66.59-2.4,1.72-3.02,3.14-1.84,4.2-4.88,7.55-7.73,11.01-1.24,1.54-2.46,3.08-3.67,4.65-3.4,4.53-6.72,9.12-10.24,13.56-2.58,3.2-5.42,6.19-8.17,9.24-.15.18-.47.15-1.01.33-.41-2.43-.83-4.8-1.24-7.13-.36-2.01-.65-4.09-1.18-6.07-.77-2.96-1.66-5.86-1.54-8.97,0-.27.06-.56,0-.8-1.21-3.61.74-6.13,3.17-8.23,3.97-3.43,7.87-6.96,12.35-9.77,2.84-1.81,5.36-4.17,8.17-6.01,3.29-2.13,6.78-4,10.15-5.98,2.4-1.42,4.8-2.81,7.55-3.52,3.11-.83,6.19-1.75,9.24-2.72,1.98-.62,3.91-1.39,5.83-2.07,4.03-1.45,8.17-2.52,12.4-3.26,3.26-.56,6.48-.95,9.77-1.04,1.07,0,2.13-.47,3.17-.44.56,0,1.1.62,1.95,1.12"
          style="fill: rgb(29, 29, 27);"></path>
        <path class="cls-1"
          d="M64.06,109.98c.62-1.04,1.04-1.92,1.63-2.66,3.49-4.44,7.05-8.82,10.6-13.23,1.81-2.25,3.55-4.56,5.51-6.66,1.39-1.51,2.96-2.93,4.65-4.12,4.5-3.14,9.21-5.98,13.65-9.21,6.72-4.91,13.88-9.21,19.98-14.95,2.07-1.95,4.44-3.61,6.75-5.3.92-.65,2.1-.89,3.08-1.45.83-.5,1.54-1.21,2.31-1.81.27-.21.59-.33,1.15-.62,0,.56.12.95,0,1.15-1.3,2.16-2.72,4.23-3.97,6.42-2.61,4.53-5.21,9.06-7.64,13.68-1.24,2.4-2.52,4.77-3.85,7.08-3.11,5.39-6.16,10.78-9.18,16.22-1.1,1.98-2.01,4.03-2.9,6.1-.41.98-.77,1.69-1.92,1.04-1.01-.59-.95.65-1.36.8-2.72.86-5.51,1.57-8.26,2.31-2.34.62-4.68,1.15-6.99,1.89-3.67,1.15-7.49,1.75-11.25,2.31-3.26.47-6.6.65-9.86,1.24-.56.09-1.21-.12-2.07-.24"
          style="fill: rgb(29, 29, 27);"></path>
        <path class="cls-1"
          d="M240.27,322.45c-1.12,2.19-2.07,4.32-3.29,6.31-2.9,4.86-5.86,9.65-8.85,14.45-.62.98-1.39,1.87-2.22,2.69-1.39,1.39-2.31,1.33-3.55-.18-1.1-1.3-2.13-2.69-3.23-3.97-2.34-2.72-4.71-5.42-7.05-8.14-.47-.53-.89-1.12-1.3-1.72-2.01-2.75-4.09-5.48-5.95-8.32-1.95-2.96-4-5.92-5.42-9.24-.59-1.39-1.42-2.66-2.13-3.97,6.19-6.45,12.29-12.82,18.56-19.39,8.64,10.3,16.9,20.66,24.45,31.47"
          style="fill: rgb(29, 29, 27);"></path>
        <path class="cls-1"
          d="M135.68,250.54c-.27.15-.56.38-.71.33-2.96-1.01-6.16-1.15-9-2.61-2.16-1.1-4.41-1.95-6.66-2.84-2.93-1.12-5.92-2.04-8.82-3.23-3.79-1.57-7.49-3.35-11.22-5.03-.33-.15-.65-.36-.98-.38-2.28-.27-3.4-1.72-4.03-3.76-.12-.44-.41-.83-.65-1.24-.36.18-.56.21-.68.33-.5.53.15,1.81-1.12,1.84-1.1.03-.77-1.07-1.15-1.6-3.94-5.42-6.63-11.49-9.03-17.7-2.04-5.3-3.49-10.78-5.48-16.05-2.01-5.39-3.46-10.95-5.09-16.43-.18-.65-.18-1.33-.33-2.46,2.9,2.31,4.74,4.86,6.75,7.25,3.08,3.64,5.65,7.7,9.09,11.07,1.81,1.78,3.37,3.76,5.09,5.6,2.55,2.75,5.15,5.48,7.73,8.17.98,1.04,1.98,2.07,2.99,3.08,3.64,3.64,7.31,7.25,10.92,10.95,3.35,3.43,6.63,6.96,9.92,10.45,2.58,2.72,5.12,5.45,7.67,8.2,1.57,1.72,3.11,3.49,4.65,5.24.15.18.15.5.24.8"
          style="fill: rgb(29, 29, 27);"></path>
        <path class="cls-1"
          d="M24.28,157.56c-.92-1.27-1.69-2.37-2.78-3.88,1.45.12,2.52.06,3.49.36,2.81.86,5.57,1.95,8.41,2.75,3.61,1.04,7.11,2.34,10.6,3.67,2.16.83,4.44,1.33,6.66,1.98.86.24,1.75.36,2.61.62.98.3,1.89.68,1.81,1.98,0,.33.21.68.38.98,3.94,7.13,5.95,14.98,8.38,22.68,1.01,3.17,2.31,6.25,3.52,9.33.86,2.16,1.72,4.35,2.69,6.48,1.36,2.9,2.81,5.77,4.23,8.61,1.01,2.01,2.04,4.03,3.14,6.13-.33.44-.62.89-.86,1.27,1.51,2.66,3.02,5.3,4.53,7.96.06.09-.15.3-.24.44-.18,0-.41.09-.47,0-3.52-3.4-7.11-6.78-10.54-10.3-1.75-1.81-3.2-3.88-4.8-5.83-1.48-1.81-2.96-3.61-4.38-5.45-3.14-4.03-6.31-8.05-9.33-12.17-2.66-3.61-5.15-7.37-8.38-10.57-2.28-2.25-3.94-5.12-6.13-7.46-2.87-3.02-4.71-6.78-7.37-9.92-1.57-1.84-3.02-3.79-4.65-5.6-1.75-1.95-1.81-1.89-.5-4.09"
          style="fill: rgb(29, 29, 27);"></path>
        <path class="cls-1"
          d="M170.02,204.15c1.1-.06,2.04-.12,2.61-.18,2.72,3.11,5.09,6.16,7.85,8.85,3.61,3.52,6.16,7.76,8.61,12.05,1.39,2.43,2.78,4.86,4.17,7.25,1.51,2.66,3.05,5.33,4.56,7.99,1.81,3.23,3.49,6.51,5.45,9.65,3.7,5.98,6.63,12.29,8.82,18.95.71,2.16,1.27,4.29-.36,6.48-.59-.21-1.36-.38-2.01-.77-1.36-.8-2.58-2.19-4.03-2.49-2.07-.41-3.2-1.98-4.68-3.02-2.04-1.45-4.06-2.87-6.25-4.12-3.61-2.1-6.99-4.65-10.45-6.99-.68-.44-1.39-.86-2.01-1.36-.68-.56-1.57-1.12-1.81-1.87-.56-1.69-.86-3.46-1.18-5.24-1.07-5.62-2.1-11.25-3.2-16.87-1.27-6.39-2.61-12.82-3.97-19.18-.53-2.46-1.27-4.86-1.89-7.28-.15-.59-.12-1.21-.18-1.89"
          style="fill: rgb(29, 29, 27);"></path>
        <path class="cls-1"
          d="M335.92,666.91c-1.07,3.79-2.1,7.05-2.87,10.36-1.12,4.71-2.22,9.41-3.05,14.15-.47,2.81-.38,5.74-.62,8.61-.09,1.24-.5,2.49-.5,3.73,0,2.72.27,5.42.27,8.14,0,1.21-.09,2.4.09,3.61.09.62-.68,1.42-1.18,2.01-.68.8-1.39,1.66-2.25,2.25-2.99,2.1-5.09,5.06-7.79,7.46-2.9,2.58-5.8,5.15-8.76,7.61-.8.65-1.72,1.3-2.96.65-1.39-.71-1.81-1.24-1.54-2.78.47-2.81,1.04-5.62,1.54-8.44.03-.18.03-.36.06-.53.18-3.52.3-7.02.56-10.51.18-2.4.59-4.8.89-7.19.06-.44.18-.89.15-1.33-.03-2.81.5-5.54,1.01-8.26.36-1.92.41-3.94.62-5.89.12-1.21.3-2.43.5-4,2.96-2.04,6.34-4.23,9.53-6.63,3.7-2.81,7.31-5.77,10.86-8.73,1.36-1.12,2.46-2.55,3.73-3.79.3-.3.89-.3,1.66-.53"
          style="fill: rgb(29, 29, 27);"></path>
        <path class="cls-1"
          d="M206.02,283.55c-.98,1.12-.8,2.55-1.95,3.35-1.12.77-2.25,1.54-3.17,2.49-1.98,2.04-4.47,3.55-6.22,5.89-.36.47-1.04.68-1.54,1.07-.68.53-1.24.38-1.98.03-4.12-1.98-7.55-4.91-10.86-7.96-1.45-1.33-3.02-2.55-4.29-4-2.87-3.23-5.57-6.6-8.38-9.89-1.24-1.45-2.78-2.66-2.61-4.68-3.02-2.13-5.8-4.2-7.93-7.02-.15-.21-.36-.41-.56-.59-3.97-3.14-6.87-7.25-10.01-11.13-.95-1.18-1.98-2.31-2.93-3.49-1.48-1.81-3.02-3.58-4.38-5.48-2.96-4.06-5.86-8.14-8.79-12.23-.09-.12-.03-.36-.06-.53.71-.74,1.12-.06,1.54.36,2.13,1.92,4.17,3.94,6.37,5.77,2.72,2.25,5.12,4.8,7.61,7.28,1.92,1.92,4.56,3.17,6.9,4.68,1.78,1.15,3.61,2.22,5.42,3.32,2.13,1.33,4.29,2.63,6.42,4,2.01,1.27,4.06,2.55,6.01,3.94,3.17,2.22,6.37,4.38,9.33,6.87,4.86,4.06,10.33,7.19,15.48,10.81,2.58,1.81,5.09,3.67,7.67,5.45.92.65,1.95,1.12,2.99,1.72"
          style="fill: rgb(29, 29, 27);"></path>
        <path class="cls-1"
          d="M306.08,366.68c2.28.83,4.17-.8,6.31-.83,2.04,0,4.12-.18,6.34-.27.06.15.3.53.21.77-1.45,4.62-2.49,9.33-3.61,14.03-1.3,5.39-2.9,10.72-4.17,16.1-.74,3.14-1.57,6.25-1.45,9.56.06,1.48-.18,3.11-.77,4.47-.77,1.78-.86,3.64-1.39,5.45-.21.74-.53,1.57-1.07,2.07-4.32,3.88-8.67,7.7-13.06,11.52-2.52,2.19-5.03,4.35-7.61,6.45-1.24,1.01-2.63,1.81-3.94,2.72-.59-.53-1.01-.89-1.36-1.24,0-.21,0-.41.06-.53.38-.68,1.01-1.27,1.21-2.01,1.1-4.09,2.55-8.05,4.47-11.84,2.66-5.21,4.88-10.63,6.72-16.19,1.69-5.03,3.52-9.98,5.18-15.01.89-2.72,1.42-5.54,1.72-8.41.65-6.04,2.43-11.69,6.25-16.85"
          style="fill: rgb(29, 29, 27);"></path>
        <path class="cls-1"
          d="M3.88,78.6c-.09-.62-.33-1.12-.18-1.48.68-1.66.36-3.4.5-5.09.27-2.93.74-5.86.98-8.79.15-1.98,0-4,.09-5.98.21-3.67.38-7.34,1.01-10.98.33-2.04.47-4.12.62-6.16.21-3.05.3-6.13.59-9.18.27-3.02.74-6.04,1.07-9.09.12-1.15.65-1.92,1.63-2.61,4.8-3.46,9.36-7.25,13.91-11.04,3.37-2.81,6.93-5.39,10.42-8.05.27-.21.8-.09,1.33-.15-1.24,3.76-2.43,7.28-3.61,10.81-1.87,5.54-3.14,11.22-4.41,16.9-.71,3.14-1.51,6.28-2.1,9.41-.5,2.58-1.66,4.88-2.66,7.25-1.63,3.79-3.29,7.58-5.12,11.25-1.92,3.88-4.03,7.67-6.19,11.4-2.22,3.79-4.65,7.49-6.99,11.22-.09.12-.3.15-.83.38"
          style="fill: rgb(29, 29, 27);"></path>
        <path class="cls-1"
          d="M103.91,279.71c1.66.27,3.4.33,4.97.83,3.85,1.21,7.58,2.81,11.43,4,4.14,1.27,7.85,3.35,11.52,5.54,1.98,1.18,4.03,2.25,5.95,3.55,2.61,1.75,5.12,3.64,7.61,5.51,3.2,2.43,6.42,4.83,9.53,7.4,2.55,2.1,4.94,4.38,7.4,6.6,2.07,1.87,4.12,3.73,6.28,5.54,2.28,1.89,4.59,3.73,6.96,5.51,1.75,1.3,2.19,2.37,1.33,4.29-.77,1.75-1.69,3.4-2.52,5.12-1.07,2.16-2.1,4.32-3.14,6.51-.71,1.45-1.33,2.96-2.1,4.41-.59,1.12-1.24,1.12-1.95.09-1.95-2.9-3.88-5.83-5.89-8.73-1.24-1.78-2.63-3.43-3.85-5.21-2.13-3.23-4.12-6.54-6.28-9.74-1.24-1.87-2.66-3.64-4.17-5.3-2.46-2.78-4.94-5.54-7.61-8.14-2.81-2.75-6.1-4.94-9.38-7.11-2.16-1.39-4.09-3.14-6.16-4.68-1.07-.8-2.25-1.45-3.37-2.16-2.01-1.33-4.14-2.55-6.04-4.03-2.25-1.75-4.32-3.76-6.45-5.65-1.42-1.24-2.87-2.46-4.29-3.7.06-.12.12-.27.18-.38"
          style="fill: rgb(29, 29, 27);"></path>
        <path class="cls-1"
          d="M321.39,168.69c1.39,5.21,2.87,10.36,4.06,15.57.68,2.96.71,6.07,1.24,9.06.5,2.66.56,5.3.62,7.96,0,.44.47.89.71,1.33-.44.38-.92.68-1.24,1.1-2.43,3.11-4.83,6.25-7.28,9.33-3.05,3.79-5.98,7.64-8.94,11.49-3.23,4.2-6.31,8.56-9.95,12.43-3.79,4.06-7.16,8.53-10.78,12.76-1.1,1.27-2.25,2.52-3.61,3.52-.15-.09-.33-.21-.47-.33,1.01-2.9,2.07-5.8,3.05-8.73.8-2.37,1.54-4.8,2.31-7.16,1.24-3.79,3.37-7.13,5.09-10.72,1.92-3.97,3.85-7.93,5.74-11.93,2.75-5.86,4.86-11.99,7.16-18.06.95-2.52,2.37-4.83,3.55-7.25,2.72-5.6,4.71-11.49,6.69-17.38.41-1.21.77-2.4,2.01-3.02"
          style="fill: rgb(29, 29, 27);"></path>
        <path class="cls-1"
          d="M313.34,264.34c.53-1.75.98-3.37,1.54-4.91.95-2.55,1.42-5.18,1.78-7.85.15-1.15.68-1.89,1.6-2.34,2.78-1.36,5.39-3.02,8.38-4.06,2.16-.74,4.32-1.6,6.51-2.34,1.48-.5,2.93-.95,4.5-.8.36.03.74,0,1.07-.09,3.17-1.21,6.63-1.45,9.77-2.87,1.51-.65,3.35-.47,5-.86,2.22-.53,4.47-.41,6.72-.56,2.31-.15,4.62-.59,6.93-.86,1.07-.12,2.16-.21,3.26-.18,2.63.09,5.18-.38,7.73-.95.27-.06.53-.12.8-.12,3.97-.18,7.93-.5,11.9-.5,2.49,0,4.97.47,8.02.77-1.69.74-2.9,1.33-4.17,1.87-3.29,1.3-6.51,2.9-9.77,4.17-2.55,1.01-5.15,2.01-7.85,2.75-2.87.8-5.83,1.54-8.64,2.81-2.58,1.15-5.45,1.69-8.17,2.49-1.36.38-2.78.65-4.12,1.15-4.41,1.69-9,2.81-13.23,5-3.29,1.72-7.11,2.49-10.69,3.64-1.95.62-3.94,1.18-5.92,1.81-2.63.83-5.24,1.81-7.9,2.49-1.45.36-3.02.24-5,.38"
          style="fill: rgb(29, 29, 27);"></path>
        <path class="cls-1"
          d="M297.41,744.56c-1.98,2.75-4.74,5.18-7.76,7.22-7.34,5-13.14,11.55-19.24,17.85-3.97,4.09-8.14,7.99-12.26,11.96-.27.27-.71.36-1.42.68.12-.71.12-1.04.27-1.33,2.25-4.91,4.41-9.83,6.81-14.65,1.95-3.97,4.2-7.76,6.31-11.63,1.45-2.69,2.93-5.39,4.32-8.11,2.07-4,4.09-7.99,6.63-11.78,2.04-3.02,3.49-6.48,5.06-9.83,2.04-4.29,3.88-8.7,5.92-13,2.25-4.71,4.62-9.33,6.96-13.97.24-.47.53-.92.83-1.39.83.18,1.15.53,1.01,1.33-.68,3.23-1.42,6.45-1.95,9.71-.36,2.22-.36,4.47-.62,6.72-.3,2.58-.68,5.15-1.01,7.73-.03.27-.06.53-.06.8-.18,6.16-.41,12.29-.5,18.44,0,1.01.41,2.01.68,3.26"
          style="fill: rgb(29, 29, 27);"></path>
        <path class="cls-1"
          d="M217.77,426.99c-1.36-5.06-2.72-9.98-4-14.92-.86-3.29-1.45-6.66-2.43-9.92-.8-2.66-1.84-5.27-2.96-7.82-1.75-3.97-3.17-8.02-4.44-12.14-1.48-4.88-3.2-9.71-4.8-14.57-.24-.68-.62-1.33-.71-2.04-.15-1.39-.53-2.61-2.13-3.61.98-.24,1.45-.44,1.92-.44,3.46,0,6.93-.3,10.36.09,2.78.3,5.57.33,8.38.47,2.01.12,2.43,1.01,2.84,2.87.8,3.73.27,7.52.92,11.28.62,3.61.5,7.37.65,11.07.21,5.57.59,11.13.47,16.7-.06,3.55-.27,7.16-.95,10.72-.38,1.92-.41,3.94-.62,5.89-.18,1.6-.3,3.23-.65,4.8-.18.77-.41,1.89-1.89,1.54"
          style="fill: rgb(29, 29, 27);"></path>
        <path class="cls-1"
          d="M76.32,83.04c-.3.71-.44,1.33-.8,1.78-.83,1.04-1.81,1.95-2.69,2.93-2.28,2.46-4.62,4.86-6.81,7.37-2.72,3.11-5.3,6.37-7.99,9.5-.71.83-1.51,1.57-2.28,2.34-3.11,3.26-6.16,6.57-9.3,9.8-2.58,2.61-5.24,5.12-7.9,7.64-4.8,4.56-9.59,9.06-14.39,13.59-.44.41-.95.74-1.78,1.39.06-.8,0-1.24.12-1.57,1.27-2.78,2.61-5.57,3.88-8.35,2.78-6.07,5.57-12.14,8.35-18.18,1.42-3.11,2.81-6.22,4.32-9.27.47-.92,1.15-1.89,2.01-2.43,1.51-.89,1.92-2.25,2.34-3.73.33-1.12.59-2.25,1.15-3.29.71-1.33,1.57-2.61,2.52-3.82.65-.83,1.39-1.48,2.63-1.72,2.63-.5,5.18-1.45,7.79-1.98,2.81-.56,5.65-.83,8.5-1.24.62-.09,1.21-.3,1.84-.44,2.72-.68,5.48-.92,8.47-.41"
          style="fill: rgb(29, 29, 27);"></path>
        <path class="cls-1"
          d="M494.49,63.68c-6.69,10.69-15.31,19.36-24.25,27.89,0-3.67-.8-7.16.12-10.66.09-.36.09-.71.12-1.07.18-2.87.24-5.77.59-8.61.56-4.47.68-8.97,1.12-13.44.38-4.03.62-8.08,1.12-12.08.68-5.36.18-10.69.47-16.02.09-1.51.41-2.99.71-4.94.62.65,1.04.95,1.24,1.33,1.12,2.16,2.19,4.32,3.29,6.48,1.18,2.31,2.4,4.62,3.58,6.9.59,1.12,1.21,2.19,1.75,3.32,2.72,5.8,5.42,11.61,8.17,17.41.56,1.21,1.3,2.37,1.92,3.49"
          style="fill: rgb(29, 29, 27);"></path>
        <path class="cls-1"
          d="M144.5,327.96c-.83-.24-1.72-.38-2.46-.74-3.94-1.95-7.87-3.88-11.72-5.95-3.7-1.98-7.34-4.14-10.98-6.25-6.19-3.52-12.37-7.08-18.89-10.01-4.62-2.1-9.15-4.38-13.68-6.72-1.01-.53-2.55-.09-3.05-1.45-.38-1.07-.5-2.25-.74-3.37-.71-3.67-1.45-7.34-2.19-11.25.92.09,1.87,0,2.58.33,3.97,1.87,8.17,3.17,12.29,4.62,5.71,2.01,10.24,5.83,15.22,8.94,3.94,2.46,7.87,4.91,11.87,7.28,3.52,2.1,6.9,4.65,9.27,8.2.44.68,1.1,1.18,1.63,1.81.89,1.04,1.72,2.07,2.58,3.11,2.16,2.63,4.35,5.27,6.51,7.93.77.95,1.48,1.98,2.22,2.96-.15.21-.33.38-.47.59"
          style="fill: rgb(29, 29, 27);"></path>
        <path class="cls-1"
          d="M282.99,284.95c1.18-.3,2.28-.56,3.67-.92-.65-.3-.98-.44-1.69-.77,1.36-.71,2.43-1.39,3.61-1.89,1.75-.71,3.52-1.33,5.3-1.95,2.49-.89,5.03-1.63,7.46-2.69,4.09-1.81,8.5-2.63,12.7-4.06,1.42-.47,2.93-.77,4.26-1.42,3.43-1.66,7.11-2.34,10.81-3.08,2.1-.41,4.12-1.21,6.16-1.84.69-.22,1.59-.1,2.69.36-.3.62-.47,1.3-.89,1.81-3.46,4.29-7.37,8.11-11.46,11.81-1.98,1.81-4,3.58-5.98,5.36-2.72,2.46-5.45,4.91-8.17,7.37-1.6,1.45-3.23,2.9-4.86,4.32-1.27,1.1-2.55,2.19-3.91,3.35-1.89-1.36-4-1.92-5.57-3.52-1.3-1.33-2.96-2.31-4.44-3.43-2.66-1.98-5.3-3.94-7.96-5.92-.98-.71-1.66-1.63-1.78-2.93"
          style="fill: rgb(29, 29, 27);"></path>
        <path class="cls-1"
          d="M20.31,63.68c1.24.41,1.51,1.04,1.48,1.81-.24,3.7.56,7.43-.5,11.07-.09.27,0,.53-.03.8-.18,4.06-.27,8.11-.56,12.17-.18,2.58-.71,5.15-1.01,7.73-.27,2.22-.36,4.47-.59,6.72-.38,3.29-.71,6.6-1.3,9.86-.92,5.09-2.04,10.15-3.02,15.25-.21,1.04-.44,2.01-1.3,3.29-4.44-12.29-8.23-24.34-13.47-36.06,5.74-11.4,12.02-22.65,20.4-32.65"
          style="fill: rgb(29, 29, 27);"></path>
        <path class="cls-1"
          d="M265.38,282.58c-4.8,10.15-10.84,19.24-17.41,27.98-.24.33-.74.47-1.3.8-.83-3.08-3.43-4.71-5.36-6.87-4.47-4.94-9.06-9.8-13.56-14.71-1.66-1.78-3.23-3.61-4.88-5.45.53-1.18,1.01-2.1,2.43-1.45,3.02-.95,6.1-.27,9.15-.53,2.13-.21,4.23-.65,6.37-.95.71-.09,1.45-.12,2.16-.12,3.73,0,7.43-.09,11.16,0,3.14.09,6.28.33,9.41.56.59.06,1.15.41,1.87.65"
          style="fill: rgb(29, 29, 27);"></path>
        <path class="cls-1"
          d="M190.89,428.79c.36.8.74,1.57,1.07,2.37,1.81,4.41,3.64,8.79,5.42,13.23,1.12,2.81,2.69,5.57,2.22,8.79-.18,1.24-.38,2.49-.53,3.73-.53,4-1.1,7.99-1.6,11.96-.06.36,0,.71,0,1.1-.74,12.4-.47,24.81-.56,37.21-.03,4.35-.36,8.73-.56,13.09,0,.15-.18.27-.47.62-.44-.77-.98-1.39-1.18-2.1-.8-2.58-1.84-5.12-2.13-7.76-.33-2.93-1.39-5.57-2.22-8.29-.8-2.61-1.15-5.24-1.69-7.87-.44-2.16-.68-4.38-.74-6.57-.09-3.55.24-7.11,1.01-10.57.12-.53.24-1.07.24-1.6.18-8.59.83-17.17.56-25.79-.12-3.91-.09-7.82,0-11.72.06-3.23.33-6.45.5-9.68l.74-.15h-.06Z"
          style="fill: rgb(29, 29, 27);"></path>
        <path class="cls-1"
          d="M338.74,653.76c-7.85,6.36-15.6,12.26-23.68,17.64-.15.12-.5-.06-.86-.12-.59-1.95.36-3.7.68-5.48.56-3.14,1.24-6.25,1.81-9.36.65-3.52,1.24-7.05,1.87-10.57.09-.53.27-1.04.33-1.57.36-3.02.74-6.04,1.07-9.06.24-2.13.38-4.29.59-6.42.33-3.29.74-6.57,1.01-9.89.15-1.81,0-3.64.09-5.45.03-.86-.36-1.81.65-2.75.38.47.95.86,1.07,1.36,1.69,7.16,4.17,14.06,6.31,21.11,1.39,4.56,3.26,8.88,5.68,13,1.36,2.31,2.25,4.88,3.43,7.58"
          style="fill: rgb(29, 29, 27);"></path>
        <path class="cls-1"
          d="M191.28,411.51c.09-1.07.09-1.81-.3-2.69-.74-1.78-.95-3.79-1.36-5.71-.44-2.01-.71-4.09-1.39-6.01-2.75-7.7-5.48-15.39-8.56-22.97-1.04-2.58-2.16-5.09-3.08-7.73-.33-.92-.36-1.92-.62-2.87-.24-.92-.62-1.81-1.04-3.02,1.18,0,2.25-.09,3.32,0,2.22.21,4.44.62,6.66.71.89.03,1.81-.53,2.75-.83.53,2.16,1.18,4.12,1.45,6.13.41,2.87,1.51,5.54,2.4,8.26,1.51,4.59,3.2,9.15,4.23,13.88,1.12,5.09,2.99,9.95,4.86,14.83,1.07,2.75,1.84,5.62,2.81,8.44.74,2.13,1.6,4.2,2.37,6.31.18.47.21.98.36,1.78-3.2-.47-5.33-2.49-7.76-3.79-2.43-1.3-4.68-3.02-7.11-4.65"
          style="fill: rgb(29, 29, 27);"></path>
        <path class="cls-1"
          d="M170.61,507.99c1.89-.8,2.63-2.78,4.06-4.2,1.39-1.36,2.46-3.05,3.67-4.59.38-.5.71-1.04,1.04-1.48,1.66.62,2.1,1.48,2.28,2.81.33,2.31.74,4.62,1.42,6.81,2.37,7.43,4.35,14.95,6.16,22.56,1.12,4.8,2.61,9.47,4.14,14.15,1.45,4.41,2.34,9,3.49,13.5.15.59.3,1.15.59,2.28-.89-.5-1.45-.71-1.84-1.07-3.88-3.52-7.73-7.11-11.55-10.66-.44-.41-.8-.98-1.15-1.48-.27-.36-.38-1.01-.71-1.12-1.81-.56-2.01-2.22-2.72-3.61-.36-.68-1.01-.98-.09-1.66.12-.09-.06-.62-.15-.95-2.01-8.17-4.06-16.34-6.1-24.48-.36-1.39-.74-2.78-1.24-4.12-.33-.89-.83-1.69-1.33-2.69"
          style="fill: rgb(29, 29, 27);"></path>
        <path class="cls-1"
          d="M141.1,336.58c-1.72-.21-3.29-.36-4.83-.59-2.13-.33-4.23-.68-6.37-1.04-2.63-.44-5.3-.92-7.93-1.39-.53-.09-1.07-.18-1.6-.24-2.49-.33-4.97-.68-7.46-1.01-.27-.03-.53-.06-.8-.09-3.14-.18-6.34-.15-9.44-.62-3.26-.5-6.75,0-9.74-1.66-1.1-.62-2.4-1.42-2.61-3.05-.3-2.22-.62-4.44-1.1-6.63-1.04-4.53-2.16-9.06-3.29-13.71.41-.27,1.12-.33,1.69.27,1.92,2.04,4.74,2.43,6.96,3.94.5.36,1.18.44,1.72.77,2.9,1.57,5.77,3.2,8.67,4.77.62.33,1.33.53,1.95.86,2.78,1.36,5.57,2.75,8.32,4.17,3.32,1.72,6.57,3.61,9.98,5.18,5.48,2.58,10.48,5.89,15.48,9.27.12.09.15.33.36.77"
          style="fill: rgb(29, 29, 27);"></path>
        <path class="cls-1"
          d="M190.89,568.56c-.47.18-.74.36-.95.33-2.81-.59-5.57-1.45-8.38-1.75-2.87-.33-5.54-1.6-8.44-1.45-.18,0-.38.03-.53,0-1.95-.71-4.06-.8-6.01-1.3-2.58-.65-5.12-.92-7.76-.86-3.43.06-6.81-.38-10.15-1.04-.62-.12-1.27-.06-1.89-.06h-9.53c-.65,0-1.33-.15-2.1-.74,1.07-.5,2.13-1.1,3.26-1.51,5.21-1.92,10.27-4.23,15.19-6.81,2.37-1.24,4.65-2.72,7.11-3.67,3.05-1.15,5.68-3.08,9.06-4.26,3.08,2.19,6.37,4.59,8.88,7.73,4.09,5.09,9.27,9.38,12.32,15.45"
          style="fill: rgb(29, 29, 27);"></path>
        <path class="cls-1"
          d="M469.89,146.84c-.77-.36-1.36-.56-1.84-.89-2.22-1.51-4.44-3.02-6.6-4.59-2.04-1.48-4.06-2.99-5.98-4.56-.5-.41-.95-1.15-1.07-1.84-.5-2.9-.83-5.8-1.33-8.7-.8-4.68-1.54-9.36-2.52-14-1.78-8.32-3.7-16.58-5.54-24.87-.09-.36.12-.98.38-1.15.5-.3.92-.03,1.33.5,1.54,2.1,3.17,4.14,4.77,6.22,2.37,3.05,4.77,6.1,7.08,9.18.53.71,1.18,1.6,1.12,2.37-.18,3.26,1.27,6.13,1.89,9.21.59,3.08,1.3,6.13,2.04,9.18.47,2.01,1.12,3.97,1.69,5.95,1.57,5.51,3.14,11.01,4.71,16.55.12.38-.06.83-.09,1.48"
          style="fill: rgb(29, 29, 27);"></path>
        <path class="cls-1"
          d="M223.52,451.95c-.74,2.66-.74,5.27-.18,7.96.44,2.1.71,4.26.77,6.39.12,4.77.03,9.56,0,14.33,0,.86.27,1.87-.83,2.46-2.1-1.07-2.9-3.23-3.52-5.18-1.39-4.29-3.37-8.26-5.39-12.26-1.72-3.43-3.55-6.84-5.15-10.36-2.1-4.68-4-9.44-5.95-14.15-.74-1.75-1.39-3.52-2.19-5.24-1.6-3.43-3.11-6.87-3.94-10.6-.18-.77-.62-1.45-1.1-2.49.74.03,1.39-.12,1.66.12,2.37,2.22,4.97,4.26,6.93,6.81,2.81,3.67,6.45,6.51,9.09,10.39,2.78,4.14,6.39,7.76,9.8,11.81"
          style="fill: rgb(29, 29, 27);"></path>
        <path class="cls-1"
          d="M305.91,318.72c.47.71.92,1.12,1.12,1.66,1.01,2.61,2.04,5.18,2.93,7.82.44,1.27.65,2.61.89,3.91.71,3.97,1.45,7.9,2.1,11.87.5,3.17.86,6.37,1.27,9.41-1.01.68-1.87,1.18-2.61,1.78-1.57,1.27-3.58,1.04-5.36,1.57-2.63.77-5.36.47-8.08.59-1.87.06-3.76.41-5.62.47-.95.03-1.89-.3-2.81-.47,1.42-3.76,2.75-7.25,4.06-10.75,1.87-5.06,3.52-10.18,5.6-15.16,1.78-4.29,3.82-8.5,6.51-12.73"
          style="fill: rgb(29, 29, 27);"></path>
        <path class="cls-1"
          d="M50.68,126.2c.71,4.65,1.45,9.41,2.16,14.18.71,4.74,1.39,9.5,2.07,14.27-.86.38-1.87-.62-2.46.59-.15.3-1.18.27-1.78.21-3.37-.36-6.63-1.39-10.04-1.66-2.01-.15-4-.92-6.01-1.33-1.39-.3-2.81-.44-4.2-.8-2.34-.56-4.65-1.21-7.16-1.87.18-.56.21-1.15.5-1.45,3.11-2.96,6.28-5.89,9.41-8.82.47-.44,1.01-.77,1.42-1.24,2.99-3.35,6.78-5.92,9.3-9.74,1.27-1.92,4.03-2.72,6.78-2.37"
          style="fill: rgb(29, 29, 27);"></path>
        <path class="cls-1"
          d="M292.08,383.8c-.5.18-.83.33-1.15.44.03,3.46-.53,6.66-2.16,9.86-2.46,4.77-4.29,9.86-6.25,14.86-.5,1.3-1.33,2.4-1.54,3.94-.15,1.12-1.1,2.25-1.45,3.55-.24.86-1.15,1.54-1.78,2.28-.83-.41-.89-1.04-.71-1.84.62-2.72.5-8.5-.06-11.55-.18-1.07-.15-2.16-.09-3.26.15-2.72.3-5.45.53-8.17.33-4.03.38-8.11,1.18-12.05.74-3.61-.03-7.16.44-10.72.27-2.04.56-4.06.86-6.22,4.8,1.15,9.62,2.31,14.92,2.1-.98,3.64-2.46,7.02-2.4,10.81-.21.09-.62.3-1.01.47-.56.71-.21,4.23.62,5.51"
          style="fill: rgb(29, 29, 27);"></path>
        <path class="cls-1"
          d="M352.74,323.82c.41-.65.68-1.1,1.04-1.51,1.18-1.48,2.46-2.87,3.55-4.38,1.84-2.61,4.26-4.47,6.96-6.07,1.24-.74,2.43-1.57,3.61-2.34,3.02-1.92,6.04-3.88,9.09-5.74,2.75-1.66,5.77-2.75,8.76-3.88,1.39-.53,2.75-1.18,4.09-1.87,1.57-.83,3.2-1.6,4.65-2.66,4.65-3.4,10.15-5.33,14.8-8.73,1.15-.83,2.22-1.81,3.37-2.66.24-.18.59-.27,1.3-.53-.3,1.15-.5,1.98-.74,2.81-.74,2.55-1.48,5.12-2.19,7.67-.18.68-.38,1.45-.27,2.13.3,2.07-.98,3.11-2.49,4-2.69,1.6-5.74,2.31-8.67,3.35-3.46,1.21-6.84,2.66-10.24,4.06-3.55,1.48-7.13,2.93-10.63,4.53-2.58,1.18-5.03,2.61-7.58,3.88-1.6.8-3.23,1.48-4.83,2.22-1.92.89-3.85,1.81-5.8,2.69-2.28,1.07-4.56,2.1-6.84,3.14-.15.06-.33,0-.89-.06"
          style="fill: rgb(29, 29, 27);"></path>
        <path class="cls-1"
          d="M329.77,100.95c7.28,16.49,11.93,33.66,14.74,51.39-.62.68-1.54.59-2.22.3-3.67-1.51-7.61-2.49-10.57-5.45-1.27-1.24-2.84-2.19-4.32-3.29-.47-4.74-.21-9.59-.33-14.42-.12-4.8,0-9.59.62-14.36.62-4.74.77-9.56,2.1-14.21"
          style="fill: rgb(29, 29, 27);"></path>
        <path class="cls-1"
          d="M435.07,209.45c-3.32-4.88-6.48-9.12-9.21-13.62-2.66-4.41-4.56-9.24-6.13-14.15,6.9-5.74,13.94-11.63,21.17-17.67.3.59.74,1.07.71,1.45-.27,2.84-.62,5.68-.95,8.53-.18,1.51-.33,3.02-.56,4.53-.33,2.31-.71,4.59-1.01,6.9-.24,1.87-.56,3.73-.59,5.62-.09,5.6-1.54,10.98-2.25,16.49-.06.53-.56.98-1.18,1.95"
          style="fill: rgb(29, 29, 27);"></path>
        <path class="cls-1"
          d="M404.73,311.2c-.83,1.36-1.6,2.63-2.37,3.91-1.42,2.4-3.14,4.59-4.06,7.28-.33,1.01-1.04,1.89-1.63,2.78-1.6,2.37-3.32,4.71-4.86,7.11-.83,1.27-2.04,1.78-3.35,2.04-4.88,1.1-9.77,2.13-14.68,3.14-.53.12-1.07.18-1.6.15-3.08-.09-6.1.36-9.06,1.04-.18.03-.36.03-.53.06-4.77.18-9.56.38-14.33.53-.41,0-.83-.09-1.33-.15.95-1.33,2.34-1.39,3.55-1.92,2.28-1.01,4.44-2.25,6.69-3.32,1.51-.71,3.11-1.21,4.65-1.87,1.84-.77,3.73-1.39,5.42-2.37,3.11-1.81,6.37-3.17,9.74-4.38,2.72-.98,5.21-2.69,7.82-4.09,2.58-1.36,5.06-2.99,7.79-4.03,3.67-1.42,6.75-3.73,10.01-5.77.43-.28,1.14-.34,2.13-.18"
          style="fill: rgb(29, 29, 27);"></path>
        <path class="cls-1"
          d="M169.43,153.97c1.6-9.03,5.12-17.14,7.28-25.67,1.3-5.12,2.43-10.27,3.67-15.39.36-1.45.86-2.9,1.33-4.38,1.21.24.98,1.07.98,1.72,0,5.8-.33,11.63.09,17.44.83,11.61.15,23.18.56,34.79.09,2.49.47,5,.44,7.55,0,.59-.18,1.18-.36,2.28-2.9-3.17-4.88-6.42-7.28-9.36-2.43-2.93-4.59-6.1-6.72-8.94"
          style="fill: rgb(29, 29, 27);"></path>
        <path class="cls-1"
          d="M454.08,148.67c1.12.68,2.16,1.21,3.08,1.89,2.72,2.01,5.36,4.14,8.11,6.16.86.62,1.92.95,2.84,1.48,1.12.68,2.34,1.39,2.28,2.61-3.46,5.83-6.72,11.4-10.07,16.9-3.35,5.51-6.81,10.98-10.15,16.34-.95.21-1.51-.03-1.45-.89.09-.98.38-1.92.47-2.9.38-3.94.53-7.9,1.18-11.78.47-2.81.24-5.6.5-8.38.38-3.82,1.07-7.64,1.51-11.46.3-2.4.44-4.83.62-7.25.09-1.18.06-1.21,1.04-2.78"
          style="fill: rgb(29, 29, 27);"></path>
        <path class="cls-1"
          d="M486.58,86.21c.15.21.36.36.36.47-.5,3.17-.98,6.37-1.51,9.53-.5,2.99-1.12,5.98-1.63,8.97-.62,3.52-1.01,7.11-1.78,10.6-1.15,5.15-2.52,10.27-3.85,15.36-.27,1.01-.74,1.95-1.27,3.23-1.66-1.89-2.52-3.91-3.4-5.8-1.45-3.11-2.84-6.25-3.94-9.47-1.01-2.96-1.6-6.04-2.28-9.12-.44-1.98.74-3.43,1.92-4.83,2.96-3.49,5.89-7.02,8.88-10.48,1.01-1.15,2.19-2.19,3.26-3.29,1.54-1.63,3.05-3.29,4.59-4.91.15-.18.44-.21.68-.3"
          style="fill: rgb(29, 29, 27);"></path>
        <path class="cls-1"
          d="M171.62,170.23c1.81,2.22,3.64,4.41,5.42,6.63,2.28,2.87,4.09,6.07,6.51,8.88,1.66,1.95,2.75,4.41,4.03,6.69,2.4,4.32,4.74,8.7,7.11,13.06,1.92,3.58,3.2,7.34,3.35,11.49.09,2.04.68,4.06.98,6.07.15,1.04.24,2.13-.33,3.49-.38-.5-.68-.77-.83-1.12-1.54-3.58-3.76-6.75-5.95-9.92-2.1-3.02-3.97-6.19-6.04-9.24-2.25-3.35-4.5-6.72-6.96-9.92-1.57-2.07-3.55-3.85-5.18-5.89-.83-1.01-1.95-2.37-1.81-3.4.18-1.24-.21-2.25-.27-3.37-.18-3.88-.38-7.76-.53-11.61v-1.6c.18-.09.36-.15.56-.24"
          style="fill: rgb(29, 29, 27);"></path>
        <path class="cls-1"
          d="M276.89,476.9v-13.03c0-1.81.21-3.58-.44-5.36-.3-.8-.06-1.81,0-2.69.09-1.1.21-2.19.33-3.26,2.19-2.04,4.47-4.14,6.78-6.28,2.9-2.66,5.74-5.42,8.73-7.96,2.16-1.87,4.56-3.49,6.81-5.27.92-.71,1.78-1.51,2.66-2.25.53-.44.56-.44,1.92,0-2.22,2.37-2.96,5.51-4.2,8.32-3.43,7.76-6.87,15.45-11.49,22.59-1.07,1.66-1.92,3.46-3.02,5.09-1.51,2.22-3.17,4.32-4.77,6.51-.47.65-.92,1.33-1.36,1.98-.44.62-.92,1.27-1.36,1.89-.21-.09-.38-.18-.59-.27"
          style="fill: rgb(29, 29, 27);"></path>
        <path class="cls-1"
          d="M23.45,117.65c-.06-.62-.27-1.24-.15-1.81.56-2.72.92-5.48,1.07-8.26.21-3.67.62-7.34,1.07-10.98.47-3.73.95-7.49,1.1-11.25.09-2.31.71-4.59.98-6.9.27-2.22.38-4.47.62-6.72.24-2.22.5-4.44.74-6.57.77-.47,1.24-.33,1.63.38,1.57,2.84,3.2,5.65,4.8,8.47,1.33,2.34,2.63,4.68,3.97,7.02.38.71.74,1.45,1.15,2.13.56.95.44,1.84-.03,2.81-4.03,8.17-7.96,16.37-12.05,24.51-1.27,2.55-2.87,4.88-4.32,7.34-.21-.06-.38-.12-.59-.18"
          style="fill: rgb(29, 29, 27);"></path>
        <path class="cls-1"
          d="M212.38,351.14c-.59.06-1.3.21-1.98.18-3.32-.21-6.69.53-10.01-.44-.44-.12-1.01.33-1.54.41-2.66.38-5.3.89-7.96,1.07-1.39.09-2.81-.41-4.32-.65-.36-1.45-.3-2.81,0-4.26,1.24-5.6,2.4-11.19,3.61-16.79.5-2.28,1.07-4.53,1.69-6.78.12-.44.65-.74,1.12-1.21,1.54,2.58,2.87,5.03,4.41,7.31,3.14,4.59,6.31,9.15,9.59,13.62,1.39,1.89,3.08,3.52,4.65,5.27.53.59,1.24,1.12.71,2.28"
          style="fill: rgb(29, 29, 27);"></path>
        <path class="cls-1"
          d="M309.31,240.36c-.15,1.21-.44,2.46-.47,3.67-.09,3.26-1.36,6.34-1.66,9.47-.38,4.09-1.6,7.87-2.63,11.78-.65,2.55-2.4,3.46-4.38,4.14-2.75.95-5.45,2.13-8.17,3.05-3.37,1.15-6.48,2.84-9.74,4.17-.86.36-1.63.74-2.61,0,4.71-8.08,10.92-15.01,16.7-22.26,3.91-4.91,7.43-10.27,12.37-14.33,0,0,.59.3.59.3Z"
          style="fill: rgb(29, 29, 27);"></path>
        <path class="cls-1"
          d="M158.5,348.74c-.62.33-1.33.44-1.69.89-1.04,1.3-2.58,1.45-3.91,1.57-4.38.44-8.79.95-13.23.62-.89-.06-1.75-.38-2.63-.5-3.79-.56-7.61-1.07-11.4-1.69-.86-.15-1.66-.71-2.49-.98-3.73-1.15-7.52-2.19-11.22-3.37-1.27-.41-2.52-1.01-3.7-1.66-1.95-1.07-3.85-2.22-5.62-3.76.74,0,1.6-.24,2.25.06,1.24.53,2.63.65,3.85,1.12,2.19.86,4.41.74,6.66.89,2.93.21,5.86.65,8.79.98.71.09,1.45.09,2.16.09,3.17,0,6.37-.06,9.53.03,2.16.06,4.29.3,6.42.59,3.26.44,6.54.95,9.77,1.6,2.46.5,4.88,1.27,6.45,3.55"
          style="fill: rgb(29, 29, 27);"></path>
        <path class="cls-1"
          d="M232.04,489.51c-.18-2.34-.27-4.2-.47-6.04-.3-2.75-.56-5.51-1.1-8.2-.74-3.97-.41-7.93-.53-11.9,0-.89-.24-1.78-.33-2.66-.09-.95-.12-1.92-.18-2.93,2.22-.56,3.82-.3,5.33,1.36,2.49,2.72,5.12,5.3,7.25,8.35,1.07,1.54,2.49,2.84,3.67,4.32.59.74,1.01,1.66,1.57,2.61-1.54,1.18-2.99,2.1-4.17,3.29-1.72,1.72-3.23,3.64-4.8,5.51-1.51,1.78-2.99,3.61-4.56,5.36-.36.41-1.04.56-1.72.95"
          style="fill: rgb(29, 29, 27);"></path>
        <path class="cls-1"
          d="M236.07,493.39c1.24-2.52,5.54-6.66,16.02-15.54.24.12.62.18.83.41,2.52,3.02,5.62,5.51,7.67,8.94.59,1.04,1.66,1.78,2.55,2.63.44.44.98.8,1.42,1.12-.18.5-.21.92-.38.98-1.75.59-3.52,1.6-5.3,1.63-7.08.18-14.15.09-21.26.06-.5,0-1.01-.18-1.54-.27"
          style="fill: rgb(29, 29, 27);"></path>
        <path class="cls-1"
          d="M332.25,354.1c1.51-1.3,2.9-1.6,4.32-1.84,3.08-.53,6.16-1.1,9.24-1.6.62-.09,1.27,0,1.89-.06,1.42-.15,2.84-.36,4.26-.53,1.6-.18,3.2-.36,4.8-.56.98-.12,1.92-.38,2.9-.53,3.46-.53,6.81-1.33,10.15-2.43,1.87-.62,4.09-.12,6.39-.12-.56.65-.95,1.24-1.48,1.69-2.61,2.22-5.24,4.38-7.85,6.57-.06.06-.12.15-.21.18-1.87.44-3.73,1.21-5.62,1.27-5.18.18-10.36.09-15.51.03-1.07,0-2.1-.36-3.17-.5-2.93-.38-5.86-.74-8.79-1.12-.33-.03-.62-.21-1.33-.44"
          style="fill: rgb(29, 29, 27);"></path>
        <path class="cls-1"
          d="M344.36,160.4c-3.97,7.67-6.42,15.6-9.8,23.24-2.66-9.8-4.06-19.75-6.07-30.11,5.68,2.4,10.04,6.37,15.84,6.84"
          style="fill: rgb(29, 29, 27);"></path>
        <path class="cls-1"
          d="M239.98,455.2c.98-.36,1.51-.74,1.95-.65,4.38.71,8.82.59,13.2.92,3.35.27,6.66.36,10.01.44.24,0,.47.15,1.01.33-2.58,2.4-4.68,4.97-7.37,7.02-1.87,1.39-3.58,3.02-5.3,4.59-.89.83-1.69,1.01-2.58.09-1.51-1.51-3.14-2.93-4.53-4.59-2.13-2.52-4.09-5.21-6.39-8.17"
          style="fill: rgb(29, 29, 27);"></path>
        <path class="cls-1"
          d="M267.92,485.4c-3.67-4-6.99-7.58-10.39-11.25.38-.56.83-1.33-.21-2.1,1.75-1.6,3.49-3.11,5.15-4.71,1.92-1.89,3.82-3.82,5.6-5.83.68-.8,1.3-.77,2.19-.5-.5,3.32-.09,6.63-.3,9.95-.3,4.65-.65,9.27-2.01,14.45"
          style="fill: rgb(29, 29, 27);"></path>
        <path class="cls-1"
          d="M438.95,94.32c-3.02-1.21-4.8-3.37-6.45-5.57-3.55-4.77-7.02-9.59-11.63-13.71.47-.36.83-.89,1.1-.83,2.63.53,5.3.89,7.99,1.04,1.72.09,3.43.89,5.62,1.48,1.21,2.28.83,5.45,1.69,8.35.86,2.87,1.1,5.92,1.69,9.21"
          style="fill: rgb(29, 29, 27);"></path>
      </g>
    </g>
  </g>
</svg>