<?xml version="1.0" encoding="UTF-8"?>
<svg id="Calque_1" data-name="Calque 1" xmlns="http://www.w3.org/2000/svg" viewBox="0 0 180.22 281.6">
  <path d="M1.36,98.55h177.34c.75,0,1.36-.61,1.36-1.36s-.61-1.36-1.36-1.36h-54.22c.2-.24.33-.54.33-.88,0-2.07-.19-4.09-.53-6.06l29.32-5.17c.74-.13,1.23-.84,1.1-1.58-.13-.74-.84-1.23-1.58-1.1l-29.41,5.19c-.75-2.93-1.87-5.71-3.3-8.3l33.62-19.41c.65-.38.87-1.21.5-1.86-.37-.65-1.21-.87-1.86-.5l-33.67,19.44c-1.77-2.69-3.9-5.12-6.31-7.23l22.83-27.2c.48-.58.41-1.43-.17-1.92-.58-.48-1.43-.41-1.92.17l-22.85,27.23c-2.56-1.91-5.4-3.48-8.43-4.65l13.9-38.2c.26-.71-.11-1.49-.81-1.74-.71-.26-1.49.11-1.74.81l-13.92,38.25c-2.87-.86-5.89-1.35-9.01-1.44V1.36c0-.75-.61-1.36-1.36-1.36s-1.36.61-1.36,1.36v58.34c-3.1.14-6.1.69-8.95,1.59l-13.98-38.41c-.26-.71-1.04-1.07-1.74-.81-.71.26-1.07,1.04-.81,1.74l13.98,38.41c-2.98,1.2-5.75,2.8-8.27,4.72l-23.09-27.52c-.48-.58-1.34-.65-1.92-.17-.58.48-.65,1.34-.17,1.92l23.08,27.5c-2.35,2.1-4.41,4.52-6.13,7.18l-34.11-19.7c-.65-.38-1.48-.15-1.86.5-.38.65-.15,1.48.5,1.86l34.08,19.68c-1.38,2.54-2.45,5.27-3.17,8.14l-29.99-5.29c-.74-.13-1.44.36-1.58,1.1-.13.74.36,1.44,1.1,1.58l29.91,5.27c-.33,1.94-.51,3.93-.51,5.96,0,.34.13.64.33.88H1.36c-.75,0-1.36.61-1.36,1.36s.61,1.36,1.36,1.36ZM56.94,94.95c0-17.96,14.61-32.57,32.57-32.57,15.36,0,28.26,10.69,31.68,25.02-.07.21-.09.43-.05.66.05.27.17.5.35.69.39,2.01.6,4.08.6,6.2,0,.34.13.64.33.88H56.61c.2-.24.33-.54.33-.88Z"/>
  <path d="M94.52,103.89c0-.75-.61-1.36-1.36-1.36H1.53c-.75,0-1.36.61-1.36,1.36s.61,1.36,1.36,1.36h91.63c.75,0,1.36-.61,1.36-1.36Z"/>
  <path d="M178.86,102.53h-72.24c-.75,0-1.36.61-1.36,1.36s.61,1.36,1.36,1.36h72.24c.75,0,1.36-.61,1.36-1.36s-.61-1.36-1.36-1.36Z"/>
  <path d="M178.86,109.31h-92.41c-.75,0-1.36.61-1.36,1.36s.61,1.36,1.36,1.36h92.41c.75,0,1.36-.61,1.36-1.36s-.61-1.36-1.36-1.36Z"/>
  <path d="M74.22,110.7c0-.75-.61-1.36-1.36-1.36H1.53c-.75,0-1.36.61-1.36,1.36s.61,1.36,1.36,1.36h71.34c.75,0,1.36-.61,1.36-1.36Z"/>
  <path d="M52.26,116.26H1.53c-.75,0-1.36.61-1.36,1.36s.61,1.36,1.36,1.36h50.74c.75,0,1.36-.61,1.36-1.36s-.61-1.36-1.36-1.36Z"/>
  <path d="M178.86,116.26h-111.47c-.75,0-1.36.61-1.36,1.36s.61,1.36,1.36,1.36h111.47c.75,0,1.36-.61,1.36-1.36s-.61-1.36-1.36-1.36Z"/>
  <path d="M.17,124.56c0,.75.61,1.36,1.36,1.36h86.39c.75,0,1.36-.61,1.36-1.36s-.61-1.36-1.36-1.36H1.53c-.75,0-1.36.61-1.36,1.36Z"/>
  <path d="M178.86,123.2h-78.44c-.75,0-1.36.61-1.36,1.36s.61,1.36,1.36,1.36h78.44c.75,0,1.36-.61,1.36-1.36s-.61-1.36-1.36-1.36Z"/>
  <path d="M60.04,130.13H1.53c-.75,0-1.36.61-1.36,1.36s.61,1.36,1.36,1.36h58.52c.75,0,1.36-.61,1.36-1.36s-.61-1.36-1.36-1.36Z"/>
  <path d="M178.86,130.13h-107.46c-.75,0-1.36.61-1.36,1.36s.61,1.36,1.36,1.36h107.46c.75,0,1.36-.61,1.36-1.36s-.61-1.36-1.36-1.36Z"/>
  <path d="M7.3,145.59c.45,0,.84.08,1.15.22l1.08-2.09c-.84-.36-1.61-.53-2.56-.53-3.33,0-6.19,2.81-6.19,10.57s2.85,10.57,6.19,10.57c.95,0,1.71-.17,2.56-.53l-1.08-2.09c-.31.14-.7.22-1.15.22-1.92,0-4.01-2.19-4.01-8.17s2.09-8.17,4.01-8.17Z"/>
  <polygon points="30.37 154.89 25.81 154.89 25.81 143.43 23.4 143.43 23.4 164.09 25.81 164.09 25.81 157.18 30.37 157.18 30.37 164.09 32.78 164.09 32.78 143.43 30.37 143.43 30.37 154.89"/>
  <rect x="47.82" y="143.43" width="2.41" height="20.66"/>
  <polygon points="73.02 161.83 67.69 161.83 67.69 143.43 65.27 143.43 65.27 164.09 73.02 164.09 73.02 161.83"/>
  <polygon points="86.24 143.43 86.24 164.09 93.99 164.09 93.99 161.83 88.66 161.83 88.66 143.43 86.24 143.43"/>
  <path d="M127,143.19c-2.46,0-5.63,2-5.63,10.57s3.17,10.57,5.63,10.57,5.63-2,5.63-10.57-3.17-10.57-5.63-10.57ZM127,161.95c-1.45,0-3.13-1.89-3.13-8.18s1.67-8.18,3.13-8.18,3.13,1.89,3.13,8.18-1.67,8.18-3.13,8.18Z"/>
  <path d="M153.93,158.05c0,2.87-.89,3.9-2.45,3.9s-2.45-1.04-2.45-3.9v-14.62h-2.41v14.92c0,4.18,1.82,5.99,4.86,5.99s4.86-1.82,4.86-5.99v-14.92h-2.41v14.62Z"/>
  <polygon points="170.08 145.71 173.32 145.71 173.32 164.09 175.73 164.09 175.73 145.71 178.98 145.71 178.98 143.43 170.08 143.43 170.08 145.71"/>
  <path d="M73.21,267.93h-3.22v13.68h3.09c1.58,0,2.8-.48,3.68-1.45s1.31-2.3,1.31-4.02v-2.86c-.02-1.67-.47-2.97-1.33-3.92-.86-.95-2.04-1.42-3.52-1.42ZM77,276.24c-.02,1.4-.36,2.48-1.03,3.24s-1.62,1.13-2.84,1.13h-2.08v-11.67h2.12c1.24,0,2.19.39,2.84,1.16.65.78.98,1.87.98,3.27v2.87Z"/>
  <path d="M89.69,267.93l-4.36,13.68h1.12l1.16-3.82h5.13l1.18,3.82h1.12l-4.36-13.68h-1ZM87.92,276.78l2.25-7.34,2.25,7.34h-4.51Z"/>
  <polygon points="105.36 275.37 101.97 267.93 100.71 267.93 104.81 276.46 104.81 281.6 105.88 281.6 105.88 276.46 110 267.93 108.77 267.93 105.36 275.37"/>
  <path d="M87.26,232.45c-.14-.03-.3-.01-.44,0-1.06.07-2.11.23-3.14.49-4.03,1.01-7.08,3.32-9.22,6.86-1.06,1.75-1.65,3.67-1.96,5.69-.09.62-.12,1.23-.11,1.85,0,.32.33.48.58.33.17-.1.16-.29.17-.46.02-.51,0-1.03.08-1.53.25-1.74.78-3.4,1.54-4.98.14-.29.24-.78.59-1l1.34-1.33c.06-.12.4-.27.55-.3.06.19,0,.3-.06.41-.48,1.08-.76,2.2-.85,3.38-.04.53-.1,1.06-.11,1.59,0,.23.12.4.38.44.31.04.33-.21.39-.4.03-.12.02-.26,0-.38-.03-.71.1-1.4.22-2.09.26-1.59.89-3.06,1.6-4.49.09-.18,1.35-1.46,1.58-1.51l.04-.04c.06-.14.21-.19.37-.12.21.09.06.25,0,.38-.58,1.38-.67,2.84-.72,4.31,0,.06,0,.13.01.19.04.2.17.28.37.28.2,0,.33-.09.36-.29.02-.15.01-.3.01-.45,0-1.62.37-3.17.94-4.67.08-.21,1.54-.8,1.74-.9l.19-.06c.29-.09.39-.03.36.28-.02.21-.08.42-.09.63-.03.42-.06.85-.06,1.27,0,.27.2.34.45.35.25.01.27-.19.3-.33.04-.18.02-.38.02-.57,0-.45.02-.89.12-1.33.12-.5.15-.51.67-.59.57-.08,1.14-.15,1.72-.12.23.01.44-.05.46-.33.02-.27-.18-.37-.39-.43Z"/>
  <path d="M108.85,232.66c-3.07-3.22-6.82-4.76-11.3-4.33-1.45.14-2.83.53-4.16,1.12-.1.04-.21.06-.29.12-.16.14-.25.29-.04.48.18.16.33.21.57.1.48-.22.98-.39,1.47-.6.28-.12.48-.08.64.19.24.4.53.78.7,1.22.06.16.13.31.26.43.19.18.38.17.53-.04.11-.16.08-.32,0-.48-.23-.43-.42-.89-.71-1.28-.08-.1-.18-.22-.06-.34l.23-.2c.16-.16,1.62-.04,1.75.07.06.06.12.12.18.18,1,.98,1.8,2.1,2.44,3.34.08.15.17.3.26.44.08.12.2.17.33.1.11-.06.22-.13.24-.28.02-.16-.02-.3-.09-.43-.21-.4-.4-.8-.64-1.18-.41-.65-.87-1.26-1.41-1.81-.13-.13-.32-.27-.23-.55.11.06,1.68.46,1.75.52l.07.03c1.19.98,2.88,2.49,3.73,3.78.29.45.5.94.78,1.39.1.17.21.27.41.2.2-.08.3-.23.25-.46-.02-.08-.06-.16-.1-.24-.43-.91-.94-1.76-1.62-2.51-.32-.35-.63-.71-.96-1.09.11-.02.16-.05.18-.04l.05-.04c.24-.02,2.39.91,2.5,1,.66.54,1.26,1.15,1.83,1.79.8.89,1.47,1.87,1.98,2.96.1.21.27.44.55.26.24-.14.23-.35.11-.61-.58-1.17-1.27-2.28-2.17-3.22Z"/>
  <path d="M71.1,262.88c-.03.26.13.37.67.39.23,0,.47,0,.71,0,11.7,0,23.39,0,35.09,0,.27,0,.55,0,.82,0,.51-.01.5-.18.51-.35.01-.17-.17-.27-.56-.27-.51,0-1.02.03-1.53.03-5.57,0-11.15,0-16.72,0v-.03c-6.08,0-12.16,0-18.24,0-.37,0-.71,0-.75.23Z"/>
  <path d="M89.65,258.86s0,0,0,0c-.53,0-1.07.01-1.6,0-.26,0-.48.01-.54.31-.04.21.2.4.53.43.06,0,.13,0,.19,0,.59-.03,1.19.01,1.77-.03.43-.03.83.08,1.25.04.35-.04.57-.2.53-.43-.05-.31-.29-.32-.54-.32-.53,0-1.07,0-1.6,0Z"/>
  <path d="M87.89,255.35c.12.04.25.04.38.04.47,0,.94,0,1.4,0h0c.53,0,1.06.01,1.6,0,.18,0,.32-.07.35-.29.03-.24-.09-.36-.29-.42-.1-.03-.21-.02-.32-.02-.92,0-1.83,0-2.75,0-.12,0-.25.02-.37.05-.16.04-.27.14-.26.32,0,.17.12.27.27.32Z"/>
  <path d="M87.68,252.98c0,.26.28.28.48.33.12.03.25.01.38.01.38,0,.77,0,1.15,0,.49,0,.98,0,1.47,0,.23,0,.44-.09.46-.34.01-.26-.2-.36-.43-.36-1,0-2,0-3,0-.24,0-.51.08-.5.37Z"/>
  <path d="M91.21,256.8c-.51.02-1.02,0-1.54,0h-1.35c-.09,0-.17,0-.26,0-.27-.03-.51.06-.5.34,0,.23.23.32.48.31,1.07-.01,2.14-.01,3.2,0,.25,0,.47-.08.47-.32,0-.28-.24-.35-.51-.34Z"/>
  <path d="M88.28,244.97c.1.02.21,0,.32,0,.36,0,.72,0,1.09,0,.43,0,.85,0,1.28,0,.21,0,.38-.07.4-.31.03-.29-.18-.35-.39-.4-.04,0-.08,0-.13,0-.81,0-1.62,0-2.43,0-.04,0-.09,0-.13,0-.2.05-.37.16-.36.38,0,.19.17.28.35.32Z"/>
  <path d="M88.23,246.93c.19,0,.38.06.56.09.76.1,1.53.03,2.3.04.17,0,.28-.11.31-.27.03-.18-.04-.32-.23-.4-.14-.06-.29-.06-.44-.06-.36,0-.72,0-1.09,0,0,0,0,0,0,0-.38,0-.77,0-1.15,0-.1,0-.21,0-.31.03-.17.05-.31.15-.28.36.03.2.18.22.33.21Z"/>
  <path d="M87.77,250.83s.01.04.02.06c0,.06.02.13.05.18.03.06.08.1.15.13.07.04.15.06.24.05.24-.01.48.03.71-.03h2.18s.03,0,.04.01c.02,0,.04,0,.06-.01.2,0,.31-.17.32-.33,0,0,0,0,0-.01,0-.07-.01-.13-.04-.18-.05-.1-.15-.17-.29-.17h-2.91s-.03,0-.04,0c-.23-.01-.44.02-.48.3Z"/>
  <path d="M87.89,248.99c.05.08.13.13.2.15.03,0,.06.01.1.01h2.74s.04,0,.06.01c.08.02.16.01.24-.02.39-.06.37-.69-.06-.69h-2.98c-.11,0-.2.04-.25.11-.11.1-.14.27-.05.42Z"/>
  <path d="M88.57,236.64c.72,0,1.45,0,2.17,0,.24,0,.43-.08.41-.36-.01-.27-.18-.36-.43-.35-.34,0-.68,0-1.02,0h0c-.38,0-.77,0-1.15,0-.23,0-.43.09-.42.37,0,.29.23.34.44.34Z"/>
  <path d="M88,242.53c-.01.21.22.41.49.37.78-.12,1.55-.1,2.33-.01.19.02.44,0,.46-.3.01-.28-.16-.37-.4-.37-.4,0-.81,0-1.21,0-.4,0-.81,0-1.21,0-.22,0-.44.02-.45.32Z"/>
  <path d="M88.05,240.43c-.01.29.17.35.41.35.78,0,1.57,0,2.35,0,.24,0,.46-.05.45-.32,0-.25-.22-.34-.46-.33-.38,0-.76,0-1.14,0h0c-.4,0-.8,0-1.21,0-.2,0-.39.04-.41.3Z"/>
  <path d="M88.5,238.72c.38,0,.77,0,1.15,0,.38,0,.77,0,1.15,0,.26,0,.41-.13.4-.37,0-.22-.19-.31-.4-.31-.76,0-1.53.01-2.29.01-.21,0-.4.04-.4.29,0,.25.14.38.4.37Z"/>
  <path d="M105.55,239.73c-2.14-3.54-5.19-5.85-9.22-6.86-1.03-.26-2.08-.42-3.14-.49-.15-.01-.31-.03-.44,0-.21.05-.41.16-.39.43.02.28.22.34.46.33.58-.03,1.15.04,1.72.12.52.08.55.09.67.59.1.44.13.88.12,1.33,0,.19-.02.39.02.57.03.15.05.35.3.33.24-.01.44-.08.45-.35,0-.42-.03-.85-.06-1.27-.02-.21-.07-.42-.09-.63-.03-.3.06-.37.36-.28l.19.06c.2.1,1.66.7,1.74.9.57,1.51.93,3.05.94,4.67,0,.15,0,.3.01.45.03.2.16.29.36.29.2,0,.33-.08.37-.28.01-.06.01-.13.01-.19-.05-1.47-.14-2.93-.72-4.31-.05-.12-.21-.29,0-.38.17-.07.31-.01.37.12l.04.04c.23.05,1.49,1.33,1.58,1.51.71,1.43,1.34,2.9,1.6,4.49.12.69.25,1.38.22,2.09,0,.13-.02.26,0,.38.05.19.08.44.39.4.26-.03.39-.21.38-.44-.02-.53-.08-1.06-.11-1.59-.09-1.17-.37-2.3-.85-3.38-.05-.11-.12-.23-.06-.41.15.04.48.18.55.3l1.34,1.33c.35.22.45.72.59,1,.76,1.58,1.3,3.24,1.54,4.98.07.5.05,1.02.08,1.53,0,.17,0,.35.17.46.26.15.57-.01.58-.33.01-.62-.01-1.23-.11-1.85-.31-2.02-.9-3.94-1.96-5.69Z"/>
  <path d="M73.45,231.52c.11-.09,2.27-1.02,2.5-1l.05.04s.08.01.18.04c-.33.38-.65.74-.96,1.09-.68.75-1.19,1.61-1.62,2.51-.04.08-.08.15-.1.24-.05.22.04.38.25.46.2.07.31-.03.41-.2.28-.45.48-.95.78-1.39.85-1.29,2.54-2.8,3.73-3.78l.07-.03c.06-.05,1.64-.45,1.75-.52.09.28-.1.41-.23.55-.54.55-1.01,1.16-1.41,1.81-.24.38-.43.78-.64,1.18-.07.13-.11.28-.09.43.02.15.13.22.24.28.13.07.26.01.33-.1.1-.14.18-.29.26-.44.64-1.24,1.44-2.36,2.44-3.34.06-.06.12-.12.18-.18.13-.11,1.58-.23,1.75-.07l.23.2c.11.12.02.23-.06.34-.29.4-.48.85-.71,1.28-.09.16-.12.32,0,.48.15.21.34.23.53.04.12-.12.19-.27.26-.43.17-.44.46-.82.7-1.22.16-.27.36-.32.64-.19.49.21.99.38,1.47.6.14.07.26.06.37.02-.02.03-.03.05-.05.08.05.07.07.16.05.29-.18,1.11.86,1.97,1.93,1.62.14-.05.28-.24.5-.05-.28.45-.23.89.04,1.34.2.33.14.39-.23.37-.09,0-.17-.03-.25-.04-.32,0-.55.16-.56.39,0,.32.28.32.45.34.47.05.94.02,1.41.03.51,0,.93-.02,1.35-.49.8-.89.93-1.43.23-2.4-.15-.2-.13-.3.07-.46.66-.54.79-1.09.46-1.86-.1-.24-.11-.36.13-.51.42-.26.71-.61.69-1.14,0-.09.02-.17.05-.25-.01-.08-.05-.16-.07-.23.09-.02.17-.06.25-.16.27-.35.58-.68.87-1.03.16-.2.33-.25.56-.11.34.21.7.38,1.01.64.11.1.22.18.36.23.21.07.35-.02.38-.24.02-.17-.06-.27-.19-.36-.34-.23-.66-.5-1.04-.68-.1-.05-.22-.1-.18-.23l.1-.24c.06-.19,1.2-.67,1.34-.63.07.02.14.04.21.06,1.13.34,2.18.87,3.15,1.55.12.08.24.16.37.23.11.06.22.05.29-.06.06-.09.12-.18.07-.3-.05-.13-.13-.22-.24-.29-.31-.22-.62-.44-.94-.64-.56-.33-1.15-.61-1.77-.8-.15-.05-.34-.08-.39-.32.11,0,1.45-.31,1.52-.3h.06c1.28.26,3.14.73,4.29,1.37.4.22.74.51,1.13.74.14.09.27.12.39-.01.12-.14.13-.29,0-.44-.05-.05-.11-.1-.16-.14-.68-.51-1.4-.95-2.21-1.25-.38-.14-.75-.29-1.15-.44.07-.06.1-.1.12-.1l.02-.05c.17-.11,2.16-.26,2.28-.23.71.15,1.4.37,2.08.63.95.36,1.84.83,2.65,1.45.16.12.37.22.52-.02.12-.2.04-.35-.16-.5-.9-.65-1.85-1.22-2.9-1.57-3.58-1.22-7-.9-10.2,1.18-1.04.67-1.92,1.51-2.69,2.48-.01.01-.03.03-.04.04-.04-.06-.07-.14-.13-.19-.05-.02-.11-.06-.18-.12-.41-.34-.89-.51-1.42-.27-.27.12-.53.28-.7.53-.14.21-.27.2-.47.04-.79-.63-1.31-.66-2.04-.05-.07.06-.14.1-.19.12,0,.11-.05.22-.15.32-.01,0-.02.02-.03.03-.04-.07-.1-.12-.15-.18-.77-.97-1.65-1.8-2.69-2.48-3.21-2.08-6.62-2.4-10.2-1.18-1.04.35-2,.92-2.9,1.57-.2.14-.28.3-.16.5.15.24.36.14.52.02.81-.62,1.7-1.09,2.65-1.45.68-.25,1.37-.48,2.08-.63.12-.02,2.1.13,2.28.23l.02.05s.05.04.12.1c-.4.15-.77.3-1.15.44-.8.3-1.52.74-2.21,1.25-.06.04-.12.09-.16.14-.13.15-.11.3,0,.44.12.13.24.1.39.01.39-.23.73-.52,1.13-.74,1.15-.64,3.01-1.1,4.29-1.38h.06c.07,0,1.41.31,1.52.31-.05.25-.24.27-.39.32-.62.2-1.21.47-1.77.8-.33.19-.63.42-.94.64-.11.07-.19.16-.24.29-.04.12,0,.21.07.3.07.1.19.11.29.06.13-.07.25-.14.37-.23.97-.69,2.01-1.21,3.15-1.55.07-.02.14-.05.21-.06.14-.04,1.28.44,1.34.63l.1.24c.04.13-.08.18-.18.23-.38.18-.7.45-1.04.68-.13.09-.21.19-.19.36.03.22.17.3.38.24.14-.04.25-.13.36-.23.3-.26.67-.43,1.01-.64.23-.14.4-.1.56.11.28.35.59.68.87,1.03.12.15.24.18.4.15,0,.02-.02.04-.02.06.07.1.11.22.11.37,0,.43.18.78.58.99.1.05.18.12.15.28-.29.07-.59.17-.81.43-.05.06-.12.09-.18.09,0,0,0,0,0,0,0,0,0,.01-.01.02-.03-.05-.07-.09-.11-.13-.08-.06-.19-.08-.29-.12-1.33-.59-2.71-.98-4.16-1.12-4.49-.43-8.23,1.11-11.3,4.33-.9.94-1.59,2.05-2.17,3.22-.13.26-.13.46.11.61.29.17.45-.06.55-.26.51-1.09,1.18-2.07,1.98-2.96.57-.64,1.17-1.25,1.83-1.79ZM90.55,233.5c-.49,0-.8-.26-.81-.69,0-.38.42-.86.78-.88.38-.02.82.43.82.83,0,.4-.36.73-.78.74ZM91.44,226.76c.39-.01.81.36.83.74.03.4-.37.81-.79.86-.38.04-.77-.38-.83-.75-.06-.37.4-.85.79-.86ZM90.76,229.23c.42,0,.85.4.83.79-.01.4-.44.79-.85.78-.39,0-.79-.41-.77-.78.01-.35.45-.79.79-.79ZM87.95,227.82c-.02-.34.46-.86.81-.87.39-.02.78.37.78.76,0,.44-.37.86-.77.87-.34.01-.8-.42-.82-.76ZM88.21,229.97c.37,0,.8.41.81.77,0,.39-.42.83-.82.83-.36,0-.8-.42-.81-.77-.02-.36.45-.83.82-.83Z"/>
  <path d="M78.93,216.99c-.07,0-.15-.01-.22.01-.14.05-.23.13-.14.3.08.15.17.21.35.2.36-.03.73-.03,1.09-.06.21-.01.33.06.38.27.06.32.16.63.18.95,0,.12.01.23.07.34.08.16.21.2.35.09.11-.08.12-.19.11-.31-.05-.33-.07-.67-.17-1-.03-.09-.06-.19.04-.23l.2-.08c.15-.07,1.06.34,1.12.45.03.05.05.11.08.16.42.87.69,1.78.82,2.74.02.12.04.23.07.34.03.09.09.16.19.14.09-.01.17-.03.22-.12.05-.1.06-.2.04-.3-.04-.31-.08-.61-.14-.91-.11-.52-.28-1.02-.5-1.5-.06-.12-.15-.25-.03-.41.05.07.99.69,1.02.74l.04.03c.55.91,1.3,2.28,1.56,3.32.09.36.11.73.18,1.09.03.13.08.23.22.22.15,0,.25-.08.27-.24,0-.06,0-.12,0-.18-.07-.69-.21-1.37-.48-2.01-.13-.3-.25-.61-.38-.93.07,0,.12,0,.13.02l.04-.02c.16.04,1.35,1.14,1.4,1.23.31.51.55,1.04.78,1.59.32.76.52,1.56.61,2.38.02.16.07.35.3.3.19-.04.23-.17.21-.37-.11-.9-.3-1.78-.67-2.6-1.26-2.81-3.34-4.67-6.36-5.42-.98-.24-1.97-.31-2.97-.23Z"/>
  <path d="M98.81,218.93c-.02.13,0,.23.11.31.14.1.27.07.35-.09.05-.11.06-.22.07-.34.01-.33.11-.64.18-.95.04-.21.16-.29.38-.27.36.03.73.02,1.09.06.18.02.27-.05.35-.2.09-.17,0-.25-.14-.3-.06-.02-.14,0-.22-.01-1-.08-1.99-.02-2.97.23-3.02.76-5.1,2.62-6.36,5.42-.37.82-.56,1.7-.67,2.6-.02.2.02.33.21.37.23.05.28-.14.3-.3.08-.83.29-1.62.61-2.38.22-.54.47-1.08.78-1.59.05-.09,1.24-1.18,1.4-1.23l.04.02s.05,0,.13-.02c-.13.32-.25.63-.38.93-.27.64-.4,1.32-.48,2.01,0,.06-.02.12,0,.18.02.16.12.24.27.24.14,0,.19-.09.22-.22.08-.36.1-.73.18-1.09.26-1.04,1.01-2.41,1.56-3.32l.04-.03s.96-.67,1.02-.74c.12.16.03.29-.03.41-.23.48-.39.98-.5,1.5-.07.3-.1.61-.14.91-.02.1,0,.21.04.3.05.09.13.11.22.12.1.01.17-.05.19-.14.03-.11.05-.23.07-.34.13-.96.4-1.87.82-2.74.03-.05.05-.11.08-.16.06-.1.98-.52,1.12-.45l.2.08c.1.05.06.15.04.23-.1.33-.12.66-.17,1Z"/>
</svg>