<svg xmlns="http://www.w3.org/2000/svg" viewBox="0 0 840 1680" width="840px" height="1680px">
  <defs></defs>
  <g id="Calque_2" transform="matrix(1.007003, 0, 0, 0.991583, 115.244789, 241.496521)" style="">
    <g id="Calque_1-2" data-name="Calque 1" transform="matrix(1, 0, 0, 1, 59.879753, 456.8255)">
      <g>
        <path class="cls-1"
          d="M3.7,267.86h482.01c2.04,0,3.7-1.66,3.7-3.7s-1.66-3.7-3.7-3.7h-147.37c.54-.65.9-1.47.9-2.39,0-5.63-.52-11.12-1.44-16.47l79.69-14.05c2.01-.35,3.34-2.28,2.99-4.29-.35-2.01-2.28-3.34-4.29-2.99l-79.94,14.11c-2.04-7.96-5.08-15.52-8.97-22.56l91.38-52.76c1.77-1.03,2.36-3.29,1.36-5.06-1.01-1.77-3.29-2.36-5.06-1.36l-91.52,52.84c-4.81-7.31-10.6-13.92-17.15-19.65l62.05-73.93c1.3-1.58,1.11-3.89-.46-5.22-1.58-1.3-3.89-1.11-5.22.46l-62.11,74.01c-6.96-5.19-14.68-9.46-22.91-12.64l37.78-103.83c.71-1.93-.3-4.05-2.2-4.73-1.93-.71-4.05.3-4.73,2.2l-37.83,103.96c-7.8-2.34-16.01-3.67-24.49-3.91V3.7c0-2.04-1.66-3.7-3.7-3.7s-3.7,1.66-3.7,3.7v158.57c-8.43.38-16.58,1.88-24.33,4.32l-38-104.4c-.71-1.93-2.83-2.91-4.73-2.2-1.93.71-2.91,2.83-2.2,4.73l38,104.4c-8.1,3.26-15.63,7.61-22.48,12.83l-62.76-74.8c-1.3-1.58-3.64-1.77-5.22-.46-1.58,1.3-1.77,3.64-.46,5.22l62.73,74.75c-6.39,5.71-11.99,12.29-16.66,19.52l-92.71-53.54c-1.77-1.03-4.02-.41-5.06,1.36-1.03,1.77-.41,4.02,1.36,5.06l92.63,53.49c-3.75,6.9-6.66,14.32-8.62,22.12l-81.51-14.38c-2.01-.35-3.91.98-4.29,2.99-.35,2.01.98,3.91,2.99,4.29l81.3,14.32c-.9,5.27-1.39,10.68-1.39,16.2,0,.92.35,1.74.9,2.39H3.7c-2.04,0-3.7,1.66-3.7,3.7s1.66,3.7,3.7,3.7ZM154.76,258.08c0-48.82,39.71-88.53,88.53-88.53,41.75,0,76.81,29.06,86.11,68-.19.57-.24,1.17-.14,1.79.14.73.46,1.36.95,1.88,1.06,5.46,1.63,11.09,1.63,16.85,0,.92.35,1.74.9,2.39h-178.87c.54-.65.9-1.47.9-2.39Z"
          style="fill: rgb(29, 29, 27);"></path>
        <path class="cls-1"
          d="M256.91,282.38c0-2.04-1.66-3.7-3.7-3.7H4.16c-2.04,0-3.7,1.66-3.7,3.7s1.66,3.7,3.7,3.7h249.05c2.04,0,3.7-1.66,3.7-3.7Z"
          style="fill: rgb(29, 29, 27);"></path>
        <path class="cls-1"
          d="M486.14,278.68h-196.35c-2.04,0-3.7,1.66-3.7,3.7s1.66,3.7,3.7,3.7h196.35c2.04,0,3.7-1.66,3.7-3.7s-1.66-3.7-3.7-3.7Z"
          style="fill: rgb(29, 29, 27);"></path>
        <path class="cls-1"
          d="M486.14,297.11h-251.17c-2.04,0-3.7,1.66-3.7,3.7s1.66,3.7,3.7,3.7h251.17c2.04,0,3.7-1.66,3.7-3.7s-1.66-3.7-3.7-3.7Z"
          style="fill: rgb(29, 29, 27);"></path>
        <path class="cls-1"
          d="M201.73,300.88c0-2.04-1.66-3.7-3.7-3.7H4.16c-2.04,0-3.7,1.66-3.7,3.7s1.66,3.7,3.7,3.7h193.9c2.04,0,3.7-1.66,3.7-3.7h-.03Z"
          style="fill: rgb(29, 29, 27);"></path>
        <path class="cls-1"
          d="M142.04,316H4.16c-2.04,0-3.7,1.66-3.7,3.7s1.66,3.7,3.7,3.7h137.91c2.04,0,3.7-1.66,3.7-3.7s-1.66-3.7-3.7-3.7h-.03Z"
          style="fill: rgb(29, 29, 27);"></path>
        <path class="cls-1"
          d="M486.14,316H183.17c-2.04,0-3.7,1.66-3.7,3.7s1.66,3.7,3.7,3.7h302.98c2.04,0,3.7-1.66,3.7-3.7s-1.66-3.7-3.7-3.7Z"
          style="fill: rgb(29, 29, 27);"></path>
        <path class="cls-1"
          d="M.46,338.56c0,2.04,1.66,3.7,3.7,3.7h234.81c2.04,0,3.7-1.66,3.7-3.7s-1.66-3.7-3.7-3.7H4.16c-2.04,0-3.7,1.66-3.7,3.7Z"
          style="fill: rgb(29, 29, 27);"></path>
        <path class="cls-1"
          d="M486.14,334.86h-213.2c-2.04,0-3.7,1.66-3.7,3.7s1.66,3.7,3.7,3.7h213.2c2.04,0,3.7-1.66,3.7-3.7s-1.66-3.7-3.7-3.7Z"
          style="fill: rgb(29, 29, 27);"></path>
        <path class="cls-1"
          d="M163.19,353.7H4.16c-2.04,0-3.7,1.66-3.7,3.7s1.66,3.7,3.7,3.7h159.06c2.04,0,3.7-1.66,3.7-3.7s-1.66-3.7-3.7-3.7h-.03Z"
          style="fill: rgb(29, 29, 27);"></path>
        <path class="cls-1"
          d="M486.14,353.7H194.07c-2.04,0-3.7,1.66-3.7,3.7s1.66,3.7,3.7,3.7h292.08c2.04,0,3.7-1.66,3.7-3.7s-1.66-3.7-3.7-3.7Z"
          style="fill: rgb(29, 29, 27);"></path>
        <path class="cls-1"
          d="M19.84,395.72c1.22,0,2.28.22,3.13.6l2.94-5.68c-2.28-.98-4.38-1.44-6.96-1.44-9.05,0-16.82,7.64-16.82,28.73s7.75,28.73,16.82,28.73c2.58,0,4.65-.46,6.96-1.44l-2.94-5.68c-.84.38-1.9.6-3.13.6-5.22,0-10.9-5.95-10.9-22.21s5.68-22.21,10.9-22.21h0Z"
          style="fill: rgb(29, 29, 27);"></path>
        <polygon class="cls-1"
          points="82.55 420.99 70.15 420.99 70.15 389.85 63.6 389.85 63.6 446 70.15 446 70.15 427.22 82.55 427.22 82.55 446 89.1 446 89.1 389.85 82.55 389.85 82.55 420.99"
          style="fill: rgb(29, 29, 27);"></polygon>
        <rect class="cls-1" x="129.98" y="389.85" width="6.55" height="56.15"
          style="fill: rgb(29, 29, 27);"></rect>
        <polygon class="cls-1"
          points="198.47 439.86 183.98 439.86 183.98 389.85 177.41 389.85 177.41 446 198.47 446 198.47 439.86"
          style="fill: rgb(29, 29, 27);"></polygon>
        <polygon class="cls-1"
          points="234.4 389.85 234.4 446 255.47 446 255.47 439.86 240.98 439.86 240.98 389.85 234.4 389.85"
          style="fill: rgb(29, 29, 27);"></polygon>
        <path class="cls-1"
          d="M345.19,389.19c-6.69,0-15.3,5.44-15.3,28.73s8.62,28.73,15.3,28.73,15.3-5.44,15.3-28.73-8.62-28.73-15.3-28.73ZM345.19,440.18c-3.94,0-8.51-5.14-8.51-22.23s4.54-22.23,8.51-22.23,8.51,5.14,8.51,22.23-4.54,22.23-8.51,22.23h0Z"
          style="fill: rgb(29, 29, 27);"></path>
        <path class="cls-1"
          d="M418.38,429.58c0,7.8-2.42,10.6-6.66,10.6s-6.66-2.83-6.66-10.6v-39.74h-6.55v40.55c0,11.36,4.95,16.28,13.21,16.28s13.21-4.95,13.21-16.28v-40.55h-6.55v39.74Z"
          style="fill: rgb(29, 29, 27);"></path>
        <polygon class="cls-1"
          points="462.28 396.04 471.09 396.04 471.09 446 477.64 446 477.64 396.04 486.47 396.04 486.47 389.85 462.28 389.85 462.28 396.04"
          style="fill: rgb(29, 29, 27);"></polygon>
        <path class="cls-1"
          d="M198.99,728.24h-8.75v37.18h8.4c4.29,0,7.61-1.3,10-3.94,2.39-2.64,3.56-6.25,3.56-10.93v-7.77c-.05-4.54-1.28-8.07-3.61-10.65s-5.54-3.86-9.57-3.86l-.03-.03ZM209.29,750.83c-.05,3.81-.98,6.74-2.8,8.81-1.82,2.07-4.4,3.07-7.72,3.07h-5.65v-31.72h5.76c3.37,0,5.95,1.06,7.72,3.15,1.77,2.12,2.66,5.08,2.66,8.89v7.8h.03Z"
          style="fill: rgb(29, 29, 27);"></path>
        <path class="cls-1"
          d="M243.78,728.24l-11.85,37.18h3.04l3.15-10.38h13.94l3.21,10.38h3.04l-11.85-37.18h-2.72.03ZM238.97,752.29l6.12-19.95,6.12,19.95h-12.26.03Z"
          style="fill: rgb(29, 29, 27);"></path>
        <polygon class="cls-1"
          points="286.37 748.46 277.16 728.24 273.73 728.24 284.88 751.42 284.88 765.39 287.78 765.39 287.78 751.42 298.98 728.24 295.64 728.24 286.37 748.46"
          style="fill: rgb(29, 29, 27);"></polygon>
        <path class="cls-1"
          d="M237.17,631.8c-.38-.08-.82-.03-1.2,0-2.88.19-5.74.63-8.53,1.33-10.95,2.75-19.24,9.02-25.06,18.65-2.88,4.76-4.48,9.98-5.33,15.47-.24,1.69-.33,3.34-.3,5.03,0,.87.9,1.3,1.58.9.46-.27.43-.79.46-1.25.05-1.39,0-2.8.22-4.16.68-4.73,2.12-9.24,4.19-13.54.38-.79.65-2.12,1.6-2.72l3.64-3.61c.16-.33,1.09-.73,1.49-.82.16.52,0,.82-.16,1.11-1.3,2.94-2.07,5.98-2.31,9.19-.11,1.44-.27,2.88-.3,4.32,0,.63.33,1.09,1.03,1.2.84.11.9-.57,1.06-1.09.08-.33.05-.71,0-1.03-.08-1.93.27-3.81.6-5.68.71-4.32,2.42-8.32,4.35-12.2.24-.49,3.67-3.97,4.29-4.1l.11-.11c.16-.38.57-.52,1.01-.33.57.24.16.68,0,1.03-1.58,3.75-1.82,7.72-1.96,11.71,0,.16,0,.35.03.52.11.54.46.76,1.01.76s.9-.24.98-.79c.05-.41.03-.82.03-1.22,0-4.4,1.01-8.62,2.55-12.69.22-.57,4.19-2.17,4.73-2.45l.52-.16c.79-.24,1.06-.08.98.76-.05.57-.22,1.14-.24,1.71-.08,1.14-.16,2.31-.16,3.45,0,.73.54.92,1.22.95.68.03.73-.52.82-.9.11-.49.05-1.03.05-1.55,0-1.22.05-2.42.33-3.61.33-1.36.41-1.39,1.82-1.6,1.55-.22,3.1-.41,4.67-.33.63.03,1.2-.14,1.25-.9.05-.73-.49-1.01-1.06-1.17v-.08Z"
          style="fill: rgb(29, 29, 27);"></path>
        <path class="cls-1"
          d="M295.86,632.37c-8.34-8.75-18.54-12.94-30.71-11.77-3.94.38-7.69,1.44-11.31,3.04-.27.11-.57.16-.79.33-.43.38-.68.79-.11,1.3.49.43.9.57,1.55.27,1.3-.6,2.66-1.06,4-1.63.76-.33,1.3-.22,1.74.52.65,1.09,1.44,2.12,1.9,3.32.16.43.35.84.71,1.17.52.49,1.03.46,1.44-.11.3-.43.22-.87,0-1.3-.63-1.17-1.14-2.42-1.93-3.48-.22-.27-.49-.6-.16-.92l.63-.54c.43-.43,4.4-.11,4.76.19.16.16.33.33.49.49,2.72,2.66,4.89,5.71,6.63,9.08.22.41.46.82.71,1.2.22.33.54.46.9.27.3-.16.6-.35.65-.76.05-.43-.05-.82-.24-1.17-.57-1.09-1.09-2.17-1.74-3.21-1.11-1.77-2.36-3.42-3.83-4.92-.35-.35-.87-.73-.63-1.49.3.16,4.57,1.25,4.76,1.41l.19.08c3.23,2.66,7.83,6.77,10.14,10.27.79,1.22,1.36,2.55,2.12,3.78.27.46.57.73,1.11.54.54-.22.82-.63.68-1.25-.05-.22-.16-.43-.27-.65-1.17-2.47-2.55-4.78-4.4-6.82-.87-.95-1.71-1.93-2.61-2.96.3-.05.43-.14.49-.11l.14-.11c.65-.05,6.5,2.47,6.8,2.72,1.79,1.47,3.42,3.13,4.97,4.87,2.17,2.42,4,5.08,5.38,8.05.27.57.73,1.2,1.49.71.65-.38.63-.95.3-1.66-1.58-3.18-3.45-6.2-5.9-8.75l-.03.03Z"
          style="fill: rgb(29, 29, 27);"></path>
        <path class="cls-1"
          d="M193.25,714.51c-.08.71.35,1.01,1.82,1.06h99.53c1.39-.03,1.36-.49,1.39-.95s-.46-.73-1.52-.73c-1.39,0-2.77.08-4.16.08h-45.45v-.08h-49.58c-1.01,0-1.93,0-2.04.63h0Z"
          style="fill: rgb(29, 29, 27);"></path>
        <path class="cls-1"
          d="M243.67,703.59h0c-1.44,0-2.91.03-4.35,0-.71,0-1.3.03-1.47.84-.11.57.54,1.09,1.44,1.17h.52c1.6-.08,3.23.03,4.81-.08,1.17-.08,2.26.22,3.4.11.95-.11,1.55-.54,1.44-1.17-.14-.84-.79-.87-1.47-.87h-4.35.03Z"
          style="fill: rgb(29, 29, 27);"></path>
        <path class="cls-1"
          d="M238.89,694.05c.33.11.68.11,1.03.11h3.81c1.44,0,2.88.03,4.35,0,.49,0,.87-.19.95-.79.08-.65-.24-.98-.79-1.14-.27-.08-.57-.05-.87-.05h-7.47c-.33,0-.68.05-1.01.14-.43.11-.73.38-.71.87,0,.46.33.73.73.87h-.03Z"
          style="fill: rgb(29, 29, 27);"></path>
        <path class="cls-1"
          d="M238.32,687.6c0,.71.76.76,1.3.9.33.08.68.03,1.03.03h7.12c.63,0,1.2-.24,1.25-.92.03-.71-.54-.98-1.17-.98h-8.15c-.65,0-1.39.22-1.36,1.01l-.03-.03Z"
          style="fill: rgb(29, 29, 27);"></path>
        <path class="cls-1"
          d="M247.91,697.99c-1.39.05-2.77,0-4.19,0h-4.38c-.73-.08-1.39.16-1.36.92,0,.63.63.87,1.3.84,2.91-.03,5.82-.03,8.7,0,.68,0,1.28-.22,1.28-.87,0-.76-.65-.95-1.39-.92l.03.03Z"
          style="fill: rgb(29, 29, 27);"></path>
        <path class="cls-1"
          d="M239.95,665.83c.27.05.57,0,.87,0h6.44c.57,0,1.03-.19,1.09-.84.08-.79-.49-.95-1.06-1.09h-7.31c-.54.14-1.01.43-.98,1.03,0,.52.46.76.95.87v.03Z"
          style="fill: rgb(29, 29, 27);"></path>
        <path class="cls-1"
          d="M239.81,671.16c.52,0,1.03.16,1.52.24,2.07.27,4.16.08,6.25.11.46,0,.76-.3.84-.73.08-.49-.11-.87-.63-1.09-.38-.16-.79-.16-1.2-.16h-6.09c-.27,0-.57,0-.84.08-.46.14-.84.41-.76.98.08.54.49.6.9.57Z"
          style="fill: rgb(29, 29, 27);"></path>
        <path class="cls-1"
          d="M238.56,681.76s.03.11.05.16c0,.16.05.35.14.49.08.16.22.27.41.35.19.11.41.16.65.14.65-.03,1.3.08,1.93-.08h5.93s.08,0,.11.03c.05,0,.11,0,.16-.03.54,0,.84-.46.87-.9v-.03c0-.19-.03-.35-.11-.49-.14-.27-.41-.46-.79-.46h-8.02c-.63-.03-1.2.05-1.3.82h-.03Z"
          style="fill: rgb(29, 29, 27);"></path>
        <path class="cls-1"
          d="M238.89,676.76c.14.22.35.35.54.41.08,0,.16.03.27.03h7.45s.11,0,.16.03c.22.05.43.03.65-.05,1.06-.16,1.01-1.88-.16-1.88h-8.1c-.3,0-.54.11-.68.3-.3.27-.38.73-.14,1.14v.03Z"
          style="fill: rgb(29, 29, 27);"></path>
        <path class="cls-1"
          d="M240.73,643.19h5.9c.65,0,1.17-.22,1.11-.98-.03-.73-.49-.98-1.17-.95h-5.9c-.63,0-1.17.24-1.14,1.01,0,.79.63.92,1.2.92h0Z"
          style="fill: rgb(29, 29, 27);"></path>
        <path class="cls-1"
          d="M239.19,659.2c-.03.57.6,1.11,1.33,1.01,2.12-.33,4.21-.27,6.33-.03.52.05,1.2,0,1.25-.82.03-.76-.43-1.01-1.09-1.01h-6.58c-.6,0-1.2.05-1.22.87l-.03-.03Z"
          style="fill: rgb(29, 29, 27);"></path>
        <path class="cls-1"
          d="M239.32,653.49c-.03.79.46.95,1.11.95h6.39c.65,0,1.25-.14,1.22-.87,0-.68-.6-.92-1.25-.9h-6.39c-.54,0-1.06.11-1.11.82h.03Z"
          style="fill: rgb(29, 29, 27);"></path>
        <path class="cls-1"
          d="M240.54,648.85h6.25c.71,0,1.11-.35,1.09-1.01,0-.6-.52-.84-1.09-.84-2.07,0-4.16.03-6.22.03-.57,0-1.09.11-1.09.79s.38,1.03,1.09,1.01l-.03.03Z"
          style="fill: rgb(29, 29, 27);"></path>
        <path class="cls-1"
          d="M286.89,651.59c-5.82-9.62-14.11-15.9-25.06-18.65-2.8-.71-5.65-1.14-8.53-1.33-.41-.03-.84-.08-1.2,0-.57.14-1.11.43-1.06,1.17.05.76.6.92,1.25.9,1.58-.08,3.13.11,4.67.33,1.41.22,1.49.24,1.82,1.6.27,1.2.35,2.39.33,3.61,0,.52-.05,1.06.05,1.55.08.41.14.95.82.9.65-.03,1.2-.22,1.22-.95,0-1.14-.08-2.31-.16-3.45-.05-.57-.19-1.14-.24-1.71-.08-.82.16-1.01.98-.76l.52.16c.54.27,4.51,1.9,4.73,2.45,1.55,4.1,2.53,8.29,2.55,12.69,0,.41,0,.82.03,1.22.08.54.43.79.98.79s.9-.22,1.01-.76c.03-.16.03-.35.03-.52-.14-4-.38-7.96-1.96-11.71-.14-.33-.57-.79,0-1.03.46-.19.84-.03,1.01.33l.11.11c.63.14,4.05,3.61,4.29,4.1,1.93,3.89,3.64,7.88,4.35,12.2.33,1.88.68,3.75.6,5.68,0,.35-.05.71,0,1.03.14.52.22,1.2,1.06,1.09.71-.08,1.06-.57,1.03-1.2-.05-1.44-.22-2.88-.3-4.32-.24-3.18-1.01-6.25-2.31-9.19-.14-.3-.33-.63-.16-1.11.41.11,1.3.49,1.49.82l3.64,3.61c.95.6,1.22,1.96,1.6,2.72,2.07,4.29,3.53,8.81,4.19,13.54.19,1.36.14,2.77.22,4.16,0,.46,0,.95.46,1.25.71.41,1.55-.03,1.58-.9.03-1.69-.03-3.34-.3-5.03-.84-5.49-2.45-10.71-5.33-15.47v.08Z"
          style="fill: rgb(29, 29, 27);"></path>
        <path class="cls-1"
          d="M199.64,629.28c.3-.24,6.17-2.77,6.8-2.72l.14.11s.22.03.49.11c-.9,1.03-1.77,2.01-2.61,2.96-1.85,2.04-3.23,4.38-4.4,6.82-.11.22-.22.41-.27.65-.14.6.11,1.03.68,1.25.54.19.84-.08,1.11-.54.76-1.22,1.3-2.58,2.12-3.78,2.31-3.51,6.9-7.61,10.14-10.27l.19-.08c.16-.14,4.46-1.22,4.76-1.41.24.76-.27,1.11-.63,1.49-1.47,1.49-2.75,3.15-3.83,4.92-.65,1.03-1.17,2.12-1.74,3.21-.19.35-.3.76-.24,1.17.05.41.35.6.65.76.35.19.71.03.9-.27.27-.38.49-.79.71-1.2,1.74-3.37,3.91-6.41,6.63-9.08.16-.16.33-.33.49-.49.35-.3,4.29-.63,4.76-.19l.63.54c.3.33.05.63-.16.92-.79,1.09-1.3,2.31-1.93,3.48-.24.43-.33.87,0,1.3.41.57.92.63,1.44.11.33-.33.52-.73.71-1.17.46-1.2,1.25-2.23,1.9-3.32.43-.73.98-.87,1.74-.52,1.33.57,2.69,1.03,4,1.63.38.19.71.16,1.01.05-.05.08-.08.14-.14.22.14.19.19.43.14.79-.49,3.02,2.34,5.35,5.25,4.4.38-.14.76-.65,1.36-.14-.76,1.22-.63,2.42.11,3.64.54.9.38,1.06-.63,1.01-.24,0-.46-.08-.68-.11-.87,0-1.49.43-1.52,1.06,0,.87.76.87,1.22.92,1.28.14,2.55.05,3.83.08,1.39,0,2.53-.05,3.67-1.33,2.17-2.42,2.53-3.89.63-6.52-.41-.54-.35-.82.19-1.25,1.79-1.47,2.15-2.96,1.25-5.06-.27-.65-.3-.98.35-1.39,1.14-.71,1.93-1.66,1.88-3.1,0-.24.05-.46.14-.68-.03-.22-.14-.43-.19-.63.24-.05.46-.16.68-.43.73-.95,1.58-1.85,2.36-2.8.43-.54.9-.68,1.52-.3.92.57,1.9,1.03,2.75,1.74.3.27.6.49.98.63.57.19.95-.05,1.03-.65.05-.46-.16-.73-.52-.98-.92-.63-1.79-1.36-2.83-1.85-.27-.14-.6-.27-.49-.63l.27-.65c.16-.52,3.26-1.82,3.64-1.71.19.05.38.11.57.16,3.07.92,5.93,2.36,8.56,4.21.33.22.65.43,1.01.63.3.16.6.14.79-.16.16-.24.33-.49.19-.82-.14-.35-.35-.6-.65-.79-.84-.6-1.69-1.2-2.55-1.74-1.52-.9-3.13-1.66-4.81-2.17-.41-.14-.92-.22-1.06-.87.3,0,3.94-.84,4.13-.82h.16c3.48.71,8.53,1.98,11.66,3.72,1.09.6,2.01,1.39,3.07,2.01.38.24.73.33,1.06-.03.33-.38.35-.79,0-1.2-.14-.14-.3-.27-.43-.38-1.85-1.39-3.81-2.58-6.01-3.4-1.03-.38-2.04-.79-3.13-1.2.19-.16.27-.27.33-.27l.05-.14c.46-.3,5.87-.71,6.2-.63,1.93.41,3.81,1.01,5.65,1.71,2.58.98,5,2.26,7.2,3.94.43.33,1.01.6,1.41-.05.33-.54.11-.95-.43-1.36-2.45-1.77-5.03-3.32-7.88-4.27-9.73-3.32-19.03-2.45-27.72,3.21-2.83,1.82-5.22,4.1-7.31,6.74-.03.03-.08.08-.11.11-.11-.16-.19-.38-.35-.52-.14-.05-.3-.16-.49-.33-1.11-.92-2.42-1.39-3.86-.73-.73.33-1.44.76-1.9,1.44-.38.57-.73.54-1.28.11-2.15-1.71-3.56-1.79-5.54-.14-.19.16-.38.27-.52.33,0,.3-.14.6-.41.87-.03,0-.05.05-.08.08-.11-.19-.27-.33-.41-.49-2.09-2.64-4.48-4.89-7.31-6.74-8.72-5.65-17.99-6.52-27.72-3.21-2.83.95-5.44,2.5-7.88,4.27-.54.38-.76.82-.43,1.36.41.65.98.38,1.41.05,2.2-1.69,4.62-2.96,7.2-3.94,1.85-.68,3.72-1.3,5.65-1.71.33-.05,5.71.35,6.2.63l.05.14s.14.11.33.27c-1.09.41-2.09.82-3.13,1.2-2.17.82-4.13,2.01-6.01,3.4-.16.11-.33.24-.43.38-.35.41-.3.82,0,1.2.33.35.65.27,1.06.03,1.06-.63,1.98-1.41,3.07-2.01,3.13-1.74,8.18-2.99,11.66-3.75h.16c.19,0,3.83.84,4.13.84-.14.68-.65.73-1.06.87-1.69.54-3.29,1.28-4.81,2.17-.9.52-1.71,1.14-2.55,1.74-.3.19-.52.43-.65.79-.11.33,0,.57.19.82.19.27.52.3.79.16.35-.19.68-.38,1.01-.63,2.64-1.88,5.46-3.29,8.56-4.21.19-.05.38-.14.57-.16.38-.11,3.48,1.2,3.64,1.71l.27.65c.11.35-.22.49-.49.63-1.03.49-1.9,1.22-2.83,1.85-.35.24-.57.52-.52.98.08.6.46.82,1.03.65.38-.11.68-.35.98-.63.82-.71,1.82-1.17,2.75-1.74.63-.38,1.09-.27,1.52.3.76.95,1.6,1.85,2.36,2.8.33.41.65.49,1.09.41,0,.05-.05.11-.05.16.19.27.3.6.3,1.01,0,1.17.49,2.12,1.58,2.69.27.14.49.33.41.76-.79.19-1.6.46-2.2,1.17-.14.16-.33.24-.49.24h0s0,.03-.03.05c-.08-.14-.19-.24-.3-.35-.22-.16-.52-.22-.79-.33-3.61-1.6-7.37-2.66-11.31-3.04-12.2-1.17-22.37,3.02-30.71,11.77-2.45,2.55-4.32,5.57-5.9,8.75-.35.71-.35,1.25.3,1.66.79.46,1.22-.16,1.49-.71,1.39-2.96,3.21-5.63,5.38-8.05,1.55-1.74,3.18-3.4,4.97-4.87l-.03-.03ZM246.12,634.66c-1.33,0-2.17-.71-2.2-1.88,0-1.03,1.14-2.34,2.12-2.39,1.03-.05,2.23,1.17,2.23,2.26s-.98,1.98-2.12,2.01h-.03ZM248.54,616.34c1.06-.03,2.2.98,2.26,2.01.08,1.09-1.01,2.2-2.15,2.34-1.03.11-2.09-1.03-2.26-2.04-.16-1.01,1.09-2.31,2.15-2.34v.03ZM246.69,623.05c1.14,0,2.31,1.09,2.26,2.15-.03,1.09-1.2,2.15-2.31,2.12-1.06,0-2.15-1.11-2.09-2.12.03-.95,1.22-2.15,2.15-2.15ZM239.05,619.22c-.05-.92,1.25-2.34,2.2-2.36,1.06-.05,2.12,1.01,2.12,2.07,0,1.2-1.01,2.34-2.09,2.36-.92.03-2.17-1.14-2.23-2.07ZM239.76,625.06c1.01,0,2.17,1.11,2.2,2.09,0,1.06-1.14,2.26-2.23,2.26-.98,0-2.17-1.14-2.2-2.09-.05-.98,1.22-2.26,2.23-2.26Z"
          style="fill: rgb(29, 29, 27);"></path>
        <path class="cls-1"
          d="M214.53,589.78c-.19,0-.41-.03-.6.03-.38.14-.63.35-.38.82.22.41.46.57.95.54.98-.08,1.98-.08,2.96-.16.57-.03.9.16,1.03.73.16.87.43,1.71.49,2.58,0,.33.03.63.19.92.22.43.57.54.95.24.3-.22.33-.52.3-.84-.14-.9-.19-1.82-.46-2.72-.08-.24-.16-.52.11-.63l.54-.22c.41-.19,2.88.92,3.04,1.22.08.14.14.3.22.43,1.14,2.36,1.88,4.84,2.23,7.45.05.33.11.63.19.92.08.24.24.43.52.38.24-.03.46-.08.6-.33.14-.27.16-.54.11-.82-.11-.84-.22-1.66-.38-2.47-.3-1.41-.76-2.77-1.36-4.08-.16-.33-.41-.68-.08-1.11.14.19,2.69,1.88,2.77,2.01l.11.08c1.49,2.47,3.53,6.2,4.24,9.02.24.98.3,1.98.49,2.96.08.35.22.63.6.6.41,0,.68-.22.73-.65v-.49c-.19-1.88-.57-3.72-1.3-5.46-.35-.82-.68-1.66-1.03-2.53.19,0,.33,0,.35.05l.11-.05c.43.11,3.67,3.1,3.81,3.34.84,1.39,1.49,2.83,2.12,4.32.87,2.07,1.41,4.24,1.66,6.47.05.43.19.95.82.82.52-.11.63-.46.57-1.01-.3-2.45-.82-4.84-1.82-7.07-3.42-7.64-9.08-12.69-17.29-14.73-2.66-.65-5.35-.84-8.07-.63l-.03.03Z"
          style="fill: rgb(29, 29, 27);"></path>
        <path class="cls-1"
          d="M268.57,595.06c-.05.35,0,.63.3.84.38.27.73.19.95-.24.14-.3.16-.6.19-.92.03-.9.3-1.74.49-2.58.11-.57.43-.79,1.03-.73.98.08,1.98.05,2.96.16.49.05.73-.14.95-.54.24-.46,0-.68-.38-.82-.16-.05-.38,0-.6-.03-2.72-.22-5.41-.05-8.07.63-8.21,2.07-13.86,7.12-17.29,14.73-1.01,2.23-1.52,4.62-1.82,7.07-.05.54.05.9.57,1.01.63.14.76-.38.82-.82.22-2.26.79-4.4,1.66-6.47.6-1.47,1.28-2.94,2.12-4.32.14-.24,3.37-3.21,3.81-3.34l.11.05s.14,0,.35-.05c-.35.87-.68,1.71-1.03,2.53-.73,1.74-1.09,3.59-1.3,5.46,0,.16-.05.33,0,.49.05.43.33.65.73.65.38,0,.52-.24.6-.6.22-.98.27-1.98.49-2.96.71-2.83,2.75-6.55,4.24-9.02l.11-.08s2.61-1.82,2.77-2.01c.33.43.08.79-.08,1.11-.63,1.3-1.06,2.66-1.36,4.08-.19.82-.27,1.66-.38,2.47-.05.27,0,.57.11.82.14.24.35.3.6.33.27.03.46-.14.52-.38.08-.3.14-.63.19-.92.35-2.61,1.09-5.08,2.23-7.45.08-.14.14-.3.22-.43.16-.27,2.66-1.41,3.04-1.22l.54.22c.27.14.16.41.11.63-.27.9-.33,1.79-.46,2.72l-.03-.03Z"
          style="fill: rgb(29, 29, 27);"></path>
      </g>
    </g>
  </g>
</svg>