<?xml version="1.0" encoding="UTF-8"?>
<svg id="Calque_1" data-name="Calque 1" xmlns="http://www.w3.org/2000/svg"
  viewBox="0 0 175.37 279.72" width="175.37" height="279.72">
  <path
    d="M24.34,49.71c-.68,1.41-1.49,2.74-2.47,3.96-.45.56-.54,1.33,0,1.88.46.46,1.42.56,1.88,0,1.13-1.4,2.1-2.88,2.88-4.5.74-1.53-1.55-2.88-2.29-1.34Z"
    fill="#0d0e0e" />
  <path d="M27.06,46.13c-1.71,0-1.71,2.65,0,2.65s1.71-2.65,0-2.65Z" fill="#0d0e0e" />
  <path
    d="M65,38.88c-1.78,3.09-3.55,6.18-5.33,9.27-.85,1.48,1.44,2.82,2.29,1.34,1.78-3.09,3.55-6.18,5.33-9.27.85-1.48-1.44-2.82-2.29-1.34Z"
    fill="#0d0e0e" />
  <path
    d="M57.41,51.81c-.95,1.19-1.8,2.42-2.53,3.76-.82,1.5,1.47,2.84,2.29,1.34.62-1.13,1.31-2.21,2.11-3.22.45-.56.55-1.33,0-1.88-.46-.46-1.43-.56-1.88,0Z"
    fill="#0d0e0e" />
  <path
    d="M76.07,36.72c-1,2.12-2.17,4.14-3.51,6.06-.98,1.4,1.32,2.73,2.29,1.34,1.34-1.92,2.51-3.94,3.51-6.06.73-1.53-1.56-2.88-2.29-1.34Z"
    fill="#0d0e0e" />
  <path
    d="M102.66,53.75c-2.39,3.48-4.79,6.97-7.18,10.45-.95,1.39,1.01,3.17,1.98,1.77,2.39-3.48,4.79-6.97,7.18-10.45.95-1.39-1.01-3.17-1.98-1.77Z"
    fill="#0d0e0e" />
  <path
    d="M112.34,53.4c-.36.62-.71,1.24-1.07,1.85-.85,1.48,1.44,2.82,2.29,1.34.36-.62.71-1.24,1.07-1.85.85-1.48-1.44-2.82-2.29-1.34Z"
    fill="#0d0e0e" />
  <path
    d="M43.41,65c-1.81,2.93-3.63,5.86-5.44,8.78-.9,1.45,1.33,2.89,2.23,1.43,1.81-2.93,3.63-5.86,5.44-8.78.9-1.45-1.33-2.89-2.23-1.43Z"
    fill="#0d0e0e" />
  <path
    d="M34.57,69.28c-.73.72-1.23,1.54-1.61,2.49-.26.67.29,1.46.93,1.63.75.21,1.37-.26,1.63-.93.2-.51.54-.94.92-1.32,1.22-1.19-.65-3.07-1.88-1.88Z"
    fill="#0d0e0e" />
  <path
    d="M175.14,73.85c-9.56-13.79-19.32-27.52-29.77-40.66-2.76-3.47-7.94-12.4-13.25-12.09-6.4.37-12.43,8.7-16.31,14.22-2.7-5.15-5.59-10.22-8.64-15.17-3.91-6.36-8.81-15.76-15.72-19.42-4.99-2.64-9.21,2.57-12.16,6.03-6.02,7.06-11,15.04-15.82,22.94-3.09,5.06-6.08,10.18-8.95,15.37-3.92-4.98-8.29-9.86-13.37-13.61-2.39-1.76-5.77-4.02-8.94-3.24-2.57.64-4.46,3.33-6.02,5.26C16.2,45.86,8.16,60.11.19,73.85c-.86,1.48,1.43,2.82,2.29,1.34,6.9-11.9,14.03-23.78,21.99-35,1.76-2.48,3.54-5.26,5.76-7.41-1.54,2.25-3.08,4.49-4.62,6.74-.48.71.66,1.37,1.15.67,2.09-3.05,4.18-6.1,6.27-9.15.49-.11.97-.11,1.46-.05-2.24,3.52-4.47,7.04-6.71,10.56-.46.72.69,1.39,1.15.67,2.31-3.63,4.61-7.26,6.92-10.89.58.22,1.16.53,1.74.88-2.46,3.88-4.92,7.76-7.37,11.64-.46.72.69,1.39,1.14.67,2.44-3.86,4.89-7.72,7.33-11.58.33.23.67.48,1,.72.14.1.27.21.4.32-2.59,4.38-5.17,8.76-7.76,13.14-.43.74.71,1.4,1.15.67,2.55-4.33,5.11-8.66,7.66-12.98.41.33.82.68,1.23,1.03-2.69,4.66-5.38,9.31-8.06,13.97-.43.74.72,1.41,1.15.67,2.65-4.58,5.29-9.17,7.94-13.75.77.69,1.51,1.41,2.24,2.15-2.45,4.47-4.91,8.94-7.36,13.41-.41.75.73,1.42,1.15.67,2.39-4.36,4.79-8.72,7.18-13.09.56.58,1.1,1.18,1.64,1.78-1.91,3.55-3.81,7.09-5.72,10.64-.4.75.74,1.42,1.15.67,1.84-3.42,3.67-6.83,5.51-10.25.51.59,1.01,1.18,1.5,1.78-1.37,2.65-2.74,5.29-4.11,7.94-.39.76.75,1.43,1.15.67,1.29-2.5,2.59-4.99,3.88-7.49.52.65,1.04,1.3,1.54,1.96-2.51,4.43-5.03,8.86-7.54,13.28-.84,1.49,1.45,2.82,2.29,1.34,2.66-4.69,5.32-9.37,7.98-14.06,3.15-5.78,6.48-11.47,9.9-17.09,5.28-8.65,10.73-18.31,18.13-25.39-4.43,6.78-8.86,13.56-13.28,20.34-.47.72.68,1.38,1.15.67,5.11-7.82,10.22-15.65,15.33-23.47.82-.38,1.59-.46,2.41-.24-4.88,7.45-9.77,14.9-14.65,22.35-.47.72.68,1.38,1.15.67,4.91-7.49,9.83-14.99,14.74-22.48.31.18.62.4.95.66-4.58,7.05-9.16,14.1-13.75,21.15-.47.72.68,1.38,1.15.67,4.54-6.99,9.08-13.97,13.62-20.96.25.23.5.48.75.72-4.22,7.22-8.44,14.44-12.66,21.66-.43.74.71,1.41,1.15.67,4.16-7.12,8.32-14.24,12.48-21.35.45.47.88.96,1.31,1.46-3.71,6.58-7.42,13.15-11.14,19.73-.42.74.73,1.41,1.15.67,3.63-6.44,7.27-12.87,10.9-19.31.47.59.94,1.2,1.39,1.81-3.24,6-6.48,12.01-9.72,18.01-.41.75.74,1.42,1.15.67,3.14-5.83,6.29-11.65,9.43-17.48.38.54.76,1.09,1.13,1.64-2.8,5.23-5.6,10.46-8.39,15.69-.4.75.74,1.42,1.15.67,2.69-5.04,5.39-10.07,8.08-15.11.3.45.59.89.88,1.34-2.4,4.87-4.8,9.75-7.2,14.62-.38.76.77,1.44,1.15.67,2.3-4.67,4.59-9.33,6.89-14,.41.63.8,1.28,1.21,1.92-2.11,4.19-4.21,8.37-6.32,12.56-.38.76.76,1.43,1.15.67,2-3.97,4-7.95,6-11.92.38.6.76,1.2,1.14,1.81-1.73,3.82-3.46,7.65-5.19,11.47-.35.77.79,1.45,1.15.67,1.62-3.59,3.24-7.17,4.86-10.76.36.6.72,1.21,1.08,1.81-1.29,3.22-2.57,6.44-3.86,9.65-.32.79.97,1.14,1.28.35,1.14-2.86,2.28-5.72,3.43-8.58.38.66.75,1.32,1.12,1.98-.87,2.33-1.73,4.65-2.6,6.98-.3.8.98,1.15,1.28.35.72-1.94,1.45-3.88,2.17-5.82.19.35.39.69.58,1.03-.46,1.48-.92,2.95-1.37,4.43-.25.82,1.03,1.17,1.28.35.33-1.06.66-2.11.98-3.17.3.55.58,1.1.87,1.64-.15.48-.3.96-.45,1.44-.25.82,1.03,1.17,1.28.35l.04-.14c.15.29.31.59.47.88-2.54,3.8-5.09,7.61-7.63,11.41-.95,1.42,1.34,2.75,2.29,1.34,2.67-4,5.35-8,8.02-12,1.99-2.79,7.18-10.5,11.95-13.51-3.19,4.17-6.37,8.34-9.56,12.5-.52.68.63,1.34,1.14.67,3.64-4.76,7.28-9.52,10.92-14.28.7-.16,1.37-.15,2.01.04-3.63,4.79-7.26,9.58-10.88,14.36-.52.68.64,1.34,1.15.67,3.65-4.81,7.29-9.62,10.94-14.44.36.25.71.55,1.06.89-3.12,4.56-6.24,9.12-9.36,13.68-.48.71.67,1.37,1.15.67,3.05-4.46,6.1-8.91,9.15-13.37.34.38.67.77.98,1.17-2.81,3.84-5.62,7.69-8.43,11.53-.5.69.65,1.35,1.15.67,2.71-3.71,5.42-7.41,8.13-11.12.37.48.72.93,1.04,1.3,0,.01.02.02.03.03-2.27,3.04-4.55,6.08-6.82,9.12-.51.68.64,1.35,1.15.67,2.18-2.91,4.36-5.83,6.54-8.74.34.4.67.81,1,1.22-1.79,2.54-3.62,5.05-5.31,7.65-.41.62.54,1.37,1.04.8,0,0,0,0,0,0,.04-.05.06-.09.08-.14,0,0,.01,0,.02.01,1.6-2.47,3.33-4.86,5.03-7.26.3.37.62.74.92,1.12-1.48,2.22-2.96,4.44-4.44,6.66-.47.71.67,1.38,1.15.67,1.39-2.08,2.78-4.17,4.16-6.25.36.45.71.92,1.07,1.37-1.11,1.98-2.22,3.95-3.33,5.93-.42.75.73,1.41,1.15.67,1.02-1.82,2.04-3.64,3.06-5.46.33.43.67.86,1,1.29-.88,1.52-1.75,3.04-2.63,4.56-.43.74.72,1.41,1.15.67.79-1.37,1.57-2.73,2.36-4.1.25.33.5.67.75,1-.64,1.1-1.29,2.2-1.93,3.3-.43.74.71,1.41,1.15.67.55-.94,1.1-1.88,1.65-2.82.32.42.64.84.95,1.27-.41.76-.82,1.52-1.23,2.27-.41.75.74,1.42,1.15.67.32-.59.64-1.19.96-1.78.2.26.39.52.59.78-.15.29-.29.58-.44.86-.39.76.76,1.43,1.15.67.06-.12.12-.24.18-.36,6.93,9.27,13.65,18.71,20.25,28.22.97,1.39,3.27.07,2.29-1.34Z"
    fill="#0d0e0e" />
  <g>
    <polygon
      points=".24 110.34 5.72 110.34 5.72 108.53 2.14 108.53 2.14 103.9 5.21 103.9 5.21 102.1 2.14 102.1 2.14 95.83 5.72 95.83 5.72 94.03 .24 94.03 .24 110.34"
      fill="#0d0e0e" />
    <polygon
      points="23.26 101.98 23.32 103.94 22.19 101.95 17.06 93.41 17.06 110.34 18.97 110.34 18.97 102.19 18.91 100.41 20.02 102.19 25.16 110.68 25.16 94.03 23.26 94.03 23.26 101.98"
      fill="#0d0e0e" />
    <path
      d="M47.53,110.34h2.05l.71-2.71h3.96l.72,2.71h2.05l-4.74-16.8-4.74,16.8ZM53.78,105.82h-3.02l1.1-4.21.4-1.94.42,1.94,1.09,4.21Z"
      fill="#0d0e0e" />
    <polygon
      points="69.32 94.03 67.42 94.03 67.42 110.34 73.53 110.34 73.53 108.55 69.32 108.55 69.32 94.03"
      fill="#0d0e0e" />
    <polygon
      points="82.94 95.83 85.5 95.83 85.5 110.34 87.4 110.34 87.4 95.83 89.96 95.83 89.96 94.03 82.94 94.03 82.94 95.83"
      fill="#0d0e0e" />
    <rect x="100.79" y="94.03" width="1.9" height="16.3" fill="#0d0e0e" />
    <polygon
      points="113.53 95.83 116.09 95.83 116.09 110.34 117.99 110.34 117.99 95.83 120.55 95.83 120.55 94.03 113.53 94.03 113.53 95.83"
      fill="#0d0e0e" />
    <path
      d="M137.13,105.57c0,2.26-.71,3.08-1.93,3.08s-1.93-.82-1.93-3.08v-11.53h-1.9v11.77c0,3.3,1.43,4.73,3.84,4.73s3.84-1.43,3.84-4.73v-11.77h-1.9v11.53Z"
      fill="#0d0e0e" />
    <path
      d="M150.89,93.85v16.68c4.49-.25,7.45-3.27,7.45-8.34s-2.96-8.09-7.45-8.34ZM152.79,108.32v-12.26c1.75.55,3.57,2.31,3.57,6.13s-1.82,5.58-3.57,6.13Z"
      fill="#0d0e0e" />
    <polygon
      points="174.86 95.83 174.86 94.03 169.37 94.03 169.37 110.34 174.86 110.34 174.86 108.53 171.27 108.53 171.27 103.9 174.34 103.9 174.34 102.1 171.27 102.1 171.27 95.83 174.86 95.83"
      fill="#0d0e0e" />
  </g>
  <g>
    <path
      d="M43.23,136.99h-1.32v4.98h1.29c.61,0,1.08-.19,1.43-.56.34-.37.52-.89.52-1.54v-.81c0-.64-.18-1.15-.53-1.52-.35-.37-.81-.55-1.39-.55ZM44.14,139.95c0,.43-.08.74-.22.91-.14.18-.37.27-.71.27h-.3v-3.31h.37c.31,0,.53.11.66.29.13.18.19.51.19.97v.87Z"
      fill="#0d0e0e" />
    <polygon
      points="51.78 139.81 53.34 139.81 53.34 139 51.78 139 51.78 137.83 53.62 137.83 53.62 136.99 50.77 136.99 50.77 141.97 53.63 141.97 53.63 141.13 51.78 141.13 51.78 139.81"
      fill="#0d0e0e" />
    <path
      d="M60.81,136.99h-1.69v4.98h1v-1.75h.67c.51,0,.91-.14,1.2-.42.29-.28.44-.67.44-1.16s-.15-.88-.44-1.19c-.29-.31-.69-.46-1.18-.46ZM61.25,139.19c-.1.12-.25.19-.44.19h-.69v-1.55h.7c.18,0,.32.08.43.22s.16.35.16.59-.05.42-.16.55Z"
      fill="#0d0e0e" />
    <path
      d="M70.23,140.43c0,.27-.05.47-.14.59s-.25.18-.49.18-.41-.06-.5-.18c-.09-.12-.14-.32-.14-.6v-3.43h-1.01v3.42c0,.53.14.93.42,1.21s.69.42,1.22.42.93-.14,1.21-.41.42-.67.43-1.19v-3.45h-1v3.44Z"
      fill="#0d0e0e" />
    <rect x="76.94" y="136.99" width="1.01" height="4.98" fill="#0d0e0e" />
    <path
      d="M85.24,137.74c.19,0,.33.06.43.18s.15.3.15.53h1c0-.3-.06-.57-.19-.8-.13-.24-.31-.42-.55-.55-.24-.13-.51-.19-.82-.19-.46,0-.84.13-1.13.38-.3.26-.45.59-.45,1.01,0,.35.11.65.33.9.22.25.58.48,1.08.66.27.11.46.22.57.32.1.1.16.26.16.46,0,.37-.18.56-.53.56-.25,0-.44-.06-.55-.19-.11-.13-.17-.34-.17-.63h-1.01c0,.33.08.63.22.87.15.25.36.44.62.57.27.13.56.2.88.2.47,0,.85-.12,1.12-.37s.41-.58.41-1.02c0-.39-.11-.72-.33-.98-.22-.25-.57-.47-1.06-.65-.28-.12-.47-.23-.58-.34-.11-.11-.16-.23-.16-.37,0-.18.05-.32.15-.42.1-.11.24-.16.41-.16Z"
      fill="#0d0e0e" />
    <path
      d="M100.71,140.25c.35-.42.6-.78.74-1.06s.2-.57.2-.85c0-.45-.12-.8-.37-1.05-.24-.25-.59-.37-1.03-.37-.29,0-.55.07-.78.21-.23.14-.41.34-.53.59-.13.25-.19.53-.19.84h.97c0-.26.05-.47.14-.62s.22-.22.37-.22c.14,0,.25.06.33.19.08.12.11.3.11.52,0,.16-.04.34-.12.52-.08.18-.21.39-.38.62l-1.35,1.71v.68h2.93v-.8h-1.69l.64-.91Z"
      fill="#0d0e0e" />
    <path
      d="M108.71,136.92c-.47,0-.82.18-1.07.54s-.37.89-.37,1.58v.94c0,.66.14,1.17.39,1.53.25.35.6.53,1.06.53s.82-.18,1.07-.55c.25-.36.37-.89.37-1.58v-.91c0-.67-.13-1.18-.38-1.54-.25-.36-.61-.54-1.07-.54ZM109.19,140.11c0,.38-.05.66-.12.84-.08.18-.19.27-.35.27-.17,0-.29-.1-.37-.29s-.12-.49-.12-.9v-1.24c.01-.72.17-1.08.48-1.08.16,0,.28.1.36.29.08.2.12.49.12.88v1.21Z"
      fill="#0d0e0e" />
    <polygon
      points="115.93 137.72 115.93 138.53 116.87 138.17 116.87 141.97 117.85 141.97 117.85 136.98 117.74 136.98 115.93 137.72"
      fill="#0d0e0e" />
    <path
      d="M126.86,139.88c-.12-.2-.28-.36-.49-.48.18-.11.32-.26.42-.45s.15-.4.15-.64c0-.43-.12-.77-.36-1.02s-.57-.37-.98-.37-.74.12-.98.37-.37.59-.37,1.02c0,.24.05.46.15.64s.25.34.43.45c-.21.11-.37.27-.49.48-.12.2-.18.44-.18.72,0,.44.13.79.39,1.05.26.26.61.38,1.05.38s.79-.13,1.04-.38c.25-.26.38-.6.38-1.05,0-.28-.06-.52-.18-.72ZM125.32,137.89c.06-.11.16-.17.28-.17.13,0,.23.06.29.17.06.12.09.27.09.46s-.03.35-.09.47c-.06.12-.16.18-.28.18s-.22-.06-.29-.18c-.06-.12-.1-.28-.1-.47s.03-.36.1-.47ZM125.95,141.05c-.08.12-.19.19-.34.19s-.26-.06-.35-.19-.13-.3-.13-.52.04-.39.13-.52c.08-.13.2-.19.34-.19s.26.06.34.19c.08.12.12.3.12.52s-.04.39-.12.52Z"
      fill="#0d0e0e" />
  </g>
  <g>
    <polygon
      points="90.2 276.69 88.71 276.69 88.71 274.68 87.71 274.68 87.71 279.65 88.71 279.65 88.71 277.52 90.2 277.52 90.2 279.65 91.2 279.65 91.2 274.68 90.2 274.68 90.2 276.69"
      fill="#0d0e0e" />
    <path
      d="M98.2,274.68l-1.56,4.98h1.06l.27-1.02h1.37l.27,1.02h1.07l-1.57-4.98h-.92ZM98.19,277.8l.47-1.77.46,1.77h-.93Z"
      fill="#0d0e0e" />
    <path
      d="M108.23,278.12c0,.27-.05.47-.14.59-.09.12-.25.18-.49.18s-.41-.06-.5-.18-.14-.32-.14-.6v-3.43h-1.01v3.42c0,.53.14.93.42,1.21.28.28.69.42,1.22.42s.93-.14,1.21-.41.42-.67.43-1.19v-3.45h-1v3.44Z"
      fill="#0d0e0e" />
    <polygon
      points="114.67 275.51 115.88 275.51 115.88 279.65 116.89 279.65 116.89 275.51 118.12 275.51 118.12 274.68 114.67 274.68 114.67 275.51"
      fill="#0d0e0e" />
    <polygon
      points="124.61 277.5 126.18 277.5 126.18 276.69 124.61 276.69 124.61 275.51 126.46 275.51 126.46 274.68 123.61 274.68 123.61 279.65 126.47 279.65 126.47 278.82 124.61 278.82 124.61 277.5"
      fill="#0d0e0e" />
    <rect x="131.97" y="277.12" width="1.67" height=".81" fill="#0d0e0e" />
    <polygon
      points="140.4 274.68 139.39 274.68 139.39 279.65 142.16 279.65 142.16 278.82 140.4 278.82 140.4 274.68"
      fill="#0d0e0e" />
    <path
      d="M149.14,274.61c-.56,0-1,.19-1.32.58-.32.38-.48.92-.48,1.6v.85c0,.66.17,1.17.49,1.54s.76.55,1.32.55,1-.19,1.31-.55.47-.89.47-1.56v-.85c0-.68-.17-1.21-.49-1.59-.32-.38-.76-.57-1.31-.57ZM149.92,277.64c0,.42-.07.74-.19.94-.13.2-.32.3-.58.3s-.47-.1-.6-.31c-.13-.21-.19-.53-.19-.96v-.89c0-.43.07-.75.2-.96.13-.21.33-.32.59-.32s.47.11.6.33c.13.22.19.55.19,1v.87Z"
      fill="#0d0e0e" />
    <rect x="156.6" y="274.68" width="1.01" height="4.98" fill="#0d0e0e" />
    <path
      d="M166.54,276.18c0-.48-.14-.85-.41-1.11s-.66-.39-1.17-.39h-1.6v4.98h1.01v-1.82h.5l.75,1.82h1.08v-.05l-.87-2.04c.48-.26.72-.73.72-1.39ZM165.39,276.8c-.1.13-.25.2-.45.2h-.57v-1.48h.59c.39,0,.59.25.59.75,0,.22-.05.4-.15.54Z"
      fill="#0d0e0e" />
    <polygon
      points="173.14 278.82 173.14 277.5 174.71 277.5 174.71 276.69 173.14 276.69 173.14 275.51 174.99 275.51 174.99 274.68 172.14 274.68 172.14 279.65 174.99 279.65 174.99 278.82 173.14 278.82"
      fill="#0d0e0e" />
  </g>
  <rect x="38.59" y="124.27" width="85.34" height=".69" fill="#0d0e0e" />
</svg>