<svg xmlns="http://www.w3.org/2000/svg" viewBox="0 0 840 1680" width="840px" height="1680px">
  <defs></defs>
  <g id="Calque_2" transform="matrix(0.853143, 0, 0, 0.908807, 124.82354, -235.959915)" style="">
    <g id="Calque_1-2" data-name="Calque 1" transform="matrix(1, 0, 0, 1, -119.906425, 260.183319)">
      <path class="cls-1"
        d="M637.17,1098.79c0,38.41-15.01,73.33-39.55,99.16-1.6,1.7-3.27,3.36-4.96,4.99-7.4-6.35-13.04,1.76-34.52-13.59l-32.89-23.49c-3.88-2.77-10.26-5.52-13.01-8.54-5.55-6.07-8.57-6.72-16.06-8.57-16.46-4.04-33.78-11.19-47.75-20.78-8.26-5.67-14.12-9.71-25.31-7.27-11.65,2.53-24.2,3.39-37.24,2.37l-14.64,37.21c-4.96-.19-7.61-1.36-9.83-2.9-.62-1.33-1.17-2.68-1.73-4.04,3.39,1.73,6.66,3.45,9.25,5.02l12.3-30.21c.74-1.76,1.97-3.95.62-4.56l-4.9-2.28,35.97-.15c-6.2-6.16-14.03-7.15-21.08-10.67l-30.67-15.23c1.26.43-3.79-4.13-11.59-9.31.15-2.07.4-4.13.68-6.16,9.28-70.59,69.69-125.09,142.81-125.09,79.59,0,144.11,64.52,144.11,144.07Z"
        style="fill: rgb(29, 29, 27);"></path>
      <g>
        <path class="cls-1"
          d="M459.7,1228c-3.24,1.45-6.53,2.74-9.86,3.91-7.8-3.45-22.22-2.1-28.3-6.44-6.72-4.78-11.37-9.09-20.07-10.7-5.46-1.02-11.93-6.6-18.19-3.05-8.26,4.69-14.83,14.77-20.41,23.18-2.44-.68-4.84-1.42-7.21-2.25,3.73-5.86,9.22-15.63,19.02-23.77,6.29-5.21,12.3-6.16,20.87-3.3l21.3,7.18c3.98,1.36,5.27,6.53,9.71,7.37,8.38,1.54,19.64-1.48,26.57,3.91,2.19,1.73,4.38,3.05,6.57,3.95Z"
          style="fill: rgb(29, 29, 27);"></path>
        <path class="cls-1"
          d="M628.62,1495.58c-3.57-2.35-8.28,0-11.7-2.81-2.35-5.09-6.38-10.14-12.46-9.27-3.5.49-7.29,3.99-10.94,2.05-4.52-2.43-5.51-9.99-10.03-12.08-17.59-8.05-10.79-23.93-35.44-19.64-4.48.8-10.98-3.57-14.28-5.66-7.9-5.09-13.07-2.05-19.67-.15-13.48,3.91-21.12,10.33-29.82,20.7-9,10.82-26.82,10.07-39.24,7.52l-32.32-6.72c-23.17-4.75-17.36,6.42-29.59,16.29-9.38,7.6-28.07-6.46-51.09-6.72v6.99c12.23.08,24.42,7.03,35.67,8.51l9.84,1.33h7.26c2.58-2.2,4.94-4.67,6.68-7.9,2.47-4.6,4.48-13.98,11.39-14.21,3.61-.08,44.06,10.6,47.48,11.05l9.91,1.29c5.32-1.14,42.43-6.12,36.35,4.67h1.94c-.08-1.56,0-3.34.95-4.67.99-1.41,3.42-.57,5.51-2.85-8.77-.99-16.79.76-27.8-1.94,33.12-23.25,7.18-14.21,42.73-28.34,5.43-2.17,12.65,4.75,17.59,6.31,12.27,3.87,18.8-6.19,26.36,6.42,12.12,20.17,15.54,5.43,21.12,22.79-1.67,1.1-4.63-.08-5.39-.91-1.06-1.14.49-2.7.04-4.98-4.44,4.18-8.62,8.58-12.5,13.26h2.85c1.29-1.67,2.66-3.27,4.03-4.9,6.65-7.86,12.08,7.18,24.46,1.56,5.58-2.55,8.13.19,10.52,3.34h20.05c-.15-.11-.3-.23-.46-.34ZM696.72,1491.63c-.87.15-1.63.38-2.43.68v2.05l2.43-1.52,2.54-1.6c-.87,0-1.75.15-2.54.38ZM694.29,1462.27c-.27.42-.53.84-.84,1.22-7.37,10.67-15.42,20.47-22.33,32.44h7.9c4.22-8.28,9.76-15.69,15.27-23.25.8-1.14,1.59-2.24,2.43-3.34v-10.64c-.84,1.18-1.6,2.43-2.43,3.57ZM694.29,1505.76v1.71c.8-.84,1.48-1.75,2.09-2.85l-2.09,1.14ZM694.29,1185.68c-.19-.15-.46-.23-.68-.38-.04,0-.11-.04-.15-.04-5.09-2.24-18.76,10.33-30.69,15.16-.11.04-.23.11-.38.15-2.66,1.03-5.17,2.43-7.71,3.87-4.94,2.73-9.84,5.66-15.54,6.53-.68.11-1.37.19-2.05.27-5.43.34-14.32-1.56-18.95-4.67-5.96-4.1-12.31-4.29-18.04-7.06-.87-.46-1.67-.99-2.47-1.56h-.04c-2.36-1.71-4.44-3.76-7.03-5.24l-.04-.04h-.04c-2.32-1.33-5.01-2.17-8.62-1.86-.53.04-1.1.04-1.71,0l-.15-.04c-.95-.08-1.97-.27-3.08-.57h-.04c-12.19-3.3-33.31-18.38-47.02-27.88-1.67-1.18-3.23-2.24-4.63-3.19-.65-.46-1.25-.84-1.86-1.25h-.04c-.49-.34-.95-.65-1.37-.91-5.73-3.68-10.6-7.33-15.42-12.15-4.14-4.18-11.89-2.66-16.87-5.36l-32.13-17.32-15.69-6.57c-5.93-2.51-18.5-6.12-25.07-1.63-18.38-6.72-35.7-14.97-51.24-25.37-4.75-3.15-9.99-5.89-15.31-8.77-2.2-1.14-4.41-2.35-6.57-3.61-3.72-2.17-7.56-4.33-11.62-6.12v6.19c6.34,2.77,12.53,6.34,17.51,9.72,1.33.87,2.54,1.75,3.68,2.55.72.49,1.37.99,1.98,1.48l.08.04h.04l.04.04.15.08c.42.34.8.61,1.18.91.19.19.38.34.57.46.57.46,1.1.87,1.56,1.25.34.3.65.57.91.8.27.23.49.46.68.65.15.15.27.27.42.38.11.11.19.23.3.3,0,.04.04.08.08.11l.11.11c.04.08.04.11,0,.15,0,0,0,.04-.04.04l30.54,15.19c7.03,3.49,14.89,4.48,21.08,10.64l-35.89.19h-.08l4.9,2.28c.3.15.49.38.57.68.15.76-.3,1.9-.8,2.96-.11.3-.27.61-.38.91l-12.31,30.2c-1.98-1.18-4.29-2.43-6.76-3.72-.8-.42-1.59-.84-2.43-1.25h-.04v-.04h-.04c-6.04-3.11-12.46-6.15-16.48-8.09-.87-.46-3-1.52-3.99-1.52-1.06,0-.72,4.14-1.33,4.94-1.9,2.47-3.87,4.94-5.81,7.37v4.03c1.82-2.13,3.61-4.25,5.28-6.49,2.77-3.65,2.43-4.9,6.19-4.41,11.51,1.67,14.02,5.51,17.89,8.2.53.38,1.14.72,1.79,1.06.61.34,1.33.61,2.09.87.8.27,1.67.46,2.62.65.99.15,2.09.27,3.3.3h.04l14.62-37.18c3.65.3,7.25.42,10.79.42h.83c1.1,0,2.17-.04,3.27-.08.87,0,1.71-.04,2.58-.11.87-.04,1.71-.08,2.55-.15.68-.04,1.33-.08,1.98-.15.76-.08,1.48-.15,2.24-.23,1.1-.11,2.2-.23,3.3-.38,1.1-.15,2.2-.3,3.3-.49,1.06-.15,2.17-.34,3.23-.57,1.06-.15,2.13-.38,3.15-.61.23-.04.46-.08.68-.15.27-.04.49-.08.68-.11.11-.04.19-.04.3-.08.84-.15,1.67-.23,2.43-.3,1.56-.11,3-.11,4.37,0h.04c.72.08,1.4.19,2.05.3.46.08.87.19,1.33.3.65.19,1.29.38,1.9.61.38.11.8.3,1.18.46.76.34,1.52.68,2.28,1.1.38.19.72.38,1.1.61.61.3,1.18.68,1.79,1.06.57.38,1.18.76,1.82,1.18.68.46,1.41.95,2.17,1.44.42.27.8.57,1.22.84,1.75,1.18,3.53,2.35,5.39,3.46,1.48.95,3.04,1.82,4.6,2.7,2.58,1.44,5.28,2.81,8.01,4.1,1.25.57,2.51,1.18,3.8,1.71.38.19.76.34,1.14.49,4.06,1.75,8.2,3.34,12.34,4.71,4.18,1.41,8.32,2.62,12.46,3.61,1.86.46,3.46.84,4.86,1.25h.04c.53.15,1.03.3,1.52.49.59.2,1.14.42,1.68.65.72.34,1.4.68,2.08,1.06.27.19.49.34.76.49.27.15.53.38.8.57.3.23.57.46.84.68.38.3.76.65,1.14,1.03.42.42.87.8,1.33,1.29.3.34.65.68.99,1.06.08.11.19.19.3.3.27.27.57.53.87.8h.04c.23.23.49.46.76.65h.08c.19.19.38.3.61.46h.04c.53.38,1.06.72,1.63,1.06.3.19.57.34.87.53.68.42,1.41.84,2.13,1.25.65.38,1.29.72,1.94,1.1.46.27.91.53,1.33.8.3.19.61.34.87.53.57.34,1.06.68,1.56,1.03l27.99,20.02h.08l4.82,3.46c2.01,1.44,3.91,2.66,5.62,3.72.61.38,1.14.68,1.71,1.03.65.38,1.29.72,1.94,1.03.61.34,1.21.61,1.82.91,1.14.53,2.28.99,3.3,1.41,2.05.8,3.87,1.29,5.55,1.63.42.11.84.19,1.22.23.49.11.95.19,1.41.23.3.04.61.08.91.11,1.25.15,2.35.23,3.42.34.49.08.95.11,1.41.19h.04c.46.08.91.15,1.37.27h.04c.46.11.91.27,1.37.46h.04c.42.15.84.34,1.21.57.46.23.84.49,1.29.8.3.23.57.46.87.68h.04c.95.91,1.94,1.94,3,3.34,3.46,4.52,10.07,2.96,14.24,5.51,5.74,3.57,10.07,7.33,18.69,5.74-.42.91-.91,1.63-1.48,2.28h-.04c-6.91,7.86-24.5-2.13-39.88,12.46-6.12.99-13.14-3.72-18.8-1.75-6.72,2.35-12.12,2.39-17.32.23-2.2-.91-4.37-2.24-6.57-3.95-6.91-5.39-18.19-2.39-26.59-3.91-4.41-.84-5.74-6.04-9.69-7.37l-21.31-7.18c-8.55-2.89-14.58-1.9-20.85,3.27-5.05,4.22-8.96,8.85-12.04,13.14-1.82,2.47-3.34,4.86-4.71,6.99-.84,1.33-1.59,2.55-2.28,3.65-1.1,1.71-2.05,3.11-2.92,4.06-6.31,6.76-14.02,11.39-17.62,20.78-2.85,7.33-9.27,12.19-15.31,16.6-4.98,3.65-8.24,9.08-11.81,13.75-6.27,8.17-15.34,10.64-24.23,14.62-4.33,1.9-6.57,4.94-11.05,4.71-10.83-.61-21,.8-32.06,2.01v10.29c1.67.15,3.38-.04,5.43-1.03,5.66-2.81,12.38-5.39,17.51-.49-6.27,3.87-12.76,6.04-16.03,11.85-2.24,3.99-4.52,6.99-6.91,9.38v9.76c5.09-3.19,10.64-8.05,16.83-16.9,4.79-6.8,14.66-8.81,20.05-14.02,5.47-5.28,9.08-9.57,17.02-11.7,12-3.19,18.46-14.78,27.54-21.95,5.77-4.6,15.42-6.08,22.33-7.75,3.38-.8,3.57,5.74,4.29,7.79,3.3,9.31,7.41,20.32,11.39,29.89,2.16,1.67,1.94-.61,3.46-2.43-5.58-7.67-8.2-16.98-11.47-26.55-1.1-3.15-5.28-6.15-3.87-9.76,1.44-3.72,6.38-1.63,9.34-4.56-8.58-.72-17.93,6.72-25.71,3.46.83-1.22,1.56-2.35,2.24-3.46.68-1.06,1.37-2.13,2.01-3.08.76-1.18,1.48-2.28,2.17-3.3,4.75-7.03,8.2-11.28,15.95-18.27,2.66-2.39,5.51-6.65,8.66-11.47,5.58-8.39,12.12-18.5,20.4-23.17,6.27-3.53,12.72,2.05,18.19,3.08,8.7,1.6,13.33,5.89,20.05,10.67,6.08,4.33,20.51,3,28.3,6.46,1.48.68,2.73,1.48,3.65,2.62-.91.95-11.39,2.28-17.21,1.44-1.98-.3-3.38-.8-3.72-1.67-1.56.57-3.04,1.79-4.48,3.42-5.01,5.77-9.27,16.37-13.98,17.74-3.95,1.22-7.03-1.37-10.64-1.75-4.1-.46-7.94.46-12.27-.68l8.32,3.49c-2.47,2.89-6,3.8-4.86,7.6,3.3-1.97,4.1-5.51,6.95-8.13l15.19,1.56c3.68-5.09,11.58-23.47,22.26-19.26-7.33,16.9-17.78,16.33-24.88,29.51-6.61,12.27-13.33,25.68-24.35,34.37-8.05,6.38-11.32,15.42-18.65,22.3l-8.89,8.32c-6.72,6.27-14.28,11.7-22.37,16.14-5.36,2.92-9.61,9.53-15.65,10.26-3.72-.87-9.04-4.18-13.07-3.76-6.49,3.15-12.88,6.57-19.33,11.01-20.09,13.75-24.76-16.83-38.59-4.98-3.65,3.15-8.09,3.53-12.61,3.87v6.99c5.39-.3,10.71.57,18.23-4.14,2.05-1.29,6.31.08,5.47,2.39l-12.46,35.86c-1.52,4.25-.57,8.62-3.53,13.6-3.49-3.91-5.77-7.37-7.71-10.6v3.87c2.47,3.53,5.09,7.1,8.09,10.82l5.24-15.53c3.61-10.67,6.04-21.99,12.08-31.3,9.12-1.71,18.12-.99,25.87-4.86,7.18-3.61,23.02-16.67,29.85-4.63l-16.1,24.76c2.28-3.49-39.01,41.86-47.93,47.02-6.84,4.03-12.8,7.9-17.09,14.74v6.68c1.6-2.13,3.08-4.25,4.67-6.38,10.18-13.75,22.64-10.71,36.62-32.29,7.03-10.86,17.09-18.23,26.44-26.59,4.6-4.14,10.52-23.51,18.61-26.21,7.98-11.13,30.16-24.57,44.52-28.49,6.27-1.71,13.45-8.43,20.85-5.77,5.85,2.13,7.82,10.75,11.2,15.34,2.17.08,2.28-2.32,2.09-3.68,0,2.58-11.28-14.7-10.37-15.88,4.25-1.44,7.22-2.09,9.8-4.56-4.48-2.36-7.82.95-11.32,2.28l-27.35,10.6c6.04-7.41,12.12-10.79,15.76-19.11,1.67-3.76,7.03-7.79,10.33-10.1,6.31-4.41,8.77-10.22,12.95-16.1,3.57-5.05,7.98-9.12,10.1-15.5,3.04-9.12,9.46-15.84,17.21-21.12,4.6-3.15,6.38-8.62,9.5-12.95,1.63-2.24,5.66-.91,7.41.68l15.99,14.36c3.15,2.81,7.48,4.56,9.61,8.36,6.31,11.47,16.33,17.32,26.66,24.73,5.7,4.1,7.41,13.48,10.79,19.41,5.39,9.38,13.07,15.16,20.21,24.73-9.08.11-16.48-3.49-24.16-6.31-2.13-1.33,1.67-5.24,1.06-7.71-3.42,3.76-6.61,7.98-9.12,13.67,3.08-.23,3.65-3.53,6.38-4.79l25.71,9.61c11.85,4.44,17.4,11.85,21.54,22.64,4.25,11.28,15.12,18.57,18.31,29.74,1.4,4.82,6.65,10.18,8.32,14.93,14.62,7.86,17.28,14.78,21.08,21,.27.46.57.91.84,1.37.68.99,1.41,1.94,2.2,2.92.08.08.15.15.23.27v-10.1c-.08-.19-.15-.38-.23-.57-.27-.61-.53-1.18-.65-1.67-.42-1.52-.95-2.89-1.56-4.06-6.23-13.14-19.98-10.41-22.52-27.31-.87-5.81-6.5-9.5-10.26-14.24-18.69-23.74-6.31-18.99-20.21-32.63l-16.79-16.45c-22.94-22.45-20.21-34.07-29.93-42.05-4.75-3.91-11.93-4.9-15.57-10.41-2.77-4.1-4.75-8.77-9.65-12.69,7.33-7.29,24.61-9.12,34.91-18.99-12.57,4.33-23.55,9.5-34.94,17.51-9.99-8.01-14.13-15.38-26.47-21.73,21.12-.46,22.98-7.18,40.68-2.2,6.76,1.86,11.09-6.46,16.67-6.99l47.48-4.37-6.91,38.78c8.47-2.81,15.65-7.03,21.16-12.53-6.65.61-10.79,7.71-18.31,7.25,3.53-12.08,5.96-21.99,5.32-32.93.42-.11.76-.19,1.14-.27,1.94-.27,3.53.15,4.9.04.19,0,.38-.04.53-.08.19-.04.34-.08.49-.15.19-.04.34-.11.49-.23.08,0,.11-.04.15-.08.15-.08.27-.19.38-.3.04,0,.08-.04.11-.11-2.2-.65-4.29-.99-6.27-1.06h-.08c-.68-.04-1.33-.08-2.01-.04-6.38.15-12.23,2.32-19.67,1.97,2.05-1.94,4.52-3.95,7.25-5.85,2.2-1.6,4.6-3.11,7.06-4.56,7.64-4.52,15.95-8.24,22.11-9.99.87-.23,1.75-.53,2.55-.87h.04c8.66-3.42,15.65-10.71,24.23-13.67.65,0,1.33.11,1.94.27.8.23,1.59.53,2.43.91v-7.37c-.76-.49-1.6-.95-2.43-1.37Z"
          style="fill: rgb(29, 29, 27);"></path>
      </g>
      <g>
        <path class="cls-1"
          d="M335.31,1578.38v4.81h-18.44v14.83h18.44v4.81h-18.44v14.83h18.44v4.81h-23.99v-44.08h23.99Z"
          style="fill: rgb(29, 29, 27);"></path>
        <path class="cls-1"
          d="M347.56,1578.38l25.12,35.23v-35.23h5.54v44.08h-6.13l-24.48-34.34v34.34h-5.54v-44.08h5.48Z"
          style="fill: rgb(29, 29, 27);"></path>
        <path class="cls-1"
          d="M418.08,1578.38l15.96,44.08h-5.76l-6.65-18.32h-11.98l-6.77,18.32h-5.79l16.17-44.08h4.81ZM419.88,1599.36l-4.23-11.7-4.26,11.7h8.49Z"
          style="fill: rgb(29, 29, 27);"></path>
        <path class="cls-1" d="M437.56,1622.46v-44.08h5.54v39.27h15.84v4.81h-21.38Z"
          style="fill: rgb(29, 29, 27);"></path>
        <path class="cls-1" d="M475.02,1583.19v39.27h-5.51v-39.27h-10.54v-4.81h26.56v4.81h-10.51Z"
          style="fill: rgb(29, 29, 27);"></path>
        <path class="cls-1" d="M495.79,1578.38v44.08h-5.54v-44.08h5.54Z"
          style="fill: rgb(29, 29, 27);"></path>
        <path class="cls-1" d="M516.56,1583.19v39.27h-5.51v-39.27h-10.54v-4.81h26.56v4.81h-10.51Z"
          style="fill: rgb(29, 29, 27);"></path>
        <path class="cls-1"
          d="M556.26,1578.38h5.54v31.18c-.47,3.45-1.95,6.42-4.44,8.91-2.88,2.9-6.44,4.35-10.69,4.35s-7.89-1.46-10.81-4.4c-2.92-2.93-4.38-6.41-4.38-10.43v-29.62h5.54v29.62c0,2.82.96,5.19,2.88,7.12,1.92,1.93,4.18,2.9,6.77,2.9s4.81-.96,6.72-2.9c1.91-1.93,2.86-4.3,2.86-7.12v-29.62Z"
          style="fill: rgb(29, 29, 27);"></path>
        <path class="cls-1"
          d="M577.98,1578.38c7.35.04,13.07,2.11,17.15,6.22,4.37,4.41,6.56,9.68,6.56,15.81s-2.23,11.52-6.68,15.99c-4,4-9.68,6.02-17.03,6.07h-9.31v-44.08h9.31ZM574.21,1583.28v34.31h3.74c5.47,0,9.77-1.51,12.9-4.53,3.45-3.45,5.18-7.67,5.18-12.65s-1.73-9.16-5.18-12.65c-3.12-2.98-7.42-4.47-12.9-4.47h-3.74Z"
          style="fill: rgb(29, 29, 27);"></path>
        <path class="cls-1"
          d="M631,1578.38v4.81h-18.44v14.83h18.44v4.81h-18.44v14.83h18.44v4.81h-23.99v-44.08h23.99Z"
          style="fill: rgb(29, 29, 27);"></path>
      </g>
      <g>
        <path class="cls-1"
          d="M320.96,1637.22c-1.33-1.41-3.04-2.09-5.24-2.09h-4.98v18.8h4.86c2.32,0,4.06-.72,5.39-2.13,1.29-1.41,1.98-3.34,1.98-5.81v-3.04c0-2.43-.68-4.33-2.01-5.74ZM318.34,1649.76c-.53.65-1.41.99-2.7.99h-1.14v-12.46h1.4c1.18,0,2.01.42,2.51,1.1.46.65.68,1.9.68,3.65v3.27h.04c0,1.63-.3,2.81-.8,3.46Z"
          style="fill: rgb(29, 29, 27);"></path>
        <polygon class="cls-1"
          points="347.96 1645.79 353.85 1645.79 353.85 1642.74 347.96 1642.74 347.96 1638.32 354.9 1638.32 354.9 1635.16 344.16 1635.16 344.16 1653.93 354.94 1653.93 354.94 1650.76 347.96 1650.76 347.96 1645.79"
          style="fill: rgb(29, 29, 27);"></polygon>
        <path class="cls-1"
          d="M386.44,1636.88c-1.1-1.18-2.62-1.75-4.44-1.75h-6.38v18.8h3.76v-6.61h2.54c1.9,0,3.42-.53,4.52-1.6,1.1-1.03,1.67-2.51,1.67-4.37s-.57-3.3-1.67-4.48ZM383.63,1643.45c-.34.46-.91.72-1.63.72h-2.62v-5.85h2.66c.68,0,1.21.3,1.59.84.42.53.61,1.29.61,2.2s-.19,1.6-.61,2.09Z"
          style="fill: rgb(29, 29, 27);"></path>
        <path class="cls-1"
          d="M417.51,1648.13c0,1.02-.19,1.77-.53,2.22-.34.45-.94.68-1.85.68s-1.55-.23-1.88-.68c-.34-.45-.53-1.21-.53-2.26v-12.93h-3.81v12.89c0,2,.53,3.51,1.58,4.56,1.06,1.06,2.6,1.58,4.6,1.58s3.51-.53,4.56-1.55c1.06-1.02,1.58-2.53,1.62-4.49v-13h-3.77v12.97Z"
          style="fill: rgb(29, 29, 27);"></path>
        <rect class="cls-1" x="442.81" y="1635.16" width="3.81" height="18.77"
          style="fill: rgb(29, 29, 27);"></rect>
        <path class="cls-1"
          d="M474.09,1637.99c.72,0,1.24.23,1.62.68s.57,1.13.57,2h3.77c0-1.13-.23-2.15-.72-3.02-.49-.9-1.17-1.58-2.07-2.07-.9-.49-1.92-.72-3.09-.72-1.73,0-3.17.49-4.26,1.43-1.13.98-1.7,2.22-1.7,3.81,0,1.32.41,2.45,1.24,3.39.83.94,2.19,1.81,4.07,2.49,1.02.41,1.73.83,2.15,1.21.38.38.6.98.6,1.73,0,1.39-.68,2.11-2,2.11-.94,0-1.66-.23-2.07-.72-.41-.49-.64-1.28-.64-2.37h-3.81c0,1.24.3,2.37.83,3.28.57.94,1.36,1.66,2.34,2.15,1.02.49,2.11.75,3.32.75,1.77,0,3.2-.45,4.22-1.39,1.02-.94,1.55-2.19,1.55-3.84,0-1.47-.41-2.71-1.24-3.69-.83-.94-2.15-1.77-4-2.45-1.06-.45-1.77-.87-2.19-1.28s-.6-.87-.6-1.39c0-.68.19-1.21.57-1.58.38-.41.9-.6,1.55-.6v.11Z"
          style="fill: rgb(29, 29, 27);"></path>
        <path class="cls-1"
          d="M532.41,1647.45c1.32-1.58,2.26-2.94,2.79-4,.53-1.06.75-2.15.75-3.2,0-1.7-.45-3.02-1.39-3.96-.9-.94-2.22-1.39-3.88-1.39-1.09,0-2.07.26-2.94.79-.87.53-1.55,1.28-2,2.22-.49.94-.72,2-.72,3.17h3.66c0-.98.19-1.77.53-2.34s.83-.83,1.39-.83c.53,0,.94.23,1.24.72.3.45.41,1.13.41,1.96,0,.6-.15,1.28-.45,1.96-.3.68-.79,1.47-1.43,2.34l-5.09,6.45v2.56h11.04v-3.02h-6.37l2.41-3.43h.04Z"
          style="fill: rgb(29, 29, 27);"></path>
        <path class="cls-1"
          d="M566.59,1636.92c-.95-1.37-2.32-2.01-4.03-2.01s-3.11.65-4.06,2.01c-.91,1.37-1.37,3.34-1.37,5.96v3.53c0,2.51.53,4.41,1.44,5.77.95,1.33,2.28,2.01,4.03,2.01s3.08-.68,4.03-2.09c.95-1.37,1.37-3.34,1.37-5.96v-3.42c0-2.54-.46-4.44-1.41-5.81ZM564.35,1646.91c0,1.44-.19,2.51-.46,3.15-.3.68-.72,1.03-1.29,1.03-.65,0-1.1-.38-1.41-1.1-.3-.68-.46-1.82-.46-3.38v-4.67c.04-2.7.65-4.06,1.82-4.06.57,0,1.03.38,1.33,1.1.3.76.46,1.82.46,3.3v4.63Z"
          style="fill: rgb(29, 29, 27);"></path>
        <polygon class="cls-1"
          points="589.78 1637.91 589.78 1640.96 593.32 1639.61 593.32 1653.93 597.02 1653.93 597.02 1635.12 596.6 1635.12 589.78 1637.91"
          style="fill: rgb(29, 29, 27);"></polygon>
        <path class="cls-1"
          d="M630.9,1646.03h.08c-.46-.76-1.06-1.33-1.86-1.79.68-.42,1.21-.99,1.59-1.71.38-.72.57-1.52.57-2.43,0-1.6-.46-2.89-1.37-3.84-.91-.95-2.17-1.37-3.68-1.37s-2.81.42-3.72,1.37c-.87.95-1.37,2.24-1.37,3.84,0,.91.19,1.75.57,2.43.38.68.91,1.29,1.59,1.71-.8.42-1.37.99-1.82,1.79-.46.76-.68,1.67-.68,2.73,0,1.63.49,2.96,1.48,3.95.95.99,2.28,1.44,3.95,1.44s2.96-.49,3.91-1.44c.95-.99,1.44-2.28,1.44-3.95,0-1.06-.23-1.98-.68-2.73ZM625.16,1638.51c.27-.38.61-.61,1.06-.61.49,0,.87.23,1.1.65.19.46.3,1.03.3,1.71,0,.72-.11,1.33-.3,1.79-.23.46-.61.68-1.06.68s-.84-.23-1.1-.68c-.23-.46-.38-1.06-.38-1.79,0-.68.11-1.33.38-1.75ZM627.51,1650.44c-.27.46-.68.72-1.25.72s-.99-.23-1.33-.72c-.34-.49-.49-1.1-.49-1.94s.15-1.48.49-1.98c.3-.49.76-.72,1.29-.72s.99.23,1.25.72c.3.46.46,1.14.46,1.98s-.15,1.44-.46,1.94h.04Z"
          style="fill: rgb(29, 29, 27);"></path>
      </g>
      <path class="cls-1"
        d="M821.08,1342.6c-3.24,1.45-6.53,2.74-9.86,3.91-7.8-3.45-22.22-2.1-28.3-6.44-6.72-4.78-11.37-9.09-20.07-10.7-5.46-1.02-11.93-6.6-18.19-3.05-8.26,4.69-14.83,14.77-20.41,23.18-2.44-.68-4.84-1.42-7.21-2.25,3.73-5.86,9.22-15.63,19.02-23.77,6.29-5.21,12.3-6.16,20.87-3.3l21.3,7.18c3.98,1.36,5.27,6.53,9.71,7.37,8.38,1.54,19.64-1.48,26.57,3.91,2.19,1.73,4.38,3.05,6.57,3.95Z"
        style="fill: rgb(29, 29, 27);"></path>
      <path class="cls-1"
        d="M706.03,1478.83c-3.68,3.11-8.05,3.49-12.57,3.84v7.03c5.28-.34,10.56.49,17.85-3.99.11-.04.23-.15.34-.19,1.25-.8,3.3-.61,4.56.19h12.08c-8.05-4.29-13.22-14.66-22.26-6.88ZM905.62,1352.16c-2.51.91-11.39,1.9-16.56,1.14-2.01-.3-3.42-.8-3.76-1.67-1.56.57-3.04,1.82-4.44,3.46-5.01,5.74-9.31,16.33-13.98,17.74-3.99,1.14-7.06-1.41-10.67-1.79-4.1-.42-7.98.46-12.27-.68l8.32,3.49c-2.43,2.92-6,3.8-4.82,7.6,3.27-1.98,4.06-5.51,6.95-8.13l15.16,1.56c3.68-5.09,11.62-23.47,22.26-19.26-7.33,16.94-17.78,16.33-24.92,29.55-6.57,12.27-13.29,25.64-24.27,34.34-8.05,6.38-11.32,15.42-18.65,22.3l-8.93,8.32c-6.68,6.27-14.24,11.7-22.33,16.18-5.39,2.92-9.65,9.5-15.69,10.22-3.72-.84-9.04-4.18-13.03-3.76-6.53,3.15-12.91,6.61-19.33,11.05-1.14.76-2.24,1.41-3.3,1.9h10.33c7.79-4.6,17.78-9.5,22.87-.57l-.34.57h6.46c8.66-10.9,29.78-23.55,43.57-27.31,6.31-1.71,13.48-8.39,20.89-5.74,5.85,2.09,7.82,10.71,11.24,15.31,2.13.08,2.28-2.28,2.05-3.65,0,2.54-11.28-14.7-10.37-15.91,4.25-1.41,7.26-2.09,9.8-4.56-4.44-2.35-7.82.95-11.32,2.28l-27.35,10.6c6.04-7.41,12.16-10.79,15.76-19.11,1.67-3.76,7.07-7.79,10.33-10.07,6.3-4.44,8.77-10.26,12.95-16.1,3.57-5.09,7.98-9.15,10.1-15.53,3.04-9.08,9.46-15.84,17.24-21.12,4.6-3.15,6.38-8.62,9.5-12.95,1.63-2.24,5.66-.87,7.37.68l3.19,2.85v-8.55c-.46-.27-.91-.49-1.41-.76.49,0,.95-.04,1.41-.08v-3.84ZM879.34,1337.46c-4.48-.84-5.74-6-9.72-7.37l-21.31-7.18c-8.55-2.85-14.55-1.9-20.85,3.3-5.05,4.18-8.89,8.77-12.08,13.07v.04c-1.79,2.51-3.34,4.86-4.63,6.99-.04,0-.04.04-.04.04-.84,1.29-1.59,2.54-2.28,3.61-1.1,1.75-2.01,3.11-2.89,4.06-6.34,6.76-14.02,11.43-17.66,20.78-2.85,7.33-9.27,12.19-15.27,16.6-4.98,3.65-8.24,9.08-11.81,13.75-6.3,8.17-15.38,10.64-24.27,14.62-4.29,1.94-6.57,4.94-11.05,4.71-9.8-.57-19.14.57-28.98,1.71-1.03.11-2.01.23-3.04.34v10.29c.99.11,1.98.04,3.04-.23.08,0,.15,0,.23-.04.68-.15,1.37-.42,2.13-.8,5.7-2.81,12.34-5.39,17.51-.49-6.27,3.87-12.72,6.08-16.03,11.89-2.28,3.95-4.48,6.95-6.88,9.34v9.8c1.06-.72,2.17-1.44,3.27-2.28,4.18-3.15,8.66-7.67,13.52-14.66,4.82-6.8,14.7-8.81,20.05-14.02,5.43-5.28,9.08-9.57,17.05-11.7,12-3.23,18.42-14.74,27.46-21.95,5.81-4.6,15.46-6.04,22.37-7.75,3.38-.8,3.57,5.77,4.33,7.79,3.27,9.31,7.37,20.32,11.36,29.89,2.17,1.67,1.94-.61,3.46-2.43-5.55-7.67-8.17-16.98-11.47-26.55-1.06-3.19-5.28-6.15-3.84-9.76,1.44-3.68,6.38-1.63,9.34-4.56-8.62-.72-18,6.8-25.75,3.46,9.12-13.9,11.62-18.35,22.41-28.11,2.66-2.35,5.47-6.65,8.62-11.43,5.58-8.43,12.15-18.5,20.4-23.17,6.27-3.57,12.72,2.01,18.23,3.04,8.7,1.6,13.33,5.93,20.05,10.71,6.04,4.33,20.47,2.96,28.26,6.42,1.18.53,2.24,1.18,3.04,1.98v-10.03c-6.91-5.13-18-2.2-26.28-3.72ZM883.33,1271.56c-5.7-3.65-10.6-7.33-15.38-12.15-4.14-4.14-11.93-2.66-16.86-5.32l-24.84-13.41-7.29-3.95-9.42-3.95h-.08l-6.19-2.62c-3.87-1.63-10.63-3.76-16.71-3.76-.76,0-1.56.04-2.32.11-.76.08-1.48.19-2.2.38-.34.08-.68.19-1.03.3l-.68.23h-.04c-.76.3-1.44.65-2.09,1.1-2.32-.84-4.6-1.71-6.88-2.58-.23-.11-.42-.19-.65-.27-2.96-1.18-5.85-2.39-8.74-3.65-2.09-.91-4.18-1.86-6.27-2.85-.11-.04-.27-.11-.38-.15l-.15-.08h-.04c-5.43-2.54-10.71-5.28-15.84-8.17-1.82-1.03-3.61-2.09-5.39-3.19-2.35-1.41-4.67-2.89-6.91-4.44-4.75-3.15-10.03-5.85-15.31-8.74-2.2-1.18-4.41-2.39-6.57-3.65-3.76-2.17-7.56-4.33-11.62-6.08v6.15c1.1.49,2.2.99,3.27,1.52,5.17,2.47,10.1,5.43,14.2,8.2,7.48,4.94,12.42,9.34,11.7,9.34l10.1,5.01,3.11,1.56,8.93,4.44h.04l8.39,4.18c7.07,3.49,14.85,4.52,21.08,10.67l-35.97.15,4.9,2.28c1.37.61.11,2.81-.65,4.56l-3.11,7.63-9.15,22.56c-2.58-1.56-5.89-3.3-9.27-5.01-1.48-.72-2.96-1.52-4.44-2.24-4.56-2.28-9-4.37-12-5.85-.23-.11-.53-.27-.87-.42-.68-.34-1.52-.68-2.2-.91-.04-.04-.08-.04-.11-.04-.3-.08-.57-.11-.8-.11-.08,0-.11,0-.19.04-.04.04-.11.08-.15.15-.08.08-.11.19-.15.3-.08.11-.11.27-.15.46-.23,1.03-.27,2.66-.49,3.49-.04.19-.11.34-.19.46-1.94,2.47-3.87,4.94-5.81,7.37v4.03c1.79-2.13,3.57-4.25,5.24-6.49.61-.8,1.06-1.48,1.48-2.05.38-.53.68-1.03.99-1.41.15-.19.3-.34.46-.46.15-.11.3-.23.46-.3.65-.3,1.44-.34,2.81-.15,2.13.3,3.95.68,5.55,1.1.76.19,1.48.42,2.17.68,1.37.46,2.51.99,3.49,1.56.53.27.99.53,1.4.84.87.53,1.63,1.1,2.36,1.67.99.8,1.94,1.6,2.92,2.32,2.24,1.56,4.86,2.7,9.84,2.92l9.34-23.82,5.28-13.41c11.7.91,22.98.3,33.62-1.67,1.21-.23,2.43-.46,3.65-.72,11.2-2.43,17.05,1.6,25.33,7.29,3.57,2.47,7.41,4.79,11.39,6.91,11.43,6.15,24.12,10.86,36.31,13.86,7.52,1.86,10.48,2.47,16.07,8.58,2.73,3,9.12,5.77,12.99,8.51l19.03,13.6v-7.22c-8.89-6.04-17.13-11.96-22.3-15.27Z"
        style="fill: rgb(29, 29, 27);"></path>
      <path class="cls-1"
        d="M1.22,1036.87c4.71-3.84,10.33-7.6,16.07-10.79,6.68-3.72,13.45-6.68,19.03-8.24,6.31-1.67,13.48-8.36,20.85-5.7,5.85,2.09,7.86,10.71,11.2,15.31,2.2.11,2.32-2.32,2.13-3.65,0,2.54-11.32-14.74-10.37-15.88,4.22-1.48,7.22-2.09,9.8-4.63-4.48-2.32-7.86.99-11.32,2.32l-27.35,10.6c6.04-7.41,12.12-10.79,15.76-19.07,1.63-3.8,6.99-7.82,10.33-10.14,6.31-4.41,8.77-10.22,12.95-16.1,2.66-3.76,5.81-6.99,8.09-11.05.76-1.37,1.44-2.81,1.98-4.41,3.08-9.15,9.46-15.88,17.28-21.19,3.99-2.7,5.89-7.25,8.36-11.2.34-.57.72-1.14,1.1-1.67,1.63-2.28,5.66-.95,7.41.61l15.99,14.4c1.06.95,2.28,1.75,3.46,2.62l.34.19c.72.53,1.48,1.03,2.17,1.56,1.41,1.14,2.73,2.35,3.61,4.03,6.34,11.43,16.37,17.32,26.7,24.73,2.66,1.9,4.44,5.01,5.96,8.36,1.71,3.76,3.04,7.86,4.86,11.01,5.36,9.38,12.99,15.16,20.17,24.76-2.09,0-4.06-.15-5.96-.46l-.04-.04c-6.5-1.03-12.23-3.68-18.16-5.81-2.13-1.33,1.67-5.24,1.06-7.71-3.46,3.68-6.61,7.94-9.12,13.64,3.04-.23,3.65-3.53,6.38-4.79l25.71,9.65c11.85,4.41,17.36,11.81,21.5,22.6,4.29,11.28,15.16,18.57,18.35,29.78,1.33,4.52,6,9.5,7.94,13.98l.34.91c13.94,7.48,17.02,14.09,20.51,20.05.46.8.95,1.56,1.44,2.32.68,1.06,1.41,2.01,2.28,3.04.08.04.08.11.15.15v-10.07c-.38-.84-.72-1.6-.87-2.28-.46-1.52-.95-2.85-1.56-4.06-1.03-2.13-2.24-3.84-3.53-5.28h-.04c-6.84-7.48-16.83-7.82-18.95-22.03-.19-1.25-.57-2.39-1.14-3.46-2.05-3.95-6.15-7.03-9.15-10.79-6.31-8.05-9.08-12.84-10.48-16.14-1.98-4.56-1.41-6.42-4.18-10.29h-.04c-1.1-1.6-2.77-3.53-5.47-6.15l-16.79-16.48c-9.88-9.69-14.97-17.32-18.38-23.55-4.48-8.24-6-13.94-11.55-18.5-4.79-3.87-11.89-4.9-15.53-10.37-.68-.99-1.29-2.01-1.94-3.04l-.04-.04c-1.86-3.08-3.8-6.27-7.1-9.08q-.04-.08-.08-.08s-.04-.08-.11-.08q-.04-.08-.04-.11h-.08l-.04-.04s-.08-.08-.15-.11c0-.11.04-.27-.11-.11-8.32-6.76-12.91-14.74-21.5-20.32-.23.19-.53.23-.84.11-1.9-.68-3.61-1.71-5.51-2.43-1.48-.57-2.96-.8-4.56-.57-1.52.19-2.96.76-4.37,1.41-1.67.87-3.23,1.94-4.71,3.04-.04.08-.11.19-.15.27-7.06,11.7-15.91,12.65-22.22,24.35-2.17,4.06-4.37,8.2-6.72,12.27-4.75,8.32-10.22,16.26-17.62,22.11-8.01,6.34-11.28,15.38-18.61,22.26l-8.89,8.32c-5.74,5.39-12.12,10.14-18.92,14.17-1.14.68-2.28,1.33-3.46,1.98-1.25.68-2.39,1.56-3.53,2.47v8.66Z"
        style="fill: rgb(29, 29, 27);"></path>
      <path class="cls-1"
        d="M204.19,1227.31c3.24,1.45,6.53,2.74,9.86,3.91,7.8-3.45,22.22-2.1,28.3-6.44,6.72-4.78,11.37-9.09,20.07-10.7,5.46-1.02,11.93-6.6,18.19-3.05,8.26,4.69,14.83,14.77,20.41,23.18,2.44-.68,4.84-1.42,7.21-2.25-3.73-5.86-9.22-15.63-19.02-23.77-6.29-5.21-12.3-6.16-20.87-3.3l-21.3,7.18c-3.98,1.36-5.27,6.53-9.71,7.37-8.38,1.54-19.64-1.48-26.57,3.91-2.19,1.73-4.38,3.05-6.57,3.95Z"
        style="fill: rgb(29, 29, 27);"></path>
      <path class="cls-1"
        d="M314.31,1085.3c3.99-2.73,8.81-5.58,13.83-8.01,1.18-.61,2.7-.87,3.91-1.41h.04l-.04-5.81c-3.34,1.48-6.84,2.55-9.99,4.33-.04,0-.04.04-.08.04h-.04c-.57.38-1.18.72-1.75,1.06-2.2,1.25-4.37,2.47-6.57,3.61-5.32,2.89-10.56,5.62-15.31,8.77-3.76,2.51-7.63,4.9-11.58,7.14-5.36,3.11-10.86,5.96-16.56,8.62h-.04c-1.25.65-2.55,1.22-3.84,1.79-6.27,2.85-12.65,5.43-19.22,7.82-6.57-4.48-19.14-.87-25.07,1.6l-15.72,6.57-32.1,17.36c-4.98,2.7-12.72,1.18-16.87,5.36-4.82,4.82-9.72,8.47-15.42,12.15-13.29,8.51-47.4,34.91-59.9,33.84-7.71-.65-11.24,3.95-15.76,7.14-.8.57-1.59,1.1-2.47,1.52-5.74,2.81-12.08,2.96-18.04,7.1-4.63,3.11-13.52,5.01-18.95,4.63-9.65-.61-16.94-7.37-25.3-10.64-.08-.04-.19-.08-.27-.11v8.28c10.6,3.57,25.52,11.7,33.54,19.45-10.56.46-17.97-4.06-28.03-.91,2.05,2.01,4.56.19,8.2,1.22-.65,10.94,1.78,20.85,5.28,32.93-7.52.46-11.66-6.65-18.31-7.25,5.51,5.51,12.72,9.72,21.16,12.5l-6.88-38.74,47.44,4.37c5.62.53,9.95,8.85,16.71,6.95,17.66-4.94,19.52,1.75,40.64,2.24-12.31,6.34-16.45,13.71-26.44,21.73-11.39-8.01-22.41-13.18-34.94-17.51,10.26,9.84,27.58,11.7,34.91,18.99-4.9,3.91-6.91,8.55-9.65,12.69-3.68,5.51-10.83,6.5-15.57,10.41-9.72,7.98-6.99,19.6-29.93,42.05l-16.79,16.45c-13.9,13.64-1.52,8.89-20.21,32.63-.38.46-.72.91-1.14,1.33v12.38c4.22-9.15,13.14-16.03,16.9-25.98,4.14-10.79,9.65-18.19,21.54-22.64l25.68-9.61c2.77,1.25,3.34,4.56,6.42,4.75-2.51-5.7-5.7-9.91-9.12-13.64-.61,2.47,3.19,6.38,1.06,7.71-7.67,2.81-15.08,6.42-24.16,6.31,7.14-9.57,14.81-15.34,20.21-24.73,3.38-5.93,5.09-15.31,10.79-19.41,10.29-7.41,20.36-13.29,26.66-24.73,2.09-3.8,6.46-5.55,9.61-8.36l15.99-14.36c1.75-1.6,5.74-2.92,7.41-.68,3.08,4.33,4.9,9.8,9.46,12.95,7.79,5.28,14.17,12,17.24,21.12,2.13,6.34,6.53,10.41,10.1,15.5,4.18,5.89,6.65,11.7,12.95,16.1,3.3,2.32,8.66,6.31,10.33,10.1,3.65,8.32,9.72,11.7,15.76,19.11l-27.35-10.6c-3.49-1.33-6.84-4.67-11.32-2.32,2.58,2.51,5.55,3.15,9.8,4.6.91,1.18-10.37,18.46-10.37,15.88-.19,1.37-.08,3.76,2.09,3.68,3.38-4.6,5.36-13.26,11.2-15.35,7.41-2.66,14.59,4.06,20.85,5.74,14.36,3.95,36.54,17.36,44.52,28.53,8.09,2.7,14.02,22.07,18.61,26.21,9.34,8.36,19.41,15.72,26.44,26.59,13.98,21.57,26.44,18.54,36.62,32.25,1.59,2.17,3.08,4.29,4.63,6.42v-6.68c-4.25-6.84-10.22-10.71-17.05-14.74-8.93-5.17-50.21-50.52-47.93-47.02l-16.1-24.76c6.84-12.04,22.68,1.03,29.85,4.63,7.75,3.87,16.75,3.15,25.87,4.86,6.04,9.31,8.47,20.62,12.08,31.3l5.24,15.53c3-3.72,5.62-7.29,8.05-10.82v-3.87c-1.9,3.23-4.18,6.68-7.71,10.6-2.92-4.98-1.98-9.34-3.5-13.64l-12.46-35.82c-.84-2.32,3.42-3.68,5.47-2.39,7.52,4.71,12.84,3.84,18.19,4.14v-7.03c-4.52-.3-8.93-.68-12.57-3.84-13.86-11.85-18.54,18.73-38.59,4.98-6.46-4.44-12.84-7.86-19.33-11.01-4.06-.46-9.34,2.89-13.07,3.76-6.04-.72-10.29-7.33-15.69-10.26-8.05-4.44-15.65-9.88-22.33-16.14l-8.89-8.32c-7.33-6.91-10.6-15.91-18.65-22.3-11.02-8.7-17.74-22.11-24.35-34.37-7.1-13.18-17.55-12.61-24.88-29.55,10.67-4.18,18.57,14.21,22.26,19.3l15.19-1.6c2.85,2.66,3.65,6.19,6.91,8.17,1.18-3.8-2.36-4.71-4.82-7.63l8.32-3.49c-4.33,1.18-8.17.27-12.27.72-3.61.38-6.68,2.96-10.67,1.75-4.67-1.37-8.93-11.96-13.98-17.74-1.4-1.63-2.89-2.85-4.44-3.42-.34.87-1.79,1.37-3.72,1.67-5.81.8-16.33-.49-17.21-1.48.87-1.1,2.16-1.9,3.65-2.62,7.79-3.42,22.22-2.09,28.3-6.42,6.72-4.79,11.36-9.08,20.05-10.67,5.47-1.03,11.93-6.61,18.19-3.08,8.24,4.67,14.81,14.78,20.4,23.17,3.15,4.82,5.96,9.08,8.66,11.47,10.79,9.72,13.26,14.17,22.37,28.11-7.75,3.3-17.13-4.18-25.71-3.49,2.96,2.96,7.9.87,9.31,4.6,1.44,3.61-2.73,6.61-3.84,9.76-3.3,9.57-5.89,18.84-11.47,26.55,1.52,1.82,1.29,4.1,3.46,2.43,3.99-9.57,8.09-20.59,11.39-29.89.72-2.05.91-8.58,4.29-7.79,6.91,1.67,16.56,3.15,22.33,7.75,9.08,7.18,15.54,18.76,27.54,21.95,7.94,2.13,11.55,6.42,17.02,11.7,5.39,5.2,15.27,7.22,20.06,14.02,6.19,8.85,11.7,13.71,16.79,16.9v-9.76c-2.36-2.43-4.63-5.39-6.88-9.38-3.3-5.81-9.76-7.98-16.03-11.89,5.13-4.9,11.85-2.28,17.51.53,2.01.99,3.72,1.18,5.39,1.03v-10.29c-11.02-1.25-21.19-2.62-32.02-2.01-4.48.23-6.72-2.81-11.05-4.75-8.89-3.95-17.97-6.42-24.23-14.59-3.57-4.67-6.88-10.1-11.81-13.75-6.04-4.44-12.46-9.27-15.31-16.6-3.61-9.38-11.32-14.02-17.66-20.78-.84-.95-1.79-2.35-2.89-4.06-.68-1.1-1.44-2.32-2.28-3.65-1.37-2.13-2.89-4.48-4.71-6.99v-.04c-3.08-4.29-6.99-8.93-12.04-13.1-6.27-5.2-12.31-6.15-20.85-3.27l-21.31,7.18c-3.95,1.33-5.28,6.53-9.72,7.37-8.36,1.52-19.64-1.48-26.55,3.91-2.2,1.71-4.41,3.04-6.57,3.95-5.2,2.17-10.6,2.13-17.32-.23-5.66-1.97-12.69,2.73-18.8,1.75-16.64-15.76-35.82-2.81-41.4-14.74,8.62,1.6,12.91-2.17,18.69-5.74,4.18-2.58,10.79-.99,14.21-5.51,1.1-1.41,2.09-2.51,3.08-3.34,7.41-6.34,13.07,1.79,34.53-13.6l32.89-23.47c3.87-2.77,10.26-5.51,13.03-8.55,5.51-6.08,8.55-6.72,16.03-8.58,16.48-4.03,33.81-11.17,47.74-20.74,8.28-5.7,14.13-9.72,25.34-7.29,11.66,2.54,24.16,3.42,37.22,2.35l14.62,37.22c4.98-.19,7.63-1.37,9.84-2.89,3.84-2.7,6.38-6.53,17.89-8.2,3.76-.53,3.42.72,6.19,4.41,1.67,2.24,3.46,4.37,5.24,6.5v-4.03c-1.9-2.43-3.87-4.9-5.77-7.41-.65-.8-.27-4.9-1.33-4.9s-3.11,1.06-3.99,1.52c-4.03,1.94-10.45,4.98-16.48,8.09-3.42,1.71-6.65,3.46-9.27,5.01l-12.31-30.23c-.72-1.75-1.98-3.95-.61-4.56l4.9-2.28-35.97-.15c5.62-5.58,12.53-6.91,19.07-9.69.04-.04.08-.04.11-.08h.04c.65-.27,1.25-.57,1.86-.87l24.69-12.27h.04l5.85-2.92c-.72,0,4.22-4.41,11.7-9.34ZM280.73,1485.14c-12.23-9.91-6.42-21.04-29.59-16.29l-32.32,6.72c-12.42,2.55-30.27,3.3-39.24-7.52-8.7-10.37-16.33-16.79-29.82-20.7-6.61-1.9-11.78-4.94-19.71.15-3.27,2.09-9.76,6.46-14.24,5.66-24.65-4.29-17.85,11.55-35.44,19.64-4.52,2.09-5.51,9.61-10.03,12.08-3.65,1.94-7.44-1.56-10.94-2.05-6.08-.91-10.1,4.18-12.46,9.27-3.42,2.81-8.13.46-11.7,2.81-.15.11-.3.23-.49.34h20.09c2.36-3.15,4.94-5.89,10.48-3.38,12.42,5.62,17.85-9.38,24.5-1.52,1.37,1.63,2.74,3.23,3.99,4.9h2.89c-3.87-4.67-8.05-9.08-12.53-13.26-.42,2.28,1.14,3.84.04,4.98-.76.84-3.68,2.01-5.36.87,5.55-17.32,9-2.62,21.12-22.75,7.56-12.65,14.09-2.54,26.36-6.42,4.94-1.56,12.15-8.51,17.59-6.31,35.55,14.13,9.61,5.09,42.73,28.34-11.02,2.7-19.03.95-27.8,1.94,2.09,2.28,4.52,1.44,5.51,2.85.95,1.33.99,3.11.95,4.63h1.94c-6.08-10.75,31.03-5.77,36.35-4.63l9.87-1.33c3.46-.42,43.91-11.13,47.52-11.02,6.91.23,8.89,9.61,11.36,14.17,1.79,3.27,4.14,5.74,6.72,7.94h7.26l9.84-1.33c11.24-1.48,23.44-8.43,35.63-8.51v-7.03c-23.02.27-41.7,14.36-51.05,6.76Z"
        style="fill: rgb(29, 29, 27);"></path>
      <path class="cls-1" d="M860.05,1048.72c-.05.03-.08.08-.13.11,0-.13,0-.24.13-.11Z"
        style="fill: rgb(29, 29, 27);"></path>
      <path class="cls-1"
        d="M905.62,1035.65v8.85c-.11-.08-.27-.19-.38-.27-4.6-3.15-6.38-8.62-9.5-12.95-.11-.19-.27-.34-.46-.46-1.82-1.56-5.32-.34-6.95,1.14l-2.66,2.39-13.33,11.93c-2.35,2.13-5.39,3.65-7.63,5.89-.76.72-1.41,1.56-1.94,2.51-6.3,11.47-16.37,17.32-26.66,24.73-3.84,2.77-5.85,7.82-7.82,12.65-.15.42-.34.84-.49,1.25-.8,1.98-1.56,3.87-2.51,5.51-4.29,7.52-10.1,12.72-15.88,19.41-1.48,1.67-2.92,3.42-4.33,5.32,9.08.11,16.52-3.53,24.16-6.31.91-.57.76-1.56.34-2.73-.61-1.63-1.75-3.53-1.41-4.98,1.33,1.41,2.58,2.92,3.8,4.52,1.98,2.62,3.8,5.58,5.32,9.12-3.04-.19-3.65-3.49-6.38-4.79l-25.71,9.65c-1.56.57-3.04,1.25-4.37,1.94-4.71,2.39-8.24,5.39-10.98,9.12h-.04c-2.51,3.3-4.44,7.14-6.11,11.55-1.06,2.77-2.51,5.28-4.14,7.67-.46.65-.91,1.29-1.37,1.94-4.82,6.61-10.64,12.5-12.84,20.17-.19.65-.46,1.33-.8,2.01-.46.99-1.03,2.01-1.67,3.04-.72,1.14-1.52,2.32-2.24,3.46-1.48,2.2-2.85,4.33-3.57,6.38-9.31,4.98-13.75,9.61-16.75,13.9-.38.53-.72,1.06-1.06,1.6-1.25,1.97-2.28,3.87-3.42,5.7-.23.42-.46.8-.72,1.22-.3.42-.61.87-.91,1.29-.46.65-.95,1.25-1.48,1.86v-10.07c.38-.84.65-1.56.87-2.28.08-.3.19-.61.27-.91.23-.76.49-1.48.8-2.17.15-.34.27-.68.46-.99,4.29-9.08,12.19-10.56,17.47-16.18v-.04c1.52-1.6,2.81-3.49,3.76-6,.08-.15.11-.3.15-.46.49-1.37.87-2.89,1.14-4.63.87-5.7,6.31-9.34,10.1-14.02l.04-.04c.04-.08.11-.11.15-.19.76-.91,1.44-1.82,2.05-2.66h.04c1.18-1.6,2.2-3.04,3.11-4.37,6.65-9.57,6.19-12.5,7.56-15.99.53-1.37,1.37-2.85,3-4.86,1.06-1.29,2.47-2.81,4.41-4.71l2.81-2.77,7.41-7.25h.04l6.53-6.42c.76-.76,1.48-1.48,2.16-2.2,6.12-6.27,10.22-11.58,13.18-16.22.87-1.33,1.6-2.55,2.28-3.76.95-1.71,1.79-3.27,2.54-4.79,3.23-6.46,5.01-11.2,9.76-15.08,4.75-3.91,11.93-4.9,15.57-10.41,1.9-2.81,3.46-5.89,5.77-8.77.95-1.22,2.05-2.39,3.42-3.49t.04-.04c.04-.08.08-.11.11-.11.08-.04.11-.08.15-.11t.04-.04s.04-.04.04-.04c.04,0,.08-.04.08-.08,3.19-2.54,5.85-5.32,8.36-8.05,1.59-1.71,3.11-3.42,4.71-5.05,2.54-2.58,5.2-5.05,8.43-7.18.27.15.57.19.84.11,1.86-.72,3.61-1.75,5.47-2.47,1.48-.57,3-.76,4.6-.57,1.52.23,3,.76,4.33,1.44.19.08.34.19.53.3,1.03.53,1.98,1.14,2.92,1.79.42.3.87.61,1.29.91,1.33,2.24,2.7,4.1,4.1,5.7Z"
        style="fill: rgb(29, 29, 27);"></path>
      <path class="cls-1"
        d="M637.17,1098.79c0,38.41-15.01,73.33-39.55,99.16-1.6,1.7-3.27,3.36-4.96,4.99-7.4-6.35-13.04,1.76-34.52-13.59l-32.89-23.49c-3.88-2.77-10.26-5.52-13.01-8.54-5.55-6.07-8.57-6.72-16.06-8.57-16.46-4.04-33.78-11.19-47.75-20.78-8.26-5.67-14.12-9.71-25.31-7.27-11.65,2.53-24.2,3.39-37.24,2.37l-14.64,37.21c-4.96-.19-7.61-1.36-9.83-2.9-.62-1.33-1.17-2.68-1.73-4.04,3.39,1.73,6.66,3.45,9.25,5.02l12.3-30.21c.74-1.76,1.97-3.95.62-4.56l-4.9-2.28,35.97-.15c-6.2-6.16-14.03-7.15-21.08-10.67l-30.67-15.23c1.26.43-3.79-4.13-11.59-9.31.15-2.07.4-4.13.68-6.16,9.28-70.59,69.69-125.09,142.81-125.09,79.59,0,144.11,64.52,144.11,144.07Z"
        style="fill: rgb(29, 29, 27);"></path>
      <g>
        <path class="cls-1"
          d="M459.7,1228c-3.24,1.45-6.53,2.74-9.86,3.91-7.8-3.45-22.22-2.1-28.3-6.44-6.72-4.78-11.37-9.09-20.07-10.7-5.46-1.02-11.93-6.6-18.19-3.05-8.26,4.69-14.83,14.77-20.41,23.18-2.44-.68-4.84-1.42-7.21-2.25,3.73-5.86,9.22-15.63,19.02-23.77,6.29-5.21,12.3-6.16,20.87-3.3l21.3,7.18c3.98,1.36,5.27,6.53,9.71,7.37,8.38,1.54,19.64-1.48,26.57,3.91,2.19,1.73,4.38,3.05,6.57,3.95Z"
          style="fill: rgb(29, 29, 27);"></path>
        <path class="cls-1"
          d="M628.62,1495.58c-3.57-2.35-8.28,0-11.7-2.81-2.35-5.09-6.38-10.14-12.46-9.27-3.5.49-7.29,3.99-10.94,2.05-4.52-2.43-5.51-9.99-10.03-12.08-17.59-8.05-10.79-23.93-35.44-19.64-4.48.8-10.98-3.57-14.28-5.66-7.9-5.09-13.07-2.05-19.67-.15-13.48,3.91-21.12,10.33-29.82,20.7-9,10.82-26.82,10.07-39.24,7.52l-32.32-6.72c-23.17-4.75-17.36,6.42-29.59,16.29-9.38,7.6-28.07-6.46-51.09-6.72v6.99c12.23.08,24.42,7.03,35.67,8.51l9.84,1.33h7.26c2.58-2.2,4.94-4.67,6.68-7.9,2.47-4.6,4.48-13.98,11.39-14.21,3.61-.08,44.06,10.6,47.48,11.05l9.91,1.29c5.32-1.14,42.43-6.12,36.35,4.67h1.94c-.08-1.56,0-3.34.95-4.67.99-1.41,3.42-.57,5.51-2.85-8.77-.99-16.79.76-27.8-1.94,33.12-23.25,7.18-14.21,42.73-28.34,5.43-2.17,12.65,4.75,17.59,6.31,12.27,3.87,18.8-6.19,26.36,6.42,12.12,20.17,15.54,5.43,21.12,22.79-1.67,1.1-4.63-.08-5.39-.91-1.06-1.14.49-2.7.04-4.98-4.44,4.18-8.62,8.58-12.5,13.26h2.85c1.29-1.67,2.66-3.27,4.03-4.9,6.65-7.86,12.08,7.18,24.46,1.56,5.58-2.55,8.13.19,10.52,3.34h20.05c-.15-.11-.3-.23-.46-.34ZM696.72,1491.63c-.87.15-1.63.38-2.43.68v2.05l2.43-1.52,2.54-1.6c-.87,0-1.75.15-2.54.38ZM694.29,1462.27c-.27.42-.53.84-.84,1.22-7.37,10.67-15.42,20.47-22.33,32.44h7.9c4.22-8.28,9.76-15.69,15.27-23.25.8-1.14,1.59-2.24,2.43-3.34v-10.64c-.84,1.18-1.6,2.43-2.43,3.57ZM694.29,1505.76v1.71c.8-.84,1.48-1.75,2.09-2.85l-2.09,1.14ZM694.29,1185.68c-.19-.15-.46-.23-.68-.38-.04,0-.11-.04-.15-.04-5.09-2.24-18.76,10.33-30.69,15.16-.11.04-.23.11-.38.15-2.66,1.03-5.17,2.43-7.71,3.87-4.94,2.73-9.84,5.66-15.54,6.53-.68.11-1.37.19-2.05.27-5.43.34-14.32-1.56-18.95-4.67-5.96-4.1-12.31-4.29-18.04-7.06-.87-.46-1.67-.99-2.47-1.56h-.04c-2.36-1.71-4.44-3.76-7.03-5.24l-.04-.04h-.04c-2.32-1.33-5.01-2.17-8.62-1.86-.53.04-1.1.04-1.71,0l-.15-.04c-.95-.08-1.97-.27-3.08-.57h-.04c-12.19-3.3-33.31-18.38-47.02-27.88-1.67-1.18-3.23-2.24-4.63-3.19-.65-.46-1.25-.84-1.86-1.25h-.04c-.49-.34-.95-.65-1.37-.91-5.73-3.68-10.6-7.33-15.42-12.15-4.14-4.18-11.89-2.66-16.87-5.36l-32.13-17.32-15.69-6.57c-5.93-2.51-18.5-6.12-25.07-1.63-18.38-6.72-35.7-14.97-51.24-25.37-4.75-3.15-9.99-5.89-15.31-8.77-2.2-1.14-4.41-2.35-6.57-3.61-3.72-2.17-7.56-4.33-11.62-6.12v6.19c6.34,2.77,12.53,6.34,17.51,9.72,1.33.87,2.54,1.75,3.68,2.55.72.49,1.37.99,1.98,1.48l.08.04h.04l.04.04.15.08c.42.34.8.61,1.18.91.19.19.38.34.57.46.57.46,1.1.87,1.56,1.25.34.3.65.57.91.8.27.23.49.46.68.65.15.15.27.27.42.38.11.11.19.23.3.3,0,.04.04.08.08.11l.11.11c.04.08.04.11,0,.15,0,0,0,.04-.04.04l30.54,15.19c7.03,3.49,14.89,4.48,21.08,10.64l-35.89.19h-.08l4.9,2.28c.3.15.49.38.57.68.15.76-.3,1.9-.8,2.96-.11.3-.27.61-.38.91l-12.31,30.2c-1.98-1.18-4.29-2.43-6.76-3.72-.8-.42-1.59-.84-2.43-1.25h-.04v-.04h-.04c-6.04-3.11-12.46-6.15-16.48-8.09-.87-.46-3-1.52-3.99-1.52-1.06,0-.72,4.14-1.33,4.94-1.9,2.47-3.87,4.94-5.81,7.37v4.03c1.82-2.13,3.61-4.25,5.28-6.49,2.77-3.65,2.43-4.9,6.19-4.41,11.51,1.67,14.02,5.51,17.89,8.2.53.38,1.14.72,1.79,1.06.61.34,1.33.61,2.09.87.8.27,1.67.46,2.62.65.99.15,2.09.27,3.3.3h.04l14.62-37.18c3.65.3,7.25.42,10.79.42h.83c1.1,0,2.17-.04,3.27-.08.87,0,1.71-.04,2.58-.11.87-.04,1.71-.08,2.55-.15.68-.04,1.33-.08,1.98-.15.76-.08,1.48-.15,2.24-.23,1.1-.11,2.2-.23,3.3-.38,1.1-.15,2.2-.3,3.3-.49,1.06-.15,2.17-.34,3.23-.57,1.06-.15,2.13-.38,3.15-.61.23-.04.46-.08.68-.15.27-.04.49-.08.68-.11.11-.04.19-.04.3-.08.84-.15,1.67-.23,2.43-.3,1.56-.11,3-.11,4.37,0h.04c.72.08,1.4.19,2.05.3.46.08.87.19,1.33.3.65.19,1.29.38,1.9.61.38.11.8.3,1.18.46.76.34,1.52.68,2.28,1.1.38.19.72.38,1.1.61.61.3,1.18.68,1.79,1.06.57.38,1.18.76,1.82,1.18.68.46,1.41.95,2.17,1.44.42.27.8.57,1.22.84,1.75,1.18,3.53,2.35,5.39,3.46,1.48.95,3.04,1.82,4.6,2.7,2.58,1.44,5.28,2.81,8.01,4.1,1.25.57,2.51,1.18,3.8,1.71.38.19.76.34,1.14.49,4.06,1.75,8.2,3.34,12.34,4.71,4.18,1.41,8.32,2.62,12.46,3.61,1.86.46,3.46.84,4.86,1.25h.04c.53.15,1.03.3,1.52.49.59.2,1.14.42,1.68.65.72.34,1.4.68,2.08,1.06.27.19.49.34.76.49.27.15.53.38.8.57.3.23.57.46.84.68.38.3.76.65,1.14,1.03.42.42.87.8,1.33,1.29.3.34.65.68.99,1.06.08.11.19.19.3.3.27.27.57.53.87.8h.04c.23.23.49.46.76.65h.08c.19.19.38.3.61.46h.04c.53.38,1.06.72,1.63,1.06.3.19.57.34.87.53.68.42,1.41.84,2.13,1.25.65.38,1.29.72,1.94,1.1.46.27.91.53,1.33.8.3.19.61.34.87.53.57.34,1.06.68,1.56,1.03l27.99,20.02h.08l4.82,3.46c2.01,1.44,3.91,2.66,5.62,3.72.61.38,1.14.68,1.71,1.03.65.38,1.29.72,1.94,1.03.61.34,1.21.61,1.82.91,1.14.53,2.28.99,3.3,1.41,2.05.8,3.87,1.29,5.55,1.63.42.11.84.19,1.22.23.49.11.95.19,1.41.23.3.04.61.08.91.11,1.25.15,2.35.23,3.42.34.49.08.95.11,1.41.19h.04c.46.08.91.15,1.37.27h.04c.46.11.91.27,1.37.46h.04c.42.15.84.34,1.21.57.46.23.84.49,1.29.8.3.23.57.46.87.68h.04c.95.91,1.94,1.94,3,3.34,3.46,4.52,10.07,2.96,14.24,5.51,5.74,3.57,10.07,7.33,18.69,5.74-.42.91-.91,1.63-1.48,2.28h-.04c-6.91,7.86-24.5-2.13-39.88,12.46-6.12.99-13.14-3.72-18.8-1.75-6.72,2.35-12.12,2.39-17.32.23-2.2-.91-4.37-2.24-6.57-3.95-6.91-5.39-18.19-2.39-26.59-3.91-4.41-.84-5.74-6.04-9.69-7.37l-21.31-7.18c-8.55-2.89-14.58-1.9-20.85,3.27-5.05,4.22-8.96,8.85-12.04,13.14-1.82,2.47-3.34,4.86-4.71,6.99-.84,1.33-1.59,2.55-2.28,3.65-1.1,1.71-2.05,3.11-2.92,4.06-6.31,6.76-14.02,11.39-17.62,20.78-2.85,7.33-9.27,12.19-15.31,16.6-4.98,3.65-8.24,9.08-11.81,13.75-6.27,8.17-15.34,10.64-24.23,14.62-4.33,1.9-6.57,4.94-11.05,4.71-10.83-.61-21,.8-32.06,2.01v10.29c1.67.15,3.38-.04,5.43-1.03,5.66-2.81,12.38-5.39,17.51-.49-6.27,3.87-12.76,6.04-16.03,11.85-2.24,3.99-4.52,6.99-6.91,9.38v9.76c5.09-3.19,10.64-8.05,16.83-16.9,4.79-6.8,14.66-8.81,20.05-14.02,5.47-5.28,9.08-9.57,17.02-11.7,12-3.19,18.46-14.78,27.54-21.95,5.77-4.6,15.42-6.08,22.33-7.75,3.38-.8,3.57,5.74,4.29,7.79,3.3,9.31,7.41,20.32,11.39,29.89,2.16,1.67,1.94-.61,3.46-2.43-5.58-7.67-8.2-16.98-11.47-26.55-1.1-3.15-5.28-6.15-3.87-9.76,1.44-3.72,6.38-1.63,9.34-4.56-8.58-.72-17.93,6.72-25.71,3.46h-.04c.8-1.22,1.56-2.35,2.28-3.46.68-1.06,1.37-2.13,2.01-3.08.76-1.18,1.48-2.28,2.17-3.3,4.75-7.03,8.2-11.28,15.95-18.27,2.66-2.39,5.51-6.65,8.66-11.47,5.58-8.39,12.12-18.5,20.4-23.17,6.27-3.53,12.72,2.05,18.19,3.08,8.7,1.6,13.33,5.89,20.05,10.67,6.08,4.33,20.51,3,28.3,6.46,1.48.68,2.73,1.48,3.65,2.62-.91.95-11.39,2.28-17.21,1.44-1.98-.3-3.38-.8-3.72-1.67-1.56.57-3.04,1.79-4.48,3.42-5.01,5.77-9.27,16.37-13.98,17.74-3.95,1.22-7.03-1.37-10.64-1.75-4.1-.46-7.94.46-12.27-.68l8.32,3.49c-2.47,2.89-6,3.8-4.86,7.6,3.3-1.97,4.1-5.51,6.95-8.13l15.19,1.56c3.68-5.09,11.58-23.47,22.26-19.26-7.33,16.9-17.78,16.33-24.88,29.51-6.61,12.27-13.33,25.68-24.35,34.37-8.05,6.38-11.32,15.42-18.65,22.3l-8.89,8.32c-6.72,6.27-14.28,11.7-22.37,16.14-5.36,2.92-9.61,9.53-15.65,10.26-3.72-.87-9.04-4.18-13.07-3.76-6.49,3.15-12.88,6.57-19.33,11.01-20.09,13.75-24.76-16.83-38.59-4.98-3.65,3.15-8.09,3.53-12.61,3.87v6.99c5.39-.3,10.71.57,18.23-4.14,2.05-1.29,6.31.08,5.47,2.39l-12.46,35.86c-1.52,4.25-.57,8.62-3.53,13.6-3.49-3.91-5.77-7.37-7.71-10.6v3.87c2.47,3.53,5.09,7.1,8.09,10.82l5.24-15.53c3.61-10.67,6.04-21.99,12.08-31.3,9.12-1.71,18.12-.99,25.87-4.86,7.18-3.61,23.02-16.67,29.85-4.63l-16.1,24.76c2.28-3.49-39.01,41.86-47.93,47.02-6.84,4.03-12.8,7.9-17.09,14.74v6.68c1.6-2.13,3.08-4.25,4.67-6.38,10.18-13.75,22.64-10.71,36.62-32.29,7.03-10.86,17.09-18.23,26.44-26.59,4.6-4.14,10.52-23.51,18.61-26.21,7.98-11.13,30.16-24.57,44.52-28.49,6.27-1.71,13.45-8.43,20.85-5.77,5.85,2.13,7.82,10.75,11.2,15.34,2.17.08,2.28-2.32,2.09-3.68,0,2.58-11.28-14.7-10.37-15.88,4.25-1.44,7.22-2.09,9.8-4.56-4.48-2.36-7.82.95-11.32,2.28l-27.35,10.6c6.04-7.41,12.12-10.79,15.76-19.11,1.67-3.76,7.03-7.79,10.33-10.1,6.31-4.41,8.77-10.22,12.95-16.1,3.57-5.05,7.98-9.12,10.1-15.5,3.04-9.12,9.46-15.84,17.21-21.12,4.6-3.15,6.38-8.62,9.5-12.95,1.63-2.24,5.66-.91,7.41.68l15.99,14.36c3.15,2.81,7.48,4.56,9.61,8.36,6.31,11.47,16.33,17.32,26.66,24.73,5.7,4.1,7.41,13.48,10.79,19.41,5.39,9.38,13.07,15.16,20.21,24.73-9.08.11-16.48-3.49-24.16-6.31-2.13-1.33,1.67-5.24,1.06-7.71-3.42,3.76-6.61,7.98-9.12,13.67,3.08-.23,3.65-3.53,6.38-4.79l25.71,9.61c11.85,4.44,17.4,11.85,21.54,22.64,4.25,11.28,15.12,18.57,18.31,29.74,1.4,4.82,6.65,10.18,8.32,14.93,14.62,7.86,17.28,14.78,21.08,21,.27.46.57.91.84,1.37.68.99,1.41,1.94,2.2,2.92.08.08.15.15.23.27v-10.1c-.08-.19-.15-.38-.23-.57-.27-.61-.53-1.18-.65-1.67-.42-1.52-.95-2.89-1.56-4.06-6.23-13.14-19.98-10.41-22.52-27.31-.87-5.81-6.5-9.5-10.26-14.24-18.69-23.74-6.31-18.99-20.21-32.63l-16.79-16.45c-22.94-22.45-20.21-34.07-29.93-42.05-4.75-3.91-11.93-4.9-15.57-10.41-2.77-4.1-4.75-8.77-9.65-12.69,7.33-7.29,24.61-9.12,34.91-18.99-12.57,4.33-23.55,9.5-34.94,17.51-9.99-8.01-14.13-15.38-26.47-21.73,21.12-.46,22.98-7.18,40.68-2.2,6.76,1.86,11.09-6.46,16.67-6.99l47.48-4.37-6.91,38.78c8.47-2.81,15.65-7.03,21.16-12.53-6.65.61-10.79,7.71-18.31,7.25,3.53-12.08,5.96-21.99,5.32-32.93.42-.11.76-.19,1.14-.27,1.94-.27,3.53.15,4.9.04.19,0,.38-.04.53-.08.19-.04.34-.08.49-.15.19-.04.34-.11.49-.23.08,0,.11-.04.15-.08.15-.08.27-.19.38-.3.04,0,.08-.04.11-.11-2.2-.65-4.29-.99-6.27-1.06h-.08c-.68-.04-1.33-.08-2.01-.04-6.38.15-12.23,2.32-19.67,1.97,2.05-1.94,4.52-3.95,7.25-5.85,2.2-1.6,4.6-3.11,7.06-4.56,7.64-4.52,15.95-8.24,22.11-9.99.87-.23,1.75-.53,2.55-.87h.04c8.66-3.42,15.65-10.71,24.23-13.67.65,0,1.33.11,1.94.27.8.23,1.59.53,2.43.91v-7.37c-.76-.49-1.6-.95-2.43-1.37Z"
          style="fill: rgb(29, 29, 27);"></path>
      </g>
      <path class="cls-1"
        d="M821.08,1342.6c-3.24,1.45-6.53,2.74-9.86,3.91-7.8-3.45-22.22-2.1-28.3-6.44-6.72-4.78-11.37-9.09-20.07-10.7-5.46-1.02-11.93-6.6-18.19-3.05-8.26,4.69-14.83,14.77-20.41,23.18-2.44-.68-4.84-1.42-7.21-2.25,3.73-5.86,9.22-15.63,19.02-23.77,6.29-5.21,12.3-6.16,20.87-3.3l21.3,7.18c3.98,1.36,5.27,6.53,9.71,7.37,8.38,1.54,19.64-1.48,26.57,3.91,2.19,1.73,4.38,3.05,6.57,3.95Z"
        style="fill: rgb(29, 29, 27);"></path>
      <path class="cls-1"
        d="M706.03,1478.83c-3.68,3.11-8.05,3.49-12.57,3.84v7.03c5.28-.34,10.56.49,17.85-3.99.11-.04.23-.15.34-.19,1.25-.8,3.3-.61,4.56.19h12.08c-8.05-4.29-13.22-14.66-22.26-6.88ZM905.62,1352.16c-2.51.91-11.39,1.9-16.56,1.14-2.01-.3-3.42-.8-3.76-1.67-1.56.57-3.04,1.82-4.44,3.46-5.01,5.74-9.31,16.33-13.98,17.74-3.99,1.14-7.06-1.41-10.67-1.79-4.1-.42-7.98.46-12.27-.68l8.32,3.49c-2.43,2.92-6,3.8-4.82,7.6,3.27-1.98,4.06-5.51,6.95-8.13l15.16,1.56c3.68-5.09,11.62-23.47,22.26-19.26-7.33,16.94-17.78,16.33-24.92,29.55-6.57,12.27-13.29,25.64-24.27,34.34-8.05,6.38-11.32,15.42-18.65,22.3l-8.93,8.32c-6.68,6.27-14.24,11.7-22.33,16.18-5.39,2.92-9.65,9.5-15.69,10.22-3.72-.84-9.04-4.18-13.03-3.76-6.53,3.15-12.91,6.61-19.33,11.05-1.14.76-2.24,1.41-3.3,1.9h10.33c7.79-4.6,17.78-9.5,22.87-.57l-.34.57h6.46c8.66-10.9,29.78-23.55,43.57-27.31,6.31-1.71,13.48-8.39,20.89-5.74,5.85,2.09,7.82,10.71,11.24,15.31,2.13.08,2.28-2.28,2.05-3.65,0,2.54-11.28-14.7-10.37-15.91,4.25-1.41,7.26-2.09,9.8-4.56-4.44-2.35-7.82.95-11.32,2.28l-27.35,10.6c6.04-7.41,12.16-10.79,15.76-19.11,1.67-3.76,7.07-7.79,10.33-10.07,6.3-4.44,8.77-10.26,12.95-16.1,3.57-5.09,7.98-9.15,10.1-15.53,3.04-9.08,9.46-15.84,17.24-21.12,4.6-3.15,6.38-8.62,9.5-12.95,1.63-2.24,5.66-.87,7.37.68l3.19,2.85v-8.55c-.46-.27-.91-.49-1.41-.76.49,0,.95-.04,1.41-.08v-3.84ZM879.34,1337.46c-4.48-.84-5.74-6-9.72-7.37l-21.31-7.18c-8.55-2.85-14.55-1.9-20.85,3.3-5.05,4.18-8.89,8.77-12.08,13.07v.04c-1.79,2.51-3.34,4.86-4.63,6.99-.04,0-.04.04-.04.04-.84,1.29-1.59,2.54-2.28,3.61-1.1,1.75-2.01,3.11-2.89,4.06-6.34,6.76-14.02,11.43-17.66,20.78-2.85,7.33-9.27,12.19-15.27,16.6-4.98,3.65-8.24,9.08-11.81,13.75-6.3,8.17-15.38,10.64-24.27,14.62-4.29,1.94-6.57,4.94-11.05,4.71-9.8-.57-19.14.57-28.98,1.71-1.03.11-2.01.23-3.04.34v10.29c.99.11,1.98.04,3.04-.23.08,0,.15,0,.23-.04.68-.15,1.37-.42,2.13-.8,5.7-2.81,12.34-5.39,17.51-.49-6.27,3.87-12.72,6.08-16.03,11.89-2.28,3.95-4.48,6.95-6.88,9.34v9.8c1.06-.72,2.17-1.44,3.27-2.28,4.18-3.15,8.66-7.67,13.52-14.66,4.82-6.8,14.7-8.81,20.05-14.02,5.43-5.28,9.08-9.57,17.05-11.7,12-3.23,18.42-14.74,27.46-21.95,5.81-4.6,15.46-6.04,22.37-7.75,3.38-.8,3.57,5.77,4.33,7.79,3.27,9.31,7.37,20.32,11.36,29.89,2.17,1.67,1.94-.61,3.46-2.43-5.55-7.67-8.17-16.98-11.47-26.55-1.06-3.19-5.28-6.15-3.84-9.76,1.44-3.68,6.38-1.63,9.34-4.56-8.62-.72-18,6.8-25.75,3.46,9.12-13.9,11.62-18.35,22.41-28.11,2.66-2.35,5.47-6.65,8.62-11.43,5.58-8.43,12.15-18.5,20.4-23.17,6.27-3.57,12.72,2.01,18.23,3.04,8.7,1.6,13.33,5.93,20.05,10.71,6.04,4.33,20.47,2.96,28.26,6.42,1.18.53,2.24,1.18,3.04,1.98v-10.03c-6.91-5.13-18-2.2-26.28-3.72ZM883.33,1271.56c-5.7-3.65-10.6-7.33-15.38-12.15-4.14-4.14-11.93-2.66-16.86-5.32l-24.84-13.41-7.29-3.95-9.42-3.95h-.08l-6.19-2.62c-3.87-1.63-10.63-3.76-16.71-3.76-.76,0-1.56.04-2.32.11-.76.08-1.48.19-2.2.38-.34.08-.68.19-1.03.3l-.68.23h-.04c-.76.3-1.44.65-2.09,1.1-2.32-.84-4.6-1.71-6.88-2.58-.23-.11-.42-.19-.65-.27-2.96-1.18-5.85-2.39-8.74-3.65-2.09-.91-4.18-1.86-6.27-2.85-.11-.04-.27-.11-.38-.15l-.15-.08h-.04c-5.43-2.54-10.71-5.28-15.84-8.17-1.82-1.03-3.61-2.09-5.39-3.19-2.35-1.41-4.67-2.89-6.91-4.44-4.75-3.15-10.03-5.85-15.31-8.74-2.2-1.18-4.41-2.39-6.57-3.65-3.76-2.17-7.56-4.33-11.62-6.08v6.15c1.1.49,2.2.99,3.27,1.52,5.17,2.47,10.1,5.43,14.2,8.2,7.48,4.94,12.42,9.34,11.7,9.34l10.1,5.01,3.11,1.56,8.93,4.44h.04l8.39,4.18c7.07,3.49,14.85,4.52,21.08,10.67l-35.97.15,4.9,2.28c1.37.61.11,2.81-.65,4.56l-3.11,7.63-9.15,22.56c-2.58-1.56-5.89-3.3-9.27-5.01-1.48-.72-2.96-1.52-4.44-2.24-4.56-2.28-9-4.37-12-5.85-.23-.11-.53-.27-.87-.42-.68-.34-1.52-.68-2.2-.91-.04-.04-.08-.04-.11-.04-.3-.08-.57-.11-.8-.11-.08,0-.11,0-.19.04-.04.04-.11.08-.15.15-.08.08-.11.19-.15.3-.08.11-.11.27-.15.46-.23,1.03-.27,2.66-.49,3.49-.04.19-.11.34-.19.46-1.94,2.47-3.87,4.94-5.81,7.37v4.03c1.79-2.13,3.57-4.25,5.24-6.49.61-.8,1.06-1.48,1.48-2.05.38-.53.68-1.03.99-1.41.15-.19.3-.34.46-.46.15-.11.3-.23.46-.3.65-.3,1.44-.34,2.81-.15,2.13.3,3.95.68,5.55,1.1.76.19,1.48.42,2.17.68,1.37.46,2.51.99,3.49,1.56.53.27.99.53,1.4.84.87.53,1.63,1.1,2.36,1.67.99.8,1.94,1.6,2.92,2.32,2.24,1.56,4.86,2.7,9.84,2.92l9.34-23.82,5.28-13.41c11.7.91,22.98.3,33.62-1.67,1.21-.23,2.43-.46,3.65-.72,11.2-2.43,17.05,1.6,25.33,7.29,3.57,2.47,7.41,4.79,11.39,6.91,11.43,6.15,24.12,10.86,36.31,13.86,7.52,1.86,10.48,2.47,16.07,8.58,2.73,3,9.12,5.77,12.99,8.51l19.03,13.6v-7.22c-8.89-6.04-17.13-11.96-22.3-15.27Z"
        style="fill: rgb(29, 29, 27);"></path>
      <path class="cls-1"
        d="M1.22,1036.87c4.71-3.84,10.33-7.6,16.07-10.79,6.68-3.72,13.45-6.68,19.03-8.24,6.31-1.67,13.48-8.36,20.85-5.7,5.85,2.09,7.86,10.71,11.2,15.31,2.2.11,2.32-2.32,2.13-3.65,0,2.54-11.32-14.74-10.37-15.88,4.22-1.48,7.22-2.09,9.8-4.63-4.48-2.32-7.86.99-11.32,2.32l-27.35,10.6c6.04-7.41,12.12-10.79,15.76-19.07,1.63-3.8,6.99-7.82,10.33-10.14,6.31-4.41,8.77-10.22,12.95-16.1,2.66-3.76,5.81-6.99,8.09-11.05.76-1.37,1.44-2.81,1.98-4.41,3.08-9.15,9.46-15.88,17.28-21.19,3.99-2.7,5.89-7.25,8.36-11.2.34-.57.72-1.14,1.1-1.67,1.63-2.28,5.66-.95,7.41.61l15.99,14.4c1.06.95,2.28,1.75,3.46,2.62l.34.19c.72.53,1.48,1.03,2.17,1.56,1.41,1.14,2.73,2.35,3.61,4.03,6.34,11.43,16.37,17.32,26.7,24.73,2.66,1.9,4.44,5.01,5.96,8.36,1.71,3.76,3.04,7.86,4.86,11.01,5.36,9.38,12.99,15.16,20.17,24.76-2.09,0-4.06-.15-5.96-.46l-.04-.04c-6.5-1.03-12.23-3.68-18.16-5.81-2.13-1.33,1.67-5.24,1.06-7.71-3.46,3.68-6.61,7.94-9.12,13.64,3.04-.23,3.65-3.53,6.38-4.79l25.71,9.65c11.85,4.41,17.36,11.81,21.5,22.6,4.29,11.28,15.16,18.57,18.35,29.78,1.33,4.52,6,9.5,7.94,13.98l.34.91c13.94,7.48,17.02,14.09,20.51,20.05.46.8.95,1.56,1.44,2.32.68,1.06,1.41,2.01,2.28,3.04.08.04.08.11.15.15v-10.07c-.38-.84-.72-1.6-.87-2.28-.46-1.52-.95-2.85-1.56-4.06-1.03-2.13-2.24-3.84-3.53-5.28h-.04c-6.84-7.48-16.83-7.82-18.95-22.03-.19-1.25-.57-2.39-1.14-3.46-2.05-3.95-6.15-7.03-9.15-10.79-6.31-8.05-9.08-12.84-10.48-16.14-1.98-4.56-1.41-6.42-4.18-10.29h-.04c-1.1-1.6-2.77-3.53-5.47-6.15l-16.79-16.48c-9.88-9.69-14.97-17.32-18.38-23.55-4.48-8.24-6-13.94-11.55-18.5-4.79-3.87-11.89-4.9-15.53-10.37-.68-.99-1.29-2.01-1.94-3.04l-.04-.04c-1.86-3.08-3.8-6.27-7.1-9.08q-.04-.08-.08-.08s-.04-.08-.11-.08q-.04-.08-.04-.11h-.08l-.04-.04s-.08-.08-.15-.11c0-.11.04-.27-.11-.11-8.32-6.76-12.91-14.74-21.5-20.32-.23.19-.53.23-.84.11-1.9-.68-3.61-1.71-5.51-2.43-1.48-.57-2.96-.8-4.56-.57-1.52.19-2.96.76-4.37,1.41-1.67.87-3.23,1.94-4.71,3.04-.04.08-.11.19-.15.27-7.06,11.7-15.91,12.65-22.22,24.35-2.17,4.06-4.37,8.2-6.72,12.27-4.75,8.32-10.22,16.26-17.62,22.11-8.01,6.34-11.28,15.38-18.61,22.26l-8.89,8.32c-5.74,5.39-12.12,10.14-18.92,14.17-1.14.68-2.28,1.33-3.46,1.98-1.25.68-2.39,1.56-3.53,2.47v8.66Z"
        style="fill: rgb(29, 29, 27);"></path>
      <path class="cls-1"
        d="M204.19,1227.31c3.24,1.45,6.53,2.74,9.86,3.91,7.8-3.45,22.22-2.1,28.3-6.44,6.72-4.78,11.37-9.09,20.07-10.7,5.46-1.02,11.93-6.6,18.19-3.05,8.26,4.69,14.83,14.77,20.41,23.18,2.44-.68,4.84-1.42,7.21-2.25-3.73-5.86-9.22-15.63-19.02-23.77-6.29-5.21-12.3-6.16-20.87-3.3l-21.3,7.18c-3.98,1.36-5.27,6.53-9.71,7.37-8.38,1.54-19.64-1.48-26.57,3.91-2.19,1.73-4.38,3.05-6.57,3.95Z"
        style="fill: rgb(29, 29, 27);"></path>
      <g>
        <path class="cls-1"
          d="M322.06,1074.39s-.04.04-.08.04h-.04c-.57.38-1.18.72-1.75,1.06-2.2,1.25-4.37,2.47-6.57,3.61-5.32,2.89-10.56,5.62-15.31,8.77-3.76,2.51-7.63,4.9-11.58,7.14-5.36,3.11-10.86,5.96-16.56,8.62h-.04c-1.25.65-2.55,1.22-3.84,1.79-6.27,2.85-12.65,5.43-19.22,7.82-6.57-4.48-19.14-.87-25.07,1.6l-15.72,6.57-32.1,17.36c-4.98,2.7-12.72,1.18-16.87,5.36-4.82,4.82-9.72,8.47-15.42,12.15-13.29,8.51-47.4,34.91-59.9,33.84-7.71-.65-11.24,3.95-15.76,7.14-.8.57-1.59,1.1-2.47,1.52-5.74,2.81-12.08,2.96-18.04,7.1-4.63,3.11-13.52,5.01-18.95,4.63-9.65-.61-16.94-7.37-25.3-10.64-.08-.04-.19-.08-.27-.11v8.28c10.6,3.57,25.52,11.7,33.54,19.45-10.56.46-17.97-4.06-28.03-.91,2.05,2.01,4.56.19,8.2,1.22-.65,10.94,1.78,20.85,5.28,32.93-7.52.46-11.66-6.65-18.31-7.25,5.51,5.51,12.72,9.72,21.16,12.5l-6.88-38.74,47.44,4.37c5.62.53,9.95,8.85,16.71,6.95,17.66-4.94,19.52,1.75,40.64,2.24-12.31,6.34-16.45,13.71-26.44,21.73-11.39-8.01-22.41-13.18-34.94-17.51,10.26,9.84,27.58,11.7,34.91,18.99-4.9,3.91-6.91,8.55-9.65,12.69-3.68,5.51-10.83,6.5-15.57,10.41-9.72,7.98-6.99,19.6-29.93,42.05l-16.79,16.45c-13.9,13.64-1.52,8.89-20.21,32.63-.38.46-.72.91-1.14,1.33v12.38c4.22-9.15,13.14-16.03,16.9-25.98,4.14-10.79,9.65-18.19,21.54-22.64l25.68-9.61c2.77,1.25,3.34,4.56,6.42,4.75-2.51-5.7-5.7-9.91-9.12-13.64-.61,2.47,3.19,6.38,1.06,7.71-7.67,2.81-15.08,6.42-24.16,6.31,7.14-9.57,14.81-15.34,20.21-24.73,3.38-5.93,5.09-15.31,10.79-19.41,10.29-7.41,20.36-13.29,26.66-24.73,2.09-3.8,6.46-5.55,9.61-8.36l15.99-14.36c1.75-1.6,5.74-2.92,7.41-.68,3.08,4.33,4.9,9.8,9.46,12.95,7.79,5.28,14.17,12,17.24,21.12,2.13,6.34,6.53,10.41,10.1,15.5,4.18,5.89,6.65,11.7,12.95,16.1,3.3,2.32,8.66,6.31,10.33,10.1,3.65,8.32,9.72,11.7,15.76,19.11l-27.35-10.6c-3.49-1.33-6.84-4.67-11.32-2.32,2.58,2.51,5.55,3.15,9.8,4.6.91,1.18-10.37,18.46-10.37,15.88-.19,1.37-.08,3.76,2.09,3.68,3.38-4.6,5.36-13.26,11.2-15.35,7.41-2.66,14.59,4.06,20.85,5.74,14.36,3.95,36.54,17.36,44.52,28.53,8.09,2.7,14.02,22.07,18.61,26.21,9.34,8.36,19.41,15.72,26.44,26.59,13.98,21.57,26.44,18.54,36.62,32.25,1.59,2.17,3.08,4.29,4.63,6.42v-6.68c-4.25-6.84-10.22-10.71-17.05-14.74-8.93-5.17-50.21-50.52-47.93-47.02l-16.1-24.76c6.84-12.04,22.68,1.03,29.85,4.63,7.75,3.87,16.75,3.15,25.87,4.86,6.04,9.31,8.47,20.62,12.08,31.3l5.24,15.53c3-3.72,5.62-7.29,8.05-10.82v-3.87c-1.9,3.23-4.18,6.68-7.71,10.6-2.92-4.98-1.98-9.34-3.5-13.64l-12.46-35.82c-.84-2.32,3.42-3.68,5.47-2.39,7.52,4.71,12.84,3.84,18.19,4.14v-7.03c-4.52-.3-8.93-.68-12.57-3.84-13.86-11.85-18.54,18.73-38.59,4.98-6.46-4.44-12.84-7.86-19.33-11.01-4.06-.46-9.34,2.89-13.07,3.76-6.04-.72-10.29-7.33-15.69-10.26-8.05-4.44-15.65-9.88-22.33-16.14l-8.89-8.32c-7.33-6.91-10.6-15.91-18.65-22.3-11.02-8.7-17.74-22.11-24.35-34.37-7.1-13.18-17.55-12.61-24.88-29.55,10.67-4.18,18.57,14.21,22.26,19.3l15.19-1.6c2.85,2.66,3.65,6.19,6.91,8.17,1.18-3.8-2.36-4.71-4.82-7.63l8.32-3.49c-4.33,1.18-8.17.27-12.27.72-3.61.38-6.68,2.96-10.67,1.75-4.67-1.37-8.93-11.96-13.98-17.74-1.4-1.63-2.89-2.85-4.44-3.42-.34.87-1.79,1.37-3.72,1.67-5.81.8-16.33-.49-17.21-1.48.87-1.1,2.16-1.9,3.65-2.62,7.79-3.42,22.22-2.09,28.3-6.42,6.72-4.79,11.36-9.08,20.05-10.67,5.47-1.03,11.93-6.61,18.19-3.08,8.24,4.67,14.81,14.78,20.4,23.17,3.15,4.82,5.96,9.08,8.66,11.47,10.79,9.72,13.26,14.17,22.37,28.11-7.75,3.3-17.13-4.18-25.71-3.49,2.96,2.96,7.9.87,9.31,4.6,1.44,3.61-2.73,6.61-3.84,9.76-3.3,9.57-5.89,18.84-11.47,26.55,1.52,1.82,1.29,4.1,3.46,2.43,3.99-9.57,8.09-20.59,11.39-29.89.72-2.05.91-8.58,4.29-7.79,6.91,1.67,16.56,3.15,22.33,7.75,9.08,7.18,15.54,18.76,27.54,21.95,7.94,2.13,11.55,6.42,17.02,11.7,5.39,5.2,15.27,7.22,20.06,14.02,6.19,8.85,11.7,13.71,16.79,16.9v-9.76c-2.36-2.43-4.63-5.39-6.88-9.38-3.3-5.81-9.76-7.98-16.03-11.89,5.13-4.9,11.85-2.28,17.51.53,2.01.99,3.72,1.18,5.39,1.03v-10.29c-11.02-1.25-21.19-2.62-32.02-2.01-4.48.23-6.72-2.81-11.05-4.75-8.89-3.95-17.97-6.42-24.23-14.59-3.57-4.67-6.88-10.1-11.81-13.75-6.04-4.44-12.46-9.27-15.31-16.6-3.61-9.38-11.32-14.02-17.66-20.78-.84-.95-1.79-2.35-2.89-4.06-.68-1.1-1.44-2.32-2.28-3.65-1.37-2.13-2.89-4.48-4.71-6.99v-.04c-3.08-4.29-6.99-8.93-12.04-13.1-6.27-5.2-12.31-6.15-20.85-3.27l-21.31,7.18c-3.95,1.33-5.28,6.53-9.72,7.37-8.36,1.52-19.64-1.48-26.55,3.91-2.2,1.71-4.41,3.04-6.57,3.95-5.2,2.17-10.6,2.13-17.32-.23-5.66-1.97-12.69,2.73-18.8,1.75-16.64-15.76-35.82-2.81-41.4-14.74,8.62,1.6,12.91-2.17,18.69-5.74,4.18-2.58,10.79-.99,14.21-5.51,1.1-1.41,2.09-2.51,3.08-3.34,7.41-6.34,13.07,1.79,34.53-13.6l32.89-23.47c3.87-2.77,10.26-5.51,13.03-8.55,5.51-6.08,8.55-6.72,16.03-8.58,16.48-4.03,33.81-11.17,47.74-20.74,8.28-5.7,14.13-9.72,25.34-7.29,11.66,2.54,24.16,3.42,37.22,2.35l14.62,37.22c4.98-.19,7.63-1.37,9.84-2.89,3.84-2.7,6.38-6.53,17.89-8.2,3.76-.53,3.42.72,6.19,4.41,1.67,2.24,3.46,4.37,5.24,6.5v-4.03c-1.9-2.43-3.87-4.9-5.77-7.41-.65-.8-.27-4.9-1.33-4.9s-3.11,1.06-3.99,1.52c-4.03,1.94-10.45,4.98-16.48,8.09-3.42,1.71-6.65,3.46-9.27,5.01l-12.31-30.23c-.72-1.75-1.98-3.95-.61-4.56l4.9-2.28-35.97-.15c5.62-5.58,12.53-6.91,19.07-9.69.04-.04.08-.04.11-.08h.04c.65-.27,1.25-.57,1.86-.87l24.69-12.27h.04l5.85-2.92c-.72,0,4.22-4.41,11.7-9.34,3.99-2.73,8.81-5.58,13.83-8.01,1.18-.61,2.7-.49,3.91-1.03v-6.19c-3.34,1.48-6.84,2.55-9.99,4.33ZM280.73,1485.14c-12.23-9.91-6.42-21.04-29.59-16.29l-32.32,6.72c-12.42,2.55-30.27,3.3-39.24-7.52-8.7-10.37-16.33-16.79-29.82-20.7-6.61-1.9-11.78-4.94-19.71.15-3.27,2.09-9.76,6.46-14.24,5.66-24.65-4.29-17.85,11.55-35.44,19.64-4.52,2.09-5.51,9.61-10.03,12.08-3.65,1.94-7.44-1.56-10.94-2.05-6.08-.91-10.1,4.18-12.46,9.27-3.42,2.81-8.13.46-11.7,2.81-.15.11-.3.23-.49.34h20.09c2.36-3.15,4.94-5.89,10.48-3.38,12.42,5.62,17.85-9.38,24.5-1.52,1.37,1.63,2.74,3.23,3.99,4.9h2.89c-3.87-4.67-8.05-9.08-12.53-13.26-.42,2.28,1.14,3.84.04,4.98-.76.84-3.68,2.01-5.36.87,5.55-17.32,9-2.62,21.12-22.75,7.56-12.65,14.09-2.54,26.36-6.42,4.94-1.56,12.15-8.51,17.59-6.31,35.55,14.13,9.61,5.09,42.73,28.34-11.02,2.7-19.03.95-27.8,1.94,2.09,2.28,4.52,1.44,5.51,2.85.95,1.33.99,3.11.95,4.63h1.94c-6.08-10.75,31.03-5.77,36.35-4.63l9.87-1.33c3.46-.42,43.91-11.13,47.52-11.02,6.91.23,8.89,9.61,11.36,14.17,1.79,3.27,4.14,5.74,6.72,7.94h7.26l9.84-1.33c11.24-1.48,23.44-8.43,35.63-8.51v-7.03c-23.02.27-41.7,14.36-51.05,6.76Z"
          style="fill: rgb(29, 29, 27);"></path>
        <path class="cls-1"
          d="M279.06,1495.74h-.18l-.14-.12c-3.14-2.68-5.25-5.17-6.84-8.08-.56-1.04-1.09-2.31-1.66-3.66-1.88-4.49-4.22-10.08-9.28-10.25-.02,0-.04,0-.06,0-2.31,0-17.81,3.85-30.29,6.95-8.42,2.09-15.69,3.9-17.09,4.07l-9.95,1.34-.08-.02c-5.2-1.11-32.11-4.58-35.99.7-.62.84-.56,1.89.18,3.2l.42.75h-3.31v-.51c.05-1.46.02-3.13-.84-4.33-.34-.48-.96-.63-1.75-.83-1.1-.27-2.47-.61-3.72-1.98l-.66-.72.98-.11c3.37-.38,6.56-.36,9.95-.34,5.13.03,10.42.07,16.71-1.33-13.71-9.7-16.9-13.65-18.82-16.04-2.51-3.11-2.96-3.67-22.9-11.6-3.4-1.38-7.76,1.19-11.6,3.45-2.03,1.2-3.95,2.33-5.65,2.86-4.95,1.57-8.95.91-12.48.33-5.34-.87-9.2-1.5-13.6,5.87-6.22,10.33-10.2,11.63-13.39,12.68-2.86.94-4.95,1.62-7.55,9.58,1.45.62,3.78-.31,4.38-.97.4-.41.3-.88.07-1.81-.2-.79-.44-1.77-.23-2.92l.17-.9.67.62c4.52,4.22,8.76,8.69,12.58,13.3l.68.82h-4.2l-.15-.2c-1.06-1.41-2.18-2.75-3.37-4.16l-.6-.72c-2.99-3.54-5.61-2.09-9.24-.09-3.8,2.1-8.52,4.71-15.08,1.74-5.16-2.33-7.53.08-9.88,3.22l-.15.2h-22.16l1.56-.93c.17-.1.31-.21.45-.31,1.85-1.22,3.91-1.27,5.91-1.33,2.08-.05,4.05-.11,5.69-1.4,2.28-4.88,6.36-10.44,12.94-9.45,1.28.18,2.59.74,3.87,1.29,2.37,1.01,4.6,1.97,6.76.82,2.09-1.14,3.44-3.54,4.74-5.86,1.41-2.51,2.86-5.1,5.31-6.23,6.83-3.14,9.93-7.49,12.67-11.33,4.21-5.9,7.84-11,23.06-8.34,4.06.72,10.12-3.17,13.37-5.26l.51-.33c6.94-4.45,11.93-2.83,17.22-1.11.94.3,1.9.62,2.9.9,13.89,4.03,21.54,10.7,30.06,20.86,9.77,11.8,30.35,9.07,38.75,7.35l32.32-6.72c15.95-3.27,18.6,1.04,22.27,7.01,1.79,2.9,3.81,6.2,7.74,9.38h0c4.97,4.04,12.86,1.64,22.84-1.4,8.23-2.51,17.56-5.35,27.89-5.47h.51s0,8.02,0,8.02h-.5c-6.89.04-13.84,2.33-20.57,4.54-5.21,1.71-10.13,3.33-15,3.97l-9.84,1.33h-7.32ZM279.25,1494.74h7.07l9.77-1.32c4.77-.63,9.65-2.23,14.82-3.93,6.64-2.18,13.5-4.43,20.38-4.58v-6.03c-9.99.2-19.07,2.97-27.1,5.42-10.27,3.13-18.37,5.6-23.76,1.22h0c-4.06-3.29-6.13-6.66-7.96-9.63-3.59-5.83-5.96-9.69-21.21-6.56l-32.32,6.72c-24.81,5.09-35.54-2.64-39.72-7.69-8.4-10.01-15.93-16.58-29.57-20.54-1-.29-1.98-.6-2.93-.91-5.28-1.71-9.84-3.19-16.38,1l-.51.33c-3.6,2.32-9.64,6.19-14.09,5.4-14.6-2.54-17.9,2.08-22.08,7.94-2.81,3.94-6,8.41-13.06,11.66-2.15.99-3.46,3.33-4.86,5.81-1.37,2.44-2.79,4.97-5.14,6.25-2.59,1.38-5.15.28-7.63-.78-1.27-.54-2.47-1.05-3.62-1.22-6.01-.9-9.81,4.39-11.94,8.98l-.14.18c-1.92,1.58-4.19,1.64-6.38,1.7-1.49.04-2.92.08-4.23.57h17.94c2.38-3.15,5.23-5.91,10.94-3.34,6.1,2.76,10.4.39,14.19-1.7.63-.35,1.25-.69,1.86-1-1.04.19-2.16.13-3.02-.46l-.31-.21.11-.36c2.82-8.81,5.25-9.61,8.32-10.61,3.04-1,6.82-2.23,12.85-12.24,4.75-7.95,9.33-7.2,14.62-6.34,3.42.56,7.3,1.19,12.02-.3,1.59-.5,3.46-1.6,5.44-2.77,4.05-2.38,8.63-5.08,12.48-3.52,20.18,8.02,20.66,8.61,23.3,11.9,1.93,2.39,5.15,6.4,19.52,16.49l.9.63-1.07.26c-6.89,1.69-12.55,1.65-18.04,1.62-2.97-.02-5.79-.04-8.7.22.81.57,1.65.77,2.4.96.91.22,1.77.44,2.33,1.22.89,1.25,1.06,2.84,1.05,4.42h.63c-.57-1.35-.48-2.54.25-3.54,4.48-6.1,32.87-1.95,36.92-1.11l9.79-1.32c1.35-.16,8.59-1.96,16.98-4.04,13.18-3.27,28.09-6.98,30.55-6.98.02,0,.04,0,.07,0,5.69.19,8.17,6.11,10.17,10.86.55,1.32,1.08,2.57,1.61,3.56,1.51,2.76,3.51,5.13,6.47,7.68ZM94.07,1494.74h1.57c-3.39-4.02-7.09-7.94-11.03-11.66.03.54.16,1.03.27,1.49.24.95.48,1.92-.31,2.74-.12.13-.29.28-.51.42,2.05-.53,4.08-.17,6.15,2.29l.6.72c1.09,1.3,2.22,2.63,3.25,4ZM332.28,1464.6l-.9-1.23c-.73-1-1.44-2-2.16-3-.81-1.13-1.62-2.27-2.47-3.42-4.34-5.84-9.16-8.64-14.27-11.6-6.73-3.9-14.37-8.33-22.37-20.67-5.52-8.54-13.11-15.05-20.44-21.35-1.95-1.67-3.96-3.4-5.91-5.14-1.8-1.62-3.71-5.33-5.93-9.62-3.42-6.62-7.67-14.87-12.51-16.48l-.15-.05-.09-.13c-8.09-11.33-30.43-24.53-44.24-28.33-2.09-.56-4.22-1.64-6.49-2.78-4.56-2.3-9.27-4.69-14.07-2.97-3.76,1.34-5.87,5.6-7.9,9.71-1,2.03-1.95,3.94-3.07,5.46l-.14.2h-.24c-.79.03-1.43-.21-1.89-.72-.94-1.04-.81-2.81-.71-3.52l1,.07s-.04-.12-.16-.19c-.12-.07-.23-.05-.26-.04,1.5-.6,9.49-13.09,9.83-15.28-.57-.19-1.12-.37-1.65-.54-3.24-1.05-5.79-1.88-8.05-4.07l-.5-.48.61-.32c3.6-1.89,6.56-.32,9.18,1.07.88.46,1.71.9,2.55,1.23l25.52,9.89c-1.71-1.95-3.41-3.63-5.06-5.26-3.66-3.61-7.12-7.03-9.51-12.47-1.76-4.01-8.08-8.44-10.16-9.9-4.75-3.32-7.34-7.39-10.08-11.69-.94-1.48-1.92-3.01-3-4.53-1.02-1.45-2.13-2.84-3.2-4.19-2.67-3.36-5.43-6.83-6.97-11.44-2.74-8.12-8.32-14.94-17.05-20.86-3.2-2.21-5.09-5.53-6.92-8.73-.84-1.47-1.7-2.98-2.67-4.34-.41-.56-1.04-.88-1.87-.96-1.71-.16-3.75.77-4.8,1.72l-15.99,14.36c-1.11.99-2.37,1.86-3.6,2.69-2.36,1.62-4.6,3.15-5.91,5.53-5.46,9.91-13.71,15.68-22.44,21.8-1.45,1.01-2.91,2.04-4.37,3.09-3.68,2.65-5.66,7.62-7.58,12.43-.99,2.48-1.92,4.82-3.07,6.82-3.16,5.5-7.08,9.75-11.23,14.25-2.76,3-5.62,6.09-8.4,9.72,7.01-.13,13.12-2.49,19.05-4.78,1.29-.5,2.58-1,3.88-1.47.72-.5.32-1.59-.42-3.31-.6-1.39-1.21-2.82-.9-4.07l.22-.91.63.69c4.17,4.54,7.01,8.79,9.21,13.77l.33.75-.82-.05c-1.96-.12-3.01-1.36-4.02-2.56-.68-.81-1.39-1.64-2.39-2.15l-25.48,9.54c-12.27,4.59-17.37,12.25-21.24,22.35-2.05,5.43-5.63,9.97-9.1,14.37-3.03,3.84-5.89,7.47-7.81,11.64l-.95,2.07v-14.87l.15-.15c.3-.29.55-.61.81-.93l.3-.37c9.69-12.31,10.98-16.97,11.93-20.38.92-3.3,1.58-5.68,8.31-12.29l16.79-16.45c13.46-13.17,18.11-22.74,21.51-29.74,2.44-5.03,4.37-9,8.45-12.34,1.93-1.59,4.27-2.72,6.53-3.81,3.35-1.62,6.8-3.28,8.95-6.49.63-.96,1.22-1.93,1.84-2.96,1.93-3.21,3.93-6.52,7.47-9.48-3.38-3.11-8.76-5.25-14.45-7.52-6.8-2.7-14.5-5.76-20.05-11.08l-1.64-1.58,2.15.74c13.57,4.69,24.31,10.05,34.76,17.36,3.45-2.79,6.19-5.51,8.86-8.13,4.51-4.45,8.78-8.67,15.72-12.53-7.63-.32-12.55-1.45-16.92-2.46-6.63-1.52-11.41-2.62-21.7.26-4.15,1.17-7.36-1.24-10.46-3.56-2.17-1.63-4.21-3.16-6.44-3.37l-46.79-4.31,6.91,38.92-.79-.26c-8.64-2.84-15.82-7.08-21.35-12.62l-.98-.98,1.38.13c3.14.29,5.76,1.98,8.29,3.61,2.79,1.8,5.67,3.66,9.3,3.66h.02c-3.17-11.01-5.72-21.08-5.14-32.07-1.34-.31-2.54-.23-3.61-.16-1.6.11-3.1.21-4.42-1.09l-.6-.58.8-.25c6.11-1.92,11.22-1.06,16.62-.15,3.25.54,6.61,1.1,10.33,1.07-8.49-7.78-22.87-15.27-32.47-18.5l-.34-.11v-9.45l.82.4c.06.02.12.05.17.07,2.95,1.15,5.84,2.78,8.64,4.36,5.08,2.87,10.34,5.84,16.46,6.22,5.09.36,13.99-1.42,18.64-4.55,3.59-2.49,7.31-3.56,10.91-4.6,2.51-.72,4.88-1.41,7.19-2.54.88-.42,1.67-.96,2.4-1.48.91-.64,1.8-1.36,2.66-2.05,3.49-2.81,7.1-5.71,13.44-5.18,9.62.82,33.02-15.45,48.5-26.21,4.41-3.07,8.22-5.71,11.09-7.55,6.45-4.17,11.03-7.79,15.34-12.09,2.49-2.51,6.19-3.06,9.77-3.58,2.54-.37,5.17-.76,7.21-1.86l32.1-17.36,15.77-6.59c1.75-.73,17.22-6.92,25.33-1.69,6.68-2.44,12.88-4.96,18.95-7.72,1.27-.56,2.57-1.13,3.81-1.77l.16-.06c5.85-2.73,11.22-5.53,16.42-8.55,3.89-2.21,7.78-4.6,11.56-7.12,4.11-2.73,8.5-5.1,13.14-7.6l2.21-1.19c2.31-1.19,4.6-2.49,6.56-3.6l.48-.29c.41-.24.83-.49,1.23-.76l.19-.08s0,0,0,0c2.04-1.15,4.25-2.01,6.38-2.85,1.19-.47,2.42-.95,3.6-1.47l.7-.31v7.29l-.3.13c-.63.28-1.31.39-1.97.5-.7.12-1.36.23-1.91.51-4.7,2.28-9.58,5.11-13.77,7.98-5.78,3.81-9.73,7.08-11.08,8.43h1.21l-7.89,3.92-24.58,12.22c-.62.31-1.24.62-1.89.89l-.1.04c-1.73.75-3.41,1.36-5.04,1.95-4.67,1.7-9.1,3.31-13.02,6.82l36.96.16-6.93,3.22c-.67.3-.19,1.53.51,3.11.12.27.24.54.35.8l12.09,29.7c2.55-1.5,5.58-3.13,8.8-4.74,5.12-2.64,10.54-5.24,14.5-7.14l2-.96c2.02-1.05,3.4-1.57,4.2-1.57,1.07,0,1.22,1.52,1.37,3.13.07.69.17,1.74.35,1.96,1.33,1.75,2.69,3.48,4.03,5.18.59.75,1.17,1.49,1.75,2.23l.11.14v5.57l-.88-1.05c-1.76-2.09-3.58-4.26-5.26-6.52-.62-.83-1.1-1.54-1.48-2.12-1.35-2.03-1.63-2.46-4.24-2.09-9.2,1.34-12.57,4.07-15.55,6.48-.71.58-1.39,1.12-2.12,1.64-2.07,1.43-4.72,2.77-10.11,2.98h-.35s-14.62-37.19-14.62-37.19c-12.7,1-25.14.19-37-2.39-10.99-2.38-16.54,1.43-24.94,7.21-13.28,9.12-30.3,16.51-47.91,20.81l-.5.12c-7.07,1.76-10,2.48-15.28,8.31-1.76,1.93-4.9,3.72-7.94,5.45-1.91,1.09-3.71,2.12-5.17,3.16l-32.89,23.47c-13.11,9.4-20.42,10.1-25.76,10.61-3.45.33-5.94.57-8.74,2.96-.9.76-1.86,1.8-3.01,3.27-2.14,2.83-5.41,3.38-8.57,3.92-2.13.36-4.15.7-5.77,1.71-.71.44-1.39.88-2.07,1.31-4.73,3.04-8.84,5.68-15.97,4.66,2.64,4.44,7.78,4.57,14.18,4.73,7.83.2,17.57.45,26.54,8.88,2.69.39,5.64-.36,8.5-1.08,3.47-.88,7.05-1.78,10.23-.67,6.58,2.31,11.81,2.38,16.96.24,2.11-.89,4.28-2.19,6.46-3.88,4.63-3.61,11.09-3.57,17.33-3.53,3.37.02,6.56.04,9.44-.48,2.21-.42,3.59-2,5.06-3.67,1.3-1.48,2.64-3.02,4.6-3.68l21.31-7.18c8.73-2.95,14.91-1.98,21.33,3.36,4.41,3.65,8.38,7.97,12.13,13.2l.09.17c1.71,2.36,3.11,4.52,4.63,6.88.84,1.33,1.6,2.55,2.28,3.65.96,1.5,1.98,3.02,2.84,4,1.78,1.9,3.71,3.66,5.58,5.37,4.69,4.29,9.55,8.73,12.17,15.56,2.85,7.33,9.38,12.14,15.14,16.38,3.92,2.9,6.81,6.87,9.6,10.72.77,1.06,1.54,2.12,2.31,3.13,5.02,6.54,11.85,9.36,19.08,12.34,1.62.67,3.3,1.36,4.96,2.09,1.51.68,2.75,1.47,3.94,2.23,2.19,1.4,4.09,2.6,6.88,2.47,9.86-.56,19.18.52,29.05,1.67l3.49.4v11.2l-.45.04c-2,.18-3.79-.16-5.66-1.07-5.81-2.89-11.8-4.98-16.46-1.06,1.41.86,2.83,1.63,4.21,2.39,4.58,2.51,8.9,4.88,11.43,9.33,2.04,3.63,4.26,6.66,6.8,9.28l.14.15v10.87l-.77-.48c-6.09-3.82-11.47-9.23-16.93-17.04-2.68-3.8-7.05-6.1-11.28-8.33-3.27-1.72-6.37-3.35-8.72-5.62-.64-.61-1.25-1.21-1.84-1.8-4.51-4.43-8.07-7.93-14.96-9.78-8.12-2.16-13.77-8.12-19.23-13.88-2.69-2.84-5.48-5.78-8.49-8.16-4.72-3.76-12.02-5.38-18.46-6.81-1.28-.29-2.52-.56-3.68-.84-.45-.11-.84-.05-1.18.17-1.18.76-1.68,3.34-2.04,5.22-.16.84-.3,1.57-.48,2.08-2.79,7.87-7.04,19.44-11.41,29.92l-.05.12-.1.08c-.74.57-1.29.77-1.8.66-.68-.16-1-.8-1.37-1.55-.25-.51-.54-1.08-.97-1.61l-.25-.3.23-.31c4.7-6.49,7.25-14.09,9.95-22.14.48-1.42.96-2.85,1.45-4.28.4-1.15,1.19-2.28,1.94-3.36,1.41-2.03,2.75-3.94,1.9-6.05-.67-1.76-2.21-2.02-4.16-2.36-1.68-.28-3.57-.61-5.04-2.07l-.77-.77,1.08-.09c3.83-.3,7.81.97,11.65,2.21,4.77,1.53,9.28,2.98,13.34,1.54l-1.91-2.92c-7.46-11.45-10.25-15.74-20.05-24.57-2.82-2.5-5.83-7.11-8.74-11.57l-.46-.7c-5.56-8.36-11.85-17.83-19.76-22.31-4.08-2.3-8.28-.52-12.34,1.21-1.92.82-3.74,1.59-5.51,1.92-7.24,1.33-11.69,4.61-16.85,8.4-.97.71-1.96,1.44-3.01,2.19-3.42,2.44-9.15,3.11-15.21,3.81-4.77.56-9.71,1.13-13.18,2.66-1.4.68-2.37,1.33-3.07,2.03,2.09.75,10.92,1.86,16.36,1.11,2.46-.39,3.17-.95,3.32-1.36l.18-.46.46.17c1.56.57,3.08,1.73,4.65,3.56,1.95,2.23,3.78,5.16,5.54,7.99,2.82,4.53,5.49,8.8,8.19,9.59,2.37.72,4.4.02,6.54-.73,1.26-.44,2.56-.89,3.94-1.04,1.65-.18,3.28-.15,4.85-.12,2.36.05,4.79.1,7.34-.59l.33.94-7.67,3.22c.58.61,1.21,1.13,1.82,1.64,1.83,1.53,3.56,2.97,2.64,5.96l-.19.61-.55-.33c-1.96-1.19-3.09-2.92-4.18-4.61-.77-1.18-1.56-2.4-2.65-3.47l-15.25,1.6-.17-.23c-.69-.96-1.52-2.36-2.49-3.99-3.99-6.74-10.61-17.93-18.69-15.31,3.94,8.84,8.78,12.77,13.46,16.56,3.9,3.16,7.93,6.43,11.18,12.46l1.35,2.52c6.23,11.63,12.68,23.66,22.87,31.7,4.45,3.52,7.49,7.89,10.43,12.11,2.43,3.49,4.95,7.1,8.25,10.21l8.89,8.32c6.54,6.13,14.02,11.54,22.23,16.07,2.13,1.15,4.09,2.88,5.99,4.54,3.04,2.67,5.91,5.19,9.43,5.64,1.27-.31,2.74-.91,4.29-1.55,2.87-1.18,6.12-2.5,8.86-2.2l.16.05c5.28,2.56,12.25,6.13,19.4,11.05,10.37,7.11,16.32,2.16,22.07-2.62,5.02-4.18,9.76-8.13,16.56-2.32,3.63,3.14,8.22,3.44,12.28,3.72l.47.03v8.02l-.53-.03c-.93-.05-1.86-.07-2.8-.09-4.58-.08-9.31-.17-15.63-4.13-1.19-.75-3.26-.42-4.24.37-.52.42-.69.9-.5,1.43l12.46,35.82c.62,1.74.83,3.45,1.06,5.26.31,2.46.63,4.99,2.06,7.69,3.43-3.88,5.55-7.22,7.19-10l.93-1.58v5.87l-.09.13c-2.66,3.86-5.3,7.41-8.08,10.85l-.57.71-5.53-16.4c-.89-2.63-1.72-5.34-2.52-7.96-2.43-7.93-4.94-16.13-9.39-23.05-3-.55-6.01-.84-8.93-1.13-5.99-.58-11.65-1.14-16.85-3.74-1.29-.65-2.8-1.56-4.55-2.62-5.69-3.45-13.48-8.17-19.27-6.66-2.17.57-3.89,1.94-5.23,4.19l15.77,24.24c.84.57,2.99,2.83,9.93,10.08,12.04,12.59,32.18,33.67,38.01,37.04,6.87,4.04,12.9,7.96,17.23,14.91l.08.12v8.36ZM245.8,1371.19c5.16,1.85,9.28,9.85,12.93,16.92,2.08,4.03,4.04,7.84,5.71,9.34,1.94,1.74,3.95,3.46,5.89,5.13,7.39,6.34,15.03,12.9,20.63,21.56,7.87,12.15,15.39,16.51,22.03,20.35,5.2,3.01,10.11,5.86,14.57,11.87.85,1.15,1.67,2.3,2.48,3.43.42.58.83,1.16,1.25,1.74v-5c-4.2-6.68-10.1-10.5-16.81-14.45-5.95-3.44-26.15-24.58-38.23-37.22-4.95-5.18-9.23-9.65-9.74-9.98l.07-.12-.21.13h0s-16.27-25.02-16.27-25.02l.15-.26c1.49-2.62,3.5-4.27,6-4.92,6.2-1.62,14.2,3.23,20.04,6.77,1.73,1.05,3.23,1.96,4.48,2.58,5.04,2.52,10.61,3.06,16.5,3.64,3.01.29,6.12.6,9.23,1.18l.21.04.12.18c4.59,7.08,7.15,15.42,9.62,23.48.8,2.61,1.63,5.31,2.51,7.93l4.95,14.67c2.52-3.16,4.94-6.43,7.37-9.95v-1.92c-1.61,2.62-3.71,5.67-6.84,9.13l-.46.51-.35-.59c-1.82-3.1-2.18-5.93-2.52-8.67-.22-1.75-.43-3.41-1.01-5.05l-12.46-35.82c-.34-.93-.04-1.86.81-2.54,1.26-1.02,3.79-1.45,5.39-.44,6.09,3.81,10.68,3.89,15.12,3.98.78.01,1.54.03,2.31.06v-6.03c-4.1-.28-8.66-.7-12.4-3.93-6.15-5.26-10.38-1.74-15.27,2.33-5.76,4.79-12.28,10.22-23.28,2.68-7.06-4.86-13.96-8.4-19.19-10.94-2.47-.25-5.42.97-8.28,2.14-1.63.67-3.16,1.3-4.53,1.62l-.09.02h-.09c-3.86-.47-7.01-3.23-10.05-5.9-1.86-1.63-3.78-3.32-5.81-4.42-8.29-4.58-15.84-10.03-22.44-16.22l-8.89-8.32c-3.37-3.18-5.92-6.84-8.38-10.37-2.9-4.16-5.9-8.47-10.23-11.9-10.35-8.17-16.84-20.29-23.13-32.01l-1.35-2.51c-3.16-5.86-6.93-8.92-10.93-12.16-4.86-3.94-9.89-8.02-13.97-17.43l-.21-.47.48-.19c9.1-3.56,16.18,8.41,20.41,15.55.87,1.47,1.64,2.76,2.27,3.68l15.13-1.59.17.16c1.27,1.18,2.13,2.52,2.97,3.81.95,1.47,1.86,2.87,3.28,3.91.31-1.9-.89-2.9-2.48-4.23-.77-.64-1.64-1.37-2.4-2.27l-.44-.52,5.24-2.2c-1.22.07-2.42.04-3.59.01-1.54-.03-3.14-.07-4.72.11-1.27.13-2.46.55-3.72.99-2.2.76-4.47,1.55-7.15.74-3.07-.9-5.83-5.33-8.76-10.02-1.75-2.8-3.55-5.69-5.45-7.87-1.31-1.52-2.6-2.57-3.86-3.12-.57.73-1.82,1.22-3.85,1.54-5.68.78-16.58-.43-17.66-1.64l-.28-.31.26-.33c1.03-1.3,2.58-2.16,3.82-2.76,3.62-1.59,8.64-2.18,13.48-2.74,5.67-.66,11.53-1.35,14.74-3.63,1.04-.74,2.03-1.47,2.99-2.18,5.26-3.87,9.8-7.21,17.26-8.58,1.66-.31,3.43-1.06,5.3-1.86,4.08-1.74,8.71-3.71,13.23-1.16,8.12,4.6,14.48,14.18,20.1,22.63l.47.7c2.88,4.41,5.85,8.96,8.57,11.37,9.9,8.92,12.92,13.56,20.22,24.77l2.57,3.94-.55.23c-4.55,1.94-9.66.3-14.6-1.29-3.27-1.05-6.65-2.14-9.87-2.2,1.04.58,2.24.78,3.41.98,1.99.34,4.06.69,4.92,2.98.37.92.4,1.81.23,2.66.33-.68.75-1.25,1.3-1.61.57-.37,1.23-.47,1.96-.3,1.16.28,2.39.55,3.66.84,6.55,1.46,13.97,3.11,18.87,7.01,3.07,2.43,5.88,5.39,8.6,8.26,5.36,5.66,10.91,11.52,18.76,13.6,7.15,1.92,10.79,5.5,15.4,10.03.59.58,1.2,1.18,1.83,1.79,2.25,2.17,5.28,3.76,8.49,5.45,4.33,2.28,8.81,4.64,11.63,8.64,5.15,7.37,10.22,12.56,15.88,16.28v-8.64c-2.54-2.65-4.77-5.7-6.81-9.34-2.39-4.2-6.59-6.5-11.04-8.94-1.58-.86-3.2-1.76-4.82-2.77l-.55-.34.47-.44c5.16-4.93,11.74-2.7,18.08.45,1.57.77,3.03,1.08,4.67,1.01v-9.38l-2.61-.3c-9.83-1.14-19.11-2.21-28.88-1.66-3.11.17-5.23-1.2-7.47-2.63-1.16-.74-2.37-1.51-3.81-2.16-1.64-.73-3.31-1.42-4.93-2.08-7.36-3.03-14.31-5.89-19.5-12.65-.78-1.02-1.55-2.08-2.33-3.15-2.75-3.78-5.59-7.7-9.39-10.5-5.87-4.32-12.52-9.22-15.48-16.82-2.54-6.6-7.09-10.77-11.92-15.18-1.88-1.72-3.83-3.5-5.64-5.44-.86-.98-1.8-2.36-2.94-4.14-.69-1.11-1.45-2.32-2.28-3.65-1.54-2.39-2.95-4.57-4.69-6.96l-.1-.17c-3.67-5.1-7.55-9.32-11.86-12.88-6.12-5.08-12.02-6-20.37-3.18l-21.31,7.18c-1.71.57-2.9,1.94-4.16,3.39-1.51,1.73-3.08,3.52-5.63,4-2.97.54-6.36.51-9.63.5-6.07-.05-12.35-.08-16.71,3.32-2.25,1.74-4.5,3.1-6.68,4.02-5.39,2.25-10.85,2.18-17.68-.22-2.9-1.01-6.18-.18-9.66.7-3.01.76-6.12,1.55-9.06,1.07l-.15-.02-.11-.11c-8.73-8.27-18.3-8.51-25.99-8.71-6.86-.18-12.78-.33-15.52-6.18l-.41-.88.96.18c7.37,1.36,11.48-1.28,16.25-4.35.68-.44,1.37-.88,2.08-1.32,1.79-1.11,4-1.48,6.13-1.84,3.1-.53,6.04-1.02,7.94-3.54,1.2-1.53,2.2-2.62,3.15-3.42,3.04-2.6,5.8-2.86,9.29-3.2,5.22-.5,12.37-1.18,25.27-10.42l32.89-23.47c1.51-1.08,3.41-2.17,5.26-3.22,2.97-1.69,6.03-3.44,7.69-5.26,5.48-6.05,8.71-6.85,15.78-8.61l.5-.12c17.5-4.27,34.4-11.61,47.58-20.67,8.31-5.72,14.31-9.85,25.72-7.37,11.88,2.59,24.35,3.38,37.08,2.34l.37-.03,14.63,37.24c4.89-.24,7.32-1.48,9.22-2.78.7-.49,1.37-1.03,2.07-1.6,3.07-2.49,6.56-5.31,16.04-6.69,3.24-.46,3.82.42,5.22,2.53.39.59.84,1.27,1.45,2.07,1.39,1.86,2.88,3.67,4.34,5.42v-2.48c-.54-.69-1.09-1.39-1.64-2.09-1.35-1.71-2.71-3.44-4.03-5.18-.36-.44-.45-1.38-.55-2.47-.07-.71-.2-2.05-.44-2.25-.37.02-1.38.27-3.69,1.48l-2.01.97c-3.95,1.89-9.36,4.49-14.48,7.13-3.42,1.71-6.61,3.44-9.24,5l-.5.3-12.52-30.77c-.1-.25-.22-.51-.34-.78-.73-1.65-1.63-3.7-.01-4.42l2.86-1.33-34.94-.15.86-.85c4.29-4.26,9.37-6.11,14.28-7.9,1.61-.59,3.27-1.19,4.88-1.87l.09-.05.15-.15.1.04c.58-.25,1.14-.53,1.69-.8l30.38-15.1c1.07-1.91,8.83-7.42,11.86-9.42,4.28-2.94,9.09-5.72,13.88-8.05.68-.35,1.45-.48,2.19-.6.51-.08,1-.17,1.44-.32v-5.09c-.98.42-1.97.81-2.94,1.18-2.12.83-4.3,1.69-6.29,2.81l-.09.09h-.11c-.38.26-.78.49-1.17.72l-.49.29c-1.98,1.13-4.28,2.43-6.6,3.62l-2.2,1.19c-4.62,2.5-8.99,4.85-13.06,7.56-3.8,2.53-7.71,4.94-11.61,7.16-5.25,3.05-10.68,5.88-16.6,8.64l-.13.05c-1.24.63-2.52,1.2-3.76,1.74-6.16,2.8-12.46,5.36-19.25,7.84l-.24.09-.21-.14c-6.18-4.21-18.37-.95-24.59,1.64l-15.72,6.57-32.05,17.34c-2.2,1.19-4.92,1.59-7.54,1.97-3.42.5-6.95,1.02-9.2,3.29-4.36,4.36-8.99,8.01-15.5,12.22-2.86,1.83-6.66,4.47-11.06,7.53-16.1,11.2-38,26.42-48.35,26.42-.28,0-.54-.01-.8-.03-5.94-.5-9.24,2.16-12.73,4.96-.87.7-1.77,1.43-2.71,2.09-.76.54-1.6,1.11-2.54,1.56-2.38,1.17-4.91,1.89-7.35,2.6-3.52,1.01-7.17,2.06-10.62,4.47-4.9,3.29-13.91,5.09-19.27,4.72-6.35-.4-11.71-3.42-16.89-6.35-2.64-1.49-5.36-3.02-8.14-4.15v7.18c10.04,3.45,25.03,11.36,33.39,19.45l.84.81-1.16.05c-4.32.19-8.09-.45-11.74-1.06-4.99-.84-9.72-1.63-15.19-.16.81.39,1.72.33,2.88.25,1.25-.08,2.67-.18,4.33.29l.39.11-.02.4c-.66,11.2,1.99,21.46,5.26,32.76l.17.6-.62.04c-4.27.25-7.46-1.8-10.55-3.8-2.07-1.34-4.04-2.61-6.27-3.18,5.07,4.71,11.45,8.4,19,10.98l-6.84-38.56,48.09,4.43c2.51.24,4.76,1.93,6.95,3.57,2.9,2.18,5.91,4.43,9.59,3.4,10.54-2.95,15.68-1.76,22.2-.27,4.68,1.07,9.98,2.29,18.59,2.49l1.96.05-1.74.9c-7.8,4.02-12.33,8.5-17.13,13.23-2.75,2.72-5.6,5.53-9.22,8.44l-.29.24-.31-.22c-.4-.28-.79-.56-1.19-.83.65.49,1.25,1,1.79,1.55l.4.4-.44.35c-3.68,2.94-5.71,6.31-7.68,9.57-.6.99-1.22,2.02-1.86,3-2.3,3.43-5.88,5.16-9.35,6.84-2.31,1.11-4.49,2.17-6.33,3.68-3.91,3.21-5.8,7.09-8.19,12-3.43,7.06-8.13,16.73-21.71,30.01l-16.79,16.45c-6.54,6.42-7.18,8.69-8.05,11.84-.97,3.49-2.29,8.26-12.11,20.74l-.3.37c-.23.28-.47.58-.73.86v10.07c1.92-3.53,4.49-6.79,6.98-9.95,3.42-4.33,6.95-8.82,8.95-14.1,4.7-12.25,11.03-18.89,21.83-22.93l25.87-9.68.19.08c1.31.59,2.17,1.6,2.92,2.5.76.89,1.43,1.69,2.44,2.03-1.93-4.15-4.36-7.81-7.74-11.64.16.7.49,1.47.81,2.23.73,1.69,1.55,3.61,0,4.58l-.09.05c-1.31.48-2.61.98-3.91,1.49-6.29,2.43-12.81,4.95-20.42,4.85h-.98s.59-.8.59-.8c3-4.03,6.09-7.37,9.07-10.61,4.11-4.46,7.99-8.67,11.1-14.07,1.11-1.95,2.03-4.25,3.01-6.7,1.97-4.94,4.01-10.05,7.92-12.87,1.47-1.06,2.93-2.08,4.38-3.1,8.63-6.05,16.79-11.76,22.14-21.46,1.43-2.59,3.86-4.26,6.22-5.88,1.2-.82,2.43-1.67,3.5-2.61l15.99-14.36c1.23-1.13,3.55-2.17,5.56-1.98,1.1.1,1.99.58,2.58,1.37,1,1.41,1.88,2.95,2.73,4.44,1.77,3.11,3.6,6.32,6.61,8.4,8.92,6.05,14.62,13.04,17.43,21.37,1.49,4.44,4.07,7.69,6.81,11.13,1.08,1.36,2.19,2.76,3.23,4.24,1.09,1.54,2.07,3.08,3.02,4.57,2.69,4.22,5.22,8.21,9.81,11.41,3.7,2.6,8.82,6.49,10.5,10.31,2.31,5.26,5.55,8.46,9.29,12.16,2.08,2.05,4.23,4.17,6.4,6.83l1.19,1.47-29.11-11.28c-.9-.34-1.79-.82-2.66-1.27-2.44-1.29-4.76-2.52-7.59-1.37,1.95,1.66,4.16,2.38,7.12,3.34.62.2,1.27.41,1.95.64l.14.05.09.12c1.11,1.44-6.3,12.14-6.38,12.25-2.41,3.46-3.42,4.43-3.95,4.65-.02.78.1,1.61.52,2.07.22.24.51.37.88.4,1.01-1.42,1.89-3.21,2.83-5.11,2.12-4.29,4.32-8.73,8.46-10.21,5.2-1.86,10.33.73,14.85,3.02,2.21,1.12,4.3,2.18,6.3,2.71,13.92,3.83,36.42,17.13,44.7,28.59ZM209.53,1313.9c.38.52.64,1.05.86,1.5.24.48.48.97.7,1.02.08.02.31.01.86-.39,4.34-10.42,8.56-21.92,11.33-29.74.16-.44.29-1.14.44-1.94.15-.8.32-1.67.55-2.5-.45.9-1.05,1.75-1.61,2.57-.75,1.08-1.46,2.09-1.82,3.12-.49,1.43-.97,2.86-1.45,4.27-2.68,8-5.22,15.55-9.87,22.1ZM61.87,1246.34c5.14,4.15,11.56,6.71,17.8,9.18,4.12,1.64,8.08,3.21,11.29,5.16-8.81-5.81-18-10.34-29.09-14.34Z"
          style="fill: rgb(29, 29, 27);"></path>
      </g>
      <path class="cls-1" d="M860.05,1048.72c-.05.03-.08.08-.13.11,0-.13,0-.24.13-.11Z"
        style="fill: rgb(29, 29, 27);"></path>
      <path class="cls-1"
        d="M905.62,1035.65v8.85c-.11-.08-.27-.19-.38-.27-4.6-3.15-6.38-8.62-9.5-12.95-.11-.19-.27-.34-.46-.46-1.82-1.56-5.32-.34-6.95,1.14l-2.66,2.39-13.33,11.93c-2.35,2.13-5.39,3.65-7.63,5.89-.76.72-1.41,1.56-1.94,2.51-6.3,11.47-16.37,17.32-26.66,24.73-3.84,2.77-5.85,7.82-7.82,12.65-.15.42-.34.84-.49,1.25-.8,1.98-1.56,3.87-2.51,5.51-4.29,7.52-10.1,12.72-15.88,19.41-1.48,1.67-2.92,3.42-4.33,5.32,9.08.11,16.52-3.53,24.16-6.31.91-.57.76-1.56.34-2.73-.61-1.63-1.75-3.53-1.41-4.98,1.33,1.41,2.58,2.92,3.8,4.52,1.98,2.62,3.8,5.58,5.32,9.12-3.04-.19-3.65-3.49-6.38-4.79l-25.71,9.65c-1.56.57-3.04,1.25-4.37,1.94-4.71,2.39-8.24,5.39-10.98,9.12h-.04c-2.51,3.3-4.44,7.14-6.11,11.55-1.06,2.77-2.51,5.28-4.14,7.67-.46.65-.91,1.29-1.37,1.94-4.82,6.61-10.64,12.5-12.84,20.17-.19.65-.46,1.33-.8,2.01-.46.99-1.03,2.01-1.67,3.04-.72,1.14-1.52,2.32-2.24,3.46-1.48,2.2-2.85,4.33-3.57,6.38-9.31,4.98-13.75,9.61-16.75,13.9-.38.53-.72,1.06-1.06,1.6-1.25,1.97-2.28,3.87-3.42,5.7-.23.42-.46.8-.72,1.22-.3.42-.61.87-.91,1.29-.46.65-.95,1.25-1.48,1.86v-10.07c.38-.84.65-1.56.87-2.28.08-.3.19-.61.27-.91.23-.76.49-1.48.8-2.17.15-.34.27-.68.46-.99,4.29-9.08,12.19-10.56,17.47-16.18v-.04c1.52-1.6,2.81-3.49,3.76-6,.08-.15.11-.3.15-.46.49-1.37.87-2.89,1.14-4.63.87-5.7,6.31-9.34,10.1-14.02l.04-.04c.04-.08.11-.11.15-.19.76-.91,1.44-1.82,2.05-2.66h.04c1.18-1.6,2.2-3.04,3.11-4.37,6.65-9.57,6.19-12.5,7.56-15.99.53-1.37,1.37-2.85,3-4.86,1.06-1.29,2.47-2.81,4.41-4.71l2.81-2.77,7.41-7.25h.04l6.53-6.42c.76-.76,1.48-1.48,2.16-2.2,6.12-6.27,10.22-11.58,13.18-16.22.87-1.33,1.6-2.55,2.28-3.76.95-1.71,1.79-3.27,2.54-4.79,3.23-6.46,5.01-11.2,9.76-15.08,4.75-3.91,11.93-4.9,15.57-10.41,1.9-2.81,3.46-5.89,5.77-8.77.95-1.22,2.05-2.39,3.42-3.49t.04-.04c.04-.08.08-.11.11-.11.08-.04.11-.08.15-.11t.04-.04s.04-.04.04-.04c.04,0,.08-.04.08-.08,3.19-2.54,5.85-5.32,8.36-8.05,1.59-1.71,3.11-3.42,4.71-5.05,2.54-2.58,5.2-5.05,8.43-7.18.27.15.57.19.84.11,1.86-.72,3.61-1.75,5.47-2.47,1.48-.57,3-.76,4.6-.57,1.52.23,3,.76,4.33,1.44.19.08.34.19.53.3,1.03.53,1.98,1.14,2.92,1.79.42.3.87.61,1.29.91,1.33,2.24,2.7,4.1,4.1,5.7Z"
        style="fill: rgb(29, 29, 27);"></path>
      <path class="cls-1"
        d="M826.27,1240.66l-5.06,8.82c-3.97-2.12-7.79-4.45-11.39-6.92-8.27-5.67-14.12-9.7-25.3-7.29-1.22.26-2.44.5-3.66.74l-25.73-17.06c7.45,3.5,15.13,6.68,23.05,9.57,6.57-4.48,19.16-.85,25.07,1.62l15.71,6.57,7.31,3.95Z"
        style="fill: rgb(29, 29, 27);"></path>
      <path class="cls-1"
        d="M648.79,1226.19c2.65-.08,5.41.19,8.37,1.11-1.85,1.78-4.05.5-7.07.93l-1.3-2.04Z"
        style="fill: rgb(29, 29, 27);"></path>
      <path class="cls-1"
        d="M719.86,1269.68c-2.86-2.25-6.44-4.64-14.94-5.88-3.79-.53-3.42.74-6.2,4.4-1.67,2.23-3.47,4.37-5.25,6.49v-4.03c1.91-2.44,3.87-4.9,5.8-7.39.61-.79.27-4.9,1.32-4.9.98-.03,3.07,1.06,3.97,1.51,3.02,1.46,7.45,3.55,12.03,5.86l3.26,3.95Z"
        style="fill: rgb(29, 29, 27);"></path>
      <polygon class="cls-1"
        points="296.78 1098.28 296.56 1098.26 245.25 1085.15 245.6 1083.76 296.92 1096.86 296.76 1097.49 296.78 1098.28"
        style="fill: rgb(29, 29, 27);"></polygon>
      <polygon class="cls-1"
        points="77.79 961.09 71.64 958.2 .61 924.82 1.82 922.24 79.82 958.9 79.82 959.8 78.39 959.82 77.79 961.09"
        style="fill: rgb(29, 29, 27);"></polygon>
      <g>
        <polyline class="cls-1"
          points="191.79 1013.12 191.83 1013.16 220.24 1026.53 220.28 1026.53 322.07 1074.39 327.34 1076.99"
          style="fill: rgb(29, 29, 27);"></polyline>
        <polygon class="cls-1"
          points="327.02 1077.64 321.75 1075.04 220.12 1027.25 219.94 1027.18 191.41 1013.76 191.32 1013.67 191.87 1013.08 192.14 1012.51 220.59 1025.88 322.38 1073.74 327.66 1076.35 327.02 1077.64"
          style="fill: rgb(29, 29, 27);"></polygon>
      </g>
      <g>
        <polyline class="cls-1" points="106.01 923.03 101.19 920.3 1.22 863.4"
          style="fill: rgb(29, 29, 27);"></polyline>
        <polygon class="cls-1"
          points="105.31 924.27 100.49 921.54 .51 864.64 1.92 862.16 101.89 919.06 106.71 921.79 105.31 924.27"
          style="fill: rgb(29, 29, 27);"></polygon>
      </g>
      <g>
        <polyline class="cls-1" points="133.98 938.98 150.54 948.4 353.33 1063.79 394.13 1087"
          style="fill: rgb(29, 29, 27);"></polyline>
        <polygon class="cls-1"
          points="393.77 1087.62 352.98 1064.42 133.63 939.61 134.34 938.36 394.48 1086.38 393.77 1087.62"
          style="fill: rgb(29, 29, 27);"></polygon>
      </g>
      <rect class="cls-1" x="200.21" y="693.46" width="2.85" height="484.79"
        transform="translate(-685.56 576.18) rotate(-55.77)" style="fill: rgb(29, 29, 27);"></rect>
      <polygon class="cls-1"
        points="414.71 1060.91 369.66 1024.07 .32 722.18 2.12 719.98 371.46 1021.86 416.51 1058.71 414.71 1060.91"
        style="fill: rgb(29, 29, 27);"></polygon>
      <polygon class="cls-1"
        points="434.38 1051.46 384.4 1004.17 .24 640.6 2.2 638.53 386.35 1002.1 436.34 1049.39 434.38 1051.46"
        style="fill: rgb(29, 29, 27);"></polygon>
      <polygon class="cls-1"
        points="448.34 1041.98 401.13 987.93 .15 528.65 2.29 526.77 403.27 986.06 450.49 1040.11 448.34 1041.98"
        style="fill: rgb(29, 29, 27);"></polygon>
      <polygon class="cls-1"
        points="463.92 1037.22 418.41 975.73 .07 410.43 2.36 408.74 420.7 974.03 466.21 1035.53 463.92 1037.22"
        style="fill: rgb(29, 29, 27);"></polygon>
      <polygon class="cls-1"
        points="474.75 1035.55 433.61 967.72 0 252.35 2.44 250.87 436.05 966.24 477.18 1034.08 474.75 1035.55"
        style="fill: rgb(29, 29, 27);"></polygon>
      <rect class="cls-1" x="244.11" y="-50.94" width="3.13" height="1135.08"
        transform="translate(-192.87 149.3) rotate(-24.62)" style="fill: rgb(29, 29, 27);"></rect>
      <rect class="cls-1" x="316.55" y="-.07" width="2.97" height="1057.33"
        transform="translate(-152.45 129.6) rotate(-18.67)" style="fill: rgb(29, 29, 27);"></rect>
      <polygon class="cls-1"
        points="494.08 1029.32 476 955.94 245.48 19.86 248.37 19.15 478.89 955.23 496.97 1028.61 494.08 1029.32"
        style="fill: rgb(29, 29, 27);"></polygon>
      <rect class="cls-1" x="417.86" y="21.23" width="3.05" height="1013.73"
        transform="translate(-78.99 73.79) rotate(-9.19)" style="fill: rgb(29, 29, 27);"></rect>
      <rect class="cls-1" x="475.41" y="31.47" width="2.97" height="995.36"
        transform="translate(-32.07 30.76) rotate(-3.57)" style="fill: rgb(29, 29, 27);"></rect>
      <rect class="cls-1" x="21.25" y="519.39" width="1000.94" height="2.97"
        transform="translate(-.53 1041.23) rotate(-89.85)" style="fill: rgb(29, 29, 27);"></rect>
      <polygon class="cls-1"
        points="534.23 1019.97 531.27 1019.73 536.05 961.58 613.88 19.38 616.84 19.62 539.02 961.82 534.23 1019.97"
        style="fill: rgb(29, 29, 27);"></polygon>
      <polygon class="cls-1"
        points="543.86 1023.1 540.93 1022.6 550.35 966.96 710.86 19.25 713.8 19.75 553.28 967.46 543.86 1023.1"
        style="fill: rgb(29, 29, 27);"></polygon>
      <rect class="cls-1" x="164.62" y="525.4" width="1030.03" height="2.97"
        transform="translate(.85 1054.88) rotate(-75.66)" style="fill: rgb(29, 29, 27);"></rect>
      <polygon class="cls-1"
        points="562.14 1032.99 559.34 1032.01 576.89 982.13 904.22 52.24 907.03 53.23 579.69 983.12 562.14 1032.99"
        style="fill: rgb(29, 29, 27);"></polygon>
      <polygon class="cls-1"
        points="568.93 1041.74 566.23 1040.42 590.91 989.94 922.16 312.45 924.85 313.77 593.6 991.26 568.93 1041.74"
        style="fill: rgb(29, 29, 27);"></polygon>
      <polygon class="cls-1"
        points="575.79 1050.45 573.12 1048.89 602.34 998.99 930.9 438.01 933.56 439.58 605 1000.55 575.79 1050.45"
        style="fill: rgb(29, 29, 27);"></polygon>
      <polygon class="cls-1"
        points="585.27 1060.65 582.85 1058.89 613.52 1016.52 922.29 589.79 924.71 591.54 615.94 1018.27 585.27 1060.65"
        style="fill: rgb(29, 29, 27);"></polygon>
      <rect class="cls-1" x="511.14" y="869.91" width="503.7" height="3.04"
        transform="translate(-395.08 851.01) rotate(-47.79)" style="fill: rgb(29, 29, 27);"></rect>
      <polygon class="cls-1"
        points="605.25 1066.86 603.29 1064.69 627.66 1042.66 922.52 775.83 924.48 778 629.63 1044.83 605.25 1066.86"
        style="fill: rgb(29, 29, 27);"></polygon>
      <polygon class="cls-1"
        points="608.97 1078.48 607.19 1076.15 632.97 1056.52 922.62 835.91 924.39 838.24 634.74 1058.85 608.97 1078.48"
        style="fill: rgb(29, 29, 27);"></polygon>
      <g>
        <polyline class="cls-1" points="923.5 887.6 636.82 1068.7 636.82 1068.73 590.96 1097.68"
          style="fill: rgb(29, 29, 27);"></polyline>
        <polygon class="cls-1"
          points="591.74 1098.92 590.18 1096.44 635.37 1067.92 636.04 1067.46 922.72 886.36 924.28 888.83 638.29 1069.5 637.61 1069.97 591.74 1098.92"
          style="fill: rgb(29, 29, 27);"></polygon>
      </g>
      <polygon class="cls-1"
        points="583.94 1116.11 582.59 1113.51 638.83 1084.19 922.83 936.02 924.18 938.61 640.19 1086.78 583.94 1116.11"
        style="fill: rgb(29, 29, 27);"></polygon>
      <polygon class="cls-1"
        points="629.26 1106.43 628.05 1103.66 637.07 1099.72 922.9 975.05 924.11 977.82 638.28 1102.49 629.26 1106.43"
        style="fill: rgb(29, 29, 27);"></polygon>
      <polygon class="cls-1"
        points="598.77 1131.92 597.84 1129.22 635.48 1116.23 872.65 1034.27 905.16 1023.03 906.09 1025.72 873.58 1036.96 636.41 1118.93 598.77 1131.92"
        style="fill: rgb(29, 29, 27);"></polygon>
      <g>
        <polyline class="cls-1"
          points="602.4 1133.9 603.6 1133.63 603.63 1133.64 603.87 1133.58 603.9 1133.58 622.14 1129.72 817.87 1088.4 825.56 1086.79"
          style="fill: rgb(29, 29, 27);"></polyline>
        <polygon class="cls-1"
          points="602.55 1134.6 602.24 1133.19 603.55 1132.91 603.57 1132.91 603.8 1132.85 603.86 1132.86 621.99 1129.02 817.72 1087.69 825.41 1086.09 825.7 1087.5 818.02 1089.1 603.95 1134.3 603.93 1134.3 603.7 1134.36 603.65 1134.36 602.55 1134.6"
          style="fill: rgb(29, 29, 27);"></polygon>
      </g>
      <g>
        <polyline class="cls-1"
          points="565.57 1148.64 582.84 1145.99 606.31 1142.39 606.66 1142.37 606.7 1142.37 606.9 1142.3 606.98 1142.3 624.8 1139.55 802.67 1112.32 802.71 1112.33 814.18 1110.56"
          style="fill: rgb(29, 29, 27);"></polyline>
        <polygon class="cls-1"
          points="565.68 1149.36 565.46 1147.92 606.78 1141.56 606.92 1141.56 624.69 1138.83 802.62 1111.59 802.68 1111.59 814.07 1109.84 814.29 1111.28 802.75 1113.06 802.69 1113.06 624.91 1140.27 606.82 1143.1 606.68 1143.1 606.37 1143.12 565.68 1149.36"
          style="fill: rgb(29, 29, 27);"></polygon>
      </g>
      <g>
        <polyline class="cls-1"
          points="524.66 1153.72 526.41 1153.6 560.23 1151.14 560.38 1151.14 605.87 1147.85 606.21 1147.82 622.98 1146.62 777.6 1135.43 786.76 1134.78"
          style="fill: rgb(29, 29, 27);"></polyline>
        <polygon class="cls-1"
          points="524.71 1154.44 524.61 1153 526.36 1152.88 560.17 1150.42 560.39 1150.42 786.71 1134.07 786.81 1135.5 777.65 1136.14 623.04 1147.34 560.43 1151.86 560.21 1151.85 524.71 1154.44"
          style="fill: rgb(29, 29, 27);"></polygon>
      </g>
      <g>
        <polyline class="cls-1"
          points="510.78 1157.6 510.86 1157.6 510.9 1157.6 521.83 1157.83 560.23 1158.63 560.38 1158.64 583.2 1159.14 620.3 1159.92 620.34 1159.92 766.54 1163.1 766.58 1163.1 774.74 1163.24"
          style="fill: rgb(29, 29, 27);"></polyline>
        <polygon class="cls-1"
          points="774.73 1163.96 766.57 1163.82 620.32 1160.64 510.88 1158.32 510.78 1157.6 510.8 1156.88 510.88 1156.88 620.32 1159.2 766.56 1162.38 774.76 1162.52 774.73 1163.96"
          style="fill: rgb(29, 29, 27);"></polygon>
      </g>
      <g>
        <polyline class="cls-1" points="593.99 1175.29 614.88 1177 753.29 1188.32 761.34 1188.97"
          style="fill: rgb(29, 29, 27);"></polyline>
        <polygon class="cls-1"
          points="761.28 1189.69 753.23 1189.04 593.93 1176.01 594.05 1174.58 761.4 1188.25 761.28 1189.69"
          style="fill: rgb(29, 29, 27);"></polygon>
      </g>
      <polygon class="cls-1"
        points="809.54 1233.5 809.34 1233.49 732.61 1219.43 732.87 1218.02 744.95 1220.22 809.6 1232.07 809.5 1232.62 809.54 1233.5"
        style="fill: rgb(29, 29, 27);"></polygon>
      <polygon class="cls-1"
        points="668.13 1207.63 667.97 1207.62 553.18 1186.58 553.28 1186.03 553.24 1185.15 553.44 1185.16 590.56 1191.95 590.79 1191.95 590.89 1192.03 600.84 1193.82 668.23 1206.21 668.11 1206.82 668.13 1207.63"
        style="fill: rgb(29, 29, 27);"></polygon>
      <polygon class="cls-1" points="909.31 1297.39 909.27 1297.39 909.27 1295.95 909.31 1297.39"
        style="fill: rgb(29, 29, 27);"></polygon>
      <polygon class="cls-1"
        points="656.32 1228.5 650.62 1226.94 626.96 1220.48 627.13 1219.85 627.11 1219.07 627.34 1219.09 636.57 1221.64 656.7 1227.11 656.32 1228.5"
        style="fill: rgb(29, 29, 27);"></polygon>
    </g>
  </g>
</svg>