<?xml version="1.0" encoding="UTF-8"?>
<svg id="Calque_1" data-name="Calque 1" xmlns="http://www.w3.org/2000/svg" viewBox="0 0 110.83 225.4">
  <g>
    <g>
      <path d="M18.05,43.1c-3.18,0-4.93,1.87-4.93,5.26v11.88c0,3.39,1.75,5.26,4.93,5.26s4.93-1.87,4.93-5.26v-2.95h-2.93v3.21c0,1.82-1.04,2.2-1.91,2.2s-1.91-.38-1.91-2.2v-12.36c0-1.44,.68-2.23,1.91-2.23s1.91,.79,1.91,2.23v2.38h2.93v-2.16c0-3.39-1.75-5.26-4.93-5.26Z"/>
      <path d="M36.62,43.1c-3.28,0-5.09,1.91-5.09,5.39v11.63c0,3.47,1.81,5.39,5.09,5.39s5.09-1.91,5.09-5.39v-11.63c0-3.47-1.81-5.39-5.09-5.39Zm1.97,17.24c0,1.56-.66,2.36-1.97,2.36s-1.97-.79-1.97-2.36v-12.07c0-1.56,.66-2.36,1.97-2.36s1.97,.79,1.97,2.36v12.07Z"/>
      <path d="M59.67,63.84l-.05-.1,.06-.09c.63-.91,.95-2.1,.95-3.54v-11.63c0-3.47-1.81-5.39-5.09-5.39s-5.09,1.91-5.09,5.39v11.63c0,3.47,1.81,5.39,5.09,5.39,.83,0,1.61-.13,2.24-.37l.18-.07,.05,.19c.33,1.34,1.23,1.98,2.73,1.98h.74v-2.81h-.36c-.61,0-1.13-.04-1.44-.59Zm-2.16-3.5c0,1.56-.66,2.36-1.97,2.36s-1.97-.79-1.97-2.36v-12.07c0-1.56,.66-2.36,1.97-2.36s1.97,.79,1.97,2.36v12.07Z"/>
      <path d="M74.54,62.7c-1.31,0-1.94-.76-1.94-2.32v-16.95h-3.12v16.7c0,3.52,1.73,5.39,4.99,5.39s4.99-1.86,4.99-5.39v-16.7h-2.99v16.95c0,1.56-.63,2.32-1.94,2.32Z"/>
      <polygon points="91.7 46.23 97.69 46.23 97.69 43.42 88.59 43.42 88.59 65.19 97.69 65.19 97.69 62.38 91.7 62.38 91.7 55.24 96.46 55.24 96.46 52.43 91.7 52.43 91.7 46.23"/>
    </g>
    <g>
      <path d="M35.82,84.76v-.08c1.85-.75,2.67-2.45,2.67-5.17v-1.06c0-4.08-1.85-6.08-6.14-6.08h-6.25v26.43h6.51c4.14,0,6.29-2.19,6.29-6.27v-2.27c0-2.79-.87-4.76-3.09-5.51Zm-5.57-8.61h2c1.47,0,2.11,.83,2.11,2.72v1.47c0,2.11-.94,2.79-2.49,2.79h-1.62v-6.98Zm4.52,16.27c0,1.96-.75,2.6-2.15,2.6h-2.37v-8.12h1.85c1.88,0,2.67,.75,2.67,3.21v2.3Z"/>
      <path d="M54.83,72c-4.07,0-6.29,2.42-6.29,6.64v13.89c0,4.23,2.22,6.64,6.29,6.64s6.29-2.42,6.29-6.64v-13.89c0-4.23-2.22-6.64-6.29-6.64Zm2.15,20.8c0,1.89-.83,2.6-2.15,2.6s-2.15-.72-2.15-2.6v-14.42c0-1.89,.83-2.6,2.15-2.6s2.15,.72,2.15,2.6v14.42Z"/>
      <rect x="71.44" y="72.37" width="4.14" height="26.43"/>
      <path d="M93.28,84c-2.71-2.38-3.58-3.78-3.58-5.7,0-1.81,.75-2.53,2.07-2.53s2.07,.72,2.07,2.6v1.36h3.92v-1.09c0-4.23-2-6.64-6.02-6.64s-6.18,2.42-6.18,6.57c0,3.02,1.13,5.17,4.59,8.23,2.71,2.38,3.54,3.78,3.54,5.96,0,1.96-.83,2.64-2.15,2.64s-2.15-.68-2.15-2.57v-1.81h-3.92v1.51c0,4.23,2.03,6.64,6.1,6.64s6.25-2.42,6.25-6.72c0-3.28-1.09-5.4-4.56-8.46Z"/>
    </g>
    <g>
      <polygon points="14.42 78.71 16.52 78.71 16.52 77.42 14.42 77.42 14.42 74.74 17.06 74.74 17.06 73.45 13 73.45 13 83.09 17.06 83.09 17.06 81.8 14.42 81.8 14.42 78.71"/>
      <polygon points="16.46 96.04 16.34 96.04 14.86 90.21 13.03 90.21 13.03 99.85 14.29 99.85 14.29 92.74 14.41 92.74 16.24 99.85 17.72 99.85 17.72 90.21 16.46 90.21 16.46 96.04"/>
    </g>
    <g>
      <path d="M44.87,24.23c.1,.13,.21,.24,.37,.12,.1-.08,.32,.07,.38-.04,.07-.12-.26-.35-.37-.35-.17,0-.29,.23-.38,.28Z"/>
      <path d="M45.53,25.36c-.09-.13-.63-.53-.59-.12,0,.09,.67,.49,.59,.12-.12-.17,0,.03,0,0Z"/>
      <path d="M55.58,1.84s0,.03,0,.04c-.06-.2-.05-.4-.16-.6-.09-.16-.1-.28-.13-.46,0-.03-.09-.17-.06-.19,.09-.06,.06-.15,.04-.24-.02-.11,.22-.3,.31-.35,.31-.17,.76,.21,1.01,.36,.25,.15,.74,.44,.72,.79-.01,.2,.12,.35,.05,.56-.03,.08,.01,.16-.01,.24-.03,.09-.08,.17-.11,.26-.16,.41-.33,.81-.3,1.27,.04,.54-.08,1.04-.17,1.56-.04,.23-.07,.47-.11,.7-.03,.18,0,.19,.13,.3,.05-.17,.01-.37,.03-.55,.02-.2,.06-.4,.1-.6,.09-.39,.3-.62,.61-.86,.29-.23,.5-.51,.83-.7,.15-.08,.28-.23,.44-.28,.2-.06,.41-.09,.61-.14,.28-.06,.71-.15,.96,.06,.09,.08,.32,.11,.44,.15,.16,.05,.33,.07,.51,.06,.17-.01,.33-.07,.5-.06,.22,.02,.16,.13,.25,.28,.14,.23,.17,.56,.13,.82-.06,.37-.37,.45-.59,.7-.09,.11-.13,.26-.23,.37-.11,.13-.19,.28-.22,.45-.06,.3,0,.82-.36,.94-.27,.09-.57,.28-.78,.48-.25,.24-.56,.36-.81,.59-.28,.25-.54,.48-.78,.77-.25,.3,.32,.24,.47,.03,.07-.09,.25-.19,.35-.07,.06,.06,.06,.19,.07,.27,.29-.07,.57-.16,.81-.35,.25-.2,.38-.48,.54-.74,.18-.28,.47-.5,.73-.71,.24-.2,.52-.39,.83-.45,.16-.03,.32-.03,.48-.07,.17-.04,.3-.13,.46-.19,.16-.06,.32,0,.47-.06,.12-.05,.23-.1,.35-.14,.31-.1,.55,.15,.84,.06,.14-.04,.26-.12,.36-.23,.08-.08,.11-.21,.22-.25,.36-.13,.42,.38,.4,.62-.03,.32-.19,.63-.3,.92-.11,.33-.11,.42,.1,.71,.08,.11,.26,.29,.26,.43,0,.11-.13,.22-.19,.31-.17,.23-.58,.32-.86,.24-.31-.1-.68,.09-.97,.19-.63,.22-1.27,.46-1.8,.88,.19,.09,.53-.25,.7-.29,.29-.08,.72,.11,.97,.25,.34,.18,.51,.35,.61,.72,.08,.3,.04,.61,.03,.91,0,.2,1.59,.09,1.8,.1,.33,.01,.69-.12,1.01-.06,.15,.02,.42,.07,.5,.22,.12,.23,.07,.5,.23,.73,.11,.17,.19,.62-.08,.71-.17,.05-.32,.13-.47,.22-.1,.06-.28,.03-.4,.03-.3,0-.51,.01-.8,.1-.63,.19-1.25,.52-1.82,.84-.56,.31-1.12,.62-1.63,1.02,.17,0,.4,.06,.55-.04,.17-.11,.36-.2,.56-.2,.17,0,.45-.02,.58-.14,.14-.13,.15-.35,.3-.48,.13-.12,.3-.2,.48-.17,.25,.05,.32,.03,.57-.07,.11-.05,.42-.23,.55-.14,.12,.08,.17,.39,.18,.52,.03,.25-.02,.49-.09,.72-.07,.23,.11,.26,.33,.26,.43,0,.93-.17,1.32,.06,.36,.21,.43,.7,.31,1.09-.06,.19,0,.44-.01,.64-.02,.2-.03,.43-.08,.63-.12,.49-.83,.21-1.14,.19-.4-.02-.85-.04-1.24,.02-.24,.03-.47,.15-.71,.11-.07-.01-.54-.13-.48,.02,.08,.2,.05,.4,.04,.61,0,.24,.17,.16,.37,.18,.15,.01,.08-.33,.27-.12,.04,.04,0,.13,.05,.17,.04,.03,.21,0,.24,0,.52-.03,.47,.5,.33,.86-.19,.48-.47,.91-.71,1.36-.2,.38-.35,.79-.56,1.17-.2,.38-.51,.53-.92,.56-.2,.01-.33,.05-.5,.15-.05,.03-.15,.1-.22,.09-.07-.01-.06-.13-.14-.16-.26-.09-.11,.18-.11,.38,0,.24-.1,.47-.19,.69-.15,.4-.56,.65-.88,.91-.36,.3-.77,.55-1.03,.95-.2,.31-.2,.68-.54,.89-.5,.31-.76-.09-1.06-.46-.08-.1-.24-.38-.39-.24-.05,.04-.19,.35-.11,.37,.45,.12-.17,.65-.34,.8-.15,.14-.34,.16-.52,.24-.2,.09-.41,.18-.62,.25-.2,.07-.41,.14-.53,.32-.11,.15-.27,.24-.45,.3-.19,.06-.29-.02-.44-.14-.16-.12-.36-.18-.53-.27-.22-.12-.78-.81-1.06-.55-.05,.04-.41-.04-.49-.06-.03-.01-.3,.34-.35,.37-.32,.26-.67,.46-1.07,.27-.43-.21-.83-.49-1.28-.66-.25-.09-.32-.02-.46,.14-.09,.11-.44,.08-.57,.1-.47,.08-.87,.15-1.35,.1-.26-.03-.47-.02-.65-.23-.14-.16-.3-.31-.44-.47-.29-.34-.44-.78-.74-1.1-.11,.36-.34,.26-.65,.16-.24-.08-.44-.19-.6-.38-.35-.41-.61-.88-.95-1.3-.13-.16-.36-.4-.33-.63,.04-.27,.26-.24,.41-.09,.17,.16,.35,.37,.59,.43,.11,.03,.21,0,.32,.03,.09,.03,.18,.07,.27,.11-.24-.86-1.05-1.59-.64-2.54,.19-.43,.72-.33,1.1-.25,.28,.06,.57,.08,.83,.18,.23,.09,.32,.06,.48-.15-.27-.17-.7-.2-1.01-.27-.37-.08-.74-.17-1.12-.24-.27-.05-.72-.03-.94-.2-.13-.1-.19-.31-.25-.46-.06-.13-.14-.24-.22-.36-.14-.25-.57-.32-.81-.42-.22-.09-.56-.32-.63-.56-.09-.31,.01-.58,.11-.86,.06-.16,.03-.17,.23-.22,.12-.03,.25-.06,.36-.12,.22-.12,.61-.16,.85-.17,.34-.01,.67,.05,.99,.13,.18,.04,.35,.09,.53,.13,.11,.03,.19-.03,.29-.02,.15,.02,.27,0,.41,0,.13,0,.27,.07,.41,.08,.33,.01,.72,.13,1.04,.21,.33,.09,.65,.18,.97,.3,.31,.11,.63,.2,.94,.31,.29,.11,.72,.29,1.03,.24-.16-.15-.44-.21-.63-.31-.18-.1-.37-.2-.56-.28-.37-.17-.77-.38-1.16-.49-.43-.12-.86-.34-1.28-.51-.22-.09-.41-.34-.56-.54-.12-.16-.22-.34-.35-.5-.1-.12-.22-.22-.28-.37-.05-.12-.27-.18-.37-.24-.17-.1-.32-.23-.51-.3-.43-.18-.82-.41-1.26-.57-.18-.06-.4-.08-.57-.17-.12-.07,0-.21-.12-.29-.2-.11-.26-.32-.42-.47-.19-.18-.09-.26-.17-.48-.06-.17-.01-.4,.03-.57,.06-.23,.03-.46-.02-.68-.06-.27-.03-.52-.05-.8-.01-.22,.02-.34,.28-.22,.41,.2,.7,.37,.98,.74,.15,.19,.27,.4,.42,.59,.12,.16,.4,.09,.57,.07,.22-.04,.47-.13,.69-.11,.24,.02,.36,.26,.51,.42,.67,.71,1.46,1.13,2.3,1.6,.25,.14,.31,.22,.58,.13,.14-.05-.05-.42-.08-.51-.15-.42-.44-.81-.71-1.16-.27-.35-.6-.77-.97-1.03-.4-.28-.83-.52-1.23-.8-.23-.16-.43-.35-.66-.52-.15-.11-.36-.22-.44-.39-.2-.4,.08-.74,.03-1.14-.02-.13-.06-.26-.12-.38-.04-.08-.15-.21-.13-.31,.03-.19,.39-.19,.52-.18,.45,.01,.79,.22,1.15,.47,.09-.34,.19-.58,.44-.83,.23-.23,.46,.04,.72,.07,.36,.05,.63,.14,.95,.3,.25,.12,.56,.09,.8-.05,.2-.12,.39-.44,.65-.23,.23,.19,.21,.49,.39,.69,.21,.23,.44,.44,.64,.67,.12,.14,.25,.28,.37,.43,.08,.09,.13,.22,.24,.28,.04-.19-.13-.45-.19-.63-.08-.24-.15-.48-.22-.71-.14-.46-.32-.88-.55-1.31-.2-.39-.4-.78-.63-1.16-.25-.39-.54-.72-.84-1.08-.14-.17-.29-.37-.53-.4-.1,0-.36-.08-.39-.2-.04-.16,.1-.29,.11-.44,0-.07-.39-.2-.46-.24-.41-.29,.25-.48,.42-.71,.13-.17,.25-.36,.37-.53,.1-.14,.18-.35,.34-.42,.38-.16,.82-.47,1.16-.07,.3,.35,.48,.85,.7,1.25,.49,.86,1.09,1.65,1.56,2.51,.25,.46,.47,.93,.64,1.43,.14,.42,.34,.8,.49,1.22,.1,.27,.19,.54,.29,.8,.08,.21,.1,.11,.26,.14,.19,.03,.19,.01,.2-.17,.01-.25,.02-.49,0-.74-.03-.93-.08-1.85-.17-2.79-.04-.46-.08-.94-.17-1.39-.06-.33-.18-.91-.46-1.13-.1-.08-.21,.07-.28-.06-.03-.05,.08-.12,.09-.14,.11-.18,.14-.44,.22-.64,.18-.44,.46-.57,.88-.75,.25-.11,.35-.15,.41-.42,.04-.15,.13-.25,.28-.29,.36-.1,.52,.33,.69,.58,0,.01-.05-.07,0,0Zm-5.64,17.7c.19,.02,.39,.2,.6,.17-.08-.15-.6-.21-.76-.2,.04,.03,.11,.02,.16,.03,.02,0-.02,0,0,0Zm7.95-6.6c.07,0,.19,.05,.25,.02-.05-.04-.08,0-.14,0-.04,0-.08,0-.11-.02Zm-4.11-.4s.09-.24,.13-.32c.01-.03,.05-.16,.08-.18,.05-.04,.07,.04,.06,.07-.13,.33-.27,.66-.32,1.01,.07-.12,.04-.2,.13-.31,.1-.13,.05-.31,.14-.43,.15,.24,.18-.05,.35-.15,.02,.11-.16,.33-.08,.4,.11,.1,.15,.09,.28,.09,0,.08-.1,.19-.08,.27,.02,.08,.06,.15,.08,.23,.03,.12,.1,.29,.16,.38,.12-.09,.14-.24,.22-.37,.06-.11,.14-.21,.2-.32,.13-.24,.28-.55,.46-.74,.05,.09,.05,.47-.04,.51-.15,.06-.18,.47-.2,.61,0,.05-.05,.22,.08,.16,.06-.03,.06-.2,.07-.25,.03-.17,.05-.47,.21-.55,.04,.18-.14,.36-.09,.57,.11-.14,.1-.32,.22-.44,.09,.1,.07,.22,.12,.34,.11-.12,.12-.27,.19-.42,.06-.16,.12-.04,.19-.13,.06-.08,.09-.26,.22-.2,.16,.07,.14-.05,.25-.09,0,0,.3,.18,.32,.2,.13,.14,.15,.06,.29-.06,.11-.1,.23-.15,.27-.31,.04-.16-.13-.12-.26-.14-.45-.04-.85-.24-1.29-.28-.44-.04-.88-.11-1.31-.2-.24-.05-.46-.13-.65-.28-.22-.16-.18,0-.21,.22-.05,.38-.13,.76-.18,1.13,0,0,0-.02,0,0Zm4.66,.81s-.33-.02-.42-.03c-.13,0-.23,0-.35-.02-.06-.02-.14-.01-.18,.03,.09,.06,.37,.02,.48,.03,.16,.02,.32-.03,.46-.02,0,0-.02,0,0,0Zm-6.62,5.08s.02,.02,.03,.02c0-.02-.07-.03-.03-.02,.01,0,0,0,0,0Zm-3.67,1.3c-.12-.06-.3-.11-.39-.21-.11-.12,.17-.2,.18-.06,0,.17,1.16,.32,1.33,.36,.14,.03,.46,.17,.54,0,.09-.17-.26-.2-.36-.23-.21-.06-.42-.13-.63-.19-.1-.03-.33-.04-.39-.12,.11-.05,.43,.01,.53,.06-.15,0-.3-.12-.45-.13-.26-.03-.52-.08-.77-.13-.13-.03-.56-.18-.68-.06-.05,.06-.04,.21-.05,.28-.03,.12-.07,.23-.11,.35-.12,.37-.08,.91-.56,1.05-.29,.09-.82,.01-.97,.37,.14,.04,.14,.06,.21-.05,.04-.06,.14,.03,.13-.05-.03-.18,.49,.01,.58,0,.07,0-.07-.15,.06-.11,.15,.05,.31,.1,.46,.14,.22,.06,.69,.25,.9,.19-.1-.11-.41-.14-.55-.18-.19-.06-.38-.12-.57-.18-.25-.08-.16-.15,.05-.08,.2,.06,.4,.12,.61,.19,.42,.13,.84,.24,1.27,.35,.35,.09,.79,.29,1.16,.25-.39-.28-1.03-.32-1.49-.44-.32-.08-.95-.14-1.17-.38,.25-.13,.81,.12,1.08,.19,.2,.05,.4,.1,.6,.14,.13,.03,.38,.13,.51,.09-.06-.12-.47-.16-.59-.19-.24-.06-.48-.11-.72-.17-.11-.03-.42-.08-.35-.25,.07-.18,.25,0,.37,.04,.41,.17,.86,.25,1.28,.37,.23,.07,.47,.14,.71,.19,.15,.03,.38,.12,.53,.09-.12-.16-.47-.24-.65-.3-.23-.07-.46-.13-.69-.19-.51-.14-1.02-.25-1.49-.5-.15-.08-.02-.14,.07-.18,.06,.09,.16,.12,.26,.15,.25,.06,.49,.12,.74,.18,.29,.07,.57,.14,.86,.21,.18,.04,.45,.16,.64,.12-.16-.14-.48-.17-.69-.22-.27-.07-.55-.15-.82-.22-.29-.07-.59-.17-.88-.2-.12-.01-.53-.09-.58-.23-.04-.14,.44,.07,.52,.08,.23,.06,.46,.11,.69,.17,.45,.11,.96,.33,1.43,.36-.01-.27-.55-.3-.74-.34-.33-.07-.67-.13-1-.21-.05-.01-.76-.18-.54-.29,.04-.02,.58,.21,.58,.18-.02-.01,0,0,0,0Zm1.37,.26s.08,.03,.08,.03c-.06,.01-.13-.06-.19-.05,.04,.03,.06,.01,.11,.02,.02,.01-.02,0,0,0Zm3.76,2.92s.02,.02,.03,.03c-.06-.04-.12-.06-.19-.1-.03,.08,.11,.06,.16,.07,.01,.01-.02,0,0,0Zm-.37-.74c.11,.05,.38,.23,.5,.22-.1-.13-.35-.14-.5-.21-.09-.05-.33-.18-.38-.25,.25-.12,.9,.29,1.14,.44,.13,.08,.31,.18,.4,.31,.06,.09-.14,.18-.2,.17-.05,0-.16-.13-.2-.05-.04,.08,.2,.16,.26,.14,.1-.04,.26-.16,.3-.25,.03-.07,.15-.03,.21-.07-.23-.2-.61-.35-.9-.46-.18-.07-.36-.13-.54-.19-.15-.05-.33-.02-.4-.16,.32-.09,.86,.19,1.16,.31,.2,.08,.43,.15,.62,.27,.06,.04,.13,.2,.15,.2,.21-.02,.42-.81,.48-.99,.12-.35,.08-.84,.06-1.21,0-.16,.04-.41-.06-.55-.06-.09-.18-.22,.01-.27,.2-.06,.19,.86,.2,.97,.04,.35,.02,.85-.1,1.18-.04,.1-.41,.9-.34,.94,.31,.18,.66-.09,.92-.29,.17-.13,.33-.25,.52-.34,.16-.08,.34-.1,.49-.2,.18-.12,.2-.33,.3-.5,.09-.16,.21-.3,.35-.42,.21-.17,.46-.56,.71-.64,.3-.1-.27,.5-.33,.56-.15,.15-.35,.27-.48,.44-.1,.14-.15,.29-.23,.44-.17,.33-.62,.35-.9,.54-.18,.12-.35,.24-.53,.36-.11,.07-.3,.14-.36,.26,.22,.07,.76-.33,.96-.44,.33-.19,.67-.36,.96-.6,.27-.21,.55-.44,.74-.73,.1-.15,.15-.32,.25-.46,.06-.1,.22-.23,.11-.35-.21-.23-.75-.11-1.04-.18-.39-.09-.73-.27-1.1-.42-.39-.16-.77-.17-1.18-.22-.27-.03-.64-.08-.88,.07-.31,.2-.64,.35-.95,.54-.22,.13-.11,.08-.08,.24,.02,.11-.16,.09-.21,.06-.11-.07-.21,.09-.28,.15-.13,.1-.3,.16-.44,.24-.19,.1-.88,.34-.57,.64,.24,.23,.44,.37,.74,.53,.16,.08,.24,.17,.34,.32,.07,.11,.12,.31,.24,.39,.15,.09,.41,.12,.58,.16,.11,.03,.1-.12,.02-.15-.25-.11-.58-.21-.73-.44,.06-.04,.12-.04,.17,0,.02,.01-.02-.01,0,0Zm-5.69-.87s-.04-.02-.07,0c.07,.03,.11,0,.2,.05,.02-.06-.09-.04-.13-.04,0,0,.02,0,0,0Zm7.81-7.81s.04-.05,.02-.09c-.02,.02-.03,.05-.02,.09,0,0,0-.02,0,0Zm3.24-1.35s-.15-.05-.11,0c.03,.04,.23,.02,.26,0-.04-.03-.09-.03-.14,0-.03-.03,.04,0,0,0Zm-8.76,9.01c.08,.03,.16,.09,.24,.08-.09-.08-.31-.1-.43-.12,0,.07,.14,.07,.18,.04,.07,.03-.07,.05,0,0Zm8.18-7.65c-.05-.05-.24-.07-.29-.02,.04,.03,.48,.06,.53,.02-.05-.05-.19-.06-.24,0-.08-.08,.07-.08,0,0Zm-1.95-.25s-.02,.02-.03,.03c.01-.02,.24-.25,.09-.26-.04,0-.05,.2-.05,.22-.01,.01,.01-.07,0,0Zm-6.79,6.63c-.12-.03-.35-.13-.47-.1,.02,.04,.75,.2,.82,.18-.07-.06-.26-.06-.35-.08-.15-.04,.11,.02,0,0Zm3.08-13.02c-.12-.11-.24-.19-.38-.27-.1-.06-.19-.17-.29-.2,0,.21,.54,.46,.67,.48-.07-.06,0,0,0,0Zm1.78,4.62c-.05,.27-.4,.79-.36,1.16,.24-.21,.39-.84,.36-1.16,0,0,.01,.17,0,0Zm8.47-.47c-.34-.03-.67-.07-1.01-.13-.15-.03-.26-.13-.41-.04,0,0-.27,.15-.16,.17,.16,.02,1.54,.27,1.57,0-.18-.02,0,0,0,0Zm-16.71,7.84c-.29-.16-.6-.26-.89-.42-.15-.09-.36-.28-.53-.3,0,0-.28,0-.19,.07,.29,.2,.62,.37,.95,.52,.14,.06,.31,.17,.46,.16,.01,0,.24-.02,.2-.03-.08-.04,0,0,0,0Zm19.19-4.87c.25-.05,.47-.21,.71-.31,.23-.09,.47-.17,.7-.26,.05-.02,.26,0,.16-.11-.07-.07-.17-.12-.22-.21-.1-.19,.19-.32,.25-.47-.25,.01-.55,.17-.78,.25-.25,.08-.5,.15-.74,.25-.39,.16-.75,.48-1.07,.73,.21,.07,.08,.18,.31,.19,.14,0,.33-.13,.45-.18,.05-.02,.25-.08,.29-.01,.05,.08-.12,.15-.15,.19,.04-.01,.07-.03,.1-.06,.05,0-.01,.01,0,0Zm-14.16,3.76s-.12-.18,.02-.16c.06,0,.05,.08,.09,.11,.15,.09,.39,.17,.5,.27,0-.02-.26-.2-.31-.22-.07-.03-.02-.25,.13-.04,.1,.14,.29,.17,.43,.26,.14,.1,.39,.3,.57,.27-.05-.13-.26-.21-.37-.29-.17-.12-.35-.24-.52-.36-.01,0-.26-.26-.09-.2,.09,.04,.19,.18,.28,.24,.24,.16,.58,.43,.87,.48,.11,.02-.23-.25-.24-.25-.15-.1-.29-.2-.44-.3,0,0-.37-.29-.2-.26,.14,.02,.14,.12,.25,.19,.16,.09,.52,.43,.71,.37,.16-.05-.45-.45-.5-.5-.07-.09-.16-.12-.06-.23,.08-.09,.16,0,.25-.02-.03-.07-.1-.14-.15-.2,.07-.08,.14-.16,.21-.23,.09-.08,.29-.06,.15-.24-.12-.15-.17,.09-.28,.16-.19,.12-.41,.22-.61,.32-.35,.19-.77,.25-.99,.61-.19,.32-.4,.37-.69,.55,.14,.17,.55,.27,.75,.37,.08,.04,.29,.2,.38,.12,.03-.02,.06-.03,.03-.07-.04-.05-.44-.19-.31-.29,.12-.1,.44,.1,.55,.17,.21,.15,.44,.29,.69,.37,.23,.07,.02-.12-.06-.16-.25-.13-.5-.25-.74-.4-.12-.07-.52-.23-.5-.38,.2,.02,.46,.27,.65,.37,.14,.07,.35,.23,.5,.24-.09-.13-1.03-.57-.92-.68,.25,.21,.64,.49,.96,.55-.1-.15-.37-.25-.53-.34-.11-.06-.31-.21-.44-.21-.02-.04,0,0,0,0Zm10.26,.5c.23-.04,.62-.19,.8,0-.14,.1-.37,.1-.49,.21,.01,0,.63-.09,.5,.03-.19,.17-.6,.06-.8,.24,.19,.07,.4,.01,.59-.05,.14-.04,.27-.05,.41-.08,.28-.08,.54-.22,.77-.4,.21-.17,.46-.49,.74-.53,.16-.02,.25,.01,.39-.08,.09-.06,.19-.02,.27-.08-.14-.14-.38-.17-.54-.32-.15-.14-.24-.31-.43-.41-.29-.15-.89-.13-.99-.49-.05-.17-.14-.32-.33-.19-.16,.11-.09,.43-.24,.46-.24,.06-.29,.04-.3,.27,0,.2-.12,.09-.22,.21,.28,.13,.36,.43,.09,.64-.07,.06-1.04,.36-1.03,.38,.07,.1,.69-.17,.81-.2,.07-.02,.64-.25,.66-.21,.32,.45-.56,.38-.74,.64,.03,0,.05-.02,.07-.04,.11-.02-.01,0,0,0Zm-1.8-8.08c.09,.28,.65,.27,.88,.31,.13,.02,.15,.22,0,.2-.19-.02-.37-.09-.54-.14-.11-.04-.34-.17-.39,0-.04,.17,.19,.17,.31,.2,.2,.05,.4,.11,.6,.16,.15,.04,.05,.16,.12,.2,.19,.11,.11-.3,.27-.22,.15,.08,.41-.18,.53-.26,.43-.28,.76-.67,1.2-.93,.4-.24,.8-.52,1.26-.65,.22-.06,.43-.11,.64-.22,.17-.08,.35-.07,.53-.11,.08-.02-.16-.43-.19-.5-.08-.23-.14-.47-.24-.69-.07-.15-.46,.25-.53,.32-.16,.14-.34,.24-.54,.32-.45,.17-.96,.19-1.35,.5-.21,.17-.38,.38-.6,.53-.17,.12-.43,.2-.54,.36,.02,0,.36,.07,.19,.16-.11,.06-.23,0-.34-.02-.12-.01-.49,.21-.22,.18,.31-.03,.24,.19-.04,.14-.11-.02-.22-.06-.33-.06-.02,0-.2,.04-.21,.04,.17,.1,.35,.14,.54,.15,.25,0,.23,.18-.01,.16-.22-.03-.44-.07-.64-.17-.12-.06-.32,.06-.38,0-.02,.02,0,.03,.03,.03,.06,.18-.01,0,0,0Zm-3.26,13.27c-.24,.1-.47,.19-.65,.39-.08,.09-.43,.4-.27,.51,.18,.13,.04,.24,.28,.31,.43,.13,.98,.33,1.3,.66,.12,.13,.37-.25,.48-.3,.14-.06,.32-.05,.45-.06,.17,.09,.27-.24,.32-.36,.13-.26,.12-.46,.08-.74-.03-.24-.07-.48-.09-.73-.02-.25-.18-.44-.18-.7,0-.13,.22-.13,.19,0-.02,.08-.02,.17,0,.25,.02,.1,.11,.19,.11,.29,0,.1,0,.2,0,.31,.02,.27,.09,.53,.12,.8,.03,.25-.09,.43-.11,.67,.56-.02,.86-.53,1.35-.69,.25-.08,.4-.3,.65-.38,.26-.09,.41-.27,.62-.45,.19-.18,.3-.39,.47-.59,.07-.08,0-.13-.08-.15-.12-.03-.21,.02-.32,.07-.28,.11-.57,.22-.87,.22-.33,0-.57-.19-.85-.33-.47-.24-1.18-.45-1.63-.06-.12,.1-.35,.33-.17,.39,.06,.02,.16,.19,.23,.24,.1,.07-.01,.21-.09,.13-.07-.08-.19-.11-.25-.2-.08-.12-.06-.12-.2,0-.03,.02-.29,.18-.24,.24,.07,.08,.25,.13,.34,.19,.09,.06,.3,.17,.32,.29,.05,.21-.15,.06-.2,.02-.1-.08-.36-.37-.49-.27-.09-.32-.41-.03-.62,.07Zm.71-4.58c-.08,.16-.31,.04-.2-.11,.25-.36,.73-.41,1.13-.38,.12,0,.25,0,.36-.05,.05-.03,.1-.1,.15-.12,.15-.05,.02,.17,.03,.18,.1,.06,.42-.11,.51-.16,.17-.09,.32-.22,.44-.38,.3-.4,.59-.82,.86-1.24,.09-.15,.2-.34,.23-.52,.01-.09,.21-.35,.27-.44,.16-.25,.13-.39,.02-.65-.08-.17-.4-.1-.54-.09-.24,0-.47,.03-.7,.07-.2,.04-.3,0-.29,.22,.12-.02,.29-.14,.4-.08-.07,.12-.23,.14-.29,.28-.07,.18-.13,.36-.19,.54-.06,.18-.04,.37-.1,.55-.05,.15-.12,.3-.2,.44-.08,.16-.08-.12-.07-.14,.03-.15,.11-.29,.14-.44,.06-.35,.17-.67,.24-1.02-.27,.21-.43,.39-.43,.75,0,.31-.04,.63-.06,.94-.03,.33-.16,.55-.33,.84-.05,.09-.1,.5-.26,.4-.21-.12,.25-.77,.3-.92,.09-.25,.11-.57,.13-.83,.02-.3-.03-.62,.1-.9,.12-.28,.31-.33,.51-.52-.06-.01-.12,0-.18,.02-.2,.06-.37,.17-.5,.33-.12,.14-.19,.29-.37,.35-.39,.15-.9,0-1.31-.03-.38-.02-.89-.02-1.23,.16-.06,.03-.13-.03-.2,0-.08,.04-.13,.11-.2,.17-.16,.12-.39,.17-.58,.24-.16,.05-.62,.12-.67,.29-.07,.21,.18,.24,.32,.28,.16,.05,.34,.11,.44,.26,.13,.19,.07,.26,.31,.36,.49,.2,.92,.6,1.34,.92,.02,.01,.42,.36,.2,.35-.11,0-.32-.28-.4-.36-.36-.33-.79-.63-1.26-.78-.23-.08-.24-.09-.29-.32-.04-.16-.19-.22-.33-.28-.12-.05-.25-.03-.36-.1-.06-.04-.13-.12-.21-.11-.13,0-.33,.2-.22,.32,.3,.32,.8,.44,1.16,.69,.43,.29,.76,.7,1.22,.94,.34,.18,.85,.49,1.25,.36,.14-.05,.27-.11,.41-.16,.18-.05,.3-.22,.48-.28,.27-.09,.09-.16-.07-.17-.12,0-.35-.01-.43,.08-.19,0-.35,.06-.44,.23Zm-4.42,4.07c-.11-.29-.84-.27-1.07-.25-.18,.02-.36,.06-.54,.07-.16,.01-.33-.04-.49,0-.38,.07-.75,.12-1.14,.09-.34-.02-.46-.09-.58,.26-.13,.37-.09,.82-.04,1.21,.03,.24-.07,.58,.18,.71,.17,.09,.34,.17,.47,.31,.07,.07,.09,.33-.05,.2-.19-.17-.73-.39-1-.3-.11,.04-.23,.27-.35,.17-.17-.13,.16-.24,.19-.33,.03-.07-.68-.72-.76-.82-.26-.3-.53-.59-.79-.9-.22-.26-.51-.57-.6-.91-.02-.06,0-.21,.09-.11,.1,.1,.13,.32,.21,.45,.2,.32,.47,.59,.72,.87,.26,.29,.51,.58,.79,.85,.17,.17,.47,.55,.73,.52-.01-.02-.08-.12-.08-.14,0-.06,.07-.1,.06-.18-.02-.19-.03-.38-.02-.57,.02-.37,0-.79,.15-1.14,.05-.12,.15-.21-.02-.25-.19-.04-.36-.12-.52-.23-.35-.24-.6-.4-1.02-.48-.22-.04-.44-.11-.67-.12-.13,0-.35-.06-.47-.01-.34,.14-.29,.72-.23,1,.14,.69,.81,1.22,.81,1.96,0,.2,.29,.22,.44,.26,.19,.06,.38,.18,.55,.28,.35,.19,.73,.47,1.1,.61,.27,.1,.53-.27,.82-.28,.34-.01,.48-.09,.59-.41,.14-.39,.46-.53,.8-.72,.31-.17,.6-.3,.94-.4,.31-.09,.58-.24,.75-.53,.07-.12,.23-.25,.22-.4,0-.11-.12-.24-.18-.33-.02-.05,.05,.09,0,0Zm-.19,1.41c-.34,.22-.65,.45-.95,.73-.19,.18-.13,.21-.02,.44,.04,.08,.32,.51,.19,.56-.17,.07,.65,.81,.72,.88,.27,.27,.08-.05,.03-.19-.06-.15-.2-.36-.14-.51,.04,.02,.09,.13,.13,.13,.05,.01,.13-.18,.15,.03,.01,.16,.04,.28,.12,.42,.03-.33,.03-.66,0-.99-.02-.19-.04-.37-.06-.56,0-.09-.06-.29-.02-.37,.06-.12,.11,.13,.11,.17,0,.15,.02,.3,.04,.44,.05,.31,.08,.62,.1,.94,0,.14,.03,.97,.22,.93,.24-.05,.29-.26,.47-.38,.05-.04,.1,.02,.15-.02,.03-.03,.06-.05,.09-.08,.11-.1,.21-.21,.3-.34,.12-.18,.26-.63,.44-.72,.06,.19-.25,.75-.37,.9-.11,.14-.22,.28-.34,.42-.11,.12-.27,.11-.37,.21-.04,.04-.17,.15-.05,.18,.08,.02,.29-.15,.36-.2,.16-.12,.55-.36,.75-.32-.08,.11-.97,.55-.85,.69,.12,.14,.12,.19,.24,0,.08-.13,.21-.22,.34-.31,.32-.22,.7-.33,1.03-.54,.36-.23,.33-.6,.55-.93,.06-.08,.3-.34,.21-.44-.12-.13-.33-.22-.48-.3-.2-.1-.42-.23-.64-.27-.18-.03-.34-.01-.52-.08-.65-.26-1.21-1.09-1.91-.52-.07,.05,.19-.16,0,0Zm11.01-6.1c-.18,.15-.35,.31-.54,.45-.08,.05-.15,.12-.23,.16-.07,.04-.19,.04-.24,.09-.06,.06,.21,.31,.24,.37,.02,.04-.02,.08-.06,.08-.07,0-.15-.12-.19-.16-.13-.15-.17-.24-.38-.21-.18,.03,.04,.18,.08,.24,.02,.02,.27,.41,.11,.35-.15-.05-.3-.35-.39-.48-.08-.12-.39,.06-.5,.09-.24,.08-.01,.22,.09,.36,.03,.04,.35,.56,.12,.45-.12-.06-.2-.33-.32-.44-.14-.13-.19-.29-.37-.21-.22,.09-.44,.17-.66,.26-.3,.12-.14,.71-.04,.91,.19,.36,.58,.56,.75,.93,.1,.22,.22,.08,.41,.08,.26,0,.14-.09,.06-.27-.17-.4-.27-.8-.54-1.16-.02-.03-.13-.12-.13-.18,0-.08,.08-.06,.11-.02,.1,.14,.22,.27,.31,.42,.1,.16,.21,.23,.28,.42,.06,.17,.08,.36,.18,.52,.11,.19-.03,.26,.26,.28,.09,0,.43,0,.39,.19-.04,.15-.38,0-.48,.01-.02,0-.05,.3-.14,.14-.1-.18-.25-.11-.44-.08-.2,.03-.19,.11-.25,.3,.05-.01,.33-.12,.32-.01,0,.09-.03,.13,.09,.12,.26-.01,.43,.11,.66-.09,.21-.18,.35-.44,.62-.54,.23-.08,.45-.17,.69-.19-.1-.28,.24-.5,.37-.76,.19-.36,.2-.75,.25-1.14,.06-.42,.18-.87,.13-1.3-.03-.21-.05-.42-.27-.25-.03,.02-.34,.27-.35,.26-.18,.15,0,0,0,0Zm-6.64-8.84c.23,.27,.48,.53,.68,.82,.07,.1,.16,.21,.21,.32,.02,.05,.03,.2-.09,.13-.13-.08-.21-.32-.29-.45-.09-.13-.18-.26-.28-.38-.14-.16-.42-.38-.46-.6-.02-.1-.26,.2-.27,.21-.09,.11-.21,.2-.31,.3-.14,.14,.43,.42,.54,.46,.31,.13,.56,.29,.84,.47,.23,.15,.37,.36,.64,.3,.2-.05,.42-.01,.13,.1-.11,.04-.23,.08-.31,.18-.05,.06-.16,.25-.25,.25-.12,0-.11-.14-.06-.2,.1-.12,.1-.17,0-.29-.17-.19-.45-.4-.68-.51-.17-.08-.37-.1-.54-.19-.13-.07-.24-.17-.36-.26-.19-.15-.45-.22-.7-.23-.12,0-.65,.07-.72,.15-.02,.02,.01,.28,.01,.31,0,.12-.04,.26,0,.37,.03-.03,.06-.07,.09-.1,.04,.11-.07,.24,.01,.33,.08,.1,.21,.17,.32,.23,.27,.14,.58,.21,.87,.27,.34,.07,.68,.08,1.03,.13,.29,.05,.56,.17,.86,.21,.24,.03,.64,.16,.67-.18,.01-.13,.15-.06,.22-.07,.1-.01,.18-.17,.21-.24,.16-.31,.09-.65,.3-.95,.14-.19,.21-.38,.35-.55,.17-.21,.23-.68,.14-.93-.01-.03-.41,.19-.51,.19-.16,0-.44-.17-.51,.05-.03,.11-.05,.22-.14,.3-.07,.07-.26,.08-.21,.21,.06,.15,.16,.33,.16,.5,0,.08-.11,.09-.16,.05-.17-.17-.06-.55-.25-.72-.28-.25-.64-.23-.99-.24-.03,0-.33-.03-.31,.03,0,.04,.1,.23,.12,.22,.18,.21,0,0,0,0Zm2.59-4.93c.33,.37,.54,.72,.69,1.2,.15,.49,.29,.97,.92,.9,.55-.06,.36-.76,.55-1.13,.1-.19,.24-.38,.36-.56,.13-.19,.34-.27,.47-.45,.15-.19,.15-1.11-.18-1.07-.27,.03-.54,.07-.81,0-.26-.07-.51-.18-.77-.27-.25-.09-.48-.02-.73,.05-.21,.06-.49,.08-.6,.27-.1,.18-.23,.3-.19,.54,.01,.07,.25,.54,.28,.52,.03,.04,0,0,0,0Zm-9.25,6.32c.41-.28,.4-.88,.3-1.32-.06-.25-.05-.48-.23-.68-.06-.06-.16-.14-.18-.23-.01-.06,.08-.09,.1-.15-.13-.04-.29,.14-.4,.21-.16,.09-.34,.15-.53,.16-.47,.03-.83-.32-1.29-.35-.11,0-.21-.01-.32-.03-.08-.02-.16-.08-.24-.09-.12,0-.3,.3-.37,.38-.24,.29-.12,.87-.15,1.23-.01,.17-.06,.41,.21,.38,.16-.02,.28-.14,.43-.19,.17-.06,.34,.14,.5,.19,.19,.06,.37,.03,.54,.17,.11,.09,.18,.27,.32,.31,.16,.05,.27-.14,.42-.15,.16,0,.41,.14,.54,.21,.17,.1,.19,.07,.34-.05,.22-.15-.04,.03,0,0Zm2.15,5.62c.16-.23,.28-.45,.39-.71,.08-.19,.23-.4,.26-.6,0-.06,.07-.48-.03-.48-.14,0-.32,.17-.46,.22-.21,.08-.43,.18-.65,.21-.2,.02-.41-.07-.6-.05-.41,.05-.74-.29-1.18-.18-.19,.05-.38,.18-.55,.27-.12,.07,.04,.39,.07,.48,.13,.38,.41,.96,.28,1.36-.04,.13,.53,.14,.62,.16,.24,.04,.34,.07,.56-.05,.43-.22,.87-.41,1.29-.64,.06-.09-.03,.02,0,0Zm6.72,10.6c-.22-.12-.46-.17-.67-.3-.19-.13-.36-.31-.53-.46-.21-.18-.36-.24-.64-.3-.12-.03-.27-.04-.37-.13-.06-.05-.08-.12-.17-.13-.24-.05-.29,.17-.35,.35-.09,.26-.3,.45-.4,.7-.09,.24-.16,.33-.38,.46-.17,.09-.28,.26-.42,.39,.38,.25,.71,.54,1.13,.74,.14,.07,.29,.21,.45,.17,.17-.04,.33-.25,.45-.36,.15-.14,.36-.2,.55-.26,.21-.07,.4-.2,.62-.25,.25-.05,.71-.34,.73-.62-.02-.01,0,.03,0,0Zm-13-11.83c-.12-.25-.25-.5-.23-.79,.02-.26,.14-.51,.19-.77,.02-.12,.1-.29,.07-.41-.02-.1-.16-.09-.19-.19-.03-.08-.54,.07-.61,.09-.22,.05-.61,.08-.74-.14-.11-.18-.24-.35-.35-.53-.06-.1-.77-.91-.89-.62-.09,.21-.05,.5,.02,.7,.09,.24,.06,.5,.02,.75-.03,.18-.1,.44,0,.61,.04,.08,.12,.03,.14,.15,.01,.09,.04,.14,.09,.21,.15,.23,.27,.36,.55,.41,.26,.05,.51,0,.73,.19,.29,.25,.93,.56,1.32,.42-.02-.03-.06-.11-.1-.09-.05-.11,0,0,0,0Zm19.43,1.99c.4-.35,.69-.83,1.04-1.24,.1-.11,0-.18,.05-.29,.03-.07,.12-.08,.14-.16,.06-.19,.14-.4,.12-.6,0-.13-.05-.51-.23-.44-.09,.04-.24,.07-.31,.14-.05,.06-.03,.13-.13,.14-.22,.02-.45-.13-.67-.05-.17,.06-.31,.32-.3,.49,.16-.05,.24-.22,.41-.25,.02,.15-.09,.21-.2,.31-.09,.08-.26,.24-.39,.24-.12,0-.04-.19-.22-.13-.19,.06-.36,.06-.55,.1-.14,.03-.27,.13-.39,.2-.12,.07-.34,.2-.49,.15-.12-.04-.36-.18-.49-.16-.35,.06-.08,.58,.06,.69,.26,.21,.64,.13,.89,.33,.23,.18,.42,.59,.73,.64,.39,.06,.56,.12,.91-.11,.19-.16-.05,.03,0,0Zm-15.61-11.58c.36,.42,.6,.87,.87,1.35,.13,.24,.27,.48,.39,.72,.04,.08,.1,.29,.21,.31,.08,.01,.12,.07,.15,.14,.07,.15,.66,1.33,.79,1.25,.08-.04,.34,.03,.39,.1,.05,.07,.1,0,.17,0,.04,0,.13,.09,.16,.11,.06-.27-.09-.45-.16-.71-.03-.1,.05-.17,0-.26-.06-.11-.11-.22-.17-.33-.07-.14-.41-.57-.36-.73,.04-.16,.12-.01,0-.22-.06-.11-.12-.21-.18-.31-.28-.5-.64-.96-.93-1.46-.11-.18-.26-.33-.37-.51-.11-.17-.26-.35-.41-.48-.08,.24-.13,.43-.34,.6-.17,.14-.28,.04-.46,.06,.05,.14,.17,.26,.26,.37,.09,.1-.1-.12,0,0Zm13.14,17.95c-.46,.44-1,.83-1.61,1.02-.12,.04-.33,.15-.46,.13-.15-.02-.18-.01-.34,.04-.31,.11-.52,.35-.8,.49-.25,.12-.53,.01-.79,.17-.05,.03-.36,.21-.32,.28,.03,.06,.29,.09,.35,.12,.5,.24,.87,.84,1.25,1.22,.22,.21,.57-.27,.61-.43,.03-.15,.19-.3-.04-.26-.12,.02-.24,.03-.35,.08-.11,.04-.23,.23-.35,.21-.16-.02-.04-.19,.02-.24,.2-.18,.55-.16,.81-.18,.15-.01,.24-.25,.34-.34,.11-.1,.23-.19,.33-.29,.21-.21,.47-.39,.7-.59,.24-.21,.5-.34,.64-.65,.11-.26,.21-.55,.15-.82-.04,.01-.09,.03-.13,.04-.05,.04,.03-.01,0,0Zm-15.96-6.79c.19,.21,.38,.5,.65,.6,.22,.08,.55,.24,.79,.21,.31-.04,.49-.07,.8,0,.25,.06,.44,.22,.7,.25,.27,.03,.51-.15,.64-.37,.15-.26-.25-.15-.43-.22-.21-.09-.53-.1-.7,.08-.1,.11-.29-.09-.09-.21,.06-.03,.25-.06,.29-.11,0,0-.03-.25-.03-.26,.02-.24-.03-.48-.1-.71-.02-.09-.17-.82-.25-.81-.19,.02-.46,.26-.59,.38-.22,.23-.43,.29-.75,.32-.27,.02-.43,.04-.68,.15-.06,.03-.59,.15-.58,.18,0,.1,.36,.49,.32,.52,.13,.15,0,0,0,0Zm-2.26,2.54c.24,.36,.56,.1,.88,.06,.23-.03,.73-.08,.93,.05-.13,.18-.62,.09-.83,.14-.28,.07-.49,.23-.79,.15-.17-.04-.25-.18-.36-.3-.08-.09-.33-.25-.36-.36-.08-.27-.51-.4-.73-.52-.23-.12-.22,.57-.17,.69,.1,.27,.46,.45,.71,.53,.35,.12,.6,.24,.82,.55,.13,.19,.17,.59,.44,.62,.34,.04,.46-.13,.71-.31,.25-.19,.62-.04,.88-.21,.29-.18,.3-.71,.37-1,.01-.05,.11-.29,.06-.34-.04-.04-.17-.13-.23-.14-.17-.01-.36,.06-.52,.08-.2,.02-.39,.04-.59,.05-.32,.02-.69-.03-1,.03,.02,.04,.14,.11,.06,.15-.06,.03-.3-.09-.38-.11,.04,.07,.06,.12,.11,.18,.06,.1-.03-.04,0,0Zm6.3-6.46c-.15-.2-.51-.52-.55-.76,.15,.03,.18,.25,.34,.12,.12-.09,.22,.18,.29,.25,.12,.14,.51,.65,.68,.66-.05-.2-.33-.45-.47-.59-.13-.13-.4-.32-.46-.5-.02-.05,.05-.07,0-.12-.06-.07-.13-.13-.2-.2-.14-.14-.34-.28-.43-.45,.17,0,.39,.29,.51,.4,.2,.18,.41,.36,.6,.55,.32,.31,.63,.75,1.01,.98-.17-.32-.5-.59-.75-.84-.17-.18-.6-.46-.66-.7,.22-.01,.38,.37,.59,.44-.05-.08-.1-.16-.15-.24,.26,.2,.46,.57,.75,.72-.09-.26-.45-.53-.63-.74-.13-.15-.43-.45-.45-.64,.19,.04,.39,.34,.52,.47,.16,.16,.45,.57,.66,.62,0-.12-.24-.29-.32-.37-.14-.14-.28-.28-.42-.43-.14-.15-.28-.31-.42-.46-.1-.11-.28-.24-.31-.39,.22,.02,.46,.45,.62,.6,.15,.15,.31,.3,.46,.44,.07,.07,.17,.22,.26,.23-.03-.12-.27-.32-.35-.43-.11-.14-.25-.26-.37-.4-.06-.07-.61-.75-.62-.75,.12-.05,.61,.58,.7,.68,.17,.18,.34,.44,.57,.56-.14-.22-.36-.44-.55-.63-.15-.16-.28-.33-.43-.49-.07-.07,.06-.11,0-.16-.04-.04-.27-.31-.32-.28-.06,.03-.06,.33-.06,.4,0,.14-.07,.27-.16,.37-.11,.12-.43,.47-.61,.4-.16-.06-.46-.38-.66-.28-.35,.16,.04,.28,.23,.4,.22,.14,.51,.26,.68,.45-.2,.03-.46-.18-.64-.27-.21-.11-.43-.22-.64-.33-.18,0-.26-.25-.36-.37-.18-.2-.29-.21-.55-.28-.29-.08-.4-.2-.68-.04-.21,.12-.05,.22,.09,.33,.17,.14,.36,.28,.55,.38,.09,.05,.19,.1,.28,.13,.07,.02,.02-.08,.06-.1,.16-.08,.5,.67,.71,.54,.13-.08,.13-.03,.23,.05,.05,.04,.09-.06,.13,.03,.01,.05,.04,.1,.07,.15,.18,.28,.55,.45,.8,.67,.14,.12,.26,.25,.37,.39,.08,.1,.19,.29,.31,.33,.02-.2-.43-.57-.56-.71-.19-.2-.59-.46-.68-.71,.11,.02,.16,.09,.24,.17,.05,.04,.09-.03,.13-.03,.15,0,.29,.32,.42,.38-.06-.13-.35-.3-.34-.44,0-.09,.35,.22,.38,.26,.36,.37,.64,.85,1.03,1.19-.02-.08-.45-.63-.47-.61-.18-.23,0,0,0,0Zm16.15-.96c-.73-.2-1.52,0-2.27-.03,.03,.25-.02,.56-.19,.76-.09,.11-.48,.33-.63,.24-.17-.1-.49,0-.66,.05-.27,.07-.53,.25-.78,.37-.56,.27-1.1,.59-1.63,.91-.03,.02-.32,.15-.27,.21,.05,.07,.14,.12,.23,.13,.24,.03,.38-.11,.6-.18,1.09-.35,2.09-.96,3.18-1.33,.24-.08,.44-.21,.69-.27,.27-.06,.54-.1,.81-.15,.23-.04,.43-.12,.65-.21,.26-.11,.19-.28,.29-.51-.08-.02-.01,.03,0,0Zm-11.69-7.6c.25-.15,.46-.27,.73-.37,.24-.1,.15-.35,.17-.55,.02-.19,.33,.03,.16-.21-.08-.11-.19-.18-.25-.3-.04-.09-.05-.2-.13-.26-.09,.18,0,.59-.02,.8-.01,.14-.15,.5-.34,.49-.22-.02,.18-.47,.21-.58,.06-.25,.04-.53,.03-.79-.01-.28-.07-.51-.24-.75-.09-.13-.28-.42-.45-.19-.12,.15-.09,.32,0,.45,.12,.18,.14,.41,.17,.61,.05,.25,.02,.55-.25,.63-.2,.06-.28,.25-.47,.31-.3,.1-.32-.39-.32-.57,0-.1,.24-.41,.31-.22,.07,.21-.21,.28-.11,.5,.09,.18,.29-.18,.38-.21,.22-.09,.3-.16,.28-.44-.01-.22-.1-.41-.18-.61-.33,.15-.68,.26-.98,.48-.13,.09-.24,.38-.23,.53,0,.09-.11,.17-.06,.26,.18,.33,.52,.59,.79,.85,.24,.23,.5,.35,.78,.15,.21-.13-.05,.03,0,0Zm-6.32-.31c.11-.06,.26-.18,.39-.16,.21,.04-.03,.2-.1,.23-.07,.03-.15,.07-.18,.15,0,.05-.02,.09-.05,.13-.07,.05-.18,.04-.26,.09-.08,.05-.26,.21-.18,.32,.01,.02,.14-.07,.16-.08,.15-.06,.16,.14,.26,.21,.09,.06,.24,.1,.35,.12,.31,.05,.53-.2,.54-.49,0-.37,.15-.39,.45-.53,.12-.06,.28-.15,.34-.27,.04-.07-.09-.25-.12-.31-.13-.28-.27-.61-.47-.85-.09-.1-.21-.15-.34-.1-.03,.01-.27,.1-.26,.15,.07,.19,.5,.39,.42,.65-.03,.1-.2,.17-.26,.29-.05,.09-.06,.23-.2,.2-.24-.07,.21-.53,.21-.63,0-.13-.21-.31-.28-.41-.06-.09-.19-.03-.25,.03-.22,.21-.39,.56-.58,.81-.12,.16-.23,.27-.39,.38-.12,.08,.1,.16,.16,.18,.18,.07,.52,.03,.64-.12,.07-.04-.09,.11,0,0Zm15.1,16.7c-.37,.34-.62,.75-.92,1.15-.15,.2-.26,.37-.46,.54-.19,.17-.43,.34-.58,.54,.17,.1,.49,.02,.68,0,.12,0,.3-.07,.39,.05,.07,.09,.17,.11,.27,.16,.21,.09,.41,.02,.63-.01,.06,0-.03-.41,.05-.53,.12-.17,.4-.13,.31-.36-.03-.07,.05-.24,.04-.33,0-.1-.01-.2-.02-.3-.01-.25-.05-.49-.13-.73-.07-.23-.07-.35-.29-.18-.24,.22,.02-.01,0,0Zm-16.41,6.14c.16,.3,.45,.47,.62,.75,.17,.28,.53,.22,.82,.26,.34,.05,.68-.03,1.02-.08,.2-.03,.6-.11,.25-.3-.31-.17-.61-.37-.88-.59-.25-.2-.48-.29-.78-.4-.34-.12-.6-.13-.9-.34-.2-.14-.51-.29-.76-.29,.11,.35,.4,.69,.62,.98,.12,.23-.08-.1,0,0Zm7.75-22.34c-.26,.22-.36,.19-.65,.03-.19-.11-.38-.2-.52-.37-.04-.05-.14-.23-.23-.21,.14,.31,.23,.64,.28,.97,.02,.16,0,.34,.05,.5,.04,.12,.13,.16,.21,.26,.11,.14,.16,.34,.23,.5,.05,.14,.13,.04,.19,.15,.05,.08,.2,.19,.29,.2,.04,0,.14,.05,.17,.05,.06,0,.25-.1,.27-.16,.05-.15,.14-.17,.13-.35-.01-.15,.05-.27,.05-.42,0-.15,.02-.29,.04-.44,.02-.15-.02-.33,.03-.47,.06-.17,.16-.23,.13-.43-.05-.33-.51,.1-.67,.19-.27,.23,.14-.09,0,0Zm-4.63,20.98c-.2,.2-.39,.39-.66,.5-.2,.08-.5,.23-.6,.44-.1,.21,.3,.42,.43,.53,.26,.2,.55,.33,.87,.44,.28,.09,.59,.17,.86,.3,.05,.03,.58,0,.49-.06-.24-.16-.49-.32-.72-.51-.16-.13-.47-.33-.54-.54,.17,.03,.35,.25,.49,.35,.17,.13,.34,.29,.54,.38,.04,.02,.45,.18,.38,.11-.12-.13-.23-.26-.35-.39-.27-.28-.6-.53-.75-.9-.09-.21-.17-.43-.25-.64-.05-.13-.1-.1-.19-.02-.05,.05,.13-.11,0,0Zm12.63-15.41c.18,.23,.46,.53,.2,.82-.12,.13-.38,.15-.53,.23-.14,.07-.3,.13-.43,.21-.06,.04-.38,.24-.27,.33,.13,.11,.27,.23,.43,.3,.21,.1,.38,.15,.58,.29,.17,.13,.29,.23,.51,.24,.08,0,.38,.07,.45,.01,.09-.07,.13-.28,.14-.39,.03-.2-.07-.39-.06-.59,0-.19,.03-.38,.04-.57,.02-.38-.2-.7-.51-.87-.12-.07-.83-.35-.54-.02,.07,.09-.04-.05,0,0Zm2.29-2.05c-.1-.15-.25-.31-.24-.51,.01-.13,.12-.28,.16-.41,.11-.31,.4-.88,.19-1.2-.28,.19-.45,.49-.83,.49-.21,0-.55-.25-.71-.04,.23,.17,.8,.21,.92,.47-.22,.07-.66-.17-.85-.29-.06-.04-.11-.16-.18-.14-.05,.01-.33,.09-.34,.14-.02,.15,.6,.45,.7,.51,.2,.11,.62,.23,.6,.51-.29-.07-.5-.45-.82-.5,.12,.28,.28,.52,.37,.82,.04,.14,.21,.82,.43,.75,.07-.02,.2-.06,.27-.03,.03,.03,.06,.07,.09,.1,.09,.02,.22-.04,.29-.1,.07-.06,.2-.2,.14-.3-.02-.03-.18-.29-.19-.27-.06-.08,0,0,0,0Zm-16.62,4.67c-.25-.4-.6-.74-.97-1.03-.39-.31-.85-.47-1.22-.8-.15-.13-.47-.3-.51-.51-.04-.18,.04-.42,.06-.6,.01-.15,.06-.39,0-.53-.05-.11-.24-.18-.34-.23-.05,.25-.24,.43-.3,.67-.05,.21,.09,.32,.15,.5,.07,.22,.13,.42-.08,.57-.22,.15-.05,.22,.11,.36,.32,.27,.65,.35,.99,.61,.2,.15,.4,.3,.6,.46,.16,.12,.35,.32,.54,.38-.18-.32-.6-.56-.89-.78-.03-.02-.44-.29-.31-.33,.09-.02,.25,.18,.33,.23,.32,.2,.6,.47,.89,.71,.14,.12,.28,.22,.41,.35,.11,.11,.23,.28,.37,.35-.12-.37-.58-.69-.86-.93-.19-.16-.37-.32-.57-.48-.13-.1-.35-.22-.42-.37,.38-.07,.85,.41,1.13,.62,.21,.16,.44,.31,.62,.51,.12,.14,.24,.3,.38,.43-.01-.03-.11-.2-.13-.18-.05-.08,0,0,0,0Zm11.77,.13c.08-.06,.14-.12,.23-.14,.07,.34-.53,.51-.73,.7,.27-.03,.53-.23,.77-.36,.12-.06,.46-.4,.57-.22,.07,.11-.15,.06-.1,.18,.04,.09,.12,.01,.19-.02,.17-.09,.44-.31,.63-.29-.07,.09-.2,.13-.29,.21-.11,.09-.05,.16,.07,.12,.1-.04,.18-.11,.28-.12,.09-.01-.13,.17-.14,.18,.21,0,.46-.17,.65-.25,.08-.03,.5-.15,.52-.24,.01-.06-.35-.26-.4-.28-.17-.09-.36-.12-.52-.24-.13-.1-.39-.38-.56-.32-.14,.04-.28,.08-.42,.13-.31,.11-.63,.28-.88,.49,.06,0,.36-.07,.36-.08,.02,.03-.46,.29-.49,.37,.33,.02,.65-.55,.96-.49-.14,.23-.47,.41-.69,.57-.22,.16-.62,.33-.77,.55,.1,0,.82-.42,.79-.45,.05-.04,0,0,0,0Zm7.54,3.26c-.08-.07-.2-.11-.3-.15-.07,.12,.06,.38,.09,.5,.06,.22,.12,.36-.04,.55-.12,.14-.35,.25-.5,.35-.17,.11-.36,.15-.56,.19-.34,.06-.57,.27-.91,.35-.33,.08-.85,0-1.07,.32,.41,.25,.98-.04,1.42-.02,.25,.01,.47-.01,.72-.01,.23,0,.46,.07,.69,.07,.27,0,.43-.03,.46-.31,.02-.18,.1-.45,.06-.62-.09-.4,.11-.83-.07-1.22-.01,0,.01,.02,0,0Zm-10.2-9.67c.09,.11,.04,.22,.14,.36,.2,.28-.11,.1-.11,.18,0,.08,.11,.15,.15,.22,.03,.06-.03,.09-.02,.15,.01,.18,.1,.29,.04,.48-.04,.12,.14,.44-.11,.42-.03,0,.16,.28,.25,.21,.17-.12,.3-.32,.45-.46,.16-.16,.33-.31,.52-.44,.16-.11-.07-.24-.17-.33-.18-.18-.36-.35-.53-.53-.13-.13-.31-.32-.23-.52,.14,.06,.17,.27,.27,.39,.15,.19,.64,.77,.9,.75,.17-.01-.09-.18-.12-.2-.19-.14-.35-.32-.51-.48-.16-.16-.74-.63-.6-.89,.12,.09,.2,.29,.29,.41,.11,.14,.24,.28,.38,.4,.18,.16,.58,.66,.85,.59-.08-.17-.33-.33-.47-.46-.18-.17-.36-.34-.54-.52-.16-.16-.32-.33-.47-.5-.1-.12-.18-.32-.31-.4-.07,.24-.06,.58-.05,.83,0,.08,.08,.17,.03,.25-.05,.07-.08,.04-.02,.13,.04,.05-.02-.02,0,0Zm-1.97-3.77c.19,.19,.38,.39,.58,.56,.22,.19,.26,.21,.29-.1,.04-.48,.32-.9,.41-1.38,.04-.23,.04-.37-.21-.42-.23-.05-.46-.02-.67,.08-.25,.11-.33,.01-.55-.12-.13-.08-.14-.24-.25-.31-.02,.12,.1,.3,.14,.42,.05,.14,.1,.29,.12,.44,.02,.09,.04,.18,.01,.27-.03,.04-.05,.08-.05,.12,.06,.15,.12,.29,.18,.44,.15,.15-.05-.13,0,0Zm8.53,15.81c-.21-.17-.48-.36-.73-.45-.02,.15,.01,.33,0,.49-.01,.27-.04,.54-.09,.81-.05,.29-.08,.57-.14,.86-.03,.16-.07,.33-.14,.48-.04,.08-.12,.18-.12,.27,.18-.03,.49-.41,.63-.53,.19-.16,.34-.31,.45-.53,.23-.46,.32-.9,.13-1.39-.05-.04,.03,.07,0,0Zm.24,1c-.11,.24-.19,.52-.35,.73-.15,.2-.36,.22-.22,.51,.12,.25,.2,.52,.23,.79,.03,.18-.02,.49,.05,.64,.17-.11,.31-.57,.4-.75,.15-.29,.28-.57,.34-.89,.06-.28,.1-.63,.04-.91-.03-.16-.39-.14-.51-.12,0,.02,.02,0,0,0Zm-20.03,5.13c.38,.44,.65,.99,1.07,1.4,.14,.14,.55,.4,.76,.3,.22-.11,.17-.18,.04-.37-.05-.08-.08-.23-.14-.29-.07-.06-.18-.04-.26-.1-.2-.17-.28-.42-.38-.66-.12-.28-.42-.18-.65-.27-.26-.1-.4-.35-.64-.45,0,.07,.2,.45,.21,.44,.07,.08,0,0,0,0Zm23.03-7.9c.15-.07-.15-.56-.13-.71,.01-.17-.51-.08-.61-.08-.14,0-.65-.11-.71,.06-.08,.23-.42,.33-.46,.56,.19-.05,.25-.1,.46-.05,.18,.05,.36,.08,.55,.1,.23,.03,.46,.03,.69,.05,.11,0,.1,.16,.21,.06,.07-.03-.04,.04,0,0Zm-.1-3.99c-.19,.12-.73,.35-.91,.11-.1-.13,.16-.1,.2-.1,.16,.02,.32,0,.47-.05,.2-.08,.27-.15,.21-.36-.03-.09-.05-.35-.16-.38-.37-.11-.49-.07-.54,.3,.17-.02,.34-.15,.5-.12-.1,.19-.46,.24-.62,.41-.08,.09-.44,.48-.32,.59,.08,.07,.17,.23,.29,.18,.16-.06,.33-.12,.49-.18,.37-.13,0,.15,0,.19,.17-.04,.49-.14,.56-.32,.06-.15,0-.41-.18-.27-.24,.15,0,0,0,0Zm-7.7-.25s.09-.09,.13-.14c-.21-.09-.42-.14-.64-.2-.04-.01-.25-.11-.28-.06,0,.03-.02,.07-.04,.1-.05,.03,.36,.17,.4,.19,.05,.02,.21,.04,.18,.14-.03,.05-.07,.07-.13,.04-.19-.1-.39-.26-.61-.24-.2,.02-.41,.02-.61,.03-.05,0-.45-.04-.45,.02,.01,.1,.34,.06,.4,.06,.13,0,.47-.07,.57,.04,.07,.08-.13,.11-.16,.11-.25-.02-.5-.04-.76-.05-.14-.01-.23,.16-.08,.15,.2,0,.43-.02,.62,0,.02,0,.39,.08,.22,.15-.28,.11-.72-.17-.95,.01,.18,.12,.55,.05,.77,.06,.04,0,.26,.14,.29,.18,.13,.19,.96-.47,1.13-.58,.03-.03-.05,.03,0,0Zm-5.58,10.45c-.33,.26-.65,.53-.94,.82,.08,.04,.15-.01,.24,0,.09,.02,.18,.08,.25,.13,.14,.1,.28,.11,.42,0,.09-.06,.77-.76,.77-.77-.05-.06-.12-.01-.16-.11-.04-.08-.11-.13-.2-.13-.04,0-.4,.02-.38,.04-.13,.1,0,0,0,0Zm-8.02-8.63c-.16-.16-.29-.26-.31-.49,.17,.02,.3,.21,.46,.27-.18-.17-.36-.33-.54-.5-.16-.14-.17-.15-.22,.06-.1,.38-.32,.86-.12,1.24,.08,.15,.25,.4,.44,.31,.14-.07-.13-.29-.03-.35,.08-.05,.19-.19,.27-.19,.18,.01,.1-.29,.05-.37-.06-.06,0,.01,0,0Zm18.04,8.66c.25-.27,.36-.64,.5-.97,.15-.37,.36-.77,.6-1.09,.2-.26,.42-.68,.45-1.02,0-.1-.02-.35-.16-.34-.11,.01-.32-.04-.33,.11-.01,.43-.02,.85-.16,1.26-.13,.38-.37,.7-.51,1.08-.04,.12-.05,.35-.15,.43-.11,.09-.27,.15-.39,.21-.29,.15-.14,.55,.15,.32,0,0-.17,.14,0,0Zm-19.42-12.48c.1,.14,.39,.21,.53,.09,.11-.1-.02-.4-.1-.48-.39-.39,.29-.7,.18-1.09-.06-.22-.39-.2-.57-.22-.33-.03-.09,.28-.04,.44,.13,.44-.11,.82-.01,1.25,.11,.15-.01-.06,0,0ZM55.64,.9c.11,.09,.3,.32,.45,.26,.21-.08,.44-.08,.66-.08,.21,0,.31,0,.15-.22-.1-.14-.24-.21-.39-.29-.26-.14-.7-.51-.96-.21-.05,.06-.02,.12,.01,.18,.05,.1,0,.06-.02,.15-.02,.08,.14,.15,.1,.2,.1,.08,0,0,0,0Zm2.67,4.67c.31,.31,.62,.63,.94,.93,.14,.13,.53,.59,.7,.38-.25-.02-.49-.32-.67-.48-.23-.2-.45-.4-.66-.63-.11-.12,.05-.19,.15-.17,.12,.03,0,.15,.06,.22,.18,.18,.39,.46,.62,.56-.07-.17-.25-.29-.36-.44-.11-.14-.19-.31-.29-.46-.03-.05-.03-.13,.05-.09,.07,.04,.07,.11,.12,.17,.08,.1,.19,.3,.31,.35,.03-.31-.3-.69-.53-.83-.12-.07-.15-.34-.27-.12-.07,.13-.16-.12-.18-.16-.06,.12-.18,.1-.28,.23-.07,.09,.23,.45,.28,.53,.27,.27-.1-.16,0,0Zm-6.44,14.17c-.44-.25-.85-.28-1.34-.35-.49-.06-.98-.17-1.46-.32-.47-.14-.93-.31-1.41-.43-.26-.06-.52-.12-.78-.17-.17-.03-.43-.12-.59-.07,.17,.16,.5,.23,.71,.32,.21,.09,.44,.1,.66,.16,.52,.14,1.06,.21,1.58,.35,.5,.14,1.02,.22,1.53,.34,.21,.05,.43,.07,.65,.12,.06,.01,.5,.13,.46,.05-.02-.01,0,.01,0,0Zm11.2-8.96c.07-.11,.11-.2,.04-.33-.08-.15-.19-.12-.34-.12-.2,0-.39-.01-.59-.04-.13-.02-.36-.13-.48-.06-.44,.26,.25,.29,.41,.31,.15,.02,.87-.03,.92,.12,.03,.09-.89,0-.97-.02-.21-.03-.42-.06-.63-.12-.07-.02-.29,.11-.28,.2,.01,.15,.86,.16,.99,.16,.12,0,.38,.08,.49,.04,.15-.05,.29-.1,.44-.14,.03-.04-.14,.05,0,0Zm-4.15,13.52c-.19,.17-.35,.33-.59,.42-.09,.03-.51,.19-.52,.29,0-.05,.2,.22,.19,.21,.06,.03,.22-.07,.26-.1,.31-.22,.59-.46,.92-.64,.48-.25,1.34-.53,1.43-1.15-.14,.09-.27,.21-.41,.31-.14,.1-.29,.11-.44,.19-.14,.07-.25,.2-.4,.27-.15,.07-.3,.13-.45,.19-.12,.11,.09-.04,0,0Zm-2.77-19.85c-.07,.17-.01,.38-.05,.55-.05,.23-.05,.46-.05,.69,0,.15-.1,.9,.26,.74,.06-.03,.08-.48,.1-.56,.04-.22,.11-.44,.14-.66,.04-.32-.11-.6-.4-.76,0,.02,.02,.01,0,0Zm-4.8,6.38c.08,.1,.16,.26,.28,.33-.11-.35-.48-.75-.72-1.03-.24-.27-.49-.6-.79-.8,.03,.26,.02,.52,.23,.7,.22,.19,.47,.48,.74,.6,0-.05,0-.07-.02-.13,.04,.03,.28,.33,.28,.32,.08,.1,0,0,0,0Zm5.11,11.97c.17-.08,.4-.32,.44-.51-.27,.05-.59,.32-.85,.45-.24,.12-.55,.24-.74,.45-.05,.06-.04,.2,.06,.18,.13-.02,.27-.12,.39-.18,.24-.11,.51-.19,.69-.4,.2-.09-.13,.15,0,0Zm3.43-11.35c-.03,.06,.76,.17,.85,.18,.19,.02,.65,.05,.8-.11-.08-.07-.36-.05-.48-.07-.16-.03-.31-.05-.47-.08-.28-.05-.47-.13-.7,.08,0-.01,.15-.13,0,0Zm.61,.52c-.27-.1-.61-.11-.9-.17-.08-.02-.64-.17-.39,.1,.13,.14,1.26,.45,1.29,.07-.02,0,0,.02,0,0Zm-.06-.83c-.27,.1,.2,.15,.28,.16,.19,.02,.37,.05,.56,.07,.08,0,.18-.02,.26,0,.07,.02,.05,.11,.11,.13,.05,.01,.14-.2,.17-.24-.25-.06-.51-.09-.77-.13-.14-.02-.51-.15-.61,0-.03,0,.07-.09,0,0Zm-4.11-7.5c.09,.09,.34,.26,.36,.39,.04,.2-.23-.04-.25-.06-.06-.07-.17-.29-.27-.15-.07,.09,.21,.24,.26,.29,.03,.02,.23,.22,.27,.14,.05-.1,.04-.27,.04-.38-.01-.27-.23-.52-.45-.69-.01,.14,.01,.33,.04,.47,.12,.12,0-.02,0,0Zm3.29,7.7c.1-.06,.25-.11,.32-.21-.14-.04-.89-.48-.84-.17,.06,.34,.61,.17,.2,.56,.05-.01,.35-.12,.31-.18,.1-.06,0,0,0,0Zm-9.29-6.5c.09,.09,.94,.6,1.03,.52,.17-.14-.49-.4-.51-.41-.19-.1-.43-.34-.65-.36,.01,.09,.08,.16,.13,.24,.02,.02-.04-.07,0,0Zm2.53,23.02c-.13-.08-.31-.14-.46-.05-.13,.08-.2,0-.32,.03,.13,.24,1.02,.56,.78,.02-.1-.06,.02,.04,0,0Zm7.99-16.08c-.3-.12-.64-.1-.95-.19-.05-.02-.46-.08-.44,.06,.02,.14,1.3,.29,1.39,.13-.04-.01-.02,.03,0,0Zm-8.46-4.28c-.16-.11-.37-.29-.56-.33,.05,.24,.28,.51,.4,.73,.11,.2,.12-.16,.13-.19,.05,0,.09,.02,.13,.05,0-.1-.05-.17-.1-.26-.03-.02,.03,.06,0,0Zm-2.5-3.23s-.01,.04-.02,.06c.09,.02,.16-.07,.22-.04,.1,.05,.2,.15,.3,.22,.19,.12,.59,.42,.81,.4-.05-.3-.52-.37-.74-.51-.19-.13-.36-.29-.57-.13,0,.01,.14-.11,0,0Zm-6.33,13.98c.12,.18,.45,.3,.64,.4,.14,.07,.4,.27,.57,.2-.11-.17-.44-.29-.62-.41-.13-.09-.42-.36-.59-.19,.01,.02,.05-.05,0,0Zm2.95,.44c-.28-.21-.68-.42-1.05-.34,.1,.16,.89,.56,1.05,.34-.06-.05-.01,.02,0,0Zm-1.99-.54c.16,.21,.6,.33,.83,.44,.13,.06,.41,.29,.53,.21-.16-.17-.43-.28-.62-.4-.2-.12-.5-.3-.75-.24,.02,.02,.03,0,0,0Zm6.31-12.56c.28,.21,.61,.49,.94,.59,0-.24-.22-.3-.4-.39-.16-.08-.43-.33-.6-.33,.01,.05,.09,.08,.06,.13,.12,.09,0,0,0,0Zm-.02-1.29c-.08-.12-.16-.23-.23-.35-.06-.1-.21,.08-.26,.12-.12,.09,.46,.38,.56,.38,0-.03-.05-.17-.08-.16-.08-.12,0,0,0,0Zm9.34,17.12s-.03-.02-.04-.03c-.02,.06-.01,.32-.09,.32-.11,0-.05,.07-.12,.11-.03,.01-.06,.02-.09,0-.02,.01,.05,.31,.13,.16,.13-.23,.18,.06,.28,.01,.15-.07-.01-.5-.07-.58,0,0,.13,.17,0,0Zm-16.16-2.75c-.06-.03-.81-.53-.82-.26,0,.13,.8,.41,.82,.26-.02-.01,0,.01,0,0Zm12.22-14.35c.13,.12,.25,.24,.38,.36,.08,.07,.07-.18,.03-.23-.13-.13-.26-.25-.39-.37-.14-.13-.02,.22-.01,.24,.14,.13-.02-.05,0,0Zm-5.09,1.75c.22,.16,.63,.53,.9,.51-.04-.15-.35-.29-.48-.37-.16-.11-.31-.22-.48-.3,.02,.05,.04,.1,.06,.16,.08,.05-.02-.06,0,0Zm6.83,7.66s.02-.05,.04-.07c-.14-.04-.67-.15-.68,.08,0,.17,.57,0,.65-.02,.02-.04-.09,.03,0,0Zm3.09-.58s.07-.05,.08-.11c-.17-.02-.46,.22-.61,.3-.08,.04-.28,.09-.33,.18-.08,.16,.34-.08,.34-.08,.17-.1,.35-.19,.52-.29,.04-.03-.23,.13,0,0Zm1.87-3.01c-.08-.07-.41-.34-.49-.11,.02,0,.32,0,.21,.09-.11,.09-.33-.06-.45,.02,.07,.06,.76,.11,.73,0-.04-.04,0,0,0,0Zm-4.5,2.98c-.19-.07-.79-.17-.9,.03,.22,.09,.68,.07,.9-.03-.02,0-.03,.01,0,0Zm-7.82-7.99c.04,.2,.71,.45,.9,.52-.02-.27-.15-.15-.35-.23-.19-.08-.35-.22-.55-.28,0,.02,.03,.01,0,0Zm.25,5.53c.08,.08,.5,.62,.6,.57,0,0-.57-.67-.68-.71-.03-.07,.07,.14,.07,.14,.16,.17,0,0,0,0Zm9.21,2.94c-.18,.02-.63,.21-.72,.36,.17,.06,.63-.22,.72-.36-.05,0-.03,.04,0,0Zm1.35-.42s.07-.08,.09-.12c-.17,.05-.65,.27-.72,.43,.15,.05,.49-.23,.63-.31,0,0-.19,.11,0,0Zm-9.68-6.25c.11,.1,.41,.31,.57,.27-.07-.12-.44-.32-.58-.32,0,.02,0,.03,.01,.05,.16,.14,0-.01,0,0Zm-3.3,5.6c-.11-.15-.31-.39-.5-.43,.01,.14,.48,.52,.61,.58-.03-.06-.07-.1-.11-.15-.12-.17,.03,.03,0,0Zm4.36,5.06c-.2-.11-.43-.27-.65-.31,.07,.12,.26,.18,.38,.24,.04,.02,.3,.21,.27,.07-.05-.03,0,.02,0,0Zm-1.53-4.85c-.15-.15-.43-.56-.64-.59,.07,.15,.27,.27,.39,.38,.1,.1,.19,.21,.3,.29,0,0-.06-.08-.05-.09-.19-.19,0,0,0,0Zm1.1,4.8c-.08-.11-.36-.25-.5-.28,.03,.09,.47,.43,.5,.28-.01-.01,0,.01,0,0Zm-.11-.44c.12,.13,.49,.41,.67,.41-.09-.14-.5-.41-.67-.41,.02,.02,.02,0,0,0Zm-4.42-5.13c-.07-.05-.19-.19-.28-.19,.03,.09,.21,.22,.3,.24,0-.02,0-.03-.01-.05-.09-.07,0,0,0,0Zm10.8-.04c-.03,.16,.24-.04,.25-.03-.06-.06-.19,.01-.25,.03,0,.02,.07-.02,0,0Zm.91-2.96c-.41-.12,0,.27,0,0-.01,0,0,.02,0,0Zm-1.61,10.87c.01,.07,.1,.13,.16,.05,.01-.01-.16-.05-.16-.05,0,.03,.06,.02,0,0Zm-4.36,3.14c.04,.09,.02,.08,.14,.1,0-.07-.07-.08-.14-.1,.02,.05,.06,.03,0,0Zm4.33-1.41c.08-.08-.06-.06-.09,.05,.05-.02,.05-.02,.09-.05,0,0-.03,.02,0,0Zm-11.07-.41c-.06-.02-.11-.02-.17,0,.04-.01,.14,.11,.17,0-.04,0,0,.02,0,0Zm10.44-7.23s0,.04,0,.06c.12-.01,.1,.02,.11-.05-.04,0-.08,0-.11,0,0,.03,.04,0,0,0Zm-12.66,1.38s-.13-.07-.16-.03c.05,.02,.11,.05,.16,.07,0-.01,0-.03,0-.04-.05-.02,0,.02,0,0Zm12.17-2.78c.07-.03,.05,0,.06-.12-.06,.02-.05,.05-.06,.12,.03-.01,0-.04,0,0Zm2.45-2.77c0,.07,0,.06,.09,.09,0-.01,0-.02,.01-.03-.03-.02-.06-.04-.1-.05,0,.03,.05,.02,0,0Zm.3,3.56s-.02,.03-.02,.04c.06,0,.1-.01,.13-.06-.04,0-.07,0-.11,.02,0,0,.03-.01,0,0Zm-6.27,10.33c-.13-.03-.11-.06-.14,0,.05,0,.13,.06,.14,0-.04-.01,0,.02,0,0Zm.81-10.48c.06-.02,.08-.13,.01-.14-.03,.05-.03,.1-.01,.14,0,0,0,0,0,0Zm-2.66-.2s.04,.05,.07,.06c-.02-.06-.06-.1-.1-.14,0,.03,.01,.06,.04,.08,.02,.02,0-.01,0,0Zm6.27-.05s.07,0,.11,0c-.01-.06-.14-.09-.11,0,.03,0,0-.02,0,0Zm-1.12-6.71c.06-.02,.1-.11,.03-.13,0,.04-.02,.09-.03,.13,.02,0,0-.05,0,0Zm9.04,10.42s.02,.08,.07,.08c.02-.07,0-.09-.07-.08,0,.02,.01,0,0,0Zm-13.94,1.65c-.03,.05,0,.08,.07,.08,.01-.04-.01-.07-.07-.08,0,.02,.03,.02,0,0Zm6.07-10.59c.08-.03,.11-.06,.02-.11,0,.04-.02,.07-.02,.11,.04-.01,.01-.07,0,0Zm-2.65,5.58s.07,0,.06-.07c-.04-.02-.06,0-.06,.07,.02,0,.01-.03,0,0Zm3.32,7.5s.07-.04,.08-.1c-.07,.02-.06,.04-.08,.1,.04-.03,.02-.05,0,0Zm1.62-14.04s0,.05,0,.07c.07-.02,.06-.05,0-.07,0,.03,.02,0,0,0Zm-3.12,5.91c-.06-.04-.07,.04-.03,.07,0-.02,.02-.04,.03-.07-.01,0,0,.02,0,0Zm-5.12-.13c.09,.05-.02-.04-.03-.06,0,.02,.02,.04,.03,.06,.01,0,0-.02,0,0Zm-2.13,8.13s-.04,0-.06,0c0,.05,.06,.07,.06,0-.02,0,0,.02,0,0Zm9.06-7.51s-.04,0-.05,0c0,.01,0,.02,0,.04,.04,.02,.06,0,.06-.04-.02,0,0,.02,0,0Zm-2.02-.28c-.06-.04-.07,.04-.03,.07,0-.02,.02-.04,.03-.07-.01-.01,0,.02,0,0Zm3.03-.17s-.02,.03-.02,.04c.04-.01,.07-.03,.09-.07-.02,0-.04,.02-.06,.03,0,.01,.02,0,0,0Zm-1.75-4.14s0,.06,.05,.05c0-.03,0-.05-.05-.05,0,.02,.02,0,0,0Zm2.24,3.84c-.02,.08,.04,.01,.05-.02-.02,0-.03,.01-.05,.02,0,.01,.02,0,0,0Zm-.16,.14s-.04-.01-.05,.01c.02,.02,.04,.02,.05-.01,0,0,0,0,0,0Zm.64,.96s-.03,.04,.02,.05c0,0,.01-.01,.02-.02-.01,0-.02-.02-.03-.02,0,.01,.01,0,0,0Zm-10.3,8.29s.02,.05,.06,.04c0-.03-.02-.04-.06-.04,0,.01,.02,0,0,0Zm6.05-9.12s-.04,0-.04,.03c.02,.03,.03,.02,.04-.03-.01,0,0,.02,0,0Zm1.07,9.18s.05,0,.07-.04c-.03,0-.05,0-.07,.04,.02,0,.01-.01,0,0Zm-3.12-8.91s-.05,0-.05,.03c.03,.02,.05,0,.05-.03-.01,0,0,.01,0,0Zm4.18-.83c-.04,.06,.03,.04,.05,0-.02,0-.04,0-.05,0,0,.01,.02,0,0,0Zm-14.32,6.93s.03,0,.04,0c-.01-.04-.07-.06-.04,0,.01,0,0-.01,0,0Zm7.26-.95s-.03,0-.05,0c.01,.03,.07,.08,.05,0-.01,0,0,.02,0,0Zm-2.87,2.37s.03,0,.04,0c0-.04-.01-.05-.05-.04,0,.01,0,.03,.01,.04,.01,0,0-.02,0,0Zm-.28-.71s-.04,0-.03,.02c.02,0,.02,0,.03-.02-.01,0,0,0,0,0Zm9.35,1.94s-.04,.01-.04,.03c.02,0,.04-.01,.04-.03,0,0,0,0,0,0Zm-7.81-.42s-.07-.01,0,0c0,0,0,0,0,0Zm-.53-.66s.02,.03,.04,.02c0-.02-.02-.03-.04-.02,0,0,.01,0,0,0Zm5.96,5.63s-.02,.05,0,0c0,0,0,0,0,0Zm3.6-12.07s-.04,0-.05,.02c.02,.02,.03,.02,.05-.02-.02,0-.02,.01,0,0Zm-5.81,2.37s-.01,.04,.02,.02c.02-.03,.01-.04-.02-.02,0,.01,.01,0,0,0Zm-2.6-4.01c.05,.01-.02-.06,0,0,0,0,0,0,0,0Zm.97-.33s.03,.08,0,0c0,0,0,0,0,0Zm-2.81,.98s.02,.03,.03,0c0-.02,0-.02-.03,0,0,0,0,0,0,0Zm10.38-1.56s.03,.01,.04-.01c-.02-.02-.03-.01-.04,.01,0,0,0,0,0,0Zm.81,1.01s-.03,.06,0,.04c.03-.02,.03-.03,0-.04,0,0,0,0,0,0Zm-13.64-1.12s-.01-.01,0,0h0Zm6.22,8.85s.01,.03,0,0c0,0,0,0,0,0Zm-6.46-5s0-.03-.03-.03c0,.02,0,.03,.03,.03,0,0,0,0,0,0Zm4.26,6.39s0,.03,.03,.03c0-.02,0-.03-.03-.03,0,0,0,0,0,0Zm9.1-15.74s.02,.02,0,0c0,0,0,0,0,0Zm-9.46,14.77s-.02-.01,0,0h0Zm11.69-7.76s-.02,.02,0,0c0,0,0,0,0,0Zm-4.94-5.16s-.01-.04,0,0c0,0,0,0,0,0Zm-5.01,4.48s0,.04,0,0c0,0,0,0,0,0Zm-.48-.12s.02,.02,0,0c0,0,0,0,0,0Zm-.05-.07s-.03,.01,0,0c0,0,0,0,0,0Zm10.75,3.51s0,.02,.03,0c0-.02,0-.02-.03,0,0,0,0,0,0,0Zm-8.56,3.71s-.01-.03,0,0c0,0,0,0,0,0Zm-6.05-7.75s0-.05,0,0c0,0,0,0,0,0Zm3.27,.45s.03,.01,0,0c0,0,0,0,0,0Z"/>
      <path d="M54.22,16.34c-.01,.07-.02,.18,.1,.14,.18-.06,.35,0,.53,.04,.12,.02,.14-.06,.02-.09-.23-.06-.42-.12-.65-.09,0,.04,.07,0,0,0Z"/>
      <path d="M56.95,18.63c-.12,.04-.1,.02-.13,.1,.07,0,.1,0,.13-.1Z"/>
      <path d="M54.12,21.88c-.3-.18-.66-.27-1-.35-.07-.02-.88-.22-.73-.02,.07,.1,.26,.06,.35,.08,.19,.04,.38,.1,.57,.13,.11,.02,.84,.36,.8,.16-.03-.02,0,.02,0,0Z"/>
      <path d="M52.6,21.08c-.09,.21,.23,.2,.38,.25,.2,.05,.57,.23,.77,.19,.09-.02,.02-.11-.01-.13-.12-.08-.27-.09-.41-.12-.23-.06-.5-.17-.73-.18-.02,.04,.03,0,0,0Z"/>
      <path d="M56.42,23.37c-.18,.1,.16,.32,.23,.36,.09,.06,.17,.13,.26,.19,.07,.06,.12,.21,.19,.25,.08,.03,.16-.06,.12-.13-.08-.13-.19-.22-.31-.31-.16-.12-.35-.23-.48-.36Z"/>
      <path d="M57.2,23.27c-.13-.09-.25-.19-.36-.28-.09-.07-.21,.05-.12,.13,.12,.1,.25,.19,.36,.3,.13,.14,.2-.03,.12-.15-.02-.01,.01,.02,0,0Z"/>
      <path d="M57.37,24.94c.23-.13-.28-.79-.36-.72-.04,.04,.31,.65,.36,.72Z"/>
      <path d="M57.3,22.73c.14,.04,.17-.05,.09-.16-.12-.17-.16,.06-.09,.16,.02,0-.03-.04,0,0Z"/>
      <path d="M60.9,20.15c-.13-.15-.25-.3-.38-.45-.04-.05-.1-.16-.19-.15-.05,0-.06,.06-.03,.1,.25,.3,.49,.56,.68,.91,.08,.15,.15,.32,.23,.47,.02,.03,.21,.38,.25,.19,.03-.11-.17-.38-.22-.48-.11-.2-.22-.4-.33-.6-.15-.17,.08,.14,0,0Z"/>
      <path d="M56.95,9.32c0,.15,.12,.26,.15,.42,.02,.13,.02,.44,.21,.43,.15,0-.02-1.01-.35-.85,0,.03,.07-.03,0,0Z"/>
      <path d="M58.09,10.07c.13,.15,.19-.11,.19-.19,.01-.17-.09-.36-.15-.51-.02-.03-.05-.05-.09-.05-.1,.02,0,.15,.01,.18,.07,.17,.03,.38,.03,.57,.05,.06,0-.03,0,0Z"/>
      <path d="M61.63,4.11c-.07-.1-.31,0-.41,.02-.15,.03-.21,.19-.3,.31-.11,.15-.22,.37-.36,.49-.08,.07-.43,.08-.49-.02-.2-.32-.17-.67-.33-.98-.06-.13-.59-.61-.72-.4-.06,.09,.25,.19,.31,.23,.2,.12,.26,.23,.29,.46,.03,.19,.23,1.06,.52,1,.18-.04,.37-.07,.55-.11,.13-.03,.24-.26,.31-.36,.05-.07,.23-.4,.3-.42,.09-.03,.47,0,.33-.2-.03-.05,.06,.08,0,0Z"/>
      <path d="M60.12,3.85c-.12,.07-.01,.21,.07,.25,.12,.06,.23,.03,.34-.02,.11-.05,.22-.13,.34-.16,.12-.03,.31,.03,.42-.05,.15-.12-.43-.14-.51-.12-.12,.03-.24,.09-.36,.14-.12,.05-.19-.01-.3-.04-.07,.04,.02,0,0,0Z"/>
      <path d="M48.56,9.98c-.3,.23-.44-.28-.58-.47-.27-.37-.6-.08-.96-.07-.12,0-.22-.02-.34,.01-.06,.01-.08,.05-.07,.11,.03,.12,.13,.09,.22,.08,.17-.02,.34-.02,.5-.06,.13-.03,.29-.17,.42-.06,.23,.2,.26,.61,.55,.75,.12,.06,.26,.03,.37-.05,.16-.12,.24-.15,.45-.15,.15,0,.31,0,.46-.01,.1,0,.24-.08,.06-.1-.27-.03-.85-.2-1.07,.01-.15,.12,.1-.1,0,0Z"/>
      <path d="M47.75,8.91c.03,.22,.52,.31,.6,.1,.08-.22-.45-.11-.6-.1,0,.04,.1,0,0,0Z"/>
      <path d="M56.49,28.01c-.18-.03-.37-.03-.55-.03-.04,0-.37,.05-.21,.15,.1,.07,.28-.02,.39-.03,.12,0,.38,.07,.37-.1-.03,0,0,.03,0,0Z"/>
      <path d="M43.32,14.09s.01,.03,0,0c0,0,0,0,0,0Z"/>
      <path d="M64.49,16.36c.07-.06,.14-.14,.22-.18,.1-.05,.21-.05,.3-.11,.13-.09,.41-.43,.45-.58,.02-.1-.17-.03-.19-.01-.11,.08-.2,.24-.28,.35-.11,.14-.19,.14-.34,.2-.15,.06-.26,.18-.41,.24-.19,.08-.6-.25-.77-.34-.11-.05-.23-.01-.34-.06-.04-.02-.08,.21,.08,.19,.26-.04,.52,.14,.71,.3,.08,.07,.18,.13,.29,.13,.04,0,.3-.11,.29-.12,.03-.02,0,0,0,0Z"/>
      <path d="M64.02,16.82c-.07,.24,.29,.07,.41,.04,.16-.04,.59-.04,.68-.17-.11-.08-.42,0-.56,.02-.18,.02-.36,.06-.54,.11,0,.03,.06-.01,0,0Z"/>
      <path d="M54.53,12.56c0,.06,.03,.09,.08,.08,0-.08,0-.06-.08-.08,.01,.04,.06,.02,0,0Z"/>
      <path d="M48,27.57s.05,.02,.07,.04c0-.05-.02-.07-.09-.08,0,.01,0,.03,.01,.04,.02,.01,0-.02,0,0Z"/>
      <path d="M63.5,11.86c-.16-.14-.31-.27-.49-.37-.04-.02-.22-.16-.26-.15-.07,.02-.12,.06-.05,.11,.19,.13,.42,.24,.6,.4,.07,.06,.33,.25,.21,0-.09-.08,0,.01,0,0Z"/>
      <path d="M63.59,11.19c-.08-.1-.12-.19-.24-.23-.04,.17,.08,.27,.16,.42,.14,.25,.18-.25,.08-.19-.05-.07,0,0,0,0Z"/>
      <path d="M63.34,10.01c-.04,.09,.03,.18,.07,.26,0,0,.02,0,.03,0-.02-.1,0-.22-.1-.26,0,.02,.02,0,0,0Z"/>
      <path d="M63.69,6.52c.04,.17,1.16,.7,1.26,.57,.08-.1-.47-.26-.54-.29-.23-.08-.48-.24-.72-.28,0,.04,.05,0,0,0Z"/>
      <path d="M55.94,2.44c.18,.16,.35,.33,.54,.49,.06,.05,.33,.06,.22-.02-.15-.12-.32-.2-.45-.33-.07-.07-.31-.4-.41-.38-.03,0,.1,.24,.11,.25,.16,.15-.05-.1,0,0Z"/>
      <path d="M50.99,10.39s-.03-.02-.02,.01c.03,.02,.03,.02,.02-.01,0,0,0,0,0,0Z"/>
    </g>
    <g>
      <rect x="71.96" y="17.35" width="25.9" height=".57"/>
      <rect x="12.98" y="17.35" width="25.97" height=".57"/>
      <rect x="12.98" y="113.99" width="84.83" height=".57"/>
    </g>
  </g>
  <g>
    <path d="M.79,216.58v2.92h3.85v.68H.79v3.15H0v-7.44H5.1v.68H.79Z"/>
    <path d="M11.09,219.88v3.46h-.72v-.87c-.34,.57-1,.92-1.92,.92-1.26,0-2.04-.66-2.04-1.63,0-.86,.55-1.58,2.16-1.58h1.77v-.34c0-.96-.54-1.48-1.58-1.48-.72,0-1.4,.26-1.86,.66l-.34-.56c.56-.48,1.39-.75,2.27-.75,1.44,0,2.26,.72,2.26,2.17Zm-.75,1.78v-.91h-1.75c-1.08,0-1.43,.42-1.43,1,0,.65,.52,1.05,1.41,1.05s1.48-.4,1.77-1.14Z"/>
    <path d="M19.33,220.55c0,1.69-1.19,2.85-2.78,2.85-.92,0-1.7-.4-2.16-1.16v1.1h-.72v-7.88h.75v3.36c.47-.72,1.23-1.1,2.12-1.1,1.59,0,2.78,1.15,2.78,2.84Zm-.75,0c0-1.31-.9-2.18-2.08-2.18s-2.08,.87-2.08,2.18,.89,2.18,2.08,2.18,2.08-.87,2.08-2.18Z"/>
    <path d="M24.22,217.71v.73c-.06,0-.13-.01-.18-.01-1.17,0-1.88,.74-1.88,2.06v2.85h-.75v-5.59h.72v1.09c.35-.74,1.06-1.14,2.09-1.14Z"/>
    <path d="M25.94,215.99c0-.29,.24-.53,.55-.53s.55,.23,.55,.52c0,.31-.23,.55-.55,.55s-.55-.24-.55-.54Zm.17,1.76h.75v5.59h-.75v-5.59Z"/>
    <path d="M34.6,217.75v7.65h-.75v-3.11c-.47,.72-1.23,1.1-2.12,1.1-1.59,0-2.78-1.15-2.78-2.85s1.19-2.84,2.78-2.84c.92,0,1.7,.4,2.16,1.15v-1.11h.72Zm-.74,2.79c0-1.3-.89-2.18-2.07-2.18s-2.08,.88-2.08,2.18,.89,2.18,2.08,2.18,2.07-.87,2.07-2.18Z"/>
    <path d="M42.27,217.75v5.59h-.72v-1.02c-.39,.68-1.12,1.07-2.01,1.07-1.42,0-2.36-.8-2.36-2.4v-3.24h.75v3.17c0,1.19,.62,1.8,1.68,1.8,1.17,0,1.9-.75,1.9-2.03v-2.93h.75Z"/>
    <path d="M49.78,220.78h-4.67c.08,1.17,.98,1.94,2.2,1.94,.68,0,1.29-.24,1.71-.73l.43,.49c-.5,.6-1.27,.91-2.16,.91-1.74,0-2.93-1.19-2.93-2.85s1.16-2.84,2.73-2.84,2.71,1.16,2.71,2.84c0,.06-.01,.15-.01,.23Zm-4.67-.56h3.96c-.1-1.09-.89-1.86-1.99-1.86s-1.88,.77-1.98,1.86Zm2.03-3.33h-.74l1.46-1.32h1.01l-1.72,1.32Z"/>
    <path d="M60.04,220.78h-4.67c.08,1.17,.98,1.94,2.2,1.94,.68,0,1.29-.24,1.71-.73l.42,.49c-.5,.6-1.28,.91-2.16,.91-1.74,0-2.93-1.19-2.93-2.85s1.16-2.84,2.73-2.84,2.71,1.16,2.71,2.84c0,.06-.01,.15-.01,.23Zm-4.67-.56h3.96c-.1-1.09-.89-1.86-1.99-1.86s-1.88,.77-1.98,1.86Z"/>
    <path d="M67.26,220.1v3.24h-.75v-3.17c0-1.18-.62-1.78-1.68-1.78-1.2,0-1.95,.74-1.95,2.02v2.93h-.75v-5.59h.72v1.03c.4-.68,1.16-1.07,2.12-1.07,1.36,0,2.29,.79,2.29,2.39Z"/>
    <path d="M74.1,216.58v2.92h3.85v.68h-3.85v3.15h-.79v-7.44h5.1v.68h-4.31Z"/>
    <path d="M83.12,217.71v.73c-.06,0-.13-.01-.18-.01-1.17,0-1.88,.74-1.88,2.06v2.85h-.75v-5.59h.72v1.09c.35-.74,1.06-1.14,2.09-1.14Z"/>
    <path d="M89.22,219.88v3.46h-.72v-.87c-.34,.57-1,.92-1.92,.92-1.26,0-2.04-.66-2.04-1.63,0-.86,.55-1.58,2.16-1.58h1.77v-.34c0-.96-.54-1.48-1.58-1.48-.72,0-1.4,.26-1.86,.66l-.34-.56c.56-.48,1.39-.75,2.27-.75,1.44,0,2.26,.72,2.26,2.17Zm-.75,1.78v-.91h-1.75c-1.08,0-1.43,.42-1.43,1,0,.65,.52,1.05,1.41,1.05s1.48-.4,1.77-1.14Z"/>
    <path d="M96.94,220.1v3.24h-.75v-3.17c0-1.18-.62-1.78-1.68-1.78-1.2,0-1.95,.74-1.95,2.02v2.93h-.75v-5.59h.72v1.03c.4-.68,1.16-1.07,2.12-1.07,1.36,0,2.29,.79,2.29,2.39Z"/>
    <path d="M98.98,220.55c0-1.67,1.21-2.84,2.88-2.84,.95,0,1.74,.37,2.19,1.1l-.56,.38c-.38-.56-.98-.83-1.63-.83-1.22,0-2.11,.87-2.11,2.18s.89,2.18,2.11,2.18c.65,0,1.24-.26,1.63-.82l.56,.38c-.45,.72-1.24,1.1-2.19,1.1-1.67,0-2.88-1.18-2.88-2.85Z"/>
    <path d="M110.82,220.78h-4.67c.09,1.17,.98,1.94,2.2,1.94,.68,0,1.29-.24,1.71-.73l.42,.49c-.5,.6-1.27,.91-2.16,.91-1.74,0-2.93-1.19-2.93-2.85s1.16-2.84,2.73-2.84,2.71,1.16,2.71,2.84c0,.06-.01,.15-.01,.23Zm-4.67-.56h3.96c-.1-1.09-.89-1.86-1.99-1.86s-1.88,.77-1.98,1.86Z"/>
  </g>
</svg>