<svg xmlns="http://www.w3.org/2000/svg" viewBox="0 0 840 1680" width="840px" height="1680px">
  <defs></defs>
  <g id="Calque_2" transform="matrix(0.906197, 0, 0, 0.848167, 215.200287, 210.34021)" style="">
    <g id="Calque_1-2" data-name="Calque 1" transform="matrix(1, 0, 0, 1, -10.429993, 503.325836)">
      <g>
        <path class="cls-1"
          d="M189.89,359.75c-1.72,6.54-6.97,11.89-4.59,20.29,1.28,4.53-1.77,8.03-3.68,11.71-.42.79-.82,1.58-1.21,2.37l-108.52-1.24L4.04,333.62l69.55-57.54,177.45,2.04c-4.34,3.8-9.89,12.72-17.08,17.48-14,9.29-5.97,7.18-21.47,23.27-6.11,6.34-8.85,17.9-12.82,25.76-8.24,2.32-7.92,7.99-9.79,15.13Z"
          style="fill: rgb(29, 29, 27);"></path>
        <path class="cls-1"
          d="M180.79,394.75h-.4s-108.75-1.25-108.75-1.25l-.18-.15L3.07,333.6l.57-.47,69.73-57.69h.23s179.09,2.06,179.09,2.06l-1.24,1.09c-1.59,1.4-3.42,3.58-5.35,5.88-3.39,4.04-7.23,8.62-11.79,11.65-7.59,5.03-8.56,6.6-10.5,9.72-1.62,2.61-3.84,6.18-10.86,13.46-4,4.15-6.53,10.61-8.98,16.85-1.24,3.15-2.4,6.13-3.73,8.76l-.12.25-.27.08c-6.5,1.83-7.36,5.76-8.54,11.2-.24,1.12-.49,2.27-.81,3.48h0c-.55,2.09-1.46,4.08-2.33,6-1.97,4.32-3.83,8.4-2.26,13.96,1.1,3.88-.73,6.99-2.5,10-.43.72-.85,1.45-1.23,2.18-.42.79-.82,1.57-1.2,2.36l-.18.36ZM72.12,392.24l107.89,1.24c.34-.68.68-1.36,1.04-2.03.39-.74.82-1.49,1.26-2.23,1.71-2.91,3.32-5.65,2.38-9.01-1.7-6,.35-10.49,2.33-14.83.89-1.96,1.74-3.81,2.26-5.8h0c.31-1.18.56-2.32.8-3.42,1.17-5.36,2.18-9.99,9.16-12.07,1.25-2.52,2.38-5.38,3.56-8.4,2.49-6.36,5.07-12.93,9.24-17.26,6.92-7.19,9.1-10.69,10.7-13.25,1.97-3.17,3.06-4.92,10.88-10.11,4.41-2.92,8.19-7.43,11.52-11.41,1.59-1.89,3.01-3.59,4.34-4.93l-175.66-2.01L5.02,333.63l67.1,58.62Z"
          style="fill: rgb(29, 29, 27);"></path>
      </g>
      <g>
        <path class="cls-1"
          d="M274.82,395.14l19.05.25-19.05-.2-5.43-.07-5.82-.07-35.92-.4-18.46-.22-1.3-.02-14.75-.17v-.15l14.75.19-.19-8.72,9.05-12.4c-1.56-8.75-.66-16.87,6.46-22.34.27,31.06-9.12,27.02-14,43.47l18.39.24c-9.83-23.39.35-20.04,2.46-32.96,1.68-10.33,2.73-20.83.84-30.57-.82-4.34-2.86-7,.3-10.89l2.81-3.43c.62-.76,4.11,1.23,5.13.74l15.58-7.59,10.23,15.76c-5.99-.45-10.18-3.47-13.93-7.55l-11.66,7.34c-.96,10.72,6.24,7.13,5.5,29.66l15.36,17.65-19.26-.94c-.82-.05-2.81-4.29-3.57-3.94l-3.65,1.8c19.63,30.74,36.56,7.92,41.07,25.52Z"
          style="fill: rgb(29, 29, 27);"></path>
        <path class="cls-1"
          d="M293.85,396.03l-101.35-1.15v-1.41l14.74.19-.18-8.28,9.02-12.36c-1.8-10.4.41-17.82,6.74-22.69l1-.77v1.27c.19,20.23-3.71,25.74-7.83,31.57-2.1,2.97-4.26,6.03-5.94,11.29l16.59.21c-6.22-15.18-3.74-19.08-.87-23.58,1.46-2.29,2.97-4.67,3.65-8.83,1.52-9.32,2.81-20.21.84-30.35-.19-.99-.44-1.88-.68-2.75-.82-2.91-1.52-5.42,1.11-8.66l2.81-3.43c.6-.72,1.81-.34,3.22.11.64.2,1.83.58,2.13.46l16.07-7.83,11.23,17.3-1.27-.1c-6.62-.5-10.94-4.12-13.99-7.37l-10.95,6.89c-.31,4.1.66,5.95,1.87,8.27,1.81,3.46,4.06,7.76,3.67,20.8l16.17,18.58-20.74-1.01c-.67-.04-1.21-.79-2.18-2.22-.37-.54-.96-1.41-1.27-1.69l-2.82,1.39c10.83,16.6,20.84,16.76,28.17,16.88,5.77.09,10.34.17,12.47,7.76l18.57.25-.02,1.26ZM228.08,394.03l45.92.52c-1.9-6.39-5.63-6.45-11.19-6.54-7.7-.12-18.25-.3-29.6-18.06l-.38-.59,4.28-2.11c.9-.42,1.65.68,2.68,2.21.38.56,1,1.48,1.28,1.67l17.71.87-14.55-16.72v-.25c.43-12.9-1.75-17.07-3.51-20.42-1.29-2.46-2.41-4.59-1.99-9.28l.03-.31,12.37-7.78.36.39c3.94,4.29,7.75,6.55,12.21,7.21l-9.2-14.18-15.08,7.34c-.72.34-1.8,0-3.05-.4-.6-.19-1.59-.5-1.91-.45l-2.76,3.37c-2.22,2.73-1.66,4.74-.88,7.52.25.89.51,1.81.7,2.85,2,10.33.7,21.36-.84,30.79-.72,4.42-2.37,7.02-3.83,9.31-2.83,4.44-5.07,7.95,1.23,23.04ZM208.51,393.8h.2c1.75-5.74,4.05-8.99,6.27-12.13,3.91-5.54,7.61-10.77,7.62-29.51-5.27,4.64-6.93,11.32-5.21,20.9l.05.27-9.08,12.45.17,8.03Z"
          style="fill: rgb(29, 29, 27);"></path>
      </g>
      <g>
        <path class="cls-1" d="M278.16,350.19l11.74.35-6.73,6.41c-2.17.69-5.67-3.85-5.01-6.76Z"
          style="fill: rgb(29, 29, 27);"></path>
        <path class="cls-1"
          d="M282.71,357.65c-.81,0-1.71-.42-2.59-1.23-1.61-1.48-3.05-4.21-2.57-6.37l.11-.51,13.77.42-7.93,7.55-.14.04c-.21.07-.43.1-.66.1ZM278.71,350.84c-.05,1.56,1.05,3.55,2.25,4.65.7.64,1.4.96,1.9.89l5.51-5.25-9.66-.29Z"
          style="fill: rgb(29, 29, 27);"></path>
      </g>
      <g>
        <path class="cls-1"
          d="M448.04,280.37v116.79l-67.43-.77-5.15-4.76-22.51-3.38c-18.91-20.54-9-27.66-30.92-43.59,11.31,14.52,8.77,20.36,18.39,33.75l8.45,11.73c3.06,1.78,6.02,3.8,8.88,6.01l-30.57-.35.42-1.45-6.16-2.02c-1.04-.34-3.35-29.54-1.62-35.03-.47-2.05-6.31-3.79-7.72-5.72l-10.67-14.72c-4.29-5.92-9.02-10.89-11.69-17.83-1.82-4.76-6.7-6.61-9.71-9.94-3.36-3.75-5.75-7.12-9.96-10.21-2.34-1.7-6.53-5.96-7.6-8.56l-4.22-10.3c-.29-.72-.59-1.31-.91-1.82l190.7,2.19Z"
          style="fill: rgb(29, 29, 27);"></path>
        <path class="cls-1"
          d="M448.67,397.8h-.64s-67.67-.79-67.67-.79l-5.18-4.79-22.54-3.39-.15-.16c-8.64-9.39-11.33-16.03-13.71-21.9-2.52-6.22-4.74-11.68-13.6-18.91,4.11,5.93,5.9,10.42,7.63,14.79,1.8,4.51,3.65,9.17,8.12,15.38l8.37,11.62c2.95,1.72,5.92,3.74,8.83,5.98l1.5,1.15-33.29-.38.48-1.66-5.58-1.83c-.33-.1-1.32-.43-2.28-16.14-.22-3.64-.85-15.65.2-19.48-.36-.83-2.2-1.84-3.7-2.66-1.62-.88-3.16-1.72-3.87-2.7l-10.67-14.72c-1.06-1.46-2.15-2.88-3.21-4.25-3.35-4.33-6.51-8.41-8.56-13.73-1.11-2.9-3.49-4.72-5.79-6.47-1.32-1-2.68-2.04-3.79-3.27-.81-.9-1.56-1.78-2.3-2.64-2.28-2.66-4.43-5.17-7.57-7.48-2.43-1.76-6.68-6.08-7.81-8.83l-4.22-10.3c-.26-.66-.54-1.21-.86-1.72l-.62-.98h1.16s191.33,2.21,191.33,2.21v118.06ZM380.86,395.76l66.55.76v-115.53l-188.99-2.17c.15.3.28.61.42.94l4.22,10.29c1.04,2.51,5.14,6.65,7.39,8.29,3.26,2.4,5.46,4.96,7.78,7.68.73.85,1.48,1.72,2.28,2.62,1.03,1.14,2.29,2.1,3.62,3.11,2.45,1.86,4.97,3.79,6.21,7.03,1.98,5.14,5.09,9.16,8.38,13.41,1.07,1.38,2.17,2.81,3.24,4.28l10.67,14.72c.55.75,2.02,1.55,3.45,2.33,2.08,1.13,4.05,2.2,4.37,3.62l.04.17-.05.16c-1.7,5.39.55,31.85,1.42,34.31l6.53,2.14-.36,1.23,27.82.32c-2.42-1.78-4.86-3.4-7.29-4.81l-.12-.07-8.52-11.83c-4.55-6.34-6.44-11.07-8.27-15.65-2.04-5.13-4.16-10.43-10.11-18.08l-2.74-3.52,3.61,2.62c12.14,8.83,14.65,15,17.55,22.16,2.32,5.73,4.96,12.23,13.32,21.36l22.48,3.38,5.11,4.73ZM321.63,391.72h0s0,0,0,0Z"
          style="fill: rgb(29, 29, 27);"></path>
      </g>
      <g>
        <path class="cls-1" d="M280.87,513.37l6.44-11.51,13.01.37c-5.25,8.16-11.46,9-19.45,11.14Z"
          style="fill: rgb(29, 29, 27);"></path>
        <path class="cls-1"
          d="M279.59,514.37l7.36-13.14,14.5.41-.61.94c-4.86,7.55-10.43,8.99-17.49,10.8-.76.2-1.54.4-2.33.61l-1.44.39ZM287.68,502.51l-5.53,9.88c.3-.08.61-.16.91-.23,6.48-1.66,11.66-3,16.11-9.32l-11.48-.33Z"
          style="fill: rgb(29, 29, 27);"></path>
      </g>
      <g>
        <path class="cls-1"
          d="M305.11,511.52c.59,8.28-11.14,14.47-19.01,17.73,3.62-7.99,10.5-17.93,19.01-17.73Z"
          style="fill: rgb(29, 29, 27);"></path>
        <path class="cls-1"
          d="M284.87,530.45l.66-1.45c1.93-4.27,9-18.11,19.33-18.11.09,0,.18,0,.27,0h.57s.04.59.04.59c.59,8.29-10.22,14.56-19.4,18.36l-1.47.61ZM304.5,512.16c-8.43.29-14.62,10.8-17.12,15.87,8.19-3.58,17.1-9.04,17.12-15.87Z"
          style="fill: rgb(29, 29, 27);"></path>
      </g>
      <g>
        <path class="cls-1"
          d="M112.24,514.77l16.03-28.23c-.12,5.15-5.27,18.94-11.61,28.38l-4.42-.15Z"
          style="fill: rgb(29, 29, 27);"></path>
        <path class="cls-1"
          d="M116.99,515.56l-5.82-.2,17.79-31.32-.06,2.5c-.12,5.29-5.37,19.28-11.72,28.72l-.2.29ZM113.3,514.17l3.03.1c5.11-7.7,9.46-18.28,10.85-24.54l-13.88,24.44Z"
          style="fill: rgb(29, 29, 27);"></path>
      </g>
      <g>
        <path class="cls-1"
          d="M152.57,451.64c-3.03-1.51-7.76-3.73-10.25-4.22l-8.36,7.97c-3.5,3.35-7.12-6.12-24.19,11.21l-13.09,3.36c-3.58,6.54-15.26,9.4-21.7,2.96-5.27-5.25-13.95-8.9-20.42-3.42-3.53,2.99-5.4,10.58-8.6,13.64-2.34,2.27-5.77,3.97-7.05,6.65l2.07-92.64,135.86,4.68c-3.52,8.13-6.49,16.56-9.76,24.83-1.5,2.1-6.34,5.69-7.34,8.01l-7.17,16.96Z"
          style="fill: rgb(29, 29, 27);"></path>
        <path class="cls-1"
          d="M38.21,492.72l2.15-96.21.64.02,136.78,4.71-.37.85c-2.3,5.31-4.4,10.85-6.44,16.21-1.09,2.87-2.19,5.75-3.31,8.61l-.07.13c-.66.92-1.87,2.06-3.15,3.27-1.68,1.58-3.59,3.38-4.12,4.62l-7.43,17.58-.6-.3c-2.58-1.29-7.19-3.49-9.77-4.1l-8.12,7.75c-1.3,1.24-2.63,1.02-4.17.77-3.14-.51-8.39-1.37-20.01,10.42l-.12.12-13,3.34c-1.97,3.37-6,5.85-10.59,6.51-4.63.66-8.99-.67-11.97-3.65-7.43-7.41-15.36-6.95-19.57-3.38-1.75,1.49-3.13,4.28-4.46,6.99-1.29,2.62-2.51,5.1-4.11,6.63-.84.82-1.82,1.56-2.77,2.28-1.74,1.33-3.38,2.58-4.15,4.18l-1.27,2.65ZM41.59,397.81l-2.01,89.89c.93-1.04,2.12-1.94,3.28-2.82.92-.7,1.87-1.42,2.66-2.19,1.44-1.38,2.61-3.76,3.85-6.28,1.39-2.82,2.82-5.74,4.78-7.39,6.62-5.6,15.67-2.14,21.28,3.45,2.7,2.7,6.67,3.9,10.9,3.29,4.32-.62,8.08-2.96,9.8-6.11l.13-.24,13.19-3.39c11.99-12.12,17.62-11.2,20.99-10.65,1.52.25,2.28.33,3.09-.44l8.6-8.2.32.06c2.47.48,6.98,2.58,9.8,3.98l6.91-16.34c.63-1.48,2.55-3.29,4.41-5.04,1.21-1.14,2.35-2.21,2.95-3.03,1.11-2.83,2.2-5.67,3.28-8.52,1.93-5.09,3.93-10.34,6.09-15.41l-134.3-4.62Z"
          style="fill: rgb(29, 29, 27);"></path>
      </g>
      <g>
        <path class="cls-1" d="M181.22,516.51l1.65.66-1.7-.07c0-.25.02-.45.05-.59Z"
          style="fill: rgb(29, 29, 27);"></path>
        <path class="cls-1" d="M186.53,517.95l-5.99-.24v-.61c0-.31.02-.56.07-.74l.18-.7,5.74,2.29Z"
          style="fill: rgb(29, 29, 27);"></path>
      </g>
      <g>
        <path class="cls-1" d="M172.25,425.88l15.13-13.75c9.51-8.63-1.3,11.61-15.13,13.75Z"
          style="fill: rgb(29, 29, 27);"></path>
        <path class="cls-1"
          d="M170.28,426.82l16.68-15.16c2.69-2.44,3.61-2.47,4.15-2.17.24.13.63.49.48,1.34-.58,3.25-9.15,14.11-19.23,15.67l-2.07.32ZM190.31,410.72c-.36.16-1.11.61-2.51,1.88l-13.34,12.12c6.42-1.96,11.81-7.57,14.15-10.88,1.11-1.57,1.57-2.62,1.7-3.12Z"
          style="fill: rgb(29, 29, 27);"></path>
      </g>
      <g>
        <path class="cls-1"
          d="M190.93,416.48l-6.9,13.31c-.44.84-3.92,3.21-4,2.41-.77-6.98,3.65-9.83,10.9-15.71Z"
          style="fill: rgb(29, 29, 27);"></path>
        <path class="cls-1"
          d="M180.22,432.98c-.06,0-.11,0-.16-.01-.36-.07-.62-.35-.66-.71-.75-6.73,3.05-9.77,9.34-14.82.58-.46,1.17-.94,1.79-1.45l2.35-1.91-8.29,16c-.41.78-3.16,2.91-4.37,2.91ZM180.65,432.12s0,0,0,0c0,0,0,0,0,0ZM188.99,418.85c-5.64,4.53-8.79,7.25-8.38,12.76.86-.39,2.62-1.65,2.86-2.12l5.52-10.64Z"
          style="fill: rgb(29, 29, 27);"></path>
      </g>
      <g>
        <path class="cls-1" d="M174.91,465.87l16.86-23.02c1.93,4.96-9.67,24.73-16.86,23.02Z"
          style="fill: rgb(29, 29, 27);"></path>
        <path class="cls-1"
          d="M175.84,466.61c-.36,0-.72-.04-1.08-.12l-.92-.22,18.1-24.71.42,1.07c1.41,3.62-3.21,12.98-8.13,18.62-2.2,2.53-5.35,5.36-8.39,5.36ZM191.36,444.48l-15.28,20.86c2-.13,4.51-1.84,7.19-4.92,4.36-5,7.94-12.27,8.08-15.94Z"
          style="fill: rgb(29, 29, 27);"></path>
      </g>
      <g>
        <path class="cls-1" d="M206.09,419.77l-8.6,5.2,8.11-16.69c.42,3.94.56,7.97.49,11.49Z"
          style="fill: rgb(29, 29, 27);"></path>
        <path class="cls-1"
          d="M195.99,426.62l10-20.59.23,2.19c.5,4.67.54,8.87.49,11.57v.35s-10.73,6.48-10.73,6.48ZM205.18,410.59l-6.19,12.74,6.47-3.91c.03-2.21,0-5.32-.28-8.83Z"
          style="fill: rgb(29, 29, 27);"></path>
      </g>
      <g>
        <path class="cls-1"
          d="M326.18,469.84c-2.41,1.67-8.82,2.64-11.88,2.94l-13.8-8.92,3.85-11.42,4.53,3.31c.74.56,3.01-2.47,4.02-2.61,5.79-.81,21.62,10.9,13.27,16.69Z"
          style="fill: rgb(29, 29, 27);"></path>
        <path class="cls-1"
          d="M314.14,473.44l-14.39-9.3,4.29-12.71,5.12,3.75c.32-.13,1.04-.77,1.48-1.17.83-.75,1.54-1.39,2.18-1.48,4.36-.61,13.63,5.1,15.88,10.84,1.11,2.83.36,5.25-2.16,6.99h0c-3.03,2.09-11.25,2.96-12.17,3.05l-.22.02ZM301.26,463.61l13.2,8.53c3.1-.32,9.17-1.29,11.36-2.81h0c2.01-1.39,2.58-3.24,1.71-5.5-1.98-5.06-10.7-10.6-14.53-10.05-.27.05-1.05.75-1.51,1.17-1.15,1.04-2.15,1.94-2.98,1.32l-3.83-2.8-3.42,10.14ZM309.25,455.25h0s0,0,0,0Z"
          style="fill: rgb(29, 29, 27);"></path>
      </g>
      <g>
        <path class="cls-1"
          d="M293.64,413.03c6.01-4,13.27-7,20.29-1.73l8.97-4.42,20.37.69c.77,8.09,5.37,19.25-7.44,16.87l-8.7-1.6-2.94-11.44-7.66,6.46-12.3-1.08c-2.56-.22-7.12-2.41-10.6-3.75Z"
          style="fill: rgb(29, 29, 27);"></path>
        <path class="cls-1"
          d="M338.98,425.39c-.97,0-2.05-.11-3.25-.33l-9.09-1.67-2.79-10.86-7.09,5.98-12.56-1.1c-2-.17-5.02-1.43-7.94-2.64-.98-.41-1.94-.81-2.84-1.15l-1.13-.44,1.01-.68c5.22-3.48,13.03-7.44,20.7-1.94l8.77-4.33h.16s20.93.71,20.93.71l.05.55c.14,1.43.4,2.99.66,4.51.78,4.61,1.58,9.38-.89,11.82-1.06,1.04-2.61,1.56-4.69,1.56ZM327.65,422.29l8.3,1.53c3.36.62,5.59.33,6.83-.88,2.01-1.98,1.26-6.42.53-10.71-.23-1.35-.46-2.73-.61-4.05l-19.67-.67-9.17,4.53-.31-.23c-6.67-5.01-13.6-2.03-18.54,1.09.56.23,1.14.47,1.73.71,2.83,1.18,5.76,2.39,7.56,2.55l12.04,1.05,8.22-6.94,3.09,12.02Z"
          style="fill: rgb(29, 29, 27);"></path>
      </g>
      <g>
        <path class="cls-1" d="M336.19,448.78c4.37,3.85,7.3,6.12,13.71,9.83l-11.83,3.38-1.88-13.21Z"
          style="fill: rgb(29, 29, 27);"></path>
        <path class="cls-1"
          d="M337.55,462.79l-2.23-15.62,1.28,1.13c4.4,3.88,7.27,6.09,13.61,9.75l1.29.74-13.95,3.99ZM337.05,450.37l1.54,10.81,9.71-2.78c-4.97-2.94-7.75-5.01-11.25-8.03Z"
          style="fill: rgb(29, 29, 27);"></path>
      </g>
      <g>
        <path class="cls-1"
          d="M352.65,433.18c-3.21-5.7-6.61-9.02-6.33-16.59,4.83,4,9.27,8.38,12.8,13.21l-3.97-.47c-.45-.07-.24.67.07,4.34,1.75,1.3-1.36.39-2.57-.49Z"
          style="fill: rgb(29, 29, 27);"></path>
        <path class="cls-1"
          d="M355.5,434.93c-1.14,0-2.99-1.07-3.22-1.24l-.11-.08-.07-.12c-.67-1.18-1.34-2.26-1.99-3.3-2.5-3.99-4.65-7.44-4.42-13.62l.05-1.28.98.82c5.41,4.49,9.64,8.85,12.91,13.32l.86,1.17-4.96-.59c.02.33.07.83.12,1.38.05.52.11,1.17.18,1.96.35.29.79.78.41,1.29-.15.21-.42.3-.74.3ZM353.12,432.75c.4.26.96.51,1.44.69-.07-.77-.13-1.41-.18-1.93-.17-1.81-.21-2.24.16-2.6.11-.1.33-.26.7-.2l2.49.29c-2.86-3.7-6.41-7.34-10.79-11.06.11,4.97,1.95,7.92,4.24,11.58.64,1.02,1.29,2.07,1.95,3.22ZM355.08,429.96s.01,0,.02,0h-.02Z"
          style="fill: rgb(29, 29, 27);"></path>
      </g>
      <g>
        <path class="cls-1"
          d="M363.97,509.94l2.69,13.49-35.35-1.19-12.6-.44-7.67-.25-28.06-.96-5.35-.19c-1.51-1.9-2.88-3.97-4.68-6.23l-21.38-.57c-4.48-7.86-7.66-17.5-13.88-23.89l-14.65-15.04-3.55,2.46-13.53-16.12c-3.53,4.71-5.97,7.12-9.64,8.75l13.7,19.63c1.75,2.51,7.94,5.3,10.04,7.62l7.62,8.45c2.39,2.64,4.9,8.92,7.02,12.4l4.74,1.16h.02l19.47.72,3.03.12-22.06-.76h-.12l-44.03-1.5-5.06-.17h-.08c-6.48-4.37-25.54,1.36-36.68-21.91l-6.71-13.93c12.21-21.64,2.81-9.05,16.89-22.8l25.07-24.45c1.35-1.31,5.06-2.27,7.28-2.22-6.91,9.22-14.84,17.08-20.91,26.73-3.16,5.01-5.45,9.05-9.4,13.59,4.17,1.28,9.15-.87,12.52-4.85,2.46-2.91,9.17-3.6,11.42-5.87l13.88-13.95c3.9,5.8,10.3,6.14,16.5,5.57l10.94-1.01c9.57-9.96,3.18-12.75,11.22-25.79-.37-.1-3.84-.57-4.04.3l-1.25,5.03-.72,3.01c-.86,3.47-3.65-5.2-4.21-5.1l-3.2.61c3.48-15.48-1.14-16.56-.12-26.78l1.04.03h.03l40.5,1.4,23.2.79v.82l-22.81-1.08c1.85,2.61,2.36,9.49,3.89,12.74l6.02,1.8c1.33.4.99,5.65,2.12,6.41l16.76,10.95c2.37,1.55,3.72,6.76,4.19,9.61l-4.31-.86,1.38,10.31-14.05-3.45c3.31,6.12,5.38,13.46,10.21,17.87l8.18,7.49-11.58-.98,1.41,5.47-6.85-4.41-.81,8.33,13.19,13.8-1.45-9.29,7.66-.27c10.23-21.05,14-1.14,21.23-20,2.96,3.87,5.74,8.53,9.05,11.88l26.67,26.94Z"
          style="fill: rgb(29, 29, 27);"></path>
        <path class="cls-1"
          d="M367.43,524.09l-90.12-3.07-.18-.23c-.73-.92-1.42-1.86-2.14-2.85-.74-1.01-1.5-2.06-2.36-3.14l-21.44-.57-.18-.31c-1.44-2.52-2.76-5.27-4.04-7.93-2.74-5.68-5.57-11.55-9.74-15.83l-14.28-14.66-3.58,2.48-13.39-15.95c-2.9,3.81-5.28,6.29-8.72,7.99l13.27,19.02c.88,1.26,3.1,2.68,5.25,4.05,1.92,1.23,3.73,2.39,4.75,3.51l7.62,8.45c1.56,1.72,3.11,4.82,4.61,7.81.83,1.65,1.61,3.21,2.35,4.46l4.43,1.08,22.45.84-.05,1.26-71.45-2.43-.23-.1c-1.72-1.16-4.56-1.59-7.84-2.08-8.83-1.32-20.93-3.12-29.05-20.08l-6.86-14.23.16-.29c3.65-6.47,5.35-9.83,6.36-11.84,1.38-2.74,1.44-2.82,3.23-4.32,1.24-1.04,3.32-2.78,7.42-6.78l25.07-24.45c1.48-1.44,5.33-2.43,7.74-2.4l1.23.03-.74.98c-2.71,3.61-5.61,7.06-8.41,10.39-4.32,5.14-8.79,10.45-12.47,16.3-.52.83-1.02,1.63-1.51,2.41-2.31,3.71-4.32,6.95-7.28,10.47,3.58.59,7.83-1.28,10.88-4.88,1.44-1.7,4.07-2.65,6.61-3.56,2.01-.72,3.91-1.41,4.85-2.35l14.42-14.49.43.64c3.76,5.59,9.88,5.85,15.92,5.29l10.7-.99c4.85-5.11,5.35-8.17,5.99-12.04.54-3.28,1.14-6.99,4.5-12.67-.87-.09-2.06-.12-2.42.06l-1.94,7.95c-.2.81-.57,1.25-1.09,1.3-1.03.09-1.79-1.29-3.16-4.26-.27-.58-.58-1.26-.78-1.6l-3.8.72.21-.94c2.04-9.08,1.26-13.12.5-17.03-.52-2.67-1.06-5.44-.63-9.68l.06-.59,1.63.05,64.34,2.21v2.09l-22.33-1.05c.75,1.62,1.26,3.91,1.75,6.13.44,1.98.89,4.02,1.48,5.4l5.75,1.72c1.08.33,1.33,1.95,1.62,3.83.14.92.37,2.45.68,2.66l16.75,10.95c2.99,1.95,4.25,8.7,4.47,10.03l.15.9-4.34-.86,1.38,10.36-13.59-3.34c.77,1.52,1.48,3.09,2.17,4.62,2.06,4.56,4,8.86,7.26,11.83l9.54,8.74-12.53-1.06,1.59,6.17-7.33-4.72-.68,7.01,11.6,12.13-1.25-8,7.99-.28c5.34-10.82,9.08-10.83,12.39-10.84,2.84,0,5.29,0,8.65-8.78l.4-1.05.69.9c1,1.31,2,2.74,2.97,4.12,1.9,2.71,3.87,5.52,6.03,7.7l26.8,27.07,2.88,14.46ZM277.94,519.78l87.95,2.99-2.5-12.53-26.53-26.8c-2.24-2.26-4.23-5.11-6.17-7.86-.74-1.06-1.5-2.14-2.27-3.18-3.48,8.52-6.37,8.53-9.41,8.53-3.12,0-6.35,0-11.43,10.47l-.17.34-7.32.26,1.65,10.57-14.78-15.46.93-9.65,6.36,4.1-1.23-4.77,10.62.9-6.81-6.24c-3.45-3.15-5.54-7.77-7.56-12.25-.88-1.94-1.78-3.94-2.78-5.79l-.68-1.25,14.53,3.57-1.37-10.27,4.26.85c-.68-3.46-2.04-7.17-3.75-8.28l-16.76-10.95c-.77-.52-.98-1.91-1.23-3.53-.14-.92-.4-2.62-.74-2.81l-6.28-1.88-.12-.25c-.71-1.51-1.18-3.65-1.69-5.92-.58-2.64-1.19-5.38-2.14-6.72l-.2-.28-40.67-1.4c-.3,3.72.17,6.15.67,8.72.76,3.9,1.54,7.93-.3,16.61l2.26-.43c.66-.12.94.46,1.82,2.38.44.95,1.3,2.82,1.83,3.39.02-.05.04-.12.06-.2l1.97-8.04c.04-.18.17-.46.51-.66,1.09-.65,4.07-.16,4.3-.1l.81.22-.44.72c-3.66,5.93-4.28,9.7-4.82,13.02-.65,3.96-1.21,7.39-6.48,12.88l-.16.17-11.17,1.03c-5.91.55-12.47.33-16.64-5.22l-13.35,13.42c-1.13,1.14-3.17,1.87-5.31,2.64-2.39.86-4.85,1.74-6.07,3.19-3.66,4.31-8.95,6.34-13.18,5.04l-.93-.29.64-.73c3.27-3.75,5.38-7.16,7.83-11.1.49-.78.99-1.59,1.51-2.42,3.73-5.92,8.22-11.27,12.57-16.44,2.51-2.98,5.1-6.06,7.55-9.25-2.03.24-4.56,1.03-5.52,1.97l-25.07,24.45c-4.13,4.03-6.23,5.79-7.49,6.84q-1.62,1.36-2.91,3.92c-1,1.99-2.67,5.29-6.22,11.6l6.57,13.63c7.83,16.35,19.54,18.1,28.1,19.38,3.34.5,6.24.93,8.2,2.17l43.42,1.47-.06-.1c-.8-1.32-1.64-3-2.53-4.77-1.46-2.92-2.97-5.94-4.41-7.53l-7.62-8.45c-.9-1-2.73-2.16-4.49-3.29-2.25-1.44-4.58-2.93-5.6-4.39l-14.13-20.26.7-.31c3.34-1.49,5.71-3.65,9.39-8.55l.48-.64,13.67,16.29,3.52-2.43,15.03,15.42c4.31,4.43,7.19,10.4,9.97,16.17,1.22,2.53,2.48,5.14,3.83,7.54l21.32.57.18.23c.95,1.19,1.77,2.32,2.57,3.42.66.9,1.28,1.76,1.93,2.58ZM239.19,427.02h0s0,0,0,0Z"
          style="fill: rgb(29, 29, 27);"></path>
      </g>
      <g>
        <path class="cls-1"
          d="M374.11,430.16c-1.43-.47-.24-6.17-1.43-7.42l-14.15-14.64,12.74.44c2.27,2.41,4.46,4.93,6.56,7.5,2.02,2.46,2.86,9.94,2.02,13.21-.37,1.38-4.31,1.38-5.74.91Z"
          style="fill: rgb(29, 29, 27);"></path>
        <path class="cls-1"
          d="M376.4,431.07c-.97,0-1.9-.12-2.48-.31-1.18-.39-1.21-2.18-1.24-4.25-.02-1.23-.05-2.92-.45-3.34l-15.23-15.76,14.56.5.18.19c2.14,2.27,4.36,4.8,6.59,7.54,2.15,2.61,3.06,10.21,2.14,13.76-.12.45-.44.81-.94,1.08-.77.41-1.97.58-3.12.58ZM374.32,429.56c1.03.34,3.55.39,4.61-.18.18-.1.29-.2.32-.29.82-3.17-.04-10.38-1.9-12.64-2.15-2.64-4.29-5.09-6.36-7.28l-10.92-.38,13.06,13.51c.74.77.77,2.43.8,4.19.02.99.05,2.83.38,3.07Z"
          style="fill: rgb(29, 29, 27);"></path>
      </g>
      <g>
        <path class="cls-1"
          d="M87.48,528.7c-4.8,8.78-25.96,13.04-27.88,11.17l-.08-.08,6.14-5.22,7.08-6.01,5.91.05,8.83.08Z"
          style="fill: rgb(29, 29, 27);"></path>
        <path class="cls-1"
          d="M61.8,540.93c-1.17,0-2.17-.16-2.64-.61l-.57-.57,13.92-11.82,16.02.15-.5.92c-3.58,6.55-15.59,10.54-22.79,11.63-1.1.17-2.34.3-3.44.3ZM60.69,539.61c.76.11,2.25.12,4.81-.3,6.46-1.06,16.98-4.55,20.84-9.99l-13.38-.12-12.27,10.41Z"
          style="fill: rgb(29, 29, 27);"></path>
      </g>
      <g>
        <path class="cls-1"
          d="M87.64,558.69l12.2-5.08-15.14,14.81c-2.07,1.63-.27,1.58,2.1,1.13l3.05-1.09c30.7-10.99-27.39,21.27-19.85,14.97,1.04-4.41,6.12-7.3,9.99-9.89-1.24-6.73,1.11-12.11,7.66-14.84Z"
          style="fill: rgb(29, 29, 27);"></path>
        <path class="cls-1"
          d="M69.32,584.81c-.34,0-.44-.13-.51-.24-.39-.55.14-1.08.63-1.5,1.08-4.07,5.26-6.81,8.95-9.24.31-.2.62-.4.92-.6-1.17-7.09,1.7-12.46,8.1-15.12l15.23-6.34-17.49,17.1c-.16.12-.28.23-.38.32.36-.01.96-.08,1.92-.26l2.95-1.07c8.4-3.01,9.4-2.56,9.79-1.73.29.63.97,2.12-15.46,11.51-10.6,6.06-13.66,7.17-14.65,7.17ZM97.05,555.46l-9.17,3.82c-6.01,2.5-8.53,7.39-7.28,14.14l.08.41-.34.23c-.41.27-.83.55-1.27.84-3.43,2.25-7.3,4.79-8.36,8.28,2.43-1.05,7.79-3.82,13.7-7.25,8.29-4.8,12.71-7.97,13.65-9.15-.7.02-2.65.35-8.01,2.27l-3.04,1.09c-2.5.48-3.46.4-3.78-.3-.36-.79.61-1.55,1.07-1.92l12.74-12.47Z"
          style="fill: rgb(29, 29, 27);"></path>
      </g>
      <g>
        <path class="cls-1"
          d="M102.37,638.85l2.34,6.81-9.14-.08c-2.93-3.84-5.54-7.22-9.24-9.42l2.86,9.15-11.31-8.68c-5.85.47-9.54-.71-13.31-5.45-12.53-15.81-9.24-12.08-26.87-15.68h-.02l-32.79-29.39,4.96-4.21,3.38-2.88.24-.2,11.39,10.68c3.06,2.89,7.64,7.4,11.19,9.49,23.66,13.88,34.49,15.87,61.44,19.4l23.22,27.42-5.97-.05c-4.44-3.9-8.95-7.49-12.38-6.91Z"
          style="fill: rgb(29, 29, 27);"></path>
        <path class="cls-1"
          d="M90.39,647.02l-12.7-9.75c-6.25.45-9.96-1.1-13.61-5.71l-.82-1.04q-9.19-11.61-17.67-12.98c-2.07-.33-4.64-.75-7.95-1.43h-.18l-.2-.16-33.33-29.88,9.56-8.12,12.84,12.05c2.93,2.78,6.93,6.6,10.04,8.42,23.58,13.84,34.14,15.77,61.21,19.32l.24.03,24.26,28.66-7.58-.06-.18-.16c-3.74-3.29-7.94-6.74-11.1-6.82l2.36,6.88-10.34-.09-.19-.25c-2.4-3.14-4.68-6.14-7.6-8.29l2.92,9.35ZM114.99,645.13l4.36.04-22.17-26.19c-27.07-3.55-37.72-5.53-61.44-19.45-3.23-1.9-7.3-5.77-10.27-8.59l-1.03-.98-10.98-10.29-7.6,6.45,32.12,28.79c3.24.66,5.77,1.07,7.81,1.4,8.96,1.45,9.14,1.68,18.46,13.44l.82,1.03c3.44,4.33,6.78,5.7,12.76,5.21l.24-.02,9.92,7.62-2.76-8.82,1.42.84c3.77,2.25,6.44,5.68,9.23,9.34l7.93.07-2.29-6.67.73-.12c3.73-.63,8.32,3.04,12.73,6.91Z"
          style="fill: rgb(29, 29, 27);"></path>
      </g>
      <g>
        <path class="cls-1"
          d="M93.95,576.46l16.71-18.56c4.48-4.98,8.92-8.11,15.19-5.37-4.83,8.48-10.5,14.45-17.92,19.55l-22.65,15.56c2.76-4.17,5.52-7.67,8.66-11.19Z"
          style="fill: rgb(29, 29, 27);"></path>
        <path class="cls-1"
          d="M82.97,590l1.79-2.7c2.62-3.96,5.39-7.54,8.72-11.26h0s16.71-18.56,16.71-18.56c4.18-4.65,9-8.54,15.91-5.52l.64.28-.35.61c-4.73,8.31-10.32,14.4-18.11,19.76l-25.32,17.4ZM94.42,576.88c-2.49,2.78-4.66,5.48-6.69,8.32l19.84-13.63c7.43-5.11,12.81-10.9,17.37-18.72-5.49-2.07-9.52.69-13.82,5.48l-16.71,18.56Z"
          style="fill: rgb(29, 29, 27);"></path>
      </g>
      <g>
        <path class="cls-1"
          d="M126.71,587.08c-.56,3.8-7.42,8.8-10.85,9.56l7.54-13.22-2.78-5.5c-.52-1.04,2.93-2.57,3.92-3.38l3.5-2.84c.77-.62-.29-3.28-.57-4.68,2.29-1.19,6.34-3.36,7.76-5.47,3.06-4.54,10.94-6.36,12.48-1.51,1.21,3.82-10.43,6.8-8.41,10.08l2.46,4.02-13.73,4.16-1.31,8.8Z"
          style="fill: rgb(29, 29, 27);"></path>
        <path class="cls-1"
          d="M114.61,597.55l8.07-14.16-2.62-5.2c-.64-1.27,1.23-2.39,2.87-3.37.5-.3.97-.58,1.22-.78l3.5-2.84c.23-.33-.26-2.05-.46-2.79-.13-.47-.25-.91-.33-1.27l-.1-.47.42-.22c1.84-.96,6.15-3.21,7.52-5.26,2.06-3.05,6.28-5.07,9.62-4.6,2,.29,3.41,1.44,3.99,3.24.75,2.37-2.06,4.2-4.77,5.97-2.57,1.67-4.34,2.94-3.7,3.97l2.88,4.72-14.13,4.28-1.25,8.4c-.63,4.29-7.89,9.32-11.34,10.08l-1.39.31ZM128.19,567.34c.06.23.13.47.2.73.47,1.66.95,3.38.04,4.11l-3.5,2.84c-.32.26-.8.55-1.36.89-.69.41-2.29,1.37-2.38,1.79l2.92,5.73-6.89,12.08c3.49-1.51,8.42-5.53,8.86-8.52h0s1.37-9.2,1.37-9.2l13.33-4.03-2.03-3.33c-1.33-2.16,1.43-3.96,4.09-5.69,2.21-1.44,4.72-3.07,4.26-4.53-.54-1.69-1.91-2.22-2.97-2.38-2.84-.4-6.61,1.41-8.39,4.05-1.31,1.95-4.5,3.84-7.55,5.45Z"
          style="fill: rgb(29, 29, 27);"></path>
      </g>
      <g>
        <path class="cls-1"
          d="M292.65,543.62c2.17.54,4.46,3.82,6.06,6.71l-8.85-.67c6.34,6.51,12.7,13.36,16.34,22.21l-20.27-8.19c-.59-.24-2.57,2.44-2.98,1.95l-2.62-3.1c-4.44-5.22-8.61-11.39-9.59-18.15l-1.43-10.06c18.64,18.34,13.95,6.93,23.35,9.3Z"
          style="fill: rgb(29, 29, 27);"></path>
        <path class="cls-1"
          d="M307.35,573.01l-21.52-8.7c-.24.14-.7.57-.99.84-.81.76-1.27,1.19-1.82,1.15-.22-.01-.42-.12-.56-.29l-2.62-3.09c-5.8-6.82-8.9-12.69-9.73-18.47l-1.69-11.91,1.33,1.31c12.1,11.9,14.06,10.98,16.54,9.8,1.41-.67,3.16-1.51,6.53-.65,2.47.62,4.87,4.16,6.45,7.02l.57,1.02-8.36-.64c6.18,6.41,11.91,12.94,15.31,21.21l.57,1.39ZM285.84,563.03c.11,0,.21.02.31.06l18.85,7.62c-3.6-7.92-9.43-14.27-15.6-20.61l-1.17-1.2,9.33.71c-1.84-3.09-3.66-5.03-5.07-5.38h0c-2.92-.74-4.32-.07-5.67.57-3.22,1.53-5.64,1.88-16.64-8.74l1.17,8.23c.8,5.54,3.8,11.21,9.45,17.83l2.39,2.82c.23-.18.57-.49.79-.7.71-.67,1.3-1.21,1.86-1.21ZM283.42,565.21h0s0,0,0,0Z"
          style="fill: rgb(29, 29, 27);"></path>
      </g>
      <g>
        <path class="cls-1"
          d="M385.97,648.25l-59.73-.54h-.02l-1.56-.87,2.52-2.74c-.39.4-14.6-17.41-15.63-22.44l20.37,12.15-1.41-5.94,15.18,6.21c-5.33-10.06-32.07-36.21-41.81-40.8l7.5,15.48-2.52,8.85c-13.54-9.79-25.54-21.92-37.42-33.31-11.24-.66-9.32-12.95-22.24-16.39l-8.28,6.61c-6.53-6.86-12.37-10.11-18.94-15.87l-8.82-7.72c-3.97-3.48-9.71-4.17-16.39-6.28l18.34,28.82-13.32-9.49c10.2,13.86,19.52,25.64,31.46,35.8,15.16,12.89,20.95,10.38,33.11,26.16,5.45,7.07,10.63,13.54,14.99,21.25l5.55.03.02.12-5.52-.05-8.61-.08h-.02l-13.32-.12,13.24.07-3.13-2.04c-1.13-5.57-4.24-13.49-11.04-13.93-5.92-.39-11.04,0-12.57-7.66l-10.18-2.39c3.47,3.82,9.61,6.39,12.23,10.04l11.41,15.9h-.94l-47.36-.44c-1.11-5.7-2.51-10.36-4.78-15.87-5.97-14.4,3.01-13.29-17.8-38.21l-7.55,15.21-7.05-9.98-4.79,4.74-10.63-2.3c-4.61,5.13-9.42,5.2-15.75,3.82l-18.17,5.77c2.56-7.67,10.09-12.25,18.47-12.28,7.37-.02,12.37-2.37,19.11-4.86,11.98-4.42,26.01-10.2,27.07-25.1l-4.61-12.1-5.55,1.62c-5.45,5.59-11.32,12.77-21.22,12.99,3.92-3.89,8.51-6.9,11.93-10.99l16.05-19.15,1.55-10.35,22.41.2h.49l44.89.42,33.51.3-.03.76-33.35-.62,3.67,11.93-3.11,3.01-10.77-10.65-1.43,4.26-7.34-5.57c.1,2.12-.79,5.43-.32,6.88l4.64,14.54c16.29,5.62,32.96,10.46,50.41,15.43,3.1.89,6.78,7.02,9.42,8.46,4.56.93,19.87,7.79,17.73,16.32l9.64,7.4c11.54,8.85,19.84,21.75,31.73,29.96,8.56,5.91,17.9,9.96,26.38,15.6Z"
          style="fill: rgb(29, 29, 27);"></path>
        <path class="cls-1"
          d="M388.09,648.9l-62.01-.56-.16-.08-2.26-1.26,2.61-2.84c-1.84-1.8-6.13-7.46-7.37-9.15-2.72-3.68-7.36-10.29-7.96-13.23l-.29-1.4,20.32,12.11-1.35-5.68,14.58,5.96c-6.54-10.25-28.82-32.01-38.9-38.02l6.76,13.94-2.84,9.95-.73-.53c-11.68-8.44-22.25-18.66-32.47-28.53-1.62-1.57-3.24-3.13-4.85-4.68-5.79-.42-8.22-3.85-10.79-7.47-2.49-3.52-5.06-7.15-11.04-8.83l-8.48,6.77-.4-.42c-3.97-4.18-7.63-6.96-11.5-9.9-2.38-1.81-4.85-3.69-7.4-5.92l-8.82-7.72c-2.82-2.47-6.66-3.51-11.1-4.7-1.11-.3-2.25-.61-3.43-.95l19.16,30.11-12.72-9.06c9.91,13.29,18.46,23.54,29,32.5,6.1,5.18,10.7,7.88,14.76,10.26,5.97,3.5,11.12,6.51,18.44,16l1.56,2.01c4.82,6.23,9.38,12.12,13.3,18.99l5.73.03.19,1.38-77.06-.7-.1-.51c-1.11-5.72-2.49-10.29-4.74-15.74-2-4.83-2.36-8.03-2.68-10.84-.63-5.62-1.18-10.49-14.41-26.46l-7.59,15.29-7.23-10.23-4.51,4.46-10.61-2.3c-4.63,4.97-9.55,5.15-15.94,3.78l-19.19,6.09.39-1.18c2.56-7.69,10.05-12.68,19.07-12.71,6.22-.01,10.81-1.76,16.14-3.78.89-.34,1.81-.69,2.76-1.04,12.9-4.77,25.58-10.58,26.65-24.42l-4.35-11.42-4.83,1.41c-.47.49-.95.98-1.43,1.49-5.1,5.33-10.88,11.37-20.11,11.57l-1.58.04,1.12-1.11c1.63-1.61,3.38-3.09,5.08-4.51,2.48-2.09,4.83-4.06,6.81-6.43l15.94-19.01,1.6-10.71,102.5.94-.09,2.02-33.09-.62,3.53,11.47-3.83,3.71-10.49-10.37-1.39,4.13-7.05-5.35c-.04.64-.13,1.3-.21,1.96-.17,1.37-.34,2.78-.12,3.47l4.55,14.24c16.49,5.68,33.77,10.68,50.07,15.31,1.93.56,3.91,2.78,5.83,4.93,1.34,1.51,2.61,2.94,3.65,3.54,3.54.76,13.19,4.81,16.9,10.69,1.25,1.99,1.7,4,1.32,5.97l9.32,7.16c5.45,4.18,10.23,9.31,14.86,14.27,5.2,5.58,10.58,11.34,16.84,15.67,4.48,3.09,9.25,5.71,13.86,8.25,4.16,2.29,8.47,4.66,12.51,7.34l1.77,1.18ZM326.4,647.08l57.41.52c-3.46-2.19-7.08-4.18-10.6-6.11-4.64-2.55-9.44-5.19-13.97-8.31-6.38-4.4-11.8-10.22-17.05-15.85-4.59-4.93-9.34-10.02-14.71-14.13l-9.97-7.66.1-.4c.44-1.76.08-3.58-1.07-5.4-3.49-5.53-12.99-9.5-16.18-10.15l-.18-.06c-1.24-.68-2.61-2.22-4.06-3.85-1.71-1.92-3.65-4.1-5.23-4.56-16.41-4.67-33.83-9.71-50.44-15.44l-.3-.1-4.74-14.84c-.31-.96-.13-2.44.06-4.02.13-1.07.27-2.17.23-3.03l-.06-1.35,7.71,5.85,1.47-4.38,11.05,10.93,2.39-2.31-3.55-11.55-66.78-.61-1.49,9.98-16.16,19.28c-2.05,2.45-4.55,4.55-6.97,6.58-1.25,1.05-2.52,2.12-3.75,3.25,7.74-.86,12.91-6.26,17.51-11.07.52-.55,1.04-1.09,1.56-1.61l.12-.12,6.27-1.82,4.87,12.77v.14c-1.14,15.92-17,21.77-27.49,25.65-.95.35-1.86.7-2.75,1.04-5.44,2.07-10.13,3.85-16.58,3.87-7.99.03-14.69,4.17-17.43,10.66l17.09-5.43.16.04c6.3,1.38,10.79,1.22,15.14-3.62l.24-.27,10.66,2.31,5.08-5.03,6.87,9.72,7.51-15.13.62.74c14.07,16.85,14.65,21.96,15.31,27.87.32,2.87.65,5.84,2.59,10.5,2.22,5.38,3.6,9.9,4.71,15.48l46.55.43-10.69-14.9c-1.33-1.85-3.63-3.43-6.07-5.1-2.18-1.5-4.44-3.04-6.11-4.89l-1.36-1.5,12.55,2.94.08.4c1.31,6.55,5.19,6.77,10.56,7.07.47.03.95.05,1.43.08,7.79.5,10.65,9.87,11.56,14.17l2.83,1.84,7.36.07c-3.81-6.57-8.23-12.28-12.9-18.31l-1.56-2.01c-7.16-9.29-11.98-12.11-18.08-15.68-4.11-2.4-8.76-5.13-14.94-10.38-11.46-9.75-20.57-20.97-31.56-35.91l-2.33-3.17,13.9,9.9-17.53-27.55,1.65.52c1.74.55,3.4,1,5.02,1.43,4.59,1.24,8.56,2.31,11.6,4.97l8.82,7.72c2.52,2.21,4.97,4.07,7.33,5.87,3.78,2.88,7.36,5.6,11.25,9.62l8.08-6.45.31.08c6.64,1.76,9.51,5.82,12.05,9.41,2.53,3.57,4.71,6.65,10.06,6.96h.23s.17.17.17.17c1.67,1.6,3.34,3.22,5.02,4.84,9.98,9.64,20.29,19.6,31.6,27.89l2.21-7.75-8.18-16.87,1.62.76c9.88,4.66,36.63,30.76,42.1,41.07l.82,1.54-15.65-6.4,1.48,6.2-20.17-12.02c2.71,5.99,13.64,19.73,14.71,20.46-.13-.08-.46-.14-.7.12l.92.86-1.98,2.15.73.41ZM259.75,646.46l10.81.06-1.55-1.01-.05-.26c-.79-3.88-3.38-12.97-10.46-13.43-.48-.03-.95-.06-1.42-.08-5.16-.29-10.04-.55-11.64-7.68l-7.54-1.77c1.3,1.11,2.79,2.13,4.25,3.13,2.53,1.74,4.93,3.38,6.39,5.41l11.22,15.64Z"
          style="fill: rgb(29, 29, 27);"></path>
      </g>
      <g>
        <path class="cls-1"
          d="M429.55,581.22l-8.68-8.8c-.74.89-1.33,4.81-2.17,4.49l-5.15-2.04,16.02,30.94c-12.74-2.17-9.34-10.95-23.71-13.22-14.72-2.32-10.16-11.07-25.76-18.51l17.62,29.85-17.33-11.54.86,7.5c-3.25-2.15-9.84-5.15-10.89-8.33l-4.79-14.86c-4.91-2.86-9.15-5.62-13.27-8.65-9.98,14.92-27.27-21.4-30.44-29.85l4.39-7.32,9.96.08,3.08.03,39.84.37h.02c4.76,1.31,6.51-1.09,16.15,6.56l10.06,7.99,2.07,6.16c.5,1.46,4.39.64,6.43.4,5.57,7.05,11.26,15.9,18.84,21.47l-4.58,14.99c-.29-2,1.06-6.06,1.43-7.74Z"
          style="fill: rgb(29, 29, 27);"></path>
        <path class="cls-1"
          d="M430.71,606.65l-1.25-.21c-6.37-1.08-8.9-3.83-11.34-6.49-2.53-2.75-5.15-5.59-12.35-6.73-8.1-1.28-10.6-4.52-13.49-8.27-2.25-2.92-4.77-6.2-10.53-9.32l17.92,30.36-18.49-12.32.86,7.5-1.13-.75c-.78-.52-1.77-1.09-2.82-1.7-3.49-2.03-7.45-4.33-8.32-6.96l-4.72-14.63c-4.67-2.72-8.69-5.34-12.6-8.18-1.81,2.44-3.95,3.54-6.4,3.26-10.47-1.21-22.78-28.46-24.77-33.77l-.11-.29,4.73-7.89,53.42.51c1.22.34,2.23.42,3.29.5,2.9.23,5.89.46,13.09,6.18l10.21,8.11,2.13,6.33c.26.74,3.37.31,4.69.12.39-.05.75-.1,1.07-.14l.35-.04.22.28c1.23,1.56,2.45,3.17,3.73,4.88,4.5,5.99,9.15,12.18,14.99,16.47l.36.26-5.53,18.13-.4-2.8c-.24-1.65.51-4.42,1.05-6.44.12-.45.23-.85.31-1.19l-7.83-7.93c-.14.38-.29.84-.42,1.25-.48,1.5-.8,2.44-1.41,2.73-.23.11-.48.12-.72.03l-3.59-1.42,15.82,30.57ZM378.51,572.63l1.87.89c7.41,3.53,10.32,7.32,12.9,10.66,2.84,3.68,5.08,6.6,12.69,7.8,7.64,1.21,10.41,4.21,13.08,7.12,2.23,2.42,4.35,4.72,9.36,5.85l-16.19-31.28,6.49,2.57c.22-.36.52-1.29.7-1.88.32-1.01.6-1.88.98-2.34l.45-.54,9.14,9.26,2-6.54c-5.82-4.38-10.43-10.52-14.89-16.46-1.2-1.6-2.34-3.12-3.49-4.58-.22.03-.45.06-.69.09-2.43.34-5.46.77-6.06-.96l-2.01-5.99-9.91-7.88c-6.89-5.47-9.57-5.68-12.4-5.91-1.05-.08-2.14-.17-3.44-.52l-52.45-.48-4.05,6.75c3.19,8.35,14.75,31.65,23.63,32.68,2.14.25,3.96-.81,5.58-3.24l.37-.55.53.39c4.09,3.01,8.29,5.75,13.22,8.61l.21.12,4.87,15.09c.71,2.17,4.62,4.44,7.75,6.25.61.36,1.21.7,1.76,1.03l-.86-7.55,16.17,10.77-17.26-29.25Z"
          style="fill: rgb(29, 29, 27);"></path>
      </g>
      <g>
        <path class="cls-1" d="M109.47,659.54c-2.2-1.48-4.11-3.03-5.79-4.59l4.19-.05,1.6,4.64Z"
          style="fill: rgb(29, 29, 27);"></path>
        <path class="cls-1"
          d="M110.67,661.11l-1.56-1.05c-2.08-1.4-4-2.92-5.87-4.65l-1.15-1.07,6.22-.08,2.36,6.85ZM105.3,655.56c.95.83,1.93,1.61,2.93,2.35l-.82-2.37-2.12.03Z"
          style="fill: rgb(29, 29, 27);"></path>
      </g>
      <g>
        <path class="cls-1" d="M128.34,654.81c-.56.13-1.18.08-1.85-.13l1.72-.02.13.15Z"
          style="fill: rgb(29, 29, 27);"></path>
        <path class="cls-1"
          d="M127.7,655.52c-.44,0-.91-.08-1.4-.24l-3.67-1.19,5.87-.06,1.02,1.15-1.02.25c-.25.06-.52.09-.79.09Z"
          style="fill: rgb(29, 29, 27);"></path>
      </g>
      <g>
        <path class="cls-1"
          d="M174.64,752.93c7.34,6.28,16.24,12.2,25.56,17.21l-3.6.03-95.88.89,5.77-8.4c5.06-.45,9.09-1.6,11.49-6.26l7.02,2.79,12.3-11.07,15.56-13.63,10.45,14.81c1.77,2.51,9.07,2.71,11.34,3.62Z"
          style="fill: rgb(29, 29, 27);"></path>
        <path class="cls-1"
          d="M99.51,771.71l6.63-9.64.3-.03c5.13-.46,8.76-1.61,10.99-5.92l.26-.51,7.18,2.86,12.01-10.81,16.1-14.1,10.85,15.38c1.04,1.48,4.76,2.12,7.47,2.59,1.49.26,2.78.48,3.58.8l.18.11c7.1,6.08,15.9,12,25.44,17.14l2.16,1.16-103.15.96ZM106.84,763.27l-4.92,7.15,95.85-.89c-8.76-4.88-16.83-10.4-23.46-16.05-.7-.26-1.93-.47-3.24-.7-3.26-.56-6.95-1.21-8.29-3.11l-10.04-14.23-15.04,13.17-12.58,11.33-6.86-2.73c-2.46,4.31-6.36,5.58-11.43,6.07Z"
          style="fill: rgb(29, 29, 27);"></path>
      </g>
      <g>
        <path class="cls-1"
          d="M262.52,653.11c-7.99,2.15-15.95,1.36-23.92,1.75-4.58.22-7.87,1.99-13.19-.59l-1.48-.71,38.6-.45Z"
          style="fill: rgb(29, 29, 27);"></path>
        <path class="cls-1"
          d="M231.15,656.29c-1.8,0-3.73-.34-6.02-1.45l-3.92-1.87,46.29-.54-4.82,1.3c-5.79,1.56-11.62,1.6-17.25,1.63-2.23.01-4.54.03-6.8.14-1.22.06-2.36.23-3.46.4-1.33.2-2.64.4-4.01.4ZM226.72,654.16c3.16,1.25,5.54.89,8.26.48,1.14-.17,2.31-.35,3.59-.41,2.29-.11,4.61-.13,6.86-.14,2.82-.02,5.7-.04,8.58-.25l-27.28.32Z"
          style="fill: rgb(29, 29, 27);"></path>
      </g>
      <g>
        <polygon class="cls-1" points="261.54 764.32 264.97 769.55 255.9 769.64 261.54 764.32"
          style="fill: rgb(29, 29, 27);"></polygon>
        <path class="cls-1"
          d="M254.3,770.28l7.36-6.94,4.48,6.83-11.83.11ZM261.43,765.3l-3.92,3.7,6.3-.06-2.38-3.64Z"
          style="fill: rgb(29, 29, 27);"></path>
      </g>
      <g>
        <path class="cls-1"
          d="M287.35,652.86l-3.08.03c.4.82.77,1.68,1.14,2.54l-3.87-2.52-8.97.08,8.93-.1,2.74-.03,3.1-.03v.03Z"
          style="fill: rgb(29, 29, 27);"></path>
        <path class="cls-1"
          d="M286.82,657.1l-5.46-3.56-8.78.08v-1.26s15.4-.18,15.4-.18v1.26l-.62.04-2.1.02c.25.56.5,1.12.73,1.67l.83,1.92ZM283.6,653.5l.38.25c-.04-.08-.08-.17-.12-.25h-.26Z"
          style="fill: rgb(29, 29, 27);"></path>
      </g>
      <g>
        <path class="cls-1"
          d="M433.77,753.2l-16.66,14.96-147.26,1.35c3.48-4.56,6.49-8.97,10.33-12.33,4.93-4.36,9.44-7.79,11.76-13.26l2.42,7.03,13.8-13.95c3.1-3.15,6.16-5.2,7.72-9.32l4.36-11.52,9.35,6.86c21.28-29.01,6.85-9.17,30.35-30.03l7.91,11.37c3.11,1.01,11.22-6.09,12.52-4.24l2.74,3.97c8.38,12.1,4.49,20.02,7.44,19.58l5.06-.76,19.68,26.38c3.68-2.73,7.25-3.47,10.78-.89,2.49,1.82,5.06,3.4,7.69,4.79Z"
          style="fill: rgb(29, 29, 27);"></path>
        <path class="cls-1"
          d="M268.57,770.15l.78-1.03c.63-.83,1.25-1.65,1.86-2.46,2.76-3.68,5.37-7.16,8.56-9.96.61-.54,1.22-1.07,1.82-1.59,4.18-3.64,7.8-6.78,9.77-11.44l.64-1.51,2.63,7.62,13.08-13.22c.73-.74,1.46-1.43,2.17-2.09,2.29-2.14,4.26-3.99,5.41-7.01l4.65-12.3,9.52,6.98c12.33-16.8,12.41-16.84,15.38-18.42,1.93-1.03,5.17-2.75,14.69-11.2l.53-.47,8.18,11.76c1.4.25,4.14-1.27,6.37-2.5,2.97-1.63,5.32-2.93,6.28-1.55l2.75,3.97c5.19,7.5,5.77,13.55,6.08,16.8.11,1.12.22,2.29.48,2.49.05.04.19.03.26.02l5.44-.81,19.54,26.19c4.05-2.8,7.66-2.98,11.02-.53,2.34,1.71,4.91,3.31,7.61,4.75l.8.42-17.5,15.72h-.24s-148.55,1.36-148.55,1.36ZM291.85,745.58c-2.16,4.15-5.56,7.1-9.43,10.47-.6.52-1.2,1.05-1.82,1.59-3.09,2.71-5.66,6.14-8.38,9.77-.36.48-.72.96-1.09,1.45l145.74-1.33,15.81-14.2c-2.47-1.36-4.81-2.84-6.97-4.41-3.04-2.21-6.23-1.93-10.04.89l-.5.37-19.83-26.58-4.69.7c-.49.07-.9-.02-1.22-.27-.69-.54-.79-1.61-.96-3.37-.32-3.36-.86-8.98-5.86-16.21l-2.74-3.97c-.31-.44-3.34,1.22-4.64,1.94-2.81,1.54-5.71,3.13-7.55,2.55l-.2-.07-7.62-10.96c-9.22,8.14-12.46,9.87-14.41,10.9-2.74,1.46-2.8,1.49-15.32,18.56l-.37.51-9.19-6.75-4.06,10.75c-1.25,3.29-3.42,5.33-5.73,7.48-.7.65-1.42,1.32-2.13,2.06l-14.51,14.67-2.25-6.53Z"
          style="fill: rgb(29, 29, 27);"></path>
      </g>
      <path class="cls-1"
        d="M285.36,984.32l-89.47-8.04-.97-207.75,92.41-.7-1.97,216.49ZM199.2,973.23l82.86,7.45,1.9-209.49-85.7.65.94,201.4Z"
        style="fill: rgb(29, 29, 27);"></path>
      <path class="cls-1"
        d="M223.36,655.14l-13.58-6.57-.14-.85c-.01-.07-.03-.14-.04-.21-.03-.12-.05-.25-.08-.38l-.32-1.95,51.08.25,5.96,8.32-2.19.69c-.37.12-.73.21-1.1.29l-.33.04-39.25.37ZM217.4,648.55l6.71,3.25,36.38-.35-1.93-2.69h-.09l-41.08-.21Z"
        style="fill: rgb(29, 29, 27);"></path>
      <path class="cls-1"
        d="M272.59,654.66l-.03-3.33,3.45-.04-3.71-2.42-12.85-.11.02-3.33,28.9.14.49,3.46-4.64-.04c.38.74.75,1.47,1.1,2.2l3.71-.04v3.37l-16.42.15ZM278.36,648.84l3.07,2c-.33-.65-.68-1.32-1.05-1.99h-2.01Z"
        style="fill: rgb(29, 29, 27);"></path>
      <path class="cls-1"
        d="M290.26,533l-96.18-1.81v-15.51l96.74,3.59-.56,13.73ZM210.29,528.16l76.77,1.45.29-7.13-89.94-3.34v8.78l12.89.24Z"
        style="fill: rgb(29, 29, 27);"></path>
      <path class="cls-1"
        d="M295.53,408.43l-104.06-4.92v-11.1l104.06,1.34v14.68ZM194.8,400.33l97.4,4.6v-7.9l-97.4-1.25v4.55Z"
        style="fill: rgb(29, 29, 27);"></path>
      <path class="cls-1"
        d="M294.23,279.88l-99.28-2.25v-31.05l1.14-.38c.51-.17,51.92-16.91,97.14,2.66l1,.43v30.58ZM198.28,274.38l92.62,2.1v-24.98c-40.08-16.83-84.95-4.76-92.62-2.48v25.36Z"
        style="fill: rgb(29, 29, 27);"></path>
      <g>
        <path class="cls-1"
          d="M83.69,0h7.87l30.89,38.66L153.34,0h7.87v70.66h-6.46V10.09h-1.41l-30.89,38.66-30.89-38.66h-1.41v60.57h-6.46V0Z"
          style="fill: rgb(29, 29, 27);"></path>
        <path class="cls-1"
          d="M206.03,0h10.8l33.72,70.66h-7.07L212.6,6.36h-2.42l-30.79,64.3h-7.17L206.03,0ZM187.56,42.9h47.85v6.06h-47.85v-6.06Z"
          style="fill: rgb(29, 29, 27);"></path>
        <path class="cls-1"
          d="M261.55,0h20.19c9.08,0,16.86,1.41,23.32,4.24,6.46,2.83,11.36,6.88,14.69,12.16,3.33,5.28,5,11.59,5,18.93s-1.65,13.56-4.95,18.88c-3.3,5.32-8.09,9.39-14.38,12.21-6.29,2.83-13.88,4.24-22.76,4.24h-21.1V0ZM264.78,64.3h17.97c7.74,0,14.25-1.14,19.53-3.43,5.28-2.29,9.27-5.58,11.96-9.89,2.69-4.31,4.04-9.52,4.04-15.65,0-9.22-3.08-16.35-9.24-21.4-6.16-5.05-15.26-7.57-27.31-7.57h-16.96l3.23-3.33v64.61l-3.23-3.33Z"
          style="fill: rgb(29, 29, 27);"></path>
        <path class="cls-1"
          d="M340.59,0h50.37v6.36h-46.64l2.73-2.83v63.6l-2.73-2.83h47.65v6.36h-51.38V0ZM345.84,32h44.11v5.85h-44.11v-5.85Z"
          style="fill: rgb(29, 29, 27);"></path>
      </g>
      <g>
        <path class="cls-1"
          d="M147.44,65.32c.39.42.56,1.01.5,1.74-.09,1.19-.23,2.55-.82,3.71-1.26,2.48-2.42,4.69-3.97,6.69-2.43,3.15-4.97,6.06-7.55,8.65-3.23,3.25-6.65,6.42-9.96,9.49-.78.72-1.55,1.44-2.32,2.16-.84.78-1.79,1.2-2.74,1.2-1.08,0-2.06-.52-2.82-1.47-6.05,9.64-11.13,18.96-15.44,28.35,3.72-4.56,7.52-8.92,12-12.59,1.99-1.63,4.29-3.24,6.83-4.79,1.23-.74,2.73-1.32,4.61-1.75.62-.14,1.23-.22,1.82-.22,3.35,0,5.64,2.37,5.84,6.04.04.73.03,1.45.02,2.21,0,.03,0,.05,0,.08.25-.06.49-.11.73-.17,1.33-.31,2.58-.59,3.88-.83,1.35-.25,2.8-.43,4.55-.58.11-.01.22-.01.34-.01.42,0,.82.06,1.21.12.2.03.39.06.59.08.41.04.72.39.71.8v.49c-.02.39-.31.72-.7.77-.33.04-.67.08-1.01.12-.71.08-1.45.17-2.16.28-1.11.18-2.21.37-3.31.56-1.39.24-2.82.49-4.23.71-.85.13-1.3.54-1.71,1.57-2.92,7.17-8.18,12.77-15.64,16.64-2.88,1.5-5.52,2.22-8.06,2.22-.35,0-.7-.01-1.04-.04-1.18-.09-2.38-.38-3.45-.83-1.27-.53-2.17-1.45-2.52-2.59-.25-.81-.21-1.69.1-2.54-.35.54-.7,1.08-1.05,1.63-.08.12-.15.24-.23.37-.32.52-.65,1.06-1.09,1.53-.36.38-1.06.68-1.56.68-.24,0-.45-.06-.62-.18-.53-.37-1.04-1.24-.93-2,.11-.8.4-1.55.67-2.27l.12-.33c3.51-9.37,8.09-18.46,14.02-27.8,5.72-9.02,11.94-18.53,19.42-27.03,2.29-2.6,4.81-5.08,7.49-7.37,1.26-1.08,2.74-1.89,4.17-2.67.53-.29,1.07-.59,1.59-.89.55-.32,1.17-.46,1.59-.52.19-.03.37-.04.54-.04.68,0,1.21.2,1.58.61h0ZM103.39,133.43c.15.34.64.49.93.55.88.18,2.02.39,3.13.39.5,0,.97-.04,1.39-.13,8.96-1.86,15.81-7.1,20.38-15.57-6.82,2.38-13.96,5.17-20.56,9.11-1.04.62-2.08,1.39-3.21,2.36-.67.58-1.27,1.28-1.76,2.05-.32.5-.43.96-.31,1.24ZM103.6,128.86c.37-.38.78-.74,1.24-1.04l.83-.55c2.22-1.49,4.52-3.03,7-4.15,5.43-2.46,11.07-4.69,16.36-6.74,1.27-.49,1.51-.99,1.49-1.73-.03-1.29-.05-2.74-.42-4.04-.4-1.44-1.68-1.74-2.68-1.74-1.76,0-3.36.7-4.7,1.38-3.36,1.71-6.5,4.11-9.9,7.57-3.33,3.4-6.42,7.1-9.23,11.05ZM145.7,67.24c-.13-.05-.26-.08-.4-.08-.36,0-.75.18-1.1.38l-.04.02c-1.48.82-3.02,1.66-4.27,2.73-4.47,3.83-8.74,8.44-13.05,14.11-1.9,2.5-3.74,5.13-5.52,7.67-.44.62-.88,1.25-1.31,1.87.4-.23.79-.46,1.14-.72,4.66-3.45,9.19-7.56,13.83-12.55,2.9-3.12,5.64-6.49,8.3-9.75l.55-.68c.59-.72,1.05-1.56,1.54-2.44.11-.19.21-.38.32-.57Z"
          style="fill: rgb(29, 29, 27);"></path>
        <path class="cls-1"
          d="M183.35,122.3c-.06.39-.39.63-.78.67-5.55.64-12.29,2.73-15.71,4.03-.5.19-.69.54-.99,1.2-.05.1-.09.2-.14.3-.68,1.4-1.37,2.83-2.02,4.22-1.44,3.04-2.93,6.18-4.57,9.19-2.62,4.81-5.64,9.41-9.05,13.69-3.1,3.9-6.55,8.02-11.06,10.32-3.17,1.62-7.64,1.45-7.85-2.99-.07-1.47.07-2.89.4-4.11,2.03-7.54,7.96-14.53,13.59-19.75,6.06-5.62,12.15-9.9,18.6-13.08.63-.31.96-.65,1.19-1.21,1.23-3.11,2.49-6.43,3.03-9.94l.05-.28c.1-.62.19-1.15.02-1.68,0,0-.02.01-.03.02-.5.31-.97.61-1.35.96-1.53,1.44-3.06,2.91-4.55,4.34-1.81,1.74-3.68,3.54-5.55,5.28-2.73,2.54-4.88,4.43-6.98,6.11-1.84,1.47-3.87,2.4-6.02,2.76-.47.08-.92.12-1.36.12-3.2,0-5.16-2.08-5.23-5.56-.05-2.19.46-4.41,1.58-6.98,1.49-3.41,3.64-6.68,6.6-10.01.98-1.11,2.14-1.69,3.34-1.69.63,0,1.24.16,1.84.48.58.31,1.28,1.01,1.43,1.81.17.93-.93,1.78-1.15,1.94-4.48,3.23-7.35,7.59-8.54,12.97-.2.9-.07,1.89.07,2.56.13.61.43.61.59.61.11,0,.23-.02.36-.05.95-.25,2.03-.57,2.82-1.12,2.54-1.79,4.71-3.45,6.62-5.09,1.45-1.24,2.88-2.58,4.26-3.87,1.06-.99,2.16-2.02,3.27-3.01,1.16-1.03,2.41-1.97,3.62-2.89l.59-.44c.66-.5,1.32-.91,1.98-1.21.1-.05.21-.1.31-.16.45-.23.97-.5,1.57-.5.49,0,.94.18,1.33.53.9.8,1.22,2.01.87,3.32-.88,3.34-1.79,6.69-2.65,9.84-.04.13-.08.27-.12.4,7.87-2.84,14-3.3,15.26-2.91.37.12.61.49.55.87ZM163.22,128.67c-.44.22-.82.43-1.17.67-.9.62-1.79,1.23-2.69,1.85-3.35,2.3-6.82,4.68-10.1,7.17-4.48,3.41-8.54,7.72-11.6,12.45-2.1,3.24-4.54,7.23-4.44,11.22.06,2.3,1.28,2.3,1.69,2.3.3,0,.64-.05,1.01-.16,1.26-.35,2.6-1,3.99-1.91,2.79-1.83,5.03-4.38,6.86-6.64,7.38-9.08,12.72-17.8,16.33-26.65l.13-.31Z"
          style="fill: rgb(29, 29, 27);"></path>
        <path class="cls-1"
          d="M264.92,111.4c-.02.07-.03.15-.04.22-.04.23-.08.51-.21.78l-.5,1.05c-2.2,4.58-4.28,8.52-7.77,12.48l-.03.04c-1.12,1.28-2.29,2.6-3.65,3.68-1.12.89-2.49,1.62-3.85,2.05-.67.21-1.34.32-1.98.32-2.21,0-4.04-1.25-5.13-3.53-1.18-2.47-1.56-5.24-1.16-8.49.19-1.54.39-3.08.59-4.62.1-.79.21-1.58.31-2.38.01-.09.01-.17.01-.26v-.05c.03-1.21-.21-1.65-.36-1.79-.07-.07-.19-.16-.47-.16-.33,0-.78.12-1.32.35-1.48.64-2.91,1.47-4.26,2.45-5.33,3.88-10.33,8.9-15.75,15.8-.29.36-.57.73-.85,1.1-.28.36-.55.72-.83,1.08-.55.7-1.17,1.05-1.84,1.05-.36,0-.72-.1-1.06-.31-1.22-.74-.84-2.05-.65-2.68.14-.49.35-.94.55-1.38.05-.12.1-.23.16-.35,2.24-5.09,5.28-9.72,8.23-14.2.91-1.39,1.84-2.89,2.75-4.47.58-1.01,1.48-1.52,2.68-1.52.05,0,.1,0,.15,0,1.49.05,2.52.6,3.15,1.67.71,1.21-.12,2.1-.56,2.58l-.06.06c-.41.44-.82.88-1.23,1.31-1.09,1.15-2.22,2.34-3.21,3.58,0,0,0,.01-.01.02,3.13-3.11,5.92-5.38,8.76-7.12,1.32-.81,2.64-1.4,3.92-1.77.51-.14.98-.22,1.42-.22.83,0,1.54.27,2.04.79.6.62.88,1.54.83,2.74-.07,1.79-.29,3.58-.5,5.32-.08.65-.16,1.3-.23,1.95l-.02.19c-.26,2.4-.51,4.66.21,6.87.29.87.65,1.62,1.08,2.25.85,1.21,1.76,1.77,2.87,1.77.55,0,1.17-.14,1.84-.42,2.47-1.03,4.31-2.91,5.94-4.78,2.74-3.17,4.49-6.06,6.58-10.21l.06-.11c.57-1.14,1.17-2.32,2.04-3.42.15-.19.38-.3.62-.3.12,0,.23.03.34.08.33.16.51.52.43.88Z"
          style="fill: rgb(29, 29, 27);"></path>
        <path class="cls-1"
          d="M301.51,110.44c.27.18.39.51.32.83-.03.12-.05.25-.08.38-.06.31-.12.63-.24.96-1.88,5.24-4.14,8.52-8.73,13.91-1.77,2.08-3.77,4.19-6.41,5.58-1.25.65-2.9,1.41-4.56,1.46-.07,0-.14,0-.21,0-3.44,0-5.76-2.38-6.06-6.2-.22-2.8.2-5.68,1.3-8.79,0-.03.02-.06.03-.09-2.66,3.23-5.35,6.34-8.58,9-1.72,1.42-3.25,2.48-5.15,3.02-.59.17-1.18.26-1.74.26-2.56,0-4.39-1.73-4.78-4.51-.27-1.91.02-3.86.87-5.8,2.31-5.27,6.03-9.3,11.06-11.99,2.04-1.09,4.19-1.65,6.37-1.65,1.67,0,3.39.33,5.1.97,1.25.47,2.66,1.18,3.56,2.8.13.24.13.53,0,.77-.1.19-.21.38-.32.58-.25.44-.5.89-.74,1.35-2.09,4.04-3.33,7.9-3.77,11.8-.18,1.62.02,3.09.61,4.38.53,1.17,1.3,1.76,2.28,1.76.33,0,.68-.07,1.06-.2,1.49-.51,2.85-1.21,3.96-2,3.79-2.71,7.06-6.54,10.29-12.06.86-1.47,1.59-3.07,2.3-4.62.33-.73-.08.21.27-.51.2-.41.47-.97,1.11-1.4.13-.09.29-.13.44-.13s.31.05.45.14h0ZM277.87,112.08c-.6-.59-1.28-.88-2.05-.88h-.63c-1.38.03-2.81.04-4.04.41-4.34,1.3-7.84,4.14-10.43,8.43-.84,1.4-1.28,2.89-1.29,4.44-.01,1.21.25,2.13.77,2.65.33.33.76.5,1.29.5h0c.55,0,1.19-.18,1.89-.52,1.15-.57,2.35-1.38,3.56-2.4,1.2-1.02,2.38-2.21,3.49-3.53,1.88-2.23,3.68-4.45,5.58-6.81.62-.76,1.24-1.53,1.87-2.3Z"
          style="fill: rgb(29, 29, 27);"></path>
        <path class="cls-1"
          d="M360.56,82.9c-.54.22-1.15.19-1.73.16-8.98-.54-17.98-1.18-26.96-1.41-2.42-.06-4.92-.13-7.38-.22-.06,0-.11,0-.16,0-.87,0-1.4.28-2.02,1.07-7.25,9.34-13.65,18.22-18.68,27.42-4.47,8.18-10.63,20.31-8.79,24.13.61,1.25.91.71,1.83.54.8-.15,1.84.51,2.25,1.22.39.69.05,1.69-.26,2.16-1.18,1.81-3.8,2.32-5.62,1.33-.65-.35-1.2-.92-1.49-1.62-.43-1.02-.29-2.27-.16-3.35.49-3.87,2.91-10.96,6.74-18.65,1.54-3.09,3.15-6.14,4.85-9.14,3.34-5.9,6.97-11.63,10.74-17.25,1.03-1.55,2.1-3.1,3.14-4.61.63-.92,1.26-1.83,1.88-2.75.12-.17.23-.34.34-.52-3.32-.15-6.81-.28-10.31-.28-5.91,0-10.89.36-15.58,1.13.17.53.33,1.09.35,1.68.21,6.69-10.4-.3-6.29-3.08,2.12-1.44,13.19-2.15,16.02-2.43,5.43-.52,10.88-.78,16.34-.67,0,0,.94.02.94.02.85,0,1.36-.28,1.86-1.04.5-.75,1.03-1.48,1.55-2.19.54-.74,1.09-1.5,1.59-2.26.33-.5.57-1.12.63-1.66.16-1.28.95-2.09,2.13-2.15.1,0,.19,0,.29,0,.78,0,1.55.17,2.17.48.67.34,1.41,1.21,1.45,2.04.04.87-.77,1.71-1.33,2.07-1.69,1.08-2.96,2.57-4.31,4.15-.16.18-.32.37-.47.56h.06c.24,0,.48,0,.72,0,1.83.05,3.67.1,5.5.15,8.84.23,17.66.54,26.49.95.64.03,1.3.07,1.86.38.18.1.34.24.47.4.75.96.55,2.75-.63,3.24Z"
          style="fill: rgb(29, 29, 27);"></path>
        <path class="cls-1"
          d="M364.42,110.65c.29.25.36.67.16,1-.07.12-.13.23-.2.35-.16.27-.32.56-.51.83-4.52,6.42-8.84,10.6-15.52,15.6-1.69,1.27-3.98,2.8-6.72,3.43-.61.14-1.21.21-1.79.21-3.11,0-5.46-2.04-6.15-5.32-.39-1.89-.29-3.73.31-5.46.45-1.29.97-2.57,1.49-3.81-3.23,3.27-6.71,6.61-10.59,9.41-2.13,1.53-4.49,3.02-7.34,3.51-.5.08-.99.13-1.46.13-3.72,0-6.32-2.62-6.47-6.52-.07-1.91.3-3.83,1.13-5.88,1.28-3.14,3.23-5.99,5.81-8.47,1-.96,2.07-1.44,3.2-1.44.45,0,.91.08,1.37.24.66.23,1.52.83,1.86,1.63.53,1.24-.54,1.97-1.06,2.31l-.18.12c-3.87,2.71-6.2,6.05-7.1,10.22-.17.76-.21,1.56-.11,2.26.12.92.55,2.01,1.91,2.01.23,0,.48-.03.73-.09,1.59-.37,2.91-.89,3.91-1.53,2.4-1.54,4.42-3.05,6.18-4.62,2.02-1.8,4-3.72,5.92-5.57,1.09-1.05,2.21-2.14,3.33-3.2.82-.77,1.65-1.48,2.53-2.24.4-.34.8-.69,1.21-1.05.15-.13.33-.19.52-.19.04,0,.07,0,.11,0,.23.03.43.16.55.35.81,1.24.24,2.18-.06,2.68-.05.08-.1.16-.14.25-.38.72-.76,1.44-1.15,2.15-.66,1.22-1.34,2.47-1.94,3.73-.53,1.09-.99,2.35-1.38,3.73-.27.94-.41,1.94-.43,2.88-.03,1.86.39,3.28,1.2,4.11.59.6,1.4.9,2.42.9.77,0,1.64-.17,2.6-.51,1.4-.49,2.84-1.23,4.17-2.12,6.01-4.04,10.01-7.83,15.5-15.4.16-.22.34-.42.51-.61.07-.08.14-.16.21-.24.14-.16.33-.26.54-.27.02,0,.04,0,.06,0,.19,0,.37.07.52.19l.34.29h0Z"
          style="fill: rgb(29, 29, 27);"></path>
        <path class="cls-1"
          d="M394.97,114.32s-6.12,4.09-12.16,5.32c-5.94,1.21-3.59-5.78-3.52-5.99.02-.07.03-.14.05-.22.16-.8.32-1.63.24-2.47-.02-.22-.15-.28-.36-.27,0,0,0,0,0,0-2.07.1-3.91.85-5.62,1.87-1.66.99-3.22,2.04-4.58,3.4-2.22,2.22-4.15,4.73-6.06,7.21-.36.47-.71.99-1.04,1.56-.24.41-.48.83-.76,1.23-1.5,2.11-3.48,4.89-5.55,7.67-.48.64-1.13,1.14-1.8,1.38-.17.06-.36.09-.57.09-.53,0-1.26-.2-1.71-.65-.59-.59-.59-1.64-.46-2.16.17-.64.56-1.17.91-1.64l.06-.08c.23-.3.45-.61.67-.92.77-1.06,1.58-2.17,2.47-3.18,2.73-3.13,4.56-6.84,6.13-10.39l.15-.34c.75-1.67,1.45-3.25,1.02-5.08-.14-.6-.21-1.52.35-2.24.89-1.13,1.77-1.08,2.57-1.08.75,0,1.57.25,2.31.72,1.47.92,1.18,3.38.58,4.67-.05.11-.1.22-.15.33.57-.47,1.17-.94,1.78-1.37,1.82-1.27,3.73-2.47,5.67-3.57.82-.47,1.86-.8,2.99-.97.23-.03.46-.05.68-.05,1.1,0,2.11.41,2.83,1.15.75.76,1.13,1.83,1.09,2.99-.03.82-.15,1.62-.29,2.4h0c-.06.32-.12.64-.19.96h-.05c-.11.77-.06,1.79.77,2.47,1,.82,10.09-2.45,11.19-3.08,1.1-.63.38.34.38.34Z"
          style="fill: rgb(29, 29, 27);"></path>
        <path class="cls-1"
          d="M422.18,111.44l-.6.72c-.42.51-.85,1.03-1.26,1.55-4.88,6.08-8.98,9.98-14.83,14.3-2.6,1.92-5.77,3.97-9.62,4.62-.54.09-1.13.14-1.74.14-.5,0-1.04-.03-1.59-.09-1.62-.18-2.68-1.21-3.55-2.16-2.89-3.17-2.48-6.65-1.6-9.93.11-.43.22-.85.33-1.28.16-.63.33-1.27.5-1.9.1-.35.28-.7.53-.98.34-.39.69-.78,1.04-1.17.42-.47.86-.95,1.27-1.44,2.29-2.71,4.76-4.51,7.56-5.49,1.16-.41,2.16-.6,3.07-.6.09,0,.18,0,.28,0,1.65.08,3.05.93,3.74,2.28.68,1.34.56,2.95-.33,4.31-.61.93-1.51,1.83-2.68,2.68-2.69,1.95-5.92,3.1-9.88,3.54-.16.02-.33.03-.5.03-.47,0-.95-.07-1.41-.13-.1-.01-.2-.03-.3-.04-1.13,2.72-1.17,5.17-.12,7.47.76,1.67,1.85,2.42,3.53,2.42.28,0,.58-.02.89-.06,2.35-.32,4.41-1.33,6.13-2.27,4.52-2.5,8.34-6.02,11.47-9.12,2.08-2.06,2.78-2.88,4.74-4.99.93-1.01,1.87-2.02,2.82-3.02.29-.31.72-.66,1.51-.67h0c.3,0,.58.17.71.45.13.28.09.6-.1.84ZM393.88,115.28c2.66-.54,5.37-2.09,6.66-3.59-2.41.29-4.5,1.42-6.66,3.59Z"
          style="fill: rgb(29, 29, 27);"></path>
      </g>
      <path class="cls-1"
        d="M450.42,397.81l-379.63-4.33L0,331.66l72.56-60.02h.92s376.93,4.33,376.93,4.33v121.84ZM72.7,388.45l372.67,4.25v-111.75l-371.01-4.26L7.79,331.76l64.91,56.69Z"
        style="fill: rgb(29, 29, 27);"></path>
      <path class="cls-1"
        d="M417.03,525.78l-381.36-13,2.69-120.13,377.88,13,68.98,60.02-68.18,60.11ZM40.83,507.9l374.37,12.76,62.35-54.97-63.28-55.06-370.99-12.76-2.46,110.03Z"
        style="fill: rgb(29, 29, 27);"></path>
      <path class="cls-1"
        d="M446.95,649.44l-377.04-3.48L.92,584.14l70.77-60.02h.94s376.09,3.47,376.09,3.47l-18.8,61.77,17.04,60.07ZM71.86,640.94l368.39,3.4-15.6-55.01,17.27-56.74-368.4-3.39-64.92,55.06,63.26,56.69Z"
        style="fill: rgb(29, 29, 27);"></path>
      <path class="cls-1"
        d="M39.19,772.23l-1.79-120.98,2.53-.03,376.23-4.3,71.67,59.14-69.87,62.71-378.76,3.46ZM42.52,656.25l1.64,110.9,371.84-3.4,64.09-57.52-65.72-54.23-371.85,4.25Z"
        style="fill: rgb(29, 29, 27);"></path>
    </g>
  </g>
</svg>