<?xml version="1.0" encoding="UTF-8"?>
<svg id="_0" data-name="0" xmlns="http://www.w3.org/2000/svg" viewBox="0 0 134.79 262.76">
  <g>
    <path d="M57.31,94.72s-.09.07-.14.11c.05-.03.09-.06.14-.09,0,0,0-.01,0-.02Z" fill="#12100b"/>
    <path d="M84.94,75c.05.06.1.12.16.18" fill="#12100b"/>
    <path d="M113.77,119.38s-.07,0-.11.02c.02,0,.05,0,.07,0,.01,0,.02,0,.03-.01Z" fill="#12100b"/>
    <path d="M119.43,135.08c1.14-.27,2.08-1,3.22-1.32,1.13-.31,1.49-1.27,1.27-2.43-.35-1.81-1.53-2.72-3.36-2.56-.39.03-.77.11-1.15.16-1.16-.08-2,.75-3,1.11-.47.17-.91.58-1.39.28-.62-.38.04-.91-.04-1.37,1.32-1.05,2.15-2.45,2.8-3.97.84-1.49,1.61-3.03,2.03-4.68.31-1.23,1.27-2.16,1.38-3.45.06-.64.18-1.3-.46-1.7-.62-.38-1.31-.29-1.89.1-.49.33-1.02.55-1.55.79-.98.45-1.9,1.02-2.84,1.53-1.51.4-2.91,1.1-4.37,1.62-1.84.66-3.65,1.41-5.54,1.92-.64-.11-1.2.09-1.78.34-1.19.51-1.54.25-1.45-1.01h0c1.03-1.23,1.74-2.73,3.03-3.75.88-.27,1.54-1.03,2.51-1.13,1.06-.11,1.68-.82,2.03-1.72.45-1.14.77-2.33,1.14-3.5,0,0,0,0,0,0,0,0,0,0,0,0h0c.8-2.63,1.64-5.25,2.69-7.8.22-.54.06-.99-.36-1.36-.4-.35-.83-.62-1.36-.29-.58.36-1.22.5-1.89.49-1.61,1.12-3.61.88-5.35,1.57,0,0,0,0,0,0h0s0,0,0,0h0c-.45.52-1.08.24-1.62.33-.69.12-1.4.16-2.08.31-.47.1-.89.59-1.4.13-.54-.49-.27-1.07-.14-1.63,0,0,0,0,0,0,0,0,0,0,0,0,.13-.1.26-.21.39-.31h0c.27-.68.68-1.29,1.06-1.92.87-1.4,2.32-2.29,3.21-3.66,0,0,0,0,0,0h0c1.1-1.06,1.64-2.55,2.82-3.55h0s0,0,0,0c1.53-1.03,1.58-1.28.43-2.64-.6-.71-1.24-1.38-1.86-2.06h0c-.29-.56-.85-.78-1.36-.67-1.97.43-3.96.12-5.93.27-.73.06-1.59-.14-2.15.6-1.27,1.01-1.7,2.66-2.84,3.76.06,1.25-.64,1.69-1.78,1.64,0,0,0,0,0,0-.56-.69-1.67.16-2.16-.75,0,0,0,0,0,0,.02-1,.04-1.89-.74-2.8-.63-.73-.06-1.69.71-2.3h0c.38-1.15,1.7-1.35,2.31-2.31.17-.27.62,0,.72.33.44,1.43.67.64,1.1-.03.6-.93,1.22-1.89,2.24-2.46.46-.7.33-1.32-.25-1.89h0c-.92-.15-1.54-.75-2.13-1.4-.93-.26-1.81-.64-2.62-1.15-.73,0-1.47-.22-2.19.02-.16.05-.42.1-.37.35.02.12.18.24.3.32.59.35,1.24.43,1.9.4.87-.04,1.57.26,2.03,1.02.16.31.48.16.72.24.64-.04.91.4,1.04.89.14.5-.25.85-.62,1.02-.86.41-1.58,1.1-2.54,1.33-.72.68-1.57,1.23-2.14,2.07h0s-.04.05-.05.07c-.01,0-.02-.02-.03-.02-.56.26-.87.77-1.25,1.22-.49.56-1.06.62-1.45-.05-1.28-2.23-3.31-3.62-5.42-4.92,0,0,0,0,0,0h0c-.6-.05-.96-.38-.93-.97.02-.56.48-.83.97-.84,1-.03,1.78-.79,2.78-.77.87-.55,1.94-.44,2.96-.95-1.04-.82-1.17-1.68-.12-2.55.19-.16.19-.41.11-.65-.42-1.21-1.68-2.05-2.97-1.99h0c-.59.89.42.83.71,1.2h0c.69.03,1.06.43.81,1.06-.29.74-1.02.76-1.69.65-.54-.09-1.02-.33-.53-1.01.03-.19,0-.4.2-.51,0-.46-.34-.55-.68-.66h0c-.41.29-.94.32-1.33.69-1.44,1.37-2.39,2.96-2.44,5-.01.52-.17,1-.4,1.46-.13.26-.31.47-.63.42-.35-.05-.58-.28-.58-.63-.01-2.39-.9-4.8.2-7.16,0,0,0,0,0,0h0c0-.16,0-.32-.01-.47.54-.37,1.05-.83.87-1.52-.19-.71-.93-.62-1.49-.71-.75-.12-1.52-.17-2.3.19.42.14.85.24,1.24.42.84.4,1.01,1.02.48,1.59-.27.17-.46.39-.44.74-.48,2.05-3.34,3.23-5.19,2.13-1.37-.28-2.13-1.39-2.99-2.31-.55-.58-.16-1.27.68-1.33.62-.05,1.24-.09,1.86-.13.42-.42,1.57-.07,1.41-.86-.12-.61-1.1-.16-1.68-.26-.15-.03-.3-.06-.45-.08.15-.03.31-.06.46-.1-.15.01-.31.04-.46.1-1.3.07-2.51.52-3.74.87-.42.12-.92.34-.9.81.11,2.06-.64,4.11-.04,6.15.31,1.05.14,1.74-.97,2.05-.19.03-.4.02-.56.09-1.57.71-1.77.65-2.26-1.09-.34-1.21-.8-2.39-1.47-3.43-.77-1.2-1.54-2.5-3.23-2.62-.16-.09-.33-.11-.5-.11-1.75-.36-3.48-.02-5.2.34-.27.2-.57.29-.9.29-1.08.02-2.1.29-3.11.65-.07,0-.13.01-.2.04-.77.06-1.51.2-2.16.66-.42.4-.87.78-1.26,1.2-.89.97-.89,1.42.03,2.4,1.07,1.14,2.16,2.28,3.26,3.39,1.91,1.92,3.84,3.79,4.67,6.51.68,2.24,1.54,4.41,2.21,6.65.34,1.15.45,2.38.61,3.59.09.7-.24,1.25-.93,1.45-.74.22-1.06-.3-1.28-.89-.23-.62-.44-1.26-.67-1.88-.69-1.87-1.49-3.7-2.51-5.41-1.84-3.08-4.37-5.62-6.73-8.28-.69-.78-1.58-1.5-2.62-1.66-2.23-.35-4.2.66-6.19,1.46-.62.25-.94.9-.34,1.41,1.73,1.48,2.3,3.72,3.71,5.4.44.53.37.96-.34,1.27-1.42.64-2.82,1.33-4.09,2.25-.47.37-1.07.56-1.4,1.11-.57.63-1.78.86-1.49,2.02.01.09.03.18.08.27.16.2.11.54.41.65.42.48.83.95,1.25,1.43.61,1.09,1.4,2.06,2.1,3.09,1.37,2.03,2.34,4.28,3.24,6.55.32.96.63,1.93.95,2.89.3.88.09,1.3-.9,1.58-1.94.54-3.8,1.38-5.53,2.42-1.5.91-3.01.85-4.2-.44-.53-.57-.79-1.35-1.47-1.8-1.59-1.09-3.35-1.71-5.26-1.96-.66-.09-1.23.03-1.69.54-.83.32-1.31,1.05-1.93,1.62-.97.88-.94,1.38-.01,2.36.24.25.5.5.77.72,2.57,2.07,4.36,4.75,6.09,7.51.83,1.33,1.14,2.9,2.13,4.16.61.78.11,1.5-.91,1.56-2.02.12-3.99-.04-5.86-.91-.37-.06-.75-.09-1.12-.19-1.51-.42-1.54-.41-1.93,1.11.01.16.02.31.04.47.45,1.02.9,2.02,1.25,3.09.67,2.09,1.65,4.02,3.3,5.58,1.76,1.67,3.41,3.45,5.11,5.18.2.1.39.21.59.31,0,0,0,0,0,0,.66,1.18.63,1.24-.62,1.36h0c-.56-.3-1.11-.25-1.67,0h0c-1.22.41-2.47.5-3.76.53-1.3.03-2.53-.26-3.77-.49-.08-.03-.17-.06-.25-.1h0c-.67-.3-1.42-.17-2.12-.44-.65-.26-.86.28-.92.86-.11,1.1.46,2.04.71,3.05.53,2.13,2.32,2.69,3.98,3.46,1.32.74,2.88.62,4.27,1.15.37.26.49.66.67,1.05.47,1.03.96,2.07,1.67,2.97.38.41.35,1.11.95,1.37,1.53,1.14,2.95,2.43,4.63,3.38.42.41.9.77,1.25,1.23.96,1.25.24,3.3-1.3,3.37-2.57.11-5.26.81-7.64-.9-.34-.25-.8-.34-1.24-.25-.55.11-.89.46-.68,1.01,1.05,2.83,2.45,5.36,5.71,6.17.72.18,1.46.35,1.89,1.06,1.23.63,1.58,2.07,2.64,2.85,0,0,0,0,0,0,.56.04.76.68,1.28.79,1.41,1.04,3.09,1.2,4.75,1.41.16.24.39.38.67.45.73.9,1.68,1.52,2.63,2.14.11.18.27.23.47.2,1.8.96,3.78.92,5.73.92.95,0,1.87.06,2.72.5.32.26.64.52.95.78.87,1.21,2.2,1.72,3.49,2.29,1.07.68,2.23.59,3.41.39,3.01-.52,6.41,2.36,6.4,5.42,0,.31,0,.61-.16.91-.67,1.33-1.48,2.57-2.38,3.75-1.26,1.64-.9,2.61,1.12,3.03,3.04.63,5.76-.54,8.53-1.47h0c.2-.11.4-.21.59-.33,2.17-1.45,4.09-3.03,4.69-5.82.4-1.85.79-3.74,1.66-5.46.47-.93.89-2.12,2.11-2.1,1.32.02,2.7-.15,3.97.14,2.27.52,4.16-.5,6.16-1.1h0s0,0,0,0c.56.11.89-.39,1.37-.52,1.93-.53,3.99-.22,5.88-1.18.22-.11.43-.21.65-.32.08-.04.17-.08.25-.12.84-.4,1.64-.82,2.26-1.58,0,0,0,0,0,0,.51-.35.96-.76,1.38-1.22.75-.82,1.54-1.63,2.42-2.32,1.54-1.2,3.4-1.81,5.16-2.6.35.05.59-.18.84-.36,2.5-1.75,5.16-3.23,7.91-4.55,1.76-.84,2.98-2.26,4.29-3.59.38-.39.63-.98,0-1.27-.74-.34-1.34-.97-2.18-1.1h0c-.37-.31-.83-.13-1.24-.21-1.64-.34-3.39.18-4.95-.69-.58-.32-1-.68-.42-1.36.29-.33.34-.7.13-1.08-.25-.45-.7-.44-1.14-.43-.61.02-1.08.45-1.64.6-.58.15-1.23.31-1.61-.28-.47-.74.38-.84.7-1.2.05-.05.05-.15.08-.22.67.05,1.14-.37,1.68-.66,1.28-.7,2.39-1.73,3.89-1.98,0,0,0,0,0,0,.46-.42,1.57-.1,1.51-.9-.04-.57-.99-.29-1.51-.46-.29-.1-.6-.17-.67-.54h0c-.44-.09-.54-.52-.76-.82-.4-.54-.5-1.18.05-1.66.54-.47,1.13-.39,1.61.17.62.55,1.24,1.11,1.86,1.66.54.88.92,1.97,2.34,1.66.41-.09.77-.4,1.22-.29,0,0,0,0,0,0,0,0,0,0,0,0,1.53-.88,2.46-2.4,3.76-3.54.01-.45.48-.59.63-.94.18-.42.24-.84-.14-1.18-.31-.28-.72-.36-1.09-.2-.48.2-.15.6-.13.91.02.39.08.8-.46.91-.78.82-1.53,1.67-2.34,2.46-.8.79-1.71.84-2.47-.02-1.52-1.73-3.33-3.07-5.27-4.27-.49-.15-1.17-.15-1.06-.91.1-.67.64-.92,1.28-.94.39-.02.77-.07,1.16-.1.66-.05,1.16-.19.8-1.06-.21-.52.06-.89.62-1.01h0c1.81-1.55,3.66-3.05,5.23-4.86.67-.45,1.16-1.09,1.67-1.7.14.01.21-.06.21-.2.44-.14.5-.5.37-.84-.18-.46-.63-.56-1.07-.55-.77,0-1.55.06-2.32.06-.4,0-.81-.07-.92-.54-.09-.38.16-.65.42-.9.71-.66,1.4-1.32,2.11-1.99ZM120.41,129.92c.45.1.92.15,1.35.31.66.25.71.85.74,1.46.03.56-.23.85-.73,1.05-.62.24-1.2.57-1.82.8-.77.28-1.53.29-2.15-.38-.01,0-.02,0-.03,0,0,0,.01,0,.02-.01-.12-.31-.46-.36-.67-.56-.74-.69-.61-1.09.26-1.63.93-.57,1.94-.76,2.96-1,0,0,0-.01,0-.02.02,0,.04,0,.06,0ZM78.46,182.08c-2.1,1.08-4.32,1.23-6.6.78-.69-.14-1.67-.07-1.84-.97-.18-.91.88-1.06,1.35-1.58.78-.15,1.26-.78,1.87-1.19.67-.14.92-.8,1.43-1.14h0c.34.02.7-.03.95.32.63.87,1.02.49,1.42-.23.32-.57.81-.95,1.55-.78.37.08.69-.01.97-.28.26-.25.56-.31.84-.05.62.56,1.12.34,1.62-.18.28-.29.64-.3.97-.12.36.2.59.51.52.96-.05.27-.1.53-.15.8-1.06,1.6-2.36,2.91-4.23,3.54,0,0,0,0,0,0h0c-.25-.08-.46.02-.67.13ZM45.91,180.06h0c-.87-.43-1.6-.94-1.39-2.09,0,0,0,0,0,0,.25-.39.56-.73.98-.95.7-.1,1.31.03,1.77.64.11.15.29.27.47.33.33.12.74.22.94-.17.18-.36-.19-.53-.43-.72-.15-.12-.29-.24-.44-.36h0c-.88-.04-1-.64-.86-1.3.23-1.12,1.33-2.07,2.15-1.71.98.43,2.23.07,3,1.08.08.11.2.14.33.14.01,0,.02,0,.03,0,.14-.01.28-.07.4-.14.2-.12.35-.32.54-.44.5-.29,1.07-1.1,1.57-.48.32.4-.27,1.1-.84,1.43h0c-.39.55-.79,1.09-1.39,1.44-.42.63-.86.99-1.62.4-.61-.48-1.06-.08-1.33.44-.33.61.27.63.6.87.76.55,1.37.78,2.1-.1.37-.44,1.02-.47,1.42.11.42.61.79.53,1.21.05.1-.12.21-.24.34-.33.45-.3,1-.52,1.35.01.34.52.05.95-.56,1.12-.57,1.41-1.59,2.08-3.14,2.18-1.25.08-2.5.17-3.76.11-1.35-.06-2.5-.61-3.45-1.56,0,0,0,0,0,0ZM34.49,176.52s-.02.07-.03.1c-.02-.04-.04-.08-.05-.13,0,0,0,0,0,0,0,0,0,0,0,0,0,0,0,0,0,0,0,0,0,0,0,0,0,0,0,0,0,0-.08-.13-.14-.25-.19-.38-.02-.05-.03-.09-.05-.14,0-.03-.02-.07-.03-.1-.09-.52.23-.89.87-1.2.59-.29,1.18-.34,1.81-.34.76,0,1.54.3,2.27-.12.27-.04.54-.05.8-.13,1.54-.45,3.09-.83,4.72-.61.55.07,1.11.21,1.3.82.18.59-.14,1.03-.55,1.44-.61.62-1.34,1.03-2.07,1.47h0s0,0,0,0h0s-.04.04-.06.06c0-.02,0-.03,0-.04-3.04,1.27-5.91.52-8.75-.7ZM38.65,156.71s-.02,0-.03,0c.01,0,.02,0,.03,0,0,0,0,0,0,0ZM22.44,124.65c-.59.33-.81-.42-1.21-.68,0,0,0,0,0,0,0,0,0,0,0,0,0,0,0,0,0,0,.07-.34.1-.7.22-1.02.12-.31.41-.47.76-.41.32.06.46.3.47.59,0,.52.32,1.2-.25,1.52ZM73.25,99.56c.81-.17,1.44.16,1.87.86,0,0,.01,0,.01,0h0c.17-.01.34-.02.5-.03,1.77,1.02,3.23,2.24,2.94,4.58-.02.19-.02.39,0,.59.06.41.03.98.6.98.54,0,.56-.53.63-.97.06-.4-.25-1.14.49-1.07.65.06,1.3.47,1.18,1.33-.13.94.11,1.53,1.16,1.6.57.04.7.44.55.93-.1.34-.28.65-.35.99-.07.3-.08.66.23.85.36.21.58-.09.79-.32.26-.29.49-.61.75-.9.26-.3.32-.98.85-.78.5.19.16.76.15,1.16h0c-.3.49.04,1.14-.38,1.61,0,0,0,0,0,0-.92.45-1.96-.27-2.87.29-1.83.01-3.66.05-5.49.27-.91.11-1.7-.1-2.2-.95h0c.18-.95.08-1.89,0-2.84-.17-.71-.35-1.41-.52-2.12,0,0,0,0,0,0h0c0-.16.02-.31.03-.47-.34-.6.11-1.38-.45-1.92.08-.74-.44-1.25-.72-1.85h0c-.29-.15-.18-.45-.26-.68.03-.44-.14-1.01.51-1.14ZM93.53,107.77h0s0-.08-.01-.11c.04,0,.08-.02.12-.03.26-.5.56-1.07,1.21-.84.67.24.27.87.25,1.35,0,.02,0,.03.01.05,0,0,0,0,0,0,0,.01,0,.02,0,.03-.04.02-.07.02-.1.03-.25.26-.33.75-.86.64-.58-.13-.55-.61-.61-1.03-.02-.02-.03-.04-.05-.06.02,0,.02-.02.04-.03h0ZM71.09,179.08s0,0,.01.01c0,0,0,0-.01,0,0,0,0,0,0,0h0s0,0,0,0c0,0-.02,0-.02,0h.02s0,0,0,0c-.51.04-.73.55-1.16.72-2.03.28-4.07.36-6.11.23h0c-.84-.17-1.67-.33-2.51-.51-1.08-.23-1.74-.98-2.27-1.87-.16-.27-.36-.61-.15-.87.63-.79,1.6-.39,2.4-.58.48-.11.87,0,1.13.56.42.91.69.89,1.4-.01.15-.16.31-.31.46-.47.15-.36.47-.16.71-.21.57.61,1.13.82,1.86.18.43-.37.99-.39,1.48,0h0c.67.12,1.18-.07,1.67-.6,1-1.07,1.59-1.1,2.77-.25.33.24.65.21,1,.15.34-.06.73-.21.91.24.15.38-.03.71-.32.93-1.07.8-1.88,1.97-3.25,2.35ZM43.08,170.42c-.32-.16-.64-.33-.95-.49-.02,0-.03-.02-.05-.02,0,0,.01,0,.02-.01-.53-.73-1.34-1.25-1.67-2.14-.37-.99-.22-1.25.81-1.15,4.33.43,8.67.51,13.01.38,2.22-.06,4.55.04,6.61-1.17.33-.19.72-.19.95.15.27.4.18.84-.13,1.19-.61.68-1.25,1.34-1.87,2,0,0,0,0,.01.01-.02,0-.03.02-.05.03-1.88,1.41-3.69,2.86-6.06,3.48-1.4.37-2.7.34-4.04,0-.76-.19-1.51-.4-2.31-.41-1.55-.32-2.84-1.24-4.27-1.85ZM58.19,100.2h0s0,0,0,0c0,0,0,0,0,0ZM78.31,139.93c.11.04.21.1.32.14,0,0,0,0,0,0,0,0,0,0,0,0,.3.23.6.45.9.68.42.41.66,1.1,1.35,1.13.7.03,1.16.37,1.56.87.02.02.03.04.05.06.28.11.57.23.85.34.4.78,1.38.77,1.9,1.39.52.39,1.03.77,1.55,1.16h0c.29,1.2-.63,1.32-1.37,1.36-.72.04-1.42-.17-2.11.27-.28.18-.63-.02-.75-.35-.24-.68-.88-1.13-.93-1.96-.04-.65-.48-1.12-1.13-.33,0,0,0,0,0,0,0,.07-.03.12-.04.18-.04,0-.09,0-.13,0-.59.62-1.17.99-1.69-.24-.03-.06-.12-.16-.16-.15-1.77.31-1.16-.66-.89-1.56.16-.55-.41-.89-.69-1.29-.44-.63-.92-1.19-.26-1.96.73-.85,1.14.06,1.67.27ZM102.17,151.94h0s0,.06,0,.09c-.02,0-.03-.02-.05-.02-.5.7-.09,1.68-.71,2.34-.14.14-.28.29-.41.43,0,0,0,0,0,0-.74.44-1.44.88-.99,1.96.11.27-.02.61-.38.72-.1.15-.2.29-.3.44-1.44,1.38-3.29,2.15-4.91,3.27-.99.05-1.44-.34-1.13-1.36.33-.41.43-1.07,1.15-1.08h0c.31-.19.63-.38.94-.57.33.09.51-.17.7-.33.49-.43,1.61-.71,1.19-1.45-.44-.78-1.32-.14-1.96.2-.28.15-.58.35-.83.02-.23-.3-.06-.58.16-.84.29-.34.85-.71.29-1.15-.66-.52-.23-.92-.03-1.38.16-.24.31-.47.47-.71.46-.22.52-.52.14-.85-.34-.29-.32-.66-.36-1.03.15-.25.29-.5.44-.75h0c.41-.74.78-1.51,1.64-1.86,1.23-.72,2.72-.59,3.77.32,1.1.95,1.6,2.51,1.17,3.61ZM76.01,175.09s.04,0,.06.01h0s0,0,0,0c-.04.03-.08.07-.12.11.02-.04.04-.08.06-.12ZM85.68,175.32s0,0,0,0c0,0,0,0,0,0,0,0,0,0,0,0ZM74.51,173.97c-.3-.13-.69-.04-1.03-.05.16.02.3.07.44.13-.15-.02-.31-.05-.44-.13-.45-.16-.91-.32-1.36-.48-.04,0-.07-.01-.11-.02.02-.01.04-.03.07-.04-.22-.31-.81-.45-.56-.94.26-.51.83-.25,1.28-.27,3.08-.11,6.16-.31,9.17-1.03,0,0,0,0,0,0,.01,0,.03,0,.04,0h0c.59,0,.88-.54,1.37-.73,1.07-.2,1.84-.04,2.75.84.82.79,2.16,1.52,3.6.73.54-.3,1.24-.19,1.85-.05.34.08.67.29.66.72-.02.5-.4.53-.76.51-.63-.05-1.08.22-1.57.62-1.2.96-2.69,1.19-4.18,1.32-3.77-.02-7.58.48-11.2-1.11ZM45.62,156.66c.48-.25.62.44,1,.55.22.33.44.66.66.99.17.85-.5.57-.89.65-.31-.32-.62-.64-.92-.96,0-.04.02-.07.02-.11.02-.38-.34-.88.14-1.13ZM32.49,148.45c-.96-.12-1.61-.94-2.53-1.17-.32-.33-.95-.39-.9-1.06.05-.73.68-.59,1.09-.8.41-.2.79-.46,1.18-.69.19.02.36-.02.47-.19h0c.87-.14,1.57-.66,2.34-1.02.42-.2.78-.51,1.29-.51,5.21,0,10.35.49,15.36,1.97.56.16,1.15.34,1.31,1.03.17.71-.51.88-.82,1.29-.66.47-1.35.91-1.99,1.42-2.47,2-5.18,2.5-8.33,1.88-2.88-.56-5.56-1.79-8.48-2.15ZM87.59,113.19c1.06.46,2.22.7,3.22,1.32.44.27.86.58.8,1.19-.06.57-.42.95-.93,1.09-1.45.39-2.66,1.29-4.06,1.78-.9.39-1.92.44-2.78.94,0,0,0,0,0,0h0c-3.44.71-6.9.71-10.37.25-1.77-.52-3.33-1.43-4.76-2.58-.66-.72-1.31-1.44-1.98-2.14-.31-.33-.57-.68-.39-1.15.17-.45.59-.45.98-.5.74-.08,1.48-.15,2.22-.26,6.02-.9,12.04-1.23,18.06.07,0,0,0,0,0,0ZM66.81,160.88c-.42-.07-.55-.38-.55-.77,0-.62.97-1.54,1.74-1.49.39.04.47.47.49.91.02.49-1.17,1.43-1.68,1.35ZM63.9,160.95c-.07-.02-.19-.05-.2-.09-.05-.73.33-1.32.7-1.89.26-.4.69-.49,1.12-.22.28.18.42.45.39.79-.05.28-1.75,1.46-2.02,1.4ZM65.47,147.33c-.71-.04-.86.97-1.6.86-.97-.56.12-.92.14-1.38.79-.76.56-1.89,1-2.77.46-.57.46-1.29.63-1.95.12-.47-.08-.86-.53-1.03-.5-.19-.81.15-1.02.53-.34.59-.28,1.27-.3,1.92,0,0,0,0,0,0-.25.2-.15.5-.19.76-.78.77-.86,1.8-.91,2.79-.03.69-.45,1.04-.85,1.44-.41.4-.59.05-.76-.27,0,0,0-.02,0-.03,0-.93.05-1.86.48-2.72.15-.3.18-.62-.15-.83-.26-.16-.45,0-.58.21-.29.48-.54.96-1.27.7-.83-.29-.65-.96-.69-1.56.04-.44-.11-.96.48-1.18,0-.15,0-.3.01-.45.83-.46,1.11-1.29,1.45-2.09.52-.57,1.04-1.14,1.56-1.71,1.72-.79,2.87-2.39,4.53-3.27.24-.21.49-.42.73-.63.38-.32.77-.64,1.15-.97.24-.21.5-.45.82-.24.31.21.17.55.14.86-.05.67-.6,1.08-.84,1.65-.24,1-1.02,1.79-1.07,2.86-.1.11-.34-.02-.37.2-.12.32-.23.65-.35.97h0s0,0,0,0c-.66,2.32-.96,4.72-1.38,7.09-.08.08-.16.15-.24.23ZM54.43,137.79c.09.34.29.65.37.98.11.48.35,1.13-.31,1.31-.68.19-.93-.39-1.01-.99-.04-.34.04-.71-.26-.98,0,0,0,0,0,0,0,0,0,0,0,0,0,0,0,0,0,0-.09-.49-.59-.6-.86-.92-.91-1.06-1.34,1.45-2.26.3-.07-.08-.31.05-.34.23-.03.23-.01.47,0,.7.05,1.17.1,2.35.18,3.52.05.73-.13,1.32-.95,1.3-.78-.02-.69-.72-.69-1.26,0-1.01.39-2.01,0-3.02,0,0,0,0,0,0-.01-.51-.02-1.03-.04-1.54-.01-.02-.02-.04-.03-.05,0,0,.02,0,.03,0-.04-1.5-.35-2.95-.68-4.4-.13-.55-.35-1.23.67-1.14,1.8,1.38,3.82,2.38,5.91,3.25.32.29.64.56.95.86.39.38.72.73-.18.88-.57.09-.62.54-.5,1ZM53.69,140.49s0,0,0,0c0,0,0,0,0,0,0,0,0,0,0,0ZM50.14,138.87c.02-.21.14-.34.44-.3-.21.1-.35.19-.44.3ZM46.36,126.32s0,0,0,.01c0,0-.01,0-.02,0,0,0,0-.01.01-.02ZM45.92,133.41s0,0,0,0c0,0,0,0,0,0h0s0,0,0,0c0,0,0,0,0,0ZM46.59,137.14s.01.03.02.05c-.02-.01-.04-.02-.06-.03.01,0,.02-.01.04-.02ZM58.64,144.04s0,0,0-.01c0,0,0,0,0,0,0,0,0,.01,0,.02ZM85.48,123.82c.03.61-1.29,2.52-1.81,2.68-.23.07-.47.1-.66-.07-.21-.18-.21-.43-.1-.65.46-.92,1.21-1.63,1.93-2.33.37-.36.61,0,.65.37ZM66.8,143.03s0,0,0,0c0,0,0-.01,0-.02,0,0,0,0,0,.01ZM74.93,121.96s-.06-.03-.08-.06c.03,0,.06,0,.09,0,0,.02,0,.04,0,.06ZM74.94,122.93c.14-.34.51-.48.88-.48.51,0,.62.39.67.8h0c-.31.48-.62.95-.93,1.43-.15.22-.28.46-.46.66-.15.18-.36.31-.62.18-.24-.13-.3-.38-.23-.6.21-.67.42-1.34.69-1.98ZM78.45,123.91c.63.02,1.06.26,1.05.95,0,.65-.68,1.12-1.52,1.1-.61.03-.99-.19-.94-.86.07-.85.57-1.22,1.4-1.19ZM74.42,122.32c-.12.64-.54,1.13-1.15,1.15-.75.03-.45-.66-.48-1.08-.03-.39.02-.78.04-1.17.36,0,.73-.02,1.09-.03.33.3.6.64.5,1.12ZM71.87,120.92c-.02-.06-.03-.11-.05-.16.05,0,.1.01.16,0-.04.05-.07.1-.11.15ZM65.07,127.53c1.56.35,3.05.95,4.58,1.44.29.1.57.22.86.3.37.1.78.14.87.62.09.46-.21.71-.52.95-.18.14-.36.28-.54.42-2.39,1.52-4.76,3.1-7.54,3.88-2.69.75-5.28,1-7.7-.88-.82-.63-1.83-1.08-2.81-1.42-1.3-.44-2.36-1.22-3.37-2.06-.92-.77-.8-1.7.3-2.19.92-.42,1.9-.75,2.89-.99,2.7-.63,5.36-1.52,8.18-1.47,1.72.03,3.17,1.03,4.82,1.4ZM46,123.1c-.43.8-.03,1.52.04,2.22-.01.5-.02,1.01-.61,1-.54,0-1.21-.13-1.17-.85.04-.93.21-1.85.42-2.76.1-.47.48-.91,1.01-.78.64.16.51.8.31,1.17ZM47.76,156.29c-.51-1.65-.7-3.27.47-4.75.4-.47.8-.95,1.19-1.42,0,0,0,0,0,0h0c2.56-.52,2.58-.5,1.89,2.04,0,.03,0,.08.01.11-.66,1.28-.87,2.72-1.36,4.07-.38,1.07.79,1.86,1.3,2.75.36.63.97,1.11,1.47,1.66,0,0,0,0,0,0h0c.54.24.82.71.51,1.18-.31.47-.73.19-1-.22-1.68-1.65-3.32-3.34-4.49-5.42ZM56.53,138.42c-.03-.25-.14-.58.22-.69.31-.1.51.13.66.35.41.61.37,1.43.96,1.95-.13.33.08.87-.48.93-.43.05-.57-.33-.71-.65-.04-.09-.16-.15-.24-.23-.07-.18-.14-.35-.2-.53-.07-.38-.16-.75-.21-1.13ZM61.27,150.66c.68-.36,1.34-.73,2.06-.99h0c1.03.32,1.58-.66,2.4-.89.22-.03.44-.05.67-.08,1.6-.5,3.24-1.2,4.91-.72,1.69.49,3.39.89,5.12,1.22,2.92.56,5.76,1.57,8.78,1.56.46,0,.86.12,1.05.59.2.49-.04.82-.41,1.11-2.02,1.23-4.06,2.45-6.06,3.71-.6.38-1.41.38-1.85,1.04-.87.38-1.74.75-2.62,1.13,0,0,0,0,0,0-.39-.05-.68.15-.92.4-.78.8-1.68.62-2.61.38-.41-.11-.69-.53-1.15-.49-.25-.08-.5-.16-.74-.24-2.09-1.28-4.64-1.02-6.82-2.04-.71-.33-1.43-.62-2.09-1.05-2-1.31-1.85-3.51.28-4.64ZM59.48,174.78c-.47-.09-.91-.24-1.28-.55-.41-.33-1.08-.56-.87-1.24.2-.66.83-.99,1.47-.98,1.39,0,2.7-.4,4.06-.58.33-.04.69-.04.97-.27,0,0,.02,0,.03-.02,2.13-1.13,3.78-.54,5.09,1.37.1.14.32.2.48.29,0,0,.01.01.02.02.23.31.81.43.58.99-.2.47-.6.72-1.09.79-3.14.49-6.28.77-9.44.16ZM66.69,95.14s0-.06.01-.09c.07.03.13.05.21.08-.08,0-.15,0-.22.01ZM46.62,116.48s0-.02,0-.02c.02.01.03.02.04.03-.01,0-.02,0-.04,0ZM28.92,142.32s.02,0,.03,0c0,.02,0,.03,0,.05,0-.02-.02-.03-.03-.05ZM27.77,142.12s0,0,0,.01c0,0,0,0,0,0,0,0,0,0,0,0ZM26.18,151.65c.53.04,1.08.13,1.07.79,0,.63-.51.81-1.07.82-.52.01-.94-.12-.99-.73-.05-.7.45-.82.99-.88ZM41.18,153.93c-.97.12-1.42-.67-1.6-1.35-.23-.89.57-.78,1.15-.76.03.07.04.13.02.2,0,0,0,0,0,0,.62.49,1.57.27,2.09.96.33.56.87.5,1.4.44.74-1.14,1.13.08,1.68.25.42.55.14,1.09-.03,1.62-.54-.15-1.08-.31-1.62-.46h0c-.54.17-1.08.96-1.64.01-.07,0-.15,0-.22,0,0,0,0,0,0,0,0,0,0,0,0,0-.15-.65-.46-1.01-1.21-.91ZM79.6,176.33s0,0,0,0c0,0,0,0,0,0,0,0,0,0,0,0ZM100.99,140.18c-2.02,2.91-4.76,4.45-8.35,4.37-1.53-.04-3.06-.06-4.59-.03-1.05.02-1.73-.73-2.49-1.21-2.11-1.33-4.13-2.82-6.19-4.24-.17-.42-.6-.48-.95-.62-.45-.18-.57-.51-.5-.94.07-.43.39-.49.76-.59,2.64-.74,5.4-.84,8.06-1.5,1.16-.29,2.41-.2,3.62.04,1.4.28,2.81.57,4.25.42,0,0,0-.01,0-.02.02,0,.04,0,.06.01,2.34.05,4.5,1,6.79,1.35.41.06.81.28,1.18.51.37.23.42.64.35,1.05-.07.36-.33.54-.67.54-.63,0-.99.37-1.32.85ZM98.69,115.61c-.57.48-1.08.09-1.54-.33-.32-.3-.66-.61-.69-1.06-.06-.84-.22-1.44-1.27-1.57-.69-.09-1.09-2.62-.6-3.18.4-.46,1.15-.25,1.38.4.14.39,0,.85.29,1.2,0,0,0,0,.01,0,0,0,0,0,0-.01,0,0,0,.01,0,.02,0,0,0,0,.01,0,0,0-.01,0-.02.01-.09,1.22.36,2.03,1.68,2.22.38.05.72.27.75.75.42.52.5,1.11-.02,1.55ZM91.8,102.85c-.4.85-.64,1.78-1.28,2.5-.1.12-.23.27-.23.4.07,1.67-1.14,3.05-1,4.77.12,1.37-.27,1.61-1.69,1.45-.29-.44-.66-.86-.24-1.42h0c.52-.69.63-1.56.99-2.32h0c.51-1.12.83-2.32,1.07-3.53.18-.9.54-1.72.97-2.51.28-.5.76-.74,1.29-.47.54.27.29.74.11,1.13ZM62.35,92.69c.23,1.39,1.15,2.59,1.07,4.07,0,.06.1.12.15.17h0c0,.55.38,1.28-.42,1.52-.76.23-1.1-.41-1.4-.99-.11-.21-.22-.42-.35-.61-.22-.32-.51-.52-.9-.33-.43.21-.53.6-.33,1,.99,1.9.64,3.99.85,5.99.05.45.1,1.05-.57,1.09-.68.04-.61-.56-.68-1.02-.12-.82-.21-1.65-1-2.15-.46-.29-.3-.87-.58-1.24-.02-.3-.03-.6-.05-.9,0,0,0,0,0-.01h0c-.47-1-.28-2.19-.89-3.15-.03-.43-.05-.86-.08-1.3-.36-.96-1.01-1.79-1.15-2.84-.23-.36-.47-.72-.69-1.09-.23-.39-.41-.85.04-1.15.46-.31.78.11,1.1.4.39.34.37.85.53,1.28.49,1.37,1.34,1.58,2.32.51.69-.75,1.29-.47,1.93,0,.4.13.7.37.9.74.07-.02.13-.02.19,0,0,0,0,0,0,0ZM52.82,84.02c.33-.23.47-.8.99-.68.41.09.28.49.27.79,0,0,0,0,0,.01-.07.13-.14.26-.22.39-.21.33-.32.91-.88.67-.62-.26-.29-.75-.16-1.16,0,0,0-.01,0-.02ZM62.32,112.91c.06.62.21,1.23.28,1.86.04.31,0,.67-.37.77-.37.09-.56-.19-.73-.46-.94-1.48-.97-1.48-2.03-.03-.05.06-.08.17-.14.18-2.14.38-1.11,2.3-1.65,3.45-.18.38.19,1.03-.43,1.21-.7.2-.86-.47-1.16-.88,0,0-.02,0-.02,0,0-.01,0-.02,0-.03-.18-.42-.29-.87-.54-1.24-1.28-1.92-1.35-1.54.74-3.24,1.38-1.12,3-1.92,4.25-3.21.03-.02.05-.02.08-.04-.01.01-.02.02-.03.04,1.16-.09,1.66.53,1.77,1.63ZM53.43,117.99c-.43.24-.78-.2-1.06-.51-.44-.48-.88-.98-1.31-1.46h0c-.34-.67-.9-1.04-1.61-1.21-.27,0-.55.04-.82.01-.59-.07-.89.11-.85.76.02.32.22.79-.18.96-.39.17-.57-.31-.83-.51-.12-.09-.24-.19-.37-.28-.42-.68-.91-1.03-1.81-.78-1.01.28-1.19-.55-1.32-1.3-.47-1.02-.93-2.03-1.4-3.05-.42-.28-.62-.71-.28-1.08.34-.39.86-.32,1.27.03.26.23.47.51.71.77,2.76,1.15,5.48,2.37,7.91,4.14.88.64,1.34,1.61,1.92,2.48,0,0,.02,0,.03.01,0,.02-.02.04-.03.06-.01.35.46.74.04.97ZM26.78,141.01c.32.05.49.26.49.56,0,.85.51,1.44,1.03,2.02.27.29.6.61.34,1.01-.28.42-.71.09-1.07.06-.29-.47-.64-.88-1.15-1.14-.57-.64-1.21-1.27-.45-2.19.22-.27.48-.37.81-.32ZM31.53,156.75s0,0,0,.02h0s0,0,0,0c0,0-.02,0-.02,0,0,0,.01,0,.02,0ZM51.09,183.35s0,0,0,0c.06.12.21.27.41.42-.17-.08-.31-.21-.41-.42,0,0,0,0,0,0,0,0,0,0,0,0ZM56.43,183.06c-.78-.28-.95-.71-.42-1.37h0c.09-.07.18-.13.27-.19,1.46-.41,2.93-.3,4.41-.09,1.76.24,3.54.77,5.28-.17.19-.1.46-.06.69-.06.27,0,.57-.03.69.3.11.32-.12.5-.3.71-.49.58-1.29.51-1.85.92-.81.12-1.42.89-2.32.75-.02,0-.04,0-.06.01,0,0,0-.01,0-.02-.98-.2-1.97-.21-2.96-.19-1.19.03-2.32-.2-3.44-.6ZM84.63,180.79c-.86.03-1.14-.68-.55-1.36.41-.48.53-.97.68-1.56.23-.93.87-1.61,1.94-1.48,1.6.19,3.19.38,4.8.39.91,0,1.28.47,1.02,1.38-.39.39-.78.78-1.18,1.17-1.89,2.04-4.39,1.39-6.71,1.47ZM92.33,180.53s-.02-.02-.04-.03c.01,0,.02,0,.03,0,0,0,0,.02,0,.03h0s0,0,0,0ZM95.39,168.24c-.09-.06-.17-.12-.26-.17,0,0,0,0,0,0-1.82.4-3.34-.58-4.96-1.06-.16-.01-.31-.04-.46-.13-1.52-.61-3-1.3-4.28-2.36-.03,0-.05-.01-.07-.02.02,0,.03-.02.05-.02-.09-.27-.38-.33-.54-.52-.25-.28-.38-.61-.26-.98.13-.38.5-.28.8-.34,3.55-.7,7.12-.25,10.63.14,2.4.27,4.78.73,7.22.67.71-.02,1.4-.12,2.1-.22.65-.09,1.35.02,1.52.77.14.65-.41.95-.98,1.11-.39.11-.75.26-.98.61-1.14,1.69-2.77,2.28-4.76,2.51-1.61.19-3.18.22-4.77,0,0,0,0,0,0,0,0,0,0,0,0,0ZM110.12,152.93h0c-.06.06-.13.12-.19.18-.15.05-.29.11-.44.15-.5.15-1.04.3-1.29-.33-.18-.46.11-.86.5-1.06.51-.26,1.08-.27,1.53.12.37.32,0,.63-.11.94ZM103,122.47c.16-.1.38-.22.55-.19,1.71.26,3.12-.86,4.71-1.02.82-.08,1.28-.92,2.13-.82,0,0,0,0,0,0,1.35-.57,2.69-1.14,4.04-1.71-.01-.14.04-.2.19-.18h0c.34-.36.9-.06,1.25-.39,0-.02,0-.03,0-.05.01,0,.03,0,.04,0,.62-.24,1.08-.87,1.84-.75.11-.11.2-.24.33-.31.39-.22.56-1.05,1.19-.59.65.47.57,1.38.21,1.8-.71.83-.47,2.31-1.86,2.65-.27.07-.32.46-.19.72.43.9.05,1.62-.42,2.34-.96,2.28-2.61,4.1-4.17,5.95-.82.97-2.03,1.53-3.29,1.86-2.53,1-5.05,1.62-7.6.06-.31-.19-.59-.09-.89.05-.56.26-1.06.16-1.47-.32,0,0,0,0,0,0-2.26-1.16-4.15-2.74-5.74-4.74-.53-.67-.53-1.5-1.03-2.13-.27-1.11.22-1.48,1.29-1.43,2.19.11,4.37.14,6.56-.17.82-.12,1.63-.18,2.35-.63ZM102.68,104.35c1.83-.67,3.89-.26,5.57-1.45.59-.41,1.49-.48,2.26-.5.9-.03.96.48.45,1.13-.19,1.97-.94,3.76-1.76,5.52.02.02.03.04.05.06-.03,0-.05,0-.09.01-.27.17-.04.59-.37.73.07,1.37-1.22,1.77-1.88,2.62-.8.3-1.59.6-2.39.9,0,0,0,0,0,0,0,0-.02.01-.03.02,0,0,0,0,0-.01-1.14.27-2.31.35-3.44.19-1.57-.22-2.74-1.14-3.5-2.54-.01.01-.02.02-.04.03,0-.03,0-.05,0-.08.03-.32-.04-.62-.25-.88-.02-.02-.04-.03-.07-.05.01,0,.02-.02.04-.03-.54-1.05-.61-2.25-1.04-3.33-.44-1.11.09-1.93,1.27-1.85,1.77.12,3.68.06,5.2-.49ZM97.97,88.64c1.68.08,3.37.04,5.06.05,0-.04,0-.07,0-.11.04.03.08.06.1.11,1.11.34,1.65,1.32,2.34,2.13.58.51,0,.79-.23,1.14h0c-.25.02-.5.12-.58.34-.45,1.21-1.5,1.98-2.2,3-.38.49-.75.99-1.14,1.48-.26.32-.59.5-1.02.41-.5-.1-.55-.51-.6-.89-.07-.5-.21-.99-.08-1.5-.37-1.98-1.11-3.76-2.62-5.15-.08-.73.17-1.03.98-.99ZM89.22,93.71s-.01.03-.02.05c0,0,0,0,0,.01-.03-.02-.05-.03-.07-.05.03,0,.06,0,.09,0ZM92.77,95.07c.53.51,1.32.65,1.8,1.27.49.65.54,1.19-.18,1.68-2,1.36-4.01,2.69-5.81,4.34-.83.76-1.95,1.04-3.14,1.11-2.35.12-4.45-.24-6.24-1.98-.87-.84-2.08-1.33-3.14-1.98-1.01-.53-1.93-1.2-3.21-1.08-1.19.11-.19-.64-.26-.98l-.04-.05c.66-.39,1.31-.77,1.97-1.16,1.47-.74,3-1.32,4.62-1.67,0,0,0,0,0,0,0,0,0,0,0,0,.97.09,1.79-.47,2.72-.61,3.75-.56,7.3.59,10.92,1.12ZM61.25,83.26c1.61-.53,3.34-1.11,5.14-.67,1.99.69,3.88,1.56,5.46,3.01.45.59.94,1.13,1.59,1.51.17.13.34.26.51.38.78,1.2.72,1.23-.71,1.52-1.49.29-2.91.85-4.27,1.53-.32-.06-.62.01-.88.21-1.36,1.01-2.95.76-4.47.82-.43.02-.86-.08-1.23-.33-1.94-1.35-4.06-2.32-6.27-3.13-.53-.2-1.24-.34-1.24-1.07,0-.72.69-.84,1.21-1.11,1.73-.9,3.36-2.06,5.18-2.67ZM48.91,84.82c-.61.43-1.06.23-1.54-.24-.94-.94-1.9-1.84-2.86-2.76,0,0,0,0,0,0-.18-.65-.71-1.01-1.17-1.42-.17-.7-.79-1.3-.51-2.12.24-.24.47-.48.71-.72.67-.32,1.36-.49,2.11-.46.38.02.82.02,1.15-.14,2.19-1.05,4.54-1,6.88-1.03h0c.96.18,1.4.73,1.26,1.74-.08.55.04,1.09.39,1.55.79.47.66,1.04.16,1.63-.59.72-1.39.95-2.28.99-1.44.99-2.89,1.97-4.32,2.97ZM50.38,103.91c.56-.29.97-.3,1.51.06,1.95,1.3,4.21,1.83,6.45,2.4,1.56.33,3.12.64,4.67.99.38.09.96.03.93.66-.02.51-.36.84-.83,1.03-.35.14-.77.18-.99.56h0c-2.34.94-4.37,2.41-6.43,3.83-1.6,1.1-1.77,1.01-3.4.01-2.12-1.29-4.23-2.64-6.55-3.58-.79-.32-1.47-.89-2.35-1.05-.37-.07-.58-.41-.61-.78-.04-.41.32-.46.6-.6,2.34-1.16,4.69-2.32,7.01-3.52ZM38.68,86.9c.22-.28.65-.23,1-.17.56.1,2.56,2.6,2.57,3.17.03.4-.11.71-.5.82-.44.12-.94.09-1.11-.38-.37-.98-1.16-1.66-1.71-2.5-.19-.29-.5-.62-.24-.95ZM33.28,86.53c-.68-.36-.31-.87.17-1.16.66-.39,1.4-.47,2.18-.36.28-.02.59-.04.9-.07,1.35-.12,1.79.2,1.78,1.3-.01.75-1.06,1.62-1.89,1.51-1.13-.16-2.16-.69-3.14-1.22ZM30.13,96.68s.01-.02.02-.03c0,0,.01.01.02.02.88-.06,1.54-.72,2.17-1.14,1.31-.88,2.81-.97,4.21-1.33,1.35-.34,2.64.52,3.9,1.03.51.2.99.47,1.48.71,0,0,0,0,0,0h0c.97.16,1.82.67,2.7,1.05.65.28.62.68.07,1.3-1.54,2.07-3.82,2.96-6.13,3.75-.98.33-1.65-.59-2.36-.99-1.03-.59-2.13-1.01-3.17-1.56,0,0-.02,0-.03,0,0,0,0-.01-.01-.02h0s0,0,0,0h0c-.98-.33-1.94-.82-2.95-.95-.95-.13-.83-.53-.62-1.13.24-.23.47-.47.71-.7ZM32.72,104.22c-.68-.51-1.12-1.23-1.62-1.89-.05-.48-.67-1.02.01-1.4.56-.32.98.15,1.34.56-.07-.21-.36-.5-.71-.77.3.1.56.37.71.77-.01.24-.06.48.21.62h0s.05,0,.07,0c0,.03,0,.05,0,.08.19.24.41.48.53.75.25.57.34,1.14-.52,1.26,0,0-.01.01-.02.02,0,0,0,0-.01-.01ZM27.43,119.68c1.65-.97,3.37-1.78,5.1-2.61,2.46-1.18,4.73-.93,7.13-.34.35.09.68.27,1.02.42,0,0,.01-.01.02-.02,0,.02.02.03.03.04,0,0,0,0,0,0,0,0,0,0-.01,0,0,0,0,0,0,0,.78.43,1.67.15,2.49.44,1.61.57,2.03,1.58,1.18,3.01-.24.4-.43.82-.64,1.24-1.52,1.4-3.05,2.78-5.13,3.31h0c-.68.6-1.56.39-2.33.61-.31.09-.8.06-.79.52.01.41.44.53.78.6.42.08.86.15,1.28.1,1.54-.17,2.39.65,2.96,1.93.46.64.92,1.28,1.38,1.91.08.22.17.43.25.65.1.28.39.62.08.85-.36.27-.63-.1-.88-.33-1.04-.99-1.9-.94-2.49.41-.38.88-.77.73-1.36.49.22-.66-.45-.82-.71-1.19-.91-1.28-1.88-2.51-2.82-3.77-.74-.33-.64-1.11-.4-1.49.58-.94,0-1.1-.65-1.32-.13-.05-.25-.15-.37-.22,0,0,0,0,0,0-2.09-.71-3.6-2.32-5.4-3.5-.77-.5-.59-1.2.31-1.73ZM15.98,117.65c-.4-.67-1.44-1.3-.17-2.1.14-.09.28-.18.42-.27.18-.07.53-.13.94-.17.03-.02.06-.04.09-.06.34-.23.71-.41,1.09-.2.14.08.28.14.42.21.44.01.85.04,1.12.11.84.2,1.92-.28,2.43.86.01.73-.66,1.06-.93,1.62-2.47,1.53-3.35,1.54-5.42.02ZM15.97,134.66c-.11-.42-.31-.79-.56-1.15-.3-.42-.61-.91-.21-1.38.43-.52.83.09,1.25.16.09.22.17.43.26.65.34.45.71.67,1.26.25.29-.22.69-.27.97.03.34.35.02.62-.19.91-.15.22-.28.48-.33.74-.1.46-.19,1.01.38,1.21.63.22.79-.31.94-.77.14-.45.24-.95.66-1.21.55-.35,1.21-.88,1.45.31.09.42.42.53.75.66.54.66.73,1.21-.18,1.8-.58.37-.17.91.16,1.29.24.28.68.3.77-.04.2-.67.58-1.13,1.1-1.56.27-.22.29-.62.02-.83-.89-.69-.68-1.66-.74-2.57.67-.52,1.45-.11,2.16-.28.25.08.55,0,.72.28.49.28.76.65.9,1.05.04.22.08.44.12.66.02.55-.14,1.1-.32,1.51-.21.48-.39.95-.56,1.42-.01.03-.02.06-.03.09-.02.02-.04.05-.05.07-.02.06-.04.13-.05.2-.19.56-.35,1.13-.48,1.73-.18.81-1.21.76-1.73,1.27-4.32.11-7.44-2.75-8.45-6.5ZM22.11,148.5s-.01.01-.02.02c0,0,0,0,0-.01,0,0,.02,0,.02,0ZM16.67,153.71c-.58-.34-1.17-.63-1.87-.49-.57-.53-1.24-.96-1.66-1.64,0,0,0,0,0,0-.32-.38-.66-.74-.96-1.13-.63-.8-.51-1.22.49-1.77h0s0,0,0,0c3.15.43,6.3.7,9.46.03.12,0,.23,0,.35,0,2.31.01,2.89,1.04,1.74,3.06-.16.07-.32.13-.48.2-.41.99-1.11,1.71-2.09,2.17h0c-.73-.12-1.73.29-1.9-.95h0s0,0,0,0c.44-.55.94-.91,1.69-.99.4-.04.9-.19,1.12-.67.29-.25.32-.58.26-.93-.01,0-.02-.02-.04-.02.01,0,.02-.01.03-.02-.1-.71-.71-.91-.98-.41-.75,1.4-2.14.99-3.22,1.36-.64.22-1.19.22-.65,1.08.21.33.27.78-.1,1.08-.37.3-.82.25-1.21.03ZM24.96,161.2c-.45-.19-.5-.81-1.02-.92-.53-.35-1.36-.46-1.11-1.42-.07,0-.14-.02-.2-.06-.14-.65-.98-1.02-.73-1.83-.1-.39-.65-.7-.32-1.16.29-.39.79-.23,1.22-.25,1.21-.04,2.21.65,3.31.96.36.27.81.1,1.2.23,2.41.13,4.78.59,7.22.55,1.92-.03,3.81-.44,5.73-.35,0-.08,0-.16,0-.24.7-.09,1.25,0,1.11.92-1.37,1.52-2.68,3.1-4.38,4.29-.54,1.07-1.93.96-2.6,1.85-1.99.56-3.96.62-5.89-.22-1.36-.51-2.58-1.24-3.52-2.37ZM29.53,164.12c-.25-.07-.49-.17-.72-.32.2.12.44.23.72.32ZM23.01,173.8c-1.55-.6-2.19-2.17-3.12-3.41-.17-.22-.15-.53.09-.75.24-.21.51-.16.77-.04,2.79,1.27,5.61,1.04,8.43.12.75-.24,1.47-.54,2.28-.4.57.1,1.1.27,1.11.98,0,.68-.19,1.25-.93,1.45-.26.07-.54.09-.81.14-.97.16-1.08.43-.53,1.36.01,0,.02.01.03.02,0,0,0,.02,0,.02-.03.18-.02.35.18.44.04.75-.37,1.03-1.08,1.08-2.23.18-4.37-.22-6.42-1.02ZM31.41,179.7c-1.34-.47-2.46-1.57-3.67-2.4-.28-.19-.37-.51-.23-.84.15-.36.47-.63.83-.51,1.49.5,3.23-.06,4.56,1.09,0,0,0,0,.01,0,0,.01.01.02.02.03.54.3,1.07.6,1.61.9.01,0,.03,0,.04,0,0,0-.01.01-.02.02.39.33.86.25,1.31.26.42,0,.8.06.83.6.03.48-.1.88-.64.96-1.56.23-3.22.41-4.66-.1ZM38.1,182.89c.01-.08.02-.16.03-.23-.95-.15-1.79-.41-1.82-1.61h0s0,0,0,0c.27-.75.92-1.06,1.54-1.41,0-.02,0-.03,0-.05.03,0,.04,0,.07,0,1.02-.43,1.78-.41,2.12.9.2.79.73.82,1.29.21.92-1,1.14-.99,1.98.04.35.43.71.8,1.23,1.05,1.13.54,1.16,1.13.18,1.99,0,0,0,0,0,0,0,0,0,0,0,0-.81,0-1.62.02-2.44.02-1.25,0-2.52.07-3.63-.7,0,0-.01,0-.01.01-.01-.01-.02-.02-.03-.04-.17-.07-.34-.14-.51-.21ZM52.74,187.86c-1.34.07-2.29-.77-3.33-1.41-.39-.24-.77-.49-1.16-.74-.24-.24-.53-.45-.71-.73-.33-.49-.48-1.15.17-1.38.99-.35,2.03-.87,3.12-.22.12.6.37,1.02,1.08.95.39-.04.67.16.91.43.26.29.67.45.95.28,1.57-.95,3.13,0,4.68-.02.77-.01,1.54.2,2.33.05.34-.06.74-.08.9.34.15.42-.14.69-.44.87-1.13.66-2.18,1.5-3.63,1.36-.6-.05-1.25-.19-1.82.18h0c-1.02.01-2.03.03-3.05.04ZM59.2,199.88c-.11-.37.12-.59.36-.8,1.23-1.02,1.77-2.46,2.26-3.9.28-.82.24-1.67-.22-2.49-.36-.64-.56-1.36-.83-2.05h0c.11-.61.39-1.05,1.09-.93.62.11.76.58.75,1.15,0,.25-.09.58.32.64.04.06.09.09.16.1.68.56,1.16,1.15.81,2.16-.21.6.01,1.18.84.73.37-.2.57-.11.78.17.25.33.55.54.99.52.74-.03.7.43.57.94-.08.3-.16.59-.24.89-.5.94-1.2,1.74-1.89,2.54-1,.69-2.35.59-3.27,1.48-.22.21-2.4-.85-2.5-1.16ZM74.9,185.51c-.36.84-1.01,1.42-1.78,1.83-.96.52-1.95.97-2.93,1.45-1.01-.19-1.83.51-2.79.62-2.12.23-4.05-.28-5.95-1.1h0c-.48-.21-.53-.64-.28-.96.51-.64,1.31-.92,1.99-1.35.2-.13.45.08.55.31.42.94.76.54,1.07-.06.19-.36.39-.73.84-.7.54.03.51.49.54.88.01.15.03.32.22.37.24.05.4-.12.43-.3.12-.99.51-.71,1.01-.26.46.42.79.07,1.07-.28,1.48-1.79,3.61-1.45,5.55-1.65.69-.07.65.63.67,1.14-.06.04-.13.06-.2.06ZM84.97,185.47c-.36.22-.74.25-1.13.24-.67-.02-1.31.15-1.96.3-1.58.37-3.06-.34-4.59-.55-.34-.05-.54-.45-.52-.84.02-.39.35-.46.65-.58.94-.39,1.88-.76,2.8-1.2.71-.34,1.03-.11,1.12.61.03.26-.09.61.25.71.4.11.66-.2.87-.47.19-.25.33-.53.49-.8.19-.32.45-.63.84-.49,1.43.52,2.67-.56,4.04-.43.44.13.98-.51,1.34.1.34.57-.23.87-.49,1.26h0c-1.24.71-2.5,1.41-3.73,2.15ZM90.5,183.76c-.05-.22.12-.35.29-.45.8-.45,1.47-1.15,2.51-1.12.65.02,1.15-.41,1.65-.8.22-.17.57-.23.75,0,.25.31-.12.46-.29.64-.84.89-3.27,2-4.34,1.99-.22-.01-.5.06-.57-.25ZM99.92,178.68c-.5.22-.99.44-1.49.65-1.48.47-3.09.33-4.54,1-.37.17-.86.35-1.19-.08-.36-.47.19-.76.33-1.13.25-.24.53-.46.75-.73.96-1.21,2.2-1.48,3.64-1.16.73.17,1.47.07,2.21.05.4-.01.82,0,.9.51.07.46-.22.71-.61.88ZM106.92,174.41c-.14.09-.28.17-.43.24-.95.58-1.86,1.26-3.13.73-.52-.22-.97.1-1.38.42-.22.16-.5.27-.74.03-.21-.21-.08-.43.02-.64.14-.31.39-.68.06-.96-.34-.28-.75-.07-1.1.1-.45.22-.88.48-1.32.73,0,0,0,0,0,0-1.52,1.01-3.05-.15-4.6,0-.9.09-.95-.83-.78-1.58.15,0,.3-.01.45-.02,2.55-.71,5.03-1.6,7.42-2.74.61-.29,1.2-.36,1.79-.04.87.48,1.8.74,2.79.76.08,0,.16.02.23.03.74.16,1.48.35,1.76,1.17.32.95-.53,1.27-1.03,1.77ZM117.51,166.4c.51.58.43,1.12-.13,1.62-.43.39-.88.77-1.31,1.15-.95.67-1.97.51-3.02.31-.61-.12-.99-.5-1.29-.94-.96-1.37-.94-1.4-2.45-.72-.66.3-.96-.04-1.15-.58-.25-.75-.22-1.44.68-1.7.64-.18,1.36-.18,1.96.1,1.19.55,2.41.51,3.66.52,1.01,0,2.02.15,3.03.24ZM118.76,139.9c.2.42-.06.72-.36,1.01-.55.54-1.06,1.11-1.59,1.67,0,0,.01.01.02.02-.01,0-.03,0-.04,0-1.41,1.23-2.82,2.46-4.24,3.67-1.13.97-2.36,1.82-3.75,2.37-1.42.56-2.52.12-3.44-1.14-.63-.86-.97-1.86-1.47-2.78,0,0,0,0,0,0,0,0,0,0,0,0-.17-.59-.36-1.18-.49-1.77-.14-.68.14-1.05.87-1.01.23.01.47-.02.7.03,2.62.54,4.98-.52,7.39-1.21,1.8-.48,3.59-1.02,5.48-1.03.34,0,.73-.24.93.18ZM116.54,136.34c-.42.57-1.17.54-1.43-.01q-.86-1.84-2.76-1.09c.11-.58,2.08-2.77,2.6-2.87.68-.12,1.12.29,1.45.8.19.28.28.63.41.95,0,0,0,0,0,0,0,0,0,0,0,0h0s.03.03.05.04c-.01,0-.02,0-.04-.01.28.77.22,1.52-.27,2.18Z" fill="#12100b"/>
    <path d="M96.28,111.09s0,0,0-.01c0,0,0,0,0,0,0,0,0,.02,0,.02Z" fill="#12100b"/>
    <path d="M95.1,108.2s0,0,0,0c0,0,0,0,0-.01,0,0,0,.02,0,.02Z" fill="#12100b"/>
    <path d="M91,87.25c-.35-.1-.72-.08-.96.24-.57.77-.79,1.68-.98,2.59-.08.41.25.61.57.78.36.19.63.03.77-.27.36-.81.68-1.64.99-2.39.02-.44.04-.82-.39-.95Z" fill="#12100b"/>
    <path d="M119.91,149.66c-.03-.05-.06-.1-.1-.14,0,0,0,0,0,0-1.23.15-2.15-.77-3.29-.95,0,0-.02,0-.03,0-.6.08-1.55-.71-1.69.09-.16.88,1.01.84,1.69,1.01.22.06.47.06.7.03.57-.07,1.08.04,1.5.45.69.66,1.44.57,2.3.21-.3-.44-.65-.63-1.09-.7Z" fill="#12100b"/>
    <path d="M73.9,156s.07-.07.1-.11" fill="#12100b"/>
    <path d="M73.18,156.69c.24-.23.48-.46.72-.69.01-.15.03-.29.04-.44.08-.16.16-.31.24-.47.44-.33.79-.84,1.47-.37.44.3.78-.06,1.05-.4.08-.34.17-.68.24-1.02.08-.35,0-.74-.39-.69-.94.12-1.36-.56-1.92-1.06-.37-.65-1.06-.84-1.66-1.17,0-.08,0-.15-.01-.23,0,0,0,0,0,0-1.15-.59-1.4-.49-1.65.66h0c-.25,1.36-.2,2.72-.18,4.09.02,1.5.5,1.91,2.04,1.77Z" fill="#12100b"/>
    <path d="M99.69,166.43c.49.04.71-.24.76-.71-.03-.42-.18-.75-.69-.75-.5,0-.85.21-.84.75,0,.47.33.68.77.71Z" fill="#12100b"/>
    <path d="M98.64,138.43c-.49-.13-1.03-.08-1.39-.52-.15-.01-.29-.02-.44-.03h0s0,0,0,0c-2.02-.66-3.85-.1-5.63.86-.03.01-.03.07-.04.11-.46.36-.96.43-1.53.33-.53-.1-1.08-.12-1.62-.13-.45,0-1.06-.12-1.16.48-.1.61.57.48.91.67.34.19.71.33.85.75.06,0,.13.02.19.03.07.09.15.17.22.26,0,0,0,0,0,0,.8.14,1.7.9,2.22-.46.45.3.51.93,1.09.91h0s0,0,0,0c.99.61,1.24-.14,1.4-.84.11-.48.03-1.01.04-1.52h0c.39-.08.63-.85,1.16-.25.07.02.14.03.21.02h0c-.07.31.22.69-.18.94-.02.07-.05.13-.08.19-.95.26-1.08.82-.59,1.61.14.02.27.04.41.06.22,0,.45-.01.67-.02.16,0,.32,0,.48,0,.43-.33.91-.53,1.45-.64.46-.1,1-.16,1.14-.76.16-.16.32-.32.47-.47,0,0,0,0,0,0,.72-.71.64-1.33-.25-1.56Z" fill="#12100b"/>
    <path d="M47.79,108.69c.1.04.16.15.25.22,0,0,0,0,0,0,.14.1.28.2.41.3h0c0,.5.55.56.74.91h0c.75.08,1.22-.16,1.24-.99.01-.69-.43-.85-.99-.88-.23-.02-.47-.01-.7-.02,0-.08,0-.15,0-.23h0c-.14-.04-.32-.04-.43-.13-.39-.33-.78-.53-1.24-.17-.18.14-.41.31-.34.56.16.6.71.3,1.07.43Z" fill="#12100b"/>
    <path d="M45.59,78.67c-.73.11-.67.71-.6,1.27.08.08.15.15.23.23.56.06,1.15.12,1.14-.69,0-.46-.26-.88-.77-.8Z" fill="#12100b"/>
    <path d="M60.99,93.41s0-.02,0-.03c-.08-.08-.15-.15-.23-.23-.33.07-.87-.31-.95.33-.07.54.22.99.69,1.28.23.14.51.33.75.1.46-.43-.02-.77-.17-1.14-.04-.1-.06-.2-.08-.3Z" fill="#12100b"/>
    <path d="M92.95,165.44s-.06.05-.09.08c-.13.69.2.92.83.83.37-.28,1.1-.46.62-1.1-.44-.59-.96-.25-1.37.19Z" fill="#12100b"/>
    <path d="M100.93,92.82c0,.07-.05.19-.03.3.07.5.1,1.08.71,1.22.56.13.68-.4.89-.76.29-.51.57-1.03,1.1-1.34.38-.22.58-.54.42-.98-.14-.4-.48-.46-.86-.47-.47-.02-.93-.06-1.4-.11-1.15-.13-1.3.05-.91,1.18.11.31.16.6.07.96Z" fill="#12100b"/>
    <path d="M30.61,120.91c.32-.44.62-.03.93.03.55.71,1.38.77,1.92.3.62-.53-.31-.82-.53-1.23,0-.08,0-.16.01-.25-.99-.42-1.94-1.35-3.05-.25-.08.26-.17.52-.22.78-.07.35-.11.73.23.96.4.27.53-.1.71-.35Z" fill="#12100b"/>
    <path d="M97.87,125.98c-.35-.17-.71-.33-1.07-.48-1.23-.48-1.52-.26-1.41,1.08.15.16.31.31.46.47.46-.02.62.42.94.62.68.4,1.19.44,1.65-.35.45-.78,0-1.06-.57-1.34Z" fill="#12100b"/>
    <path d="M30.8,161.93c.37-.11.75-.2,1.11-.32.19-.07.31-.24.28-.46-.04-.3-2.31-1.14-2.53-.93-.29.28-.31.64-.1.95.28.43.64.79,1.25.76Z" fill="#12100b"/>
    <path d="M24.19,157.5c-.27,0-.41.21-.41.47,0,.36.19.6.55.63.3.02.38-.21.39-.53-.05-.26-.12-.58-.53-.57Z" fill="#12100b"/>
    <path d="M63.12,154.61c.58,0,1.17.02,1.75.02.35,0,.74.04.79-.46.04-.4-.17-.68-.5-.85-1.09-.57-2.04.03-2.04,1.29,0,0,0,0,0,0h0Z" fill="#12100b"/>
    <path d="M78.71,154.36c.64-.14,1.07-.57,1.35-1.07-.02-.43-.24-.61-.54-.54-.65.16-1.07.63-1.25,1.25-.09.29.21.42.45.36Z" fill="#12100b"/>
    <path d="M96.5,165.95c.1-.23.05-.46-.16-.63-.23-.19-.49-.25-.76-.15-.79.28-.39.76-.18,1.2h0c.4-.05.89.09,1.11-.43Z" fill="#12100b"/>
    <path d="M84.54,138.43c-.35-.09-.5.13-.49.45.02.4.24.63.63.69.31,0,.58-.06.54-.44-.05-.38-.33-.61-.68-.71Z" fill="#12100b"/>
    <path d="M100.08,111.52c.59.52,1.14.77,1.46-.26.08-.24.24-.42.5-.44,1.1-.07.88-.88.89-1.56,0-.23,0-.5-.25-.61-.28-.13-.4.16-.57.29-.51.37-.65,1.14-1.29,1.32-.7.2-.79.67-.74,1.26,0,0,0,0,0,0Z" fill="#12100b"/>
    <path d="M105.99,107.03h0c.06.09.16.18.19.29.07.3.04.7.4.78.47.1.55-.36.7-.65.22-.44.53-.62,1.02-.63.48,0,.54-.39.49-.76-.06-.41-.39-.52-.7-.37-.42.19-.75.06-1.11-.1-.75-.33-1.02.02-.99.74,0,.23,0,.47,0,.7,0,0,0,0,0,0Z" fill="#12100b"/>
    <path d="M84.71,83.79c.01.54.24.92.83.87.53-.04.81-.39.85-.92-.05-.6-.44-.76-.96-.77-.56,0-.73.32-.72.82Z" fill="#12100b"/>
    <path d="M107.54,127.45c.36.18.78.22,1.07-.11.44-.5-.06-.83-.3-1.19h0c-.08-.08-.16-.15-.24-.23-.54-.1-.93.11-1.07.62-.13.45.2.73.55.91Z" fill="#12100b"/>
    <path d="M113.46,125.65c.59-.05.5-.6.58-.98-.01-.32.04-.76-.38-.74-.55.03-.79.47-.78.99,0,.36.14.77.58.73Z" fill="#12100b"/>
  </g>
  <g>
    <path d="M1.17,0l8.15,14.95L17.49,0v29.3h-3.3v-13.25l.09-3.56-1.88,3.6-3.06,5.58v.04l-.02-.02v-.02l-3.08-5.6-1.88-3.58.11,3.53v13.29H1.17V0Z" fill="#12100b"/>
    <path d="M50.95.21l8.2,29.09h-3.54l-1.24-4.69h-6.86l-1.22,4.69h-3.54L50.95.21ZM53.56,21.49l-1.9-7.28-.73-3.37-.69,3.37-1.91,7.28h5.23Z" fill="#12100b"/>
    <path d="M84.42.76c7.78.43,12.9,5.67,12.9,14.44s-5.12,14.01-12.9,14.44V.76ZM93.9,15.2c0-6.61-3.15-9.65-6.18-10.61v21.22c3.03-.96,6.18-4,6.18-10.61Z" fill="#12100b"/>
    <path d="M123.66,1.08h9.5v3.12h-6.2v10.84h5.31v3.12h-5.31v8.03h6.2v3.12h-9.5V1.08Z" fill="#12100b"/>
  </g>
  <rect y="36.02" width="134.79" height=".89" fill="#12100b"/>
  <g>
    <path d="M25.51,262.5v-8.46h2.14c.76,0,1.34.19,1.74.56.39.37.59.93.59,1.65,0,.43-.1.81-.3,1.13-.2.32-.48.55-.84.7.41.1.74.34,1,.72.25.37.38.81.38,1.32,0,.74-.2,1.32-.6,1.74s-.97.64-1.71.64h-2.39ZM26.17,257.83h1.54c.5,0,.9-.13,1.17-.4.28-.27.42-.66.42-1.19s-.14-.93-.41-1.19-.69-.38-1.24-.38h-1.48v3.16ZM26.17,258.43v3.45h1.76c.5,0,.9-.16,1.19-.47.29-.31.44-.74.44-1.29,0-.51-.13-.92-.4-1.22-.27-.3-.64-.46-1.12-.47h-1.85Z" fill="#12100b" stroke="#12100b" stroke-miterlimit="10" stroke-width=".28"/>
    <path d="M37.24,258.64l2.11-4.6h.76l-2.55,5.28v3.19h-.66v-3.19l-2.54-5.28h.78l2.1,4.6Z" fill="#12100b" stroke="#12100b" stroke-miterlimit="10" stroke-width=".28"/>
    <path d="M56.5,262.5h-.66l-3.99-7.21v7.21h-.67v-8.46h.67l4,7.22v-7.22h.66v8.46Z" fill="#12100b" stroke="#12100b" stroke-miterlimit="10" stroke-width=".28"/>
    <path d="M66.03,260.13h-3.17l-.72,2.37h-.69l2.7-8.46h.62l2.7,8.46h-.69l-.73-2.37ZM63.05,259.51h2.79l-1.4-4.54-1.4,4.54Z" fill="#12100b" stroke="#12100b" stroke-miterlimit="10" stroke-width=".28"/>
    <path d="M76.38,254.66h-2.41v7.84h-.67v-7.84h-2.4v-.63h5.48v.63Z" fill="#12100b" stroke="#12100b" stroke-miterlimit="10" stroke-width=".28"/>
    <path d="M86.23,254.04v6c0,.82-.22,1.45-.66,1.9-.44.45-1.05.67-1.86.67s-1.44-.22-1.87-.67c-.43-.44-.65-1.09-.65-1.93v-5.98h.66v5.96c0,1.34.62,2.01,1.85,2.01s1.83-.65,1.85-1.95v-6.02h.67Z" fill="#12100b" stroke="#12100b" stroke-miterlimit="10" stroke-width=".28"/>
    <path d="M94.3,258.98h-1.98v3.52h-.67v-8.46h2.32c.77,0,1.37.22,1.79.66.42.44.64,1.05.64,1.83,0,.55-.13,1.03-.4,1.44-.26.41-.62.7-1.06.86l1.76,3.6v.08h-.71l-1.7-3.52ZM92.33,258.36h1.77c.5,0,.9-.17,1.2-.51.3-.34.45-.78.45-1.32,0-.59-.16-1.05-.46-1.38-.31-.33-.74-.49-1.3-.49h-1.65v3.7Z" fill="#12100b" stroke="#12100b" stroke-miterlimit="10" stroke-width=".28"/>
    <path d="M105.74,258.45h-3.28v3.44h3.78v.62h-4.44v-8.46h4.41v.63h-3.75v3.17h3.28v.62Z" fill="#12100b" stroke="#12100b" stroke-miterlimit="10" stroke-width=".28"/>
  </g>
</svg>