<?xml version="1.0" encoding="UTF-8"?>
<svg id="Calque_1" data-name="Calque 1" xmlns="http://www.w3.org/2000/svg"
  viewBox="0 0 170.36 333.47" width="170.36" height="333.47">
  <path
    d="M170.36,312.55c-.07,0-.13.02-.2.03-5.33.42-16.18-4.31-19.81-8.73,1.13-.78,2.11-1.62,3.22-2.13.42-.19,1.32.21,1.76.6,3.68,3.32,7.92,5.52,12.85,5.95.74.06,1.46.09,2.18.07v-5.62c-4.33.19-8.77-1.67-12.21-5.78,1.1-2.1,2.16-4.13,3.33-6.36.41.34,1.01.64,1.35,1.13,1.69,2.43,3.27,4.94,4.98,7.36.46.64,1.24,1.44,1.89,1.46.21,0,.43-.07.66-.2v-4.88s-.03.04-.05.06c-.16.2-.33.39-.37.43-2.13-2.51-4.15-5.02-6.32-7.4-1.64-1.79-3.63-3.26-5.19-5.11-3.52-4.16-7.33-8.18-10.18-12.79-3.22-5.2-4.79-11.05-2.02-17.18.05-.1.09-.2.12-.31.31-.93.39-2.42.99-2.67,1.19-.5,2.66-.32,4.18-.43-1.25,5.18-.39,9.91,1.85,14.33,1,1.98,2.44,3.87,4.07,5.36,4.18,3.83,7.88,8.03,10.95,12.79.35.54.78,1.03,1.37,1.79.21-.29.41-.57.61-.85v-9.67c-.2.22-.4.45-.61.7-.97-1.11-1.83-2.03-2.6-3.02-.21-.28-.32-.89-.16-1.16.8-1.36,1.71-2.65,2.74-4.22.22.32.42.63.63.94v-2.7c-.21-.32-.41-.63-.63-.96-1.43,2.2-2.73,4.21-4.06,6.25-.36-.22-.56-.31-.72-.44-2.21-1.9-2.2-1.89-.45-4.29,1.69-2.32,3.34-4.65,5.24-7.29.21.29.41.57.62.86v-2.43c-.2-.28-.4-.56-.61-.84-2.77,3.81-5.31,7.31-8.01,11.02-.82-.9-1.55-1.62-2.16-2.44-.19-.26-.22-.88-.04-1.13,3.31-4.48,6.66-8.92,10.1-13.5.29.31.52.54.72.77v-2.28c-.81-.74-1.24-.2-2.65,1.68-2.64,3.53-5.29,7.07-7.94,10.6-.36.48-.76.93-1.15,1.41-1.8-1.89-1.92-3.26-.53-5.16,3.89-5.33,7.77-10.67,11.67-16.02.2.28.4.55.6.83v-2.54c-.62-.66-.99-.44-1.8.7-3.15,4.45-6.29,8.89-9.46,13.33-.63.89-1.34,1.72-2.16,2.77-.2-.53-.43-.81-.39-1.06.36-2.7,1.27-5.43,3.66-6.7,3.46-1.84,5.27-4.86,7.19-7.92.75-1.19,1.45-2.42,2.3-3.85.22.36.44.71.66,1.06v-10.46c-.75-.35-1.54-.09-2.23.82-1.18,1.57-2.13,3.31-3.12,5.02-1.46,2.52-2.77,5.15-4.33,7.6-1.85,2.9-5,4.12-8.08,4.7-5.74,1.08-10.98-.71-14.83-5.02-2.28-2.55-4.45-5.64-3.45-9.65h-.41c.5-2.88,1.07-5.74,1.47-8.62.21-1.57.25-3.19.13-4.77-.1-1.35-.99-2.17-2.41-1.76-1.63.47-3.23,1.06-4.79,1.72-3.39,1.45-6.62,3.54-10.15,4.28-2.53.53-5.68-.15-8.11-1.27-4.99-2.29-8.08-6.55-8.85-12.01-.46-3.28-.46-6.8,2-9.58,2.15-2.43,4.48-4.7,6.65-7.11,1.1-1.22,2.12-2.53,2.99-3.92.72-1.16.45-2.34-.95-2.81-1.76-.59-3.58-1.04-5.39-1.45-3.43-.78-6.88-1.48-10.32-2.25-.46-.1-.97-.37-1.29-.71-1.85-2.01-3.9-3.81-5.06-6.44-2.19-4.97-1.79-9.83.83-14.28,1.72-2.92,4.07-5.7,7.89-6.33,2.99-.5,5.96-1.05,8.93-1.67,1.45-.3,2.91-.65,4.26-1.22,1.6-.68,1.93-1.59,1-3.02-.97-1.51-2.21-2.86-3.4-4.22-2.29-2.61-4.88-4.99-6.87-7.81-1.73-2.45-1.76-5.61-1.3-8.48.87-5.44,3.93-9.65,8.88-12.02,3.04-1.45,6.46-2.44,9.9-.86,2.9,1.33,5.74,2.8,8.65,4.11,1.44.65,2.96,1.18,4.5,1.56,1.35.34,2.35-.34,2.41-1.77.07-1.64-.03-3.29-.18-4.93-.34-3.67-1.06-7.33-1.05-11,0-3.06,1.93-5.64,4.05-7.72,3.8-3.74,8.59-5.32,13.81-4.44,3.76.63,7.34,2.15,9.35,5.83,1.43,2.6,2.72,5.28,4.15,7.88.69,1.24,1.47,2.47,2.39,3.55.77.91,1.58,1.22,2.32.92v-10.16c-.16.25-.37.47-.64.81-1.66-2.68-3.02-5.29-4.78-7.59-1.2-1.57-2.82-2.91-4.48-4.01-2.21-1.45-4.3-5.48-3.58-7.83.26.24.51.41.67.64,3.62,5.08,7.24,10.15,10.84,15.24.82,1.16,1.3,1.44,1.97.84v-2.47c-.17.21-.36.41-.61.71-3.32-4.61-6.5-9.04-9.68-13.47-.48-.67-.97-1.34-1.48-2-2.03-2.62-2.04-2.76-.09-5.92,2.06,2.72,4.08,5.39,6.1,8.05,1.27,1.67,2.52,3.36,3.8,5.02.92,1.19,1.3,1.47,1.96.85v-2.29c-.2.27-.4.53-.6.8-.66-.85-1.19-1.52-1.71-2.2-2.59-3.43-5.18-6.86-7.76-10.3-1.37-1.83-1.37-1.83.27-3.51.34-.34.72-.63,1.24-1.08,2.6,3.6,5.13,7.11,7.91,10.97.22-.3.43-.59.65-.89v-2.39c-.2.29-.4.57-.61.86-2.27-3.16-4.37-6.06-6.41-8.99-.17-.24-.05-.83.13-1.14.43-.77.98-1.48,1.48-2.21.24.11.48.22.72.33,1.3,1.99,2.61,3.99,4.08,6.25.21-.33.41-.63.61-.95v-2.75c-.22.25-.45.52-.71.81-.89-1.35-1.81-2.64-2.6-4-.18-.31-.08-.98.15-1.29.72-.97,1.56-1.84,2.4-2.8.28.14.39.17.46.24.1.11.19.2.29.3v-9.79c-.14-.23-.3-.49-.53-.85-1.09,1.42-2.04,2.42-2.72,3.59-2.3,3.9-5.26,7.24-8.72,10.11-3.8,3.14-6.02,7.26-7.03,11.89-.59,2.72-.11,5.67-.11,8.63-1.12,0-2.32.03-3.51-.02-.27-.01-.7-.24-.76-.45-.74-2.81-1.86-5.61-2.01-8.47-.23-4.3,1.18-8.4,3.51-12.02,4.47-6.98,10.35-12.74,16.24-18.51,1.91-1.87,3.4-4.15,5.22-6.42.14.27.29.52.43.78v-5c-.21-.11-.42-.2-.61-.2-.63,0-1.44.68-1.86,1.28-1.7,2.43-3.25,4.96-4.92,7.41-.35.52-.93.88-1.5,1.4-1.18-2.31-2.22-4.36-3.3-6.48,3.27-4.01,7.72-5.98,12.18-5.76v-5.61c-4.99-.24-9.47,1.67-13.66,4.9-2.97,2.29-3.3,2.34-6.32-.77,5.72-4.8,11.94-8.38,19.44-8.34.18,0,.36.01.54.02v-2.81c-.14,0-.27-.02-.41-.02-5.84-.16-11.15,1.96-16.02,5.09-1.84,1.18-3.48,2.67-5.27,3.94-.33.23-1.04.27-1.38.07-2.8-1.66-5.55-3.4-8.31-5.12-.51-.32-.98-.77-1.53-.97-4.27-1.49-7.71-4.32-11.1-7.11-2.74-2.27-5.04-5.08-7.56-7.63-.39-.4-.94-.65-1.41-.96-.23.52-.58,1.03-.66,1.58-.33,2.35-.48,4.73-.88,7.06-.9,5.18-2.42,10.14-4.9,14.83-1.4,2.66-2.32,5.57-3.46,8.37-.04.1-.05.22-.09.32-.53,1.15-.8,2.64-1.69,3.34-.71.56-2.17.17-3.3.21-6.22.2-12.3.88-17.9,3.99-3.29,1.82-5.91,4.39-7.94,7.36-2.83,4.14-5.06,8.67-5.95,13.73-.06.37-.69.87-1.09.9-3.13.28-6.27.46-9.4.66-.6.04-1.24-.06-1.81.08-7.88,1.91-15.66.93-23.42-.79-.54-.12-1.09-.16-1.64-.21-.21-.02-.42.06-.88.12.22.63.35,1.18.6,1.68.73,1.42,1.5,2.83,2.29,4.22,3.17,5.57,5.15,11.49,5.99,17.88.47,3.58,1.62,7.07,2.6,10.57.4,1.42.07,2.07-1.23,2.84-6.3,3.79-11.32,8.88-13.96,15.82-1.66,4.37-1.89,9.03-1.04,13.71.65,3.59,1.34,7.15,3.29,10.63-2.44,2.09-4.94,4.22-7.43,6.38-1.2,1.04-2.41,2.09-3.55,3.2-3.65,3.57-7.68,6.61-12.32,8.8-2.54,1.2-5.06,2.44-7.59,3.67v.66c2.55,1.18,5.23,2.13,7.61,3.58,3.71,2.25,7.37,4.63,10.76,7.34,3.94,3.15,7.57,6.7,11.33,10.09.37.33.71.68,1.04.99-3.46,7.65-4.89,15.58-2.38,23.57,2.52,7.99,8.52,13.34,15.82,17.69-1.34,6.1-2.7,12.36-4.1,18.61-1.41,6.29-5.05,11.62-7.9,17.3.14.15.27.3.41.45,1.32-.21,2.67-.34,3.97-.65,5.9-1.41,11.87-1.8,17.91-1.21,4.71.46,9.42.96,14.14,1.38,1.29.11,1.84.41,2.21,1.91,1.87,7.44,5.22,14.17,11.52,18.84,4.86,3.6,10.64,5,16.67,5.17,1.97.05,3.94-.16,5.91-.15.34,0,.84.46,1,.83,1.35,3.14,2.59,6.33,3.96,9.46.93,2.11,2.16,4.1,2.99,6.25,2.18,5.69,3.22,11.66,3.8,17.71.06.61.31,1.21.58,2.18.81-.75,1.41-1.2,1.89-1.75,4.23-4.93,8.97-9.27,14.58-12.59,4.49-2.66,9.03-5.23,13.51-7.91.87-.52,1.19-.07,1.78.42,6.21,5.24,13.12,8.86,21.35,8.7v-2.72ZM143.93,249.64c.16.05.32.11.48.16-.14.46-.28.93-.43,1.39-.49,1.52-1.08,3.01-1.45,4.56-1.54,6.41.71,12.02,3.87,17.39,1.09,1.84,2.45,3.52,3.62,5.18-.69,1.37-1.24,2.48-1.81,3.6-.07-.02-.22-.01-.25-.07-2.73-5.29-5.44-10.59-8.17-15.88-.64-1.24-.69-2.44-.21-3.8,1.18-3.32,2.21-6.7,3.33-10.04.28-.85.67-1.66,1.01-2.5ZM119.73,280.31c4.58-2.42,9.17-4.79,13.77-7.16.17-.09.4-.08.8-.15-.63,2.28-.89,4.5-3.17,5.77-3.64,2.01-7.22,4.14-11.16,6.42-.37-1.64-.68-2.74-.84-3.87-.04-.31.29-.84.6-1ZM118.61,278.87c-.13-.56-.39-1.12-.36-1.67.08-1.51.67-2.61,2.19-3.34,4.96-2.38,9.85-4.91,14.77-7.38.28-.14.6-.19,1.16-.36-.6,2.25-.83,4.35-3.07,5.5-4.41,2.25-8.77,4.6-13.17,6.88-.45.23-1.01.25-1.53.37ZM131.9,280.15c-.67,2.97-1.32,5.66-4.4,7.01-1.63.72-3.06,1.9-4.75,2.99-.67-1.35-1.25-2.52-1.91-3.86,3.68-2.05,7.27-4.04,11.06-6.14ZM123.97,291.1c1.69-1.1,3.41-2.16,5.12-3.23.11.07.23.15.34.22l-3.03,9.44c-.18.02-.35.05-.53.07-.75-1.89-1.53-3.78-2.24-5.69-.08-.21.12-.69.33-.82ZM130.94,288.57c.13-.02.26-.04.39-.06.79,1.95,1.59,3.89,2.32,5.86.08.22-.19.73-.44.89-1.63,1.08-3.3,2.1-4.96,3.14-.13-.12-.25-.25-.38-.37,1.02-3.16,2.04-6.31,3.06-9.47ZM132.13,285.84c-.3-1.52.79-3.32,1.35-5.37,1.97,4.16,3.71,7.84,5.53,11.69-1.27.66-2.45,1.28-3.89,2.04-1.09-2.89-2.45-5.54-2.99-8.35ZM135.27,280.56c-1.18-2.48-.41-4.68.8-7.37,2.25,4.51,4.35,8.63,6.35,12.79,1.47,3.06,1.28,3.5-1.73,5.35-.04.02-.11,0-.29-.01-.18-.22-.47-.49-.62-.81-1.51-3.31-2.95-6.66-4.51-9.94ZM141.87,281.69c-1.19-2.42-2.19-4.96-3.64-7.22-1.69-2.64-1.27-5.04.13-7.94,1.95,3.78,3.77,7.29,5.58,10.81.88,1.71,1.77,3.42,2.63,5.14,1.05,2.07.52,3.81-1.73,5.24-1-2.02-1.99-4.02-2.98-6.03ZM141.72,249.04c-.02.36.04.74-.06,1.07-1.28,4.04-2.54,8.09-3.91,12.1-.25.72-.81,1.53-1.46,1.88-5.53,2.95-11.12,5.8-16.94,8.81.2-1.49.21-2.55.52-3.52.16-.49.81-.94,1.34-1.17,3.07-1.33,6.35-2.28,9.22-3.94,5.28-3.04,9.18-7.34,10.28-13.65.1-.57.4-1.1,1-1.59ZM108.51,228.8c2.11-1.37,4.18-2.7,7-2.33,1.73.22,3.63-.12,5.33-.63,2.42-.73,4.71-1.85,7.06-2.79.38-.15.76-.29,1.15-.43-.17,3.11-.53,6.07-.44,9.01.06,1.92.59,3.89,1.27,5.71.91,2.42.24,6.78-1.69,8.31-.08-.35-.21-.63-.21-.92,0-5.3,0-10.59.02-15.89,0-.82.12-1.65.2-2.47.18-1.96-.44-2.4-2.28-1.76-5.47,1.89-10.94,3.75-16.42,5.6-.66.22-1.35.36-2.23.23.4-.56.69-1.29,1.22-1.64ZM122.85,241.19c-.01-2.65-.07-5.29-.08-7.94,0-1.32-.43-1.74-1.82-1.3-4.93,1.56-9.9,3.02-14.85,4.51-.31.09-.63.13-1.08.23.15-3.55.28-3.69,3.23-4.65,5.7-1.86,11.4-3.76,17.1-5.64.35-.12.72-.2,1.17-.32.07.34.18.59.17.84-.03,6.18-.07,12.35-.12,18.53-.02,3.02-.19,3.25-3.74,4.56,0-3.04.01-5.93,0-8.81ZM114.97,239.13c-2.88.94-5.77,1.88-8.61,2.91-1.26.46-1.8.24-1.94-1.17-.17-1.64.16-2.54,2-3.04,4.93-1.34,9.79-2.96,14.97-4.57,0,.95-.01,1.64,0,2.33.08,4.36.15,8.72.25,13.08.05,2.48.07,2.48-2.34,2.98-.47.1-.95.17-1.62.29v-13.46c-1.06.25-1.9.39-2.7.65ZM105.82,247.65c-.23-1.13-.48-2.12-.59-3.12-.03-.25.34-.72.62-.81,3.37-1.15,6.76-2.25,10.46-3.47,0,1.28,0,2.3,0,3.32-.02,2.32-.05,4.63-.08,6.95-.02,1.53-.8,2.07-2.86,1.92-1.43-.1-.82-1.18-.79-1.89.06-1.79.22-3.57.36-5.65-2.47.95-4.65,1.8-7.11,2.74ZM111.29,247.09c-.1,1.93-.15,3.56-.31,5.17-.03.3-.52.68-.87.78-1.14.34-2.32.57-3.77.9-.11-1.54-.23-2.94-.28-4.33,0-.23.32-.58.57-.69,1.45-.61,2.92-1.15,4.67-1.83ZM90.94,183.41c.99,1.07,2.54,1.76,3.97,2.23,2.92.96,5.92,1.65,9.07,2.5-1.18,1.36-2.35,2.66-3.46,3.99-2.24,2.68-4.34,5.38-4.8,9.07-.26,2.06-3.89,4.89-6.13,5.06.29-.5.48-.93.75-1.29,3.58-4.84,7.16-9.67,10.77-14.49,1.16-1.55,1.02-2.07-.83-2.64-5.28-1.6-10.55-3.22-15.81-4.86-.93-.29-1.83-.7-2.76-1.48.82-.19,1.65-.61,2.44-.54,2.45.21,4.87.38,6.79,2.45ZM91.07,275.01c.44.36,1.46.31,2.1.08,2.58-.93,5.09-2.05,7.66-2.99.84-.31,1.8-.28,2.7-.41-.28,2.38-.48,4.45-.79,6.5-.05.34-.52.82-.87.89-8.59,1.64-15.96-2.72-17.94-11.86-.3-1.4-.13-2.27,1.52-2.78,1.64-.51,3.1-1.57,4.79-2.46.81,2.83.84,5.65.46,8.49-.11.82-.45,1.63-.4,2.44.04.74.26,1.69.77,2.11ZM88.22,240.31c-.02.44,0,.88,0,1.32q-.02,3.85-3.81,5.68c.36-2.59.69-5.08,1.07-7.56.54-3.49,1.12-6.97,1.68-10.45.21-1.33.89-2.26,2.02-3.04,3-2.06,5.91-4.25,8.87-6.37.63-.45,1.33-.81,2-1.21.09.13.17.27.26.4-.46.33-.89.71-1.37,1-7.68,4.56-10.27,11.82-10.72,20.22ZM45.11,203.89c-.57.6-1.29,1.08-1.75,1.75-.48.71-1.18,1.76-.95,2.33.28.7,1.37,1.25,2.21,1.51,2.46.75,4.99,1.28,7.46,2.01.86.25,1.62.84,2.39,1.26-2.02,1.55-3.89,2.98-6.2,4.74-6.37-2.65-10.94-9.92-7.36-19.05.14-.36.34-.7.46-1.06.42-1.36,1.05-1.71,2.55-1.19,1.67.59,3.52.64,5.49.96-1.03,2.54-2.45,4.78-4.31,6.75ZM46.7,206.45c-.01.1-.02.05,0,0h0ZM46.77,206.36c3.37-3.44,5.27-7.78,7.25-12.06,2.57-5.53,5.67-10.79,9.65-15.37,4.22-4.87,9.31-8.51,16.34-7.76.22.02.44,0,.66,0,.86.02,2.18-.29,2.49.13.76,1.06,1.07,2.45,1.55,3.69-1.54.37-2.83.61-4.07.99-6.65,2.05-11.15,6.41-13.69,12.86-1.85,4.68-4.96,8.58-7.95,12.54-.36.47-.67.97-1.17,1.71,1.85.61,3.47,1.27,5.15,1.67,4.24,1.03,8.03,3.01,11.79,5.14,6.94,3.93,13.95,3.77,21.28.04.36,1.22.75,2.49,1.08,3.78.05.18-.16.52-.35.64-2.15,1.42-4.23,3-6.53,4.14-1.4.7-3.13.75-4.72,1.06-5.95,1.14-11.37-.9-16.67-3.08-4.17-1.71-8.13-3.94-12.23-5.84-3.2-1.49-6.47-2.83-9.85-4.29ZM43.13,127.57c1.69,2.23,3.55,4.33,5.27,6.54.48.62.68,1.46.97,2.11-2.28.48-4.41.94-6.54,1.34-.28.05-.78-.19-.91-.44-4.75-8.64-1.7-17.92,6.58-21.25,2.13,1.85,3.89,3.38,5.72,4.97-1.9,1.33-4.39,2.12-6.96,2.72-.91.21-1.89.16-2.76.45-.76.25-1.77.69-2.01,1.3-.23.6.2,1.66.66,2.28ZM47,126.58c-.12.06.14-.1.42-.2,2.68-.99,5.51-1.68,8-3.01,6.73-3.6,13.48-7.15,20.92-8.99,6.16-1.52,12.26-1.56,17.6,2.75.21.17.44.34.66.5,2.92,2.19,2.93,2.24,1.4,5.7-1.63-.6-3.25-1.24-4.89-1.78-5.08-1.69-10.15-1.27-14.76,1.19-5.53,2.95-11.15,5.53-17.2,7.17-.36.1-.69.3-1.28.56,1.26,1.73,2.54,3.3,3.61,5,1.88,2.97,4.02,5.87,5.38,9.08,3.36,7.92,9.13,12.47,17.84,13.85-.5,1.4-.97,2.67-1.4,3.89-2.31,0-4.53.22-6.69-.04-5.52-.67-9.67-3.86-13.09-7.95-4.34-5.19-7.54-11.12-10.53-17.18-1.77-3.58-3.93-6.96-5.96-10.53ZM90.8,68.52c.03.95-.31,1.91-.47,2.84-2.23-1.01-4.19-1.87-6.1-2.8-.26-.13-.5-.7-.45-1.03,1.49-9.8,8.44-14.6,17.84-13.23.42.06,1.04.53,1.1.88.34,2.1.54,4.23.81,6.51-2.57-.02-5.05-.82-7.47-1.87-.96-.42-1.82-1.1-2.8-1.4-.7-.22-1.74-.3-2.23.08-.5.38-.74,1.41-.71,2.14.09,2.63.4,5.26.49,7.9ZM98.81,113.17c.43.23.81.57,1.2.88.12.1.19.25.28.38-.06.12-.11.24-.17.36-.45-.24-.94-.42-1.35-.71-3.27-2.34-6.56-4.67-9.76-7.1-.73-.56-1.49-1.48-1.64-2.33-1.06-5.97-1.96-11.96-2.91-17.95-.02-.14.07-.29.12-.46,1.06.5,2.15.87,3.08,1.5.37.25.47,1.04.5,1.6.19,3.67-.06,7.33,1.07,10.97,1.71,5.48,4.37,10.08,9.58,12.87ZM98.84,116.62c-.11.13-.23.25-.34.38-.77-.56-1.56-1.08-2.29-1.68-3.33-2.72-6.94-4.3-11.42-4.43-4.16-.12-8.08.16-11.92,1.79-.85.36-1.8.49-2.73.64-.33.05-.81-.03-1.04-.24-.83-.77-1.58-1.61-2.57-2.65,2.01-.3,3.88-.56,5.74-.85,4.3-.66,8.58-1.38,12.89-1.95.79-.1,1.8.14,2.46.6,3.48,2.42,6.88,4.95,10.3,7.46.35.25.61.62.91.93ZM85.49,103.12c.05.32,0,.65,0,1.09-3.12-1.31-4.38-3.6-4.77-6.71-.53-4.26-1.36-8.49-2.08-12.73-.21-1.22.17-1.72,1.41-1.28,1.57.55,2.71,1.28,2.96,3.27.69,5.47,1.64,10.91,2.47,16.36ZM79.54,97.8c.12.69.12,1.4.2,2.3-3.65-1.26-4.85-3.98-5.44-7.13-.54-2.87-1.03-5.75-1.6-8.61-.25-1.24.22-1.65,1.39-1.48.16.02.33.05.49.05,1.81-.04,2.62.66,2.86,2.64.5,4.1,1.39,8.15,2.09,12.22ZM73.54,95.83c-2.02-1.6-4.46-2.33-5-5.19-.41-2.19-1.1-4.33-1.63-6.36.2-.21.23-.28.28-.29,3.64-1.15,3.79-1.03,4.49,2.68.56,2.95,1.19,5.89,1.86,9.16ZM67.04,90.65c-.12.11-.23.21-.35.32-2.64-1.95-5.29-3.89-7.93-5.84l.1-.54c1.94-.13,3.88-.3,5.83-.38.28-.01.77.31.85.57.55,1.94,1.02,3.91,1.51,5.87ZM65.76,92.2c-.03.14-.05.27-.08.41-2.06.11-4.11.24-6.17.3-.24,0-.66-.29-.72-.52-.53-1.88-1-3.78-1.49-5.67.15-.1.3-.21.44-.31,2.67,1.93,5.35,3.86,8.02,5.79ZM67.83,94.18c1.59.2,3.02,1.72,4.53,2.64-.06.16-.12.32-.18.47-2.53.32-5.07.64-7.6.97-1.08.14-2.17.26-3.25.47-1.04.2-1.73.05-1.78-1.2-.04-.92-.16-1.85-.27-3.11,2.93-.13,5.8-.59,8.56-.24ZM61.46,99.87c4.16-.41,8.31-.86,12.48-1.12,2.07-.13,3.15,1.69,4.56,3.08-1.11.21-2.21.46-3.33.62-4.14.59-8.28,1.18-12.43,1.7-.47.06-1.28-.18-1.46-.52-.51-1-.81-2.11-1.09-3.21-.02-.08.8-.5,1.26-.54ZM72,104.22c1.79-.27,3.68-.27,5.36-.86,3.07-1.08,4.76.99,6.83,2.29,0,.16,0,.31-.01.47-2.13.35-4.27.7-6.4,1.06-3.69.61-7.38,1.25-11.07,1.83-2.15.34-3.7-.78-4.41-3.31,3.32-.5,6.52-.99,9.71-1.47ZM77.83,136.86c-1.69-2.05-3.21-3.88-4.87-5.89,1.03-.57,1.81-1.07,2.65-1.42.3-.12.92,0,1.1.23,2.14,2.85,4.23,5.74,6.52,8.87-3.69,1.17-7.13,2.28-10.58,3.32-.26.08-.82-.26-1-.55-.45-.74-.77-1.56-1.25-2.59,2.55-.67,4.82-1.27,7.42-1.95ZM67.32,133.37c1.2-.51,2.39-1.06,3.63-1.5.3-.11.88.07,1.1.31,1.02,1.14,1.96,2.36,3.11,3.77-.82.26-1.33.44-1.85.58q-4.12,1.1-5.99-3.17ZM85.54,139.39c-2.77-3.83-5.31-7.32-8.03-11.07,1.14-.5,2.05-.99,3.02-1.27.34-.1,1.01.18,1.23.49,3.13,4.4,6.2,8.84,9.28,13.28.05.08.03.21.06.53-5.26,1.82-10.45,3.64-15.66,5.38-.37.12-1.08-.17-1.35-.51-.57-.71-.94-1.58-1.54-2.63,4.37-1.41,8.5-2.75,12.98-4.2ZM86.36,144.56c1.77-.61,3.54-1.22,5.3-1.86,1.83-.66,1.89-.83.8-2.39-2.74-3.93-5.51-7.86-8.26-11.79-.37-.53-.7-1.08-1.08-1.65,3.22-1.07,3.62-.92,5.48,1.61,3.55,4.85,7.12,9.68,10.68,14.53.22.3.38.64.68,1.14-1.03.28-1.92.5-2.79.78-5.2,1.65-10.41,3.28-15.58,5-2.97.98-3.16.98-5.39-1.85,3.43-1.18,6.79-2.34,10.16-3.51ZM58.16,151.95c2.33,2.63,4.4,5.55,6.99,7.88,4.38,3.92,9.54,6.08,15.62,5.23.65-.09,1.34.04,2.01.08.01.15.02.3.03.45-.5.07-.99.2-1.49.2-4.14.02-8.28.05-12.42-.01-.71-.01-1.62-.24-2.1-.71-4.47-4.4-8.86-8.88-13.34-13.4,1.2-.25,2.33-.59,3.48-.66.38-.03.87.56,1.21.95ZM65.17,165.11c-.15.25-.3.5-.46.76-1.97.09-4.01.46-5.68-1.13-3.67-3.51-7.32-7.04-10.95-10.59-.36-.35-.82-1.11-.68-1.35.26-.44.91-.75,1.45-.91,1.41-.4,2.57-.07,3.7,1.05,4.14,4.12,8.4,8.12,12.61,12.16ZM57.17,165.08c.17.17.27.42.52.82-2.15.16-4.15.65-5.83-.83-3.19-2.8-6.33-5.65-9.49-8.49-.15-.13-.2-.37-.4-.78,1-.61,1.93-1.29,2.96-1.76.38-.17,1.15-.01,1.45.29,3.63,3.55,7.2,7.15,10.79,10.75ZM50.18,165.9c-2.62-.07-5.04.83-7.17-1.36-1.51-1.55-3.34-2.8-5.19-4.32,1.13-1.06,2.07-1.94,3.14-2.94,2.98,2.78,5.97,5.58,9.23,8.62ZM42.27,165.83h-10.38c-.06-.14-.11-.27-.17-.41,1.57-1.32,3.12-2.66,4.71-3.95.14-.11.57-.05.74.09,1.63,1.33,3.23,2.7,5.1,4.27ZM31.97,167.57h10.31c-1.97,1.66-3.58,3.03-5.22,4.37-.15.13-.59.12-.75,0-1.56-1.28-3.08-2.59-4.61-3.9.09-.16.18-.31.26-.47ZM45,167.7c1.28-.7,3.26-.12,5.14-.12-3.18,2.96-6.17,5.75-9.37,8.74-.91-1.05-1.76-2.03-2.86-3.31,2.3-1.78,4.5-3.89,7.09-5.31ZM53.13,167.69c1.12-.61,2.79-.22,4.67-.3-.54.73-.8,1.18-1.15,1.53-3.16,3.16-6.38,6.25-9.47,9.47-1.12,1.16-2.08,1.39-3.35.38-.55-.44-1.17-.77-2.07-1.35,3.82-3.46,7-7.31,11.38-9.72ZM48.01,179.35c3.47-3.4,7.01-6.72,10.4-10.19,1.85-1.9,4.03-1.5,6.19-1.6.15.22.29.45.44.67-1.11.98-2.27,1.9-3.32,2.94-3.13,3.1-6.21,6.27-9.34,9.38-1.61,1.6-3.33,1.61-5.37.01.34-.4.64-.84,1.01-1.2ZM60.21,174.76c2.17-2.12,4.3-4.28,6.52-6.34.47-.44,1.25-.78,1.89-.78,4.25-.05,8.5,0,12.75.02.47,0,.93.08,1.4.13,0,.15.02.3.03.45-.53.05-1.06.12-1.59.14-2.15.08-4.34-.13-6.43.26-5.61,1.06-9.84,4.46-13.47,8.67-1.22,1.42-2.21,3.04-3.42,4.47-.31.36-1.06.49-1.6.48-.92-.02-1.84-.23-3.38-.45,2.63-2.55,4.96-4.79,7.28-7.05ZM77.8,196.56c-2.54-.67-4.8-1.26-7.39-1.94.5-1.04.87-2,1.41-2.84.16-.25.89-.31,1.27-.19,3.26,1.01,6.5,2.07,10.12,3.24-1.72,2.37-3.3,4.53-4.88,6.7-.33.45-.72.85-.97,1.34-.72,1.38-1.64,1.37-2.78.54-.43-.31-.91-.56-1.56-.96,1.6-1.98,3.11-3.83,4.78-5.9ZM72.07,201.26c-.22.25-.8.42-1.11.32-1.23-.42-2.42-.97-3.77-1.53.77-1.26,1.42-2.4,2.17-3.46.19-.27.78-.48,1.11-.4,1.48.32,2.94.76,4.74,1.25-1.2,1.48-2.13,2.69-3.14,3.83ZM85.55,194.05c-4.42-1.44-8.56-2.78-12.97-4.21.6-1.05,1.03-1.98,1.64-2.79.21-.28.91-.46,1.27-.34,5.21,1.74,10.41,3.53,15.84,5.4-.41.66-.68,1.16-1.01,1.64-2.52,3.62-5.05,7.23-7.58,10.83-1.66,2.36-2.55,2.43-5.05.3,2.54-3.49,5.08-6.99,7.87-10.83ZM93.58,191.46c-6.01-2.09-11.68-4.06-17.41-6.05,1.95-2.72,2.55-2.88,5.41-1.96,5.82,1.88,11.66,3.69,17.49,5.54.25.08.48.23.88.41-1.68,2.28-3.3,4.48-4.92,6.69-2.18,2.98-4.36,5.97-6.52,8.96-1.76,2.42-2.18,2.56-5.47,1.53,3.46-4.96,6.88-9.86,10.55-15.12ZM98.5,216.42c.12.14.24.28.36.41-.43.41-.82.88-1.3,1.23-3.26,2.37-6.48,4.79-9.83,7.01-.87.58-2.2.87-3.23.72-5.18-.73-10.34-1.66-15.5-2.51-.74-.12-1.48-.21-2.36-.34.92-.98,1.63-1.81,2.43-2.53.26-.24.8-.32,1.17-.25.75.13,1.52.34,2.22.65,4.93,2.18,10.16,2.3,15.27,1.46,2.69-.45,5.18-2.24,7.69-3.57,1.12-.59,2.07-1.51,3.09-2.29ZM66.44,224.44c5.66.85,11.31,1.81,16.96,2.74.21.03.39.18.59.27-.99,1.79-3.43,2.99-5.3,2.71-4.9-.73-9.8-1.42-14.7-2.13-.53-.08-1.06-.23-1.7-.37.87-2.52,2.08-3.53,4.14-3.22ZM64.82,229.54c4.03.64,8.06,1.22,12.09,1.84.43.07.84.23,1.5.42-1.86,1.94-3.53,3.38-6.29,2.93-3.64-.59-7.34-.86-11.01-1.26-1.07-.12-1.25-.63-.81-1.59,1.33-2.87,1.31-2.85,4.51-2.34ZM72.3,236.3c-2.18,2.29-4.36,3.96-7.72,3.11-1.66-.42-3.47-.29-5.43-.43.25-1.46.47-2.78.74-4.37,4.2.57,8.24,1.12,12.4,1.68ZM59.59,240.53c2.02.06,4.04.17,6.06.27.06.16.12.32.18.48-2.68,1.94-5.37,3.87-8.05,5.81-.18-.12-.35-.23-.53-.35.51-1.92,1.01-3.85,1.57-5.75.06-.21.51-.46.77-.45ZM66.71,242.47c.12.08.25.15.37.23-.51,2-1,4-1.58,5.98-.08.27-.67.58-1.02.56-1.86-.08-3.71-.26-5.57-.41-.09-.17-.17-.34-.26-.5,2.68-1.95,5.36-3.9,8.04-5.85ZM69.24,241.03c.68-1.44,2.61-2.29,4.31-3.67-.73,3.88-1.36,7.22-1.98,10.55-.42,2.24-.42,2.25-2.63,1.96-.64-.08-1.27-.22-2.22-.39.83-2.94,1.3-5.87,2.52-8.44ZM72.99,247.74c.58-3.19,1.36-6.35,1.92-9.55.48-2.71,2.57-3.74,4.99-5.2-.95,5.73-1.84,10.98-2.67,16.24-.17,1.1-.92,1.04-1.69,1.14-3.05.4-3.1.39-2.55-2.61ZM80.37,238.06c.22-1.31.52-2.6.77-3.89.47-2.46,1.61-3.78,4.56-4.94-.51,3.3-.98,6.33-1.45,9.37-.44,2.83-.9,5.66-1.35,8.49-.24,1.48-1.93,3.07-3.38,3-.32-.01-.9-.77-.86-1.11.51-3.65,1.11-7.29,1.72-10.92ZM101.61,142.62c.7.9,1.54,1.69,2.48,2.71-3,.77-5.78,1.27-8.39,2.24-1.96.72-3.85,1.85-5.5,3.14-2.05,1.6-6.25,2.33-8.53.91.73-.3,1.29-.57,1.89-.76,5.51-1.74,11.02-3.49,16.55-5.18,2.08-.64,2.23-1.09.93-2.8-3.53-4.66-7.01-9.35-10.5-14.04-.35-.47-.63-1-.73-1.83.73.27,1.63.35,2.16.83,1.79,1.65,3.77,3.12,4.14,5.91.48,3.71,3.35,6.11,5.49,8.87ZM112.98,88.54c-.18-2.15-.4-3.99-.45-5.83-.01-.57.32-1.53.7-1.65,1.25-.4,2.94.4,2.96,1.3.06,3.51.02,7.02.02,10.79-3.61-1.19-7.05-2.3-10.47-3.47-.25-.09-.52-.61-.49-.89.09-.92.32-1.82.54-2.97,2.4.91,4.62,1.75,7.19,2.73ZM106.52,79.54c1.25.3,2.52.56,3.76.95.32.1.7.57.73.91.15,1.53.19,3.06.29,4.88-.87-.31-1.43-.51-1.99-.71-3.78-1.4-3.94-1.72-2.79-6.03ZM117.65,95.07c0-1.39,0-2.42,0-3.44-.01-2.93,0-5.85-.06-8.78-.02-1.06.45-1.35,1.42-1.22,2.33.32,2.61.7,2.56,3.19-.09,4.3-.13,8.61-.18,12.91,0,.71,0,1.42,0,2.35-.95-.27-1.67-.47-2.38-.68-4.01-1.22-8.01-2.44-12.02-3.65-2.89-.87-3.18-1.48-2.04-4.77,4.13,1.32,8.27,2.65,12.71,4.08ZM106.57,97.12c4.64,1.42,9.27,2.86,13.91,4.27,2.03.61,2.22.5,2.28-1.58.12-4.8.16-9.6.24-14.4,0-.58.07-1.17.11-1.78,3,.85,3.49,1.46,3.49,4.19v19.49c-.37-.07-.72-.09-1.05-.2-6.18-2.02-12.34-4.11-18.54-6.06-2.22-.7-1.51-2.66-2.45-4.37.91.2,1.48.28,2.01.44ZM130.04,95.34c-1.77,3.7-1.47,7.4-1.27,11.19.07,1.32.31,2.62.51,4.26-.66-.2-1.18-.33-1.68-.51-3.05-1.1-6.09-2.25-9.16-3.3-.7-.24-1.6-.36-2.28-.15-2.78.88-4.93-.63-7.13-1.8-.74-.39-1.21-1.28-1.81-1.94.09-.12.18-.24.27-.37.62.15,1.26.25,1.87.45,5.43,1.84,10.87,3.67,16.28,5.56,2.19.76,2.63.42,2.58-1.87-.13-5.91-.18-11.81-.24-17.72,0-.41.11-.82.2-1.44.41.32.73.45.87.7,1.28,2.18,2.02,4.8,1,6.94ZM135.56,88.49c-.66-1.15-1.18-2.23-1.85-3.2-4.05-5.87-9.61-9.02-16.77-9.43-4.74-.27-9.16-1.87-13.58-3.47-.81-.29-1.66-.47-2.85-.8,0,2.08.1,3.93-.02,5.77-.24,3.67-.23,7.41-1.01,10.98-1.08,4.94-.93,9.71,1.04,14.26,1.02,2.36,2.92,4.35,4.46,6.49.21.29.61.43,1.11.77-1.44.97-2.56,1.74-3.72,2.53-1.75-1.29-3.6-2.41-5.16-3.85-4.41-4.07-5.85-9.39-6.14-15.18-.4-8.23,1.13-16.25,2.45-24.31.37-2.24.06-4.59.06-6.92.21-.02.39-.11.51-.05,4.37,2.26,9.19,2.61,13.94,3.22,6.1.78,12.12,2.11,17.72,4.55,5.84,2.54,10.77,6.34,12.08,13.24.17.9.64,1.74,1.04,2.8-1.04.82-2.15,1.69-3.32,2.62ZM143.45,45.36c-2.37,4.82-4.79,9.62-7.38,14.78-1.35-2.77-1.94-5.08-.69-7.62,1.52-3.1,2.89-6.29,4.31-9.44.5-1.11,1.12-1.23,1.97-.35.5.51,1.1.94,1.54,1.49.22.28.39.86.25,1.14ZM144.14,47.15c.24-.47.54-.91.81-1.37,2.17,1.36,2.71,3.1,1.66,5.16-2.51,4.9-5.04,9.79-7.57,14.68-.17.33-.39.64-.76,1.23-1.21-2.67-1.76-4.88-.32-7.46,2.24-3.98,4.12-8.16,6.17-12.24ZM133.59,52.97c-.76-2.74-2.34-4.93-.82-7.65.79-1.42,1.27-3.04,1.78-4.6.41-1.25,1.03-1.39,2.07-.73.74.46,1.53.83,2.36,1.27-1.82,3.95-3.52,7.64-5.39,11.71ZM133.57,39.36c-.69,1.89-1.47,3.74-2.6,5.64-1.04-3.21-2.09-6.42-3.13-9.63.15-.12.29-.24.44-.36,1.69,1.07,3.4,2.11,5.04,3.24.24.16.36.8.25,1.11ZM129.46,45.41c-.1.08-.2.15-.3.23-1.7-1.07-3.43-2.12-5.09-3.24-.26-.18-.48-.8-.38-1.09.64-1.84,1.38-3.65,2.09-5.47.21,0,.42.02.63.02,1.02,3.19,2.04,6.37,3.05,9.56ZM129.06,47.26c2.19,1.37,1.99,3.86,3.14,6.17-3.81-2.08-7.25-3.94-10.64-5.87-.26-.15-.42-.89-.29-1.22.39-1,.96-1.93,1.55-3.07,2.28,1.46,4.26,2.74,6.26,3.99ZM132.52,55.92c1.09.77,1.29,2.8,2.07,4.65-.81-.26-1.21-.33-1.55-.5-4.07-2.09-8.09-4.28-12.22-6.24-1.59-.75-1.99-1.64-1.45-3.18.21-.61.35-1.25.69-2.5,4.39,2.69,8.57,5.02,12.45,7.78ZM119.68,54.71c4.55,2.36,9.09,4.75,13.65,7.09,2.22,1.14,2.44,3.27,3.14,5.78-6.02-3.03-11.62-5.82-17.18-8.7-1.04-.54-1.27-2.84-.65-4.49.35.1.73.15,1.05.31ZM141.41,84.5c-.18-.44-.39-.88-.55-1.34-.61-1.77-1.04-3.62-1.84-5.29-2.59-5.44-7.36-8.46-12.6-10.85-1.59-.73-3.32-1.17-5.01-1.68-1.01-.3-1.62-.71-1.57-1.93.04-.83-.31-1.68-.54-2.82,1.51.74,2.79,1.35,4.04,1.99,4.17,2.13,8.37,4.21,12.47,6.48.89.49,1.67,1.59,2.03,2.58,1.26,3.47,2.31,7.01,3.43,10.53.23.71.41,1.43.62,2.15-.16.06-.32.12-.47.17ZM149.29,56.12c-1.99,3.03-4.31,5.8-5.54,9.35-1.91,5.48-2.47,10.82.08,16.22.28.6.36,1.29.53,1.94-.19.04-.37.09-.56.13l-2.89-8.77c-.16-.47-.24-.98-.48-1.41-1.56-2.9-1.19-5.61.39-8.44,2.51-4.46,4.78-9.06,7.27-13.82.66,1.26,1.29,2.25,1.69,3.33.14.38-.21,1.03-.49,1.45ZM106.66,47.84c1.5-4.36,3.25-8.65,4.91-12.96,2.08-5.42,4.24-10.8,6.24-16.25.54-1.47.62-3.12.87-4.69.14-.86.19-1.73.33-3.02.79.77,1.35,1.25,1.83,1.79,3.7,4.2,8.3,7.2,13.06,10.01,4.92,2.91,9.78,5.94,14.6,9.01,2.85,1.81,5.52,3.9,7.28,6.86,1.14,1.93,2.12,3.96,3.12,5.98.13.26.06.82-.14,1.02-1.54,1.49-3.13,2.92-4.82,4.49-.45-.97-1.01-1.93-1.36-2.96-1.7-5.04-5.81-7.81-10-10.36-4.46-2.72-9.17-5-13.7-7.6-1.7-.98-3.19-2.33-4.97-3.66-.23.53-.49.93-.59,1.36-1.4,5.85-4.16,11.14-6.9,16.4-1.93,3.69-2.99,7.6-3.67,11.59-.32,1.91.43,4.01.73,6.02.11.76.3,1.5.52,2.6-2.4-.43-4.6-.8-6.79-1.24-.22-.04-.43-.46-.52-.75-1.48-4.54-1.58-9.13-.03-13.64ZM82.69,49.87c6.26-5.39,13.88-6.12,22.17-5.73-.56,1.57-.93,2.92-1.57,4.14-.18.34-1.15.3-1.76.35-2.95.22-6,0-8.83.69-7.7,1.87-11.87,7.36-13.93,14.7-.93,3.34-1.49,3.68-5.46,2.87,1.55-6.57,4.19-12.55,9.38-17.01ZM40.46,76.8c-.59-1.36-1.35-2.64-2.04-3.96-.35-.66-.71-1.32-1.26-2.32.95.08,1.44.06,1.91.16,6.33,1.45,12.61.87,19.03.22,7.04-.71,14.17-1.73,21.28-.6,3.5.55,6.84,1.71,9.68,3.95.32.25.62.82.58,1.19-.25,2.01-.62,4.01-1,6.34-1.55-.87-2.85-1.81-4.29-2.37-1.92-.75-3.91-1.39-5.93-1.77-4.2-.77-8.3.19-12.46.75-4.83.64-9.75.63-14.63.9-.53.03-1.05.08-1.64.12,0,.39-.06.62,0,.8,2.43,6.77,3.58,13.83,4.99,20.85.77,3.83,1.89,7.75,4.73,10.74,1.32,1.39,2.84,2.58,4.53,4.09-2.2,1.08-4.19,2.07-6.2,3.01-.19.09-.58-.03-.75-.19-1.58-1.52-3.34-2.91-4.66-4.63-4.09-5.35-5.43-11.76-6.92-18.16-1.5-6.41-2.29-13.03-4.95-19.14ZM31.04,121.72c2.3-7.11,7.59-11.94,14.14-15.99.48,1.54.97,2.81,1.21,4.12.06.36-.58.93-1,1.27-2.21,1.79-4.76,3.27-6.63,5.36-5.44,6.06-5.79,13.08-3.06,20.44,1.26,3.39,1.06,3.93-2.64,5.68-2.88-6.78-4.31-13.78-2.01-20.89ZM23.7,179.46c-.97-.78-1.6-1.99-2.56-2.79-3.96-3.3-7.86-6.73-12.79-8.61-.41-.16-.81-.37-1.18-.59-.32-.19-.6-.44-1.21-.9,1.19-.56,2.17-.98,3.12-1.46,5-2.54,9.4-5.84,13.43-9.78,3.54-3.45,7.49-6.5,11.37-9.58,2.94-2.33,6-4.57,9.75-5.43,2.08-.48,4.21-.75,6.34-1,.41-.05,1.07.35,1.29.74.99,1.71,1.86,3.49,2.93,5.55-1.41.17-2.54.43-3.67.43-5.02.03-8.76,2.86-12.28,5.86-4.24,3.61-8.15,7.59-12.28,11.33-1.37,1.24-2.95,2.24-4.4,3.33.05.2.04.34.1.4,3.36,2.76,6.73,5.5,10.09,8.27.81.67,1.66,1.32,2.31,2.12,2.9,3.57,6.59,6.13,10.47,8.51,2.46,1.51,5.21,1.26,7.84,1.71.48.08.98.11,1.87.2-1.15,2.14-2.19,4.1-3.28,6.02-.12.21-.58.32-.88.31-1.32-.05-2.72.09-3.95-.29-3.19-.98-6.47-1.77-9.19-3.96-4.37-3.52-8.87-6.9-13.26-10.41ZM30.95,211.37c-2.19-7.04-.6-13.86,2.12-20.8,1.28.96,2.35,1.64,3.24,2.5.28.27.32,1.11.13,1.54-1.89,4.11-2.59,8.32-2.08,12.87.52,4.58,2.91,8.04,5.94,11.13,1.52,1.55,3.54,2.59,5.29,3.92.36.27.78.87.71,1.23-.23,1.22-.67,2.41-1.12,3.93-6.63-4.04-11.94-8.96-14.22-16.31ZM58.97,262.66c-4.35-.59-8.65-.96-13.01-.79-2.13.08-4.25.48-6.37.75-.69.09-1.38.21-2.42.37.4-.82.6-1.38.92-1.87,2.97-4.51,4.34-9.65,5.46-14.8,1.44-6.6,2.66-13.23,4.91-19.65,1.62-4.63,4.1-8.48,7.9-11.54.76-.61,1.34-.75,2.21-.27,1.67.93,3.4,1.77,5.29,2.74-1.56,1.42-3.02,2.67-4.39,4.02-.7.68-1.4,1.45-1.82,2.32-1.78,3.74-2.95,7.62-3.65,11.77-.95,5.67-2.62,11.23-4.06,16.81-.27,1.04-.54,1.76.95,1.66,6.49-.44,12.87.54,19.22,1.62,3.79.64,7.53.33,11.18-.39,2.13-.42,4.03-1.96,6.04-2.99.37-.19.77-.35,1.36-.62.35,2.24.69,4.2.92,6.17.05.39-.2.99-.51,1.22-3.81,2.75-8.11,4.31-12.79,4.28-5.78-.03-11.62-.02-17.33-.79ZM99.02,289.31c-6.03-.45-11.77-1.71-16.5-5.91-4.73-4.21-7.12-9.72-8.98-15.55-.34-1.07.06-1.59,1.15-1.63.44-.01.89.06,1.32.02,1.59-.13,2.29.54,2.56,2.17.71,4.32,2.75,8.05,5.85,11.1,4.31,4.25,9.7,5.73,15.61,5.47,3.35-.15,3.35-.27,4.36,2.91.1.31.17.64.38,1.44-2.06,0-3.91.12-5.75-.02ZM101.31,269.17c-2.58.37-5.07,1.35-7.68,2.08.04.05-.09-.04-.08-.1.85-5.32-.92-10.38-1.46-15.57-.61-5.74-1.31-11.58-.92-17.3.44-6.35,2.81-12.16,8.98-15.49.75-.41,1.36-1.1,2.16-1.76,1.13.76,2.29,1.54,3.63,2.44-.75.72-1.44,1.26-1.98,1.92-4.43,5.45-6.17,11.59-4.62,18.53.98,4.39,1.52,8.8,1.17,13.31-.11,1.41-.02,2.84-.02,4.64,1.42-.41,2.5-.61,3.5-1.02,4.69-1.92,9.59-2.79,14.6-3.4,7.81-.94,13.35-5.26,16.92-12.47,1.12.85,2.23,1.7,3.31,2.53-.64,1.97-1.12,3.89-1.86,5.7-2.37,5.72-7.1,8.84-12.59,10.94-7.42,2.85-15.25,3.9-23.06,5.02ZM136.54,309.54c-2.03,1.31-4.38,2.11-6.36,3.47-3.7,2.56-7.55,5.01-10.28,8.74-.12.17-.34.27-.76.59-.16-.75-.4-1.35-.41-1.94-.04-4.46-1.72-8.53-3.25-12.58-1.96-5.19-4.5-10.15-6.56-15.31-1.83-4.6-3.64-9.29-3.22-14.4.17-2.07.62-4.12,1-6.16.06-.3.41-.71.69-.77,2.08-.41,4.18-.75,6.6-1.17-.4,1.93-.88,3.52-1.02,5.13-.15,1.73-.18,3.51.07,5.22.68,4.53,2.56,8.63,4.87,12.56.69,1.17.98,2.56,1.52,3.83,1.52,3.58,3.07,7.14,4.65,10.81.11-.04.43-.1.67-.29,5.15-3.91,10.81-6.96,16.5-10.01,3.25-1.74,6.09-4.3,8.97-6.67.87-.72,1.31-2.01,1.84-3.09.68-1.37,1.26-2.79,1.9-4.25,1.7,1.62,3.29,3.11,4.84,4.65.17.17.18.63.09.89-1.48,4.46-4.01,8.26-7.82,10.99-4.74,3.4-9.63,6.59-14.53,9.75Z"
    fill="#010101" />
  <path
    d="M170.36,320.99c-.21-.15-.44-.25-.6-.23-.44.06-.99.5-1.18.92-.78,1.7-1.56,3.41-2.14,5.19-1.06,3.28-.53,4.66,2.29,6.6h1.63v-12.48Z"
    fill="#010101" />
  <path
    d="M170.36,0h-1.63c-2.67,1.81-3.35,3.32-2.46,5.92.66,1.92,1.43,3.81,2.25,5.67.21.47.81,1.07,1.22,1.06.19,0,.41-.13.62-.29V0Z"
    fill="#010101" />
  <path
    d="M14.74,201.28c2.33.23,4.74,1.72,7.13,3.17.93.56.67,2.05-.41,2.38-2.41.75-4.85,1.58-7.33,1.91-3.11.42-5.07-2.11-4.21-5.03.48-1.63,1.75-2.35,4.82-2.43"
    fill="#010101" />
  <path
    d="M71.9,283.82c.52.34,1.24.57,1.49,1.05.22.4.08,1.23-.22,1.63-1.3,1.78-2.61,3.58-4.11,5.19-2.47,2.65-5.88,1.96-6.92-1.3-.55-1.73.58-3.93,2.87-4.78,2.15-.8,4.46-1.18,6.88-1.79"
    fill="#010101" />
  <path
    d="M26.33,221c1.31.36,2.08,1.29,1.49,2.39-1.2,2.27-2.4,4.62-4.07,6.53-1.9,2.16-4.56,1.88-5.99-.13-1.24-1.74-1.27-3.67.52-4.8,2.52-1.59,5.35-2.68,8.05-3.99"
    fill="#010101" />
  <path
    d="M161.94,323.52c-.05,1.16-.02,2.33-.17,3.47-.44,3.44-3.04,4.83-5.97,3.25-1.77-.96-2.39-3.53-.93-5.67,1.38-2.03,3.17-3.81,4.93-5.54.91-.89,2.22-.14,2.3,1.19.03.55-.03,1.1-.06,1.65-.03.55-.07,1.1-.11,1.65"
    fill="#010101" />
  <path
    d="M89.09,302.06c-.28.87-.51,2.15-1.08,3.24-1.06,2.02-2.46,2.41-4.56,1.57-1.65-.66-2.77-2.43-1.98-4.18,1.22-2.67,2.87-5.16,4.53-7.6.64-.94,1.65-.47,2.16.89.12.31.21.63.25.96.22,1.58.42,3.16.68,5.12"
    fill="#010101" />
  <path
    d="M17.49,213.1c1.49.13,2.98.21,4.45.41.44.06,1.1.36,1.18.67.11.43-.08,1.15-.42,1.44-1.74,1.52-3.54,2.98-5.38,4.38-.5.38-1.2.58-1.84.7-2.08.4-4.03-.81-4.5-2.71-.46-1.86.74-3.96,2.73-4.5,1.21-.33,2.49-.37,3.74-.55,0,.05.02.1.03.15"
    fill="#010101" />
  <path
    d="M73.98,302.6c-3.08-.41-4.7-3.37-3.23-5.98.42-.74,1.06-1.44,1.76-1.93,1.66-1.18,3.38-2.28,5.15-3.3,1.19-.69,2.16-.22,1.88.92-.71,2.86-1.54,5.71-2.7,8.41-.37.87-1.88,1.26-2.87,1.87"
    fill="#010101" />
  <path
    d="M154.57,316.7c-1,2.65-1.86,5.38-3.06,7.93-.9,1.9-2.66,2.15-4.47,1.02-1.6-1.01-2.22-2.96-.94-4.39,1.89-2.11,4.05-4,6.24-5.81,1.05-.87,1.89-.26,1.83,1.1.13.05.26.1.39.15"
    fill="#010101" />
  <path
    d="M17.49,198.75c-1.26-.18-2.47-.28-3.66-.52-1.76-.37-2.73-1.72-2.51-3.33.26-1.9,1.52-3.19,3.31-2.97,3.42.41,6.12,2.39,8.57,4.62.71.64.34,1.52-.68,1.67-1.69.25-3.4.37-5.04.53"
    fill="#010101" />
  <path
    d="M66.45,276.5c.98.34,2,.69,3.02,1.05-.62.9-1.07,2.03-1.9,2.65-1.78,1.35-3.66,2.62-5.67,3.57-1.95.92-3.37.05-4.06-2.02-.58-1.75.25-3.49,2.14-3.99,2.06-.54,4.19-.83,6.47-1.26"
    fill="#010101" />
  <path
    d="M27.27,238.59c-.93-.8-2.17-1.43-2.66-2.43-.39-.78-.19-2.23.32-3,1.74-2.6,4.37-4.16,7.22-5.31,1.13-.46,1.78.36,1.42,1.24-1.14,2.78-2.44,5.5-3.86,8.14-.32.59-1.37.78-2.44,1.35"
    fill="#010101" />
  <path
    d="M24.35,190.38c-2.47-.44-4.78-.72-7.01-1.29-2.13-.55-3.01-2.52-2.21-4.38.81-1.89,3.06-2.8,4.82-1.62,1.95,1.31,3.7,2.93,5.43,4.53.49.45.61,1.3.9,1.97-.67.28-1.35.56-1.93.8"
    fill="#010101" />
  <path
    d="M141.16,320.5c-1.01-.78-2.21-1.34-2.84-2.29-.75-1.12-.81-2.74.41-3.62,2.34-1.68,4.81-3.2,7.33-4.6.98-.54,1.76.35,1.35,1.28-1.17,2.65-2.5,5.23-3.93,7.75-.34.61-1.31.86-2.32,1.48"
    fill="#010101" />
  <path
    d="M94.72,308.61c-2.05.03-3.64-1.7-3.1-3.91.63-2.59,1.67-5.1,2.7-7.57.44-1.05,1.67-1.03,1.95.04.72,2.75,1.38,5.54,1.66,8.36.18,1.78-1.48,3.06-3.21,3.08"
    fill="#010101" />
  <path
    d="M58.94,274.59c-2.27-.01-3.48-1.04-3.77-2.73-.27-1.57.61-3.21,2.14-3.65,3.07-.87,6.11-.21,9.1.51.9.22,1.11,1.18.41,1.65-2.62,1.76-5.27,3.54-7.88,4.22"
    fill="#010101" />
  <path
    d="M107.94,304.23c0,2.3-1.57,3.86-3.5,3.94-1.57.06-3.16-1.26-3-3.03.25-2.76.83-5.5,1.45-8.22.27-1.18,1.11-1.39,1.83-.23,1.53,2.48,2.84,5.06,3.23,7.54"
    fill="#010101" />
  <path
    d="M40.88,233.91c-.53,2.3-.96,4.74-1.7,7.09-.44,1.4-1.52,2.45-3.18,2.53-1.42.07-2.42-.65-3.13-1.81-.97-1.59-.13-3.03.81-4.08,1.58-1.75,3.46-3.24,5.26-4.77.32-.27.95-.39,1.35-.27.25.07.33.71.58,1.32"
    fill="#010101" />
  <path
    d="M9.74,128.33c.02-2.3,1.77-3.95,4.35-3.59,2.48.35,4.92,1.14,7.33,1.88,1.15.35,1.43,1.63.57,2.21-2.77,1.86-5.62,3.79-9.25,3.16-2.18-.38-3.02-1.5-3-3.65"
    fill="#010101" />
  <path
    d="M162.12,10.03c0,.99.1,2-.04,2.96-.08.57-.44,1.29-.9,1.55-.37.21-1.27,0-1.6-.33-1.61-1.64-3.28-3.27-4.61-5.13-1.42-1.99-1.02-4.55.52-5.67,2.63-1.92,5.76-.44,6.27,3,.17,1.2.2,2.41.29,3.62.02,0,.04,0,.06,0"
    fill="#010101" />
  <path
    d="M71.57,49.63c-2.4-.66-4.68-1.12-6.82-1.95-1.59-.61-2.73-1.93-2.76-3.79-.02-1.54,1.23-3.07,2.75-3.58,1.8-.61,3.2.34,4.28,1.47,1.55,1.63,2.88,3.47,4.22,5.29.27.37.4,1.24.17,1.48-.47.5-1.23.74-1.85,1.08"
    fill="#010101" />
  <path
    d="M16.96,105.95c.05-2.83,3.07-4.66,5.49-3.35.94.51,1.88,1.25,2.47,2.12,1.1,1.63,2,3.41,2.86,5.19.21.44.13,1.28-.17,1.64-.3.35-1.13.59-1.58.43-2.28-.79-4.55-1.64-6.75-2.62-1.45-.65-2.22-1.92-2.31-3.42"
    fill="#010101" />
  <path
    d="M89.04,32.01c-.25,1.59-.44,3.4-.85,5.16-.14.59-.74,1.31-1.29,1.48-.36.12-1.13-.53-1.49-1.01-1.11-1.5-2.15-3.06-3.16-4.64-1.32-2.06-1.42-4.59.06-5.58,1.05-.7,2.76-1.37,3.74-.98,1.16.47,1.95,2.03,2.71,3.24.34.55.19,1.39.28,2.32"
    fill="#010101" />
  <path
    d="M73.02,31.12c2.96.08,4.27,1.44,4.93,3.38.69,2.02,1.2,4.11,1.62,6.21.28,1.41-.55,2.14-1.64,1.44-2.39-1.52-4.75-3.14-6.91-4.98-1.25-1.06-1.11-2.85-.32-4.14.59-.95,1.82-1.51,2.33-1.92"
    fill="#010101" />
  <path
    d="M17.23,120.47c-1.19-.16-2.42-.19-3.56-.53-2.09-.61-3.26-2.93-2.58-4.83.69-1.93,3.14-3.23,4.99-2.16,2.44,1.41,4.65,3.25,6.82,5.08.92.77.32,1.82-1.04,1.96-1.53.16-3.07.22-4.6.33l-.02.15Z"
    fill="#010101" />
  <path
    d="M17.17,134.57c1.97.24,3.68.4,5.36.67,1.03.16,1.36,1.11.6,1.79-2.32,2.08-4.93,3.75-8,4.47-1.83.43-3.3-.74-3.73-2.65-.39-1.69.47-3.1,2.31-3.6,1.22-.33,2.48-.5,3.46-.69"
    fill="#010101" />
  <path
    d="M154.2,17.18c-.03,1.16-.92,1.52-1.64.92-2.33-1.97-4.64-4.01-6.66-6.28-1.06-1.19-.31-3.11,1.07-3.99,1.72-1.1,3.25-.93,4.35.62,1.83,2.59,2.47,5.6,2.88,8.73"
    fill="#010101" />
  <path
    d="M66.18,56.94c-1.99-.38-4-.66-5.96-1.18-2.12-.56-3.03-2.4-2.34-4.32.67-1.9,2.28-2.79,4.22-1.71,2.46,1.36,4.71,3.15,6.9,4.95,1.04.85.56,1.84-.8,1.99-.65.07-1.32.01-1.98.01l-.04.26Z"
    fill="#010101" />
  <path
    d="M27.64,94.58c1.23,1.13,2.45,1.81,3.02,2.85,1.16,2.11,1.99,4.4,2.89,6.65.15.37.07,1-.17,1.32-.18.24-.84.34-1.17.2-2.78-1.14-5.41-2.6-7.17-5.09-.57-.81-.87-2.33-.49-3.15.49-1.03,1.8-1.68,3.09-2.78"
    fill="#010101" />
  <path
    d="M60.3,65.73c-1.18-.17-2.07-.22-2.91-.45-1.67-.46-2.6-2.2-2.19-3.9.45-1.85,1.94-3.07,3.64-2.4,2.69,1.06,5.26,2.45,7.75,3.92,1.07.63.75,1.69-.54,1.95-1.99.4-4.01.62-5.74.88"
    fill="#010101" />
  <path
    d="M94.85,24.82c2.06.03,3.48,1.74,3.15,4.32-.3,2.33-.98,4.61-1.59,6.89-.11.43-.74,1.05-1.06,1.01-.46-.05-.96-.57-1.25-1.01-1.52-2.31-2.07-4.95-2.45-7.64-.31-2.18.95-3.61,3.2-3.58"
    fill="#010101" />
  <path
    d="M141.19,12.89c.98.65,1.85.91,2.18,1.49,1.44,2.52,2.81,5.09,4.02,7.73.47,1.03-.44,1.86-1.46,1.3-2.41-1.3-4.77-2.72-6.99-4.31-1.22-.88-1.48-2.48-.62-3.74.67-.99,1.86-1.63,2.87-2.47"
    fill="#010101" />
  <path
    d="M101.12,28.96c.15-1.59.73-2.74,2.15-3.39,1.29-.59,2.46-.35,3.52.56,1.18,1.01,1.57,2.28.98,3.7-.96,2.31-1.97,4.61-3.09,6.85-.65,1.3-1.52.82-1.82-.23-.69-2.47-1.18-4.99-1.75-7.49"
    fill="#010101" />
  <path
    d="M40.65,98.76c0,.49.17,1.09-.05,1.45-.22.37-1.11.81-1.23.7-2.18-2.04-4.56-3.96-6.34-6.32-1.3-1.73-.34-3.6,1.58-4.42,1.65-.7,3.64.05,4.32,1.91.79,2.15,1.3,4.39,1.94,6.6-.08.03-.15.05-.23.08"
    fill="#010101" />
  <path
    d="M14.9,147.3c-.06-1.4.62-2.45,1.91-2.73,2.62-.57,5.28-.97,7.94-1.32.49-.07,1.29.3,1.52.71.17.3-.2,1.16-.57,1.49-1.97,1.72-3.86,3.62-6.08,4.95-2.26,1.35-4.74-.46-4.71-3.09"
    fill="#010101" />
  <path
    d="M170.36,215.32c-1.27.04-2.63-.18-3.99-.64-2.68-.9-3.66-3.41-3.85-6.09-.14-1.92-.03-3.86-.03-5.82.26-3.29.63-6.58.74-9.89.04-1.11-.55-2.23-.85-3.35-.87.65-1.97,1.14-2.56,1.99-2.63,3.81-5.12,7.73-7.66,11.61-.24.37-.52.71-.78,1.07-3.99,5.46-9.51,3.86-12.58-.62-1.73-2.52-.95-5.18.71-7.42,2.76-3.72,5.75-7.27,8.61-10.92.78-.99,1.52-2.03,2.12-3.14.62-1.14.11-1.85-1.19-1.67-1.02.14-2.04.47-3.02.83-4.34,1.61-8.64,3.34-13.01,4.89-5.79,2.06-9.34-1.03-10.1-6.88-.35-2.69,2.17-5.84,5.04-6.61,4.57-1.23,9.15-2.43,13.71-3.69,1.11-.31,2.21-.71,3.23-1.24,1.22-.63,1.22-1.38.04-2.01-.87-.46-1.81-.8-2.76-1.07-4.77-1.35-9.58-2.58-14.32-4.02-2.52-.77-4.46-2.49-4.79-5.2-.34-2.85.54-5.49,2.81-7.44,1.46-1.24,3.25-1.85,5.1-1.24,4.39,1.45,8.72,3.09,13.09,4.63,1.61.57,3.23,1.09,4.88,1.54.4.11,1.09-.02,1.31-.3.21-.28.16-1-.06-1.34-.99-1.52-2.05-3-3.16-4.43-2.47-3.18-5.08-6.26-7.48-9.5-2.71-3.66-2.08-7.29,1.52-9.94,3.56-2.61,7.36-2.19,9.97,1.43,2.74,3.8,5.19,7.81,7.79,11.72.58.87,1.15,1.77,1.87,2.52.4.41,1.14.77,1.66.7.32-.04.74-.94.75-1.46.03-1.98-.07-3.96-.15-5.95-.16-3.7-.42-7.39-.48-11.09-.07-4.32,2.82-7.18,7.1-7.25.26,0,.51,0,.76.02v-5.56c-3.76-.15-7.08,1.01-9.84,3.74-2.87,2.85-3.72,6.44-3.81,10.42-2.2-2.75-4.46-5.01-7.92-5.85-3.47-.85-6.78-.69-9.71,1.29-7.95,5.38-8.38,12.23-3.13,20.26-3.65-1.43-6.91-1.85-10.22-.49-3.32,1.36-5.84,3.54-7.19,6.91-1.14,2.84-1.54,5.73-.61,8.74,1.52,4.92,4.99,7.73,9.99,9.15-3.95,1.08-6.94,3.18-8.84,6.62-1.96,3.56-1.98,7.28-.59,11.03.97,2.63,2.68,4.67,5.09,6.11,3.85,2.31,7.87,2.55,12.15.84-4.5,6.48-5.03,13.02,1,18.26,7.17,6.22,14.12,4.48,19.96-2.79,1.6,9.64,5.35,13.88,12.54,14.2.38.02.76.02,1.14,0v-5.65Z"
    fill="#010101" />
  <path
    d="M108.78,126.81c.01-3.75,3.07-6.19,6.3-5.56,2.66.52,4.95,1.78,6.58,3.85,2.55,3.25,4.87,6.68,7.19,10.09.33.48.4,1.5.09,1.93-.29.41-1.28.63-1.85.48-3.45-.94-6.9-1.93-10.29-3.05-3.07-1.02-5.61-2.83-7.23-5.72-.42-.75-.64-1.61-.8-2.03"
    fill="#010101" />
  <path
    d="M155.72,222.08c-.18,2.36-.42,4.71-.53,7.08-.12,2.52-1.41,4.48-2.85,6.38-1.28,1.68-3.05,2.16-5.02,1.62-1.99-.54-3.4-1.85-3.88-3.9-.66-2.79.02-5.5,1.48-7.78,2.26-3.52,4.88-6.81,7.43-10.13.36-.47,1.26-.82,1.82-.72.43.08.94.93,1.01,1.49.23,1.97.28,3.96.39,5.94.05,0,.1.01.15.02"
    fill="#010101" />
  <path
    d="M127.69,195.71c1.31.02,2.1,1.07,1.39,2.14-2.82,4.25-5.12,8.95-9.26,12.15-1.34,1.04-3.1,1.61-4.75,2.17-2.09.72-3.77-.22-5.08-1.83-1.35-1.67-1.46-3.55-.55-5.43,1.12-2.32,2.9-4.15,5.27-5.03,4.11-1.53,8.35-2.73,12.53-4.07.16-.05.32-.06.45-.09"
    fill="#010101" />
  <path
    d="M155.54,111.05c-.12,2.14-.13,4.3-.39,6.42-.2,1.59-1.63,2.11-2.56.89-3.24-4.21-7.24-7.96-8.88-13.21-1.1-3.54-.67-6.76,2.45-8.4,1.93-1.01,4.55-.59,6,1.05,2.96,3.34,3.49,7.37,3.35,11.6-.02.55,0,1.1,0,1.65.01,0,.02,0,.03,0"
    fill="#010101" />
  <path
    d="M103.86,160.84c1.77.37,3.58.6,5.3,1.14,2.94.92,5.83,1.98,8.69,3.13.63.25,1.32,1.04,1.41,1.67.06.42-.78,1.23-1.37,1.46-4.65,1.82-9.24,3.83-14.33,4.2-2.47.18-4.59-.73-6.43-2.14-2.09-1.61-1.61-6.1.58-7.57,1.86-1.24,3.88-1.79,6.14-1.89"
    fill="#010101" />
  <path
    d="M170.36,145.95c-1.28-.19-2.62.15-3.63,1.09-1.54,1.42-1.81,4.3-.15,5.64,1.49,1.21,1.72,2.52,1.52,3.78,0,.99.06,1.6-.02,2.2-.06.5-.29.98-.44,1.48-.48-.31-1.06-.52-1.42-.93-.72-.83-1.42-1.72-1.93-2.68-.31-.58-.47-1.42-.3-2.04.59-2.23-.82-4.9-2.96-5.35-2.52-.52-4.94,1.09-5.3,3.52-.35,2.4,1.5,4.62,3.92,4.82.64.05,1.46.23,1.85.67.93,1.01,1.68,2.19,2.43,3.35.2.31.16.79.23,1.19-.41.06-.85.25-1.22.15-1.38-.37-2.77-.76-4.1-1.29-.42-.16-.79-.72-.96-1.18-.67-1.85-2.27-3.02-4.27-3.01-1.55.01-3.16,1.26-3.7,2.86-.55,1.64.01,3.76,1.24,4.68,1.49,1.12,3.68,1.11,5.26.05.41-.27,1.02-.54,1.44-.44,1.38.36,2.74.85,4.07,1.38.34.13.8.61.77.88-.03.32-.49.7-.85.85-1.02.42-2.09.69-3.12,1.1-.94.37-1.67.36-2.58-.29-2.03-1.47-4.82-.73-5.98,1.41-1.13,2.1-.19,4.9,1.98,5.92,2.17,1.01,4.72-.14,5.66-2.51.19-.47.48-1.1.88-1.26,1.49-.57,3.04-1,4.58-1.42.26-.07.8.05.86.21.11.3.07.76-.1,1.03-.65,1.03-1.39,1.99-2.06,3.01-.54.83-1.15,1.26-2.26,1.28-2.58.04-4.32,2.21-3.96,4.67.35,2.41,2.84,4.08,5.29,3.55,2.18-.47,3.59-3.19,2.87-5.51-.12-.39-.28-.95-.1-1.22.89-1.33,1.85-2.61,2.85-3.86.19-.24.74-.43.98-.33.24.11.42.61.44.94.06.99-.02,1.99.04,2.98.08,1.27-.14,2.2-1.3,3.1-2.05,1.6-1.54,5.23.71,6.51.9.51,1.9.67,2.84.56v-41.55Z"
    fill="#010101" />
</svg>