<?xml version="1.0" encoding="UTF-8"?>
<svg id="_0" data-name="0" xmlns="http://www.w3.org/2000/svg" viewBox="0 0 197.63 205.95">
  <path d="M66.56,103.52c-3.6,0-6.52,2.87-6.52,6.39s2.92,6.39,6.52,6.39,6.52-2.86,6.52-6.39-2.93-6.39-6.52-6.39ZM66.56,113.37c-1.94,0-3.52-1.55-3.52-3.45s1.58-3.45,3.52-3.45,3.52,1.55,3.52,3.45-1.58,3.45-3.52,3.45Z" fill="#12100b"/>
  <path d="M140.21,103.52c-3.6,0-6.52,2.86-6.52,6.39,0,.73.12,1.45.38,2.12t0,.01s0,.02,0,.03c.45,1.23,1.27,2.28,2.31,3.02,1.07.76,2.39,1.21,3.81,1.21s2.74-.45,3.81-1.21c1.06-.75,1.88-1.81,2.33-3.05h0s0-.02,0-.02c.25-.67.37-1.39.37-2.12,0-3.52-2.91-6.39-6.52-6.39ZM143.54,111.05h0s0,.02,0,.02c-.24.67-.68,1.24-1.26,1.65-.58.41-1.28.65-2.06.65-.77,0-1.47-.24-2.05-.65-.58-.41-1.02-.99-1.26-1.65v-.02s-.02-.02-.02-.02c-.13-.32-.2-.7-.2-1.11,0-.96.39-1.81,1.03-2.44.64-.63,1.52-1.01,2.49-1.01.98,0,1.85.38,2.49,1.01.64.63,1.03,1.48,1.03,2.44,0,.41-.07.8-.2,1.14Z" fill="#12100b"/>
  <path d="M119.08,88.76h-5.65c-.83,0-1.5.65-1.5,1.47s.67,1.47,1.5,1.47h5.65c.83,0,1.5-.66,1.5-1.47s-.67-1.47-1.5-1.47Z" fill="#12100b"/>
  <path d="M99.56,32.19c-44.96,0-81.55,35.85-81.55,79.92,0,.25.01.48.01.73-6.57,3.14-13.56,4.39-18.03,4.9v5.87c6.85-.68,19.75-3.03,29.35-11.06l.12-.12c.65-.55,1.31-1.12,1.93-1.73,4.26,4.71,14.54,13.19,33.41,13.19.98,0,22.8-.16,36.09-13.19,2.4,2.66,6.71,6.5,13.37,9.35,5.19,2.21,11.81,3.84,20.06,3.84.82,0,15.92-.12,28.63-7.56,2.64-1.54,5.18-3.39,7.46-5.63,3.77,4.17,12.25,11.27,27.22,12.86v-5.85c-7.27-.87-12.67-3.21-16.54-5.65-.03-44.04-36.6-79.86-81.53-79.86ZM124.98,58.88h10.22c13.33,0,22.78,10.83,26.67,20.66h-8.73c.19-.52.31-1.12.31-1.81,0-3.64-5.33-14.59-13.21-14.59h-11.23v16.41h-4.01v-20.66ZM138.54,70.71c-2.67,0-4.85,2.14-4.85,4.75v4.08h-1.71v-13.47h8.23c5.51,0,10.22,8.88,10.22,11.66,0,1.54-1.17,1.8-1.85,1.81h-5.2v-4.08c0-2.61-2.17-4.75-4.85-4.75ZM136.69,79.54v-4.08c0-1,.83-1.81,1.85-1.81,1.02,0,1.85.81,1.85,1.81v4.08h-3.7ZM140.39,82.48v1.19c0,1-.83,1.81-1.85,1.81s-1.85-.81-1.85-1.81v-1.19h3.7ZM93.17,58.88h28.82v20.66h-4.02v-16.41h-20.77s0,16.41,0,16.41h-4.02v-20.66ZM114.96,66.07v13.47h-14.78v-13.47h14.78ZM93.17,82.48h28.82v21.05h-28.82v-21.05ZM41.28,67.27c0-8.1,7.67-8.38,8.55-8.38h40.35v20.66h-4.01v-16.41h-34.62l-.31.15c-.17.09-4.18,2.14-4.18,9.52,0,3.11.71,5.26,1.54,6.73h-7.31v-12.27ZM83.16,66.07v13.47h-30.81c-.61-.49-2.31-2.28-2.31-6.73s1.69-6.25,2.3-6.74h30.82ZM34.58,90.23v-11.48c0-.46.12-4.13,3.7-4.94v21.32c-1.55-.39-3.7-1.53-3.7-4.9ZM46.65,110.08h-1.85s-5.02,0-5.02,0c-1.57,0-1.83-1.15-1.85-1.81v-4.92c0-1.54,1.17-1.8,1.85-1.81h3.35c3.31,0,3.52,2.89,3.52,3.45v5.09ZM53.35,110.08h-3.7v-3.62h4.19c-.32,1.12-.5,2.27-.5,3.45,0,.06,0,.11,0,.17ZM76.67,111.34c-.7,4.9-5.05,8.59-10.1,8.59s-9.4-3.69-10.11-8.62c-.07-.44-.11-.9-.11-1.4,0-1.5.33-2.94.99-4.29,1.69-3.48,5.32-5.73,9.24-5.73s7.54,2.25,9.23,5.73c.66,1.35.99,2.79.99,4.29,0,.5-.03.96-.11,1.43ZM66.56,96.96c-4.75,0-9.16,2.55-11.49,6.56h-5.6c-.55-2.35-2.41-4.92-6.34-4.92h-1.85v-16.13h48.9v21.05h-12.12c-2.34-4.02-6.74-6.56-11.49-6.56ZM127.01,110.08h-47.24c0-.06,0-.11,0-.17,0-1.18-.18-2.33-.5-3.45h48.2c-.31,1.1-.48,2.26-.48,3.45,0,.06,0,.11,0,.17ZM150.33,111.31h0s0,.03,0,.03c-.35,2.43-1.59,4.58-3.39,6.12-1.8,1.54-4.14,2.47-6.73,2.47s-4.91-.92-6.71-2.47c-1.8-1.54-3.04-3.69-3.39-6.12v-.03c-.07-.45-.11-.92-.11-1.4,0-1.53.36-2.99.99-4.29,1.65-3.38,5.17-5.73,9.23-5.73s7.6,2.34,9.24,5.73c.64,1.3,1,2.75,1,4.29,0,.48-.04.95-.11,1.4ZM140.21,96.96c-4.91,0-9.21,2.65-11.48,6.56h-3.75v-21.05h8.72v1.19c0,2.62,2.17,4.75,4.85,4.75s4.85-2.13,4.85-4.75v-1.19h19.47c.64,2.2.97,4.29.97,6.11v14.94h-12.12c-2.27-3.92-6.57-6.56-11.5-6.56ZM163.83,106.63c0,3.24-2.94,3.44-3.52,3.45h-6.88c0-.06,0-.11,0-.17,0-1.19-.17-2.35-.48-3.45h10.88v.17Z" fill="#12100b"/>
  <path d="M173.12,130.81c-.5-.82-1.37-1.34-2.35-1.4-.97-.06-1.91.34-2.51,1.08-11.03,13.52-33.72,13.72-33.95,13.72-22.05,0-30.36-12.86-30.7-13.4-.5-.82-1.37-1.34-2.35-1.4-.97-.06-1.91.34-2.51,1.08-11.03,13.52-33.72,13.72-33.95,13.72-22.05,0-30.36-12.86-30.7-13.4-.5-.82-1.38-1.34-2.35-1.4-.96-.06-1.91.34-2.51,1.08-7.95,9.74-21.96,12.57-29.25,13.38v5.87c7.35-.73,21.66-3.36,31.39-12.9,4.26,4.71,14.55,13.18,33.41,13.18.98,0,22.81-.16,36.09-13.18,4.26,4.71,14.55,13.18,33.41,13.18.98,0,22.81-.16,36.09-13.18,3.77,4.16,12.26,11.26,27.22,12.85v-5.85c-17.44-2.08-24.21-12.55-24.51-13.03Z" fill="#12100b"/>
  <path d="M173.12,156.94c-.5-.82-1.37-1.34-2.35-1.4-.97-.06-1.91.34-2.51,1.08-11.03,13.52-33.72,13.72-33.95,13.72-22.05,0-30.36-12.86-30.7-13.4-.5-.82-1.37-1.34-2.35-1.4-.97-.06-1.91.34-2.51,1.08-11.03,13.52-33.72,13.72-33.95,13.72-22.05,0-30.36-12.86-30.7-13.4-.5-.82-1.37-1.34-2.35-1.4-.96-.06-1.91.34-2.51,1.08-7.95,9.74-21.96,12.57-29.25,13.39v5.87c7.35-.73,21.66-3.36,31.39-12.9,4.26,4.71,14.55,13.18,33.41,13.18.98,0,22.81-.16,36.09-13.18,4.26,4.71,14.55,13.18,33.41,13.18.98,0,22.81-.16,36.09-13.18,3.77,4.16,12.26,11.26,27.22,12.85v-5.85c-17.44-2.08-24.21-12.55-24.51-13.04Z" fill="#12100b"/>
  <path d="M24.77,37.42c-.95-1.19-1.42-1.79-2.37-2.98,2.23-2.15,2.39-4.38.97-6.32-1.67-2.27-4.6-2.62-8.1.33,3.27,4,4.9,6,8.17,9.99.53-.42.8-.62,1.33-1.03ZM17.72,28.54c1.41-.93,2.99-.86,4.14.66,1.16,1.52.8,2.98-.4,4.05-1.5-1.88-2.25-2.83-3.74-4.71Z" fill="#12100b"/>
  <path d="M43.73,25.55c-.26-.5-.39-.75-.65-1.24-1.11.56-1.67.85-2.77,1.44-.7-1.26-1.06-1.89-1.76-3.16.97-.52,1.46-.78,2.44-1.28-.26-.5-.39-.74-.66-1.24-.99.51-1.49.76-2.47,1.29-.95-1.71-1.43-2.56-2.38-4.26,1.19-.64,1.79-.95,3-1.56-.26-.5-.39-.75-.65-1.24-1.87.94-2.79,1.43-4.63,2.45,2.54,4.41,3.81,6.61,6.35,11.01,1.66-.92,2.5-1.36,4.18-2.21Z" fill="#12100b"/>
  <path d="M53.19,9.21c1.59,4.22,2.38,6.34,3.97,10.56.61-.22.92-.33,1.53-.54-1.53-4.24-2.29-6.37-3.82-10.61.9-.31,1.35-.46,2.26-.76-.18-.53-.27-.8-.45-1.33-2.51.82-3.76,1.26-6.24,2.2.21.52.31.78.52,1.3.89-.34,1.34-.51,2.24-.83Z" fill="#12100b"/>
  <path d="M74.63,14.9c-1.04-4.96-1.55-7.43-2.59-12.39-.7.14-1.05.21-1.74.36,1.1,4.94,1.66,7.41,2.76,12.36.63-.13.94-.2,1.58-.33Z" fill="#12100b"/>
  <path d="M88.43,1.65c.36,4.49.54,6.73.9,11.22.64-.05.96-.07,1.6-.11-.3-4.49-.45-6.74-.75-11.23.94-.06,1.41-.09,2.36-.13-.03-.56-.04-.84-.07-1.4-2.62.12-3.92.21-6.53.46.06.56.08.83.14,1.39.94-.09,1.41-.13,2.35-.2Z" fill="#12100b"/>
  <path d="M122.66,14.98c.62.12,1.14.12,1.74.02-.17-.56-.26-.84-.44-1.4-.22.04-.49.04-.79-.02-1.27-.25-2.41-1.82-1.75-5.42.66-3.6,2.41-4.66,3.78-4.38.33.06.59.17.8.3.42-.44.62-.65,1.05-1.09-.56-.35-1.09-.56-1.78-.7-2.42-.48-4.79.89-5.58,5.57-.79,4.68.79,6.68,2.97,7.11Z" fill="#12100b"/>
  <path d="M139.63,19.61c1.56.55,4.01.18,5.98-4.71,1.97-4.88.23-6.86-1.5-7.47-1.73-.61-4.35-.17-6.01,4.82-1.65,4.99-.02,6.8,1.54,7.35ZM139.77,12.81c1.27-3.65,2.81-4.35,3.82-4,1.01.36,1.74,1.87.35,5.47-1.39,3.6-2.88,4.29-3.81,3.96-.93-.33-1.63-1.79-.36-5.43Z" fill="#12100b"/>
  <path d="M162.78,15.83c-.64-.34-.96-.51-1.61-.85-2.41,4.47-3.62,6.71-6.03,11.19.58.3.87.45,1.45.76,2.47-4.44,3.71-6.66,6.18-11.1Z" fill="#12100b"/>
  <path d="M173.67,30.07c.31-.46.47-.69.78-1.15,0,.69,0,1.03,0,1.72-.06,3.24-.14,4.84-.4,8.02,3.3-4.03,4.94-6.05,8.24-10.08-.58-.46-.88-.68-1.46-1.13-1.55,1.95-2.32,2.92-3.87,4.87-.37.49-.55.74-.91,1.23.06-.74.08-1.11.13-1.85.12-3.25.13-4.89.06-8.19-3.1,4.29-4.64,6.43-7.74,10.72.55.38.82.57,1.37.96,1.52-2.04,2.28-3.06,3.8-5.11Z" fill="#12100b"/>
  <path d="M61.23,197.25h-2.06v8.58h1.98c1.01,0,1.79-.3,2.35-.91.56-.6.84-1.45.84-2.52v-1.8c-.02-1.04-.3-1.86-.85-2.46-.55-.6-1.3-.89-2.25-.89ZM63.66,202.47c-.01.88-.23,1.56-.66,2.03-.43.47-1.03.71-1.82.71h-1.33v-7.32h1.36c.79,0,1.4.24,1.82.73.42.49.63,1.17.63,2.05v1.8Z" fill="#12100b"/>
  <polygon points="69.33 201.72 72.73 201.72 72.73 201.1 69.33 201.1 69.33 197.89 73.21 197.89 73.21 197.25 68.65 197.25 68.65 205.83 73.24 205.83 73.24 205.21 69.33 205.21 69.33 201.72" fill="#12100b"/>
  <path d="M85,197.25h-2.54v8.58h.69v-3.49h1.85c.81,0,1.43-.22,1.86-.65.43-.44.65-1.06.65-1.87s-.22-1.42-.67-1.88c-.45-.46-1.05-.68-1.83-.68ZM86.34,201.22c-.31.33-.76.49-1.34.49h-1.86v-3.82h1.86c.57,0,1.01.17,1.33.52s.48.82.48,1.42-.16,1.07-.47,1.39Z" fill="#12100b"/>
  <path d="M92.76,197.25l-2.79,8.58h.72l.75-2.4h3.28l.76,2.4h.72l-2.79-8.58h-.64ZM91.63,202.8l1.44-4.6,1.44,4.6h-2.89Z" fill="#12100b"/>
  <path d="M104.44,201.24c.27-.42.41-.9.41-1.46,0-.79-.22-1.41-.66-1.86-.44-.45-1.06-.67-1.85-.67h-2.4v8.58h.69v-3.57h2.04l1.76,3.57h.73v-.08l-1.82-3.65c.46-.16.83-.45,1.1-.87ZM102.45,201.64h-1.83v-3.75h1.7c.58,0,1.03.17,1.35.5s.48.8.48,1.4c0,.54-.15.99-.46,1.33s-.72.52-1.24.52Z" fill="#12100b"/>
  <path d="M111.2,197.25l-2.79,8.58h.72l.75-2.4h3.28l.76,2.4h.72l-2.79-8.58h-.64ZM110.07,202.8l1.44-4.6,1.44,4.6h-2.89Z" fill="#12100b"/>
  <path d="M120.45,197.25h-2.06v8.58h1.98c1.01,0,1.79-.3,2.35-.91.56-.6.84-1.45.84-2.52v-1.8c-.02-1.04-.3-1.86-.85-2.46-.55-.6-1.3-.89-2.25-.89ZM122.88,202.47c-.01.88-.23,1.56-.66,2.03-.43.47-1.03.71-1.82.71h-1.33v-7.32h1.36c.79,0,1.4.24,1.82.73.42.49.63,1.17.63,2.05v1.8Z" fill="#12100b"/>
  <rect x="128" y="197.25" width=".69" height="8.58" fill="#12100b"/>
  <path d="M137.16,201.8c-.34-.23-.83-.45-1.49-.67-.66-.21-1.14-.46-1.44-.73s-.45-.63-.45-1.06c0-.46.16-.84.48-1.13s.75-.44,1.31-.44,1.02.18,1.35.53c.33.36.5.82.5,1.4h.69c0-.75-.24-1.37-.71-1.85-.47-.48-1.08-.72-1.83-.72s-1.32.21-1.79.62-.69.95-.69,1.6.23,1.2.7,1.6c.36.31.92.59,1.68.84.76.25,1.28.51,1.56.79.28.27.42.65.42,1.13s-.17.88-.5,1.17c-.33.29-.78.44-1.33.44-.63,0-1.14-.17-1.51-.52-.37-.35-.56-.82-.56-1.43h-.69c0,.53.12.98.36,1.37s.57.68.99.89c.42.21.89.31,1.4.31.76,0,1.37-.21,1.84-.62.46-.41.69-.95.69-1.62,0-.42-.08-.79-.24-1.1-.16-.31-.41-.58-.75-.81Z" fill="#12100b"/>
  <path d="M44.85,202.61h-14.96c-.17,0-.31-.14-.31-.3s.14-.3.31-.3h14.96c.17,0,.31.14.31.3s-.14.3-.31.3Z" fill="#12100b"/>
  <path d="M167.78,202.61h-14.96c-.17,0-.31-.14-.31-.3s.14-.3.31-.3h14.96c.17,0,.31.14.31.3s-.14.3-.31.3Z" fill="#12100b"/>
</svg>