<svg xmlns="http://www.w3.org/2000/svg" viewBox="0 0 840 1680" width="840px" height="1680px">
  <defs></defs>
  <g id="Calque_2" transform="matrix(0.931187, 0, 0, 0.984121, 260.28653, 47.478577)" style="">
    <g id="Calque_1-2" data-name="Calque 1" transform="matrix(1, 0, 0, 1, -280.750366, 443.91153)">
      <g>
        <path class="cls-2"
          d="M140.51,846.16c-28.39,2.94-49.68.49-49.68.49-37.45-.49-90.83-10.87-90.83-10.87v-336.93l48.93,14.01,36.32,34.24,51.38,89.92v.68l-.49,131.53c-.04,10.76,1.66,20.95,1.17,31.82-.3,6.87,1.25,12.95,2.27,19.52,1.25,8.15.72,16.99.94,25.6Z"
          style="fill: rgb(29, 29, 27);"></path>
        <g>
          <circle class="cls-2" cx="394.49" cy="247.49" r="46.27" style="fill: rgb(29, 29, 27);"></circle>
          <path class="cls-2"
            d="M620.22,457.09l-.64,3.25-1.06,5.29-4.27,2.27-17.89,9.44-28.96,51.46c-1.85-.79-3.66-1.43-5.17-1.74-13.06-2.53-26.05-.34-38.7,2.19-9.25,1.85-17.21,5.1-25.67,9.32-10.65,5.29-13.33,3.06-19.82,15.55l10.34,1.81c10.46-6.34,20.76-13.18,33.41-14.08-3.78,3.93-24.84,11.02-23.14,14.04,5.25.11,10,.34,14.84.23l-45.68,69.99h-43.41l36.96-61.88,10.15-33.26,62.82-31.37,9.21-60.97,36.05-12.01,40.62,30.47Z"
            style="fill: rgb(29, 29, 27);"></path>
          <path class="cls-2"
            d="M708.33,441.39l70.9-53.8-1.62,10.83-1.85,17.44-1.51,16.57c-.04,1.13-1.13,15.63-2.15,26.54l-4.3-11.44-59.46-6.15Z"
            style="fill: rgb(29, 29, 27);"></path>
          <path class="cls-2"
            d="M898.91,443.13v167.96l-33.86-57.31-22.65,11.33-1.13-7.93v-.04l-5.21-12.19-19.14-10.23-20.54-10.95-8.95-23.9.11-32.81c.08,0,3.85-27.67,4.49-34.35l3.17-34.17,1.62-19.18c.15-1.77.26-3.55.3-5.36l7.85-5.96,11.93,7.63,29.33,18.72,8.76,5.59,21.59.87,22.31,42.28Z"
            style="fill: rgb(29, 29, 27);"></path>
          <path class="cls-2"
            d="M257.47,788.63c-25.82,35.03-66.63,49.64-101.4,55.42l-.68-8.23-1.32-44.06c-.19-6.38-2.38-12.8-2.3-19.4.08-9.4,1.06-19.1.34-27.79-.64-7.89-.19-13.74-.23-21.52l-.08-12.95.15-46.25,15.67,27.41,41.19,24.35,11.21,37.41,37.45,35.6Z"
            style="fill: rgb(29, 29, 27);"></path>
          <path class="cls-2"
            d="M538.6,627.35c5.55-4.04,11.17-8.08,17.14-12.34l-7.06,12.46-10.08-.11Z"
            style="fill: rgb(29, 29, 27);"></path>
          <path class="cls-2"
            d="M591.38,573.14c4.38,1.4,8.76,5.96,13.02,9.44-21.86,3.66-10.27-4.3-31.52.19-5.62,1.21-12.72.34-18.16,3.17-8.65,4.49-17.78,7.93-25.67,13.55-7.63,5.4-15.18,11.93-21.25,18.8-2.42,2.72-4.49,5.62-6.38,8.65l-28.05-.3,45.34-70.9c.91-.08,1.81-.19,2.72-.34,2.68-.38,17.67-10.95,23.44-9.1-1.21,3.02-17.82,8.83-12.61,10.68.38.11,1.43.42,1.93.42h12.19c6.53,0,10.57-6.72,18.57-5.66-3.7,2.49-7.06,4.34-11.97,6.95.57,1.89,3.36,3.28,6,4.12l32.39,10.34Z"
            style="fill: rgb(29, 29, 27);"></path>
          <path class="cls-2"
            d="M588.89,613.84c2.45-1.81,4.45-4.45,7.89-4.91l-13.21,18.91-17.55-.19c5.17-1.77,9.93-4.23,14.35-7.51l8.53-6.3Z"
            style="fill: rgb(29, 29, 27);"></path>
          <path class="cls-2"
            d="M616.03,475.59c1.32,3.25,2.91,6.61,2.49,10.23l-5.25-6.53c-3.21,7.29-3.59,14.5-.98,21.63-1.89,1.28-4.3,3.96-4.27,6.08l.42,14.61c.04,1.77-2.76,4.42-1.93,6.8,1.17,3.36-.19,6.76-.83,9.89l-1.4,8.68-28.96-14.42c-.45-.23-.94-.45-1.43-.72l5.96-7.29,19.48-45.26,16.69-3.7Z"
            style="fill: rgb(29, 29, 27);"></path>
          <path class="cls-2"
            d="M628,604.93l21.82,11.59-11.36,11.93-9.74-.11.34-6.53c-1.77-5.62-2.42-11.59-1.06-16.87Z"
            style="fill: rgb(29, 29, 27);"></path>
          <path class="cls-2"
            d="M765.3,456.38l5.06,12.27-1.25,93.13-.08,17.59-51.91-8.72c-1.02-2.11-2.08-4.19-3.13-6.3l-10.19-3.89,5.28-3.36c-1.36-1.89-4.04-5.66-5.93-6.3l-14.38-.64,6.8-4.3c-4.45-4.64-11.59-4.11-18.39-5.59,4.08-6.68,12.42-10.27,19.48-9.59,10.49,1.02,17.78,6.68,25.33,13.02,3.32,2.76,8.04,7.25,10.08,10.42.45.68,3.13-.11,2.91-.87-.23-.76-1.02-2.79-1.17-3.66l-3.59-19.4c-1.36-7.25-9.02-1.7-10.57-5.36l7.25-6.8c-1.96-4.23-5.4-7.02-8.76-8.42l-7.36,5.51,2.19-8.12c-11.48-5.47-15.33-.94-15.44-1.02l-2.23-1.17c-5.74-2.94-11.17,1.02-15.93,3.55-2.61,1.36-6.83,2.53-8.99,5.1l-27.52,32.81c-2.76,3.28-5.59,7.1-10.27,7.17-1.55-1.66-.49-4.87-.11-7.21l2.68-16.72c-.45-.87-2-2.94-1.47-3.51l2.42-2.64c2.91-3.1,1.89-9.63,3.81-13.1,2.23-4,4.83-7.89,7.25-11.74l15.67-25.03c-6.15,1.06-7.74,1.93-11.14,1.51l13.55-11.06,4.45-18.16c.3-1.28-.23-4.61-1.09-5.63-.68-.83-3.4-2-4.68-1.81l-22.54,3.4c-.57.08-1.09.19-1.62.38l.04-9.21,40.77-9.4,26.54,24.05,58.18,8.83Z"
            style="fill: rgb(29, 29, 27);"></path>
          <path class="cls-2"
            d="M838.62,565.1l-44.02,18.5c-.98-.15-1.96-.3-2.94-.45l-.04-.04c-.23-.04-.45-.04-.68-.08l-1.66-.3-4.79-.79.11-30.09c.6-1.51,2.27-5.74,2.64-7.29l.15-34.84,8.27,20.01,37.94,21.52,3.93,8.68,1.09,5.17Z"
            style="fill: rgb(29, 29, 27);"></path>
          <path class="cls-2"
            d="M538,854.24l-19.1-24.88,89.7,4.15-.23,58.21c-12.46-20.69-70.37-37.49-70.37-37.49Z"
            style="fill: rgb(29, 29, 27);"></path>
          <path class="cls-2"
            d="M610.63,932.77c0,.11.04.26.04.38l-26.73-.45s18.54-9.78,24.95-23.03c.19,3.36.38,6.68.23,10.16-.19,4.57.83,8.61,1.51,12.95Z"
            style="fill: rgb(29, 29, 27);"></path>
          <path class="cls-2"
            d="M780.97,912.79c-.75,1.47-2.38,5.55-2.94,7.1v16.16l-157.2-2.72-.57-19.67c-.11-4.27-1.59-8.49-1.55-12.87.04-6.27.72-12.68.23-18.46-.42-5.25-.11-9.14-.15-14.31l-.04-8.61.08-25.44,24.43,1.13,129.68-77.16c.08,6.04-.11,12.19.38,18.12l1.7,20.73,1.7,20.69c.53,6.57-.23,12.65,1.17,19.4l2.57,12.61.53,63.31Z"
            style="fill: rgb(29, 29, 27);"></path>
          <path class="cls-2"
            d="M898.91,738.46v200.99l-52.66-1.62-29.33-.91-12.91-.42-6.83-.11-.04-83.66c0-7.32-1.89-15.14-2.6-22.05l-1.66-16.01-1.93-25.07-1.74-13.4-1.28-16.31-.34-10.68v-.04l6.83-4.04,22.5-1.43,29.33-1.89,52.66-3.36Z"
            style="fill: rgb(29, 29, 27);"></path>
          <path class="cls-2"
            d="M164.6,928.65l.11,283.14-33.22.15,11.48-40.05.87-97.59,1.66-8.8.04-69.69c.53-1.59,2.15-5.62,2.91-7.1l-.49-63.31-2.61-12.61c-1.4-6.76-.6-12.84-1.17-19.4l-1.66-20.69-1.74-20.73c-.15-1.93-.23-3.85-.26-5.81,4.98-.53,10.19-1.21,15.55-2.11l.64,8.08,1.74,13.36,1.89,25.1,1.66,16.01c.72,6.91,2.6,14.72,2.6,22.05Z"
            style="fill: rgb(29, 29, 27);"></path>
          <path class="cls-2"
            d="M312.89,381.21l5.17,16.91c-10.49,2.83-18.57-1.96-23.44-11.78l-2.72,6.04c-1.02,2.23-19.56-5.32-23.75-9.36-10.27,5.25-23.37-12.68-24.43-13.63-11.82-10.23-27.6-15.78-41.41-23.14l-36.54-19.44c-2.11,7.97-1.09,16.95,1.59,25.44l-.6,11.4c2.3,5.7.75,10.65.72,15.97l-.34,37.22c-.08,6.57-.19,12.12-1.36,18.72-1.09,6.19-.91,13.14-1.47,19.71l-1.59,19.18-3.21,34.17c-.6,6.68-4.38,34.35-4.45,34.35l-.34,77.5c-.38,1.55-2.04,5.78-2.64,7.29l-.11,36.09-15.33-26.84,1.28-93.96c-.26,18.57,3.85-33.03,3.85-34.73l-.04.04,1.55-16.57,1.81-17.48,2.42-16.23c3.44-22.88,3.89-60.74.11-83.73-1.51-9.25-2.6-22.69-5.32-24.95-3.96,4.49-6.8,9.02-8.91,13.55-7.29,15.36-6.23,30.69-12.31,45.49-3.78,9.21-8.23,16.8-13.29,25.82l-7.97-9.78-.6,22.92-16.38,23.25-.83-1.55-4.04-7.47-4.53,20.12c-3.7,4.19-8.65,7.63-15.59,11.33l-.19-71.39,24.24-36.05.11-.15,12.31-17.71,24.43-34.92c-5.17.68-8.19,4.64-11.89,7.4l-12.84,9.51c-3.85,2.83-7.81,5.25-12.01,7.29-4.76,2.38-9.74,4.23-15.06,5.7l-14.19,3.93-11.63,3.21,11.63-20.46,4.19-7.4c-1.4,1.02-2.79,2-4.19,2.98-15.14,10.87-29.11,20.76-43.23,31.98-3.44,2.76-6.61,4.79-9.51,6.34v-51.49c5.36-4.72,11.02-9.17,16.72-13.21,11.1-7.89,23.75-12.91,36.02-19.06.87-.45,1.77-.91,2.64-1.36,7.93-4.12,18.27-3.02,26.61-4.61.23,0,.49-.08.72-.11,32.01-6.76,14.57,5.17,47.49-.34-6.46-5.21-13.02-12.12-19.59-14.19l-28.62-9.14-20.2-6.42c-3.96-1.28-8.15-3.4-9.06-6.19,7.4-3.93,12.5-6.72,18.08-10.5-7.59-.98-12.8,2.64-18.08,5.44-3.13,1.7-6.27,3.1-9.93,3.1h-18.39c-.72,0-2.3-.42-2.91-.64-7.81-2.76,17.18-11.51,19.03-16.08-8.68-2.76-31.3,13.14-35.3,13.74-1.77.26-3.55.45-5.25.6v-17.14c2.64-1.4,4.72-2.76,5.81-3.89-1.96.15-3.93.38-5.81.72v-17.67c2.76-.79,5.55-1.47,8.46-2.04,14.5-2.94,29.33-5.51,44.28-4.87,4.64.15,9.29.68,13.93,1.55,4.42.87,10.38,3.66,15.33,6.12,1.62.79,3.1,1.55,4.42,2.19l43.6,21.74,2.11-13.1c.38-1.66.83-3.4,1.25-5.17.72-3.17,1.13-6.46,0-9.7-.34-.94-.26-1.93,0-2.87.68-2.72,2.94-5.4,2.91-7.4l-.6-21.97c-.08-3.21,3.59-7.25,6.38-9.21-3.89-10.72-3.36-21.59,1.51-32.54l7.89,9.85c.76-6.49-2.76-12.46-4.91-18.23-2.72-7.21-3.32-14.19,8.95-21.71l4.76,14.65c7.06-6.15-1.43-5.55-.38-20.76.15-2.27,5.17-3.62,7.25-5.17,1.47-3.13,3.25-5.96,5.47-8.34,3.28-3.55,7.59-6,13.33-6.87l33.94-5.1c1.93-.26,6,1.47,7.06,2.76,1.28,1.51,2.08,6.53,1.62,8.46l-.38,1.47-6.34,25.9-20.39,16.61c5.1.68,7.47-.64,16.76-2.27l-12.5,19.97-11.1,17.71c-3.62,5.81-7.59,11.7-10.91,17.71-2.87,5.25-1.36,15.06-5.74,19.74l-3.66,3.96c-.79.83,1.55,4,2.23,5.29l-4.04,25.22c-.57,3.51-2.15,8.34.19,10.87,7.06-.15,11.33-5.89,15.44-10.8l41.49-49.45c3.21-3.85,9.59-5.59,13.52-7.7,7.14-3.78,15.36-9.74,23.97-5.29l3.36,1.74c.19.11,6-6.72,23.25,1.55l-3.28,12.23,11.06-8.31c5.06,2.08,10.27,6.3,13.21,12.68l-10.91,10.19c2.3,5.55,13.89-2.83,15.89,8.08l5.4,29.26c.26,1.28,1.47,4.34,1.77,5.51.34,1.13-3.7,2.3-4.38,1.28-3.1-4.76-10.16-11.51-15.18-15.7-11.36-9.55-22.31-18.08-38.13-19.59-10.65-1.06-23.18,4.38-29.37,14.42,10.23,2.23,20.99,1.43,27.67,8.46l-10.23,6.46,21.71.98c2.87.98,6.83,6.61,8.95,9.48l-8,5.1,15.33,5.81c6.04,11.89,11.89,23.93,15.86,36.54l5.36,17.21c.42,1.25.6,4.11.26,5.32-1.47,5.85-14.99-4.45-18.57-5.4-37.87-9.93-27.29-9.85-52.78-35.9-13.29,5.66-16.54-2.98-22.76-.26-12.38,5.4-9.21,1.96-31.03,4.53-6.46.76-12.76.45-18.23,5.81,72.9,5.81,147.72,42.28,176.19,113.48-8.46-.64-16.38-2.64-22.92-5.51-5.02-6.95-6.87-14.38-13.7-20.31Z"
            style="fill: rgb(29, 29, 27);"></path>
          <path class="cls-2"
            d="M768.62,693.31l.08-19.86c5.7-.08,8.98-.19,8.98-.19,2.23.79,4.61,1.47,7.17,2.04.04,6.87-.53,14.08-.6,21.14-.04,6.64,2.15,13.02,2.34,19.4l.98,33.33v.04l-14.65,8.68c0-4.53-.19-8.98-.87-13.25-1.02-6.57-2.53-12.65-2.23-19.52.49-10.87-1.25-21.07-1.21-31.82Z"
            style="fill: rgb(29, 29, 27);"></path>
          <polygon class="cls-2"
            points="797.24 1135.87 764.02 1136.02 775.5 1095.97 776.36 998.38 777.99 989.62 778.02 936.05 797.16 936.39 797.24 1135.87"
            style="fill: rgb(29, 29, 27);"></polygon>
          <path class="cls-2"
            d="M898.91,99.85c-8.31-3.85-16.31,1.93-23.26,5.59-3.93,2.11-10.31,3.85-13.55,7.7l-15.86,18.91-25.6,30.54c-1.21,1.43-2.42,2.94-3.74,4.34-3.13,3.44-6.76,6.34-11.74,6.46-2.34-2.53-.76-7.36-.19-10.87l4.08-25.22c-.72-1.28-3.02-4.45-2.23-5.29l3.66-3.96c.76-.79,1.32-1.74,1.77-2.79,2.19-5.1,1.55-12.61,3.96-16.95,3.32-6,7.25-11.89,10.91-17.67l19.1-30.58,4.45-7.14c-1.7.3-3.17.6-4.45.87-5.78,1.17-8.12,1.96-12.27,1.4l12.27-10,8.12-6.61,6.68-27.37c.49-1.93-.3-6.95-1.59-8.46-1.09-1.28-5.13-3.02-7.06-2.72l-6.15.91-27.82,4.19c-9.51,1.4-15.06,7.29-18.76,15.21-2.08,1.51-7.1,2.87-7.25,5.13-1.06,15.21,7.4,14.61.38,20.76l-4.79-14.65c-22.12,13.52-2.34,25.33-4,39.94l-7.93-9.85c-4.83,10.95-5.4,21.82-1.47,32.54-2.79,2-6.49,6-6.38,9.21l.34,13.82v.04l.23,8.12c.08,2.68-4.11,6.64-2.87,10.27,1.32,3.74.53,7.51-.38,11.14-.3,1.25-.64,2.53-.91,3.74l-2.11,13.1-41.3-20.61-2.27-1.13c-5.44-2.68-13.93-7.17-19.74-8.31-19.67-3.78-39.22-.53-58.25,3.32-12.8,2.57-24.01,6.91-35.64,12.53-1.02.45-2.04.98-3.06,1.47-16.01,7.97-20.05,4.64-29.82,23.44l15.59,2.76c15.74-9.59,31.26-19.86,50.29-21.22-5.7,5.93-37.41,16.57-34.84,21.1,12.16.26,22.65,1.06,34.28-.68,4.04-.6,26.65-16.5,35.34-13.74-1.85,4.57-26.84,13.33-19.03,16.08.6.23,2.15.64,2.91.64h18.39c9.85,0,15.93-10.12,27.97-8.53-5.59,3.78-10.65,6.57-18.05,10.49.87,2.79,5.1,4.91,9.02,6.19l48.81,15.55c6.61,2.11,13.18,8.98,19.63,14.19-32.96,5.51-15.52-6.42-47.53.34-8.42,1.77-19.14.49-27.29,4.72-13.06,6.83-26.77,11.97-38.66,20.42-11.51,8.15-22.92,18.01-32.05,28.35-10.61,12.04-16.91,26.31-26.5,40.17,4.98,2.72,9.51,1.17,13.63-1.62l3.7-2.53c0,.91,11.48,11.93,34.01-6,15.36-12.23,30.65-22.92,47.38-34.96l-15.78,27.86,25.82-7.14c9.97-2.76,18.84-6.91,27.03-12.99l12.84-9.51c3.74-2.76,6.72-6.72,11.93-7.36l-24.43,34.88-12.46,17.86-24.24,36.05.23,71.39c6.95-3.7,11.85-7.14,15.59-11.33l4.53-20.12,4.87,9.02,16.38-23.26.57-22.88,7.97,9.78c5.1-9.06,9.55-16.65,13.33-25.86,5.96-14.57,5.06-29.64,11.93-44.77,2.15-4.76,5.1-9.51,9.25-14.27,2.72,2.27,3.81,15.7,5.36,24.95,3.78,22.99,3.32,60.86-.11,83.77l-.79,5.4,17.89-13.59c.26-4.91.38-9.82,1.17-14.35,1.17-6.61,1.28-12.16,1.36-18.72l.34-37.22c.04-5.32,1.55-10.27-.72-15.97l.57-11.4c-2.68-8.49-3.66-17.48-1.59-25.44l18.65,9.93,17.89,9.51c3.7,2,7.55,3.81,11.44,5.66,10.61,5.02,21.37,10,29.97,17.48,1.02.91,12.76,16.95,22.69,14.27v-64.33c-16.57-8.53-34.35-14.99-52.66-19.37-9.66-2.34-19.48-4.11-29.33-5.29-3.66-.45-7.36-.83-11.06-1.13,3.44-3.36,7.17-4.49,11.06-5.06,2.34-.34,4.72-.49,7.14-.76,14.42-1.7,17.93-.76,22.2-1.51,2.23-.38,4.64-1.17,8.83-3.02,6.27-2.72,9.51,5.93,22.8.26,12.19,12.42,16.12,18.91,21.03,23.37v-62.1l-9.14-.42,9.14-5.78,1.09-.68c-.34-.38-.72-.72-1.09-1.02-6.76-5.93-16.87-5.32-26.61-7.44,5.66-9.21,16.69-14.5,26.61-14.53v-39.11Z"
            style="fill: rgb(29, 29, 27);"></path>
          <path class="cls-2"
            d="M606.86,628.11c-5.21,10.49-4.38,20.95-8.49,30.99-2.53,6.12-5.47,11.17-8.83,17.18l-5.32-6.49-.38,15.21-10.87,15.44-3.25-6-2.98,13.36c-2.49,2.79-5.78,5.06-10.38,7.51l-.11-47.38,16.08-23.93,8.27-11.89,2.98-4.27,23.29.26Z"
            style="fill: rgb(29, 29, 27);"></path>
          <path class="cls-2"
            d="M627.24,1004.53l.08,188-22.05.11,7.63-26.58.57-64.82,1.09-5.81.04-46.32c.34-1.02,1.44-3.7,1.93-4.68l-.34-42.06-1.7-8.34c-.94-4.49-.42-8.57-.79-12.91l-2.26-27.48c-.57-6.76.19-13.97-.76-20.5l10.16.19.3,9.55.87,10.83,1.17,8.91,1.25,16.65,1.09,10.65c.49,4.57,1.74,9.78,1.74,14.61Z"
            style="fill: rgb(29, 29, 27);"></path>
          <path class="cls-2"
            d="M629.13,640l-.08,7.78-9.93,10.38c2.94,1.32,6.23,2.57,9.85,3.66l-.04,2.87c-.04,4.38-.15,8.08-.91,12.46-.75,4.11-.6,8.72-.98,13.06l-1.06,12.76-2.11,22.65c-.42,4.45-2.91,22.84-2.98,22.84l-.23,51.46c-.23,1.02-1.36,3.85-1.74,4.83l-.11,29.22-10.23-.45.08-22.16.83-61.84c0,8.8,2.3-19.86,2.53-23.67.04-.23.04-.38.04-.42l1.02-10.95,1.21-11.63,1.62-10.76c2.27-15.21,2.57-40.36.04-55.61-.42-2.53-.75-5.55-1.17-8.31l13.93.15-.04,1.06c1.51,3.78.49,7.06.45,10.61Z"
            style="fill: rgb(29, 29, 27);"></path>
          <path class="cls-2"
            d="M769.04,585.26l-.34,88.19c-25.78.42-100.72.42-139.72-11.63l.08-14.04,26.88-28.09c8.23,4.04,17.03,7.59,23.86,13.52.72.6,9.4,12.53,16.2,9.02,2.79,2.72,15.1,7.7,15.78,6.23l1.81-4c3.21,6.53,8.57,9.7,15.55,7.81l-3.44-11.25c4.57,3.96,5.78,8.91,9.1,13.52,4.34,1.89,9.59,3.21,15.21,3.66-12.57-31.45-38.81-52.74-69.2-64.52l8.19-8.57c7.25,8.65,7.14,9.7,26.88,14.87,2.42.64,11.36,7.47,12.38,3.59.19-.83.08-2.72-.19-3.55l-3.59-11.44c-1.47-4.68-3.32-9.25-5.4-13.74l49.95,10.42Z"
            style="fill: rgb(29, 29, 27);"></path>
          <path class="cls-2"
            d="M898.91,622.26v41.34c-13.67,3.44-32.88,7.81-52.66,10.72-9.85,1.47-19.82,2.53-29.33,2.94-11.78.53-22.84.08-32.05-1.96,0-2.27-.04-4.45-.23-6.64-.64-7.89-.19-13.7-.26-21.52l-.08-12.95.15-45.72,8.34,1.74,24.12-10.16,29.33-12.34,18.27-7.7,34.39,62.25Z"
            style="fill: rgb(29, 29, 27);"></path>
          <path class="cls-2"
            d="M547.93,644.38c-18.88,94.38-313.34,101.93-313.34,101.93l-7.55-37.75-41.53-22.65-30.2-52.85-3.25-5.29,258.07,3.4h88.64c-2.76,4.53-5.4,9.21-8.57,13.82,3.28,1.81,6.3.79,9.02-1.06l2.49-1.74c-.38.26,7.25,8.23,22.54-3.96,3.06-2.42,6.12-4.76,9.17-7.06h12.61l1.89,13.21Z"
            style="fill: rgb(29, 29, 27);"></path>
          <g>
            <rect class="cls-1" x="223.07" y="868.17" width="275.78" height="62.35"
              style="fill: none;"></rect>
            <path class="cls-2"
              d="M237.93,896.7v9.84h-12.79v-36.71h13.63c6.99,0,16.83.44,16.83,13.68,0,10.97-10.28,13.19-16.83,13.19h-.84ZM237.93,880.32v6.4h1.97c2.21,0,3.35-.74,3.35-3.1,0-2.95-1.72-3.3-3.35-3.3h-1.97Z"
              style="fill: rgb(29, 29, 27);"></path>
            <path class="cls-2"
              d="M258.3,869.83h24.31v11.56h-11.52v2.21h10.19v9.1h-10.19v2.26h11.91v11.56h-24.7v-36.71Z"
              style="fill: rgb(29, 29, 27);"></path>
            <path class="cls-2"
              d="M290.08,881.4h-4.97v-11.56h22.73v11.56h-4.97v25.15h-12.79v-25.15Z"
              style="fill: rgb(29, 29, 27);"></path>
            <path class="cls-2" d="M310.4,869.83h12.79v36.71h-12.79v-36.71Z"
              style="fill: rgb(29, 29, 27);"></path>
            <path class="cls-2"
              d="M330.73,881.4h-4.97v-11.56h22.73v11.56h-4.97v25.15h-12.79v-25.15Z"
              style="fill: rgb(29, 29, 27);"></path>
          </g>
          <g>
            <rect class="cls-1" x="219.58" y="911.47" width="139.32" height="62.35"
              style="fill: none;"></rect>
            <path class="cls-2"
              d="M247.58,925.68c-1.72-1.18-3.99-1.57-6.3-1.57-4.58,0-8.17,3.15-8.17,7.33s3.59,7.43,8.17,7.43c2.31,0,4.58-.39,6.3-1.58v12.06c-2.21,1.03-4.58,1.28-7.19,1.28-11.96,0-20.08-8.61-20.08-19.19s8.12-19.09,20.08-19.09c2.61,0,5.07.3,7.19,1.33v12.01Z"
              style="fill: rgb(29, 29, 27);"></path>
            <path class="cls-2"
              d="M292.06,931.44c0,10.83-9.4,19.58-21.01,19.58s-21.06-8.76-21.06-19.58,9.35-19.49,21.06-19.49,21.01,8.71,21.01,19.49ZM262.78,931.54c0,4.38,3.64,7.73,8.27,7.73s8.22-3.4,8.22-7.73-3.64-7.82-8.22-7.82-8.27,3.3-8.27,7.82Z"
              style="fill: rgb(29, 29, 27);"></path>
            <path class="cls-2" d="M294.86,913.14h12.79v36.71h-12.79v-36.71Z"
              style="fill: rgb(29, 29, 27);"></path>
            <path class="cls-2"
              d="M324.58,934.49v15.35h-12.79v-36.71h12.06l11.86,15.06v-15.06h12.79v36.71h-11.81l-12.11-15.35Z"
              style="fill: rgb(29, 29, 27);"></path>
          </g>
          <g>
            <path class="cls-2"
              d="M263.34,930.66c.4,1.06-.04,1.68-.33,2.09-.03.04-.06.08-.09.13-.62.92-1.24,1.85-1.86,2.78-1.85,2.76-3.75,5.61-5.71,8.36-.39.55-.79,1.11-1.19,1.66-6.01,8.32-12.15,16.89-13.45,27.37-.2,1.57.03,2.96.61,4.42.37.92.64,1.66-.12,2.47-2.01,2.15-3.65-.52-3.38-4.05.53-7,4.54-14.88,4.61-15.06l-1.99,2.13c-.46.51-.92,1.03-1.37,1.55-1.17,1.33-2.38,2.7-3.62,4-2.18,2.29-4.16,4.26-6.04,6.02-.95.88-2.07,1.67-3.34,2.35-.5.27-.99.41-1.45.41-1.21,0-2.05-.92-2.19-2.41-.08-.86.05-1.82.38-2.69,2.09-5.63,5.71-9.88,10.78-12.6,1.54-.83,3.09-1.25,4.6-1.25,1.09,0,2.19.22,3.28.64l3.96-4.89,3.1-4.17c4.1-5.87,8.39-12.01,12.78-18.26.2-.28.43-.52.68-.77.12-.12.25-.25.39-.4.11-.12.27-.19.43-.19.04,0,.08,0,.11.01.2.04.36.18.44.37h0ZM239.02,961.76s-.05-.07-.19-.12c-.19-.06-.38-.1-.54-.1-.06,0-.11,0-.16.01-.25.05-.51.09-.77.14-.8.14-1.55.26-2.19.57-4.89,2.35-8.26,6.14-10.01,11.24-.13.38-.17.82-.21,1.29,0,.07-.01.14-.02.2.02,0,.04-.01.06-.02.35-.09.68-.18.92-.33.94-.59,2.03-1.31,3.03-2.15,3.08-2.59,5.79-5.68,8.41-8.67l.53-.6c.37-.42.72-.81,1.04-1.24.1-.14.11-.22.11-.23Z"
              style="fill: rgb(29, 29, 27);"></path>
            <path class="cls-2"
              d="M272.59,962.3l-.44.54c-.32.38-.63.77-.94,1.15-3.63,4.53-6.69,7.43-11.05,10.66-1.93,1.43-4.3,2.96-7.17,3.44-.4.07-.84.1-1.3.1-.38,0-.77-.02-1.18-.07-1.21-.13-2-.9-2.64-1.61-2.15-2.36-1.85-4.96-1.2-7.4.08-.32.17-.64.25-.95.12-.47.24-.95.37-1.42.07-.26.21-.52.4-.73.25-.29.52-.58.78-.87.32-.35.64-.71.95-1.07,1.71-2.02,3.55-3.36,5.63-4.09.86-.3,1.61-.45,2.29-.45.07,0,.14,0,.21,0,1.23.06,2.27.69,2.79,1.7.51,1,.42,2.2-.25,3.21-.45.69-1.12,1.36-2,1.99-2.01,1.45-4.41,2.31-7.36,2.64-.12.01-.24.02-.38.02-.35,0-.71-.05-1.05-.1-.07,0-.15-.02-.22-.03-.84,2.03-.87,3.86-.09,5.57.57,1.25,1.38,1.8,2.63,1.8.21,0,.43-.02.67-.05,1.75-.24,3.29-.99,4.57-1.69,3.37-1.86,6.21-4.48,8.55-6.8,1.55-1.54,2.07-2.14,3.53-3.72.7-.75,1.39-1.5,2.1-2.25.22-.23.54-.49,1.13-.5h0c.23,0,.43.13.53.33.1.21.07.45-.08.63ZM251.5,965.16c1.98-.4,4-1.55,4.96-2.67-1.79.22-3.36,1.06-4.96,2.67Z"
              style="fill: rgb(29, 29, 27);"></path>
            <path class="cls-2"
              d="M331.33,965.88c-.33.45-.74.67-1.24.67-.13,0-.25-.01-.36-.03-.05,0-.11-.01-.16-.02-.43-.02-.87-.03-1.3-.03-3.26,0-6.5.5-9.9,1.53-.84.25-1.24.62-1.53,1.39-1.55,4.13-4.05,7.25-7.43,9.26-.63.38-1.21.62-1.77.75-.19.05-.39.07-.57.07-.56,0-1.07-.2-1.42-.58-.36-.37-.54-.88-.52-1.44.03-.78.17-1.88.72-2.66.88-1.27,1.86-2.57,3.1-3.51,1.84-1.41,3.89-2.57,5.65-3.51.8-.43.96-.78.97-1.22,0-1.01-.07-1.99-.24-2.91-.07-.36-.35-.58-.75-.58h-.05c-.9.04-1.71.09-2.46.3-1.92.53-3.78,1.58-5.87,3.3-6.24,5.14-10.86,10.43-14.1,16.2-1.26,2.24-2.52,4.48-3.78,6.73-1.49,2.65-2.97,5.3-4.47,7.95-.69,1.22-1.42,2.46-2.12,3.65-.3.51-.61,1.03-.91,1.55-.02.04-.04.08-.06.11-.09.17-.2.42-.45.57-.06.04-.12.08-.19.13-.33.22-.7.48-1.11.48-.08,0-.16,0-.23-.03-.44-.11-.66-.38-.77-.58-.25-.47-.15-1.03-.02-1.41.21-.62.48-1.26.86-2.09,2.74-5.84,6.24-11.12,9.31-15.51,4.46-6.38,7.99-13.31,11.39-20.01l.15-.3c.45-.87,1.57-3.39,1.37-4.34-.12-.58.12-1.3,1.16-1.61.2-.06.43-.09.67-.09.86,0,1.75.38,2.23.96.63.76.41,1.45.13,1.89-1.37,2.09-3.66,6.26-5.22,8.72,2.47-2.49,4.67-4.32,6.95-5.79,1.22-.78,2.55-1.41,3.83-2.01l.38-.18c.56-.26,1.24-.44,2.01-.53.27-.03.53-.05.78-.05,1.15,0,2.06.33,2.7.98.71.71,1.06,1.77,1.06,3.15,0,.42-.03.81-.07,1.27,3.9-1.12,7.26-1.65,10.5-1.65.91,0,1.83.04,2.73.13.21.02.4.15.48.34.09.19.06.42-.06.59ZM314.61,969.57c-2.48,1.22-4.46,2.67-6.04,4.42-.59.65-1.05,1.46-1.47,2.18-.27.47-.28.77-.16,1.02.09.02.18.02.27.02.62,0,1.23-.36,1.84-.76,2.35-1.54,4.14-3.75,5.55-6.89Z"
              style="fill: rgb(29, 29, 27);"></path>
            <path class="cls-2"
              d="M360.21,962.17c-.02.09-.04.19-.06.28-.05.23-.09.47-.18.72-1.4,3.9-3.09,6.35-6.5,10.37-1.32,1.55-2.81,3.13-4.78,4.16-.93.49-2.16,1.05-3.4,1.08-.05,0-.1,0-.16,0-2.56,0-4.3-1.77-4.52-4.62-.16-2.09.15-4.23.97-6.55,0-.02.02-.05.02-.07-1.98,2.41-3.99,4.72-6.39,6.71-1.28,1.06-2.42,1.84-3.84,2.25-.44.13-.88.19-1.3.19-1.91,0-3.27-1.29-3.56-3.36-.2-1.43.02-2.88.65-4.32,1.72-3.92,4.49-6.93,8.24-8.94,1.52-.81,3.12-1.23,4.75-1.23,1.25,0,2.53.24,3.8.72.94.35,1.98.88,2.65,2.08.1.18.1.39,0,.57-.08.14-.16.28-.24.43-.18.33-.37.66-.55,1.01-1.56,3.01-2.48,5.88-2.81,8.79-.14,1.21.02,2.3.46,3.27.4.87.97,1.31,1.7,1.31.24,0,.51-.05.79-.15,1.11-.38,2.13-.9,2.95-1.49,2.83-2.02,5.26-4.88,7.67-8.99.64-1.1,1.19-2.29,1.71-3.45.25-.54-.06.16.2-.38.15-.31.35-.72.83-1.04.1-.07.21-.1.33-.1s.23.04.34.11c.2.14.29.38.24.62ZM342.36,962.78c-.45-.44-.95-.65-1.53-.65h-.47c-1.03.02-2.09.03-3.01.31-3.23.97-5.85,3.08-7.77,6.28-.63,1.04-.95,2.16-.96,3.31,0,.9.19,1.59.57,1.98.24.25.57.37.96.37h0c.41,0,.89-.13,1.41-.39.86-.42,1.75-1.03,2.65-1.79.9-.76,1.77-1.65,2.6-2.63,1.4-1.66,2.74-3.32,4.16-5.07.46-.57.92-1.14,1.39-1.71Z"
              style="fill: rgb(29, 29, 27);"></path>
            <path class="cls-2"
              d="M382.84,964.45s-4.56,3.05-9.06,3.96c-4.43.9-2.68-4.31-2.62-4.47.01-.05.02-.11.03-.16.12-.6.24-1.21.18-1.84-.01-.16-.12-.21-.27-.2h0c-1.55.07-2.91.63-4.19,1.39-1.24.74-2.4,1.52-3.42,2.54-1.65,1.65-3.09,3.52-4.52,5.37-.27.35-.53.74-.78,1.16-.18.3-.36.62-.57.92-1.12,1.57-2.59,3.65-4.14,5.71-.36.48-.84.85-1.34,1.03-.12.04-.27.07-.42.07-.39,0-.94-.15-1.27-.49-.44-.44-.44-1.22-.34-1.61.12-.48.42-.87.67-1.22l.04-.06c.17-.23.33-.46.5-.68.58-.79,1.18-1.61,1.84-2.37,2.04-2.33,3.4-5.1,4.57-7.74l.11-.26c.56-1.25,1.08-2.42.76-3.79-.11-.45-.16-1.13.26-1.67.66-.84,1.32-.8,1.92-.8.56,0,1.17.19,1.72.53,1.1.69.88,2.51.43,3.48-.04.08-.08.16-.12.25.43-.35.87-.7,1.33-1.02,1.36-.94,2.78-1.84,4.22-2.66.61-.35,1.38-.6,2.23-.72.17-.02.34-.04.51-.04.82,0,1.57.3,2.11.86.56.57.85,1.36.81,2.23-.02.61-.11,1.2-.22,1.79h0c-.05.24-.09.48-.14.71h-.04c-.08.57-.04,1.34.57,1.84.74.61,7.52-1.82,8.34-2.3.82-.47.28.25.28.25Z"
              style="fill: rgb(29, 29, 27);"></path>
            <path class="cls-2"
              d="M410.47,962.17c-.02.09-.04.19-.06.28-.05.23-.09.47-.18.72-1.4,3.9-3.09,6.35-6.5,10.37-1.32,1.55-2.81,3.13-4.78,4.16-.93.49-2.16,1.05-3.4,1.08-.05,0-.1,0-.16,0-2.56,0-4.3-1.77-4.52-4.62-.16-2.09.15-4.23.97-6.55,0-.02.02-.05.02-.07-1.98,2.41-3.99,4.72-6.39,6.71-1.28,1.06-2.42,1.84-3.84,2.25-.44.13-.88.19-1.3.19-1.91,0-3.27-1.29-3.56-3.36-.2-1.43.02-2.88.65-4.32,1.72-3.92,4.49-6.93,8.24-8.94,1.52-.81,3.12-1.23,4.75-1.23,1.25,0,2.53.24,3.8.72.94.35,1.98.88,2.65,2.08.1.18.1.39,0,.57-.08.14-.16.28-.24.43-.18.33-.37.66-.55,1.01-1.56,3.01-2.48,5.88-2.81,8.79-.14,1.21.02,2.3.46,3.27.4.87.97,1.31,1.7,1.31.24,0,.51-.05.79-.15,1.11-.38,2.13-.9,2.95-1.49,2.83-2.02,5.26-4.88,7.67-8.99.64-1.1,1.19-2.29,1.71-3.45.25-.54-.06.16.2-.38.15-.31.35-.72.83-1.04.1-.07.21-.1.33-.1s.23.04.34.11c.2.14.29.38.24.62ZM392.61,962.78c-.45-.44-.95-.65-1.53-.65h-.47c-1.03.02-2.09.03-3.01.31-3.23.97-5.85,3.08-7.77,6.28-.63,1.04-.95,2.16-.96,3.31,0,.9.19,1.59.57,1.98.24.25.57.37.96.37h0c.41,0,.89-.13,1.41-.39.86-.42,1.75-1.03,2.65-1.79.9-.76,1.77-1.65,2.6-2.63,1.4-1.66,2.74-3.32,4.16-5.07.46-.57.92-1.14,1.39-1.71Z"
              style="fill: rgb(29, 29, 27);"></path>
            <path class="cls-2"
              d="M444.5,930.66c.4,1.06-.04,1.68-.33,2.09-.03.04-.06.08-.09.13-.62.92-1.24,1.85-1.86,2.78-1.85,2.76-3.75,5.61-5.71,8.36-.39.55-.79,1.11-1.19,1.66-6.01,8.32-12.15,16.89-13.45,27.37-.2,1.57.03,2.96.61,4.42.37.92.64,1.66-.12,2.47-2.01,2.15-3.65-.52-3.38-4.05.53-7,4.54-14.88,4.61-15.06l-1.99,2.13c-.46.51-.92,1.03-1.37,1.55-1.17,1.33-2.38,2.7-3.62,4-2.18,2.29-4.16,4.26-6.04,6.02-.95.88-2.07,1.67-3.34,2.35-.5.27-.99.41-1.45.41-1.21,0-2.05-.92-2.19-2.41-.08-.86.05-1.82.38-2.69,2.09-5.63,5.71-9.88,10.78-12.6,1.54-.83,3.09-1.25,4.6-1.25,1.09,0,2.19.22,3.28.64l3.96-4.89,3.1-4.17c4.1-5.87,8.39-12.01,12.78-18.26.2-.28.43-.52.68-.77.12-.12.25-.25.39-.4.11-.12.27-.19.43-.19.04,0,.08,0,.11.01.2.04.36.18.44.37h0ZM420.18,961.76s-.05-.07-.19-.12c-.19-.06-.38-.1-.54-.1-.06,0-.11,0-.16.01-.25.05-.51.09-.77.14-.8.14-1.55.26-2.19.57-4.89,2.35-8.26,6.14-10.01,11.24-.13.38-.17.82-.21,1.29,0,.07-.01.14-.02.2.02,0,.04-.01.06-.02.35-.09.68-.18.92-.33.94-.59,2.03-1.31,3.03-2.15,3.08-2.59,5.79-5.68,8.41-8.67l.53-.6c.37-.42.72-.81,1.04-1.24.1-.14.11-.22.11-.23Z"
              style="fill: rgb(29, 29, 27);"></path>
            <path class="cls-2"
              d="M450.91,961.55c.19.17.25.46.13.69-.09.18-.16.33-.21.45-.11.24-.19.41-.3.58-3.19,4.7-5.9,7.44-11.05,11.89-1.58,1.37-3.76,3-6.56,3.43-.32.05-.64.07-.94.07-2.34,0-3.79-1.46-3.89-3.9-.06-1.58.12-2.96.53-4.1.64-1.75,1.45-3.45,2.23-5.09.24-.49.47-.99.7-1.48.24-.51,1.2-2.15,1.46-2.63.18-.33.37-.67.54-1,.44-.85,1.39-1.41,2.43-1.41.68,0,1.3.24,1.75.67.37.36.56.82.5,1.26-.05.42-.3.79-.71,1.03-3.14,1.86-5.33,6.14-6.59,9.18-.37.9-.62,1.97-.71,3.08-.07.88.12,1.61.53,2.06.31.34.76.52,1.29.52.4,0,.83-.1,1.29-.29,1.3-.54,2.65-1.28,4.12-2.26,3.57-2.38,6.42-5.59,9.03-8.68.96-1.14.57-.62,1.48-1.77.49-.62.98-1.24,1.48-1.86.12-.15.25-.22.42-.31.08-.05.19-.11.35-.2.09-.06.2-.09.31-.09.14,0,.28.05.4.15h0ZM436.14,956.31c-.08-.74.2-1.5.77-2.13.66-.73,1.6-1.17,2.5-1.17.33,0,.64.06.93.17.7.27,1.18.73,1.35,1.3.11.37.13.95-.37,1.63l-.11.16c-.56.77-1.25,1.72-2.84,1.72-.06,0-.13,0-.2,0-.07,0-.13-.02-.19-.04-.03-.01-.08-.03-.14-.05-.24-.08-.63-.22-.99-.44-.36-.23-.66-.71-.71-1.15Z"
              style="fill: rgb(29, 29, 27);"></path>
            <path class="cls-2"
              d="M469.46,964.69c-.1.14-.25.23-.41.25-3.58.41-8.19,1.16-12.57,3.35.08.09.16.17.24.25,1.35,1.4,1.68,3.11.99,5.08-1.05,3-4.32,5.27-7.61,5.27-.27,0-.54-.02-.79-.05-1.64-.19-2.35-.91-2.67-1.48-.31-.56-.52-1.53.17-2.97.52-1.07,1.26-2.11,2.14-2.99.76-.76,1.6-1.41,2.49-2.1.15-.12.31-.24.46-.36-.23-.11-.45-.22-.67-.33-2.1-1.04-2.66-2.32-2.76-3.2-.1-.88.15-2.25,1.94-3.73,1.93-1.59,4.22-2.4,6.8-2.4.33,0,.67.01,1,.04,1.16.09,2.08.6,2.68,1.48.38.56.44,1.18.18,1.69-.27.51-.83.83-1.51.85h-.05c-.37,0-.73-.1-1-.18-.55-.17-1.11-.26-1.64-.26-1.35,0-2.68.55-4.06,1.67-.65.53-.67.75-.67.79,0,.06.08.29.86.79.81.52,1.48.75,2.15.75.55,0,1.14-.16,1.8-.49,3.17-1.59,6.87-2.57,11.32-2.99.09,0,.17-.01.26-.01.06,0,.13,0,.19,0,.05,0,.11,0,.16,0,.27,0,.51.19.57.46l.09.37c.04.16,0,.33-.09.47ZM455.63,972.74c.24-1.1-.03-2.03-2.09-2.98-.27.21-.54.41-.81.62-.88.67-1.79,1.36-2.6,2.13-.67.64-1.29,1.49-1.85,2.53-.25.47-.32.86-.19,1.1.13.24.52.4,1.07.44.22.02.44.02.65.02,1.96,0,3.59-.68,4.82-2.01.48-.52.85-1.21.99-1.86h0Z"
              style="fill: rgb(29, 29, 27);"></path>
          </g>
        </g>
      </g>
    </g>
  </g>
</svg>