<svg xmlns="http://www.w3.org/2000/svg" viewBox="0 0 840 1680" width="840px" height="1680px">
  <g id="Calque_2" transform="matrix(0.932945, 0, 0, 1, 210.910614, -190.98941)" style="">
    <g id="Calque_1-2" data-name="Calque 1" transform="matrix(1, 0, 0, 1, -229.257339, 453.748596)">
      <g>
        <path class="cls-1"
          d="M241.38,1164.94l-18.53,39.37c9.24-12.12,16.15-25.12,22.61-38.7l13.65-28.7c4.66-9.8,10.5-21.14,15.85-30.44.34-.59,2.8-.22,2.89.38.77,5.29-4.78,19.21-7.02,24.99l-15.18,39.26c-1,2.58-2.94,4.67-2.85,7.73l10.04-17.57c1.8-3.15,3.44-6.57,5-9.95l22.23-48.29c2.5-5.42,5.11-10.43,8.52-15.99,3.35,8.84,1.18,17.4-2.27,25.18l-11.95,26.99c13.12-18.83,20.55-35.18,35.35-53.6.52-.65,2.78.48,2.92,1.19.73,3.65-14.24,32.25-17.13,37.6.09.26,1.2,1.36,1.6,1.09s.91-.78,1.92-1.91c15.95-17.81,34.75-36.71,52-52.91.77-.72,2.56-.81,3.05-.94,7.05-1.9-23.28,30.74-25.64,32.86l-28.45,25.51c-1.8-.35-4.01-.98-5.82-1.52l-20.62,28.11c-.39.53-.13,1.63.24,1.71,4.07.85,5.72-9.33,20.84-18.85,17.75-11.17,35.67-19.84,54.59-28.71,15.23-7.14,30.96-11.26,47.43-14.87,6.02-1.32,17.71-1.08,20.49,2.05,2.22,2.5-19.22,7.97-21.4,8.47-32.21,7.48-63.25,18.18-91.01,36.15,9.32-1.72,15.88-6.87,23.98-9.84l11.36-4.74c20.6-8.59,42.04-13.35,64.01-17.18,8.12-1.41,16.98-1.7,24.97-2.63,1.06-.12,2.55,3.45,1.64,3.83l-57.21,15.68c-8.3,2.28-15.59,4.42-23.88,7.96l31.27-.9-.43-4.42c-.1-1.01,2.78-1.46,3.74-1.89,9.55-4.29,19.16-4.44,29.33-3.4,10,1.02,21.42,1.92,28.1,12.41l-59.18-4.53c3,4.35,8.68,1.93,13.02,2.6l17.74,2.74,34.73,8.03c.88.2,1.16,2.68.66,2.98-.63.38-2,.99-2.84.9l-48.04-4.94-26.57-2.34c-.44,1.83-.56,4.06-.25,5.61,27.21-.28,52.96,6.94,79.38,13.28,1,.24,1.99.74,2.5,1.1,7.88,5.53-35.8.87-37.3,1.12l18.69,9.79c5.51,2.89,11.21,6.94,14.98,11.98.39.52.33,2.66-.27,2.9-3.4,1.35-40.49-19.3-47.1-22.65l-6.8-3.44c-1.33-.67-2.47-2.07-3.08-3.84l-23.89-8.2c1.07-3.23,1.43-5.71.91-7.84l-21.22-1.7c.73-1.98.97-5.51-.17-5.2l-32.88,9.06c4.23,2.07,8.8,3.47,9.31,7.71.34,2.77-1.57,5.36-3.3,6.82l-7.13,6.03-6.65,5.56c-1.47.75-4.95,2.04-3.61,4.23l4.98,1.86c3.31-5.08,5.93-10.78,11.03-13.46,6.1-3.2,11.87,1.78,16.13,5.39l6.06,5.13c-1.34,3.43-2.82,5.9-4.78,8.43l-15.15,19.58-5.87-3.14c-1.23-.66-2.67-1.43-3.42-2.27-.69-.77.43-2.72,1.08-3.09-1.04-.12-2.95-.84-3.52-1.75-.48-.76-.76-2.21-1.09-3.06l-1.4-3.13c-.33-.74,1.16-1.38,2.19-1.83-.9-.39-3.07-.76-2.76-1.31l1.82-3.23c-2.62-1.36-6.72-2.75-9.78-4.74-3.07-1.99-3.34-8.81-3.69-12.11-.65-6.21,2.6-10.29,6.86-14.15l2.21-2c.58-.53-.7-2.74-1.48-3.05-8.14,5.01-16.53,11.41-23.79,17.85l-10.54-2.54c.16-2.09.41-4.17-.06-6.43-8.52,15-17.2,29.89-27.08,43.81-.59.84-3.76,1.18-4.1.29-.39-1.05-.44-2.98-.52-4.92l-14.22,19.11c-8.64,11.6-19.15,21.11-30.28,30.44-.79.66-2.11,1.42-2.82,1.39-.86-.04-2.7-1.63-2.57-2.23l6.44-7.6c6.55-7.72,12.51-15.43,18.58-23.68l-4.17-2.3,7.77-29.66c-1.17-5.91-3.05-12.64-3.27-19.28l-2.5-72.93c-.15-4.32.2-8.27,1.69-12.47.47-1.32,4.1.48,4.51,1.82,7.14,23.53,6.26,43.03,5.76,67.06l-.38,18.32,7.51-21.58c-1.79-1.39-2.54-3.09-2.41-5.26l1.56-27.37,1.59-22.64c9.56-6.95,5.07,32.44,6.63,37.91l8.98-19.06c1.84-3.9,4.73-7.06,8.41-10.08.41,8.5-1.4,15.56-3.34,23.46-4.45,18.09-10.55,34.96-18.65,52.16Z"
          style="fill: rgb(29, 29, 27);"></path>
        <path class="cls-1"
          d="M184.02,1067.14c-.32-.89,1.86-2.68,2.53-2.42.66.25,1.86.8,2.52,1.32,11.85,9.34,11.15,20.64,17.82,33.09.53-2.96-3-35.66.89-35.38,9.51.69,10.87,64.36,10.88,74.98,0,1.78-.79,4.68-.59,6.35.78,6.56-.76,11.83-4.99,16.57-3.49,3.91-9.5,10.42-15.43,7.13-8.66-4.81-5.4-24.14-2.56-32.73l3.28-9.91c3.22,2.94,4.52,4.78,6.73,7.43l5.33,6.37c-.21-8.86-7.28-25.61-12.03-36.5-4.89-11.21-10.33-24.98-14.39-36.29Z"
          style="fill: rgb(29, 29, 27);"></path>
        <path class="cls-1"
          d="M373.45,1085.14c21.96-9.73,34.31-7.06,27.41-3.99-8.44,3.76-18.01,8.84-27.26,13.7l-34.69,18.19c-.81.42-2.47-1.3-2.29-2.01.19-.72,1-2.08,1.7-2.67,10.95-9.24,22.02-17.42,35.13-23.23Z"
          style="fill: rgb(29, 29, 27);"></path>
        <g>
          <path class="cls-1"
            d="M128.11,1310.27c-10.27,7.69-21.73,3.66-16.7,1.6-1.32-3.66,1.14-6.15.12-6.55l-1.76-.7c-.44-.17-.59,1.56-.78,2.03l-3.38,7.99-3.24,7.66c5.86-3.03,11.46-7.46,18.33-6.77,4.83.48,6.98,6.9,5.63,11.22,1.56-.11,1.94-.31,2.38-.84.42-.51-.4-2.87-.2-3.58,1.25-4.31,4.61-10.66,8.52-13.58,2.64-1.97,6.2-2.87,9.13-4.6l-10.8-.27c-.61-.02.5-2.26.44-2.78-.58-4.35-.35-12.4,3.11-16.43l-.33-2.17c-.45-3,9.48-6.05,8.95-5.74,2.85-1.68,6.43-2.15,9.96-2.02,3.93.15,7.4-.23,11.8.48l-6.12,14.03c-2.89,6.62-7.9,11.58-14.38,14.2l3.41.72c.75-1.83,5.84-3.37,7.49-1.46,2.06,7.8,1.58,16.98-2.79,23.78-4.66,7.24-12.92,9.59-20.77,11.62-2.94.76-4.9,1.4-7.9-.04l-1.32,5.52c6.8-1.95,12.7-3.5,19.5-4.64,1.7,2.05,1.3,4.84,1.28,7.26l-.11,11.41c-.04,3.99.48,8.48.11,12.01-1.34,1.85-2.39,3.74-3.65,3.85-1.75.16-9.35-.99-11.58-1.56l-10.36-2.66c1.15,3.71,1.93,6.94.92,9.77-1.06,2.96-15.07,4.27-19.87-6.59-5.42-12.26,6.23-19.33,15.94-23.91l4.45.35,4.08-15.11c.17-.64-1.26-2.73-1.5-2.51-1.2,5.67-5.44,8.3-8.5,11.47-2.56,2.65-4.35,4.76-7.93,6.06-2.61.94-5.09,5.3-9.49,5.34-1.65-8.73-1.99-16.91-1.09-26.2l-2.2.95c-8.16-6.19.76-20.81,5.85-25,1.77-1.45,6.75-.48,9.11-.68l5.28-8.96c-3.89,2.4-5.75,4.64-10.1,5.49,2.94-19.26,5.96-16.15,23.48-26.03,8.52-4.81,17.92-3.06,16.77-.65-.29.61-1.12,1.29-2.05,1.87l-7.86,4.92c-3.72,2.33-7.14,4.66-10.19,8.27,1.32-.79,5.9-1.82,6.96-.19,1.93,2.97.45,6.97-.41,9.92-1.3,4.5-1.62,9.45-5.6,12.42Z"
            style="fill: rgb(29, 29, 27);"></path>
          <path class="cls-1"
            d="M191.56,1293.75c-.4.55-8.01,1.1-9.89-1.18l-.66,1.47c-.63,1.39-8.24.94-10.78-1.39-1.14,1.62-.34,6.59,1.3,6.18l12.36-3.14c1.52-.39,5.03,1.02,6.09,2.12,1.5,1.56,1.86,3.79,2.56,5.84l4.59,13.32c-9.03,3.95-23.13,4.94-30.28,8.9l5.29-.39c4.44-.33,6.51,14.15,6.26,17.74-.06.9-.45,2.61-.59,3.39-1.04,5.72-15.87,7.56-20.6,6.5l-8.36.8c2.59-13.35,4.03-23.49,18.5-27.87-5.1-4.59-6.05-9.86-4.61-15.69,1.08-4.37,2.02-7.82,7.07-10.12-1.41-2.5-3.3-5.17-5.18-7.41.37-8.12,6.02-15.48,13.74-17.36,8.64-2.1,15.48,2.46,17.8,10.65.38,1.34.97,2.89.49,4.27-.34.98-2.43,1.6-3.64,1.4l-1.45,1.99Z"
            style="fill: rgb(29, 29, 27);"></path>
          <path class="cls-1"
            d="M186.35,1354.98c2.49-1.62,7.02-2.29,10.22-1.8,3.4-1.02,8.56-2.81,12.21-.47,3.41,2.18,3.73,7.8,4.87,11.4,2.33,7.38-1.07,14.06-8.54,16.29-7.27,2.17-19.43,6.75-20.78-2.46-1.16-7.93-1.66-15.42,2.02-22.96Z"
            style="fill: rgb(29, 29, 27);"></path>
          <path class="cls-1"
            d="M185.09,1325.5c8.04-4.96,17.61-5.23,27-4.95.85,3.94,1.61,7.31,1.81,11.11l.51,9.63c.17,3.17-10.93,6.52-13.7,7.25-5,1.31-7.89,1.07-11.98-2.77-2.81-2.63-6.12-4.92-6.86-9.18-.53-3.01-.93-8.52,3.23-11.09Z"
            style="fill: rgb(29, 29, 27);"></path>
          <path class="cls-1"
            d="M153.94,1388.52c-.63-9.35-7.69-28.43,4.49-31.01,4.96-1.05,10.95-.33,15.79,1.21,3.65,1.16,4.41,4,4.18,7.21l-.75,10.34c-.22,3.09.75,8.58-3.44,10.48-1.12.51-10.76,3.53-12.25.36.88,1.88-5.07,2.66-8.01,1.41Z"
            style="fill: rgb(29, 29, 27);"></path>
          <path class="cls-1"
            d="M196.45,1301.39c3.09-6.7,23.72-8.53,26.67,1.89,2.15,7.59,4.33,5.82,5.3,17.45-3.54.51-7.17-.35-10.83-1.06-3.67-.71-6.77-.84-10.83-2.27-5.4-1.9-13.19-9.77-10.31-16.01Z"
            style="fill: rgb(29, 29, 27);"></path>
          <path class="cls-1"
            d="M126.83,1387.73c-.11-2.96,1.71-8.21,4.17-10.11,12.56-3.92,24.29,17.68,27.34,27.85l-16.44-1.36c-10.74-7.71-5.2-7.38-15.07-16.39Z"
            style="fill: rgb(29, 29, 27);"></path>
          <path class="cls-1"
            d="M210.66,1384.48l-.04-2.7c-.05-3.37,14.38-7.46,23.52,2.02,4.61,4.78-2.66,15.03-7.84,16.65-5.91,1.85-9.41-1.64-11.21-6.6-2.9-8.02-4.32-5.38-4.43-9.37Z"
            style="fill: rgb(29, 29, 27);"></path>
          <path class="cls-1"
            d="M159.77,1393.15c3.08-2.4,6.47-2.61,9.63.25l-.27-2.4c8.24-3.95,16.84,9.79,21.86,15.93-9.53,5.59-17.91,4.46-26.28-1.54-3.64-2.61-4.37-8.04-4.94-12.25Z"
            style="fill: rgb(29, 29, 27);"></path>
          <path class="cls-1"
            d="M217.48,1335.78c.02-.34,1.02-.78,1.37-.76s-1.04-1.43-1.07-1.78l-.68-7.94c8.69,2.93,13.65,4.51,18.46,12.13,2.97,4.7,2.89,11.14,1.39,16.51-8.25-.35-14.12-4.86-19.13-11.16l2.28-.67-2.81-3.08.18-3.25Z"
            style="fill: rgb(29, 29, 27);"></path>
          <path class="cls-1"
            d="M189.07,1390.03c3.31-5.93,15.08-2.49,17.28.11l10.24,12.08c-6.37,4.37-14.15,5.45-20.32,1.3-11.25-7.59-10.01-14.14-9.39-14l2.19.51Z"
            style="fill: rgb(29, 29, 27);"></path>
          <path class="cls-1"
            d="M221.03,1371.59c-.72-.6-4.25-9.29-3.2-13.68.71-2.96,4.99-3.65,7.92-2.93,7.53,1.85,12.97,8.39,12.16,16.22l-1,9.74c-6.7-2.01-10.9-5.21-15.88-9.34Z"
            style="fill: rgb(29, 29, 27);"></path>
        </g>
        <g>
          <path class="cls-1"
            d="M320.94,1291.47c1.88-.62,2.66-3.4,3.34-6.35,1.31-.43,3.98.63,6.12,1.2l18.36,4.84c.86-.41,2.88-1.5,3.81-1.41l29.04,2.96c10.12,1.03,20.07,2.46,29.77,4.06,4.77.79-.08,7.28-16.61,5.68l-21.99-2.13c5.41,4,29.91,15.73,29.93,20.67,0,.49-1.25,1.11-2.47.64-10.56-4-27.67-10.54-40.48-15.58-12.37-4.87-22.61-10.39-33.6-18.01-1.28.82-2.61,3.01-2.96,4.89l32.13,17.58,33.01,17.31c.8.42,2.1,1.59,2.36,2.31.26.72-.41,2.52-.82,2.83l-28.9-10.51c-10.47-3.81-21.9-10.41-31.12-15.48-.62-.34-1.82-.36-2.15-.33s.08,1.51.67,1.84l49.61,27.34c-1.33,3.17-4.28,2.5-6.53,2.56-9.2.27-16.66-3.37-24.5-7.77-8.3-4.66-15.69-9.98-21.06-18.34-.47-.73-2.23-2.84-1.76-3.58l2.33-3.7-10.66-7.7-15.55-11.08c4.66,6.68,9.06,12.02,14.23,18.04l41.15,47.87c-.55.89-2.32,2.48-2.99,2.05-.86-.55-2.19-1.55-3.31-2.42-26.93-20.92-54.36-52.25-71.87-81.36-2.92-4.85-4.96-10.16-9.8-13.94,12.07,27.07,28.94,50.91,48.61,72.68,7.2,7.97,13.54,15.25,20,23.64l.82,1.76c1.96,4.18-11.45-1.8-13.91-3.98-14.1-12.52-25.64-26.49-35.68-42.55-13.13-21.01-30.49-50.35-35.59-74.35.72,23.12-2.29,45.4-8.64,67.73l-.85,3c-.24.85-2.84.76-3.77.34-.31-9.39.13-19.02,1.2-28.54l2.72-24.15c.89-7.9,1.85-15.35,3.35-22.98l-2.43-.91c-.66-.25-1.17,2.1-1.38,3.23l-10.66,56.69c-.22,1.16-2.37,1.5-2.74,1-.47-.62-1.3-2.23-1.32-3.28-.52-27.46,1.74-30.33,11.07-55.64.5-1.37,1.93-4.55,3.21-4.28,1.55.34,3.32.88,4.27.89.96,0,1.83-2.12,2.82-3.61,2-.09,6.39,1.99,7.92,3.86,2.51,9.31,5.53,17.7,9.29,26.67l4.39-.2c9.29,9.18,18.2,19.33,26.58,29.2.5.59,2.6,1.52,3.34,1.72.74.19,1.49-1.15,2.49-2.65l18.17,9.74Z"
            style="fill: rgb(29, 29, 27);"></path>
          <path class="cls-1"
            d="M265.65,1344.46c-1.86-4.94-2.57-8.79-3.16-13.75-1.4-11.85-7.14-59.32-6.05-67.59.08-.64,2.37-.61,2.78-.12s.52,1.25.73,2.4l4.99,26.63h7.26s17.08,31.32,17.08,31.32l16.27,29.37c.23.42.5,1.38.62,1.8s-2.44.9-2.85.61c-10.99-7.86-22.07-25.49-27.37-39.23-2.44-6.33-5.15-15.12-7.02-21.2-.18-.6-1.92-1.41-2.48-1.36-.57.06-1.13,1.74-1.05,2.33.62,4.69,5.89,46.19.24,48.78Z"
            style="fill: rgb(29, 29, 27);"></path>
          <path class="cls-1"
            d="M213.59,1269.66c-.24-15.13,10.41-30.55,18.24-42.54.28-.42,2.72-.74,2.83-.32.15.59.11,1.47-.29,2.37-6.21,13.72-12.17,26.98-17.04,41.14-.29.85-.78,2.02-1.06,2.6-.26.55-2.52-.28-2.55-.88l-.13-2.38Z"
            style="fill: rgb(29, 29, 27);"></path>
        </g>
        <g>
          <path class="cls-1"
            d="M255.75,1199.45c-1.44-.04-7.18.98-7.18.94-18.67,7.37-21.62,25.82-48.27,43.7-19.01,12.78-32.21,14.59-53.75,16.14l2.95-3.1c3.06-.45,6.5-.98,8.92-4.31-4.31-2.46-8.24-3.25-12.51-3.86l13.23-4.31c.08,4.76,3.55,8.39,8.32,7.67,11.94-1.81,20.26-4.08,23.21-16.22l-2.65,1.25-4.35-1.21c4.5-.04,4.65-4.08,6.39-5.1,5.86-3.44,13.8-13.8,16.1-18.33-12.78-4.88-33.15-6.96-42.15,1.06l-1.02-2.95c1.06,3.02,8.2-3.06,7.52-8.28-14.25-9.64-29.6-18.22-44.75-3.93-3.89,3.63-7.75,7.98-8.2,12.59,3.44,1.51,6.39,3.18,9.19,5.44l1.1-2.31,2.04,3.82c.38.72,1.78.53,2.95.53,4.08,2.42,8.32,4.12,13.12,2.53-.3-2-.45-3.1,1.06-.23l9.6-2.68-.19-2.61,3.82,1.55-1.44,4.65c-1.25,3.86-.72,6.73,2.46,9.6l-8.96-3.74c-5.14-2.15-8.69,1.21-12.81,2.91-3.63,1.51-6.99,4.27-9.03,6.65-1.17,1.36-6.05,2.15-3.78,5.78l7.07,3.89-30.54-4.65c.45,7.41,15.16,13.61,21.17,14.93v-3.48c1.63,2.46,2.57,3.33,4.57,4.16l5.29,2.19-31.6-1.51c-18.37-.87-36.17-1.97-54.51,1.13-16.86,2.87-32.32,9.26-46.72,17.92v9.9l1.06-.23c5.67-1.32,10.17-5.18,15.08-8.16,14.29-8.58,28.73-9.56,45.06-10.39.49,0,1.93.68,1.93,1.13l-.23,1.89,33.76,20.79,9.75-9.56c-8.81-7.3-19.32-10.96-30.96-11.83-3.74-.3-7.75-.34-11.15-2.53,21.7-.64,42.68.72,64.22.57l14.74-.08c19.43-.11,37.35-5.1,53.75-15.57,10.55-6.69,20.11-13.83,28.27-23.36,5.9-6.8,12.74-11.53,20.3-16.71,4.57-3.1,11.26-14.06,8.77-14.1ZM162.43,1241.52l4.46-3.59-3.74-5.52c9.15,1.51,7.52,3.97,16.97,4.69l-8.5,4.88c-2.42,1.4-8.58-.3-9.49,5.86l-1.85-2.61c-.57-.83,1.29-2.99,2.15-3.7ZM126.55,1217.07l.19-.42c-4.76-.26-8.81-2.49-12.97-1.7-9.15,1.78-16.78,4.95-25.18,9.15l4.01,4.61c1.47,1.7,3.97,3.63,5.29,4.84,15.61,14.67,25.33,6.92,25.33,5.75l.04-1.51c5.14-.49,10.02-4.35,11.42-8.88,1.17.38,2.87.57,3.21-.11,1.63-3.02-8.66-10.51-11.34-11.72Z"
            style="fill: rgb(29, 29, 27);"></path>
          <path class="cls-1"
            d="M32.42,1139.14c3.24,2.47,7,5.24,8.45,8.55l14.98,34.32c1.85,4.23,5.32,10.66,7.16,14.1.21.4,2.04.78,2.5.84,2.17.32-4.62-10.78-6.19-14.07-7.38-15.39-10.73-31.77-12.4-48.78-.09-.96.22-2.18.72-2.57s2.83.24,3.22,1.49l19.45,62.19-5.67,3.94c10.83,17.33,23.78,31.71,38.01,45.62-.65.79-2.05,2.12-2.87,2.24-.99.14-2.49-1.37-3.6-2.17-14.06-10.03-26.47-21.21-35.72-36.13l-4.81.46c-8.42-8.35-17.07-16.85-24.1-26.73-1.2-1.69-16.26-23.9-4.87-16.18l30.15,37.51c-6-11.41-12.78-21.48-17.29-33.26-.88-2.29-10.64-28.71-7.09-31.37Z"
            style="fill: rgb(29, 29, 27);"></path>
          <path class="cls-1"
            d="M95.2,1197.81c-5.53-2.69-8.03-8.61-5.26-14.37l5.42-11.27c.47-.97,1.76-2.68,2.63-3.09,1.02-.47,3.44.18,4.57.81l23.01,12.65c1.31.72,3.63,1.82,3.99,2.98.75,2.42-1,8.24-4.32,10.94-2.47,2.01-5.77,4.67-7.93,6.14l-1.74-1.45c-.2-.17-.52-.21-.51.05l.06,2.28-4.85.34-5.13,10.13c-5.36,2.92-10.42,5.61-16.45,5.28-9.66-.54-18.17-10.2-15.8-19.82.46-1.85,1.24-3.71,1.59-5.66.48-2.65,4.45-4.19,6.88-3.1,3.62,1.62,6.5,3.32,9.2,6.02l10.72,10.77c.73.74,1.84,1.62,3.5,3.05l3.74-6.86c-4.98-1.98-8.87-3.64-13.33-5.81Z"
            style="fill: rgb(29, 29, 27);"></path>
          <path class="cls-1"
            d="M124.19,1111.97c1.87-2.57,8.26-4.74,11.18-3.89,6.85,1.99,12.97,5.44,18.57,9.52,2.15,1.56,3.38,4.07,3.6,6.73.18,2.23-1.72,3.97-3.22,5.89-2.29,2.94-4.73,6.78-8.84,7.3-1.24,2.39-3.02,5.98-7.04,6.68l-1.26,1.05c-.29.24-1.33-.6-1.85-.76-5.03-1.63-9.41-5.06-13.24-8.79-1.79-1.74-4.44-3.59-5.22-5.4-2.21-5.12,3.8-13.47,7.32-18.32Z"
            style="fill: rgb(29, 29, 27);"></path>
          <path class="cls-1"
            d="M91.48,1149.13c2.04-4.45,4.54-8.1,8.16-10.98,2.15-8.29,17.7-1.36,21.67,2.08,6.9,5.98,8.36,13.98,5.02,22-2.67,6.41-9.24,10.29-16.38,7.16-8.33-3.65-15.48-10.04-22.19-16.84l3.73-3.42Z"
            style="fill: rgb(29, 29, 27);"></path>
          <path class="cls-1"
            d="M189.08,1142.05l-6.31,10.05-2.11-3.07.55,3.41c.12.75-1.28,1.4-1.91,1.95-.43,2.75-2.87,6-5.39,7.82l-.82-2.79c-.12-.41-.51-.79-.76-1.07.26,1.86.55,3.6.57,4.67,0,.55-3.34,5.66-10.68,1.79-4.35-2.29-8.01-5.11-10.57-9.4l-4.48-7.54c5.26-6.31,19.46-25.41,28.22-17.77l13.71,11.95Z"
            style="fill: rgb(29, 29, 27);"></path>
          <path class="cls-1"
            d="M133.28,1161.53c5.81-7.32,15.4-1.68,20.29,2.81l11.85,10.88c-11.77,11.7-28.77,17.33-41.41,3.67,1.87-6.68,5.08-12.08,9.27-17.36Z"
            style="fill: rgb(29, 29, 27);"></path>
          <path class="cls-1"
            d="M70.15,1148.34c1.36-2.3,1.56-6.44,5.13-7.8l6.06,7.29,3.19,3.82c1.41,1.69,3.08,4.78,4.35,6.85,4.01,6.57,4.1,13.04.84,19.67-5.01,10.19-20.74-3.06-23.32-8.81-2.87-8.29-.91-13.18,3.75-21.02Z"
            style="fill: rgb(29, 29, 27);"></path>
          <path class="cls-1"
            d="M121.65,1080.68c4.34-5.98,13.65-6.04,19.44-3.17l3.51,8.94c-1.53,5.68-2.24,16.33-8.1,17.76-1.83.45-1.6-2.65-2.19-1.29-2.33,5.37-16.57-10.81-14.62-18.12.67-.52,1.31-3.24,1.96-4.13Z"
            style="fill: rgb(29, 29, 27);"></path>
          <path class="cls-1"
            d="M183.38,1131.88c-1.37.24-11.47-9.48-11.51-10.43-.31-7.06.17-15.25,1.19-22.3,11.61,2.56,20.18,11.73,20.5,23.4.14,4.9-3.53,9.09-6.26,12.6l-3.92-3.27Z"
            style="fill: rgb(29, 29, 27);"></path>
          <path class="cls-1"
            d="M81.64,1122.21c1.86-6.8,5.22-9.53,11.65-14.63,5.43,2.89,12.45,18.25,5.79,26.37-3.27,3.99-7.03,6.98-11.36,11.14-2.75-5.47-4.91-10.19-7.06-16.02-.64-1.75.5-5.09.98-6.86Z"
            style="fill: rgb(29, 29, 27);"></path>
          <path class="cls-1"
            d="M147.62,1101.45l.6-18.8c9.8,1.66,17.18,8.23,18.51,17.69.81,5.73,1,11.56-3.36,16.4-2.55-.89-5.59-3.39-7.54-4.68-4.58-.33-8.37-5.49-8.21-10.61Z"
            style="fill: rgb(29, 29, 27);"></path>
          <path class="cls-1"
            d="M108.64,1091.58c1.05-2.58,3.31-4.89,6.21-6.57,4.65,7.17,6.52,14.58,5.44,22.89-.63,4.84-5.52,12.05-11.19,10.6-6.94-1.76-9.68-12.36-7.32-18.36,1.36-3.46,1.82-7.73,6.87-8.58Z"
            style="fill: rgb(29, 29, 27);"></path>
          <path class="cls-1"
            d="M217.84,1185.35c-1.17-1.97-2.23-3.7-3.06-5.52-.87-1.89-4.61-4.84-6.65-4.57-3.52.45-5.52,3.97-7.71,6.77-3.02.68-12.59-22.34-18.98-19.35-.98.49-3.7,1.93-4.61,2.87l-18.07,18.94c-.76.79-1.85,2.99-1.66,3.97.23.94,1.59,2.34,2.65,2.91l12.13,6.69c3.82,2.12,7.6,3.7,11.53.6l3.1,4.5c8.77,2.08,16.71,5.25,25.21.79,6.09-3.21,9.6-12.93,6.12-18.6ZM189.3,1197.67l-2.38,1.78c-.45.34-1.7-1.29-2.08-1.63l8.2-6.16c.19,2.31-1.66,4.42-3.74,6.01Z"
            style="fill: rgb(29, 29, 27);"></path>
        </g>
        <g>
          <path class="cls-1"
            d="M322.28,1201.23l-1.02-3.25c-.26-.76-2.27-1.25-2.72-1.36.11-.26.53-2.23.26-2.57l-8.66-10.58-7.56,7.82c3.36-6.24,4.2-12.78,2.46-19.84l-3.82-15.5c-1.4-.23-3.55,1.36-4.69,2.08-5.22,3.48-14.48,9.9-15.84,16.78l2.12,1.36-2.95,1.59c-2.61,1.4,8.54,21.51,9.87,24.12,3.86-1.74,6.16-3.48,9.9-6.09-6.61,10.58-5.25,16.41-2.04,29.22-1.89-1.89-4.16-4.04-6.58-4.2-2.76-.15-5.25.79-7.82,2.19l4.42-7.45c2.57-4.31,1.89-8.24-.61-11.26l.15-2.65c0-.53-1.7-1.32-1.89-1.81-.42-1.1-1.1-3.52-1.7-4.65l-4.35-8.16c-3.02,2.27-5.03,5.86-7.26,9.83,2.15-10.47,6.69-18.33,8.5-29.79-6.5,1.51-10.92,5.86-13.34,11.34l-9.68,22.19,3.36,11.49c.79,2.8,2.68,5.22,5.1,7.26-4.08,4.42-3.4,9.71-2.53,15.16,1.06,6.69,3.78,12.74,11.19,13.91l1.21-3.97c4.95,9.03,10.74,16.75,18.67,23.97,7.75-15.08,8.96-22.64,7.07-38.59,1.97,2.95,4.38,6.77,8.35,5.18,2.5-1.02,3.86-5.56,5.56-7.14,3.63-3.33,5.59-7.14,7.18-11.76,2.19-6.39,1.51-8.92-.34-14.86ZM267.47,1218.77c-.94.11-2.23-2.19-1.89-3.1l3.78-10.09,1.29,12.4c-.3.11-2.38.68-3.18.79ZM275.3,1240.46l-3.63-14.86c-.53-2.12-4.08-3.4-.34-6.58l5.37,9.19,4.95-3.55-6.35,15.8Z"
            style="fill: rgb(29, 29, 27);"></path>
          <path class="cls-1"
            d="M343.45,1247.49l-17.16-22.3c-5.07-.3-6.58,4.12-8.77,6.92-3.29,4.12-6.2,8.28-7.6,13.53l2.76,1.89-6.27,3.25-4.08,9.94c-2.04,4.99-2.49,11.08.83,15.95,2.8,4.12,9.83,8.28,14.59,6.39,1.85-.76,3.14-1.55,5.41-1.85,3.52-.49,6.5-4.69,6.73-7.6l-2.5-.68c1.89,0-4.42-7.07-3.4-6.96l12.44-5.59c10.24-4.57,3.7-2.08,9.15-8.39-.26-.49-1.36-3.55-2.12-4.5Z"
            style="fill: rgb(29, 29, 27);"></path>
          <path class="cls-1"
            d="M368.1,1212.22l3.36-1.8-2.22-1.1c4.22-5.01,8.31-8.68,13.21-12.54,5.97-4.69,13.26,3.02,19.27,8.91,1.74,1.7,2.73,7.36,1.9,9.75-2.64,7.51-8.29,14.09-14.35,18.61-3.48,2.6-6.36.16-8.26-2.18-1.44-1.77-3.34-2.85-3.38-4.99l-3.25-3.78,1.9-1.65-3.25-.11c-.64-.02-.27-1.6-.27-2.34-2.62-.57-4.72-4.15-4.65-6.77Z"
            style="fill: rgb(29, 29, 27);"></path>
          <path class="cls-1"
            d="M355.17,1176.33l6.34-5.41c1.99-1.7,3.93-4.92,7.15-5.39,4.67,4.73,10.17,9.15,13.69,15.02,2.89,4.82-1.8,11.36-4.52,15.08-5.74,7.85-15.34,9.58-23.36,4.7-4.78-2.91-7.61-7.62-6.34-8.92l1.31-1.34-2.13-1c1.01.47,1.55-7.35,7.86-12.73Z"
            style="fill: rgb(29, 29, 27);"></path>
          <path class="cls-1"
            d="M364.72,1221.43c4.94,5.75,10.03,13.48,12.88,19.45.16.34-.94,2.12-.57,2.19l2.53.52c-1.61,8.07-9.31,11.97-10.98,13.42-1.42,1.23-2.84,4.28-5.91,5.1-6.11-6.27-13.23-12.15-17.81-19.76-3.66-6.08,2.56-13.16,7.77-15.5l12.09-5.42Z"
            style="fill: rgb(29, 29, 27);"></path>
          <path class="cls-1"
            d="M351.45,1205.15c.26.1.76.38.66.62l-.59,1.47c1.33.26,3.02.98,3.61,2.29.55,1.23-.1,3.04-.14,4.23-.2,6.41-6.42,10.69-11.91,14.87-2.3,1.75-3.83,6.4-8.45,4.96-1.54-3.13-3.56-7.52-5.03-11.12-4.21-10.29-.39-22.41,9.61-27.41-1.26-.05,16.11,11.57,10.66,9.49l1.57.6Z"
            style="fill: rgb(29, 29, 27);"></path>
          <path class="cls-1"
            d="M341.22,1157.44c2.82-8.69,10.15-14.17,18.21-16.35,8.66,2.3,15.61,6.53,22.28,13.01-.21,1.52-3.05,3.25-5.11,3.79-.47.33-2.05,2.09-2.75,2.4l-11.76,5.16c-10.59,4.65-22.54-2.85-20.87-8Z"
            style="fill: rgb(29, 29, 27);"></path>
          <path class="cls-1"
            d="M336.22,1267.68c6.47-11.07,27.73-1.97,35.91,2.72l5.51,3.16-3.33,1.29c-2.31,2.28-5.02,4-8.17,5.12-4.34,5.62-13.22,2.49-18.93.88l-8-2.25c-1.94-1.97-4.72-7.96-2.98-10.93Z"
            style="fill: rgb(29, 29, 27);"></path>
          <path class="cls-1"
            d="M370.13,1261.42c14.97-17.41,15.28-12.5,36.28-8.84-2.49,10.82-17.12,19.86-27.5,15.7-2.99-1.2-5.27-3.63-8.78-6.86Z"
            style="fill: rgb(29, 29, 27);"></path>
          <path class="cls-1"
            d="M411.42,1210.81c2.73-2.44,1.87-4.97,13.6-5.68,1.17-.07,2.58.34,3.88.81,3.28,1.19,4.1,2.97,4.84,6.33,1.13,5.07,1.2,10.25-2.81,13.52-4.35,3.55-9.39,3.22-14.24.32l-5.4-3.23c-3.69-2.21-4.47-5.19-5.05-4.8l2.39-1.62c-.15-.71-.98-2.28-.39-2.8l3.17-2.84Z"
            style="fill: rgb(29, 29, 27);"></path>
          <path class="cls-1"
            d="M375.5,1166.2c25.04-10.3,24.29.77,30.83,4.07.25.13.24.43.04.6l-1.34,1.17c1.32.58,2.79,1.48,3.86,2.5l1.41,1.92c.98,1.34-18.34,12.44-27.15.3l-7.65-10.56Z"
            style="fill: rgb(29, 29, 27);"></path>
          <path class="cls-1"
            d="M392.04,1241.19c-.48-3.7,5.18-9.48,8.39-11.15,5.19-2.7,10.82-.55,15.89.26,3.33.53,5.31.89,8.88,2.19l-3.82,6.36c-1.46,2.44-3.55,4.01-5.95,5.3-4.4,2.37-7.88,3.76-13.08,2.57-3.05-.7-9.64-.36-10.31-5.53Z"
            style="fill: rgb(29, 29, 27);"></path>
          <path class="cls-1"
            d="M404.84,1184.75c12.26-3.84,17.24,7.28,23.22,15.72-9.84,6.05-30.51,3.6-31.07-8.33-.2-4.13,4.25-6.26,7.85-7.39Z"
            style="fill: rgb(29, 29, 27);"></path>
        </g>
      </g>
      <g>
        <path class="cls-1"
          d="M582.8,843.84l18.92-55.16c-10.53,17.51-17.83,35.83-24.45,54.88l-13.98,40.24c-4.77,13.74-10.89,29.7-16.66,42.88-.37.84-3.7.7-3.9-.08-1.79-6.93,3.56-26.3,5.69-34.33l14.47-54.53c.95-3.58,3.23-6.65,2.66-10.71l-10.81,24.87c-1.94,4.46-3.62,9.25-5.2,13.99l-22.54,67.6c-2.53,7.59-5.28,14.65-9.01,22.55-5.75-11.29-4.12-23-.66-33.88l11.97-37.71c-14.72,27.01-22.22,49.88-39.24,76.59-.6.94-3.77-.23-4.07-1.16-1.51-4.75,14.25-45.05,17.32-52.61-.16-.34-1.8-1.64-2.29-1.22s-1.09,1.17-2.27,2.82c-18.64,26.07-40.92,53.99-61.53,78.11-.92,1.07-3.3,1.45-3.93,1.7-9.11,3.56,26.51-44.36,29.35-47.53l34.17-38.15c2.45.2,5.48.72,7.98,1.17l23.35-40.47c.44-.76-.07-2.2-.57-2.24-5.54-.54-6.25,13.27-25.01,28.16-22.01,17.48-44.62,31.65-68.52,46.24-19.24,11.74-39.6,19.53-61.01,26.76-7.82,2.64-23.44,4.03-27.6.27-3.32-3,24.44-13.43,27.27-14.43,41.82-14.69,81.6-33.49,115.95-61.48-12.17,3.66-20.15,11.48-30.51,16.62l-14.44,7.97c-26.19,14.46-54.05,23.95-82.76,32.26-10.62,3.07-22.37,4.76-32.88,7.17-1.39.32-3.91-4.23-2.75-4.87l73.92-29.27c10.72-4.25,20.13-8.17,30.65-14.1l-41.52,5.77,1.22,5.83c.28,1.33-3.49,2.35-4.71,3.06-12.1,7.11-24.88,8.72-38.58,8.83-13.47.11-28.82.58-39.26-12.42l79.51-2.63c-4.63-5.36-11.85-1.3-17.72-1.56l-24.03-1.05-47.44-5.61c-1.21-.14-1.93-3.41-1.32-3.88.78-.6,2.52-1.61,3.65-1.62l64.73-.46,35.74-.78c.32-2.51.15-5.49-.48-7.51-36.21,4.37-71.57-1.48-107.7-6.07-1.37-.17-2.76-.7-3.49-1.1-11.31-6.22,47.57-6.4,49.53-6.96l-26.33-10.31c-7.76-3.04-15.95-7.6-21.71-13.76-.59-.63-.83-3.5-.06-3.9,4.33-2.29,56.76,19.78,66.07,23.27l9.57,3.59c1.86.7,3.6,2.4,4.66,4.67l33.02,7.42c-.95,4.46-1.07,7.82-.06,10.58l28.52-.85c-.68,2.75-.49,7.49.99,6.9l42.47-16.88c-5.94-2.14-12.23-3.34-13.54-8.91-.86-3.64,1.31-7.37,3.39-9.57l8.62-9.08,8.04-8.39c1.85-1.21,6.3-3.44,4.19-6.16l-6.91-1.75c-3.67,7.25-6.32,15.23-12.72,19.54-7.65,5.16-16.08-.63-22.28-4.81l-8.82-5.94c1.28-4.77,2.89-8.27,5.13-11.93l17.32-28.3,8.27,3.32c1.73.69,3.76,1.52,4.89,2.53,1.03.93-.18,3.68-.98,4.27,1.4.01,4.05.69,4.95,1.81.76.95,1.34,2.83,1.9,3.92l2.32,3.97c.55.93-1.35,2-2.65,2.76,1.26.39,4.2.56,3.87,1.35l-1.95,4.57c3.68,1.43,9.36,2.68,13.72,4.88,4.38,2.21,5.74,11.25,6.69,15.59,1.78,8.18-1.96,14.1-7.07,19.85l-2.65,2.99c-.7.79,1.33,3.55,2.42,3.84,10.12-7.87,20.36-17.63,29.09-27.27l14.42,1.84c.09,2.81.07,5.61,1.03,8.56,9.15-21.24,18.54-42.34,29.66-62.33.67-1.2,4.83-2.12,5.41-.98.68,1.34,1.02,3.91,1.41,6.48l16.15-27.54c9.81-16.72,22.42-30.92,35.88-45,.96-1,2.6-2.2,3.56-2.26,1.15-.07,3.84,1.78,3.75,2.6l-7.47,11.07c-7.59,11.25-14.41,22.39-21.28,34.27l5.89,2.45-6.01,40.65c2.43,7.7,5.91,16.39,7.19,25.2l14.02,96.8c.83,5.73.94,11.04-.43,16.86-.43,1.83-5.53-.04-6.27-1.76-12.96-30.3-14.64-56.41-17.49-88.49l-2.17-24.46-6.85,29.85c2.59,1.59,3.83,3.74,3.99,6.66l1.93,36.69,1.2,30.4c-11.72,10.66-11.5-42.48-14.39-49.53l-9.17,26.71c-1.88,5.47-5.27,10.1-9.72,14.66-1.79-11.26-.42-20.93,1.01-31.75,3.28-24.75,8.94-48.13,17.21-72.22Z"
          style="fill: rgb(29, 29, 27);"></path>
        <path class="cls-1"
          d="M673.54,965.73c.55,1.14-2.09,3.84-3.02,3.6s-2.59-.8-3.55-1.39c-17.15-10.71-17.87-25.86-28.59-41.47-.27,4.02,9.22,47.07,3.99,47.27-12.77.47-23.91-84.15-25.47-98.3-.26-2.37.37-6.36-.14-8.55-2-8.63-.72-15.87,4.22-22.81,4.08-5.73,11.13-15.28,19.51-11.76,12.25,5.14,10.74,31.37,8.2,43.24l-2.92,13.68c-4.72-3.44-6.71-5.7-10.06-8.91l-8.03-7.7c1.58,11.77,13.45,33.05,21.38,46.86,8.16,14.22,17.42,31.76,24.48,46.24Z"
          style="fill: rgb(29, 29, 27);"></path>
        <path class="cls-1"
          d="M418.54,969.49c-27.84,16.18-44.67,14.43-35.93,9.33,10.69-6.25,22.7-14.42,34.32-22.24l43.54-29.32c1.01-.68,3.49,1.37,3.34,2.34-.14.99-1.03,2.92-1.87,3.81-13.23,13.92-26.79,26.43-43.4,36.09Z"
          style="fill: rgb(29, 29, 27);"></path>
        <g>
          <path class="cls-1"
            d="M712.42,633.62c12.56-11.75,28.41-8.06,22.02-4.58,2.3,4.68-.62,8.36.8,8.74l2.44.67c.61.17.55-2.17.75-2.82l3.33-11.14,3.19-10.68c-7.36,4.9-14.18,11.61-23.43,11.7-6.51.07-10.31-8.17-9.15-14.13-2.06.37-2.54.69-3.05,1.47-.49.74.96,3.77.79,4.74-1.04,5.92-4.58,14.87-9.37,19.34-3.23,3.01-7.83,4.73-11.48,7.46l14.43-1.23c.81-.07-.34,3.09-.17,3.77,1.4,5.71,2.28,16.47-1.73,22.35l.75,2.84c1.04,3.93-11.74,9.45-11.08,8.96-3.56,2.66-8.25,3.81-12.98,4.15-5.25.38-9.82,1.39-15.79,1.09l6.1-19.59c2.88-9.24,8.82-16.58,17.08-21.02l-4.65-.46c-.72,2.55-7.28,5.35-9.77,3.04-3.89-10.1-4.6-22.39.24-32.09,5.15-10.33,15.81-14.67,25.96-18.52,3.81-1.44,6.33-2.58,10.54-1.1l.95-7.55c-8.78,3.59-16.4,6.52-25.3,9.04-2.56-2.48-2.45-6.26-2.77-9.48l-1.52-15.22c-.53-5.32-1.88-11.23-1.9-15.98,1.51-2.66,2.63-5.33,4.3-5.67,2.3-.47,12.6-.05,15.66.38l14.19,2.02c-2.08-4.78-3.59-8.97-2.66-12.88.97-4.1,19.46-7.89,27.44,5.87,9.02,15.54-5.46,26.66-17.73,34.19l-5.98.19-3.22,20.73c-.14.88,2.07,3.45,2.36,3.12.77-7.73,6.03-11.85,9.64-16.52,3.02-3.91,5.09-6.98,9.68-9.23,3.34-1.64,6-7.8,11.86-8.5,3.48,11.38,5.13,22.24,5.29,34.75l2.79-1.59c11.78,7.05,2.04,27.84-4.13,34.16-2.14,2.19-8.93,1.63-12.04,2.24l-5.72,12.7c4.83-3.76,6.98-7.02,12.66-8.79-1.1,26.09-5.58,22.39-27.47,38.12-10.65,7.65-23.43,6.7-22.25,3.32.3-.85,1.31-1.89,2.46-2.8l9.76-7.71c4.61-3.64,8.83-7.25,12.37-12.52-1.65,1.25-7.59,3.29-9.24,1.27-3.01-3.67-1.62-9.22-.91-13.28,1.08-6.18.77-12.82,5.64-17.37Z"
            style="fill: rgb(29, 29, 27);"></path>
          <path class="cls-1"
            d="M630.31,664.93c.45-.79,10.51-2.64,13.35.13l.67-2.06c.63-1.94,10.83-2.46,14.57.27,1.28-2.33-.52-8.83-2.63-8.04l-16,6c-1.97.74-6.85-.62-8.43-1.93-2.23-1.85-3.03-4.78-4.27-7.4l-8.07-17.07c11.46-6.58,30.09-9.96,39.04-16.3l-6.99,1.3c-5.87,1.09-10.75-17.9-10.94-22.72-.05-1.21.21-3.54.29-4.6.54-7.77,20.03-12.4,26.49-11.67l11.02-2.29c-1.5,18.16-1.93,31.88-20.57,39.84,7.47,5.36,9.5,12.25,8.44,20.23-.79,5.98-1.55,10.71-7.93,14.52,2.25,3.13,5.16,6.4,7.98,9.12.69,10.87-5.75,21.51-15.76,25.13-11.21,4.06-20.99-1.01-25.27-11.58-.7-1.73-1.71-3.71-1.27-5.62.31-1.36,3.01-2.49,4.64-2.4l1.64-2.86Z"
            style="fill: rgb(29, 29, 27);"></path>
          <path class="cls-1"
            d="M628.28,582.59c-3.07,2.52-9.01,4.08-13.35,3.89-4.38,1.86-10.99,5-16.19,2.42-4.86-2.41-6.12-9.84-8.16-14.48-4.19-9.49-.63-18.89,8.99-22.96s24.9-11.83,28.04.24c2.71,10.4,4.48,20.29.68,30.89Z"
            style="fill: rgb(29, 29, 27);"></path>
          <path class="cls-1"
            d="M634.27,621.68c-9.99,7.79-22.7,9.55-35.24,10.55-1.7-5.13-3.22-9.5-4.04-14.54l-2.08-12.75c-.69-4.2,13.61-10.29,17.2-11.67,6.47-2.47,10.35-2.58,16.37,1.93,4.12,3.09,8.87,5.66,10.49,11.23,1.14,3.93,2.48,11.21-2.68,15.24Z"
            style="fill: rgb(29, 29, 27);"></path>
          <path class="cls-1"
            d="M666.55,533.17c2.21,12.36,14.41,36.75-1.43,41.97-6.45,2.12-14.54,2.04-21.21.7-5.03-1.01-6.46-4.68-6.62-8.99l-.52-13.89c-.15-4.15-2.26-11.32,3.05-14.46,1.42-.84,13.82-6.28,16.27-2.27-1.45-2.38,6.37-4.28,10.46-3.05Z"
            style="fill: rgb(29, 29, 27);"></path>
          <path class="cls-1"
            d="M622.66,655.46c-3.14,9.38-30.35,14.84-35.8,1.39-3.97-9.79-6.62-7.12-9.61-22.47,4.64-1.19,9.61-.58,14.58-.17,4.99.41,9.14.13,14.76,1.44,7.48,1.73,19,11.08,16.08,19.82Z"
            style="fill: rgb(29, 29, 27);"></path>
          <path class="cls-1"
            d="M702.78,530.24c.58,3.92-1.07,11.19-4.08,14.08-16.16,7.06-34.95-19.99-40.5-33.1l22.1-.6c15.44,8.7,8.01,9.07,22.48,19.62Z"
            style="fill: rgb(29, 29, 27);"></path>
          <path class="cls-1"
            d="M591.57,546.85l.45,3.59c.57,4.49-18.06,12.04-31.63.75-6.84-5.69,1.34-20.42,8.01-23.33,7.61-3.32,12.78.8,15.9,7.15,5.04,10.26,6.55,6.53,7.27,11.84Z"
            style="fill: rgb(29, 29, 27);"></path>
          <path class="cls-1"
            d="M658.1,527.85c-3.75,3.65-8.23,4.43-12.87,1.08l.71,3.15c-10.39,6.47-23.87-10.58-31.45-18.02,11.88-8.84,23.21-8.57,35.23-1.8,5.24,2.95,6.99,10.07,8.37,15.59Z"
            style="fill: rgb(29, 29, 27);"></path>
          <path class="cls-1"
            d="M589.62,612.73c.02.45-1.24,1.19-1.71,1.21s1.59,1.76,1.68,2.22l2.07,10.47c-12-2.63-18.85-4-26.37-13.46-4.64-5.83-5.48-14.42-4.27-21.79,11.04-.74,19.53,4.4,27.12,12.07l-2.94,1.22,4.19,3.69.24,4.36Z"
            style="fill: rgb(29, 29, 27);"></path>
          <path class="cls-1"
            d="M619.52,536.29c-3.55,8.39-19.73,5.52-23.04,2.38l-15.41-14.59c7.85-6.76,18.06-9.34,26.88-4.7,16.1,8.47,15.41,17.37,14.56,17.27l-2.99-.36Z"
            style="fill: rgb(29, 29, 27);"></path>
          <path class="cls-1"
            d="M579.64,565.54c1.05.7,7.02,11.75,6.27,17.76-.51,4.05-6.11,5.59-10.12,5.06-10.3-1.36-18.5-9.28-18.58-19.82l-.1-13.12c9.22,1.69,15.29,5.34,22.53,10.12Z"
            style="fill: rgb(29, 29, 27);"></path>
        </g>
        <g>
          <path class="cls-1"
            d="M458.26,686.91c-2.41,1.1-3.05,4.92-3.52,8.95-1.68.77-5.4-.26-8.33-.7l-25.17-3.76c-1.08.67-3.61,2.43-4.87,2.44l-39.12.31c-13.64.11-27.09-.34-40.26-1.05-6.46-.35-.96-9.71,21.3-10l29.61-.38c-7.79-4.54-42.15-16.57-42.9-23.15-.07-.65,1.5-1.66,3.2-1.22,14.65,3.79,38.41,9.99,56.21,14.83,17.2,4.68,31.65,10.53,47.4,19.07,1.58-1.28,3.03-4.39,3.23-6.95l-45.38-18.72-46.52-18.23c-1.13-.44-3.03-1.81-3.48-2.73-.46-.92.17-3.41.68-3.89l40.04,9.77c14.5,3.54,30.71,10.66,43.72,16.07.88.36,2.48.21,2.92.12s-.32-2.01-1.16-2.36l-70.09-29.16c1.31-4.42,5.33-3.95,8.33-4.37,12.22-1.71,22.68,2.06,33.77,6.77,11.75,4.99,22.36,10.99,30.74,21.34.73.91,3.38,3.46,2.87,4.52l-2.56,5.27,15.33,8.7,22.34,12.49c-7.18-8.22-13.83-14.69-21.6-21.95l-61.83-57.74c.61-1.27,2.73-3.64,3.68-3.17,1.23.61,3.15,1.75,4.76,2.74,38.94,23.92,80.07,61.65,107.67,97.87,4.6,6.03,8.1,12.81,15.1,17.14-20.05-34.3-46.02-63.59-75.41-89.71-10.76-9.57-20.28-18.34-30.1-28.57l-1.35-2.22c-3.22-5.28,15.52.72,19.11,3.26,20.62,14.61,38.04,31.54,53.76,51.47,20.57,26.07,48,62.61,58.3,93.84-4.35-30.7-3.6-60.82,1.59-91.49l.7-4.12c.2-1.17,3.67-1.43,4.97-1.01,1.78,12.46,2.61,25.36,2.58,38.2l-.08,32.57c-.03,10.65-.22,20.73-1.09,31.11l3.37.86c.92.23,1.25-2.97,1.37-4.5l5.9-77.08c.12-1.58,2.94-2.34,3.51-1.74.71.76,2.06,2.77,2.24,4.17,4.72,36.51,2.13,40.67-6.6,75.75-.47,1.9-1.9,6.35-3.65,6.17-2.11-.22-4.55-.69-5.82-.56s-2.12,3.1-3.23,5.22c-2.65.42-8.81-1.71-11.12-3.99-4.7-12.03-9.96-22.76-16.28-34.17l-5.82.92c-13.72-10.86-27.08-23.09-39.68-35.01-.75-.71-3.69-1.65-4.7-1.8-1.01-.15-1.82,1.75-2.93,3.9l-25.63-10.32Z"
            style="fill: rgb(29, 29, 27);"></path>
          <path class="cls-1"
            d="M524.17,608.22c3.2,6.3,4.71,11.33,6.22,17.86,3.6,15.58,18.2,77.99,17.96,89.16-.02.86-3.07,1.16-3.68.56-.61-.6-.87-1.59-1.33-3.1l-10.55-34.75-9.67,1.05-27.34-39.22-25.98-36.75c-.37-.52-.86-1.76-1.09-2.3-.24-.55,3.12-1.56,3.71-1.23,15.79,8.86,33.13,30.73,42.21,48.26,4.18,8.07,9.08,19.39,12.45,27.22.33.78,2.76,1.6,3.5,1.45s1.25-2.48,1.05-3.26c-1.51-6.16-14.61-60.67-7.46-64.95Z"
            style="fill: rgb(29, 29, 27);"></path>
          <path class="cls-1"
            d="M604.48,700.24c2.53,20.13-9.39,42.22-18.07,59.34-.31.61-3.52,1.39-3.73.84-.28-.76-.37-1.94.04-3.2,6.26-19.19,12.26-37.73,16.67-57.3.27-1.18.75-2.81,1.02-3.62.26-.77,3.4,0,3.53.8l.52,3.15Z"
            style="fill: rgb(29, 29, 27);"></path>
        </g>
        <g>
          <path class="cls-1"
            d="M676.77,730.2l-5.41,5.48,5.82,6.8c-12.44-.68-10.66-4.2-23.32-3.74l10.58-7.75c3.02-2.23,11.49-.87,11.79-9.19l2.83,3.21c.91.98-1.29,4.16-2.31,5.18ZM771.65,737.08c-2.23-2.04-5.82-4.23-7.75-5.67-22.94-17.24-34.78-5.52-34.59-3.93l.19,2c-6.8,1.44-12.74,7.26-13.91,13.49-1.63-.3-3.89-.34-4.27.64-1.7,4.27,13.08,12.74,16.82,13.95l-.19.57c6.39-.3,12.1,2.04,17.54.38,11.91-3.7,21.62-9.07,32.17-15.88l-6.01-5.56ZM727.91,758.14s0,.04.04.04v-.04h-.04ZM899.37,647.5c-21.47,18.79-45.36,33.76-72.99,41.66-23.97,6.84-47.85,7.98-72.46,9.49l-42.34,2.61,7.37,2.19c2.8.83,4.2,1.81,6.69,4.88l-.45-4.65c8.16.87,28.65,6.99,30.35,16.78l-41.39-1.7,10.02,4.12c3.59,4.54-2.83,6.31-4.2,8.28-2.38,3.44-6.46,7.67-11.04,10.21-5.25,2.87-9.49,7.82-16.67,5.75l-12.51-3.67c4.69,3.33,5.78,7.11,4.72,12.4l-1.25,6.39,5.29,1.51-.6-3.4,12.4-4.99c2.42,3.59,2.04,2.15,1.36-.49,6.16-2.8,12.06-1.17,17.84,1.47,1.59-.15,3.44-.6,4.01.26l3.29,4.8,1.13-3.21c4.08,2.57,8.24,4.38,13.04,5.9.04,6.16-4.42,12.51-9.07,17.95-18.11,21.24-39.84,12.1-60.22,1.32-1.7-6.88,6.96-16.03,8.81-12.13l-1.81-3.78c-10.77,11.98-38.22,12.21-55.98,7.6,2.42-6.39,11.45-21.36,18.79-26.8,2.15-1.63,1.78-6.99,7.75-7.71l-5.93-1.02-3.36,2.08c2.15-16.59,12.89-20.83,28.54-25.02,6.24-1.66,11.38,2.68,12.17,9.03l17.01-7.67c-5.75-.23-11.15-.72-17.24-3.33,2.72-4.8,7.26-5.97,11.3-7.03l3.44-4.57c-28.5,5.25-45.81,9.56-69.25,29.37-32.89,27.71-34.13,52.73-57.91,65.28-.11,0-7.48,2.15-9.41,2.34-3.36.3,3.93-15.27,9.6-20.11,9.34-7.98,17.77-15.31,24.57-25.21,9.49-13.87,21.24-24.8,34.28-35.31,20.3-16.33,43.47-25.59,69.33-28.58l19.66-2.31c28.65-3.29,56.81-4.54,85.62-8.62-4.88-2.42-10.17-1.89-15.23-1.7-15.65.49-30.2-2.83-43.02-11.26l11.64-14.17,48.01,22.76v2.57c-.04.6,2.08,1.32,2.72,1.21,21.58-3.48,40.71-6.92,58.48-20.45,6.16-4.69,11.57-10.51,18.94-13.08l16.18-5.63v7.41Z"
            style="fill: rgb(29, 29, 27);"></path>
          <path class="cls-1"
            d="M864.96,847.6c-4.68-2.82-10.1-5.95-12.51-10.15l-24.99-43.52c-3.08-5.37-8.65-13.42-11.6-17.74-.34-.5-2.84-.74-3.45-.76-2.93-.1,7.73,13.69,10.31,17.84,12.09,19.43,18.95,40.76,23.67,63.17.27,1.26.02,2.93-.59,3.53-.6.59-3.81.09-4.51-1.51l-35.02-80.01,6.98-6.08c-16.97-21.51-36.32-38.76-57.32-55.21.74-1.15,2.42-3.13,3.5-3.41,1.3-.34,3.51,1.46,5.11,2.36,20.2,11.3,38.37,24.38,52.88,42.9l6.35-1.32c12.44,9.89,25.22,19.95,36.03,32.08,1.84,2.07,25.16,29.45,8.86,20.84l-45.66-45.55c9.66,14.33,20.17,26.74,27.91,41.78,1.5,2.92,18.38,36.69,14.05,40.76Z"
            style="fill: rgb(29, 29, 27);"></path>
          <path class="cls-1"
            d="M772.73,778.63c7.77,2.78,11.96,10.29,9.11,18.37l-5.57,15.81c-.48,1.36-1.95,3.83-3.05,4.5-1.28.78-4.6.26-6.21-.4l-32.51-13.48c-1.85-.77-5.11-1.89-5.76-3.39-1.35-3.11.13-11.13,4.15-15.2,3-3.04,7-7.07,9.67-9.35l2.54,1.68c.29.19.72.21.67-.14l-.41-3.03,6.41-1.17,5.35-14.24c6.72-4.68,13.05-9.01,21.14-9.44,12.95-.69,25.7,10.92,23.95,24.1-.34,2.54-1.11,5.12-1.29,7.78-.25,3.6-5.31,6.24-8.71,5.14-5.06-1.63-9.15-3.47-13.13-6.68l-15.86-12.78c-1.09-.87-2.69-1.89-5.11-3.55l-3.98,9.69c6.93,1.91,12.35,3.55,18.61,5.79Z"
            style="fill: rgb(29, 29, 27);"></path>
          <path class="cls-1"
            d="M746.68,897.24c-2.11,3.7-10.3,7.52-14.32,6.82-9.42-1.64-18.08-5.35-26.14-9.96-3.09-1.77-5.1-4.93-5.78-8.43-.57-2.94,1.71-5.54,3.43-8.32,2.62-4.25,5.31-9.72,10.71-11.02,1.31-3.36,3.15-8.41,8.4-9.93l1.53-1.58c.35-.36,1.86.6,2.57.74,6.95,1.44,13.28,5.36,18.92,9.78,2.63,2.06,6.45,4.14,7.75,6.43,3.69,6.5-3.09,18.51-7.07,25.48Z"
            style="fill: rgb(29, 29, 27);"></path>
          <path class="cls-1"
            d="M784.81,842.94c-2.07,6.22-4.86,11.45-9.27,15.82-1.65,11.35-23.38,4.4-29.17.4-10.07-6.96-13.19-17.4-9.9-28.57,2.62-8.93,10.8-15.06,20.78-11.94,11.63,3.64,22.09,11.11,32.03,19.18l-4.47,5.1Z"
            style="fill: rgb(29, 29, 27);"></path>
          <path class="cls-1"
            d="M655.83,866.67l6.93-14.31,3.26,3.78-1.23-4.47c-.27-.98,1.5-2.06,2.26-2.88.16-3.73,2.94-8.41,6.04-11.21l1.5,3.59c.22.53.8.98,1.18,1.31-.62-2.44-1.26-4.71-1.44-6.14-.09-.72,3.63-8.03,13.97-3.95,6.12,2.42,11.43,5.63,15.46,10.98l7.08,9.39c-6.08,9.18-22.2,36.7-34.99,27.81l-20.01-13.91Z"
            style="fill: rgb(29, 29, 27);"></path>
          <path class="cls-1"
            d="M727.31,832.54c-6.67,10.61-20.27,4.5-27.44-.77l-17.38-12.76c13.96-17.31,35.8-27.3,54.63-10.95-1.51,9.17-5,16.84-9.81,24.48Z"
            style="fill: rgb(29, 29, 27);"></path>
          <path class="cls-1"
            d="M813.34,840.87c-1.48,3.26-1.14,8.8-5.69,11.14l-9.15-8.82-4.8-4.63c-2.12-2.04-4.81-5.92-6.8-8.49-6.31-8.17-7.38-16.78-4-26.09,5.19-14.32,28.08,1.04,32.36,8.32,5.03,10.62,3.14,17.42-1.91,28.56Z"
            style="fill: rgb(29, 29, 27);"></path>
          <path class="cls-1"
            d="M754.65,938.55c-4.91,8.6-17.29,10.05-25.44,7.06l-5.99-11.4c1.2-7.78.6-22.09,8.19-24.85,2.38-.86,2.52,3.3,3.1,1.4,2.32-7.49,23.66,11.97,22.13,21.99-.82.79-1.28,4.51-2,5.79Z"
            style="fill: rgb(29, 29, 27);"></path>
          <path class="cls-1"
            d="M664.91,879.38c1.8-.52,16.67,10.94,16.86,12.21,1.45,9.36,2,20.34,1.68,29.89-15.84-1.71-28.6-12.68-30.74-28.17-.9-6.51,3.37-12.62,6.49-17.7l5.7,3.78Z"
            style="fill: rgb(29, 29, 27);"></path>
          <path class="cls-1"
            d="M801.87,877.37c-1.48,9.33-5.55,13.46-13.37,21.19-7.66-3.05-19.26-22.49-11.57-34.28,3.78-5.79,8.34-10.33,13.5-16.51,4.47,6.88,8.04,12.86,11.75,20.31,1.11,2.23.08,6.85-.31,9.28Z"
            style="fill: rgb(29, 29, 27);"></path>
          <path class="cls-1"
            d="M717.01,914.68l1.96,25.13c-13.3-.77-24.09-8.44-27.25-20.85-1.91-7.52-3.03-15.26,2.08-22.34,3.53.81,7.94,3.7,10.73,5.13,6.15-.23,11.96,6.09,12.49,12.93Z"
            style="fill: rgb(29, 29, 27);"></path>
          <path class="cls-1"
            d="M770.38,922.13c-1.02,3.59-3.7,7-7.31,9.66-7.25-8.86-10.83-18.47-10.6-29.7.13-6.54,5.59-16.86,13.36-15.77,9.5,1.33,14.71,15.04,12.45,23.38-1.3,4.81-1.3,10.56-7.9,12.43Z"
            style="fill: rgb(29, 29, 27);"></path>
          <path class="cls-1"
            d="M691.62,800.17c-.42-1.25-2.46-2.87-3.97-3.52l-17.09-7.11c-5.41-2.27-10.7-3.82-15.46.87l-4.8-5.52c-12.02-1.51-23.06-4.57-33.72,2.65-7.64,5.14-10.89,18.6-5.44,25.67,1.89,2.42,3.52,4.57,4.88,6.88,1.44,2.38,6.88,5.78,9.56,5.14,4.61-1.13,6.8-6.12,9.3-10.17,3.93-1.32,20.03,27.93,28.09,22.98,1.29-.76,4.69-3.06,5.75-4.46l21.28-27.9c.91-1.17,2.04-4.27,1.63-5.52ZM643.28,801.12c-.6-3.02,1.59-6.12,4.12-8.5l2.87-2.72c.6-.57,2.49,1.44,3.02,1.81l-10.02,9.41Z"
            style="fill: rgb(29, 29, 27);"></path>
        </g>
        <g>
          <path class="cls-1"
            d="M550.03,783.88c-1.51-3.59-4.39-6.58-7.86-8.92,4.76-6.5,3.1-13.42,1.13-20.56-2.42-8.73-6.92-16.41-16.97-16.9l-1.02,5.48c-7.9-11.3-16.75-20.75-28.39-29.22-8.09,21.24-8.58,31.53-3.74,52.43-3.06-3.63-6.84-8.32-11.91-5.63-3.18,1.7-4.31,7.98-6.39,10.32-4.35,4.99-6.39,10.32-7.82,16.71-2,8.85-.68,12.1,2.65,19.73l1.85,4.23c.45.94,3.18,1.29,3.82,1.4-.11.34-.38,3.02.04,3.44l13.04,12.85,8.96-11.57c-3.59,8.85-3.74,17.65-.38,26.84l7.33,20.07c1.89.11,4.54-2.31,5.93-3.48,6.46-5.37,17.84-15.27,18.67-24.68l-3.02-1.47,3.67-2.53c3.29-2.27-14.48-27.4-16.67-30.73-4.88,2.91-7.67,5.56-12.28,9.6,7.26-15.08,4.61-22.64-1.55-39.24,2.76,2.27,6.09,4.8,9.34,4.61,3.74-.19,6.88-1.81,10.17-4.04l-4.84,10.55c-2.8,6.12-1.29,11.3,2.46,14.97l.19,3.48c.04.72,2.46,1.55,2.76,2.19.72,1.4,2,4.5,2.99,5.9l6.96,10.28c3.74-3.48,5.86-8.58,8.24-14.17-1.32,14.29-6.2,25.4-6.95,40.94,8.43-2.95,13.68-9.37,16.1-17.09l9.64-30.96-6.12-14.82ZM526.48,764.68l-6.09,5.48,6.16-22,7.03,19.28c1.02,2.76,5.9,3.97,1.36,8.73l-8.47-11.49ZM543.15,779.8l-3.55,13.99-3.52-16.29c.34-.23,3.06-1.29,4.08-1.55,1.25-.3,3.29,2.61,2.99,3.86Z"
            style="fill: rgb(29, 29, 27);"></path>
          <path class="cls-1"
            d="M484.14,704.01c-4.35-5.07-14.33-9.6-20.37-6.39-2.38,1.29-3.97,2.53-6.92,3.29-4.61,1.17-8.01,7.18-7.86,11.11l3.55.53c-3.06,0,6.8,8.77,5.41,8.81l-15.76,9.22c-12.97,7.64-4.65,3.33-10.96,12.51.42.64,2.38,4.54,3.52,5.71l26.12,27.22c6.8-.34,8.13-6.46,10.66-10.51,3.78-6.01,7.03-11.98,8.13-19.16l-3.97-2.12,7.94-5.22,3.93-13.83c2-6.96,1.7-15.16-3.4-21.17Z"
            style="fill: rgb(29, 29, 27);"></path>
          <path class="cls-1"
            d="M407.04,799.4l-4.21,2.89,3.12,1.15c-4.89,7.3-9.79,12.78-15.76,18.64-7.26,7.13-18.1-2.09-26.98-9.05-2.57-2.02-4.72-9.41-3.95-12.71,2.41-10.4,8.99-19.98,16.4-26.9,4.25-3.97,8.46-1.15,11.33,1.7,2.17,2.15,4.86,3.31,5.24,6.15l4.88,4.56-2.29,2.48,4.35-.32c.86-.06.6,2.09.71,3.08,3.58.38,6.9,4.83,7.18,8.34Z"
            style="fill: rgb(29, 29, 27);"></path>
          <path class="cls-1"
            d="M429.53,845.32l-7.65,8.14c-2.41,2.56-4.52,7.13-8.74,8.22-6.91-5.61-14.89-10.7-20.43-18.01-4.55-5.99.73-15.4,3.81-20.75,6.49-11.29,19.04-15,30.44-9.68,6.8,3.18,11.26,9.04,9.75,10.96l-1.55,1.98,2.98,1.02c-1.41-.48-.99,10.02-8.6,18.11Z"
            style="fill: rgb(29, 29, 27);"></path>
          <path class="cls-1"
            d="M410.2,786.64c-7.42-6.93-15.34-16.49-20-24.02-.26-.42.94-2.96.44-3l-3.45-.32c.96-10.99,10.64-17.31,12.66-19.49,1.71-1.85,3.16-6.11,7.12-7.66,9.06,7.46,19.4,14.25,26.62,23.71,5.77,7.57-1.48,17.91-8.08,21.79l-15.32,9Z"
            style="fill: rgb(29, 29, 27);"></path>
          <path class="cls-1"
            d="M430.27,806.38c-.36-.09-1.07-.4-.97-.73l.57-2.04c-1.8-.15-4.17-.86-5.14-2.52-.91-1.55-.31-4.07-.44-5.66-.68-8.57,6.99-15.18,13.69-21.56,2.8-2.67,4.17-9.09,10.53-7.85,2.5,3.94,5.84,9.5,8.33,14.08,7.12,13.1,3.8,29.8-8.79,37.92,1.69-.12-23.16-13.06-15.59-11.08l-2.17-.57Z"
            style="fill: rgb(29, 29, 27);"></path>
          <path class="cls-1"
            d="M450.89,868.44c-2.48,11.99-11.45,20.37-21.87,24.45-11.87-1.8-21.75-6.41-31.59-14.06.06-2.06,3.59-4.78,6.26-5.79.58-.52,2.43-3.09,3.32-3.6l14.91-8.6c13.43-7.74,30.45.5,28.98,7.6Z"
            style="fill: rgb(29, 29, 27);"></path>
          <path class="cls-1"
            d="M441.4,720.84c-7,15.69-36.65,6.69-48.24,1.64l-7.8-3.4,4.25-2.21c2.74-3.38,6.1-6.06,10.13-8.02,4.96-8.12,17.25-5.25,25.09-3.95l10.99,1.83c2.87,2.34,7.45,9.92,5.58,14.12Z"
            style="fill: rgb(29, 29, 27);"></path>
          <path class="cls-1"
            d="M397.13,734.16c-17.39,25.39-18.53,18.89-47.04,17.09,1.74-14.77,19.9-28.96,34.34-24.95,4.16,1.16,7.55,4.06,12.7,7.86Z"
            style="fill: rgb(29, 29, 27);"></path>
          <path class="cls-1"
            d="M349.55,807.63c-3.28,3.65-1.76,6.89-17.29,9.56-1.55.27-3.49-.07-5.29-.51-4.55-1.1-5.89-3.36-7.38-7.72-2.24-6.59-3.1-13.48,1.76-18.42,5.27-5.36,12.03-5.67,18.92-2.51l7.67,3.52c5.23,2.4,6.72,6.25,7.42,5.65l-2.95,2.51c.3.93,1.64,2.9.94,3.68l-3.81,4.24Z"
            style="fill: rgb(29, 29, 27);"></path>
          <path class="cls-1"
            d="M403.93,861.8c-31.86,17.39-32.48,2.53-41.67-.9-.36-.13-.39-.54-.15-.8l1.62-1.76c-1.84-.58-3.94-1.56-5.51-2.76l-2.15-2.35c-1.5-1.64,22.61-19.27,36.13-4.37l11.74,12.94Z"
            style="fill: rgb(29, 29, 27);"></path>
          <path class="cls-1"
            d="M370.91,764.31c1.19,4.86-5.52,13.39-9.54,16.08-6.52,4.36-14.33,2.32-21.21,1.98-4.51-.23-7.21-.41-12.15-1.61l4.15-9.03c1.59-3.46,4.14-5.86,7.15-7.93,5.52-3.8,9.95-6.16,17.05-5.34,4.17.48,12.89-.93,14.55,5.86Z"
            style="fill: rgb(29, 29, 27);"></path>
          <path class="cls-1"
            d="M362.13,841.38c-15.76,6.91-24.03-7.17-33.23-17.54,12.23-9.5,40.11-9.26,42.61,6.55.87,5.47-4.74,8.96-9.38,10.99Z"
            style="fill: rgb(29, 29, 27);"></path>
        </g>
      </g>
      <g>
        <path class="cls-1"
          d="M292.94,232.86l-55.99,16.3c20.38-1.47,39.56-6.06,58.94-11.62l40.94-11.74c13.98-4.01,30.55-8.2,44.65-11.07.9-.18,2.7,2.62,2.18,3.24-4.63,5.46-23.55,12.24-31.34,15.12l-52.91,19.57c-3.47,1.28-7.3,1.19-10.29,3.99l26.56-5.49c4.76-.98,9.65-2.37,14.43-3.81l68.24-20.5c7.66-2.3,15.01-4.12,23.63-5.62-5.92,11.21-16.43,16.61-27.32,20.06l-37.72,11.93c30.56-3.52,53.57-10.57,85.21-12.03,1.12-.05,1.99,3.21,1.39,4-3.02,3.98-45.04,14.3-52.98,16.14-.19.32-.3,2.42.32,2.58s1.59.22,3.62.23c32.04.22,67.71,2.35,99.29,5.32,1.41.13,3.09,1.86,3.65,2.23,8.16,5.4-51.53,3.87-55.76,3.38l-50.86-5.96c-1.25-2.12-2.56-4.9-3.64-7.2l-46.53,4.22c-.87.08-1.76,1.32-1.51,1.75,2.75,4.84,14.45-2.53,37.42,4.22,26.96,7.93,51.57,18.25,77.26,29.38,20.68,8.97,38.77,21.12,57.01,34.46,6.67,4.87,16.8,16.84,16.12,22.41-.54,4.44-25.05-12.24-27.5-13.98-36.09-25.73-74.37-47.42-117.04-59.38,10,7.84,20.99,9.86,31.16,15.37l14.84,7.21c26.91,13.08,50.71,30.39,74.03,49.08,8.63,6.91,16.77,15.55,24.79,22.75,1.06.95-1.21,5.63-2.4,5.05l-66.5-43.57c-9.65-6.32-18.27-11.75-29.18-16.93l28.63,30.62,4.06-4.35c.93-.99,3.93,1.5,5.22,2.08,12.78,5.8,21.46,15.32,29.44,26.46,7.84,10.95,17.07,23.22,12.45,39.25l-47.94-63.49c-1.71,6.87,5.76,10.44,8.93,15.39l12.98,20.25,22.74,42.02c.58,1.07-1.67,3.54-2.41,3.31-.94-.29-2.77-1.13-3.42-2.05l-37.65-52.66-21.23-28.77c-2.23,1.18-4.57,3.04-5.86,4.72,24.42,27.09,40.01,59.37,57.07,91.54.65,1.22,1.02,2.66,1.11,3.49,1.43,12.82-32.63-35.2-34.21-36.48l6.74,27.46c1.99,8.1,2.97,17.42,1.25,25.68-.18.85-2.39,2.69-3.15,2.3-4.37-2.22-16.52-57.8-19.03-67.41l-2.58-9.89c-.5-1.93-.11-4.32,1.13-6.5l-12.95-31.27c4.19-1.79,7.01-3.63,8.68-6.04l-17.12-22.82c2.64-1.03,6.4-3.92,5.08-4.78l-38.26-25c1.67,6.09,4.31,11.92.51,16.2-2.49,2.8-6.78,3.17-9.78,2.74l-12.39-1.81-11.48-1.74c-2.05-.82-6.44-3.17-7.45.12l2.55,6.66c8.04-1.18,16.09-3.6,23.3-.85,8.62,3.29,8.74,13.51,8.9,20.99l.22,10.64c-4.64,1.7-8.42,2.4-12.71,2.68l-33.11,2.14-2.05-8.68c-.43-1.81-.93-3.95-.75-5.45.16-1.38,3.11-1.98,4.06-1.66-.8-1.15-1.77-3.7-1.37-5.09.34-1.16,1.54-2.73,2.11-3.81l1.91-4.19c.45-.98,2.41-.05,3.78.58-.4-1.25-1.96-3.76-1.13-3.94l4.86-1.04c-.95-3.84-3.2-9.2-3.91-14.02-.72-4.85,5.89-11.17,8.89-14.45,5.66-6.16,12.65-6.52,20.3-5.66l3.97.45c1.05.12,2.14-3.13,1.74-4.19-12.26-3.74-26.13-6.49-39.04-8.07l-6.8-12.85c2.25-1.69,4.55-3.29,6.41-5.77-22.63,4.75-45.29,9.23-68.03,11.65-1.37.15-4.52-2.73-3.92-3.86.7-1.32,2.61-3.09,4.48-4.89l-31.81,2.66c-19.32,1.61-38.19-.52-57.45-3.42-1.37-.21-3.3-.86-3.9-1.61-.72-.9-.76-4.16-.04-4.57l13.35-.27c13.56-.27,26.61-1.12,40.27-2.34l-1.39-6.23,36.69-18.5c4.89-6.42,9.99-14.27,16.47-20.39l71.06-67.21c4.21-3.98,8.48-7.13,14.03-9.36,1.74-.7,3.16,4.55,2.17,6.14-17.31,28.05-37.69,44.46-62.27,65.27l-18.74,15.87,28.34-11.59c-.19-3.03.85-5.29,3.15-7.09l28.88-22.71,24.16-18.48c15.46,3.44-28.1,33.87-32.2,40.29l27.11-7.89c5.55-1.62,11.29-1.51,17.58-.49-8.18,7.95-16.87,12.4-26.54,17.46-22.12,11.58-44.49,20.41-68.95,27.53Z"
          style="fill: rgb(29, 29, 27);"></path>
        <path class="cls-1"
          d="M340.32,88.48c.61-1.11,4.34-.51,4.68.39.33.89.84,2.58.91,3.7,1.13,20.19-10.85,29.51-17.44,47.26,3.44-2.1,33.17-34.65,36.34-30.49,7.74,10.16-55.02,68.01-65.69,77.44-1.79,1.58-5.41,3.36-6.91,5.04-5.9,6.61-12.56,9.73-21.08,9.69-7.03-.03-18.9-.3-20.85-9.18-2.85-12.97,19.46-26.84,30.62-31.61l12.86-5.49c-.09,5.84-.79,8.77-1.49,13.35l-1.67,11c8.71-8.07,19.27-30.03,26-44.46,6.93-14.86,15.93-32.54,23.7-46.65Z"
          style="fill: rgb(29, 29, 27);"></path>
        <path class="cls-1"
          d="M490.26,294.78c29.26,13.44,37.53,28.21,28.32,24-11.27-5.14-24.86-10.25-37.95-15.24l-49.04-18.71c-1.14-.44-.89-3.64-.01-4.08.89-.45,2.98-.84,4.19-.66,19,2.8,37.04,6.67,54.49,14.69Z"
          style="fill: rgb(29, 29, 27);"></path>
        <g>
          <path class="cls-1"
            d="M118.16,258.27l-19.5,6.27c-9.22,2.99-18.64,2.34-27.03-1.85l2.31,4.08c2.49-.91,8.54,2.87,8.09,6.24-6.01,9-15.65,16.63-26.35,18.26-11.42,1.74-21.13-4.46-30.13-10.55-3.36-2.27-5.75-3.7-6.96-7.98l-6.73,3.55c8.01,5.1,14.78,9.68,21.96,15.5-.53,3.52-3.7,5.59-6.16,7.71l-11.53,10.02c-4.04,3.48-8.13,7.98-11.98,10.74-.94.11-1.89.23-2.76.34v-45.89l2.19,2.87,18.79-9.3c.79-.38,1.63-3.67,1.17-3.74-6.73,3.86-13.15,1.93-19.05,1.66-1.1-.04-2.12-.08-3.1-.15v-30.43c.53-.42,1.02-.79,1.55-1.17l-1.55-.72-1.36-.64c-.19-2.34.34-4.42,1.36-6.2,4.95-8.69,21.73-11.26,28.95-10.09,3.02.49,6.46,6.35,8.77,8.54l13.68-2.65c-5.86-1.78-9.79-1.66-14.48-5.25,21.92-14.14,21.51-8.35,46.99.49,12.36,4.27,18.94,15.27,15.5,16.25-.87.26-2.27.04-3.7-.38l-11.91-3.55c-5.63-1.66-11-3.02-17.35-2.91,1.97.64,7.07,4.31,6.35,6.84-1.25,4.57-6.58,6.61-10.32,8.39-5.67,2.68-10.92,6.73-17.46,5.37-16.82-3.48-22.94-18.56-16.41-15.35,2.5-4.57,7.18-4.31,6.69-5.67l-.87-2.38c-.23-.6-2.08.79-2.72.98l-11.04,3.7-10.58,3.55c8.24,3.18,17.65,4.88,23.06,12.4,3.82,5.29-.72,13.15-6.28,15.61,1.51,1.47,2.04,1.7,2.95,1.66.91-.04,2.53-2.95,3.44-3.4,5.44-2.53,14.78-4.8,21.21-3.48,4.31.91,8.39,3.7,12.7,5.1l-9.3-11.08c-.53-.64,2.72-1.51,3.18-2.04,3.86-4.46,12.17-11.34,19.28-11.45l1.89-2.27c2.46-2.91,13.15,3.36,13.68,3.89,4.23,1.4,7.9,4.57,10.89,8.24,3.33,4.08,6.8,7.22,9.98,12.28Z"
            style="fill: rgb(29, 29, 27);"></path>
          <path class="cls-1"
            d="M119.32,297.07c-.91.09-8.21-7.08-7.59-10.99l-2.07.64c-1.95.6-8.25-7.44-8.17-12.07-2.64.3-6.92,5.51-5.06,6.78l14.12,9.63c1.74,1.19,3.44,5.95,3.27,8-.23,2.89-2.16,5.23-3.59,7.75l-9.31,16.43c-11.98-5.58-25.47-18.86-35.81-22.53l5.09,4.97c4.27,4.17-8.44,19.1-12.27,22.02-.96.73-3.02,1.87-3.92,2.41-6.67,4.03-21.67-9.24-24.8-14.93l-8.21-7.69c15.71-9.23,27.18-16.78,44.42-6.13.08-9.19,4.54-14.82,11.67-18.55,5.35-2.8,9.65-4.9,16.44-1.88,1.27-3.64,2.26-7.91,2.85-11.78,8.49-6.83,20.89-7.69,29.63-1.59,9.77,6.82,11.26,17.74,5.09,27.33-1.01,1.57-2.04,3.54-3.86,4.28-1.29.53-3.77-1.02-4.63-2.41l-3.28.31Z"
            style="fill: rgb(29, 29, 27);"></path>
          <path class="cls-1"
            d="M53.18,346.15c3.83,1.06,8.52,5.02,10.87,8.67,4.05,2.51,10.42,6.1,11.3,11.85.83,5.36-4.52,10.67-7.14,15.01-5.34,8.89-15.08,11.4-23.94,5.87-8.63-5.38-24.01-13.54-15.95-23.06,6.94-8.2,14.01-15.35,24.86-18.34Z"
            style="fill: rgb(29, 29, 27);"></path>
          <path class="cls-1"
            d="M81.68,318.73c12.12,3.68,20.88,13.06,28.93,22.73-3.21,4.35-5.91,8.11-9.55,11.68l-9.23,9.05c-3.04,2.98-16.25-5.19-19.44-7.34-5.75-3.87-8.07-6.98-7.85-14.49.15-5.15-.48-10.51,3.14-15.04,2.56-3.2,7.74-8.49,14-6.59Z"
            style="fill: rgb(29, 29, 27);"></path>
          <path class="cls-1"
            d="M35.12,347.86l-11.04,8.43c-3.33,2.49-7.98,8.35-13.61,5.82-.98-.45-6.05-3.48-9.07-6.69v-24.99c7.3-8.73,15.76-16.56,24.46-10.09,5.44,4.04,10.05,10.7,12.81,16.93,2.04,4.69-.11,7.98-3.55,10.58Z"
            style="fill: rgb(29, 29, 27);"></path>
          <path class="cls-1"
            d="M115.98,308.76c9.47-2.84,29.61,16.27,21.76,28.47-5.72,8.89-2,9.52-12.83,20.8-3.65-3.1-6.01-7.52-8.54-11.82-2.54-4.32-5.16-7.55-7.33-12.89-2.89-7.11-1.88-21.92,6.94-24.56Z"
            style="fill: rgb(29, 29, 27);"></path>
          <path class="cls-1"
            d="M45.1,396.74l2.67-2.44c3.34-3.05,20.25,7.83,18.83,25.42-.71,8.87-17.46,10.66-23.68,6.89-7.1-4.31-6.7-10.91-3.31-17.11,5.48-10.03,1.57-9.12,5.49-12.76Z"
            style="fill: rgb(29, 29, 27);"></path>
          <path class="cls-1"
            d="M5.1,396.88c-1.32-.42-2.53-.91-3.7-1.4v-34.36l.3-.34c11.3,4.76,5.1,25.63,3.4,36.1Z"
            style="fill: rgb(29, 29, 27);"></path>
          <path class="cls-1"
            d="M100.08,360.39c.36-.28,1.69.33,1.97.7s.52-2.31.85-2.65l7.37-7.72c4.76,11.32,7.58,17.72,4.19,29.31-2.1,7.15-8.63,12.79-15.35,16.05-6.97-8.6-7.65-18.5-5.75-29.13l2.7,1.7.6-5.55,3.43-2.7Z"
            style="fill: rgb(29, 29, 27);"></path>
          <path class="cls-1"
            d="M20.37,379.97c8.9-1.93,15.88,12.95,15.22,17.46l-3.05,21c-10.04-2.52-18.04-9.38-19.32-19.26-2.35-18.04,5.33-22.61,5.73-21.85l1.43,2.65Z"
            style="fill: rgb(29, 29, 27);"></path>
          <path class="cls-1"
            d="M67.25,395.73c-.04-1.26,5.56-12.51,10.91-15.36,3.6-1.92,8.09,1.78,9.97,5.36,4.82,9.21,3.07,20.47-5.5,26.61l-10.67,7.63c-3.93-8.51-4.44-15.57-4.7-24.24Z"
            style="fill: rgb(29, 29, 27);"></path>
        </g>
        <g>
          <path class="cls-1"
            d="M236.37,425.05c2.29,1.34,5.77-.34,9.34-2.27,1.6.93,2.9,4.56,4.23,7.21l11.42,22.74c1.17.49,4.06,1.56,4.8,2.58l22.78,31.8c7.94,11.09,15.33,22.34,22.33,33.52,3.43,5.49-7.39,6.38-20.44-11.65l-17.36-23.99c.78,8.98,10.73,44,5.78,48.4-.49.43-2.22-.27-2.84-1.91-5.34-14.16-13.95-37.15-20.25-54.5s-9.61-31.94-11.71-49.73c-1.95-.56-5.34.05-7.54,1.37l10.84,47.88,11.89,48.53c.29,1.18.26,3.52-.22,4.42s-2.89,1.83-3.58,1.69l-15.07-38.36c-5.46-13.89-8.97-31.24-12.04-45-.21-.93-1.26-2.15-1.58-2.45s-1.46,1.42-1.26,2.3l16.53,74.1c-4.37,1.47-6.3-2.08-8.37-4.29-8.43-9.01-11.38-19.73-13.92-31.51-2.69-12.47-3.89-24.61-.26-37.42.32-1.12.88-4.76,2.04-4.95l5.78-.94-1.72-17.55-2.66-25.45c-2.58,10.6-4.05,19.77-5.5,30.3l-11.59,83.8c-1.39.23-4.55-.14-4.71-1.19-.21-1.35-.39-3.58-.5-5.47-2.87-45.61,4.28-100.96,18-144.38,2.29-7.23,5.8-14,5.32-22.21-16.49,36.14-25.48,74.24-29.91,113.31-1.62,14.31-3.31,27.14-6.02,41.06l-1.03,2.38c-2.46,5.68-8.36-13.1-8.34-17.5.07-25.27,3.88-49.26,11.11-73.59,9.46-31.83,23.54-75.3,43.13-101.71-22.59,21.23-47.64,37.97-75.71,51.4l-3.77,1.8c-1.07.51-3.28-2.17-3.69-3.49,9.16-8.64,19.22-16.74,29.74-24.11l26.68-18.69c8.72-6.11,17.07-11.76,26.06-17.02l-1.24-3.25c-.34-.89-3.14.69-4.47,1.48l-66.41,39.57c-1.36.81-3.61-1.06-3.44-1.86.21-1.02,1.08-3.28,2.12-4.23,27.13-24.89,32.02-25.16,65.73-38.23,1.82-.71,6.29-2.1,7.14-.57,1.04,1.86,2.05,4.12,2.9,5.08s3.75-.05,6.13-.36c1.87,1.92,3.67,8.19,3.15,11.38-7.13,10.77-12.87,21.26-18.56,32.99l4.1,4.23c-.98,17.47-3.28,35.44-5.76,52.6-.15,1.03.77,3.96,1.23,4.87.46.91,2.48.48,4.88.15l6.33,26.89Z"
            style="fill: rgb(29, 29, 27);"></path>
          <path class="cls-1"
            d="M134.09,416.49c3.31-6.25,6.55-10.38,11.02-15.37,10.67-11.92,53.27-59.8,62.54-66.03.71-.48,2.72,1.84,2.58,2.69-.14.85-.79,1.63-1.76,2.87l-22.33,28.64,6.43,7.3-16.32,44.93-15.07,42.41c-.21.6-.95,1.72-1.25,2.22s-3.07-1.65-3.14-2.33c-1.85-18.01,6.04-44.79,15.14-62.29,4.19-8.06,10.63-18.59,15.08-25.86.44-.72-.28-3.18-.83-3.7s-2.75.41-3.27,1.02c-4.16,4.78-41.18,46.89-48.8,43.51Z"
            style="fill: rgb(29, 29, 27);"></path>
          <path class="cls-1"
            d="M163.06,297.84c15-13.66,39.92-16.64,58.91-19.41.67-.1,3.16,2.08,2.83,2.57-.46.67-1.38,1.42-2.64,1.81-19.3,5.93-37.9,11.7-56.44,19.37-1.12.46-2.73,1-3.55,1.25-.78.23-1.96-2.78-1.38-3.35l2.27-2.24Z"
            style="fill: rgb(29, 29, 27);"></path>
        </g>
        <g>
          <path class="cls-1"
            d="M270.99,277.89c-1.25-1.44-7.3-6.27-7.3-6.31-23.97-12.25-45.13,1.17-86.71-9.75-29.71-7.79-43.21-19.43-63.92-39.73l5.75.23c3.18,2.68,6.77,5.67,12.25,5.14-1.36-6.46-4.08-11.15-7.22-15.99l16.06,9.49c-4.72,4.27-5.33,11-.34,15.16,12.44,10.36,22.08,16.71,36.89,8.92l-3.63-1.55-2.61-5.44c4.01,4.5,8.16,1.06,10.77,1.89,8.66,2.83,26.08,1.63,32.7-.08-6.43-17.16-22.42-39.46-38.44-41.39l2.04-3.67c-2.12,3.78,10.36,5.56,15.01.19-2.95-22.83-7.94-45.85-35.76-48.46-7.11-.64-14.89-.64-19.88,2.95,1.51,4.8,2.42,9.26,2.65,14.06l3.33-.94-2.08,5.44c-.38.98,1.06,2.23,2.12,3.44,1.17,6.27,3.21,12.02,9.07,15.42,1.78-2.08,2.72-3.21,1.17.83l11.23,7.3,2.46-2.46,1.78,5.18-5.93,2.65c-4.95,2.23-7.37,5.29-7.41,11l-4.23-12.32c-2.38-7.03-8.88-7.67-14.29-10.28-4.72-2.31-10.51-3.21-14.7-3.18-2.38.04-7.52-4.2-9.15,1.36l2.38,10.55-22.45-34.85c-6.99,7.07-.23,27.33,3.78,34.51l3.52-3.06c-1.06,3.82-1.06,5.52-.11,8.28l2.46,7.3-26.5-33.11c-15.42-19.24-30.13-38.14-49.52-53.75-7.86-6.35-16.14-11.79-24.8-16.48v13.61c10.36,6.96,19.16,15.8,28.58,25.4.45.49,1.1,2.61.57,2.95l-2.12,1.47,9.07,52.35,18.26,1.32c-.45-15.31-6.12-29.14-15.54-41.62-3.06-4.04-6.54-8.09-7.41-13.46,19.96,21.21,37.16,43.51,56.4,65.05l13.19,14.7c17.31,19.43,38.25,33.04,63.28,40.22,16.14,4.61,31.79,7.94,48.61,7.71,12.02-.15,22.87,2.53,34.78,5.56,7.22,1.81,24.15-1.17,21.92-3.74ZM155.74,214.08l-2.23,8.69-7.56-1.29c-1.44-.26-5.29-.23-5.59,1.1l-.98,4.16c6.99-4.54,10.73,3.18,14.29,4.38l12.44,4.16c-7.67-10.09-3.74-10.66-10.36-21.21ZM138.73,163.73l.57-.19c-3.93-5.03-5.33-11.04-9.83-14.52-9.87-7.6-19.84-12.47-31.49-17.2l-1.06,8.13c-.42,2.99-.15,7.18-.19,9.6-.87,28.69,15.5,31.6,16.71,30.58l1.55-1.36c5.07,4.76,13.23,6.24,19.01,3.63.68,1.47,2,3.36,3.02,3.1,4.42-1.06,2.87-18.03,1.7-21.77Z"
            style="fill: rgb(29, 29, 27);"></path>
          <path class="cls-1"
            d="M133.51.03c.39,5.45.95,11.68-1.1,16.07l-21.19,45.49c-2.61,5.61-5.99,14.8-7.82,19.7-.21.57,1.03,2.74,1.37,3.26,1.6,2.46,6.74-14.2,8.65-18.71,8.92-21.07,22.4-38.97,38.01-55.73.88-.94,2.39-1.71,3.22-1.55s2.27,3.06,1.36,4.56l-45.24,74.71-8.99-2.21c-7.81,26.26-10.77,52.02-12.12,78.66-1.37.05-3.95-.17-4.8-.9-1.03-.87-.83-3.71-1.02-5.54-2.39-23.03-2.17-45.41,4.62-67.94l-4.73-4.43c.92-15.86,1.79-32.1,5.47-47.92.63-2.7,9.59-37.53,11.94-19.25l-10.94,63.56c6.15-16.15,10.24-31.89,18.08-46.88,1.52-2.91,19.41-36.16,25.23-34.96Z"
            style="fill: rgb(29, 29, 27);"></path>
          <path class="cls-1"
            d="M130.24,115.15c-2.2-7.95,1.53-15.71,9.77-18.03l16.14-4.55c1.39-.39,4.25-.61,5.43-.1,1.38.6,2.86,3.61,3.24,5.31l7.7,34.35c.44,1.95,1.4,5.26.55,6.66-1.77,2.9-9.17,6.3-14.82,5.36-4.22-.7-9.81-1.65-13.21-2.52l-.09-3.04c-.01-.35-.25-.71-.5-.47l-2.24,2.08-4.65-4.57-14.72,3.83c-7.7-2.8-14.88-5.49-19.89-11.85-8.03-10.19-5.87-27.3,5.91-33.46,2.27-1.19,4.83-2.04,7.11-3.42,3.09-1.87,8.16.75,9.22,4.16,1.58,5.08,2.44,9.48,2.11,14.58l-1.31,20.33c-.09,1.39,0,3.28.04,6.23l10.22-2.32c-2.43-6.77-4.21-12.15-5.99-18.55Z"
            style="fill: rgb(29, 29, 27);"></path>
          <path class="cls-1"
            d="M242.21,68.13c4.25-.4,12.08,4.09,13.82,7.78,4.08,8.64,6.04,17.86,6.91,27.11.33,3.54-1.09,7.01-3.57,9.58-2.08,2.16-5.52,1.79-8.78,1.99-4.99.31-11.01,1.26-15.18-2.41-3.5.87-8.69,2.27-12.96-1.15l-2.17-.34c-.49-.08-.58-1.87-.87-2.53-2.83-6.5-3.26-13.94-2.91-21.1.17-3.34-.33-7.65.8-10.04,3.19-6.76,16.91-8.13,24.9-8.89Z"
            style="fill: rgb(29, 29, 27);"></path>
          <path class="cls-1"
            d="M175.86,68.24c6.28-1.89,12.16-2.62,18.27-1.54,10.23-5.19,17.06,16.57,17.13,23.62.11,12.24-6.63,20.8-17.66,24.55-8.81,3-18.53-.16-21.72-10.11-3.72-11.6-3.64-24.46-2.77-37.24l6.74.71Z"
            style="fill: rgb(29, 29, 27);"></path>
          <path class="cls-1"
            d="M269.54,160.01l-15.69,2.58,1.21-4.84-2.95,3.58c-.65.79-2.55-.04-3.65-.19-3.15,2.02-8.57,2.44-12.64,1.52l2.07-3.3c.3-.48.34-1.22.39-1.72-1.64,1.91-3.13,3.74-4.19,4.71-.54.49-8.66,1.66-11.27-9.15-1.55-6.4-1.97-12.58.07-18.96l3.6-11.19c11.01-.32,42.79-2.99,42.89,12.59l.16,24.37Z"
            style="fill: rgb(29, 29, 27);"></path>
          <path class="cls-1"
            d="M200.47,121.23c12.51-.65,15.35,13.98,15.18,22.87l-.43,21.56c-22.2-1.44-42.93-13.54-40.42-38.35,8.37-4.04,16.64-5.61,25.67-6.08Z"
            style="fill: rgb(29, 29, 27);"></path>
          <path class="cls-1"
            d="M157.73,46.1c3.52-.67,7.85-4.14,12.39-1.77l-1.94,12.56-1.02,6.59c-.45,2.91-2.07,7.34-3.03,10.45-3.04,9.86-9.47,15.69-19.02,18.3-14.69,4-15.32-23.55-11.83-31.25,5.78-10.23,12.44-12.6,24.45-14.88Z"
            style="fill: rgb(29, 29, 27);"></path>
          <path class="cls-1"
            d="M271.39,37.83c9.86-.94,18.17,8.35,20.43,16.73l-5.87,11.46c-7.06,3.5-18.4,12.23-25.03,7.61-2.08-1.45,1.25-3.96-.64-3.35-7.46,2.42-3.84-26.24,5.24-30.76,1.12.22,4.43-1.56,5.88-1.7Z"
            style="fill: rgb(29, 29, 27);"></path>
          <path class="cls-1"
            d="M274.7,145.26c-1.46-1.17-.65-19.93.27-20.82,6.82-6.57,15.48-13.35,23.47-18.59,7.73,13.94,6.11,30.68-5.33,41.35-4.81,4.49-12.26,4.51-18.21,4.89l-.2-6.84Z"
            style="fill: rgb(29, 29, 27);"></path>
          <path class="cls-1"
            d="M194.18,34.46c8.48-4.16,14.21-3.21,25.03-1.27,1.91,8.02-7.29,28.7-21.36,29.2-6.91.25-13.25-.87-21.27-1.53,3.05-7.62,5.88-13.98,9.84-21.3,1.18-2.19,5.55-4.01,7.77-5.1Z"
            style="fill: rgb(29, 29, 27);"></path>
          <path class="cls-1"
            d="M273.55,82.34l19.42-16.07c7.02,11.32,6.97,24.56-1.35,34.29-5.04,5.89-10.73,11.27-19.46,11.17-1.37-3.35-1.55-8.62-1.98-11.73-3.73-4.9-1.91-13.28,3.37-17.66Z"
            style="fill: rgb(29, 29, 27);"></path>
          <path class="cls-1"
            d="M248.9,34.43c3.52-1.23,7.85-1.01,12.1.41-3.07,11.03-8.87,19.49-18.18,25.77-5.42,3.65-17,5.14-20.58-1.84-4.38-8.54,3.83-20.69,11.95-23.64,4.68-1.7,9.38-5.02,14.71-.7Z"
            style="fill: rgb(29, 29, 27);"></path>
          <path class="cls-1"
            d="M253.07,208.6c-3.55-3.1-8.92-2.04-13.65-1.78-3.36-2.42,11.3-32.43,2.61-36.17-1.36-.6-5.22-2.04-6.99-2.12l-35.04-1.32c-1.47-.08-4.65.79-5.44,1.85-.79,1.06-.94,3.63-.57,5.25l4.01,18.07c1.29,5.71,3.02,10.92,9.64,12.13l-1.78,7.11c5.71,10.7,9.56,21.47,21.58,26.04,8.58,3.29,21.47-1.81,24.12-10.32.91-2.95,1.74-5.52,2.83-7.98,1.1-2.53.76-8.96-1.32-10.77ZM213.83,209.55l-3.86-.79c-.79-.15-.26-2.83-.26-3.52l13.49,2.8c-2.15,2.23-5.93,2.19-9.37,1.51Z"
            style="fill: rgb(29, 29, 27);"></path>
        </g>
        <g>
          <path class="cls-1"
            d="M348.82,282.2c-8.13-2.19-22.79-5.78-30.96-1.06l.57,3.33-4.23-1.55c-3.7-1.4-14.02,27.63-15.5,31.3,5.18,2.34,9,3.1,14.93,4.54-16.52,2.76-21.17,9.3-31.18,23.89.26-3.59.42-7.79-1.59-10.32-2.31-2.91-5.48-4.57-9.19-5.93l11.42-2.15c6.65-1.25,9.98-5.44,10.81-10.62l2.76-2.19c.53-.42-.15-2.87.19-3.52.72-1.36,2.53-4.23,3.14-5.82l4.39-11.6c-5.03-1.02-10.39.19-16.37,1.44,12.47-7.14,24.38-9.56,37.5-17.88-7.26-5.18-15.57-5.78-23.25-3.33l-30.88,9.94-8.58,13.57c-2.08,3.29-2.83,7.33-2.76,11.57-8.05-.19-12.74,5.18-17.46,10.89-5.75,6.99-9.45,15.08-4.04,23.59l5.06-2.31c-4.69,12.97-7.3,25.63-7.52,40.03,22.04-5.63,30.69-11.11,45.02-27.14-1.21,4.57-2.87,10.39,2.23,12.97,3.21,1.63,9.03-1.06,12.13-.72,6.58.68,12.13-.72,18.18-3.21,8.35-3.48,10.28-6.39,14.59-13.53l2.38-3.93c.53-.94-.76-3.36-1.06-3.93.34-.11,2.72-1.44,2.8-2l3.02-18.07-14.63-.68c9.3-2.15,16.56-7.11,22.15-15.12l12.17-17.58c-.98-1.63-4.5-2.38-6.24-2.83ZM263.43,302.16l13.46-5.14-11.26,12.28c-.38-.19-2.8-1.78-3.63-2.49-.94-.83.23-4.16,1.44-4.65ZM247.1,333.95l11.72-16.86c1.7-2.42-.15-7.11,6.35-6.12l-4.5,13.53,7.98,1.81-21.55,7.64Z"
            style="fill: rgb(29, 29, 27);"></path>
          <path class="cls-1"
            d="M292.99,368.95c-7.07.38-13.83,1.13-20.34,4.38l.53,4.46-8.81-3.48-13.61,4.76c-6.8,2.38-13.34,7.33-15.31,14.97-1.66,6.46.38,17.24,6.5,20.34,2.42,1.21,4.38,1.78,6.69,3.78,3.59,3.1,10.47,2.38,13.61,0l-1.63-3.25c1.74,2.57,3.29-10.55,4.08-9.45l16.63,7.56c13.68,6.24,5.41,1.89,16.56,1.78.23-.72,2.31-4.57,2.65-6.16l7.18-37.04c-4.2-5.33-9.98-2.91-14.74-2.65Z"
            style="fill: rgb(29, 29, 27);"></path>
          <path class="cls-1"
            d="M357.83,402.13l4.79,1.78-.86-3.21c8.78-.21,16.09.64,24.31,2.15,10.01,1.83,8.72,16,8.13,27.27-.17,3.26-4.97,9.28-8.11,10.55-9.89,4.01-21.51,4.16-31.43,2.09-5.69-1.19-5.81-6.25-5.14-10.24.51-3.02-.09-5.88,2.01-7.83l.92-6.62,3.35.45-2.77-3.37c-.55-.67,1.36-1.69,2.11-2.35-1.75-3.15-.02-8.42,2.68-10.67Z"
            style="fill: rgb(29, 29, 27);"></path>
          <path class="cls-1"
            d="M382.42,357.3l11.06,1.57c3.48.49,8.43-.41,11.75,2.41-.61,8.88-.17,18.33-2.95,27.07-2.28,7.17-13.01,8.27-19.15,8.83-12.97,1.2-23.23-6.92-25.44-19.31-1.32-7.39.91-14.41,3.34-14.28l2.51.13-.88-3.02c.42,1.43,8.77-4.96,19.76-3.4Z"
            style="fill: rgb(29, 29, 27);"></path>
          <path class="cls-1"
            d="M345.58,406.9c-1.39,10.06-4.65,22.04-8.12,30.19-.2.46-2.96.93-2.71,1.37l1.73,3c-9.54,5.54-20.28,1.27-23.23.87-2.5-.34-6.81.94-10.36-1.41.89-11.7.48-24.07,4.05-35.42,2.86-9.07,15.49-9.11,22.46-5.94l16.18,7.34Z"
            style="fill: rgb(29, 29, 27);"></path>
          <path class="cls-1"
            d="M350.16,379.13c.13.35.29,1.1-.03,1.22l-2,.71c.92,1.56,1.7,3.91.91,5.65-.75,1.64-3.15,2.6-4.38,3.62-6.61,5.49-16.43,3.03-25.51,1.23-3.8-.75-9.83,1.83-12.48-4.08,1.78-4.32,4.4-10.25,6.71-14.92,6.61-13.36,22.17-20.27,36.07-14.65-1.07-1.31,2.66,26.45-.07,19.13l.79,2.11Z"
            style="fill: rgb(29, 29, 27);"></path>
          <path class="cls-1"
            d="M389.03,326.53c11.23-4.88,23.25-2.37,32.59,3.79,5.36,10.74,7.29,21.47,6.7,33.92-1.72,1.14-5.98-.19-8.34-1.78-.76-.18-3.93-.21-4.85-.64l-15.61-7.24c-14.06-6.52-17.13-25.18-10.48-28.07Z"
            style="fill: rgb(29, 29, 27);"></path>
          <path class="cls-1"
            d="M273.83,419.29c16.86-3.32,26.58,26.11,29.12,38.49l1.71,8.33-4.25-2.2c-4.34-.29-8.47-1.5-12.39-3.66-9.5.62-14.23-11.08-17.68-18.24l-4.84-10.04c.26-3.69,3.82-11.8,8.33-12.69Z"
            style="fill: rgb(29, 29, 27);"></path>
          <path class="cls-1"
            d="M310.21,447.81c30.77-.4,26.11,4.27,41.06,28.61-13.08,7.09-35.14.41-40.17-13.7-1.45-4.06-1.03-8.51-.89-14.91Z"
            style="fill: rgb(29, 29, 27);"></path>
          <path class="cls-1"
            d="M397.67,444.4c4.87.58,6.65-2.53,17.77,8.62,1.11,1.12,1.95,2.89,2.63,4.61,1.72,4.35.65,6.75-2.07,10.48-4.1,5.63-9.24,10.3-16.07,9.17-7.42-1.22-11.56-6.57-12.95-14.02l-1.54-8.3c-1.05-5.66,1.25-9.09.34-9.32l3.75.97c.58-.78,1.43-3.01,2.47-2.88l5.66.67Z"
            style="fill: rgb(29, 29, 27);"></path>
          <path class="cls-1"
            d="M410.64,368.75c32.56,16.03,20.77,25.1,23.26,34.59.1.37-.22.63-.57.58l-2.37-.31c.59,1.84.99,4.12.91,6.1l-.68,3.11c-.47,2.17-28.77-7.39-24.38-27.01l3.82-17.05Z"
            style="fill: rgb(29, 29, 27);"></path>
          <path class="cls-1"
            d="M349.96,451.89c3.29-3.77,14.13-3.2,18.64-1.46,7.32,2.82,10.15,10.38,13.83,16.2,2.41,3.82,3.82,6.13,5.68,10.86l-9.78,1.81c-3.75.69-7.17-.01-10.6-1.27-6.29-2.32-10.77-4.59-14.19-10.87-2.01-3.68-8.19-10.01-3.59-15.27Z"
            style="fill: rgb(29, 29, 27);"></path>
          <path class="cls-1"
            d="M418.02,414.68c14.73,8.91,7.98,23.78,4.8,37.27-14.81-4.53-30.67-27.46-19.19-38.61,3.97-3.86,10.05-1.28,14.39,1.34Z"
            style="fill: rgb(29, 29, 27);"></path>
        </g>
      </g>
    </g>
  </g>
</svg>