<svg xmlns="http://www.w3.org/2000/svg" viewBox="0 0 840 1680" width="840px" height="1680px">
  <defs></defs>
  <g id="Calque_2" transform="matrix(0.94004, 0, 0, 0.938947, -303.526184, 186.77597)" style="">
    <g id="Calque_1-2" data-name="Calque 1" transform="matrix(1, 0, 0, 1, 571.366455, 511.254761)">
      <path class="cls-1"
        d="M353.22,403v3.12h-11.96v9.62h11.96v3.12h-11.96v9.62h11.96v3.12h-15.56v-28.59h15.56Z"
        style="fill: rgb(29, 29, 27);"></path>
      <rect class="cls-1" x="393.59" y="464.27" width="3.85" height="15.92"
        transform="translate(-184.22 680.4) rotate(-69.8)" style="fill: rgb(29, 29, 27);"></rect>
      <g>
        <rect class="cls-1" x="203.8" y="735.34" width="2.98" height="15.92"
          transform="translate(-540.33 940.01) rotate(-89.34)" style="fill: rgb(29, 29, 27);"></rect>
        <rect class="cls-1" x="203.81" y="741.54" width="2.98" height="15.92"
          transform="translate(-548.02 940.28) rotate(-88.89)" style="fill: rgb(29, 29, 27);"></rect>
      </g>
      <circle class="cls-1" cx="353.87" cy="481.2" r="4.96" style="fill: rgb(29, 29, 27);"></circle>
      <circle class="cls-1" cx="350.64" cy="360.18" r="4.99" style="fill: rgb(29, 29, 27);"></circle>
      <path class="cls-1" d="M206.08,818.76c10.37,0,10.39-16.12,0-16.12s-10.39,16.12,0,16.12h0Z"
        style="fill: rgb(29, 29, 27);"></path>
      <circle class="cls-1" cx="405.66" cy="530.68" r="4.96" style="fill: rgb(29, 29, 27);"></circle>
      <circle class="cls-1" cx="369.66" cy="575.86" r="4.98" style="fill: rgb(29, 29, 27);"></circle>
      <g>
        <rect class="cls-1" x="20.53" y="230.69" width="1.7" height="2.11"
          transform="translate(-172.89 103.6) rotate(-51.32)" style="fill: rgb(29, 29, 27);"></rect>
        <polygon class="cls-1"
          points="11.2 223.59 20.07 239.54 21.26 231.64 28.7 228.76 11.2 223.59"
          style="fill: rgb(29, 29, 27);"></polygon>
      </g>
      <path class="cls-1"
        d="M322.75,416.51l-52.39-5.02c-.58-1.19-1.78-3.35-2.5-3.01-.58.29-1.39,1.37-2.16,2.59l-40.85-3.96-9.27-1.75,9.63-9.4c1.24-1.21,3.04-2.32,4.09-2.34l-3.87,4.97-2.23,2.79-3.8.56,4.79,4.72,22.67-31c-1.37-.94-3.04-.76-4.45.27l-29.31,21.28-2.65-36.44c-.07-.97-.92-3.22-.76-3.06,1.64-.31,2.32-.43,2.99-.63.56-.18.7-2.29.13-2.47l-2.77-.81-3.87-59.47-4.93-.05-4.3,58.37c-1.15,1.96-.43,4-.56,6.03l-2.77,38.51-31.96-23.55c-.74-.56-2.41-1.44-2.88-.83-.45.58-.63,1.91-.45,2.63.13.56,2.23.79,2.65,1.37l21.23,29.35c1.03.02,2.2-.72,2-1.33l-13.7-19.44,20.96,19.95-9.7,1.73-99.49,8.8c-.54,1.37.81,3.28,2.34,3.42l96.95,8.14-22.54,30.77c-1.17-.07-2.32-.09-2.97-.05-.65.05-1.3,2.11-.79,2.47l1.87,1.28c1.84-.85,4.41-1.44,5.76-2.43l30.39-22.54,7.45,101.7c.11,1.46,1.69,2.09,2.25,2.09s1.93-.81,2-1.69l4.36-54.5c.09-.88,3.82-2.11,3.28-2.7l-2.7-3.06,3.22-41.97,31.6,24.02c.72.54,2.36.76,2.63.13.25-.52.04-2-.31-2.5l-21.95-30.93,97.11-7.54c.85-.07,1.8-1.35,2.25-1.6.34-.16-.56-1.78-1.75-1.91ZM215.16,398.81l8.98-5.89c-3.31,3.98-6.43,6.82-10.48,10.44-.45-1.64.22-3.71,1.51-4.54ZM204.97,381.15l3.01,2.81c-2.23-4.03-3.19-6.39-3.17-10.48l.22-50.68c.54,2.81.99,5.89,1.17,8.93l2.27,37.07,1.21,18.22,1.75,21.5-6.66,4.86-.05-9.63,2.9,3.1c1.03-2.29-2.38-3.58-2.61-5.26-.49-3.69-.29-7.78-.2-11.81l3.67,4.48c-2.18-7.2-4.5-2.83-3.53-13.11ZM200.54,338.5l1.08-14.08.38,28.57c.02.56-1.78,2.02-1.53,2.47l1.57,2.54-.07,55.09c-2.68-1.37-5.06-3.24-6.64-4.93l5.2-69.66ZM99.31,416.92l40.13-3.28c2.07-.18,3.4,0,5.58-.38,7.02-1.19,15.36-1.73,22.63-2.32.88-.07,2.97,1.35,3.98,1.91l.43-1.19c.11-.36,1.01.05,2.05.36.09-.23-.09-1.87.4-1.73l2.65.72c.74-.52,1.64-1.15,2.45-1.35,1.19-.31,2.63,1.71,3.4,3.08l-.47-2.52c-.13-.74,2.09-1.51,2.86-1.55.74-.02,1.51,1.3,2.02,2.25l.65,1.19c.13.2.85,0,.76-.22l-.47-1.17-.74-1.84c-1.55-3.85,10.23,3.82,11.45,6.07l-79.67,1.75c-9.04.2-10.93,1.37-20.09.23ZM140.25,420.34c-.11.52-1.62.85-2.43.79l-15.68-.99c-.27-.02-1.64-1.03-1.39-1.03.25-.02,1.17-.16,1.57-.16l17.79-.02c.13.18.2,1.06.13,1.42ZM192.82,434.28l-16.83,11.92c2.23-3.22,4.75-5.76,7.42-8.32l9.07-8.77c.29,1.62.52,4.18.34,5.17ZM192.23,425.83l-47.51-4.05-1.35-3.04,56.53-1.24-7.67,8.32ZM206.27,492.5l-1.28,11.25-.29-81.86c0-.47-.72-1.51-1.08-1.78-.49-.34-1.8,1.03-1.8,1.78l-.56,57.32-1.53,2.63,1.37,2.65c2.54,4.88.09,13.25-.22,19.17l-1.03-11.85-2.18-30.66-2.86-34.03,7.51-8.14c-.09-.56-.56-1.89-.2-1.91l2.2-.11c.49-.02.11,1.19-.02,2.02l7.27,7.96-5.29,65.57ZM220.74,439.28c-1.87-1.24-3.22-2.52-4.63-4.41l-2.83.07.9-6.32,6.64,6.23c.67.65.36,3.01-.07,4.43ZM235.49,447.19l-17.48-18.69c.94-.58,3.67-.81,4.18-.07l13.29,18.76ZM245.14,423.42l1.84-3.51c-1.28-.2-2.56,1.37-3.19,3.51l-29.49,2.59-7.67-8.19,6.39-.25-.54,2.81,3.1-2.72,15.34.52c-1.35,1.87-2.2,2.83-2.56,4.86l4.52-4.52,5.2-.16-1.75,4.59,4.16-4.5,25.19.85c.67.02,1.98,1.46,2.41,1.82.49.43,2.07-1.35,2.81-1.39,4.88-.34,11.2-.29,16.65.31l-42.4,3.37ZM296.41,417.5l-88.81-2.52c10.44-10.46,12.15-5.71,16.08-5.35l83.7,7.99c-3.28,1.06-6.95,0-10.98-.11Z"
        style="fill: rgb(29, 29, 27);"></path>
      <path class="cls-1"
        d="M68.1,406.39c2.88,2.89,4.32,6.33,4.32,10.31s-1.44,7.46-4.32,10.34c-2.88,2.88-6.4,4.32-10.56,4.32s-7.66-1.44-10.54-4.32c-2.88-2.88-4.32-6.33-4.32-10.34s1.44-7.43,4.32-10.31,6.4-4.33,10.54-4.33,7.68,1.44,10.56,4.33ZM57.54,405.19c-3.05,0-5.68,1.12-7.91,3.35s-3.34,4.95-3.34,8.16,1.11,5.96,3.34,8.19,4.86,3.34,7.91,3.34,5.7-1.11,7.93-3.34,3.34-4.95,3.34-8.19-1.11-5.92-3.34-8.16-4.87-3.35-7.93-3.35Z"
        style="fill: rgb(29, 29, 27);"></path>
      <path class="cls-1"
        d="M203.75,569.06c-2.05-.67-3.7-1.64-4.95-2.88s-1.87-2.75-1.87-4.51.65-3.24,1.94-4.54c1.29-1.3,2.9-1.96,4.82-1.96s3.52.67,4.87,2.01c.7.69,1.25,1.66,1.65,2.9l-3.22,1.25c-.4-1.07-.75-1.77-1.07-2.09-.65-.66-1.39-.99-2.23-.99s-1.55.32-2.2.96c-.64.64-.96,1.46-.96,2.45s.33,1.82.99,2.5c.69.66,1.63,1.27,2.82,1.83,2.28.74,4.19,1.88,5.72,3.42,1.76,1.75,2.64,3.82,2.64,6.2s-.87,4.45-2.61,6.19-3.88,2.61-6.41,2.61-4.7-.89-6.46-2.68c-1.38-1.36-2.23-3.13-2.54-5.31l3.46-1.25c.21,2.08.8,3.6,1.77,4.55,1.06,1.06,2.32,1.59,3.78,1.59s2.75-.55,3.84-1.64c1.09-1.09,1.64-2.45,1.64-4.06s-.54-2.96-1.61-4.03c-1.09-1.07-2.36-1.91-3.82-2.52Z"
        style="fill: rgb(29, 29, 27);"></path>
      <path class="cls-1"
        d="M195.17,249.3l16.29,22.85v-22.85h3.6v28.59h-3.98l-15.88-22.28v22.28h-3.6v-28.59h3.56Z"
        style="fill: rgb(29, 29, 27);"></path>
      <path class="cls-1"
        d="M18.48,510.79C6.22,484.32,0,455.98,0,426.54c0-110.74,90.09-200.83,200.84-200.83,16.96,0,33.8,2.11,50.04,6.28l-.96,3.73c-15.93-4.09-32.44-6.16-49.08-6.16C92.22,229.56,3.85,317.93,3.85,426.54c0,28.87,6.1,56.67,18.12,82.63l-3.5,1.62Z"
        style="fill: rgb(29, 29, 27);"></path>
      <path class="cls-1"
        d="M205.43,623.86l-.13-4.02c22.97-.76,45.37-5.15,66.56-13.07,47.42-17.66,85.38-51.8,106.92-96.11,9.02-18.54,14.91-38.27,17.5-58.65l3.99.51c-2.65,20.81-8.66,40.97-17.87,59.9-21.99,45.25-60.74,80.09-109.13,98.12-21.6,8.07-44.42,12.55-67.83,13.32Z"
        style="fill: rgb(29, 29, 27);"></path>
      <rect class="cls-1" x="203.43" y="604.89" width="4.3" height="190.88"
        style="fill: rgb(29, 29, 27);"></rect>
      <rect class="cls-1" x="270.28" y="600.04" width="3.85" height="15.92"
        transform="translate(-263.47 212) rotate(-29.41)" style="fill: rgb(29, 29, 27);"></rect>
      <rect class="cls-1" x="132.39" y="230.42" width="3.85" height="15.92"
        transform="translate(-71.89 58.53) rotate(-19.51)" style="fill: rgb(29, 29, 27);"></rect>
      <rect class="cls-1" x="142.26" y="227.25" width="3.85" height="15.92"
        transform="translate(-61.15 50.96) rotate(-16.59)" style="fill: rgb(29, 29, 27);"></rect>
      <path class="cls-1" d="M167.85,619.3c7.44,0,7.45-11.56,0-11.56s-7.45,11.56,0,11.56h0Z"
        style="fill: rgb(29, 29, 27);"></path>
      <path class="cls-1" d="M136.75,611.08c8.3,0,8.31-12.9,0-12.9s-8.31,12.9,0,12.9h0Z"
        style="fill: rgb(29, 29, 27);"></path>
      <rect class="cls-1" x="109.56" y="128.49" width="190.88" height="4.3"
        transform="translate(71.86 334.01) rotate(-89.3)" style="fill: rgb(29, 29, 27);"></rect>
      <g>
        <rect class="cls-1" x="197.25" y="86.17" width="15.92" height="2.98"
          style="fill: rgb(29, 29, 27);"></rect>
        <rect class="cls-1" x="197.33" y="79.97" width="15.92" height="2.98"
          transform="translate(-.61 1.55) rotate(-.43)" style="fill: rgb(29, 29, 27);"></rect>
      </g>
      <circle class="cls-1" cx="101.44" cy="309.03" r="5.04" style="fill: rgb(29, 29, 27);"></circle>
      <circle class="cls-1" cx="266.89" cy="281.61" r="5.04" style="fill: rgb(29, 29, 27);"></circle>
      <circle class="cls-1" cx="151.38" cy="281.3" r="5.04" style="fill: rgb(29, 29, 27);"></circle>
      <circle class="cls-1" cx="63.1" cy="480.32" r="5.03" style="fill: rgb(29, 29, 27);"></circle>
      <path class="cls-1"
        d="M97.46,530.19c-1.71-.07-4.78-3.72-4.39-5.29.39-1.57,3.29-3.54,5.68-3.82,1.95-.23,5.21,2.25,5.45,3.92.36,2.54-2,5.38-6.74,5.19Z"
        style="fill: rgb(29, 29, 27);"></path>
      <circle class="cls-1" cx="146.32" cy="558.08" r="4.99" style="fill: rgb(29, 29, 27);"></circle>
      <circle class="cls-1" cx="270.13" cy="558.48" r="4.95" style="fill: rgb(29, 29, 27);"></circle>
      <circle class="cls-1" cx="67.13" cy="359.15" r="4.98" style="fill: rgb(29, 29, 27);"></circle>
      <circle class="cls-1" cx="316.65" cy="309.82" r="5.01" style="fill: rgb(29, 29, 27);"></circle>
      <circle class="cls-1" cx="317.86" cy="526.39" r="4.98" style="fill: rgb(29, 29, 27);"></circle>
      <polygon class="cls-1"
        points="243.2 412.39 239.41 410.36 273.56 346.66 212.7 387.16 210.31 383.58 285.45 333.59 243.2 412.39"
        style="fill: rgb(29, 29, 27);"></polygon>
      <polygon class="cls-1"
        points="164.19 411.52 121.95 332.72 197.08 382.71 194.7 386.29 133.83 345.79 167.98 409.49 164.19 411.52"
        style="fill: rgb(29, 29, 27);"></polygon>
      <polygon class="cls-1"
        points="284.97 502.98 209.83 452.99 212.21 449.41 273.08 489.91 238.93 426.21 242.72 424.18 284.97 502.98"
        style="fill: rgb(29, 29, 27);"></polygon>
      <polygon class="cls-1"
        points="121.46 503.85 163.71 425.04 167.5 427.07 133.35 490.77 194.22 450.28 196.6 453.86 121.46 503.85"
        style="fill: rgb(29, 29, 27);"></polygon>
      <path class="cls-1" d="M207.6,14.16c9.11,0,9.13-14.16,0-14.16s-9.13,14.16,0,14.16h0Z"
        style="fill: rgb(29, 29, 27);"></path>
      <circle class="cls-1" cx="321.92" cy="607.96" r="4.95" style="fill: rgb(29, 29, 27);"></circle>
      <rect class="cls-1" x="195.13" y="693.64" width="108.13" height="4.3"
        transform="translate(-.95 .34) rotate(-.08)" style="fill: rgb(29, 29, 27);"></rect>
      <rect class="cls-1" x="225.19" y="669.62" width="4.3" height="64.67"
        transform="translate(-475.26 927.3) rotate(-89.84)" style="fill: rgb(29, 29, 27);"></rect>
      <rect class="cls-1" x="105.16" y="132.97" width="108.13" height="4.3"
        transform="translate(-.83 .98) rotate(-.35)" style="fill: rgb(29, 29, 27);"></rect>
      <rect class="cls-1" x="148.79" y="138.97" width="64.67" height="4.3"
        transform="translate(-1.43 1.86) rotate(-.59)" style="fill: rgb(29, 29, 27);"></rect>
      <rect class="cls-1" x="329.19" y="471.27" width="4.3" height="156.2"
        transform="translate(-290.83 392.86) rotate(-44.78)" style="fill: rgb(29, 29, 27);"></rect>
      <rect class="cls-1" x="255.22" y="284.43" width="156.2" height="4.3"
        transform="translate(-105.13 318.08) rotate(-44.8)" style="fill: rgb(29, 29, 27);"></rect>
      <rect class="cls-1" x="72.84" y="208.34" width="4.3" height="156.2"
        transform="translate(-180.02 135.96) rotate(-44.78)" style="fill: rgb(29, 29, 27);"></rect>
      <rect class="cls-1" x="-4.64" y="550.18" width="156.2" height="4.3"
        transform="translate(-370.28 215.35) rotate(-45.21)" style="fill: rgb(29, 29, 27);"></rect>
      <path class="cls-1"
        d="M202.58,606.3c-100.88,0-182.96-82.07-182.96-182.96s82.07-182.96,182.96-182.96,182.96,82.07,182.96,182.96-82.07,182.96-182.96,182.96ZM202.58,244.68c-98.51,0-178.66,80.15-178.66,178.66s80.15,178.66,178.66,178.66,178.66-80.15,178.66-178.66-80.15-178.66-178.66-178.66Z"
        style="fill: rgb(29, 29, 27);"></path>
      <g>
        <rect class="cls-1" x="387.82" y="230.48" width="2.11" height="1.7"
          transform="translate(-59.31 293.54) rotate(-38.65)" style="fill: rgb(29, 29, 27);"></rect>
        <polygon class="cls-1"
          points="399.05 223.18 381.55 228.35 389 231.23 390.18 239.12 399.05 223.18"
          style="fill: rgb(29, 29, 27);"></polygon>
      </g>
      <g>
        <rect class="cls-1" x="18.63" y="604.2" width="2.11" height="1.7"
          transform="translate(-374.11 145.27) rotate(-38.72)" style="fill: rgb(29, 29, 27);"></rect>
        <polygon class="cls-1" points="9.5 613.2 27.01 608.03 19.56 605.14 18.38 597.25 9.5 613.2"
          style="fill: rgb(29, 29, 27);"></polygon>
      </g>
      <g>
        <rect class="cls-1" x="382.52" y="600.09" width="1.7" height="2.11"
          transform="translate(-325.5 524.72) rotate(-51.32)" style="fill: rgb(29, 29, 27);"></rect>
        <polygon class="cls-1"
          points="393.55 609.29 384.68 593.34 383.49 601.24 376.05 604.12 393.55 609.29"
          style="fill: rgb(29, 29, 27);"></polygon>
      </g>
    </g>
  </g>
</svg>