<?xml version="1.0" encoding="UTF-8"?>
<svg id="Calque_1" data-name="Calque 1" xmlns="http://www.w3.org/2000/svg" viewBox="0 0 188.03 284.64">
  <path d="M167.94,196.58s0,.04,0,.05c0,0,.01,0,.02,0v-.05Z"/>
  <path d="M182.41,137.8s-.12.02-.31.07c-.02.73.69,1.04.99,1.56.33.58.78,1.09,1.19,1.61.42.53.86,1.03,1.29,1.54.43.51.87,1.02,1.28,1.55.38.47.73.97,1.1,1.44.02.03.05.05.07.08v-1.86c-1.53-1.87-3.19-3.64-4.81-5.44-.21-.24-.53-.37-.81-.55Z"/>
  <path d="M178.58,200.07c.03.8.64,1.59,1.37,1.79.06.02.14.04.2.03.95-.26,1.51.38,2.04.97.45.49.84,1.04,1.21,1.59,1.54,2.3,3.08,4.6,4.62,6.91v-1.55c-.55-.79-1.11-1.57-1.66-2.35-.26-.37-.41-.83-.54-1.27-.42-1.36-1.12-2.58-2.07-3.63-.42-.46-.61-.93-.66-1.59-.12-1.32-1.85-2.51-3.04-2.28-.91.17-1.5.72-1.47,1.38Z"/>
  <path d="M184.68,185.14c-.69.63-1.5,1.13-2.21,1.74-.69.6-1.69.75-2.39,1.72.43,0,.71.09.9,0,2.23-.98,4.28-2.21,5.87-4.12.38-.46.78-.91,1.17-1.36v-1.83c-.42.7-.97,1.22-1.44,1.77-.6.72-1.22,1.43-1.91,2.06Z"/>
  <path d="M188.03,236.11c-.34.19-.68.39-1.02.59-.45.27-.89.56-1.5.31-.23-.09-.62.12-.91.26-4.62,2.17-9.34,4.04-14.44,4.77-.79.11-1.58.24-2.27.72-.5.35-.25.67,0,1.12-1.12.28-2.22.57-3.32.83-.18.04-.45.1-.57,0-.74-.61-1.56-.25-2.33-.18-3.27.29-6.49.96-9.7,1.61-2.97.61-5.96.83-8.98.82-.07,0-.14-.02-.2-.02-1.05.11-2.17.48-3.15.25-.97-.22-1.94-.49-2.92-.57-3.33-.29-6.66-.77-10.02-.67-.72.02-1.45-.1-2.27-.16-.03-1.66.82-2.86,1.43-4.22.4.03.73.04,1.05.08.8.09,1.6.34,2.39.28,1.86-.14,3.7.08,5.55.12,3.75.08,7.46-.58,11.21-.51.33,0,.67-.08,1-.06,4.46.15,8.8-.62,13.1-1.7,3.18-.8,6.33-1.67,9.56-2.31,3.23-.64,6.25-2,9.2-3.46,1.43-.71,2.7-1.71,4.35-1.99.56-.1,1.05-.57,1.57-.88,1.06-.63,2.11-1.28,3.18-1.88v-2.76c-.3.38-.6.76-.9,1.14-.14.17-.35.27-.8.61.46-1.08,1.05-1.96,1.7-2.75v-3.43c-.28.12-.6.2-.79.41-.95,1.01-2.21,1.49-3.39,2.12-1.58.84-3.26,1.58-4.59,2.78-.66.6-1.62-.14-2.13.8-.41.76-1.35.82-2.1,1.04-2.44.72-4.89,1.38-7.35,2.07-.58.16-1.16.31-1.75.46-.26.07-.59.26-.77.16-1.03-.55-1.76-.16-2.43.63-.09.1-.37.03-.7.04-.56-2.19-1.25-4.36-1.65-6.58-.38-2.15-.53-4.33-1.05-6.39-.67-.1-.8.26-.81.57-.02.53-.02,1.09.15,1.57.36,1.03.42,2.08.48,3.15.05.86.22,1.73.41,2.57.25,1.11.58,2.2.85,3.31.15.64.24,1.29.37,2.03-1.28.32-2.45.56-3.58.91-1.16.36-2.31.67-3.53.67-.45,0-1.05.07-1.32.36-.63.68-1.41.67-2.19.75-2.39.25-4.79.51-7.19.69-.99.07-2-.05-3-.09-.47-.02-.94-.13-1.4-.07-2.43.31-4.81-.1-7.29-.45-.36-.98-1.11-1.59-2.34-1.71.13-.67.18-1.27.37-1.82.88-2.45,1.79-4.9,2.7-7.34.09-.25.27-.48.32-.74.42-2.47,1.76-4.62,2.43-7,.02-.06.04-.13.07-.19,1.19-2.25,2-4.67,2.92-7.04.58-1.49,1.12-2.99,1.69-4.48.19-.5.37-1,.58-1.5.95-2.21,1.95-4.4,2.83-6.64.42-1.07.97-2.05,1.61-2.99.4-.6.74-1.24,1.17-1.98.28.45.44.79.68,1.07.26.3.59.54.88.82,1.99,1.98,3.94,4,5.82,6.32-.43.14-.72.3-1.01.33-1.93.17-3.87.3-5.8.46-.6.05-1.2.11-1.79.22-.22.04-.41.25-.64.41.61.52,1.23.41,1.82.37,2.47-.17,4.94-.32,7.41-.55.83-.08,1.59-.13,2.3.38.2.14.54.24.76.18.69-.2.63.49.95.73.94-.34.93-1.14.9-2.07.74-.2,1.5-.42,2.27-.62,2.68-.68,5.07-2.08,7.63-3.07.08-.03.08-.31.1-.5-3.83,1.59-6.95,2.53-8.83,2.63-.09-.95.11-1.9.55-2.69,1.56-2.8,2.24-5.87,2.85-8.96.05-.26.15-.51.23-.76.02-.06.08-.1.2-.26.31.19.7.32.94.58,1.29,1.39,2.84,2.43,4.41,3.46,1.17.77,2.26,1.66,3.4,2.48,1.08.78,2.18,1.54,3.27,2.32.49.35.95.74,1.42,1.12.41.33.82.65,1.24.98.47-.53.46-1.03.28-1.57-.76-2.29-1.52-4.58-2.25-6.87-.21-.63-.35-1.29-.5-1.94-.44-1.96-.86-3.92-1.31-5.96.34.11.71.3,1.11.35.46.06.94,0,1.41-.02,3.67-.25,7.34-.51,11.02-.75.19-.01.41,0,.67.02v-6.63c-1.14-2.62-2.48-5.11-4.09-7.51.7-.22,1.36-.22,1.83-.79.25-.3.83-.41,1.27-.42.33-.01.65-.02.98-.03v-2.06c-.46-.02-.92-.05-1.37-.06-2-.08-4.01.12-6.02.15-1.27.01-2.54-.08-3.8-.1-1.87-.03-3.74-.07-5.61-.04-1.6.03-3.2.15-4.73.23-.25-.18-.45-.26-.57-.41-2.49-3.17-5.4-5.94-8.24-8.78-.29-.28-.72-.5-.85-.83-.32-.79-.69-1.42-1.67-1.41-.1,0-.22-.15-.3-.25-1.25-1.39-2.49-2.79-3.65-4.09-.07-.89.26-1.44.74-1.97.5.07.96.11,1.42.19.99.16,1.96.42,2.98.28.38-.05.79.08,1.19.17,2.74.59,5.55.91,8.21,1.89.69.25,1.45.28,2.16.48,1.42.38,2.82.82,4.24,1.21.71.2,1.42.38,2.14.53,4.34.85,8.68,1.66,13.02,2.53.24.05.47.13.71.19v-1.98c-4.12-.75-9.5-1.93-11.2-2.54-1.06-1.21-2.01-2.32-3-3.4-.81-.89-1.65-1.77-2.51-2.6-2.38-2.29-4.28-4.96-6.22-7.72.74-.77,1.68-1.03,2.52-1.31.17.08.25.1.28.14,2.2,2.89,4.84,5.37,7.34,7.99,1.66,1.74,3.17,3.64,4.75,5.46.65.75,1.25,1.57,2.18,2,.48-.24.33-.57.14-.83-.47-.65-.97-1.28-1.46-1.92-2.1-2.7-4.37-5.25-6.8-7.67-1.52-1.51-2.92-3.13-4.36-4.72-.26-.28-.44-.63-.64-.91.38-.64.88-.53,1.29-.34.59.27,1.01.04,1.46-.32,1.18.24,2.03.94,2.69,1.92,2.4,3.57,5.18,6.83,8.01,10.06,1.01,1.16,1.9,2.43,2.85,3.64.27.35.59.67.87.98.41-.24.37-.51.22-.74-1.29-2.03-2.47-4.14-4.04-5.99-1.78-2.09-3.45-4.27-5.16-6.42-.24-.3-.41-.65-.76-1.22,1.46.53,2.63.98,3.82,1.37,2.63.87,5.2,1.88,7.73,2.99v-3.26s-.05.06-.07.08c-.67-.13-1.25-.25-2.01-.4.29-.36.44-.65.67-.82.53-.38,1-.8,1.42-1.26v-3.31c-.38.96-.99,1.75-1.88,2.35-.89.6-1.72,1.23-2.3,2.07-1.66-.19-6.77-1.93-8.47-2.91.33-.19.58-.36.85-.48.37-.16.75-.3,1.13-.39,3.5-.84,7-1.67,10.51-2.5.04-.01.1,0,.17.02v-5.04c-.19-.14-.37-.28-.59-.39-.21-.11-.41-.26-1-.63.55.11,1.07.21,1.59.31v-2.31c-.1-.11-.17-.25-.21-.45-.04-.19-.52-.34-.82-.42-.7-.18-1.42-.32-2.32-.51.36-.53.55-.95.86-1.25.96-.91,1.75-1.94,2.49-3.02v-3.01c-1.22,1.89-2.46,3.75-4.09,5.36-1.48,1.45-2.72,3.13-4.39,4.41-.85.65-1.71,1.29-2.56,1.94-1.49,1.14-2.97,2.28-4.46,3.42-2.94,2.22-5.9,4.41-9.23,6.05-3.36,1.66-6.71,3.35-10.07,5.02-.23.12-.49.2-.78.32-.45-1-.89-1.95-1.38-3.04,12.33-8.38,24.64-16.74,36.96-25.11v-1.7c-.21.1-.42.17-.65.21-1.63.27-3.25.58-4.88.86-.43.08-.85.09-1.22-.17-.02,0-.03,0-.05.01-.04.03-.08.05-.13.08-.04.08-.08.15-.12.23,0,0-.1-.04-.15-.07.09-.05.18-.11.27-.16.03-.05.05-.1.08-.15.03.03.06.04.1.06,1.32-.34,2.65-.68,3.98-1.01.83-.21,1.67-.4,2.51-.6.09-.02.17-.04.26-.06v-1.75c-.13.04-.25.08-.38.12-.7.22-1.41.43-2.13.57-2.1.41-4.22.75-6.21,1.59-.1.04-.25-.04-.52-.09.15-1.02.29-2.06.45-3.16-.32.04-.59.08-.9.12-.05-.21-.14-.4-.13-.58.15-2.81.29-5.62.47-8.43.05-.7-.06-1.53.86-1.85.81-.28,1.21.4,1.73.77,1.7,1.21,3.18,2.67,4.54,4.25.74.86,1.48,1.73,2.22,2.59v-1.45c-2.5-3.44-5.47-6.41-9.28-8.58-3.03-1.73-6.15-3.26-9.34-4.67-.73-.32-1.49-.64-2.32-.43-.16.43.11.61.43.76,2.77,1.35,5.53,2.7,8.29,4.07.59.29,1.14.66,1.86,1.07-.27.25-.43.45-.63.56-1.06.56-2.12,1.17-3.22,1.63-1.23.51-2.52.9-3.78,1.32-.76.25-1.54.46-2.31.7-.96.29-1.95.5-2.73,1.21-.18.17-.48.23-.73.29-.24.06-.5.04-.76.06-.71-2.13-.84-4.26-.85-6.4,0-1.8.1-3.6-.11-5.4-.04-.4,0-.8,0-1.2.04-2.47.11-4.94.12-7.41,0-1.74-.18-3.48-.08-5.21.14-2.53-.21-5.08.26-7.61.07-.39.02-.8.03-1.2.07-2.61.14-5.22.21-7.82.04-1.4.07-2.81.12-4.21.01-.39.06-.79.11-1.31.38.05.69.06.99.13.72.16,1.43.35,2.15.51.32.08.68.08.98.21,1.84.78,3.67,1.55,5.64,2,1.16.26,2.24.86,3.35,1.32.6.24,1.36.24,1.59,1.05.02.08.23.18.3.15.86-.33,1.38.33,1.99.67,1.46.82,2.9,1.67,4.35,2.51.35.2.83.34,1,.64.54.98,1.5,1.31,2.36,1.8v-1.62c-2.83-1.73-5.67-3.46-8.54-5.22.76-.93.69-2.16,1.44-3.16.33.26.63.43.81.68.34.47.78.68,1.32.83,1.82.48,3.35,1.57,4.97,2.47v-1.34c-2.24-1.16-4.51-2.25-6.73-3.43-.75-.4-1.61-.66-2.06-1.52-.13-.26-.51-.42-.8-.57-1.75-.86-3.57-1.54-5.5-1.87-1-.17-1.94-.44-2.85-.92-1.13-.59-2.29-1.1-3.48-1.56-.99-.38-2.04-.62-3.19-.97-.2-1.16.05-2.41-.06-3.8.65.11,1.19.21,1.73.28.52.07,1.05.06,1.57.15.86.16,1.7.4,2.55.56,4.44.85,8.65,2.37,12.68,4.37,2.06,1.02,4.1,2.09,6.14,3.15v-2.18c-1-.56-2.01-1.07-3.06-1.54-.43-.19-.89-.34-1.26-.61-1.6-1.16-3.44-1.81-5.27-2.43-3.8-1.29-7.66-2.43-11.5-3.63-.31-.1-.62-.24-.91-.39-.92-.5-1.84-1.03-2.83-1.59-.09-1.02-.26-2.15-.28-3.28-.03-1.14-.08-2.27-.4-3.38-.3-1.05.27-2.24-.5-3.39-1.36,1.42-1.75,3.24-2.57,4.8-.84,1.58-1.55,3.23-2.34,4.89-.74-.15-1.41-.23-2.04-.41-1.93-.57-3.89-.99-5.88-1.18-1.26-.12-2.53-.06-3.8-.08-1.5.77-3.13.61-4.7.52-4.3-.26-8.56.11-12.83.43-.4.03-.82.05-1.19.19-2.1.82-4.35.7-6.61,1.1-.83-.59-1.7-1.2-2.56-1.83-.93-.69-1.24-.62-1.81.49-.24.48-.53.94-.7,1.44-.28.79-.84,1.17-1.61,1.34-.46.1-.91.33-1.36.34-1.25.03-2.32.57-3.42,1.04-4.81,2.03-9.69,3.9-14.7,5.41-1.72.52-3.41,1.16-4.93,2.04-.03.44-.05.75-.07,1-1.17.66-2.24,1.23-3.27,1.85-.32.19-.57.51-.86.76-.77.04-1.28.4-1.45,1.19.11-.05.22-.1.33-.15.48-.21.95-.43,1.16-.99.26.32.43.65.13,1.06,3.67-2.06,7.35-4.13,11.04-6.2.29.27.51.48.73.69,1.05-.91,1.06-.88,2.54-1.38,2.79-.94,5.56-1.92,8.34-2.89.44-.15.84-.41,1.27-.58,1.49-.6,2.96-1.22,4.47-1.75.6-.21,1.28-.51,1.91.01,1.12-.1,2.26-.13,3.37-.32,3.75-.64,7.5-1.32,11.25-2.01,2.38-.43,4.79-.51,7.2-.55.6-.01,1.17,0,1.77-.17.76-.21,1.57-.28,2.34.12.28.15.64.18.97.21,3.2.26,6.36.87,9.59.82,1.44-.02,2.92-.04,4.52.3-.48,1.51-1.22,2.75-1.72,4.13-.32-.01-.59,0-.85-.04-1.65-.19-3.28-.65-4.95-.14-.29.09-.66-.07-.99-.09-.93-.07-1.86-.17-2.79-.18-3.68-.03-7.32.52-11,.52-.27,0-.54.04-.8.03-4.8-.15-9.45.73-14.05,1.97-2.71.73-5.42,1.48-8.2,1.94-1.24.21-2.47.64-3.65,1.08-2.57.96-5.15,1.91-7.5,3.37-.72.45-1.46.91-2.39.98-.43.03-.85.37-1.25.6-1.27.74-2.51,1.54-3.81,2.24-1.18.63-2.38,1.23-3.63,1.69-.97.36-1.82.79-2.54,1.53-.89.91-1.84,1.74-2.96,2.39-.68.4-1.25,1.01-1.85,1.54-1,.88-1.93,1.87-3,2.66-3.35,2.47-6.36,5.33-9.43,8.12-2.04,1.86-3.72,4.03-5.23,6.33-.26.39-.58.8-.65,1.23-.23,1.64-1.32,2.76-2.33,3.9-1.73,1.96-3.49,4.24-4.68,6.46-1.51,2.83-2.95,5.71-4.51,8.52-.79,1.43-1.16,3.17-2.71,4.11-.54,1.22-1.08,2.44-1.61,3.67-.1.24-.16.51-.2.78-.34,2.49-1.38,4.73-2.43,6.97-.68,1.44-1.44,2.88-1.19,4.67-1.46.23-2.8.5-4.13.09-.06-.23-.16-.39-.12-.47.43-.84.34-1.76.5-2.64.85-4.76,2.06-9.44,4.13-13.82,1.72-3.63,3.62-7.17,5.44-10.75.09-.18.14-.44.28-.52,1.15-.68,1.25-1.95,1.74-3,.45-.96,1.02-1.88,1.63-2.75,3.87-5.55,8.14-10.79,12.51-15.96.28-.33.78-.57.66-1.15.01,0,.02-.02.03-.02-.06-.15-.07-.25.2-.16-.06.05-.13.11-.2.16,0,.02.02.04.03.07.26-.2.54-.37.77-.6.94-.94,1.88-1.89,2.79-2.86.4-.42.81-.81,1.09-1.39.26-.54.89-.96,1.45-1.29.86-.49,1.72-.87,2.25-1.84.29-.53.98-1.12,1.54-1.17,1-.09,1.23-.8,1.77-1.36,1.02-1.04,2.17-1.99,3.39-2.8,1.34-.88,2.57-1.88,3.75-2.96-.49.12-.97.23-1.46.34-.03-.12-.05-.24-.08-.36-.97.27-1.89.36-2.91.01-1.2-.4-2.48-.55-3.73-.79-.24-.04-.51.04-.86.08-.03,1.31-.36,2.52-.25,3.8.06.65.08,1.48-.26,1.94-.9,1.23-1.7,2.57-2.91,3.56-2.9,2.37-5.81,4.74-8.43,7.43-.09.09-.19.23-.31.25-.95.2-1.39,1-1.94,1.65-.91,1.07-1.8,2.16-2.65,3.28-1.49,1.97-2.94,3.97-4.42,5.98-1.24.03-2.45.52-3.75.24-.62-.14-1.12.59-.92,1.22.42,1.32.89,2.63,1.36,4.01-1.56,2.6-3.17,5.23-4.72,7.89-.88,1.5-1.66,3.06-2.47,4.59-.19.35-.27.77-.5,1.09-1.27,1.84-2.02,3.92-2.72,6.01-.87,2.6-1.73,5.21-2.57,7.82-.67,2.11-1.33,4.22-1.28,6.47,0,.31-.14.62-.24,1.04-1.61.02-3.15,0-4.67.06-1.6.06-3.25,0-4.79.38-1.48.35-3.04.03-4.91.7,2.12,1.4,4.14,2.19,6.11,3.07,2,.9,3.98,1.84,6.05,2.8-.21.8-.39,1.51-.58,2.21-.45,1.68-1,3.34-1.12,5.09-.1,1.47-.1,2.94-.15,4.41.74,1.22.5,2.59.57,3.9.05.86-.15,1.74-.12,2.6.12,3.48.27,6.95.44,10.43.04.73.1,1.49.34,2.18.68,1.93.66,3.95.91,5.93.06.51-.02,1.07-.19,1.56-.41,1.19-.92,2.35-1.36,3.53-.21.55.04,1.1.59,1.32.37.15.77.25,1.16.32.87.17,1.38.64,1.68,1.51,1.07,3.1,2.22,6.17,3.32,9.26,1.8,5.05,3.78,10.03,6.53,14.66.87,1.47,1.74,2.94,2.62,4.42.02,0,.04,0,.06,0,0-.04.02-.08.04-.12.11-.21.16-.53.52-.36.05.02.1.1.1.15,0,.41-.3.32-.54.34-.04,0-.08,0-.12-.01,0,.02-.01.04-.02.07-.01-.02-.03-.05-.04-.07h0c.43.67.86,1.34,1.24,1.94-.59,2.03-1,3.97-1.26,6.08,1.32.03,2.43.44,3.66.32.77-.08,1.57.18,2.36.28,1.19,1.07,2.62,1.83,3.64,3.12,2.24,2.83,4.58,5.59,7.17,8.13.14.14.31.3.35.47.19.8.84,1.19,1.39,1.65,2.73,2.27,5.45,4.56,8.48,6.42.78.48,1.11,1.13,1.23,1.95.06.39.02.8-.03,1.19-.16,1.13.49,1.5,1.41,1.39,1.1-.14,2.19-.42,3.37-.67,2.37,1.4,4.91,2.77,7.31,4.35,2.81,1.84,5.89,3.15,8.81,4.75,1.95,1.07,4.09,1.67,6.2,2.31,3.71,1.12,7.3,2.66,11.18,3.2.05,0,.1.08.28.25.2,1.39.11,2.92.15,4.45.04,1.6,0,3.26.38,4.79.36,1.48,0,3.05.73,4.87,1.41-2.16,2.21-4.26,3.13-6.29.93-2.05,1.9-4.09,2.82-6.09,1.19.24,2.27.34,3.27.67,1.67.54,3.4.73,5.13.9,1.06.1,2.13.02,3.2.02,1.21-.77,2.59-.46,3.9-.58.73-.06,1.47.11,2.2.13,3.75.1,7.49-.18,11.23-.49.53-.05,1.09-.07,1.58-.25,1.73-.62,3.53-.72,5.2-.82,1.81.56,3.02,1.85,4.31,2.85,1.17-.32,1.38-1.37,1.97-2.06.59-.7,1.02-1.54,1.6-2.43.84-.24,1.79-.62,2.77-.77,4.15-.64,8.02-2.13,11.82-3.81,2.21-.98,4.39-2.05,6.57-3.12v-1.79ZM186.62,224.61c.07,1.04-.73,1.21-1.25,1.48.37-.44.74-.87,1.25-1.48ZM184.21,228.78c.12-.12.34-.15,1-.41-.31.57-.38.82-.53.97-.17.16-.41.24-.63.34-.02,0-.2-.2-.17-.26.08-.23.18-.46.34-.63ZM180.93,227.66c.12-.12.32-.15.84-.36-.35.44-.41.57-.51.63-.13.08-.3.12-.45.17.04-.15.03-.35.12-.44ZM179.19,228.65s.13-.07.18-.05c.45.14.25.49.25.79,0,.15,0,.31.02.46.02.02.05.05.07.07,0,.02,0,.04,0,.06.65.26,1.31.51,2.06.81-.29.57-.77.71-1.25.85-.82-.88-.84-.91-.81-1.66-.02,0-.04-.02-.07-.03,0-.04,0-.07,0-.11-.11-.11-.23-.22-.31-.36-.16-.26-.42-.51-.14-.84ZM170.19,232.66c2.49-.91,4.85-2.16,7.37-3.31.22.39.42.72.59,1.06.29.58.57,1.17.91,1.87-.86.49-1.64,1.35-2.93,1.08-.27-.06-.63.13-.91.27-2.88,1.42-5.88,2.54-8.99,3.33-1.08.27-2.23.27-3.37.4-.46-.79-.41-1.6-.54-2.46,2.76-.77,5.37-1.33,7.86-2.24ZM159.17,235.49q1.3-.11,1.59.8c-.56.18-1.12.36-1.67.54-.38-.53.06-.92.08-1.34ZM149.2,237.41s.07-.04.11-.06c.03.02.06.03.09.04h1.14s.07-.03.11-.06c.03,0,.05,0,.08,0,.37-.55.7-.08,1.04.11h0s0,0,0,0c.12-.27.15-.65.56-.61.02-.02.03-.04.05-.05.07,0,.15.02.22.02,1.21-.28,2.42-.56,3.71-.86-.46.86-.69,1.12-1.2,1.1-.84-.04-1.67-.15-2.51-.24-.06.01-.12.03-.18.04-.03,0-.06,0-.09-.01-.19.2-.37.41-.56.61,0,0,0,0,0,0,0,0,0,0,0,0-.35-.04-.69-.07-1.04-.11-.02.02-.03.03-.04.06h-.14c-.38.26-.76.19-1.14,0h-.06s-.09.02-.14.02c-.48.28-.94.58-1.42.85-.2.11-.29.03-.67-.51.61-.67,1.4-.23,2.1-.33ZM187.27,137.21c-1.2.42-1.61-.74-2.39-.73.81.03,1.53.25,2.39.73ZM180.64,128.3c-.24-.05-.48-.08-.72-.15-.11-.03-.21-.12-.31-.18.1-.03.21-.1.31-.09.24.03.48.09.73.14,0,.09,0,.19-.01.28ZM181.86,126.83c.42.05.73.07,1.03.13.17.04.32.15.51.26q-.88.4-1.54-.39ZM184.51,121.51c-.77.29-1.21.19-1.53-.39.44.11.87.22,1.53.39ZM179.04,125.64c0-.06.02-.11.03-.16-.01-.03-.02-.05-.03-.08.02,0,.04.02.06.03.3-.25.61-.48,1.03-.79,1.79.35,3.68.73,5.56,1.1-1.48-1-3.26-1.16-4.92-1.85.58-.97,1.48-.71,2.18-.65,1.99.16,3.52,1.12,4.46,3.08-.87.7-1.8.68-2.76.32-1.63-.63-3.31-1.02-5.06-1.02-.16,0-.33-.11-.49-.19,0,0-.01.01-.02.02,0,.01,0,.02,0,.04.02.03.04.07.04.1.05.29.38.61-.07.85-.05.02-.14.02-.18-.02-.44-.37.15-.51.18-.77ZM177.16,128.88c-.44-.09-.72-.14-1.07-.21.44-.41.68-.17,1.07.21ZM175.33,129.01c.35.29.64.52.98.79-.78.43-1.51.62-2.43.26.46-.34.93-.67,1.45-1.05ZM163.65,135.41c.23.13.39.17.46.27,3.21,4.46,7.27,8.16,10.94,12.13-.23.59-.59.38-.88.35-1.26-.15-2.51-.32-3.78-.48-.08-.07-.22-.13-.28-.24-.79-1.57-1.92-2.86-3.24-4.02-1.8-1.59-3.48-3.31-5.2-4.99-.43-.42-.8-.89-1.37-1.52,1.23-.68,2.34-1.08,3.36-1.49ZM154.36,141.41c1.02.86,2.03,1.74,3.05,2.61.18.16.39.28.77.24-.4-.47-.79-.95-1.2-1.42-.39-.46-.8-.9-1.19-1.36-.44-.51-.86-1.02-1.33-1.58.47-.68,1.17-.85,1.87-1.11,1.69,1.6,3.1,3.51,5.49,4.18-.73-.75-1.48-1.5-2.2-2.26-.73-.76-1.41-1.56-2.12-2.55.58-.28.98-.46,1.42-.67,1.7,1.57,3.37,3.11,5.03,4.65,1.08,1,2.16,2,3.25,2.98.94.84.95.83,1.47,2.01-.29.31-.62.11-.92.04-3.86-.82-7.72-1.68-11.58-2.47-.83-.17-1.51-.51-2.09-1.09-.57-.56-1.17-1.11-1.7-1.71-.2-.22-.24-.58-.36-.89,1.55-.28,1.56-.29,2.34.38ZM177.99,51.69c.36.08.7.19,1.09.3q-.37.5-1.61-.23c.26-.04.4-.1.52-.08ZM168.6,46.47c1.52.41,2.81,1.14,4.26,1.98-.5-.1-.79-.09-1.01-.21-1.97-1.01-4.18-1.24-6.26-1.87-.62-.19-1.27-.32-1.73-1.07,1.73.27,3.22.76,4.74,1.17ZM164.56,48.09c.2.16.36.38.61.64.43-.17.71-.28,1.1-.44-.1.34-.18.57-.27.89-.87-.17-1.69-.33-2.52-.5.18-.91.48-1.07,1.08-.6ZM77.07,51.6c.95-.21,1.81.2,3.18.45-1.31.77-2.2,1.29-3.1,1.81-.51-.81-.28-1.51-.08-2.27ZM61.64,69.83c.59.45.73.91.32,1.4-1.77,2.14-3.55,4.27-5.33,6.4,1.31-2.84,3.19-5.28,5.01-7.8ZM145.68,239.32c.1-.02.34.21.35.33,0,.14-.19.41-.29.4-.36-.02-.72-.12-1.52-.28.77-.25,1.11-.4,1.47-.46ZM130.66,237.47c-.03-.28-.06-.46-.09-.74.87-.04,1.68.27,2.5.42.99.19,1.95.3,2.97.09,1.58-.32,3.17-.39,4.75.09.57.17,1.17.19,1.75.28.61.79.45,1.67.61,2.6-.44.12-.8.27-1.18.3-1.46.14-2.92.36-4.37.31-1.72-.05-3.47.18-5.17-.28-.97-.27-1.94-.3-2.96-.13-.95.16-1.98.36-2.95-.34-.09-1.26.76-2.18,1.06-3.36,1.14.28,2.1.51,3.09.76ZM129.3,229.18c-.33.93-.68,1.86-1.06,2.77-.05.12-.25.19-.4.27,0,.03-.02.06-.02.09-.02.02-.03.04-.05.07-.04.32-.07.65-.11,1-.42-.19-.2-.43-.14-.62.05-.14.16-.26.26-.39,0-.04.01-.08.02-.12.02-.01.04-.02.06-.03.39-1.36.59-2.79,1.63-4.38-.09.74-.07,1.06-.17,1.34ZM130.99,223.3c.17-.34.35-.67.51-1.02.13-.3.24-.6.39-.89-.21.69-.12,1.48-.91,1.91ZM134.97,209.21c-1.76,1.82-3.27,3.89-4.88,5.85-1.15,1.39-2.3,2.78-3.43,4.19-.23.29-.38.64-.65,1.11,1.15-.45,1.15-.44,2.51-1.95.67-.74,1.32-1.51,1.98-2.27.71-.81,1.41-1.61,2.12-2.41.66-.74,1.16-1.63,2.04-2.25.13.74-.25,1.2-.62,1.67-2.75,3.54-5.49,7.08-8.24,10.61-.32.41-.67.78-1.01,1.19-.15-.18-.3-.28-.29-.35.61-3.15,1.23-6.29,1.87-9.55.93-.15,1.47-.91,2.09-1.59,2.79-3.06,5.6-6.11,8.41-9.15.21-.23.46-.42,1.06-.95-.81,2.42-1.46,4.29-2.97,5.86ZM125.55,211.28c.02-.39-.01-.79.06-1.17.63-3.34,1.28-6.68,1.94-10.02.02-.1.17-.17.26-.26.08.09.24.18.24.26-.18,1.84-1.81,9.81-2.49,11.18ZM139.33,199.82c-.82.88-1.65,1.75-2.46,2.63-2.31,2.49-4.65,4.96-6.92,7.49-1.06,1.19-2,2.5-3,3.75-.39-.06-.32-.36-.27-.6.29-1.51.59-3.01.89-4.54.54-.24,1.1-.41,1.57-.72.49-.33.9-.79,1.33-1.21,2.81-2.75,5.62-5.52,8.44-8.26.41-.4.9-.73,1.48-1.2.08,1.23-.43,1.97-1.06,2.66ZM145.41,188.42c-.02.19-.03.39-.07.58-.02.06-.11.11-.17.16.02-.06.05-.12.07-.18.05-.18.1-.37.16-.55.18-.24.35-.48.53-.71.23.51-.13.61-.51.7ZM146.26,182.73c-.47,1.39-.91,2.8-1.37,4.2-.08.25-.16.51-.29.75-.44.82-.95,1.61-1.33,2.45-.35.79-.55,1.64-.81,2.46-.32.99-.99,1.71-1.77,2.38-3.78,3.23-7.25,6.76-10.67,10.36-.64.67-1.24,1.38-1.86,2.07-.12-.04-.24-.08-.36-.12.14-.78.27-1.56.42-2.34.33-1.78.7-3.55,1-5.34.16-.92.57-1.59,1.33-2.14,2.49-1.82,4.96-3.67,7.41-5.54,2.13-1.62,4.19-3.33,5.98-5.34.22-.24.49-.48.17-.91-2.54,1.48-4.6,3.6-6.92,5.37-2.33,1.78-4.56,3.69-7.02,5.49-.09-.38-.21-.58-.17-.75.97-5.2,1.75-10.44,3.27-15.31,1.29-1.13,2.46-2.11,3.59-3.14,1.93-1.76,3.78-3.61,5.76-5.31,1.47-1.26,3.09-2.34,4.71-3.56.85.73,1.07,1.69,1.37,2.63-.23.22-.4.43-.61.59-2.39,1.75-4.46,3.85-6.57,5.91-1.87,1.82-3.88,3.5-5.82,5.24-.8.71-1.62,1.4-2.39,2.14-.26.25-.41.62-.6.91.43.47.73.19.96.01,3.2-2.44,6.29-5,9.15-7.85,1.8-1.8,3.72-3.47,5.6-5.19.24-.22.52-.38.93-.67.1.38.24.63.19.83-.21.81-.72,1.55-.2,2.48.15.27-.19.9-.45,1.27-.34.48-.77.94-1.26,1.27-3.73,2.53-7.11,5.48-10.52,8.4-1.17,1-2.44,1.89-3.65,2.83-.26.2-.58.37-.45.77.27.27.52.09.72-.04,2.22-1.38,4.45-2.73,6.44-4.46,1.92-1.67,3.97-3.19,5.97-4.76.24-.19.54-.28,1.08-.54-.39,1.01-.7,1.74-.96,2.49ZM129.02,194.4c-.05,1.27-.11,2.54-.89,4.03-.14-1.7.25-2.9.89-4.03ZM123.63,157.21c.77.03,1.53-.41,2.58-.05-.48.27-.73.49-1.01.55-1.04.23-2.11.37-3.15.61-1.83.4-3.65.83-5.47,1.28-.45.11-.88.3-1.3.51-.23.11-.42.31-.63.47,3.01-.56,5.89-1.34,8.95-1.5-.74,1.32-.81,1.37-2.01,1.61-1.44.29-2.89.58-4.33.89-.96.21-1.85.55-2.89.06-.6-.28-1.43-.05-2.21-.06-.02-.54.41-.66.69-.85,2.65-1.82,5.32-3.62,7.97-5.44.62-.43,1.25-.68,2.03-.74,2.12-.15,4.24-.41,6.41-.63-.44,1.12-.72,1.42-1.73,1.69-.71.19-1.44.28-2.17.43-1.36.28-2.72.56-4.3.89.97.71,1.79.25,2.57.27ZM121.7,163.2c-.18.16-.35.31-.54.48-.21-.5.24-.48.54-.48ZM113.21,185.49c-.44.55-1.16.56-1.79.59-2.35.11-4.63.62-6.92,1.11-.71.15-1.45.22-2.18.25-.53.02-.9-.57-.58-.97.49-.62.58-1.33.72-2.05.26-1.31.5-2.63.72-3.95.06-.36,0-.75-.02-1.3-.37.34-.58.54-.9.83.1-1.86.19-3.57.29-5.38.45-.16.94-.33,1.59-.56-.09,1.23-.11,2.29-.27,3.32-.27,1.65.35,3.03,1.18,4.35.47.76,1.25,1.18,2.07,1.51.56.22,1.1.49,1.62.77.05.03-.06.33-.12.64.72.09,1.5.14,2.11-.41.59-.52,1.28-.65,1.99-.87,1.02-.32,1.99-.76,2.99-1.15.05.02.14.03.15.07.09.44.16.89.24,1.32-.87.82-1.97.59-2.95.94.02.26.04.56.06.93ZM111.59,180.05c-.32.12-.59.36-.88.56.42-.03.85-.03,1.24-.14,1.21-.35,2.41-.75,3.61-1.14.06.2.17.37.13.42-1.8,2.19-4.47,2.73-6.98,1.42-.05-.03-.07-.11-.18-.28.34-.89,1.12-1.28,2.03-1.57,1.27-.39,2.53-.84,3.78-1.3.65-.24,1.2-.57,1.04-1.47-.02-.13.55-.37,1.05-.69-.05.98-.08,1.69-.12,2.43-1.63.6-3.19,1.16-4.74,1.75ZM113.23,177.36c-.09,0-.18,0-.28,0-.01.02-.03.04-.04.06-.03,0-.05,0-.08,0-.34.49-.85.63-1.44.69.49-.62.52-.64,1.44-.69.02-.02.03-.04.05-.06.02,0,.05,0,.07,0,.05-.07.1-.14.15-.21.04.07.09.13.13.2ZM113.1,176.38c.09-.92.52-.83.9-.82,0-.02.01-.03.01-.06.03,0,.05.01.08.02.07-.07.14-.15.22-.21.04-.02.12.01.18.02-.04.08-.07.23-.12.23-.09.01-.18-.02-.28-.04-.01.01-.03.02-.04.04-.02,0-.03,0-.05,0-.08.49-.6.3-.9.82ZM115.92,170.04c-2.82,3.46-6.03,6.56-9.19,9.96-1.03-1.18-1.03-2.36-.89-3.44.14-1.09.66-2.14,1.04-3.29,3.14-1.03,6.26-2.09,9.23-4.15-.11.56-.09.79-.19.91ZM111.59,167.27c-2.21.26-4.32.86-6.42,1.57-1.01.34-2.07.53-3.1.82-1.01.29-2.07.46-3.04,1.24,1.12.39,1.93-.26,2.81-.41.92-.16,1.84-.37,2.74-.61.84-.22,1.66-.53,2.49-.77.87-.25,1.73-.63,3.02-.52-2.17,1.58-4.08,2.89-6.47,3.29-.99.16-1.98.36-2.97.47-1.8.2-3.58.47-5.29,1.1-.34.12-.73.39-1.22.02.36-.29.69-.57,1.05-.82,1.61-1.09,3.22-2.17,4.83-3.25q2.34-1.57,5.28-2.17c1.05-.21,2.1-.42,3.15-.62,2.23-.42,4.46-.83,6.69-1.24-.95,1.02-2.13,1.76-3.56,1.92ZM98.66,173.91c-1.48.72-5.55,1.72-7.9,1.91.49-.63,1.02-.91,1.65-1.02,1.96-.34,3.92-.68,5.89-1,.11-.02.24.08.36.12ZM91.45,173.55c-.31.21-.66.37-1.01.56-.04-.16-.09-.25-.07-.29,2.84-4.66,6.21-8.87,10.44-12.35.67-.55,1.4-1.04,2.09-1.56,1.44-1.09,2.87-2.19,4.31-3.29,3.15-2.39,6.33-4.72,9.93-6.44,3.02-1.44,6-2.98,9-4.48.36-.18.72-.35,1.04-.5.75.21.51.92.78,1.34.28.45.51.93.74,1.37-.09.17-.13.32-.22.39-2.58,1.79-5.16,3.59-7.76,5.36-9.75,6.63-19.51,13.25-29.27,19.87ZM89.85,158.65c.35.53.9.96.92,1.67.02,0,.04,0,.06,0,.09.06.18.12.27.18-.11-.05-.21-.09-.32-.14,0-.01,0-.02,0-.03-.12,0-.24.02-.34-.02-1.88-.83-3.76-1.66-5.62-2.49.07-.25.08-.4.15-.5,2.08-2.95,4.17-5.89,6.34-8.95.55.15,1.16.33,1.98.56-.35.36-.54.6-.77.8-1.15.96-2.06,2.14-2.76,3.42-.99,1.8-1.1,3.69.11,5.52ZM66.51,132.9c1.51,1.31,3.02,2.61,4.69,4.06-.87.11-1.33-.23-1.78-.58-3.65-2.83-7.29-5.65-10.93-8.48-.34-.27-.83-.43-.85-1,1.45,0,6.98,1,9.91,1.8.06.8.65,1.32,1.25,1.86,2.5,2.22,5.01,4.43,7.48,6.69.91.83,1.8,1.71,2.86,3.03-1.61-.61-2.8-1.03-3.96-1.52-.36-.15-.65-.45-.96-.71-2.47-2.06-4.92-4.12-7.39-6.18-1.23-1.03-2.47-2.05-3.71-3.07-.3-.25-.62-.47-1.18-.18,1.4,1.63,3.01,2.93,4.57,4.28ZM53.54,127.85c.49.45,1.03.85,1.57,1.24.6.43,1.24.8,1.83,1.22.53.38,1.02.8,1.78,1.39-1.86-.42-4.3-1.45-5.43-2.2-2.29-1.5-4.59-3-6.89-4.48-.21-.14-.47-.19-.72-.29-.28.47.05.69.27.84.93.65,1.9,1.24,2.83,1.9.39.28.97.39,1.08.98.02,0,.05.01.07.01.08.05.16.1.25.15-.1-.04-.2-.07-.3-.11,0-.02-.01-.03-.01-.05-2.11-.4-4.05-1.14-5.7-2.56-.84-.72-1.76-1.36-2.63-2.03.24-.41.52-.23.74-.19,3.61.69,7.22,1.41,10.83,2.09.8.15,1.52.43,2.17.94,2.79,2.19,5.59,4.35,8.39,6.52.26.2.49.44.68.75-1.18-.33-2.29-.8-3.29-1.51-2.34-1.66-4.69-3.32-7.05-4.96-.59-.41-1.24-.72-2.06-1.19.32.99,1.12,1.07,1.6,1.52ZM54.38,131.54c-.21.09-.32.19-.41.18-.33-.06-.66-.12-.97-.24-1.32-.53-2.63-1.08-3.89-1.76,1.69.71,3.61.77,5.27,1.83ZM52.98,181.96c-.11,0-.21-.12-.31-.18.03-.06.04-.16.08-.17.22-.03.44-.06.66-.05.04,0,.06.22.09.33-.17.03-.35.08-.52.07ZM53.54,187.18c-.54.21-.84-.03-1.07-.33-.08-.11-.1-.4-.02-.48.1-.1.42-.15.48-.08.23.26.4.58.6.89ZM49.73,181.44c-.58-.64-.87-1.52-1.2-2.37.53-.96-.28-1.57-.59-2.32-1.12-2.78-2.29-5.55-2.98-8.48-.05-.2-.1-.39-.12-.59-.05-.48.24-.95.69-1.08.57-.16,1.16-.27,1.91-.44.77,2.5,1.36,4.89,2.24,7.18.85,2.22,1.97,4.34,3.03,6.6-1.02.51-1.94.97-2.97,1.49ZM52.09,181.81c-.32.9-.56,1.58-.84,2.37-.56-.32-.71-.8-.89-1.34.31-.61.89-.79,1.73-1.03ZM46.62,162.91c-.3.09-.54.17-.88.27-.19-.65-.36-1.24-.56-1.94.57.11,1,.2,1.49.3-.02.48-.03.91-.05,1.37ZM45.19,158c-.15-.27-.19-.61-.21-.93-.03-.64-.02-1.28-.02-1.92-.01,0-.02,0-.03,0,.01-.02.02-.03.03-.05,0-.41,0-.82.01-1.23-.02-.03-.03-.05-.05-.08,0-.03,0-.05.01-.07-.41-.42-.07-.74.17-1.09h0c-.18-.08-.46-.12-.51-.24-.31-.8-.58-1.62-.82-2.45-.03-.11.18-.37.32-.41.12-.03.41.13.43.25.08.39.09.79.09,1.19,0,.61.07,1.18.48,1.65,0,0,0,0,0,0,0,0,0,0,0,0-.06.36-.11.72-.17,1.09.02.02.02.03.04.04,0,.04,0,.07,0,.11.32.41.28.82-.01,1.23v.05c.27-.02.46.08.51.39.18,1.02.36,2.04.56,3.12-.58.07-.69-.37-.84-.65ZM44.84,135.81c-.11.65-.23,1.35-.1,1.98.5,2.42.21,4.78-.38,7.14q-1.32.55-2.69.29c-.05-.23-.13-.48-.14-.74-.12-2.53-.25-5.07-.32-7.6-.02-.66.13-1.33.27-1.98.23-1.06.35-2.08.13-3.17-.19-.97-.25-1.99.39-3.04,1.43-.03,2.49.75,3.76,1.19-.02.5.01.96-.06,1.4-.27,1.51-.6,3.02-.85,4.54ZM42.79,148.14c-.67.25-.9.16-.84-.34.04-.29.17-.58.37-1.18.22.72.35,1.12.47,1.52ZM78.5,137.68c-.83-.77-1.66-1.54-2.5-2.31-.55-.49-1.15-.93-1.66-1.45-1.59-1.63-3.34-3.08-5.2-4.39-.14-.1-.24-.26-.38-.41.16-.09.28-.2.36-.19,1.64.31,3.27.64,5.01.98-.01,1.21.83,1.9,1.57,2.65,2.76,2.82,5.54,5.63,8.29,8.45.45.47.85,1,1.41,1.66-1.24.09-1.98-.41-2.65-1.02-1.43-1.31-2.83-2.65-4.25-3.97ZM70.87,127.81c.78.05,1.31.03,1.81.12,3.27.62,6.53,1.27,9.79,1.92.07.01.11.18.17.28-.1.07-.21.2-.29.18-3.6-.68-7.19-1.37-10.79-2.07-.17-.03-.31-.19-.7-.45ZM77.29,132.41c-.72-.68-1.47-1.32-2.19-1.97.14-.44.46-.3.68-.26,2.37.44,4.74.91,7.11,1.33.91.16,1.59.57,2.15,1.32,1.82,2.48,3.68,4.95,5.53,7.4,1.62,2.14,3.38,4.16,5.35,5.99.24.22.47.5.92.18-1.46-2.55-3.59-4.6-5.36-6.92-1.78-2.33-3.64-4.61-5.6-7.09.44-.07.68-.18.89-.14,5.19,1.02,10.44,1.75,15.5,3.36.25.37.46.79.76,1.12,1.73,1.86,3.47,3.72,5.23,5.56,1.95,2.04,3.64,4.28,5.23,6.67-.73.7-1.67.84-2.53,1.36-.36-.39-.67-.72-.98-1.06-1.3-1.44-2.54-2.94-3.92-4.3-2.34-2.3-4.55-4.73-6.62-7.28-.59-.73-1.22-1.42-1.88-2.09-.26-.26-.62-.42-.94-.63-.11.09-.22.19-.33.28.14.28.25.59.44.84,2.54,3.29,5.16,6.5,8.16,9.4,1.39,1.35,2.66,2.83,3.97,4.26.26.29.47.63.77,1.05-.41.23-.72.47-1.07.59-.23.08-.58-.12-.79-.02-1.23.63-2.02-.1-2.79-.85-.33-.32-.6-.72-.86-1.11-2.11-3.11-4.54-5.97-6.99-8.81-1.31-1.52-2.5-3.15-3.75-4.72-.23-.28-.36-.78-1.04-.5.1.28.17.59.32.83,1.38,2.22,2.75,4.43,4.48,6.41,1.59,1.81,3.02,3.75,4.52,5.64.2.25.35.54.5.78-.21.47-.49.25-.7.18-1.7-.6-3.39-1.23-5.09-1.84-.57-.2-1.15-.36-1.7-.6-1.54-.65-3.05-1.36-4.6-1.98-1.02-.41-1.83-1.04-2.55-1.88-3.18-3.72-6.66-7.16-10.21-10.53ZM84.33,130.69c.13-.2.19-.38.26-.38,1.27-.02,2.42.39,3.56.99-1.28-.03-2.54-.23-3.81-.62ZM121.95,141.51c.81.96,1.68,1.88,2.53,2.98-.58.54-1.15.79-1.95.93-.8-.77-1.65-1.61-2.51-2.43-.86-.82-1.84-1.48-2.96-1.92,1.23,1.66,2.9,2.91,3.97,4.68-1.17.83-1.35.84-2.16.08-2.5-2.32-5-4.63-7.5-6.95-.48-.45-.98-.89-1.16-1.54.15-.39.46-.27.69-.23,3.93.82,7.85,1.66,11.79,2.45.82.17,1.5.49,2.09,1.07.81.8,1.66,1.55,2.48,2.35.12.12.14.34.27.69-1.03-.13-1.99.13-2.81-.6-.79-.71-1.61-1.41-2.45-2.08-.23-.19-.54-.29-.81-.42-.07.44.28.67.52.94ZM111.22,140.18c2.05,1.91,4.06,3.86,6.08,5.8.28.27.5.6.83,1-1.11.68-2.22,1.08-3.45,1.53-1.12-1.39-2.21-2.81-3.39-4.15-1.24-1.4-2.57-2.71-3.86-4.06-1.23-1.3-2.47-2.6-3.7-3.9.06-.13.13-.26.19-.4,1.56.23,3.11.45,4.72.69.23.38.48.77.7,1.18.48.89,1.14,1.63,1.88,2.32ZM104.72,153.86c-.23.62-.62.83-1.27.62.25-.76.85-.47,1.27-.62ZM93.28,147.34c-.03.08-.05.17-.08.25-.28-.06-.57-.11-.85-.17.01-.07.02-.14.03-.21.3.04.6.08.89.12ZM93.53,151.48c.7-.5,1.41-.99,2.27-1.6.79-.13,1.6.36,2.47.68s1.81.45,2.69.77c.84.3,1.73.59,2.6,1.41-3.37,1.24-6.7,1.63-9.87,2.59-.71.21-1.5.52-2.3.26.16-1.94.81-3.16,2.15-4.11ZM100.19,156.1q-.56.14-1.41-.28c.63.12.99.2,1.41.28ZM98.61,157.14c-.78.06-1.54.05-2.41-.46,1.01-.23,1.71.14,2.41.46ZM94.67,157.33c1.63.4,3.25.8,4.9,1.2.23.53-.15.72-.57.72-.46,0-.92-.17-1.38-.26-1.12-.22-2.23-.44-3.62-.71.38.31.56.56.79.63,1.22.36,2.45.67,3.83,1.05-.27.33-.42.71-.65.76-1.23.27-2.41-.07-3.5-.6-1.05-.51-1.72-1.4-2.22-2.45.85-.59,1.63-.53,2.41-.34ZM94.85,162.08c.51.06,1.01.19,1.56.29.08.81-.33,1.13-1.05,1.42-.44-.55-.79-1-1.25-1.57.31-.07.54-.17.74-.15ZM124.42,125.37c.06.78.18,1.56.03,2.43-.17-.23-.41-.44-.48-.7-.17-.57-.25-1.18-.38-1.76-.48-2.22-.97-4.44-1.46-6.66-.19-.85-.44-1.67-1.24-2.25.73,2.9,1.47,5.78,1.65,8.83-1.12-.49-1.35-.71-1.54-1.59-.44-2.03-.86-4.06-1.29-6.08-.03-.13-.12-.31-.07-.39.69-.98.19-2.18.55-3.43.4.51.71.85.96,1.22,1.7,2.49,3.38,4.99,5.09,7.47.5.73.79,1.46.83,2.39.11,2.12.42,4.22.66,6.49-1.2-.62-1.65-1.52-1.86-2.58-.31-1.57-.61-3.15-.92-4.72-.06-.31-.15-.62-.29-1.16-.6.97-.31,1.75-.25,2.51ZM110.58,101.55c.61,2.33,1.24,4.64,1.87,6.96.26.95.51,1.91.76,2.87-.12.07-.25.14-.37.22-1.55-2.18-2.95-4.42-3.26-7.19-.1-.93-.2-1.86-.37-2.78-.28-1.44-.64-2.86-.94-4.3-.09-.43-.48-.84-.04-1.42.26.33.51.61.72.93,1.42,2.11,2.83,4.22,4.25,6.33.37.55.58,1.12.71,1.81.71,3.8,1.56,7.58,2.35,11.37.02.11-.07.24-.1.36-.89-.78-1.58-1.83-1.73-3.09-.31-2.61-1.07-5.09-1.9-7.57-.27-.82-.41-1.69-.62-2.53-.24-.97-.55-1.91-1.06-2.77-.58.16-.33.55-.27.79ZM106.15,115.83s0-.07,0-.1c-.08-.1-.15-.19-.22-.29.08-.04.15-.08.23-.12,0,.14,0,.27,0,.41.02.02.03.05.05.07,0,.03-.01.06-.02.08.15.21.32.42.58.77-.61-.15-.64-.45-.58-.77-.01-.02-.03-.03-.04-.05ZM102,109.02c.56-.8,1.24-.86,1.86-.98,1.68-.32,3.15.27,4.7,1.2.31.94.62,2.03,1.02,3.08.41,1.06.87,2.09,1.38,3.1.5.98,1.28,1.81,1.52,2.94-3.82-2.8-7.02-6.18-10.5-9.35ZM101.26,113.42c.32,1.09.69,2.16,1.02,3.24.11.36.18.74.29,1.17-2.3-.74-3.06-3.95-1.71-7.17,1.12.44,1.5,1.24,1.78,2.16.35,1.15.74,2.28,1.14,3.41.27.77.6,1.51,1.65,1.42.12,0,.28.25.37.42.06.09.03.24.05.46-.69.23-1.4.15-2.18.08-.74-2.01-1.47-3.99-2.2-5.98-.08.01-.15.02-.23.03,0,.26-.05.53.03.76ZM107.86,100.39s-.08.07-.12.11c0-.11,0-.22.01-.33-.02-.03-.03-.07-.05-.1,0-.02,0-.03,0-.05-.11-.04-.24-.07-.26-.14-.21-.56-.45-1.12-.58-1.71-.41-1.88-.79-3.77-1.17-5.64.83.63,1,.69,1.04,1.21.19,2.11.9,4.14.97,6.26.02,0,.04.01.05.02,0,.04,0,.09,0,.13.04.08.08.15.1.23ZM106.94,104.55c.46.43.6.98.59,1.68-1.01.1-2-.05-2.98-.16-.95-.11-1.84.01-2.75.32-2.32.79-3.26,2.61-3.72,4.81-.08.38-.07.8,0,1.19.36,1.82.57,3.7,1.61,5.32.06.1.05.25.07.39-.62.46-1.26.29-1.9.07-.56-.57-.56-1.34-.68-2.05-.14-.86-.2-1.73-.38-2.57-.14-.64-.32-1.31-.64-1.87-1.06-1.9-1.55-3.97-1.99-6.07-.07-.32-.09-.66-.07-.99.04-.88.51-1.1,1.28-.61.22.14.43.36.66.39,1.32.18,2.65.32,3.97.47.07,0,.13,0,.2,0,1.04,0,1.97-.63,3.1-.35.94.24,1.98.09,2.97.1.19,0,.39-.04.63-.06ZM100.41,119.79c-.7-.06-1.4-.12-2.1-.19.74-.32,1.42-.1,2.1.19ZM102.14,119.68c-.58.03-1.15.07-1.73.1.2-.14.4-.39.59-.38.38.02.76.18,1.14.28ZM104.41,114.6v.09c.08.09.15.17.23.26-.08.04-.15.08-.23.12,0-.13,0-.26,0-.38-.02-.02-.03-.04-.05-.06.01-.02,0-.04.02-.06-.16-.15-.35-.29-.46-.47-.08-.13-.03-.33-.04-.7.5.4.7.71.5,1.16.01.01.02.02.03.03ZM115.64,108.29c-.08-.37-.13-.75-.22-1.31.32.21.51.27.61.41.36.48.65,1.02,1.03,1.48,1.25,1.5,1.56,3.36,2.01,5.16.03.13.11.3.05.39-.62,1.08-.17,2.18-.05,3.27.11,1.06.27,2.12.39,3.18.03.24-.05.49-.09.83-.87-.6-1.22-1.36-1.4-2.24-.76-3.72-1.54-7.45-2.31-11.17ZM107.75,92.7c-.11-.16-.17-.36-.35-.77.39.18.61.25.79.37,1.23.81,2.51,1.55,3.66,2.45,3.81,2.96,7.4,6.16,10.12,10.22.93,1.39,2.01,2.67,3.05,3.98,1.12,1.42,2.19,2.86,2.99,4.51.58,1.2,1.27,2.35,1.98,3.49,2.16,3.47,3.96,7.14,5.74,10.81.2.41.33.86.54,1.43-1,.48-1.84.88-2.63,1.26-.12-.04-.19-.05-.24-.08-.06-.03-.11-.08-.15-.14-8.5-12.51-17-25.02-25.49-37.54ZM152.97,64.8c-.88.61-1.54,1.43-2.25,2.2-.68.74-1.32,1.51-1.98,2.27-.7.81-1.41,1.62-2.12,2.41-.64.71-1.11,1.6-2.28,2.35.39-.82.54-1.34.85-1.74,2.89-3.76,5.81-7.51,8.72-11.25.19-.24.43-.44.62-.62.17.12.26.14.27.19.03.13.06.27.03.39-.59,3.02-1.19,6.04-1.8,9.13-.4.23-.88.45-1.28.77-.36.29-.62.69-.94,1.04-2.76,3-5.52,6-8.29,9-.17.18-.38.33-.56.49-.13-.13-.2-.18-.2-.21.38-1.7.95-3.29,2.17-4.63,1.57-1.73,3.02-3.57,4.51-5.38,1.45-1.75,2.9-3.51,4.33-5.27.23-.29.6-.56.19-1.14ZM154.92,54.77c-.89,1.16-1.74,2.27-2.58,3.37-.79,1.03-1.28,2.28-2.4,3.06.74-2.01,1.34-4.05,2.63-5.81,1.18-1.62,2.19-3.37,3.28-5.05.28-.42.6-.82,1.04-1.42.07.44.15.62.12.77-.4,2.17-.85,4.34-1.22,6.52-.13.77-.53,1.37-.98,1.94-2.04,2.65-4.09,5.29-6.15,7.93-.28.36-.62.68-1.02.96.46-1.31,1.01-2.55,1.84-3.68,1.66-2.26,3.26-4.58,4.84-6.9.32-.47.79-.94.61-1.7ZM149.89,56.58c.58-1.54,1.19-3.07,1.96-4.55-.07.36-.06.77-.23,1.08-.71,1.27-.59,2.87-1.67,4.15-.03-.33-.12-.54-.06-.68ZM151.37,85.42c.02-1.62,1.62-9.87,2.21-11.35.35.33.24.75.17,1.11-.62,3.33-1.26,6.67-1.91,9.99-.02.1-.18.18-.28.24-.05.03-.13,0-.2,0ZM151.4,87.61c-.23,1.66-.36,2.03-1.28,3.49.22-1.51.41-2.77.79-3.97.49-.03.53.2.49.48ZM144.43,80.83c.5-.53.99-1.08,1.48-1.64.53-.61,1-1.26,1.57-1.83,1.71-1.7,3.28-3.53,4.68-5.5.06-.09.21-.12.46-.25,0,.37.06.67,0,.95-.83,4.41-1.68,8.82-2.5,13.23-.14.77-.46,1.37-1.1,1.84-1.19.87-2.36,1.77-3.54,2.64-3.13,2.31-6.27,4.59-9.04,7.34-.47.47-.93.97-1.35,1.48-.07.08.05.33.12.68,4.78-3.63,9.19-7.49,14.08-11.12.04.48.11.73.06.96-.73,3.81-1.48,7.63-2.23,11.44-.01.07-.03.13-.04.2-.23.77-.45,1.54-.68,2.31-.23.73-.26,1.5-1.17,1.92-.69.32-1.21,1.03-1.79,1.59-1.41,1.34-2.81,2.68-4.21,4.03-1.89,1.81-3.94,3.41-6.19,4.86-.76-.69-.89-1.64-1.36-2.56.77-.84,1.73-1.45,2.54-2.22.82-.79,1.65-1.57,2.47-2.36.81-.8,1.59-1.63,2.42-2.41.83-.79,1.68-1.54,2.54-2.29.86-.74,1.76-1.45,2.63-2.18.86-.73,1.79-1.41,2.33-2.43-.33-.59-.7-.29-1-.06-3.14,2.4-6.2,4.9-8.99,7.71-1.46,1.47-3.01,2.86-4.53,4.27-.24.22-.52.39-.81.6-.79-.6-.81-1.57-1.35-2.27.18-1,.74-1.72,1.5-2.31.37-.29.75-.56,1.14-.83,2.61-1.77,5.02-3.79,7.42-5.83,1.89-1.6,3.85-3.12,5.77-4.68.25-.2.47-.43.68-.62-.16-.46-.42-.44-.66-.3-1.99,1.23-4.03,2.38-5.84,3.9-2.16,1.8-4.37,3.54-6.57,5.28-.29.23-.67.35-1.23.63.39-1.05.72-1.85.99-2.66,1.09-3.23,2.26-6.44,3.68-9.55.46-1.01,1.05-1.83,1.88-2.54,3.82-3.27,7.35-6.84,10.79-10.51.68-.73,1.27-1.53,1.88-2.27-.3-.5-.63-.47-.91-.24-.57.47-1.12.96-1.64,1.47-2.78,2.71-5.54,5.44-8.33,8.15-.47.45-.9.98-1.63,1.17.03-1.08.49-1.87,1.14-2.57,1.47-1.56,2.95-3.1,4.42-4.66ZM148.34,137.16c-.32-.51-.06-.85.41-1.12.5.45.77,1.01.87,1.66-.72.4-1-.09-1.28-.54ZM149.17,153.94c-.76-.67-.59-1.42-.36-2.32q.54,1.23.36,2.32ZM148.45,140.42q.33,1.05.05,2.32c-.62-.12-1.25-.23-1.86-.37-.56-.13-1.12-.31-1.82-.51.34-.64.61-1.13.91-1.69.99.09,1.89.18,2.73.26ZM140.2,146.43c.54.04.5.45.62.73.24.57.13,1.28.63,1.75,0-.68.02-1.38.04-2.34.43.56.72.89.97,1.26.59.88,1.19,1.75,1.64,2.71-1.56.82-1.8.87-3.61.74-.12-.39-.34-.81-.39-1.25-.11-1.06-.15-2.13-.18-3.2,0-.14.2-.29.28-.41ZM139.52,135.43c-.54-.8-.55-1.62-.63-2.55.44.07.75.11,1.04.15.14,1.23.14,1.23-.41,2.4ZM142.03,145.41c.62-.17.8.27,1.09.48.32.24.61.52.9.79.29.27.57.56.87.83.28.26.57.52.86.78.56-.47-.17-.73-.04-1.08.03-.03.09-.1.1-.1.38.25.82.45,1.09.79.15.19.14.71-.01.91-.31.4-.77.69-1.24,1.09-1.89-1.15-2.57-2.92-3.62-4.49ZM143.78,144.13c-.09-.08-.07-.42.02-.52.11-.11.41-.18.53-.11.4.23.76.52,1.12.82.72.59,1.44,1.18,2.14,1.79.34.3.33.32.12,1.2-.06.01-.14.06-.18.04-1.48-.81-2.56-2.08-3.76-3.21ZM146.68,144.44c.67-.03.99-.12,1.23-.03.48.18.52.53.07.99-.32-.24-.65-.48-1.3-.95ZM146.82,139.39c-.39-.04-.77-.14-1.42-.27,1.01-.58,1.72-.66,2.37.27-.32,0-.64.04-.95,0ZM144.26,137.13c-.1.07-.4-.01-.51-.13-.11-.11-.17-.4-.1-.51.36-.52.77-1.01,1.17-1.52.29.17.47.24.6.37.12.13.19.31.33.57-.5.42-.98.84-1.49,1.21ZM142.58,136.46c-.09.04-.24-.06-.46-.12-.12-.84.14-1.63.42-2.5.73,0,1.36,0,1.77.76-.6.61-.86,1.51-1.73,1.86ZM142.1,125.14c-.22,1.11-.65,2-1.47,2.75-.44.41-.83.88-1.29,1.26-.24.19-.58.26-.98.43-.13-.52-.23-.93-.35-1.44,1.24-1.47,2.52-2.98,4-4.72-.92.18-1.21.74-1.64,1.08-.53.41-1.01.88-1.52,1.32-.46.39-.92.76-1.42,1.17-.71-.51-.78-1.24-1-1.98,1.57-1.55,3.24-3,4.33-5.46-1.86,1.44-2.98,3.08-4.76,4.11-.22-.52-.41-.98-.63-1.49.99-1.08,1.92-2.12,2.88-3.14,1.01-1.08,2.05-2.12,3.05-3.2.95-1.02,1.67-2.28,2.96-2.94.45.19.33.53.27.84-.81,3.8-1.67,7.59-2.42,11.4ZM137.8,134.04s0-.08,0-.12c-.33-.55-.66-1.09-.99-1.64-.02,0-.04,0-.07,0-.41.26-.33.63-.25,1.01.19.9.39,1.81.54,2.72.04.24-.09.5-.16.86-.92-.3-1.15-1.06-1.51-1.66q.61-1.2-.92-2.29c.55-.75,1.26-1.08,2.17-.99.05,0,.08.24.11.36,0,0,.01,0,.02,0,.02-.01.03-.02.05-.03,0,0,.01.02.02.03.48-.08.85.07.93.61.06.34.05.68.06,1.03.02.03.03.06.05.09,0,.03,0,.06,0,.09.43.48.5,1.05.47,2-.66-.81-.54-1.42-.47-2-.02-.02-.02-.04-.04-.06ZM134.44,139.5c-.44-.15-.89-.3-1.27-.55-.72-.48-1.38-1.05-2.01-1.53-.19-.85.43-1.12.9-1.59,1.04.85,2.07,1.69,3.09,2.53.29.24.34.56.16.89-.2.37-.55.36-.87.25ZM135.02,144.29c-.58-.26-.98-.44-1.39-.63.05-.08.08-.21.14-.23.24-.07.5-.13.75-.13.34,0,.37.06.5.99ZM133.58,142.51c-1.2.61-1.22.61-3.59-.01,1.46-.56,2.46-.14,3.59.01ZM129.5,133.54c-.47-2.63-1.36-5.19-1.44-8.05.88.68,1.23,1.43,1.32,2.33.2,1.91.41,3.83.63,5.94-.3-.13-.49-.16-.5-.22ZM130.95,131.38s.02.05.03.07c.08.02.16.03.24.05-.05.08-.09.15-.14.23-.04-.09-.07-.18-.11-.28-.03,0-.06-.01-.09-.02.01-.04.02-.08.03-.13-.27-.55-.39-1.13-.24-1.97.28.31.57.49.55.64-.05.45-.19.89-.31,1.33.01.03.02.05.03.08ZM130.96,138.39c.92.65,1.69,1.19,2.55,1.8q-1.28.16-2.74-.29c-.36-.5-.1-.95.19-1.51ZM132.8,135.06c-.07-.15.16-.43.39-1.01.8,1.15,1.36,1.94,2.04,2.93-1.34-.64-2.14-1.25-2.44-1.92ZM142.19,113.26c-.81.69-1.46,1.56-2.19,2.33-1.25,1.3-2.5,2.59-3.76,3.88-.37.38-.77.72-1.21,1.14-.78-1.05-1.07-2.22-1.52-3.31.14-.18.22-.38.38-.49,4.2-2.9,7.39-6.93,11.33-10.12.04-.03.12,0,.41,0-.23,1.62-.44,3.13-.66,4.66-.91.62-1.9,1.18-2.76,1.91ZM126.11,93.52c2.08.06,3.44.9,4.42,2.35.41.6.65,1.32,1.13,1.88.32.71.17,1.53-.19,2.22-.93,1.74-.81,3.88-2.17,5.64-.22-.36-.41-.56-.46-.78-.95-3.66-1.91-7.33-2.73-11.3ZM128.16,107.03c-.77-.51-.9-.86-.49-1.58.17.55.28.9.49,1.58ZM134.47,94.54c.46.62-.17.98-.31,1.48-.4-.56.05-1,.31-1.48ZM137.79,84.97c-.35,1.21-1.04,2.32-1.46,3.51-.45,1.29-1.26,2.33-2.11,3.49-.87-.31-1.55-.83-2.04-1.53-.92-1.32-2.04-2.43-3.21-3.52-1.7-1.59-3.28-3.31-5.03-5.1,3.83-1.34,8.48-1.83,11.43-1.21.11,1.38.23,2.81.38,4.61.55-1,.42-1.72.44-2.41.03-.66.09-1.32.14-2.01,1.05-.35,1.87.14,2.81.47,0,1.41-.97,2.45-1.33,3.7ZM124.44,85.62c2.39,2.03,4.78,4.07,7.15,6.13.64.56,1.2,1.21,1.88,1.9-.14.43-.31.92-.53,1.57-1.21-1-2.22-1.86-3.25-2.69-.79-.63-1.73-1.02-2.71-1.2-2.37-.43-4.9.84-6.01,3.05-.51,1.01-.85,2.1-1.26,3.16-.12.3-.21.61-.38,1.1-.55-.45-1-.81-1.42-1.15.38-1,.72-1.86,1.05-2.72.07-.19.12-.41.26-.54,1.86-1.87,2.55-4.34,3.41-6.71.27-.75.5-1.52.79-2.42.38.19.75.29,1.01.52ZM126.11,101.28c-.08.42-.17.83-.34,1.7-.02-.62-.05-.82-.03-1.01.04-.25.12-.49.18-.73.06.01.12.03.18.04ZM125.16,99.99q-.32-.57.14-1.29c.31.47.03.87-.14,1.29ZM121.78,100.67c-.28-.48-.59-.77-.62-1.1-.15-1.48.41-2.76,1.36-3.85.47-.54,1.02-1.02,1.76-1.21.58.77.59,1.55.38,2.35-.39,1.48-.79,2.97-1.2,4.45-.03.11-.17.19-.36.4-.15-.31-.4-.59-.37-.83.12-.86.34-1.71.5-2.56.12-.62.2-1.25.29-1.88-.83,1.25-.86,2.78-1.74,4.23ZM128.47,135.79q-.7-.08-1.38-1.24c.68.29,1.03.68,1.38,1.24ZM129.09,150.89c-.47.07-.94.14-1.57.24q.78-.86,1.57-.24ZM123.59,153.66c.77-.94,1.61-1.3,2.56-1.41,1.71-.2,3.41-.39,5.12-.56.09,0,.2.13.3.2-1.19.68-4.07,1.33-7.98,1.78ZM130.67,146.98c-.29-.84-.5-1.45-.73-2.11.39-.11.64-.24.9-.25.99-.03,1.98-.02,3.24-.02-1,1.15-2.06,1.71-3.41,2.39ZM132.64,154.83c.28-.23.57-.44.86-.66.01,0,.12.06.13.11.05.59-.47.66-.82.89-.04.03-.12.04-.15.01-.04-.04-.06-.11-.08-.17.02-.06.02-.15.06-.18ZM133.42,149.06c.95-.92,1.79-1.76,2.66-2.56.15-.13.52-.15.71-.05.19.1.38.4.39.62.02.31-.05.69-.22.94-.51.77-1.07,1.51-1.65,2.23-.38.47-.94.41-1.34-.11-.2-.26-.3-.58-.55-1.07ZM136.44,150.08c.08.04.16.09.24.13-.1.21-.18.42-.3.62-.01.02-.21-.07-.33-.1.13-.21.26-.43.39-.65ZM137.25,160.01c.19-.98.59-1.74,1.28-2.42.85-.84,1.66-1.72,2.47-2.57.54.08.49.47.45.77-.22,1.52-.23,1.52-1.13,2.57-.91,1.07-1.83,2.13-2.74,3.2.06.1.13.19.19.29,1.44-1.26,2.89-2.51,4.31-3.75.8.43.81,1.16,1.21,1.79-1.67,1.74-3.58,3.24-4.35,5.65.75-.73,1.48-1.49,2.25-2.19.79-.72,1.61-1.39,2.52-2.17.32.46.57.81.83,1.18-.13.23-.19.42-.32.55-1.79,1.9-3.6,3.79-5.38,5.69-.69.73-1.34,1.5-1.99,2.26-.51.61-1.06,1.17-1.74,1.49-.45-.2-.34-.5-.29-.73.8-3.87,1.65-7.73,2.41-11.61ZM137.03,172.16c.81-.69,1.46-1.56,2.2-2.34,1.29-1.35,2.59-2.7,3.91-4.04.61-.61,1.25-1.19,1.88-1.79.73.33.85.96,1.14,1.45.3.51.54,1.07.82,1.65-1.33,1.5-3.06,2.45-4.49,3.74-1.44,1.3-2.83,2.66-4.23,4-1.38,1.33-2.69,2.74-4.62,4.2.3-2.04.52-3.56.76-5.12.86-.56,1.82-1.07,2.63-1.75ZM153.71,190.69c-1.95-.16-3.23-.94-4.22-2.18-.62-.78-1.16-1.61-1.83-2.55,1.06-2.31,1.21-5.07,2.95-7.43.23.5.45.83.53,1.2.77,3.58,1.89,7.09,2.56,10.96ZM151.79,176.23c.62.25.88.75,1.06,1.4-.16.24-.34.5-.5.74-.15-.04-.23-.04-.26-.07-.4-.41-.48-.96-.3-2.06ZM161.43,186.46c-1.28,2.52-2.09,5.2-2.81,7.91-.2.77-.44,1.55-.77,2.28-.32.7-.78,1.32-1.26,2.11-1.55-.4-2.91-1.25-4.15-2.23-.94-.74-1.66-1.75-2.59-2.5-1.23-.99-1.9-2.54-3.37-3.27-.26-.72-.01-1.29.45-1.98.54.54.98,1.02,1.47,1.44.5.44,1.09.78,1.57,1.24,1.15,1.12,2.62,1.27,4.08,1.41.32.03.68-.01.98-.13,1.72-.67,3.25-1.57,4.01-3.39.52-1.23,1.07-2.45,1.22-3.81.03-.24.16-.48.24-.73,1.1.55,1.3.86.91,1.63ZM153.71,182.9c.09-.44.17-.87.26-1.3.06,0,.12.02.19.02-.05.44-.11.88-.16,1.32-.09-.01-.19-.03-.28-.04ZM155.04,183.86c-.1.5-.2.99-.34,1.74-.43-.83-.03-1.3.34-1.74ZM155.76,181.42c-.13-.08-.18-.29-.26-.44.16-.04.38-.16.47-.1.19.13.3.36.45.55.7.15,1.06.53.89,1.29-.33,1.44-.65,2.88-.96,4.31-.05.25-.07.5-.15,1.15.68-.76.69-1.36.85-1.89.17-.57.28-1.17.45-1.75.16-.56.14-1.2.65-1.63.63.8.76,1.87.41,3.15-.51,1.86-1.26,2.71-3.04,3.42-.54-.69-.5-1.47-.28-2.25.17-.65.43-1.28.55-1.93.22-1.25.37-2.51.54-3.77-.19-.03-.4-.01-.55-.1ZM172.3,191.4c-1.96-1.37-4.01-2.63-5.85-4.14-3.1-2.56-6.04-5.29-8.29-8.68-1-1.5-2.21-2.86-3.29-4.31-2.28-3.06-4.56-6.12-6.23-9.59-1.48-3.08-3.04-6.12-4.56-9.18-.21-.42-.41-.84-.63-1.3,1-.44,1.94-.87,2.88-1.29.08.02.14.02.2.04.06.03.12.07.16.12,8.48,12.47,16.96,24.93,25.43,37.4.15.22.26.45.39.68-.07.08-.14.16-.22.25ZM174.18,190.05c.03.17-.03.35-.06.63-.64-.37-.87-.88-.98-1.47-.29-1.69-.59-3.39-.86-5.09-.03-.21.07-.44.13-.66,0-.02-.02-.04-.03-.06,0-.02.02-.04.03-.07-.09-.13-.24-.32-.24-.32.35-.29.19.11.26.21.02.03,0,.07-.02.12,0,.01.02.03.03.04,0,.03-.02.06-.03.09.26.64.58,1.27.75,1.93.39,1.54.69,3.1,1.01,4.66ZM184.96,164.5s0,0,.01,0c.09,0,.19,0,.28,0-.08,0-.16,0-.24.02-.02,0-.04,0-.06,0-.15.11-.28.28-.43.31-.35.06-.73.19-1.27.02.62-.61,1.19-.3,1.71-.33ZM182.79,168.15c.92,1.63,1.74,3.32,2.59,4.99.12.24.22.49.31.74.38.99.75,1.98,1.19,3.13-.65.27-.3.76-.31,1.19,0,.16-.14.41-.27.45-.14.05-.42-.02-.53-.14-.45-.48-.85-1.01-1.48-1.77,0,.79.01,1.28.02,1.83-1.2.25-2.39.19-3.58.12-1.21-.07-2.4.02-3.59.3-1.37.34-2.77.43-4.2-.02-.09-.32-.17-.63-.29-1.07,1.12.06,2.1.15,3.09.16,3.61.04,5.14-1.94,5.93-4.63.04-.13.09-.29.04-.39-.5-1.16-.04-2.39-.24-3.55-.19-1.1-.66-2.15-1.02-3.26.16-.35.52-.44.77-.16.57.65,1.14,1.32,1.56,2.07ZM180.3,164.57c.29.01.59.03.88.04,0,.09,0,.17-.01.25-.29-.02-.59-.03-.88-.05,0-.08,0-.17.01-.25ZM176.24,165.75c.33.92.68,1.92,1.05,2.9.37,1,.76,1.99,1.15,2.98.05-1.89-.83-3.56-1.2-5.41.89.27,1.63,1.05,2.08,2.18.67,1.7.68,3.36-.4,5.07-.97-.41-1.41-1.14-1.69-2.06-.37-1.21-.8-2.41-1.21-3.61-.27-.8-.65-1.47-1.69-1.3-.06.01-.18-.31-.28-.48.97-.44.97-.43,2.19-.28ZM175.5,169.67s0-.02,0-.03c-.45-.05-.29-.44-.36-.71,0-.01.11-.07.16-.07.06,0,.15.06.15.09.03.23.04.46.05.68.01,0,.02,0,.04,0,0,.01,0,.02-.01.03.47.08.46.45.48.94-.5-.21-.74-.44-.48-.94-.01,0-.01,0-.02,0ZM169.32,167.17c.17.1.33.23.47.37,2.56,2.44,5.13,4.89,7.68,7.33.09.09.12.23.18.35-1.42,1.36-3.71,1.25-5.83-.2-1.1-2.78-2.15-5.45-3.21-8.15.28-.22.46.17.71.31ZM163.97,166.49c.85,1.12,1.48,2.19,1.63,3.49.26,2.2.85,4.32,1.57,6.41.3.88.51,1.8.73,2.71.28,1.17.58,2.32,1.21,3.43.53-.24.34-.68.26-.98-.61-2.32-1.26-4.64-1.89-6.96-.24-.88-.59-1.74-.54-3.02,1.07,1.47,2.15,2.53,2.23,4.16.01.24.12.57.3.7.66.51.71,1.26.84,1.97.12.66.23,1.32.3,1.98.22,2.07.53,4.11,1.24,6.07.08.23.07.48.16,1.13-.51-.58-.78-.83-.98-1.13-1.46-2.16-2.89-4.34-4.38-6.48-.4-.58-.48-1.2-.61-1.86-.73-3.66-1.52-7.32-2.27-10.98-.03-.16.11-.35.21-.65ZM162.01,163.81c.79,3.86,1.61,7.71,2.41,11.56.05.24.02.5.03,1.16-1.22-1.77-2.53-3-2.89-4.84-.12-.59-.36-1.15-.5-1.73-.1-.39-.26-.83-.16-1.18.55-2.01-.15-3.94-.3-5.9-.03-.44-.1-.88-.18-1.61.96.84,1.41,1.6,1.61,2.55ZM152.52,152.77c1.15.61,1.49,1.37,1.66,2.25.27,1.45.56,2.89.85,4.34.06.32.16.63.36,1.41.17-.71.3-.98.29-1.23-.07-1.12-.19-2.24-.29-3.33.45-.21.58.09.64.31.16.58.27,1.17.4,1.76.5,2.22.99,4.44,1.49,6.66.18.79.46,1.53,1.18,2.2.33-.72-.25-1.16-.33-1.67-.1-.59-.27-1.18-.41-1.76-.16-.65-.34-1.3-.47-1.95-.12-.59-.19-1.19-.26-1.79-.06-.58-.1-1.16-.16-1.97.9.57,1.39,1.09,1.56,1.95.38,1.91.81,3.8,1.22,5.7.04.2.16.46.08.58-.64,1-.3,2.16-.4,3.6-.52-.67-.82-1.02-1.08-1.4-1.66-2.44-3.3-4.89-4.99-7.31-.59-.84-.98-1.68-1-2.76-.02-1.4-.27-2.8-.39-4.19-.03-.38.02-.77.04-1.38ZM151.99,157.48c.02.1-.11.23-.18.36-.54-.51-1.01-1.08-1.11-1.83-.24-1.95-.44-3.91-.66-5.89.2.03.29.02.31.05.95,2.34,1.25,4.84,1.64,7.31ZM151.67,132.88c-.58.07-1.16.05-1.97.08.83-.77,1.62-.59,2.32-.79.16.55-.14.68-.35.71ZM153.27,131.12c-1.24.12-2.47.19-3.71.28,0,.02-.02.03-.02.05-.02-.02-.04-.02-.06-.04-.36.09-.72.2-1.09.26-.38.07-.78.11-1.18.17-.2-.51.27-.44.5-.56.62-.32,1.21-.27,1.77.13h.04s.03-.01.05-.01c.1-.2.17-.49.32-.55.61-.24,1.25-.44,1.89-.56,1.23-.24,2.48-.43,3.72-.62.17-.03.36.06.6.11-.74,1-1.76,1.24-2.82,1.35ZM166.42,122.95c-2.43,1.66-4.87,3.31-7.3,4.98-.73.51-1.47.78-2.4.82-1.86.07-3.72.35-5.58.54-.24.02-.49.01-.84.02.64-1.15,1.57-1.58,2.66-1.78,1.51-.28,3.02-.58,4.53-.88.31-.06.62-.15,1.14-.29-.94-.62-1.72-.3-2.46-.26-.76.04-1.52.34-2.36.15.34-.7.91-.68,1.42-.79,2.48-.53,4.97-1.04,7.44-1.61.71-.16,1.38-.48,2.06-.76.13-.05.2-.26.44-.61-3.03.76-5.81,1.62-8.97,1.71.43-.91.91-1.35,1.66-1.5,2.09-.44,4.19-.89,6.28-1.33.13-.03.33-.09.38-.03.88.88,2.08.06,3.19.6-.5.4-.88.75-1.3,1.04ZM178.77,111.01c2.01-.2,3.98-.5,5.88-1.21.23-.08.49-.06.76-.09.07.52-.3.62-.54.77-1.66,1.14-3.41,2.15-4.98,3.4-1.58,1.27-3.41,1.75-5.29,2.19-1.11.26-2.23.45-3.35.67-2.03.4-4.07.8-6.1,1.19-.11.02-.24-.06-.66-.18,1.34-.93,2.55-1.61,3.99-1.77,2.01-.23,3.94-.77,5.85-1.41,1.14-.38,2.31-.67,3.49-.95,1.09-.26,2.13-.63,3.07-1.3-1.83-.04-3.49.68-5.24,1-1.73.32-3.32,1.31-5.48,1.26,1.12-1,1.95-1.82,3.25-1.86.3-.01.74-.11.87-.32.46-.73,1.17-.84,1.9-.97.86-.15,1.71-.34,2.57-.43ZM166.87,106.51c.38-.33.84-.54,1.85-.56-.91.53-1.42.83-1.92,1.13-.07-.06-.14-.12-.2-.18.08.04.15.09.23.13.01-.17-.05-.44.04-.52ZM172.4,104.71c.18-.19.4-.33.71-.58.2.32.41.55.52.83.36.89.39,1.82.27,2.76-.19,1.43-.8,2.47-2.36,2.84-2.45.58-4.66,1.78-7.31,3.14.65-.88.99-1.44,1.42-1.9,2.24-2.37,4.5-4.73,6.76-7.08ZM176.54,94.37s.14.13.27.25c-.17.08-.32.17-.47.2-.06.01-.15-.1-.23-.15.14-.11.28-.22.44-.3ZM163.54,100.08c.63-.59,1.47-.53,2.24-.69,2.56-.52,5.12-.99,7.67-1.54,1.22-.26,2.48-.47,3.43-1.7.42.89.22,1.49.26,2.05.04.53,0,1.07-.05,1.6-.17,1.93-.39,3.85-.53,5.79-.04.59.1,1.19.19,1.78.06.39.19.77.33,1.35-.47.17-.76.29-1.03.38-.15-.15-.3-.24-.31-.34-.07-.64.13-1.27-.46-1.86-.5-.5-.14-1.27-.09-1.93.04-.53.2-1.11.03-1.57-.21-.61-.59-1.25-1.08-1.65-1.45-1.15-3.09-1.81-5.03-1.53-1.95.28-3.77.87-5.43,1.92q-.48-.76-.15-2.07ZM163,105.72c2.31-.55,4.39-1.42,6.44-2.36-1.86.04-3.52.94-5.22,1.34-.37-.32-.24-.56-.02-.72.65-.46,1.28-.98,2-1.31,1.68-.78,3.37-.68,5.09.32-.33,1.04-1.18,1.45-2.13,1.75-1.21.39-2.42.77-3.6,1.22-.64.25-1.39.44-1.18,1.52.08.4-.62.58-1.37.56,0-.82,0-1.54,0-2.31ZM163.55,110.57c.07.02.14.04.17.05-.03,0-.1-.02-.18-.04q-.18.57-1,.08c.45-.05.73-.07,1.01-.1ZM163.75,111.91c-.07.19-.1.36-.19.49-.11.15-.28.25-.43.38-.49-.82-.49-.83.62-.87ZM162.61,119.53c1.39-.19,2.75-.53,4.12-.82,2.54-.53,5.08-1.08,7.64-1.62.19.53-.23.61-.44.77-.37.29-.8.5-1.15.8-1.49,1.27-3.33,1.62-5.15,2.04-.25.06-.62.14-.77.01-.69-.58-1.39-.2-2.09-.12-1.65.2-3.3.4-5.33.65,1.03-1.08,1.99-1.56,3.17-1.72ZM162.41,102.35c-.15.77-.3,1.54-.51,2.59-.1-1.12.09-1.88.51-2.59-.69-.56-.43-1.26-.5-2.15.79.78-.13,1.58.5,2.15,0,0,0,0,0,0ZM161.72,96.74c.12,0,.23,0,.35,0,.04.48.08.96.12,1.44-.09.01-.18.02-.27.03-.07-.49-.13-.98-.2-1.47ZM161.49,62.14c.03-1.45,0-2.9.02-4.35.01-1.24.04-2.49.06-3.73.03-1.5.05-2.99.08-4.49,0,0,0,0,0,0,0,0,0,0,0,0,.09-1.08.17-2.15.26-3.23.07-.25.13-.51.2-.76.04.02.07.03.11.04-.1.24-.21.48-.31.72.13.21.39.42.38.61-.08.9-.12,1.82-.64,2.62h0c.15.12.45.21.45.31.04,1.41.39,2.87-.52,4.17.14.21.43.41.43.61,0,1.65.01,3.31-.13,4.95-.1,1.12-.11,2.21.08,3.31,0,0,0,0,0,0t0,0c-.29.77.14,1.71-.53,2.45-.12-.92.14-1.7.53-2.45h0c-.26-.2-.49-.38-.49-.78ZM160.35,42.78c.13-.68.2-1.39.61-2.29.42,1.88.17,3.48.03,5.05-.28,3.14-.29,6.29-.39,9.43-.13,3.81-.25,7.63-.37,11.44-.02.53.01,1.07.04,1.6.13,3.08.29,6.15.39,9.23.04,1.4-.07,2.81-.06,4.21.02,1.81.11,3.61.14,5.42.03,1.94.03,3.88.02,5.81,0,2.28-.11,4.55-.04,6.82.06,2.01.08,4.01-.1,6.01-.28,3.08.16,6.15.22,9.23,0,.27,0,.53,0,.95-1,1.03-2.05,2.14-3.13,3.22-1.8,1.8-3.61,3.59-5.42,5.38-.14.14-.25.36-.42.42-1.3.47-2.03,1.67-3.08,2.45-1.02.75-1.91,1.68-2.82,2.56-.77.75-1.56,1.03-2.57.15,0-.36.01-.81.02-1.26.07-3.97.77-7.85,1.9-11.65.21-.71.36-1.43.51-2.15.33-1.64.69-3.27,1.29-4.85.35-.93.56-1.93.75-2.92.82-4.21,1.6-8.43,2.43-12.64.21-1.04.58-2.06.87-3.08.2-.71.43-1.41.57-2.13.82-4.21,1.65-8.42,2.42-12.64.2-1.11.24-2.26.37-3.38.1-.86.21-1.73.37-2.58,1.81-9.27,3.63-18.55,5.46-27.82ZM157.5,40.34c.57-1.12,1.15-2.23,1.77-3.43-.09,3.34-.72,4.73-3.19,7.03.21-1.38.85-2.48,1.41-3.6ZM156.22,46.31c.54-.57.96-1.26,1.46-1.93.24,1.18.22,1.33-.44,3.62-1.16.61-1.18.6-1.78,1.49-.59.89-1.14,1.8-1.73,2.69-.17.26-.32.61-.76.46,0,.03,0,.06,0,.09.01.03.03.06.03.09,0,.04-.02.08-.03.12,0-.07,0-.14,0-.21-.01-.02-.02-.05-.03-.07.11-.32.23-.63.34-.94.66-1.97,1.47-3.85,2.93-5.4ZM137.22,42.51c.45-.1.82-.22,1.2-.25,1.39-.12,2.79-.33,4.18-.3,1.73.05,3.47-.15,5.18.3.98.26,1.94.31,2.97.12.95-.18,1.98-.36,3,.3-.18,1.31-.87,2.46-1.17,3.79-1.22.1-2.3-.31-3.41-.44-.59-.07-1.18-.23-1.77-.38-1.05-.26-2.09-.32-3.17-.11-1.58.31-3.17.4-4.76-.09-.56-.17-1.19-.15-1.91-.23-.59-.92-.24-1.79-.34-2.72ZM134.51,42.72c.35.02.7.12,1.47.27-.71.26-1,.42-1.32.47-.12.02-.36-.18-.4-.32-.03-.12.16-.42.24-.42ZM125.58,45.76c.43.06.85.2,1.27.31.02,0,.03-.02.05-.02.01,0,.03,0,.04.01.18-.38.5-.27.8-.24,0-.02.01-.04.02-.06.05.02.11.04.16.06.34-.04.69-.08,1.03-.12.02-.02.04-.04.06-.06.02,0,.05,0,.07.01.42-.44.75-.09,1.09.17q.44-.69,1.28-.18s0,0,0,0c.12-.64.55-1,1.15-1.13.4-.09.57.18.6.65-.57.15-1.16.31-1.75.47,0,0,0,0,0,0h0s0,0,0,0c-.45-.13-.9-.25-1.28.18-.36-.06-.73-.11-1.09-.17-.02.02-.03.02-.04.04-.03,0-.06,0-.09,0-.32.35-.67.24-1.03.12-.04,0-.08,0-.12.01-.02,0-.04,0-.06,0-.12.5-.47.35-.8.24,0,.01-.01.02-.02.03-.02,0-.05-.01-.07-.02-.9.5-1.93.46-3.03.8.93-1.13,1.02-1.2,1.76-1.11ZM121.43,45.9c-.11.54-.19.96-.27,1.38q-1.31.15-1.69-.84c.7-.19,1.27-.35,1.96-.54ZM103.17,49.44c.76-.27,1.62.05,2.39-.53.68-.5,1.57-.72,2.37-1.04.81-.32,1.62-.64,2.44-.92,1.07-.36,2.16-.69,3.24-1.04.96-.32,1.94-.41,3.19-.19.12.77.24,1.48.37,2.3-2.54.74-5.08,1.33-7.49,2.23-2.36.88-4.6,2.08-6.98,3.18-.52-1.01-.99-1.93-1.51-2.94.47-.5,1.23-.79,1.97-1.06ZM99.73,51.07c.94.44.8,1.54,1.53,2.01,0,0,0,0,0,0,0,0,0,0,0,0-.01.26,0,.51-.05.77-.02.09-.14.19-.24.24-.16.09-.34-.21-.21-.41.14-.22.33-.4.5-.6h0s0,0,0,0c-.79-.57-1.86-.47-2.73-1.24.44-.28.84-.55,1.19-.77ZM96.3,53.07c.03.2.15.46.07.55-.23.27-.55.48-.83.71q.12-.94.76-1.25ZM93.89,57.61s.04-.02.07-.04c.11-.26.22-.53.33-.79-.02-.05-.02-.08-.04-.14.04.02.07.03.11.04.17-.15.36-.29.58-.44-.15.58-.17.62-.58.44-.01.01-.03.02-.04.03,0,.02-.02.04-.03.06.15.44.09.58-.33.79-.01.03-.02.05-.03.08-.02,0-.03,0-.04,0-.04.39-.17.68-.68.58.12-.35.21-.69.68-.58,0-.01,0-.02,0-.04ZM90.44,56.56c-.4.31-.8.63-1.34,1.05,0-.98.62-1.1,1.34-1.05ZM86.71,61.36c.28-.17.53-.39.83-.52.29-.12.62-.15.94-.23.28-.07.55-.22.83-.05.01-.01.02-.02.03-.04.01-.02.02-.03.03-.05-.05-.33-.02-.61.4-.68.02-.02.03-.05.04-.07.03-.02.05-.03.08-.05.1-.28.2-.57.31-.85-.02-.04-.02-.08-.05-.13.03,0,.07.02.1.04.71-.89,1.42-1.77,2.15-2.63.22-.26.49-.31.75-.08,0,0,0-.01.01-.02,0-.01.01-.02.02-.03-.25-.57-.07-.98.5-1.26.35.36,0,.48-.1.65-.12.21-.26.4-.4.6.01.03.01.06.03.09-.02-.02-.04-.03-.06-.04-.56,1.18-1.53,1.99-2.47,2.82-.07.06-.27-.04-.44-.11-.01.02-.03.03-.04.04,0,.02-.01.03-.02.05.15.37.08.66-.31.85-.01.04-.03.07-.04.11-.03,0-.06.01-.08.02-.13.23-.27.46-.4.68,0,.05.02.09.02.14-.03-.03-.06-.03-.09-.05-.59.68-1.19,1.35-1.8,2.03-.65-.16-1.25-.21-1.54-.92.09-.43.52-.16.75-.3ZM73.52,68.8c1.33-1.12,2.67-2.23,4.03-3.32,1.67-1.34,3.4-2.6,4.81-4.25.21-.24.52-.41.92-.71.49,1.49,2.03,1.98,2.35,3.48-3.72,2.85-7.44,5.78-10.56,9.57-.63-.54-1.18-.97-1.7-1.46-.48-.45-.91-.96-1.35-1.42.22-.89.89-1.37,1.5-1.88ZM72.58,76.31c-.31.48-.69.92-1.04,1.37-.09-.08-.18-.16-.27-.23.27-.57.54-1.13.93-1.95.21.43.45.72.38.81ZM71.26,71.83c.21.63-.44.68-.6,1.25q-.27-.86.6-1.25ZM64.28,82.53c-.59.84-1.09,1.56-1.62,2.32-.29-.16-.52-.29-.86-.48.6-.89.91-1.97,2.48-1.85ZM51.83,99.43c.43-.35.76-.7.9-1.26.49-1.97,1.67-3.62,2.67-5.34.24-.42.79-.66,1.26-1.04.53-2.55,2.41-4.43,3.8-6.85.86.58,1.48.97,2.05,1.41.48.37.6.89.37,1.43-.13.3-.34.57-.51.86-2.49,4.1-4.97,8.21-7.46,12.31-.1.17-.26.3-.41.47-.99-.36-1.97-.71-3.07-1.1.14-.34.18-.71.39-.88ZM52.4,102.21c-.1.28-.25.54-.38.81-.11-.03-.23-.07-.34-.11.07-.29.13-.58.23-.85.03-.07.22-.12.32-.1.08.02.2.19.18.24ZM51.23,113.42c.02-.06.02-.14.05-.19.96-1.78,1.46-3.73,2.04-5.64.23-.77.52-1.52.86-2.24.38-.82.38-1.87,1.34-2.37.09-.05.2-.22.18-.29-.39-.95.41-1.5.76-2.17.71-1.36,1.51-2.68,2.31-4,.41-.67.67-1.45,1.53-1.79.25-.1.42-.5.55-.8.91-2.05,2.37-3.7,3.77-5.56,1.95.98,3.68,2.21,5.5,3.29,1.76,1.04,3.31,2.43,5.18,3.48.13-.35.28-.56.24-.7-.31-.97-.81-1.75-1.73-2.33-2.31-1.48-4.57-3.05-6.84-4.59-.27-.19-.52-.41-.88-.69.16-.43.23-.91.48-1.26,1.55-2.18,2.92-4.49,4.78-6.44.09-.1.14-.24.25-.32,1.97-1.46,3.26-3.48,4.7-5.41,1.9-2.53,4.29-4.6,6.91-6.39.99-.68,1.94-1.4,2.98-2.16.35.31.67.53.91.82,1.54,1.79,2.73,3.81,3.97,5.8.35.56.82,1.04,1.2,1.58.5.71,1,1.42,1.45,2.16.62,1.03,1.16,2.12,1.8,3.13.92,1.44,1.49,2.98,1.52,4.7.01.64.36.95.92,1.16.9.33,1.7-.02,2.52-.31.08-.1.18-.2.23-.31.75-1.73.71-1.87-1.08-2.32-.79-.2-1.29-.63-1.7-1.27-.9-1.41-1.83-2.81-2.76-4.2-1.74-2.62-3.51-5.23-5.24-7.86-.77-1.17-1.47-2.39-2.25-3.66,1.24-1.53,2.66-2.7,4.36-3.53.3-.14.68-.2.9-.41,1.87-1.82,4.45-2.44,6.54-3.9.36-.25.8-.41,1.14-.74.19-.18.49-.26.65-.46.48-.56,1.37.24,1.79-.59.37-.74,1.21-.76,1.88-1.02.62-.24,1.27-.43,1.92-.61,2.06-.57,4.12-1.17,6.21-1.67.92-.22,1.83-.86,2.87-.23.2.12.72-.23,1.06-.41.22-.12.39-.32.71-.59,1.51,4.46,2,8.99,2.87,13.54.46.04.89.07,1.37.11.36-.96.13-1.8-.02-2.63-.68-3.62-1.35-7.24-2.01-10.86-.02-.12.04-.25.07-.37,1.49-.43,2.96-.88,4.44-1.27.51-.14,1.06-.19,1.59-.22.87-.04,1.74-.02,2.38-.8.14-.17.48-.21.73-.24,3.06-.3,6.13-.76,9.19-.81,2.19-.03,4.4.05,6.6.14,1.27.05,2.54.24,3.8.42.45.06.89.24,1.32.43.62.27.85.33,1.79.22-.04.33-.02.66-.14.94-1.18,2.84-2.16,5.75-3.1,8.67-.22.7-.58,1.36-.83,2.05-.71,1.95-1.34,3.92-2.1,5.84-.75,1.93-1.45,3.88-2.36,5.75-.94,1.92-1.61,3.96-2.38,5.96-.46,1.17-.89,2.35-1.36,3.58-1.12,0-2.12-.34-3.24-.61-.07-.54-.19-1.06-.19-1.57-.02-4.02-.04-8.04-.03-12.06.01-3.42.06-6.83.1-10.25.02-1.74.07-3.48.1-5.22,0-.25-.03-.5-.17-.77-.48.81-.5,1.71-.52,2.59-.1,4.62-.21,9.24-.25,13.86-.04,4.22,0,8.44,0,12.66,0,.12-.07.24-.15.5-2.06.31-4.21-.17-6.31.18-2.11.35-4.22.74-6.31,1.24-2.08.5-4.12,1.16-6.45,1.83-4.31-7.61-7.79-15.59-11.61-23.47-.59.42-.14.77-.03,1.04,3.15,7.33,6.37,14.62,10.3,21.58.2.35.35.71.58,1.18-.53.54-1.25.74-1.86,1.09-.58.34-1.19.63-1.76.98-.6.37-1.28.68-1.51,1.66,1.92-1.01,3.67-1.93,5.49-2.9.4.41.74.75,1.25,1.28-.13-.62-.21-.98-.3-1.41.46-.64,1.25-.68,1.91-.92.69-.25,1.4-.45,2.12-.64.68-.18,1.34-.55,2.07-.41.18.51-.21.7-.43.84-.78.48-1.17,1.18-1.5,2.02-.88,2.24-1.88,4.43-2.79,6.66-.3.74-.49,1.53-.73,2.29-.26.82-.37,1.69-.76,2.51-.26-.13-.47-.18-.6-.31-1.41-1.46-3.09-2.56-4.79-3.63-.9-.57-1.72-1.27-2.58-1.9-1.19-.87-2.38-1.72-3.56-2.59-.48-.36-.95-.74-1.42-1.11-.41-.32-.82-.65-1.26-1-.49.5-.49.99-.32,1.51.78,2.35,1.56,4.7,2.32,7.06.18.57.31,1.16.43,1.75.44,2.23.77,4.49,1.76,6.47-.26.54-.61.38-.92.34-1.92-.27-3.84-.64-5.77-.8-1.32-.11-2.66.09-4,.15-.2,0-.4.07-.6.07-1.32,0-2.63,0-3.96,0-.21-.38.04-.65.25-.89.99-1.17,2-2.34,3.02-3.48.39-.44.83-.83,1.27-1.25-.44-.32-.72,0-.93.18-1.13.94-2.38,1.8-3.3,2.92-2.69,3.26-5.15,6.69-6.75,10.65-.76,1.88-1.07,3.85-1.32,6.17.43-.33.71-.44.76-.62.22-.7.37-1.42.55-2.14.99-4.05,3.05-7.53,5.66-10.92.35.34.73.55.85.85.35.94.66,1.9.88,2.88.39,1.72,1.01,3.33,1.89,4.85.61,1.05,1.03,2.16,1.18,3.38.13,1.05.63,2.04.57,3.21-2.32.46-4.6.85-6.96.81-1.67-.03-3.34.06-5.01.09-.67.01-1.35.08-2.01,0-1.86-.22-3.73-.11-5.59-.11-2.28,0-4.55-.02-6.82.08-2.39.11-4.8-.16-7.2-.26-.67-.03-1.34-.02-2.01-.04-3.01-.08-6.01-.15-9.02-.24-.39-.01-.77-.14-1.12-.21-.07-.19-.18-.32-.15-.42.39-1.49.79-2.97,1.19-4.45ZM96.15,119.73c-.82.06-1.45.11-2.07.16.53-.52,1.19-.72,2.07-.16ZM63.07,120.12c-.95.14-1.86.09-2.64-.52h0c-.11.16-.22.33-.34.51-2.64.14-5.29.15-7.92-.37,1.65-.08,3.29-.23,4.93,0,1.11.15,2.22.13,3.33-.13,0,0,0,0,0,0,0,0,0,0,0,0,.88.17,1.76.35,2.64.52ZM48.35,117.64c-.59-.13-.74-.48-.5-1.01.07-.16.58-1.59.67-1.7.44,1,.4,1.42-.18,2.71ZM46.08,113.4c.49-1.48.63-3.13,1.91-4.45-.11.55-.15.98-.29,1.38-.16.5-.45.96-.59,1.47-.56,2.04-1.09,4.09-1.65,6.14-.03.12-.27.18-.63.4.47-1.89.75-3.45,1.25-4.95ZM46.65,119.51s.03-.02.04-.03c.02.01.03.02.05.03.57-.15,1.12-.13,1.8.19-.75.28-1.3.19-1.8-.19,0,0-.02,0-.03,0-.02,0-.04,0-.06,0-.14.11-.27.3-.4.29-.56-.03-1.13-.12-1.67-.41.69.04,1.38.08,2.07.12ZM42.15,119.27c.28.03.56.06.85.08,0,.08,0,.16,0,.24-.29-.06-.58-.11-.87-.17,0-.05.01-.1.02-.15ZM38.6,113.94c.1.88,0,1.72-.49,2.49.16-.83.33-1.66.49-2.49ZM42.88,120.64c3.21.31,6.42.28,9.63.4,3.74.14,7.49.24,11.24.36.47.02.94-.01,1.4-.03,3.14-.13,6.28-.3,9.42-.38,1.8-.05,3.61.09,5.42.05,1.8-.03,3.61-.21,5.41-.24,1.54-.03,3.09-.07,4.61.09,2.82.3,5.62-.06,8.43-.03,1.67.02,3.34.11,5,.18,3.28.14,6.54-.04,9.79-.51.81-.12,1.43.31,1.93.87,1.77,2.01,3.53,4.02,5.27,6.05.52.61.96,1.29,1.41,1.95,1.39,2.06,2.87,4.04,4.64,5.79.52.51,1.08,1.01,1.3,1.89-.23.45-.51.97-.75,1.44-.18.02-.25.05-.31.04-3.44-.46-6.96-.59-10.28-1.61-3.14-.96-6.44-1.26-9.5-2.51-.8-.33-1.68-.45-2.54-.61-4.41-.86-8.82-1.69-13.22-2.57-.85-.17-1.66-.48-2.5-.72-.77-.22-1.53-.48-2.32-.64-4.21-.83-8.41-1.66-12.63-2.44-1.04-.19-2.12-.22-3.18-.34-.73-.08-1.47-.15-2.19-.29-9.67-1.89-19.33-3.78-28.99-5.69-.49-.1-.97-.26-1.8-.49,2.02-.38,3.69-.16,5.32,0ZM32.52,122.15c-.24,0-.47-.15-.66-.44,1.93.36,3.86.72,5.78,1.1.25.05.49.2.7.36.9.67,1.79,1.35,2.69,2.02-.03.11-.06.23-.09.34-.61-.22-1.25-.39-1.84-.66-1.15-.53-2.29-1.08-3.39-1.69-1-.56-2.02-1-3.19-1.02ZM50.88,205.63c-.2-.96.09-1.84.54-2.98.67,1.11,1.19,1.98,1.77,2.92-.82.31-1.52.32-2.31.05ZM76.78,226.28c-.09-.04-.18-.1-.27-.16-.03,0-.06.02-.1.02.01-.03,0-.05.02-.07-2.51-1.57-4.93-3.24-7.24-4.99.25-.65.65-.62,1.04-.51.18.05.34.2.5.32,1.79,1.48,3.58,2.96,5.36,4.44.23.2.47.4.35.75.02.01.03.02.05.03.01,0,.02.01.03.02.08-.02.17-.04.24-.03.07.01.12.12.18.19-.05,0-.11.01-.15,0ZM112.89,243.91c.7.1,1.39.2,2.35.35-1.04.44-1.67-.11-2.35-.35ZM113.89,243.03c-1.16-.31-2.34-.57-3.52-.82-3.95-.83-7.74-2.15-11.36-3.95-3.11-1.55-6.2-3.16-9.3-4.75-.24-.12-.57-.2-.68-.4-.53-1.01-1.53-1.14-2.46-1.48-.93-.35-1.84-.83-2.65-1.4-6.63-4.67-12.93-9.76-19-15.14-.6-.53-1.15-1.12-1.71-1.69-.33-.33-.6-.82-1-.97-1.39-.53-1.97-1.71-2.56-2.9-.21-.43-.45-.76-.91-1.01-.91-.49-1.54-1.27-1.69-2.33-.06-.45-.31-.69-.67-.92-.44-.29-.9-.59-1.22-.99-.96-1.2-1.84-2.46-2.77-3.69-.48-.64-.99-1.26-1.47-1.89-.72-.95-1.47-1.82-1.69-3.11-.16-.94-.89-1.78-1.38-2.66-.36-.64-.7-1.26-.85-2.02-.14-.7-.56-1.35-.87-2.02-.81-1.76-1.64-3.52-2.44-5.29-.57-1.29-1.11-2.58-1.64-3.89-.43-1.06-.81-2.13-1.21-3.19-.65-1.76-1.27-3.53-1.94-5.28-.6-1.57-1.11-3.15-1.1-4.86,0-.58-.26-1.17-.43-1.74-.41-1.34-.87-2.68-1.24-4.03-.25-.91-.36-1.82.12-2.74.16-.32.11-.78.07-1.16-.08-.66-.21-1.32-.36-1.97-.74-3.08-.92-6.22-.92-9.37,0-.13.06-.29.02-.4-.67-1.73-.02-3.39.21-5.08.55-4.12.8-8.26.86-12.42,0-.32.04-.63.07-1.08,1.55.36,2.93.79,4.26,1.64-.03.4-.05.86-.1,1.31-.1.8-.19,1.6-.33,2.39-.22,1.31.38,2.58.04,3.95-.32,1.26-.32,2.68-.14,3.98.42,2.99.35,6,.56,9,.01.2.05.4.04.6-.22,5.01.77,9.85,2.04,14.66.22.82.69,1.62.36,2.53-.05.14.05.39.17.51.8.85.82,1.97.99,3,.74,4.49,2.44,8.61,4.59,12.58.5.93,1.12,1.81,1.22,2.93.04.43.4.83.64,1.24.68,1.15,1.34,2.32,2.06,3.45.79,1.26,1.43,2.58,1.85,4,.27.93.77,1.68,1.45,2.36.9.9,1.74,1.84,2.39,2.96.4.68,1,1.25,1.53,1.85.88,1,1.87,1.93,2.66,3,2.43,3.3,5.25,6.26,7.98,9.29,1.9,2.1,4.12,3.82,6.46,5.39.44.3.92.65,1.42.72,1.58.21,2.65,1.27,3.72,2.24,2.04,1.85,4.22,3.48,6.64,4.78,3.36,1.8,6.76,3.53,10.13,5.32.81.43,1.74.71,2.23,1.63.14.25.53.39.82.54,1.74.88,3.56,1.55,5.49,1.87,1,.16,1.93.48,2.85.93,1.8.87,3.66,1.61,5.63,2.47.07.95.15,1.94.22,2.83-.62.88-1.35.92-2.19.7ZM57.64,189.38c-.93-.21-1.27-.76-1.68-1.22.07-.18.14-.35.21-.51,0,0,0,0,0,0,0,0-.02,0-.03,0-.08.06-.16.13-.26.14-.08.02-.19-.05-.28-.08.07-.04.14-.1.22-.1.11,0,.21.02.32.04.02-.01.03-.03.05-.04,0,.01-.01.03-.02.05.45.5.88,1.02,1.47,1.73ZM55.79,189.8c.28.18.54.38.79.61.89.81,1.76,1.63,2.64,2.45.23.21.43.44.27.77.01.01.02.02.04.03,0,.01.01.02.02.03.17-.04.36-.11.47-.05.86.49,1.57,1.15,2.19,2.07-.46.36-.85.67-1.3,1.02-.48-1.08-.92-2.06-1.36-3.05-.03,0-.06.02-.08.02.02-.03.02-.05.03-.08-.5-.41-.98-.85-1.49-1.26-1.25-.99-2.52-1.96-3.77-2.96-.12-.09-.14-.31-.3-.71.76.44,1.32.76,1.86,1.1ZM69.98,210.66c-.87-.2-1.37-.85-1.87-1.46-1.32-1.6-2.61-3.23-3.96-4.81-1.13-1.32-2.32-2.59-3.48-3.89-.3-.34-.55-.71-.91-1.18,1.45-.37,1.93-1.88,3.42-2.27.16.18.4.39.58.64,2.5,3.33,5.13,6.53,8.29,9.27.25.21.45.48.72.78-.96,1-1.87,1.95-2.81,2.92ZM71.96,212.21c-.06.07-.27.09-.35.03-.24-.19-.44-.42-.66-.64.1-.1.2-.2.3-.3.24.19.51.36.73.57.06.05.04.28-.03.34ZM56.83,193.72c-.85-.11-1.04-.7-1.3-1.36.77.43.79.42,1.3,1.36ZM74.86,210.34c.31-.13.6-.35.71-.28.48.3.9.68,1.28,1.14-.71-.05-1.39-.15-1.99-.86ZM82.06,218.25c-.06.04-.13.08-.19.12,0-.08.01-.17.02-.25.06.04.12.09.18.14,0,0,.02,0,.02-.01.6.57,1.2,1.14,1.91,1.82-.06.13-.17.4-.3.71-.78-.14-1.22-.64-1.66-1.1-.41-.43-.36-.94.07-1.39-.01-.01-.03-.02-.04-.03ZM84.32,218.46c-.2-.15-.34-.38-.67-.76.85.16,1.21.43,1.38.94-.42.3-.54-.05-.71-.18ZM86.19,219.31c1.38.61,2.43,1.54,3.63,2.23,1.22.7,2.44,1.4,3.63,2.13,1.2.73,2.36,1.52,3.56,2.25,1.19.73,2.42,1.41,3.71,2.16-.24.58-.47,1.11-.67,1.65-.18.48-.31.98-.46,1.49-.3-.06-.58-.03-.66-.14-.54-.75-1.32-.99-2.13-1.33-1.66-.7-3.22-1.62-4.79-2.52-.37-.21-.57-.7-.96-1.2-2.49-.48-4.32-2.46-6.91-3.79.78-1.12,1.38-1.98,2.05-2.93ZM101.27,230.4c.1-.04.23-.15.3-.12.39.17.77.38,1.35.67-1.35,0-1.35,0-1.65-.55ZM114.84,236.42c.36.1.8.16.81.75-1.64.25-2.97-.8-4.48-1.03-1.57-.23-2.65-1.46-3.96-1.86.23.05.64.05.99.21,2.13.95,4.41,1.32,6.64,1.93ZM114.01,234.35c.09-.24.18-.46.32-.81.46.09.9.15,1.33.28.14.04.33.28.31.4-.06.38-.35.32-.53.12-.49-.58-.91.23-1.43.02ZM116.77,200.8c-.03,1.66-.06,3.33-.09,4.99-.02,1-.04,2.01-.06,3.01-.01.54-.09,1.08-.03,1.61.34,2.53.08,5.08.09,7.61.02,2.87-.25,5.74-.38,8.61-.05,1.27-.04,2.54-.08,3.81-.02.51-.11,1.02-.18,1.65-1.82-.37-3.57-.43-5.1-1.39-.44-.28-.96-.52-1.48-.6-2-.33-3.77-1.32-5.67-1.94-.61-.2-1.36-.24-1.59-1.05-.02-.06-.23-.15-.3-.11-.62.33-1.02-.14-1.46-.39-1.57-.89-3.15-1.78-4.69-2.72-.66-.4-1.48-.64-1.77-1.54-.07-.24-.52-.38-.82-.52-2.15-1.01-3.9-2.57-5.82-3.95.21-1.36.88-2.44,1.46-3.56,1.2-2.32,2.43-4.62,3.64-6.94.15-.28.23-.6.35-.91-.47-.31-.68,0-.85.23-.28.38-.5.79-.74,1.19-1.62,2.77-3.23,5.55-4.85,8.32-.03.05-.1.08-.18.15-.53.17-1.03-.03-1.47-.35-2.28-1.63-4.81-3-6.7-5.08-1.54-1.71-3.3-3.06-5.13-4.41-2.55-1.88-4.62-4.26-6.45-6.85-.5-.71-1.04-1.39-1.55-2.1-.27-.38-.5-.78-.79-1.24.37-.35.67-.7,1.04-.97,1.78-1.31,3.57-2.61,5.38-3.88,3.24-2.27,6.49-4.52,9.74-6.76.27-.18.58-.32.89-.43.55-.19.98-.49.98-1.12,0-.95-.47-1.68-1.17-1.91-.25-.09-.52-.15-.78-.18-.96-.11-1.57.26-1.74,1.22-.1.57-.23,1-.71,1.34-.32.23-.73.54-.79.87-.21,1.25-1.27,1.63-2.09,2.27-.58.45-1.25.85-1.67,1.43-.62.84-1.4,1.42-2.24,1.98-1.56,1.04-3.1,2.12-4.66,3.16-.83.56-1.69,1.06-2.64,1.66-1.6-1.22-2.79-2.69-3.65-4.45-.17-.36-.27-.79-.54-1.05-.81-.75-1.24-1.73-1.73-2.69-.91-1.78-1.83-3.55-3.02-5.17-.27-.37-.54-.77-.42-1.29.04-.17,0-.48-.1-.53-1.15-.65-1.21-1.88-1.53-2.93-.73-2.37-1.35-4.77-2.01-7.16-.14-.52-.27-1.04-.4-1.56-.06-.26-.22-.63-.11-.77.62-.8-.08-1.51-.14-2.3,4.09-1.12,8.34-1.32,12.41-2.64-.97-.3-2.92-.49-3.8-.34-2.37.41-4.74.85-7.11,1.27h0s.01.02.02.02c-.02,0-.03-.02-.05-.02-.21,0-.41-.01-.62-.02.03-.08.05-.17.08-.25.18.09.36.18.54.26.01,0,.02,0,.03,0-.21-.29-.37-.68-.87-.63-.46.05-.91.07-1.44.11-.32-1.22-.58-2.39-.95-3.52-.36-1.09-.57-2.19-.61-3.34-.02-.6-.11-1.18-.61-1.64-.21-.2-.33-.57-.37-.88-.19-1.46-.34-2.92-.49-4.39-.11-1.07-.2-2.13-.29-3.2-.05-.6-.17-1.21-.1-1.8.4-3.39-.09-6.83.61-10.2.05-.26.06-.54.16-.78.13-.3.38-.55.51-.86.09-.22.11-.5.08-.75-.04-.29-.16-.57-.26-.92.35-.02.56-.1.73-.04,2.89,1.04,5.77,2.1,8.66,3.14,2.07.75,4.17,1.42,6.23,2.21,1.93.74,3.82,1.61,5.73,2.39,1.24.51,2.5.96,3.74,1.44,1.93.75,3.82,1.56,5.8,2.19,1.71.55,3.33,1.39,4.99,2.1.98.42,1.94.91,2.96,1.25,1.5.49,2.63,1.54,4.04,2.36-.68.91-.95,2.03-2.3,2.1-.26.01-.5.4-.74.63-1.51,1.44-2.82,3.05-3.97,4.78-.63.94-1.29,1.87-2.34,2.64-.21-.38-.44-.69-.56-1.04-.68-2.04-1.14-4.13-1.37-6.27-.09-.85,0-1.75-.51-2.54-.09.13-.21.23-.21.33-.02,2.62.12,5.23.93,7.75,1.03,3.19,2.07,6.37,3.18,9.53.85,2.42,2.22,4.57,3.73,6.63.15.2.33.37.65.71,0-.37.06-.57,0-.71-.86-1.66-1.85-3.27-2.58-4.99-.96-2.28-1.72-4.64-2.55-6.97-.04-.11.04-.26.09-.5.36.02.74,0,1.11.08.46.09.82.22,1.29-.17.36-.3.74.2.59,1.01,1.05.34,2.12.74,3.21,1.03,1.12.3,2.18.6,2.89,1.64.39.57,1.03.82,1.72.95.85.17,1.68.38,2.69.6-.72,1.46-1.97,2.32-2.72,3.56-.8,1.32-1.66,2.6-2.56,3.84-.87,1.19-1.86,2.28-2.74,3.46-.87,1.16-1.68,2.38-2.52,3.58.48.4.96.41,1.51.22,2.35-.79,4.7-1.56,7.06-2.32.63-.2,1.29-.35,1.95-.47,1.92-.33,3.83-.68,5.64-1.41.1-.04.25.03.4.05.32.27.11.61.07.91-.12.79-.21,1.6-.43,2.37-.54,1.86-.31,3.73-.01,5.57.2,1.24-.15,2.33-.13,3.76-1.4-.91-2.34-1.86-3.33-2.74-.92-.83-1.75-1.76-3-2.91.67,1.72.67,1.78,1.61,2.7,1.2,1.16,2.4,2.35,3.69,3.4.71.58,1.16,1.4,2.09,1.79.78.33,1.4,1.02,2.1,1.54.76.56,1.5,1.14,2.28,1.64,1.58,1.02,3.28,1.81,5.08,2.38.5.16,1.01.32,1.62.51-.04.44-.03.83-.12,1.2-1.37,6.02-3.02,11.95-5.32,17.69-.85,2.11-1.68,4.24-2.48,6.37-.2.52-.48,1.07-.24,1.82.22-.22.43-.32.46-.47.28-1.26.9-2.37,1.42-3.53,2.07-4.59,3.84-9.28,5.07-14.17.72-2.85,1.46-5.7,2.21-8.65.29-.04.66-.1,1.07-.16-.05-.09-.07-.23-.13-.24-4.44-1.1-8.33-3.23-11.77-6.26.32-.72,1.01-.65,1.54-.8,2.19-.62,4.39-1.18,6.58-1.81,1.09-.31,2.16-.72,3.24-1.08.62-.21,1.25-.44,2.04-.43.19,2.65.89,5.17.79,7.79-.06,1.66.06,3.34.09,5.01.01.74,0,1.47,0,2.21ZM113.16,164.59c-2.41.51-4.82,1.02-7.23,1.52-.11.02-.24-.07-.51-.16,1.14-1.09,2.37-1.93,3.72-2.54.9-.4,1.91-.55,2.88-.8.19-.05.39-.06.59-.08.77-.05,1.44.51,2.31.22.8-.27,1.71-.21,2.57-.33.79-.1,1.58-.24,2.37-.35.11-.01.23.1.37.16-.88.89-1.89,1.4-3.15,1.57-1.32.17-2.61.51-3.91.78ZM117.33,180.79c.06.53.11.91.16,1.3-.05.25-.1.51-.15.76-.04-.01-.07-.02-.11-.03.09-.25.17-.49.26-.74-.6-.29-.36-.72-.16-1.3ZM117.22,185.1c.58,1.33.18,2.32.35,3.27q-.55-1.02-.35-3.27ZM117.32,222.07c.19.23.51.29.53.72.14,2.31.03,4.61-.15,6.91-.03.43-.08.86-.12,1.28,0,.02.02.05.03.07,0,.03-.01.06-.02.08.12.41.18.83-.39,1.51.19-.73.29-1.13.39-1.51,0-.02-.01-.04-.02-.06,0-.03,0-.06.01-.1-.11-.28-.29-.56-.28-.83.05-1.79.21-3.58.22-5.38,0-.9.19-1.83-.2-2.71,0,0,0,0,0,0,0,0,0,0,0-.01.32-.76-.06-1.7.63-2.46,0,.93-.08,1.75-.63,2.46,0,0,0,0,0,0,0,0,0,0,0,0ZM118.51,244.4c-.14-.19-.27-.29-.27-.39-.02-.67-.04-1.34,0-2.01.11-1.94.26-3.87.36-5.81.07-1.54.07-3.08.12-4.62.13-4.28.28-8.56.41-12.85.02-.53-.02-1.07-.04-1.6-.15-3.41-.33-6.82-.43-10.23-.04-1.47.14-2.94.11-4.41-.03-2.07-.21-4.14-.23-6.21-.02-1.67.11-3.34.17-5.01.03-.74.06-1.47.05-2.21-.07-3.01-.34-6,0-9.02.34-3.07-.15-6.15-.19-9.23-.01-.68-.15-1.32.54-1.78.16-.11.23-.49.21-.73-.12-.96.45-1.49,1.13-1.96.11-.08.22-.16.32-.25,3.05-2.93,6.39-5.5,9.83-7.95.87-.62,1.59-1.43,2.39-2.14.49-.44,1.01-.86,1.61-1.38.67.35,1.14.59,1.55.8.07.2.16.33.14.45-.53,3.23-.66,6.52-1.47,9.71-.2.78-.42,1.55-.63,2.32-.19.71-.41,1.42-.56,2.13-.41,1.9-.72,3.81-1.48,5.62-.31.73-.42,1.55-.57,2.34-.85,4.34-1.66,8.69-2.53,13.02-.21,1.04-.59,2.05-.88,3.07-.18.64-.38,1.28-.51,1.94-.85,4.34-1.7,8.68-2.52,13.02-.16.85-.19,1.72-.28,2.59-.08.8-.11,1.61-.27,2.39-1.88,9.67-3.78,19.33-5.68,29-.09.44-.23.87-.37,1.38ZM122.72,243.15c-.56,1.21-1.14,2.42-1.8,3.59-.61,1.06-1.09,2.14-1.09,3.39,0,.17-.15.35-.45.96.42-2.3.75-4.13,1.08-5.95.04-.2.06-.42.17-.57.73-1.01,1.48-2,2.5-2.85-.13.48-.2.99-.41,1.44ZM121.63,240.92c-.46-.18-.26-.49-.22-.7.69-3.62,1.41-7.23,2.09-10.85.15-.82.47-1.51.98-2.16,2.02-2.59,4.01-5.19,6.04-7.78.22-.28.38-.7.86-.64,0-.02,0-.03,0-.05.01,0,.03,0,.04-.02,0-.1,0-.21.03-.31.01-.05.09-.09.14-.13.03.11.13.25.09.31-.04.07-.16.1-.27.13,0,.02,0,.04,0,.06-.02,0-.03,0-.05,0-.07,1.03-.6,1.86-1.17,2.66-1.65,2.35-3.3,4.69-4.96,7.04-.42.59-.77,1.22-.82,2.01.82-1.07,1.65-2.15,2.48-3.21.81-1.04,1.32-2.3,2.53-3.1-.17.46-.34.92-.5,1.39-.63,1.85-1.58,3.51-2.7,5.11-1.26,1.8-2.4,3.69-3.58,5.56-.1.15-.11.36-.15.53.3.34.54.07.65-.09.6-.8,1.15-1.64,1.73-2.45.41-.56.84-1.11,1.26-1.67,0-.04,0-.08,0-.12.04,0,.09,0,.13-.01.05-.04.11-.08.16-.12-.03.04-.06.1-.09.12-.02,0-.04,0-.06,0-.03.02-.06.05-.09.07-.01.02-.03.04-.04.06-.01,1.63-.78,3.05-1.53,4.39-.8,1.43-1.98,2.64-2.99,3.94Z"/>
  <path d="M116.29,38.12s-.1,0-.15,0c.02-.06.04-.12.06-.18.05.02.09.05.13.07-.01.03-.02.09-.04.1"/>
  <path d="M169.8,165.7s.1-.04.15-.06c.02.1.04.2.06.3-.06,0-.16.03-.16.02-.03-.09-.05-.18-.06-.27"/>
  <path d="M171.01,165.77s.06-.09.09-.14c.04.02.12.03.13.06.02.05,0,.11,0,.17-.07-.03-.15-.06-.22-.09"/>
  <path d="M145.68,130.81c.11-.03.23-.07.34-.1.03.06.06.11.09.17-.11.03-.22.07-.33.08-.03,0-.07-.1-.1-.15"/>
  <path d="M162.89,109.49c.05-.09.13-.17.2-.26.03.05.06.1.08.15-.07.08-.13.17-.2.25-.03-.05-.09-.12-.08-.15"/>
  <path d="M166.59,108.27c-.11.02-.22.05-.33.07-.04-.05-.07-.09-.11-.13.13-.03.26-.06.39-.08,0,0,.03.09.05.14"/>
  <polygon points="146.96 137.55 146.92 137.67 146.8 137.57 146.96 137.55"/>
  <path d="M147.06,134.76s-.1.08-.15.11c-.1-.05-.2-.11-.3-.16.06-.06.15-.18.18-.17.1.05.18.14.26.22"/>
  <path d="M143.47,140.28c.09-.06.19-.11.29-.16.05.15.1.29.14.44-.11.03-.27.11-.31.07-.08-.08-.09-.22-.13-.34"/>
  <path d="M153.17,178.56c.06-.07.21-.07.32-.1.01.11.07.25.02.33-.04.07-.19.07-.3.1-.02-.11-.09-.26-.05-.32"/>
  <path d="M173.71,168.1c.01.09,0,.19,0,.29.02.02.03.04.05.06,0,.04,0,.08,0,.12.06.09.11.18.17.27-.05.02-.11.04-.16.06,0-.11,0-.22,0-.33-.02-.03-.03-.06-.05-.09,0-.03,0-.06,0-.09-.08-.1-.17-.2-.24-.31,0,0,.09-.08.14-.13.04.05.1.1.11.15"/>
  <path d="M179.37,50.77c0,.08,0,.16.01.24-.06-.02-.13-.04-.17-.08-.03-.02-.02-.09-.02-.14.06,0,.12-.02.18-.03"/>
  <path d="M178.24,53.98c-.1,0-.21.01-.31,0-.02,0-.03-.08-.04-.12.11,0,.21-.01.31,0,.02,0,.03.08.04.12"/>
  <path d="M161.54,67.4c-.01.05-.02.11-.03.17-.04.02-.08.05-.11.07-.01-.06-.05-.13-.02-.16.03-.04.11-.05.17-.08"/>
  <path d="M122.76,162.08s-.09-.03-.14-.05c.04-.03.08-.06.11-.09,0,.05.02.1.03.15"/>
  <path d="M117.82,217.46s.12.07.14.12c.01.03-.05.09-.08.14-.03-.03-.08-.06-.08-.1,0-.06.02-.12.03-.17"/>
  <path d="M101.55,232.25c-.24.23-.24.05-.27-.09-.03,0-.05-.02-.08-.03-.02-.05-.04-.09-.06-.13-.09-.06-.17-.12-.26-.18.06,0,.15-.03.16-.01.04.06.06.13.09.19.04.03.08.06.12.09,0,.02.01.05.02.07.09.03.18.06.27.09"/>
  <path d="M74.31,211.66c-.08.05-.17.11-.25.16-.05-.08-.1-.15-.14-.24,0-.01.1-.1.13-.09.09.04.17.11.26.16"/>
  <path d="M54.16,183.67c-.11-.18-.17-.39-.25-.59.06,0,.13-.01.24-.02.1.13.21.28.32.44.03.05.02.11.03.17-.12,0-.31.06-.34.01"/>
  <path d="M41.22,126.96c-.06.02-.12.04-.18.04-.02,0-.04-.06-.31-.43.39.31.44.35.49.39"/>
  <path d="M110.17,118.53c-.1,0-.2.02-.3,0-.03,0-.05-.1-.07-.15.09-.04.19-.07.28-.11.03.08.06.17.09.25"/>
  <path d="M108.89,118.61c-.06.03-.12.06-.17.1-.03-.11-.08-.22-.09-.34,0-.03.1-.08.15-.11.04.12.07.24.11.36"/>
  <path d="M121.88,85.58c.03-.1.17-.17.26-.25.06.08.11.16.21.28-.12.1-.24.2-.36.3-.04-.11-.13-.24-.11-.33"/>
  <path d="M133.22,98.64c-.03.17-.07.34-.1.51-.04,0-.08,0-.11,0,.01-.17.02-.33.03-.5.06,0,.12,0,.18-.01"/>
  <path d="M131,115.37c.06-.04.11-.07.17-.11.09.16.18.32.27.48-.04.03-.08.06-.12.09-.11-.15-.21-.31-.32-.46"/>
  <path d="M116.15,172.18s-.12-.12-.11-.14c.06-.1.14-.19.21-.28.03.05.1.12.09.15-.05.1-.12.18-.18.27"/>
  <path d="M116.37,173.26s-.07.09-.1.14c-.11-.02-.22-.03-.33-.05.04-.07.09-.2.13-.2.1,0,.2.07.3.11"/>
  <polygon points="96.34 148.52 96.47 148.49 96.46 148.58 96.34 148.52"/>
  <path d="M102.41,155c-.13,0-.26.03-.39.02-.04,0-.08-.08-.15-.16.21.05.38.09.54.14"/>
  <path d="M61.44,134.31c-.06-.01-.12-.02-.17-.04-.04-.02-.06-.08-.09-.12.07,0,.15-.04.18-.02.05.04.06.12.09.18"/>
  <path d="M59.51,133.51c-.1.03-.2.07-.34.11-.08-.1-.17-.21-.26-.33.12,0,.24-.03.35,0,.1.03.17.14.26.21"/>
  <path d="M147.93,62.66c.06-.3.12-.59.18-.89.05.01.11.02.17.03-.06.3-.12.59-.18.89-.05-.01-.11-.02-.17-.03"/>
  <path d="M159.66,34.59c.06.01.11.02.17.03-.05.27-.11.53-.16.8-.06-.01-.11-.02-.17-.03.05-.27.11-.53.16-.8"/>
  <path d="M154.52,44.17s.07.01.11.02c-.02.11-.04.21-.06.31-.04,0-.08-.02-.11-.02.02-.1.04-.21.07-.31"/>
  <path d="M99.61,54.87c-.14.12-.28.23-.41.33-.07-.03-.15-.05-.15-.07,0-.11-.02-.31.03-.33.14-.06.31-.06.47-.07.02,0,.07.12.05.13"/>
  <path d="M71.05,74.65c.08.09.18.17.22.27.02.05-.08.15-.13.23-.09-.07-.24-.13-.24-.2,0-.09.1-.2.16-.3"/>
  <path d="M65.09,120.13s-.02.08-.03.13c-.11-.02-.22-.04-.33-.07,0,0,.02-.11.02-.11.11.01.22.03.33.05"/>
  <polygon points="53.52 103.19 53.56 103.01 53.63 103.12 53.52 103.19"/>
  <path d="M64.52,84.83c.04.1.09.19.13.29-.08.06-.17.12-.25.18,0-.11-.03-.23-.02-.34,0-.05.09-.08.14-.13"/>
  <path d="M50.56,101.83c.02.12.03.24.05.36-.08.03-.17.06-.25.1.02-.12.02-.25.05-.37.01-.04.1-.06.15-.09"/>
  <polygon points="48.7 106.95 48.72 107.1 48.62 107.1 48.7 106.95"/>
  <path d="M46.68,118.16s-.05.1-.07.1c-.05,0-.1-.04-.15-.06.02-.04.04-.08.07-.12.05.03.1.05.15.08"/>
  <polygon points="37.17 125.34 37.02 125.37 37.04 125.26 37.17 125.34"/>
  <path d="M117.09,240.13c0-.11-.01-.23,0-.34,0-.02.08-.03.12-.05,0,.11.01.23,0,.34,0,.02-.08.03-.12.05"/>
  <path d="M139.16,149.26s.04.1.05.15c-.03.04-.05.09-.08.13-.03-.07-.07-.14-.09-.22,0,0,.08-.04.12-.06"/>
  <polygon points="124.59 241.66 124.57 241.5 124.68 241.53 124.59 241.66"/>
  <path d="M118.7,275.87c-.94-1.3-2-2.52-3.12-3.66-1.03-1.03-1.39-2.23-1.49-3.58.28-.34.53-.64.79-.94.04-.05.11-.08.3-.21.39.24.9.44,1.26.8.65.66,1.28,1.37,1.23,2.43-.01.18.27.5.46.55.21.05.59-.08.69-.26.53-.92,1-1.87,1.46-2.83.06-.12-.11-.35-.2-.64-.58.44-.96.73-1.4,1.06-.32-.4-.54-.74-.82-1.01-.43-.42-.84-.91-1.36-1.17-2.25-1.14-4.84-.82-5.23,2.64-.11.99.1,1.87.84,2.56,1.13,1.05,2.25,2.09,3.4,3.11,1.15,1.03,1.72,2.33,1.88,3.83.03.32-.04.68-.18.97-.49.98-3.02,1.98-4.06,1.62-.19-.06-.38-.15-.54-.26-.93-.67-1.8-1.42-2.34-2.45-.56-1.07-1.01-2.19-.25-3.4.08-.13-.09-.56-.24-.64-.18-.09-.57-.04-.72.1-1.14,1.05-2,2.27-2.06,4.1.45-.42.8-.74,1.23-1.14.3.7.48,1.27.78,1.77.3.51.71.97,1.07,1.45.08.11.22.22.22.33.02,1.09.9,1.38,1.64,1.81.63.38,1.28.73,1.89,1.14,2.72,1.82,6.27-.36,6.39-3.22.08-1.84-.48-3.45-1.52-4.88"/>
  <path d="M161.51,16.11c-.2-.36-.38-.67-.63-1.13,1.3-1.58,1.81-3.61,2.46-5.58.18-.53.37-1.08.8-1.52.13.21.24.31.26.43.47,2.29.93,4.59,1.38,6.88.16.79.32,1.58,1.19,2.07.58-.21,1.2-.43,1.81-.68.5-.2.68-.63.68-1.13,0-.33-.04-.68-.16-.98-.38-1.04-.11-1.97.44-2.86,1.2-1.94,2.33-3.92,3.59-5.81.78-1.16,1.73-2.22,2.63-3.29.73-.87,1.65-1.33,2.83-1.24.55.04,1.1,0,1.75,0-.99-1.35-2.07-1.56-4.16-.94-.08.52-.19.97-.71,1.32-1.74,1.19-3.07,2.78-4.2,4.55-.72,1.13-1.45,2.25-2.21,3.36-.2.29-.3.74-1.02.75-.6-3.03-1.62-5.98-2.87-8.9-.57-.05-1.14-.11-1.73-.16-.5.76-.38,1.49-.13,2.19.39,1.09.19,2.09-.24,3.11-.75,1.79-1.45,3.61-2.2,5.4-.23.55-.57,1.06-.86,1.59-.43.79-1.05,1.36-1.95,1.59-.08.02-.11.22-.16.33,1.04.88,1.31.94,3.38.66"/>
  <path d="M20.16,110.52c-.54.37-1.16.73-1.71,1.19-.56.47-1.01,1.06-1.56,1.54-1.51,1.36-2.78,2.89-3.68,4.73-.16.32-.41.59-.67.95-.53-1.39-.99-2.64-1.47-3.88-.14-.36.04-.62.18-.93.09-.19.07-.57-.06-.7-.81-.78-2.36-.54-2.92.42-.56.96-1.59,2-2.53,2.57-.38-1.34-.75-2.68-1.17-4-.11-.36-.32-.82-.62-.97-1.2-.63-2.48-.75-3.95-.3.5.83,1.16,1.28,1.74,1.95.35,2,.72,4.11,1.1,6.21.06.33.16.65.2.98.08.64.42,1.09.96,1.5.24-.13.54-.19.68-.38.5-.62,1.01-1.21,1.3-2,.53-1.44,1.21-2.82,2.59-3.85.52,1.23.98,2.39,1.51,3.52.52,1.12.52,2.49,1.56,3.47.37-.13.82-.17,1.09-.42.33-.3.57-.74.72-1.17.9-2.5,2.25-4.69,4.14-6.57,2.62-2.61,2.59-2.64,6.29-2.65.27,0,.55-.12.98-.23-1.57-.88-3.07-1.08-4.7-1.02"/>
  <path d="M136.83,32.43c1.04-.36,1.59-1.16,1.89-2.33-.21-.21-.42-.64-.72-.7-1.31-.3-2.39.46-2.66,1.75-.18.87.64,1.58,1.49,1.28"/>
  <path d="M62.39,65.27c.5-.29.95-.68,1.38-.99-.51-2.12-.74-2.3-2.36-1.9-.1.68-.25,1.4-.29,2.12-.04.65.7,1.09,1.28.77"/>
  <path d="M37.77,183.12c-.7-.15-1.71.45-1.89,1.13-.17.67.34,1.39,1.13,1.6.79.21,1.39-.07,1.59-.76.25-.86-.16-1.82-.84-1.97"/>
  <path d="M95.44,40.13c.53.11,1.03-.33,1.2-1.07.16-.71-.13-1.36-.65-1.46-.84-.15-1.85.39-1.91,1.02-.06.57.65,1.35,1.37,1.5"/>
  <path d="M30.37,146.99c-.48-.53-1.37-.51-1.7.11-.2.39-.35.89-.29,1.31.06.53.43.95,1.13,1.14.25-.17.61-.35.88-.62.59-.58.57-1.29-.02-1.94"/>
  <path d="M38.4,96.87c.76.14,1.29-.15,1.41-.74.16-.86-.38-1.72-1.15-1.8-.66-.07-1.19.41-1.35,1.19-.15.73.23,1.2,1.09,1.35"/>
  <path d="M183.28,41.66c.32.17.75.25,1.1.19.62-.11.71-.73.84-1.22.16-.57-.36-1.29-1.02-1.48-.44-.13-.9.24-1.08.89-.02.07-.03.14-.04.16,0-.02,0-.03.01-.05-.01.06-.02.07-.01.05-.18.7-.3,1.19.19,1.46"/>
  <path d="M62.94,221.27c-.23,0-.51.16-.66.34-.37.42-.28.99.16,1.63.29.42.71.68,1.18.52.33-.12.57-.47.76-.64.18-1.07-.51-1.88-1.44-1.85"/>
  <path d="M143.88,251.2c-.83-.11-1.71.37-1.72.93-.02.68.45,1.26,1.13,1.4.66.13,1.26-.36,1.34-1.1.07-.58-.29-1.17-.75-1.23"/>
  <path d="M96.29,243.06c-.43-.24-.85-.1-1.34.46-.13.15-.26.3-.36.47-.3.48-.08,1.06.47,1.27.12.05.25.08.3.09.14.03.2.04.26.05.64.08,1.09-.15,1.28-.65.24-.64-.02-1.35-.62-1.69"/>
  <path d="M185.17,243.84c-.27.03-.42.01-.53.06-.5.21-1.08.41-1.13,1.01-.07.74.71.66,1.12.92.21.14.45.22.76.36.44-.86.39-1.57-.21-2.35"/>
  <path d="M172.82,73.32c1.61-4.02,2.96-8.15,4.92-12.04.18-.35.28-.74.35-1.13.03-.15-.13-.33-.22-.52-2.25,2.96-6.32,13.21-6.96,17.78.86-1.55,1.4-2.81,1.91-4.08"/>
  <path d="M184.7,81.78c-.98.04-1.23.56-1.39,1.03-.49,1.47-1.36,2.74-2.15,4.05-.27.46-.49.95-.76,1.4-.45.76-.62,1.53-.11,2.41,1.77-2.77,3.4-5.55,4.41-8.9"/>
  <path d="M170.24,79.24c.02-.06.01-.12.02-.19-.03.05-.08.09-.1.14-.02.06-.01.12-.02.19.03-.05.08-.09.1-.14"/>
  <path d="M71.44,145.38c.17-.1.26-.43.27-.66,0-.14-.21-.36-.37-.4-.24-.06-.53-.03-.78.01-1.25.21-2.5.48-3.75.65-.85.12-1.72.17-2.59.17-1.6,0-3.21-.05-4.81-.11-2.07-.07-4.13-.2-6.2-.24-1.26-.02-2.53.06-3.8.14-.33.02-.63.22-.6.66.39.48.94.39,1.46.38.8-.02,1.62-.16,2.4-.05,2.66.37,5.34.32,8,.21,3.27-.14,6.53-.35,9.8-.55.33-.02.69-.07.96-.23"/>
  <path d="M78.26,203.29c-.35.3-.63.69-.9,1.07-.09.14-.05.37-.11,1.05,2.47-2.24,4.68-4.06,6.59-6.2,2.32-2.59,4.51-5.31,7.14-7.62.1-.09.11-.29.3-.88-1.42,1.29-2.52,2.26-3.58,3.27-3.19,3.06-6.06,6.44-9.45,9.31"/>
  <path d="M58.58,178.04c.85.62,1.47.37,2.1.13,1.19-.44,2.39-.87,3.57-1.33,3.12-1.21,6.18-2.56,9.04-4.32.24-.15.47-.33.75-.53-.2-.1-.27-.17-.3-.15-5,2.04-9.99,4.08-15.17,6.2"/>
  <path d="M66.76,161.16c.22.1.4.26.56.24,2.86-.26,5.72-.54,8.58-.84.15-.01.27-.2.41-.33-3.07-.45-6.08.12-9.11.48-.14.02-.26.26-.44.45"/>
  <path d="M76.34,160.2s-.02.02-.03.03c.02,0,.05,0,.07,0,.03,0,.06,0,.09,0-.04-.01-.08-.02-.13-.03h0Z"/>
  <path d="M94.54,202.27c.6.39.83.42,1.1-.03.71-1.2,1.41-2.41,2.03-3.66.35-.7.78-1.41.71-2.27-1.17,1.03-2.7,3.42-3.84,5.96"/>
  <path d="M77.41,160.25c-.31,0-.63,0-.94,0,.31.08.61.16.92.24,0-.08.02-.15.03-.23"/>
  <path d="M74.83,171.39s.07.09.11.14c.12-.02.24-.02.34-.08.03-.02-.02-.18-.03-.27-.14.07-.28.14-.42.21"/>
  <path d="M58.54,102.19c.53.91,1.33,1.28,2.07,1.67,1.89,1,3.83,1.89,5.72,2.89,3.9,2.08,8.08,3.38,12.33,4.5-.07-.16-.12-.36-.24-.42-.79-.37-1.59-.7-2.39-1.02-2.6-1.05-5.24-2.02-7.79-3.17-2.62-1.18-5.14-2.55-7.72-3.81-.56-.27-1.09-.75-1.97-.64"/>
  <path d="M85.84,85.64c1.39,1.59,2.88,3.1,4.68,4.31-3.74-4.41-7.08-9.18-11.41-13.09-.12-.11-.34-.13-.59-.22-.03.25-.12.46-.05.59.15.29.35.57.58.8,2.44,2.38,4.55,5.05,6.79,7.61"/>
  <path d="M123.64,76.91c.01-.43.08-.86.02-1.28-.37-2.63-.77-5.25-1.18-7.87-.02-.12-.25-.21-.39-.32-.54.72-.35,1.47-.23,2.17.44,2.45.47,5.01,1.78,7.31"/>
  <path d="M87.04,102.21s0,.05,0,.07l.05-.04s-.03-.02-.05-.03"/>
  <path d="M83.64,99.08c-.72-.59-1.42-1.22-2.19-1.72-.54-.36-1.19-.57-1.8-.78-.22-.08-.54-.06-.6.38.09.11.19.29.33.39,1.09.76,2.22,1.45,3.27,2.26,1.36,1.05,2.82,1.92,4.39,2.6,0-.11,0-.24-.06-.29-1.11-.95-2.22-1.9-3.35-2.83"/>
  <path d="M78.76,111.29c.53.48,1.2.66,1.85.91-.48-.59-1.05-.99-1.85-.91"/>
  <path d="M78.76,111.29s-.03-.02-.04-.03h0s-.05-.01-.07-.02c0,.02.02.04.02.05.03,0,.06,0,.09,0"/>
  <path d="M117.86,86.71c-.07-.1-.17-.19-.26-.28-.04.04-.11.1-.1.12.06.11.13.22.2.33.05-.06.16-.15.15-.17"/>
  <path d="M87.05,102.27c.06.02.11.04.17.06-.04-.03-.08-.07-.11-.1,0,0-.05.04-.05.04"/>
  <path d="M87.45,102.55s.08-.05.12-.08c-.12-.05-.24-.09-.35-.13.08.07.15.15.23.22"/>
  <path d="M92.6,92.02s-.08-.11-.12-.12c-.05-.02-.11.02-.17.03.04.04.08.09.12.13.06-.01.11-.02.17-.04"/>
  <path d="M91.43,91.03s.11-.02.17-.03c-.04-.04-.08-.12-.12-.12-.21-.02-.24.05-.05.15"/>
  <path d="M143.95,226.01c-.07-3.08-.07-6.15-.15-9.23-.09-3.28-.23-6.55-.37-9.83,0-.16-.18-.3-.4-.68-.13.65-.29,1.09-.29,1.52.01,2.14.07,4.28.11,6.42.03,1.6.09,3.21.1,4.81.01,1.94,0,3.88-.03,5.82-.02,2.15.15,4.28.82,6.34.09.28.25.53.54,1.12.23-1.09-.02-1.8-.08-2.51-.09-1.26-.23-2.53-.26-3.79"/>
  <path d="M167.53,204.25c.22.84.38,1.71.72,2.5,2.43,5.64,4.45,11.46,7.64,16.82.01-.18.09-.4.03-.55-2.66-6.4-5.16-12.87-8.14-19.24-.13.24-.26.37-.24.46"/>
  <path d="M158.27,206.63c-.02-.18-.22-.34-.53-.78-.36,2.61.11,4.85.25,7.09.06,1.05.18,2.12,1.08,3.02.02-.32.08-.64.05-.96-.27-2.79-.55-5.59-.85-8.38"/>
  <path d="M167.94,196.59s0,.04,0,.04c.01,0,.02,0,.04,0-.02-.01-.03-.03-.04-.04"/>
  <path d="M168.63,196.76s-.07-.09-.11-.09c-.18-.02-.36-.02-.53-.03.13.11.25.23.39.3.04.02.17-.11.26-.18"/>
  <path d="M120.77,139.86c-.06.51.19.67.61.64.05-.44-.22-.58-.61-.64"/>
  <path d="M121.38,140.51s0,.02,0,.04c.02,0,.03.01.05.02,0-.02,0-.03,0-.06-.02,0-.03,0-.05,0"/>
  <path d="M184.99,174.62s-.09-.08-.13-.12c-.05-.01-.11-.03-.17-.05.02.05.03.14.06.15.07.02.16.01.24.01"/>
  <path d="M110.6,180.65s.02.02.03.02c.03-.02.05-.04.08-.06-.04,0-.07,0-.11,0,0,.01,0,.02,0,.03"/>
  <path d="M110.1,180.72c.04.05.07.14.12.15.21.06.38.05.38-.22-.05-.03-.1-.07-.14-.06-.12.03-.24.09-.36.13"/>
  <path d="M141.43,149.32c0,.07.11.13.17.2.04-.04.11-.11.1-.13-.06-.12-.14-.23-.22-.35-.03.09-.06.18-.05.27"/>
  <path d="M141.48,149.05s.02-.05.02-.08h0s-.03-.04-.05-.05c0,.03,0,.06,0,.08.01.02.02.03.03.05"/>
</svg>