<?xml version="1.0" encoding="UTF-8"?>
<svg id="Calque_1" data-name="Calque 1" xmlns="http://www.w3.org/2000/svg"
  xmlns:xlink="http://www.w3.org/1999/xlink" viewBox="0 0 656.81 505.51" width="656.81"
  height="505.51">
  <defs>
    <clipPath id="clippath">
      <path
        d="M275.32,73.74c-10.66,0-19.3,8.27-19.3,18.47l-.9,371.4c0,11.2,9.77,21.78,21.47,21.78l156.54.62c11.84,0,21.44-9.19,21.44-20.52V92.05c0-10.11-8.57-18.31-19.14-18.31h-160.12Z"
        fill="none" />
    </clipPath>
  </defs>
  <g clip-path="url(#clippath)">
    <path
      d="M0,132.34c4.54-3.63,8.84-7.58,13.67-10.81,8.7-5.83,18.46-9.19,29.05-10.57,15.42-2.01,30.13-.16,43.81,7.02,8.72,4.58,16.56,10.33,22.33,18.31.77,1.06,1.75,1.99,2.82,3.19-2.86.57-5.31,1.15-7.79,1.49-.68.09-1.75-.32-2.18-.85-7.21-8.85-16.37-15.44-27.4-18.83-24.42-7.5-46.4-3.04-65.31,13.9-1,.89-1.9,1.89-2.84,2.85-.95.97-1.88,1.96-2.9,3.02-.99-.17-2.14-.36-3.28-.56v-8.15Z"
      fill="#010101" />
    <path
      d="M0,417.7c4.62-3.69,8.99-7.72,13.91-11,8.61-5.75,18.3-9.02,28.77-10.38,15.4-2,30.07-.14,43.79,6.98,8.87,4.6,16.71,10.45,22.5,18.53.37.51.9.91,1.33,1.38.4.45.77.92,1.3,1.55-2.81.59-5.34,1.22-7.91,1.59-.62.09-1.56-.51-2.03-1.05-7.62-8.88-16.96-15.33-28.43-18.97-17.35-5.51-34.08-3.81-50.11,4.13-7.75,3.83-14.76,8.78-19.52,16.01-1.31-.22-2.46-.42-3.6-.61v-8.15Z"
      fill="#010101" />
    <path
      d="M0,275.33c6.65-6.97,14.22-12.81,23.46-16.25,5.83-2.17,11.83-4.29,17.96-5.32,11.69-1.96,23.36-1.31,34.72,2.48,11.76,3.93,21.64,10.47,29.91,19.3,1.85,1.98,3.5,4.14,5.43,6.44-2.27.55-4.16,1.11-6.1,1.44-1.78.31-3.13-.14-4.47-1.68-8.34-9.6-18.71-16.24-31.58-18.94-4.8-1.01-9.65-2.31-14.5-2.41-13.89-.29-26.73,3.44-38.02,11.23-4.14,2.86-7.72,6.53-11.26,10.1-1.68,1.7-3.47,1.86-5.55,1.77v-8.15Z"
      fill="#010101" />
    <path
      d="M0,346.2c5.02-3.87,9.76-8.13,15.11-11.5,8.66-5.45,18.25-8.73,28.68-9.89,10-1.12,19.8-.78,29.44,1.98,9.44,2.7,18.09,6.97,25.43,13.28,4.1,3.53,7.67,7.62,11.43,11.5.49.5.73,1.23,1.09,1.84-1.36.33-2.57.62-3.77.91-2.9.71-4.96.54-7.35-2.12-6.95-7.73-15.48-13.61-25.77-16.83-8.45-2.65-17.09-4.43-26.01-3.54-7.77.78-15.21,2.85-22.35,6.03-8.65,3.85-15.84,9.33-21.84,16.42-.55.65-2.69.08-4.09.08v-8.15Z"
      fill="#010101" />
    <path
      d="M0,61.46c6.92-7.86,15.68-13.35,25.38-17.44,11.18-4.71,23.1-5.89,35.12-5.04,10.03.71,19.49,3.85,28.13,8.78,9.01,5.14,16.88,11.59,22.5,20.29-1.22.3-2.31.61-3.42.83-2.91.58-5.16.79-7.67-2.07-6.36-7.24-14.25-12.81-23.68-16.1-9.4-3.28-19.14-5.51-29.08-4.13-6.88.96-13.66,3.19-20.22,5.53-8.84,3.14-16.04,8.7-21.85,15.8-1.52,1.86-3.22,1.83-5.21,1.07v-7.53Z"
      fill="#010101" />
    <path
      d="M0,489.2c10.43-10.69,23.14-17.62,37.98-20.98,1.87-.42,3.78-.77,5.69-.93,10.79-.92,21.48-.66,31.83,2.86,14.03,4.77,25.83,12.46,34.49,24.24.31.42.73.76,1.1,1.15-4.52,2.97-8.16,1.98-11.71-1.61-6.15-6.21-13.12-11.6-21.61-14.74-7.23-2.67-14.66-4.17-22.5-4.56-10.79-.54-20.82,1.64-30.11,6.48-5.86,3.05-11.21,7.06-16.55,10.93-2.08,1.51-3.5,3.85-5.1,5.67-1.22-.13-2.38-.24-3.53-.36v-8.15Z"
      fill="#010101" />
    <path
      d="M0,203.83c9.74-9.92,21.43-16.81,35.21-20.18,4.32-1.06,8.88-1.29,13.35-1.75,10.67-1.11,21.08.2,30.81,4.46,6.15,2.7,12.24,5.89,17.58,9.83,5.48,4.04,10.01,9.25,15.59,14.54-3.65.57-6.31,1.61-8.65,1.16-1.96-.37-3.78-2.29-5.29-3.85-6.89-7.1-14.93-12.37-24.57-15.55-7.45-2.46-15.12-3.4-22.85-3.51-4.4-.06-8.86,1.14-13.22,2.08-9.31,2.01-17.62,6.22-25.08,11.73-3.62,2.67-6.41,6.37-9.52,9.55-1.04-.11-2.19-.22-3.34-.34v-8.15Z"
      fill="#010101" />
    <path
      d="M656.81,224.53c-7.49.51-14.76,1.87-21.87,4.37-10.79,3.8-19.66,9.96-26.79,18.53-.25.3-.88.52-1.29.46-2.71-.39-5.42-.86-8.5-1.36,14.69-19.23,34.23-28.62,58.46-29.52v7.53Z"
      fill="#010101" />
    <path
      d="M656.81,438.4c-3.28.42-6.58.71-9.83,1.27-14.27,2.43-26.5,8.53-36.36,18.79-.36.38-.73.77-.98,1.22-1,1.79-2.18,2.76-4.58,2-1.97-.63-4.13-.71-6.61-1.09,5.28-7.47,11.57-13.44,19.09-18.06,10.88-6.68,22.65-11,35.83-11.05,1.15,0,2.3-.39,3.44-.6v7.53Z"
      fill="#010101" />
    <path
      d="M656.81,10.66c-7.73-.08-15.03,1.81-22.22,4.35-7.78,2.76-14.6,7-20.8,12.17-1.69,1.41-3.22,3.09-4.49,4.86-1.42,1.99-2.97,2.21-5.19,1.43-1.66-.59-3.48-.74-5.69-1.18,14.82-18.61,33.9-28.79,58.38-29.15v7.53Z"
      fill="#010101" />
    <path
      d="M656.81,153.66c-9.91-.51-19.02,2.26-27.76,6.33-7.59,3.53-14.41,8.05-19.5,14.69-1.05,1.38-2.21,2.59-4.56,1.65-1.88-.76-4.1-.74-6.56-1.13,6.32-8.42,13.5-15.51,22.74-20.03,6.85-3.35,14.34-5.59,21.7-7.86,3.2-.99,6.79-.8,10.19-1.18,1.26-.14,2.5-.41,3.75-.62v8.15Z"
      fill="#010101" />
    <path
      d="M656.81,367.53c-17.04.33-31.72,6.17-44.05,17.39-2.02,1.83-3.53,4.73-5.87,5.51-2.17.73-5.13-.72-7.69-1.2,5.48-11.21,29.43-30.15,57.61-29.23v7.53Z"
      fill="#010101" />
    <path
      d="M656.81,82.16c-17.07.29-32.07,5.88-43.9,17.58-4.24,4.19-7.66,6.63-13.94,3.61,6.33-9.09,14.91-16.02,25.07-21.13,10.2-5.13,21.12-7.94,32.76-7.59v7.53Z"
      fill="#010101" />
    <path
      d="M656.81,296.03c-8.05,0-15.58,2.09-23.11,4.69-7.83,2.7-14.44,6.98-20.49,12.25-.4.35-.88.68-1.14,1.12-2.54,4.26-5.8,6.53-11.04,3.95-.6-.29-1.44-.13-2.73-.21,14.9-18.86,34.03-28.94,58.5-29.33v7.53Z"
      fill="#010101" />
    <path
      d="M0,218.26c8.07,1.7,15.62,4.54,22.72,8.67,8.48,4.93,15.55,11.17,21.56,19.53-3.12.59-5.93,1.12-8.67,1.64-9.42-11.05-20.97-18.71-35.61-21.69v-8.15Z"
      fill="#010101" />
    <path
      d="M0,4.39c11.23,2.04,21.38,6.44,30.05,13.52,5.11,4.17,9.62,9.02,15.04,14.18-3.32.78-5.43,1.28-7.54,1.77-2.96.69-3.84-1.9-5.2-3.33-7.43-7.81-16.18-13.6-26.78-16.71-1.82-.53-3.71-.85-5.57-1.27V4.39Z"
      fill="#010101" />
    <path
      d="M0,146.76c4.74,1.52,9.68,2.62,14.16,4.68,5.55,2.55,11.12,5.38,15.93,9.01,4.68,3.53,8.43,8.19,12.53,12.41.61.63.9,1.55,1.37,2.39-1.81.36-3.36.63-4.91.98-2.42.54-3.87-.01-5.77-2.05-8.66-9.33-19.05-16.24-32.16-18.72-.4-.08-.77-.35-1.15-.53v-8.15Z"
      fill="#010101" />
    <path
      d="M0,289.76c11.29,1.94,21.36,6.52,30.07,13.54,5.13,4.14,9.63,9,15.06,14.16-3.38.78-5.6,1.87-7.6,1.58-1.85-.27-3.79-1.74-5.13-3.16-8.2-8.64-17.88-14.84-29.93-17.36-.83-.17-1.64-.41-2.46-.61v-8.15Z"
      fill="#010101" />
    <path
      d="M0,432.13c5.44,1.76,11.09,3.09,16.27,5.38,10.6,4.68,19.29,11.81,26.36,20.71.32.4.54.87.79,1.33.18.34.32.7.49,1.09-1.74.34-3.29.62-4.84.96-2.42.54-3.88,0-5.77-2.06-8.56-9.27-18.85-16.15-31.84-18.66-.51-.1-.98-.39-1.47-.59v-8.15Z"
      fill="#010101" />
    <path
      d="M0,361.26c7.68.83,14.51,3.91,21.17,7.41,8.45,4.44,15.2,10.73,21.22,17.81.65.76,1.09,1.68,1.73,2.67-2.6.55-4.86,1.35-7.12,1.36-1.17,0-2.6-1.18-3.49-2.17-8.73-9.67-19.37-16.25-32.53-18.93-.31-.06-.65,0-.98,0v-8.15Z"
      fill="#010101" />
    <path
      d="M0,75.89c6.31,2.09,12.88,3.66,18.87,6.38,10.38,4.7,18.51,12.14,25.33,21.44-2.51.59-4.78,1.68-6.9,1.45-1.73-.18-3.64-1.65-4.83-3.04-5.33-6.25-11.94-10.91-19.49-14.19-4.09-1.78-8.64-2.61-12.98-3.87v-8.15Z"
      fill="#010101" />
    <path
      d="M25.56,505.51c5.09-4.96,11.4-8.03,18.36-9.26,11.54-2.05,22.72-1.1,32.49,6.08,1.42,1.04,2.81,2.12,4.21,3.19h-15.08c-.94-.35-1.86-.79-2.83-1.05-7.26-1.93-14.46-2.54-21.43,1.05h-15.73Z"
      fill="#010101" />
    <path
      d="M428.04,505.51c4.91-4.45,10.74-7.32,17.27-8.81,12.51-2.86,24.24-1.41,34.72,6.22,1.08.79,2.05,1.73,3.07,2.6h-15.08c-1.65-.58-3.25-1.36-4.95-1.72-6.39-1.35-12.69-1.46-18.64,1.72h-16.39Z"
      fill="#010101" />
    <path
      d="M294.32,505.51c4.68-5.23,11.1-7.79,17.73-9.21,7.58-1.62,15.45-1.62,22.95,1.06,5.11,1.83,10.08,4,13.73,8.14h-15.08c-1.64-.58-3.24-1.33-4.94-1.71-6.4-1.45-12.69-1.34-18.66,1.71h-15.73Z"
      fill="#010101" />
    <path
      d="M562.42,505.51c14.32-12.98,40.07-14.2,55.06,0h-15.08c-8.08-3.4-16.17-3.63-24.25,0h-15.73Z"
      fill="#010101" />
    <path
      d="M159.94,505.51c5.02-5.25,11.58-7.95,18.61-9.29,10.6-2.02,20.9-.95,30.2,4.86,2.02,1.26,3.74,2.95,5.6,4.43h-14.42c-8.08-3.08-16.17-3.89-24.25,0h-15.73Z"
      fill="#010101" />
    <path
      d="M206.48,0c2.86,2.04,5.72,4.09,8.82,6.31-1.59,1.16-2.93,2.13-4.27,3.1-1.89,1.37-3.37.97-5.36-.33-7.72-5.05-16.38-6.78-25.43-4.53-4.99,1.24-9.64,3.7-14.92,5.79-1.54-.99-3.65-2.35-6.3-4.04,3.25-2.17,6.34-4.23,9.43-6.29h38.02Z"
      fill="#010101" />
    <path
      d="M72.1,0c3.02,2.05,6.05,4.09,9.08,6.14-.27.43-.33.59-.44.69-4.09,3.54-7.4,3.49-12.58.41-7.72-4.6-16.9-4.99-25.71-1.74-3.16,1.17-6.06,2.99-9.18,4.28-.89.37-2.29.21-3.19-.22-1.71-.8-3.23-1.98-5.29-3.3,3.14-2.11,6.22-4.19,9.3-6.26h38.02Z"
      fill="#010101" />
    <path
      d="M608.96,0c3.02,2.04,6.04,4.09,9.33,6.32-.58.36-.81.45-.98.61-3.86,3.78-7.05,3.3-11.94.45-8-4.66-17.25-5.1-26.27-1.76-2.57.95-5.21,1.98-7.39,3.53-2.15,1.53-3.64,1.56-5.56-.12-1.07-.95-2.48-1.55-4.39-2.7,3.29-2.28,6.23-4.3,9.17-6.33h38.02Z"
      fill="#010101" />
    <path
      d="M474.58,0c3.1,2.08,6.19,4.16,9.32,6.26-.41.49-.48.57-.55.65-3.96,3.94-7.43,3.37-12.28.45-6.98-4.21-15.24-4.89-23.27-2.61-3.91,1.11-7.52,3.21-11.21,4.98-1.33.64-2.27,1.07-3.65-.13-1.44-1.25-3.33-2.02-5.44-3.25,3.31-2.32,6.19-4.33,9.06-6.34h38.02Z"
      fill="#010101" />
    <path
      d="M340.2,0c3.07,1.95,6.14,3.91,9.83,6.26-2.41,1.5-4.33,2.88-6.44,3.9-.68.33-2.06-.07-2.8-.57-10.51-7.12-21.67-7.43-33.31-3.04-.59.22-1.24.49-1.66.92-4.52,4.48-8.34,2.26-12.29-1.48,3.07-1.98,6.19-3.98,9.3-5.98h37.36Z"
      fill="#010101" />
    <path
      d="M0,18.82c10.45,2.8,19.47,7.9,26.94,15.45.44.44.85.91,1.56,1.67-2.56,1.01-4.83,2.02-7.2,2.77-.6.19-1.73-.24-2.22-.74-5.28-5.4-11.88-8.67-19.08-10.99v-8.15Z"
      fill="#010101" />
    <path
      d="M0,90.31c11.22,2.77,20.55,8.43,28.49,17.08-2.33.84-4.46,2.23-6.55,2.18-1.86-.04-3.89-1.43-5.48-2.65-4.96-3.8-10.23-6.95-16.46-8.45v-8.15Z"
      fill="#010101" />
    <path
      d="M0,447.18c4.17,1.47,8.71,2.37,12.43,4.54,5.63,3.29,10.69,7.48,15.99,11.29-.1.38-.21.76-.31,1.14-2.46.95-4.92,1.9-7.44,2.88-6.07-5.15-12.4-9.98-20.66-11.7v-8.15Z"
      fill="#010101" />
    <path
      d="M0,304.18c11.27,2.89,20.57,8.69,28.44,17.2-2.1.72-3.84,1.02-5.23,1.84-2.64,1.57-4.11.04-5.83-1.46-5.05-4.38-10.76-7.68-17.37-9.43v-8.15Z"
      fill="#010101" />
    <path
      d="M0,375.68c11.33,2.73,20.65,8.49,28.33,16.92-5,3.29-8.71,2.46-13.24-1.16-4.26-3.41-10-5.14-15.09-7.61v-8.15Z"
      fill="#010101" />
    <path
      d="M0,161.81c8.47,1.66,15.7,5.65,22.2,10.94,2.07,1.68,3.9,3.62,6.31,5.88-2.87,1.11-5.33,2.06-7.85,3.03-6.08-5.14-12.4-9.98-20.66-11.69v-8.15Z"
      fill="#010101" />
    <path
      d="M0,233.31c4.27,1.5,8.75,2.62,12.75,4.6,5.94,2.95,11.4,6.67,15.49,12.33-2.48.85-4.61,1.79-6.85,2.24-.86.17-2.16-.57-2.92-1.24-4.67-4.16-9.95-7.36-15.93-9.49-.78-.28-1.69-.2-2.55-.28v-8.15Z"
      fill="#010101" />
    <path
      d="M0,33.87c4.7,2.47,9.4,4.94,14.86,7.81-2.81,1.79-4.54,3.16-6.51,4.02-.86.38-2.3-.1-3.33-.52-1.73-.71-3.35-1.68-5.02-2.53v-8.78Z"
      fill="#010101" />
    <path
      d="M0,176.86c3.65.54,10.22,4.3,13.79,8.01-2.01,1.32-3.94,2.67-5.98,3.86-.42.24-1.32.04-1.83-.24-2.03-1.1-4-2.31-5.98-3.47v-8.15Z"
      fill="#010101" />
    <path
      d="M0,390.73c5.42,1.36,9.63,4.58,14.1,8.07-2.44,1.6-4.6,3.01-6.73,4.4-2.48-1.45-4.92-2.89-7.36-4.32v-8.15Z"
      fill="#010101" />
    <path
      d="M0,247.74c2.46,1.19,5.01,2.26,7.37,3.62,2.24,1.29,4.29,2.89,6.74,4.58-1.99,1.42-3.64,2.84-5.54,3.84-.77.4-2.19.1-3.11-.3-1.89-.83-3.65-1.95-5.46-2.95v-8.78Z"
      fill="#010101" />
    <path
      d="M0,319.24c5.19,1.83,9.9,4.38,13.61,8.39-.16.23-.25.41-.39.55-3.55,3.31-7.2,4.1-11.14.52-.48-.44-1.38-.46-2.08-.68v-8.78Z"
      fill="#010101" />
    <path
      d="M0,105.37c5.14,1.8,9.87,4.23,13.99,8.06-2.38,1.58-4.53,3.01-6.64,4.41-2.48-1.45-4.92-2.88-7.36-4.31v-8.15Z"
      fill="#010101" />
    <path
      d="M0,462.23c5.39,1.17,9.56,4.29,13.94,7.82-1.99,1.39-3.66,2.78-5.57,3.77-.69.36-2.02-.06-2.89-.47-1.88-.88-3.66-1.97-5.48-2.98v-8.15Z"
      fill="#010101" />
    <path
      d="M234.67,505.51c3.11-.83,6.18-2.07,9.35-2.43,10.3-1.17,20.56-.96,30.62,1.86.26.07.45.37.67.56h-40.64Z"
      fill="#010101" />
    <path
      d="M502.77,505.51c3.01-.81,5.98-2.03,9.04-2.34,10.17-1.02,20.35-1.46,30.29,1.69.46.15.88.43,1.31.65h-40.64Z"
      fill="#010101" />
    <path
      d="M368.39,505.51c3.99-.84,7.94-1.92,11.98-2.43,4.16-.53,8.45-.99,12.58-.57,5.41.54,10.73,1.96,16.08,3.01h-40.64Z"
      fill="#010101" />
    <path
      d="M100.29,505.51c3.33-.83,6.62-2.02,10.01-2.43,10.2-1.25,20.34-.89,30.28,1.96.15.04.24.31.36.47h-40.64Z"
      fill="#010101" />
    <path d="M229.42,0c-2.32,1.02-4.57,2.54-6.99,2.87-1.22.16-2.76-1.84-4.15-2.87h11.14Z"
      fill="#010101" />
    <path d="M95.7,0c-2.48,1-4.9,2.47-7.47,2.79-1.3.16-2.88-1.79-4.33-2.79h11.8Z" fill="#010101" />
    <path d="M363.8,0c-2.36,1.03-4.65,2.52-7.11,2.88-1.17.17-2.68-1.85-4.03-2.88h11.14Z"
      fill="#010101" />
    <path d="M498.18,0c-2.36,1.03-4.65,2.52-7.11,2.88-1.17.17-2.68-1.85-4.03-2.88h11.14Z"
      fill="#010101" />
    <path d="M156.01,0c-1.61,2.57-3.49,3.99-6.67,1.94-1.34-.87-2.98-1.31-4.48-1.94h11.14Z"
      fill="#010101" />
    <path d="M290.39,0c-1.61,2.57-3.49,3.99-6.67,1.94-1.34-.87-2.98-1.31-4.48-1.94h11.14Z"
      fill="#010101" />
    <path d="M424.76,0c-1.79,2.99-4.25,3.5-7.34,1.84-1.24-.66-2.53-1.23-3.8-1.84h11.14Z"
      fill="#010101" />
    <path d="M21.63,0c-1.65,2.97-3.91,3.53-6.95,1.78-1.3-.75-2.79-1.19-4.2-1.78h11.14Z"
      fill="#010101" />
    <path d="M559.14,0c-1.26,1.04-2.52,2.08-3.86,3.19-2.43-1.06-4.86-2.13-7.28-3.19h11.14Z"
      fill="#010101" />
    <path
      d="M379.96,496.12c-3.21.57-5.96,1.07-8.84,1.58-7.19-9.09-16.62-15.61-27.63-19.57-5.89-2.11-12.5-2.56-18.84-3.31-11.78-1.4-22.64,1.98-32.95,6.92-7.06,3.39-13.3,7.99-18.02,14.25-.91,1.2-1.87,2.3-3.99,1.46-2.01-.8-4.34-.88-6.62-1.29,23.15-34.18,83.99-43.62,116.88-.03"
      fill="#010101" />
    <path
      d="M447.06,175.29c-1.93.35-3.7.42-5.27.99-2.52.91-3.93-.08-5.53-1.83-7.46-8.2-16.43-14.26-27.32-17.73-13.09-4.17-26.26-4.35-39.3-.4-9.13,2.76-17.45,7.28-24.49,13.65-1.24,1.12-2.39,2.41-3.3,3.79-1.97,3-4.52,3.38-7.75,2.11-1.06-.41-2.34-.3-4.28-.52,11.47-15.49,26.61-25.26,45.51-28.4,30.38-5.04,55.97,6.37,71.72,28.33"
      fill="#010101" />
    <path
      d="M313.05,175.21c-2.13.42-3.66.55-5.05,1.03-4.15,1.42-6.03-1.59-8.11-3.85-5.47-5.95-12.04-10.44-19.52-13.65-10.2-4.37-21.04-6.01-32.11-4.95-5.13.49-10.17,2.14-15.17,3.54-11.47,3.22-20.15,10.32-27.88,18.7-.38.41-1.22.74-1.76.65-2.4-.39-4.78-.96-7.65-1.56,12.42-16.74,29.26-26.66,50.39-28.83,27.76-2.85,49.96,7.18,66.87,28.93"
      fill="#010101" />
    <path
      d="M312.77,389.35c-1.21.08-2.26-.15-2.92.23-4.6,2.66-7.12-.29-9.83-3.1-7.86-8.15-17.24-13.74-28.6-16.62-6.89-1.74-13.73-2.71-20.75-2.3-11.19.67-21.43,4.08-30.88,9.99-5.42,3.39-10.06,7.39-14.04,12.21-.48.59-1.74.97-2.55.85-2.38-.34-4.72-.97-7.09-1.49,24.81-36.79,87.47-41.28,116.66.22"
      fill="#010101" />
    <path
      d="M446.78,389.35c-.46.06-.7.04-.89.12-6.08,2.7-9.54-.82-13.32-4.65-9.57-9.66-21.6-14.78-35.28-16.7-17.81-2.51-33.52,2.39-47.75,12.27-3.23,2.24-6.04,5.18-8.53,8.19-1.54,1.86-2.66,2.5-5.01,1.61-1.65-.63-3.57-.62-5.36-.9,2.75-10.08,30.36-26.78,45.79-28.76,35.86-4.62,60.7,13.23,70.37,28.82"
      fill="#010101" />
    <path
      d="M531.7,424.97c23.5-35.67,86.18-42.65,116.56-.15-2.49.51-4.92,1.24-7.38,1.38-.97.05-2.1-1.13-3.03-1.9-4.91-4.02-9.49-8.48-14.74-12.03-7.07-4.79-15.28-7.11-23.84-8.41-13.68-2.08-26.48.53-38.7,6.31-7.26,3.44-13.31,8.45-18.5,14.32-1.43,1.62-2.27,2.23-4.42,1.45-1.83-.66-3.92-.67-5.95-.97"
      fill="#010101" />
    <path
      d="M329.74,460.71c11.68-15.31,26.57-25.17,45.33-28.38,26-4.45,52.79,2.66,72,28.13-3.03.59-5.83,1.13-8.74,1.69-9.53-11.23-21.39-18.97-36.5-21.9-11.79-2.29-23.15-1.46-34.57,2.33-8.43,2.8-15.57,7.22-22.12,12.77-1.27,1.08-2.4,2.4-3.3,3.79-1.97,3.03-4.54,3.33-7.76,2.09-1.06-.41-2.33-.3-4.35-.52"
      fill="#010101" />
    <path
      d="M514.31,496.29c-3.24.48-5.63.9-8.04,1.15-.58.06-1.45-.29-1.8-.73-10.18-12.64-24.05-19.33-40.1-21.8-11.86-1.82-23.49.28-34.45,4.95-9.39,4-17.29,9.97-23.74,17.99-2.8-.57-5.74-1.16-9.08-1.83,15.99-20.71,37.4-30.37,63.44-29.18,22.43,1.03,40.16,11.47,53.78,29.45"
      fill="#010101" />
    <path
      d="M464.37,32.29c29.33-39.76,90.07-38.18,116.66.06-.06.06-.11.14-.18.17-5.82,2.27-9.51.26-13.74-4.17-8.58-8.99-19.82-13.98-32.36-16.49-15.67-3.15-30,.3-43.75,7.26-6.3,3.19-11.49,7.79-15.97,12.98-1.64,1.9-2.99,1.94-4.94,1.52-1.86-.4-3.7-.85-5.72-1.32"
      fill="#010101" />
    <path
      d="M178.5,103.79c-2.58.54-4.81,1.21-7.08,1.39-.94.07-2.12-.74-2.95-1.41-5.17-4.23-9.97-8.94-15.48-12.71-6.96-4.76-15.2-6.92-23.58-8.25-14.01-2.22-27.14.55-39.5,6.89-6.77,3.47-13.02,7.65-17.56,13.8-1.11,1.51-2.42,2.4-4.7,1.4-1.76-.77-3.91-.74-5.92-1.07,22.7-33.91,84.04-43.99,116.77-.04"
      fill="#010101" />
    <path
      d="M648.63,139.49c-3.27.56-5.98,1.02-8.92,1.52-5.6-6.08-11.75-11.79-19.46-15.91-6.17-3.29-12.78-5.25-19.54-6.45-14.23-2.53-27.86.04-40.59,6.36-7.11,3.53-13.33,8.31-18.24,14.54-.59.75-2.28,1.04-3.43.99-2.22-.1-4.43-.59-7.14-.99,11.51-15.65,26.96-25.41,46.18-28.35,29.23-4.47,53.05,5.07,71.13,28.29"
      fill="#010101" />
    <path
      d="M581.43,246.49c-3.07.54-5.87,1.03-8.77,1.54-8.02-8.68-16.98-16.2-28.88-19.83-7.08-2.16-14.31-3.75-21.73-3.59-7.5.17-14.72,1.89-21.83,4.44-8.97,3.21-16.96,7.84-22.91,14.82-3.35,3.93-6.59,4.27-10.9,3.21-.7-.17-1.35-.5-2.04-.76,26.56-36.81,86.6-40.97,117.05.17"
      fill="#010101" />
    <path
      d="M178.57,246.42c-3.06.61-5.62,1.17-8.19,1.56-.46.07-1.19-.45-1.54-.88-10.05-12.63-23.89-19.19-39.78-21.77-7.91-1.28-16.06-.96-23.96,1.25-8.16,2.29-16.05,5.18-22.7,10.37-4.29,3.35-8.15,7.18-12.57,11.11-2.15-.42-5.03-.99-8.37-1.64,15.98-20.81,37.41-30.53,63.61-29.23,22.33,1.11,39.97,11.48,53.49,29.22"
      fill="#010101" />
    <path
      d="M313.01,246.55c-3.22.57-5.69,1.11-8.2,1.37-.62.06-1.53-.64-2.01-1.22-10.15-12.34-23.82-19.06-39.64-21.4-15.7-2.32-30.28,1.57-43.73,9.65-5.85,3.52-10.64,7.96-14.52,13.18-2.92-.49-5.71-.97-8.5-1.44,2.83-9.88,28.49-26.16,43.99-28.48,29.94-4.47,53.96,4.64,72.6,28.32"
      fill="#010101" />
    <path
      d="M128.48,496.15c15-19.38,34.67-29.31,59.06-29.39,24.36-.08,43.55,10.35,58.33,29.32-3.2.57-6.06,1.08-8.94,1.6-7.53-8.84-16.57-15.82-27.74-19.55-5.87-1.96-12.3-2.47-18.53-3.32-11.35-1.55-21.8,1.82-31.83,6.28-7.77,3.46-14.55,8.36-19.75,15.08-.57.74-2.12,1.18-3.16,1.11-2.4-.15-4.78-.7-7.43-1.13"
      fill="#010101" />
    <path
      d="M648.12,353.68c-2.97.43-6.04,1.75-8.34.97-2.35-.79-3.92-3.66-5.87-5.58-9.6-9.48-21.48-14.65-34.95-16.65-17.52-2.6-33.1,2.23-47.24,11.88-3.15,2.15-6.21,4.69-8.49,7.64-1.92,2.48-3.51,3.56-6.6,2.46-1.55-.55-3.27-.64-5.38-1.03,16.7-21.33,38.78-30.83,65.93-29.01,21.28,1.43,41.85,14.48,50.93,29.32"
      fill="#010101" />
    <path
      d="M195.86,103.97c28.54-39.77,90.14-38.73,116.7-.21-2.38.52-4.71,1.15-7.09,1.48-.68.09-1.67-.52-2.22-1.08-7.47-7.73-15.66-14.48-26.22-18.06-12.82-4.36-25.8-5.54-39.04-1.79-11.22,3.18-21.51,8.05-29.06,16.75-3.28,3.78-6.34,4.74-10.8,3.08-.58-.21-1.28-.1-2.28-.17"
      fill="#010101" />
    <path
      d="M204.79,462.02c-2.95-.43-5.69-.84-8.43-1.24,1.69-9.19,28.23-26.23,44.55-28.63,32.08-4.73,58.01,8.24,71.65,28.5-2.4.44-4.76,1.02-7.15,1.23-.82.07-1.98-.59-2.56-1.26-5.51-6.47-12.14-11.62-19.92-15.34-15.43-7.39-31.5-8.26-47.85-3.55-8.35,2.4-15.81,6.73-22.51,12.04-2.95,2.34-5.2,5.47-7.79,8.27"
      fill="#010101" />
    <path
      d="M262.83,68.16c16.44-21.3,38.34-30.54,65.49-29.29,18.38.84,44.77,15.66,51.2,29.17-2.26.53-4.5,1.52-6.68,1.4-1.52-.08-3.3-1.42-4.36-2.66-5.98-7.03-13.6-11.93-22.16-15.41-9.7-3.95-20.01-6.06-30.52-4.81-11.43,1.36-22.34,4.74-31.54,11.77-3.75,2.87-7.21,6.13-10.53,9.46-1.52,1.52-2.58,2.29-4.84,1.36-1.7-.7-3.74-.64-6.07-.98"
      fill="#010101" />
    <path
      d="M245.59,282.12c-2.44.49-4.68,1.4-6.8,1.2-1.66-.16-3.55-1.4-4.69-2.69-7.88-8.87-17.75-14.81-29.42-17.67-6.08-1.49-12.48-2.63-18.71-2.52-12.53.22-24.29,3.81-34.48,10.92-4.65,3.25-8.48,7.55-12.77,11.28-.63.55-1.81.9-2.65.78-2.4-.33-4.76-.95-7.11-1.44,25.11-36.21,86.3-41.65,116.64.13"
      fill="#010101" />
    <path
      d="M397.32,210.93c26.15-37.73,88.31-40.56,116.55-.08-2.68.39-5.15.85-7.64,1.06-.66.06-1.6-.51-2.07-1.06-7.6-8.95-17.18-15.29-28.6-18.65-5.66-1.66-11.75-2.23-17.7-2.74-12.68-1.08-24.18,2.63-34.97,8.7-6.5,3.65-11.89,8.5-16.72,14.2-2.7-.44-5.57-.9-8.85-1.44"
      fill="#010101" />
    <path
      d="M397.04,139.58c31.92-42.4,93.47-35.83,116.81.01-2.44.42-4.83,1.17-7.19,1.1-1.28-.04-2.77-1.26-3.72-2.32-8.2-9.11-18.2-15.17-30.5-18.2-6.37-1.57-12.64-2.5-19.13-2.25-12.5.49-23.98,4.07-33.99,11.28-4.09,2.94-7.58,6.66-11.3,10.06-1.26,1.15-2.17,2.31-4.39,1.36-1.86-.79-4.14-.69-6.59-1.04"
      fill="#010101" />
    <path
      d="M178.14,317.24c-6.36,3.83-10,.62-13.87-3.47-9.46-10.02-21.81-14.88-35.45-17.11-10.91-1.79-21.29.14-31.54,3.8-7.87,2.81-14.68,7.04-20.81,12.42-.63.56-1.22,1.19-1.71,1.87-3.4,4.64-4.54,5.07-10.2,3.71-.92-.22-1.83-.49-3.13-.84,16.17-20.45,37.42-30.6,64.01-28.98,22.23,1.35,39.82,11.36,52.7,28.61"
      fill="#010101" />
    <path
      d="M61.55,389.15c27.49-37.97,88.16-40.18,116.81-.08-2.51.56-4.92,1.48-7.34,1.47-1.26,0-2.73-1.48-3.75-2.59-8.26-8.96-18.16-15.12-30.42-18.13-6.46-1.59-12.83-2.58-19.44-2.28-12.37.56-23.71,4.23-33.66,11.25-4.2,2.96-7.75,6.78-11.51,10.27-1.32,1.23-2.37,2.12-4.49,1.24-1.8-.75-3.93-.76-6.2-1.15"
      fill="#010101" />
    <path
      d="M397.03,424.91c14.52-19.46,34.38-29.28,58.66-29.48,24.4-.2,43.93,10.07,58.62,29.4-2.91.56-5.36,1.4-7.79,1.35-1.27-.03-2.75-1.43-3.71-2.55-8.12-9.43-18.53-15.32-30.77-18.41-8.76-2.21-17.7-2.93-26.59-1.24-15.11,2.87-28.27,9.18-38.02,21.06-.58.7-2.12,1.01-3.17.95-2.31-.15-4.59-.65-7.23-1.07"
      fill="#010101" />
    <path
      d="M245.98,139.55c-2.87.44-4.98.94-7.1,1.02-1.14.04-2.78-.32-3.4-1.08-5.97-7.31-13.5-12.72-22.26-16.45-10.07-4.29-20.79-6.2-31.73-5.01-10.68,1.16-20.75,4.4-29.77,10.43-4.56,3.04-8.98,6.1-12.07,10.52-1.87,2.67-4.3,1.5-6.57,1.42-1.36-.05-2.71-.53-4.05-.81,3.29-10.42,31.55-27.04,46.66-28.73,29.25-3.27,52.38,5.99,70.3,28.69"
      fill="#010101" />
    <path
      d="M539.54,497.58c-2.05-.34-4.75-.78-7.45-1.22,1.99-8.7,27.05-25.35,41.09-27.88,30.77-5.56,55.77,3.08,75.37,27.53-2.7.51-4.9.85-7.06,1.36-3.29.77-3.65-2.16-5.15-3.63-8.98-8.78-19.44-15.06-32.11-17.69-20.24-4.2-38.37.18-54.46,12.45-3.5,2.67-6.6,5.83-10.23,9.08"
      fill="#010101" />
    <path
      d="M128.54,67.91c16.22-20.4,37.47-30.5,64.19-28.94,22.29,1.3,39.49,11.66,52.56,28.62-.34.44-.39.56-.46.59-5.13,2.1-8.58.91-12.55-3.35-9.79-10.49-22.61-16-37.22-17.84-15.49-1.95-29.37,1.73-42.47,9.68-5.5,3.34-9.67,7.74-14.19,11.95-.67.62-2.02.94-2.98.82-2.18-.28-4.31-.93-6.87-1.52"
      fill="#010101" />
    <path
      d="M446.62,103.85c-1.1.27-2.2.68-3.34.78-2.55.24-4.71,1.27-7.2-1.65-7.33-8.61-16.8-14.84-27.95-18.03-11.46-3.27-23.14-4.07-34.97-.95-13.26,3.5-24.38,9.93-33.06,20.21-.54.64-1.84,1.13-2.7,1.02-2.3-.29-4.55-.95-6.82-1.46,3.94-12.01,33.09-27.99,51.67-29.24,32.19-2.15,55.79,15.05,64.36,29.31"
      fill="#010101" />
    <path
      d="M581.13,388.66c-7.26,4.69-10.67-.55-14.8-4.47-9.59-9.12-21.31-14.18-34.62-16.04-16.27-2.27-31.15,1.28-44.48,10.3-4.59,3.11-8.6,7.05-12.63,10.85-1.25,1.18-1.95,1.66-3.72,1.02-1.85-.68-3.96-.71-6.58-1.13,11.76-15.86,27.3-25.6,46.92-28.41,29.05-4.16,52.37,5.67,69.89,27.89"
      fill="#010101" />
    <path
      d="M581.39,175.12c-2.92.57-5.66,1.17-8.44,1.59-.38.06-.96-.66-1.34-1.1-10.08-11.59-22.79-18.94-38.4-21.3-17.1-2.58-32.87.97-46.97,10.57-3.8,2.59-6.96,6.06-10.36,9.17-1.68,1.53-3.01,3.47-5.95,2.23-1.52-.64-3.33-.66-5.7-1.09,10.23-13.7,23.42-23.08,40.13-27.05,29.96-7.12,58,1.98,77.02,26.97"
      fill="#010101" />
    <path
      d="M245.87,210.99c-3.35.48-6.26.9-9.15,1.32-24.79-30.93-73.79-30.73-99.25.09-2.71-.45-5.41-.9-8.79-1.47,9.33-13.26,22.01-22.06,37.54-26.38,31.38-8.72,60.85,1.27,79.64,26.44"
      fill="#010101" />
    <path
      d="M61.46,175.05c14.95-19.54,34.95-29.42,59.49-29.33,24.12.09,43.32,10.45,57.7,29.45-2.92.56-5.29,1.17-7.69,1.38-.81.07-1.96-.69-2.55-1.38-10.12-11.78-23.06-18.7-38.82-20.92-10.88-1.53-21.37-.49-31.71,3.25-10.53,3.82-19.33,9.69-26.26,18.18-.41.5-1.27,1.06-1.82.98-2.6-.38-5.16-.98-8.34-1.62"
      fill="#010101" />
    <path
      d="M262.82,353.48c13.2-17.23,30.51-27.42,52.49-29.11,26.89-2.06,48.31,7.95,64.6,28.92-2.64.63-4.79,1.56-6.91,1.5-1.43-.04-3.17-1.2-4.17-2.33-7.98-9.01-17.96-14.91-29.76-18.2-6.47-1.8-13-2.84-19.75-2.49-11.91.62-23.02,3.78-32.74,10.41-4.68,3.19-8.82,7.15-12.9,11.04-1.49,1.42-2.46,2.13-4.57,1.36-1.76-.65-3.77-.69-6.28-1.1"
      fill="#010101" />
    <path
      d="M447.14,32.43c-2.66.53-4.92,1.2-7.2,1.33-1.08.06-2.59-.63-3.28-1.45-9.3-11.24-21.67-17.44-36.05-20.38-17.51-3.58-33.44.5-47.94,9.89-4.48,2.9-7.99,7.13-12.08,10.61-.92.78-2.46,1.4-3.65,1.31-2.17-.17-4.29-.92-6.87-1.53,16.5-21.02,38.36-30.78,65.24-28.9,21.79,1.53,38.75,12.13,51.83,29.12"
      fill="#010101" />
    <path
      d="M397.64,353.46c19.12-31.32,82.06-45.99,116.42-.08-2.56.55-4.96,1.16-7.4,1.53-.62.09-1.56-.41-2.03-.91-7.48-8.06-15.94-14.85-26.73-18.41-12.32-4.07-24.83-5.34-37.65-1.9-8.55,2.29-16.39,5.86-23.4,11.02-2.65,1.95-5.57,3.95-7.3,6.57-2.29,3.47-4.92,4.1-8.6,3-1.1-.32-2.22-.55-3.32-.82"
      fill="#010101" />
    <path
      d="M128.83,424.53c10.81-14.34,25-23.89,43.12-27.44,34.42-6.76,61.04,9.03,73.42,27.86-1.42.29-2.84.67-4.27.86-2.29.3-4.07.76-6.21-1.7-9.46-10.87-21.79-17.6-36.33-20.09-11.53-1.97-22.95-.94-33.93,3.28-8.25,3.17-16.43,6.93-21.83,13.69-3.93,4.92-7.91,5.54-13.28,4.08-.09-.02-.15-.12-.68-.53"
      fill="#010101" />
    <path
      d="M581,317.27c-5.41,3.06-7.99,2.32-11.72-1.68-6.3-6.76-14.01-11.89-22.88-15.11-8.36-3.04-17.05-5.05-26.1-4.42-11.49.8-22.06,4.18-31.91,10.09-5.57,3.35-10.23,7.4-14.44,12.13-.56.63-2.02.88-2.99.75-2.1-.27-4.15-.9-6.15-1.36,7.56-12.72,26.17-25.72,47.21-28.45,28.61-3.71,51.53,5.95,68.95,28.05"
      fill="#010101" />
    <path
      d="M648.14,68.3c-2.96.44-6.03,1.76-8.33.99-2.35-.79-3.94-3.63-5.87-5.57-6.97-6.99-15.43-11.94-24.96-14.66-20.55-5.86-39.65-2.2-56.99,9.66-3.28,2.24-5.89,5.4-8.75,8.18-1.65,1.61-2.92,3.56-5.96,2.19-1.64-.74-3.69-.66-6.03-1.02,16.7-21.38,38.78-30.98,65.91-29.05,22.08,1.57,41.1,14.21,50.99,29.28"
      fill="#010101" />
    <path
      d="M379.54,425.08c-2.34.29-4.5.2-6.34.88-2.14.79-3-.39-3.93-1.57-5.73-7.25-13.3-12.35-21.79-15.96-8.98-3.82-18.51-5.64-28.5-5.22-12.59.53-23.9,4.43-34.03,11.35-3.71,2.54-6.87,5.84-10.11,8.97-1.88,1.81-3.51,3.49-6.54,2.34-1.45-.55-3.09-.66-4.64-.98,5.21-11.29,26.3-26.84,49.87-29.08,31.74-3.02,55.46,12.6,66.01,29.27"
      fill="#010101" />
    <path
      d="M329.97,317.57c16.76-21.1,38.66-30.92,65.61-28.89,21.65,1.62,38.52,12.19,51.56,29.1-2.77.53-5.11,1.11-7.5,1.37-.8.09-1.99-.4-2.5-1-9.41-11.36-21.78-17.91-36.45-20.86-17.53-3.53-33.46.47-47.97,9.86-4.57,2.95-8.15,7.28-12.32,10.83-.84.72-2.3,1.25-3.4,1.14-2.19-.21-4.32-.91-7.04-1.54"
      fill="#010101" />
    <path
      d="M178.83,32.32c-2.95.6-5.21,1.21-7.51,1.46-.79.08-1.9-.56-2.52-1.18-5.9-5.94-12.04-11.59-19.85-15.21-10.41-4.83-21.44-7.64-32.99-6.6-11.24,1.02-21.84,4.26-31.32,10.6-4.2,2.81-8.32,5.54-11.15,9.64-2.49,3.6-5.77,2.76-9.15,1.99-.8-.18-1.58-.43-2.74-.74,11.09-14.63,25.61-24.43,43.99-27.73,29.94-5.37,54.2,4.26,73.23,27.78"
      fill="#010101" />
    <path
      d="M263.13,281.98c27.19-37.84,87.99-39.89,116.45,0-2.23.51-4.34,1.2-6.5,1.4-1.01.09-2.44-.52-3.11-1.27-10.34-11.66-23.46-18.7-39.12-21.12-15.48-2.39-29.95,1.04-42.96,9.11-5.5,3.41-10.02,8.27-15.11,12.32-.88.7-2.42.99-3.6.88-1.99-.18-3.94-.84-6.05-1.33"
      fill="#010101" />
    <path
      d="M514.21,281.98c-2.61.55-4.83,1.16-7.11,1.43-.92.11-2.32-.24-2.85-.88-9.1-10.8-20.71-17.3-34.86-20.55-14.65-3.37-28.17-.99-41.44,4.9-7.9,3.51-14.73,8.36-20.07,14.95-1.37,1.69-2.73,1.9-4.65,1.4-1.84-.49-3.73-.8-5.59-1.19,21.37-32.66,82.08-44.86,116.57-.08"
      fill="#010101" />
    <path
      d="M196.01,317.62c27.36-37.71,87.29-40.05,116.79.15-2.6.51-5.03,1.1-7.5,1.39-.75.09-1.85-.47-2.38-1.07-7.42-8.42-16.22-14.96-27.29-18.38-8.44-2.61-17.08-4.61-25.98-3.6-12.38,1.4-23.97,5.18-33.85,12.73-2.92,2.23-5.63,4.82-7.93,7.63-2.27,2.78-4.82,2.98-7.92,2.11-1.22-.34-2.47-.6-3.95-.95"
      fill="#010101" />
    <path
      d="M195.73,32.3C212.21,11.1,234.17,1.45,261,3.33c21.67,1.52,38.76,11.85,51.81,29.07-2.76.55-5.07,1.1-7.41,1.4-.62.08-1.51-.44-2.01-.94-5.47-5.44-11.13-10.57-18.09-14.39-7.1-3.9-14.76-5.8-22.64-7.15-13.71-2.35-26.43,1.11-38.49,6.96-6.83,3.31-12.98,7.69-17.52,13.82-1.16,1.57-2.64,2.22-4.78,1.49-1.85-.63-3.86-.83-6.14-1.28"
      fill="#010101" />
    <path
      d="M330.47,245.9c26.81-36.72,86.77-40.19,116.52.62-2.42.43-4.65.79-6.87,1.24-3.24.66-3.6-2.28-5.1-3.73-9.09-8.82-19.68-14.91-32.47-17.7-12.68-2.76-24.76-1.72-36.79,2.83-9.57,3.62-17.95,8.6-24.34,16.43-2.33,2.85-6.7,2.88-10.94.31"
      fill="#010101" />
    <path
      d="M379.32,139.57c-1.23.29-2.51.46-3.69.9-3.78,1.4-5.52-.77-7.84-3.21-8.11-8.53-17.99-14.41-29.8-17.33-12.32-3.05-24.52-3.01-36.48,1.15-10.38,3.61-20.15,8.36-26.83,17.27-2.02,2.7-4.5,2.55-7.27,2.1-1.37-.23-2.71-.56-4.05-.84,4.84-13.93,36.38-29.9,57.65-29.66,29.9.33,51.15,16.97,58.31,29.64"
      fill="#010101" />
    <path
      d="M397.15,68.13c11.78-15.89,27.56-25.67,47.31-28.46,28.79-4.06,51.97,5.81,69.8,28.27-2.64.61-4.85,1.27-7.1,1.58-.81.11-1.99-.42-2.57-1.03-7.5-7.88-15.84-14.7-26.53-18.22-12.41-4.08-25.01-5.37-37.96-1.89-8.78,2.37-16.68,6.27-24.01,11.29-2.45,1.68-5.01,3.7-6.46,6.14-2.36,3.94-5.41,3.89-9.15,2.86-.92-.25-1.89-.32-3.32-.55"
      fill="#010101" />
    <path
      d="M531.75,281.79c26.91-37.47,87.96-39.92,116.31.27-2.08.49-4.08.95-6.07,1.42-2.2.52-3.1-.9-4.39-2.27-8.87-9.5-19.71-15.89-32.7-19.06-12.98-3.17-25.41-1.86-37.8,2.69-8.37,3.07-16.31,7.05-21.73,13.7-4.13,5.07-8.19,5.17-13.49,3.51-.07-.02-.09-.16-.14-.25"
      fill="#010101" />
    <path
      d="M464.28,103.81c11.82-15.83,27.38-25.61,46.98-28.4,29.01-4.13,52.37,5.63,70.18,28.38-2.75.52-5.07,1.1-7.43,1.33-.87.08-2.14-.41-2.69-1.06-10.35-12.24-23.78-19.07-39.97-21.3-18.06-2.48-33.92,2.53-48.14,12.88-3.22,2.34-5.96,5.35-8.63,8.29-1.2,1.32-1.97,1.63-3.71,1.01-1.86-.67-3.96-.71-6.59-1.12"
      fill="#010101" />
    <path
      d="M178.74,460.66c-2.59.38-4.59.4-6.38,1.01-2.22.75-3.28-.29-4.51-1.69-8-9.12-17.71-15.79-30.02-18.43-6.04-1.29-12.17-2.91-18.28-2.95-7.1-.04-14.13,1.6-20.96,4.02-10.77,3.82-19.81,9.71-27.03,18.26-.49.58-1.84.77-2.75.7-2.3-.16-4.59-.57-7.53-.97,13.15-16.87,29.85-26.99,51.12-29.01,27.58-2.61,49.6,7.25,66.34,29.05"
      fill="#010101" />
    <path
      d="M379.86,210.8c-3.1.56-5.93,1.07-8.51,1.53-8.88-9.64-18.72-17.22-31.89-20.64-6.08-1.58-12.2-2.62-18.31-2.7-5.57-.07-11.3,1.12-16.72,2.56-12.35,3.3-23.04,9.31-30.94,19.29-.89,1.12-1.87,2.24-3.76,1.21-.96-.53-2.26-.53-3.41-.68-1.02-.13-2.05-.14-3.31-.22,24.65-36.01,85.52-42.55,116.85-.35"
      fill="#010101" />
    <path
      d="M245.88,353.46c-1.4.23-2.37.27-3.25.55-3.62,1.18-5.99.71-8.96-2.48-7.99-8.62-17.84-14.7-29.92-17.44-6.36-1.44-12.61-2.66-19.11-2.28-11.52.67-22.05,3.96-31.85,10.04-5.62,3.49-10.13,7.83-14.54,12.46-.44.46-1.51.67-2.21.56-2.38-.38-4.73-.96-7.44-1.54,14.13-18.25,32.84-28.21,56.55-29.02,25.61-.87,45.36,9.66,60.72,29.16"
      fill="#010101" />
    <path
      d="M540.39,212.24c-2.72-.39-5.54-.79-9.16-1.3,11.61-15.33,26.58-24.99,45.21-28.24,30.21-5.28,56.35,6.44,71.85,28.22-2.44.38-4.7.64-6.92,1.1-3.11.64-3.45-2.1-4.9-3.49-8.48-8.12-17.99-14.72-29.93-17.15-6.26-1.28-12.73-2.56-19.06-2.38-8.08.23-16.16,2.08-23.43,5.67-5.65,2.79-11.06,6.17-16.18,9.79-2.88,2.04-4.97,5.11-7.48,7.79"
      fill="#010101" />
    <path
      d="M463.97,460.52c3.34-3.76,6.04-7.46,9.4-10.48,14.04-12.64,31.05-18.84,50.12-19.02,15.96-.15,30.54,4.86,43.15,14.35,5.61,4.22,10.77,9,14.44,15.25-3.18.53-5.88.99-8.57,1.44-9.44-11.32-21.26-18.78-36.23-21.86-12.46-2.56-24.32-1.49-36.16,2.83-8.17,2.99-15.25,7.38-21.47,13.14-2.01,1.86-3.47,4.8-5.81,5.64-2.13.77-5.12-.65-8.88-1.3"
      fill="#010101" />
    <path
      d="M95.21,143.13c-2.58,1.02-4.92,1.95-6.69,2.65-5.26-3.27-9.96-7.04-15.35-9.29-5.27-2.2-11.19-3.19-16.93-4.08-9.57-1.49-18.36,1.5-26.67,5.64-3.28,1.63-6.2,4.03-8.99,6.39-1.43,1.22-2.54,1.52-4.17.76-1.86-.87-3.77-1.65-5.7-2.48,25.81-27.65,67.63-21.23,84.51.41"
      fill="#010101" />
    <path
      d="M632.6,143.02c-2.74,1.05-5.37,2.05-8,3.06-20.14-19.99-51.79-17.13-68.97-.17-2.65-1.02-5.35-2.06-8.1-3.12,22.36-24.17,62.21-25.01,85.07.23"
      fill="#010101" />
    <path
      d="M498.2,143.13c-2.49.91-4.83,1.81-7.22,2.58-.47.15-1.33-.07-1.67-.42-7.06-7.25-16.01-11.09-25.98-12.65-7.75-1.21-15.5-.59-23.01,1.98-7.16,2.45-13.6,5.96-18.97,11.29-2.61-1.03-5.19-2.04-7.86-3.1,19.77-22.63,61.15-26.53,84.72.32"
      fill="#010101" />
    <path
      d="M556.14,431.48c-3.33-1.29-5.95-2.3-8.62-3.34,21.94-23.94,61.93-25.18,84.97.08-2.53,1.08-4.96,2.2-7.46,3.1-.43.15-1.34-.5-1.82-.98-4.72-4.64-10.29-8.06-16.63-10.19-3.39-1.14-6.96-1.95-10.52-2.41-13.04-1.68-24.68,2.14-35.36,8.98-1.84,1.18-3.1,3.2-4.55,4.75"
      fill="#010101" />
    <path
      d="M229.58,285.51c-1.15.6-2.06,1.12-3.01,1.55-3.25,1.48-5.69,1.37-8.67-1.48-6.12-5.86-14.08-8.86-22.57-10.2-15.68-2.48-29.19,2.11-41.09,11.86-.79.65-2.38.65-3.57.55-1.01-.09-1.95-.79-2.94-1.17-.89-.34-1.81-.6-2.72-.89,16.15-20.76,58.82-28.56,84.56-.22"
      fill="#010101" />
    <path
      d="M297.29,392.74c-3.11,1.07-5.7,1.97-8.33,2.88-20.83-20.31-52.47-16.43-68.86-.14-2.52-.86-5.08-1.74-8.35-2.85,8.54-9.35,18.89-15.22,31.1-17.45,21.25-3.87,39.41,2,54.45,17.56"
      fill="#010101" />
    <path
      d="M162.6,392.68c-.23.24-.29.33-.37.38-5.51,3.63-9.48,1.33-14.03-2.36-7.19-5.84-16.04-8.19-25.48-8.81-12.32-.81-22.88,3.43-32.78,9.76-1.58,1.01-2.64,2.75-3.87,4.06-2.99-1.17-5.51-2.16-8.11-3.17,19.74-23.07,61.51-26.1,84.63.13"
      fill="#010101" />
    <path
      d="M219.69,110.28c-2.39-.94-4.74-1.86-7.76-3.04,7.54-8.56,16.94-14.25,27.92-16.73,22.07-4.98,41.31.3,57.29,16.76-2.86,1.12-5.48,2.14-8.03,3.14-24.19-18.95-44.59-18.95-69.41-.13"
      fill="#010101" />
    <path
      d="M229.51,428.53c-.38.22-.57.31-.74.42-5,3.26-8.58,1.1-12.69-2.18-7.42-5.92-16.28-8.57-26.02-9.16-14-.84-25.58,4.11-36.1,12.31-.75.58-2.21.82-3.15.57-1.93-.51-3.74-1.46-5.61-2.24,18.97-23.1,62.09-26.39,84.31.27"
      fill="#010101" />
    <path
      d="M95.11,428.38c-.22.25-.28.34-.36.39-5.18,3.5-8.99,1.31-13.21-2.18-7.18-5.94-15.96-8.21-25.38-8.97-9.63-.77-18.41,1.49-26.69,5.8-3.17,1.65-6.03,3.9-8.81,6.14-1.5,1.2-2.68,1.59-4.46.73-1.75-.85-3.65-1.42-5.54-2.13,25.68-27.75,67.79-21.28,84.45.22"
      fill="#010101" />
    <path
      d="M632.52,356.7c-4.84,3.39-8.4,3.16-13.15-.86-9.5-8.03-21.46-10.63-34-9.55-8.94.77-17.13,3.96-24.36,9.14-1.98,1.42-3.82,3-5.69,4.48-2.38-.93-4.74-1.86-7.77-3.05,6.91-7.75,15.31-13.11,25.27-15.85,23.15-6.37,43.15-1.15,59.71,15.69"
      fill="#010101" />
    <path
      d="M152.21,145.66c-1.87-.73-4.51-1.75-7.19-2.79,21.4-24.28,62.96-25.2,84.49.27-.87.37-1.72.68-2.51,1.08-3.16,1.57-5.45,1.55-8.6-1.15-7.74-6.62-17.1-10.1-27.66-10.82-9.72-.66-18.62,1.61-27.02,5.85-3.92,1.98-7.36,4.8-11.5,7.56"
      fill="#010101" />
    <path
      d="M162.78,107.5c-.89.27-1.56.33-2.06.63-4.09,2.51-7,1.86-10.68-1.59-5.64-5.29-13.14-7.94-20.93-9.3-8.73-1.52-17.29-.96-25.68,2.19-6.67,2.5-12.6,5.99-17.82,10.72-2.53-.94-5.07-1.89-7.73-2.88,21.37-24.28,62.64-25.05,84.89.23"
      fill="#010101" />
    <path
      d="M430.84,392.87c-1.41.56-2.58,1.04-3.76,1.48-1.18.44-2.39.83-3.85,1.33-9.4-8.85-20.7-13.85-34.35-13.78-13.59.07-25.08,4.66-34.63,13.7-2.66-1-5.28-1.98-7.94-2.98,20.51-24.09,63.65-25.27,84.53.25"
      fill="#010101" />
    <path
      d="M565.63,249.97c-2.77,1.07-4.88,2.07-7.11,2.65-.79.2-2.12-.39-2.79-1.02-10.16-9.54-22.65-13.39-36.46-12.49-10.28.67-19.8,4.46-27.66,11.02-2.47,2.07-4.32,2.9-7.16,1.35-1.1-.6-2.32-1-3.49-1.5,2.74-6.27,19.48-16.1,32.13-17.9,20.52-2.92,37.88,2.82,52.54,17.88"
      fill="#010101" />
    <path
      d="M346.15,107.16c21.48-23.77,63.07-25.23,84.75.29-2.6.99-5.08,1.93-6.68,2.54-5.72-3.44-10.68-7.16-16.25-9.62-9.81-4.32-20.22-5.12-30.8-2.54-8.36,2.04-15.8,5.64-21.93,11.57-.44.43-1.51.66-2.1.47-2.29-.76-4.5-1.73-6.98-2.72"
      fill="#010101" />
    <path
      d="M413.53,213.98c21.53-23.72,62.45-25.21,84.64.53-1.86.66-3.71,1.12-5.35,1.95-1.79.9-2.9.41-4.28-.8-7.62-6.73-16.66-10.46-26.93-11.89-12.12-1.68-22.84,1.54-32.84,7.8-.89.56-2.25.76-2.75,1.51-3.69,5.58-7.95,3.43-12.49.89"
      fill="#010101" />
    <path
      d="M498.16,499.92c-2.37.82-4.61,1.71-6.93,2.32-.63.16-1.66-.35-2.23-.84-7.87-6.98-17.1-10.85-27.76-12.3-11.73-1.6-21.95,1.81-31.78,7.26-1.29.72-2.61,1.43-3.76,2.33q-5.34,4.2-11.98.75c18.52-22.28,61.02-26.81,84.43.48"
      fill="#010101" />
    <path
      d="M480.59,35.72c22.31-24.87,64.3-23.97,84.58.39-2.53.96-4.96,1.88-6.7,2.54-5.59-3.38-10.46-7.07-15.94-9.48-11.78-5.18-23.94-5.7-36.22-1.06-6.25,2.36-12.01,5.3-16.79,9.9-.49.48-1.64.85-2.23.63-2.28-.83-4.45-1.91-6.71-2.92"
      fill="#010101" />
    <path
      d="M363.93,71.72c-1.88.8-3.49,1.64-5.19,2.18-1.96.62-3.58.54-5.32-1.23-6.16-6.29-14.17-9.53-22.81-11.14-15.33-2.85-28.82,1.57-40.98,10.43-.82.6-1.32,1.6-2.24,2.73-2.58-1.02-5.27-2.07-8.01-3.16,19.71-23.34,62.15-25.81,84.55.18"
      fill="#010101" />
    <path
      d="M413.55,356.88c19.88-22.96,61.25-26.16,84.85.2-2.56.89-4.95,1.91-7.44,2.48-.78.18-2.04-.66-2.77-1.33-4.7-4.37-10.17-7.59-16.34-9.51-18.41-5.73-34.81-1.94-49.4,9.97-.64.53-1.92.83-2.7.61-2.01-.57-3.92-1.49-6.2-2.41"
      fill="#010101" />
    <path
      d="M487.98,395.45c-2.15-.84-4.68-1.83-7.24-2.83,18.5-22.76,61.62-26.57,84.3-.05-.18.2-.33.46-.56.61-4.92,3.05-8.54,1.31-12.71-2.07-7.54-6.11-16.65-8.77-26.61-9.23-9.34-.43-17.9,1.8-25.94,5.92-3.97,2.04-7.41,5.01-11.23,7.66"
      fill="#010101" />
    <path
      d="M229.59,357.23c-2.35.87-4.62,2.4-6.81,2.3-1.85-.09-3.74-1.91-5.38-3.24-10.59-8.6-23.15-11.41-36.43-9.86-10.64,1.24-20.34,5.56-27.9,13.59-2.64-1.02-5.25-2.03-7.91-3.06,18.58-23.02,62.09-26.33,84.43.27"
      fill="#010101" />
    <path
      d="M498.04,428.37c-2.68,1.05-5.31,2.08-7.91,3.1-15.25-16.33-46.52-20.87-68.97-.2-2.51-1.06-5.01-2.11-7.57-3.19,19.67-22.7,61.52-26.28,84.45.29"
      fill="#010101" />
    <path
      d="M279.19,427.85c9.24-9.76,20.64-15.76,34.13-17.58,20.08-2.71,36.98,3.44,50.85,18.26-2.6.88-4.81,1.81-7.12,2.29-.8.17-2.03-.61-2.77-1.26-7.39-6.52-16.16-10.5-26-11.77-13.16-1.69-25.2,1.59-35.97,9.06-.35.24-.72.5-.98.82-3.73,4.47-7.73,2.81-12.14.18"
      fill="#010101" />
    <path
      d="M10.56,356.74c21.76-23.87,62.8-24.95,84.76.36-2.62,1.02-5.09,1.99-7.72,3.02-7.57-7.74-17.04-12.21-27.76-13.68-7.68-1.05-15.45-.44-22.9,2.38-6.56,2.48-12.56,5.63-17.56,10.45-.35.33-1.18.56-1.61.4-2.36-.87-4.67-1.88-7.22-2.93"
      fill="#010101" />
    <path
      d="M162.41,250.29c-2.34.82-4.58,1.75-6.92,2.32-.67.16-1.77-.57-2.41-1.14-7.52-6.71-16.41-10.47-26.55-11.93-12.44-1.79-23.5,1.33-33.7,8.01-.79.52-2.02.66-2.49,1.33-3.68,5.26-7.93,3.17-12.22,1.01,18.17-22.73,62.1-26.63,84.29.4"
      fill="#010101" />
    <path
      d="M565.22,321.51c-2.07.74-3.98,1.59-5.99,2.06-.89.21-2.24-.03-2.93-.58-5.39-4.3-11.12-8.03-17.85-10.14-11.1-3.48-22.03-3.34-33,.92-6.37,2.48-12.02,5.77-16.85,10.47-2.7-1.02-5.33-2.02-8.07-3.05,21.4-24.13,63.33-25.03,84.69.32"
      fill="#010101" />
    <path
      d="M632.31,214.2c-.54.3-1.05.62-1.59.88-5.56,2.7-5.79,2.65-10.36-1.27-6.76-5.8-14.91-8.62-23.71-9.97-14.12-2.16-26.56,1.99-37.27,10.39-3.69,2.89-6.27,2.43-9.67.81-.66-.31-1.37-.53-2.04-.79,19.79-22.97,61.15-26.48,84.64-.06"
      fill="#010101" />
    <path
      d="M229.86,499.8c-2.64.94-4.87,1.91-7.2,2.45-.77.18-2.02-.55-2.72-1.19-7.43-6.87-16.35-10.56-26.52-11.89-15.19-2-27.94,2.92-39.33,12.13-.68.55-2.1.71-3.01.47-2.03-.53-3.96-1.42-5.91-2.16,19.08-22.91,60.56-26.54,84.69.2"
      fill="#010101" />
    <path
      d="M353.64,252.62c-2.05-.79-4.47-1.73-6.96-2.7,17.25-21.59,59.79-27.65,84.53.16-2.53.87-4.93,1.83-7.41,2.47-.69.18-1.86-.38-2.45-.95-10.21-9.67-22.83-13.5-36.74-12.46-7.78.58-15.51,2.78-22.04,7.53-2.72,1.98-5.61,3.75-8.92,5.95"
      fill="#010101" />
    <path
      d="M547.67,499.58c20.28-23.15,61.22-26.3,84.58-.12-.1.12-.19.27-.31.36-5.67,4.26-9.86,1.1-14.13-2.43-6.05-5.01-13.54-6.71-21.13-8.21-9.74-1.92-18.84.53-27.51,4.16-4.59,1.93-8.41,5.51-12.66,8.23-.69.44-1.9.59-2.71.35-2.1-.63-4.1-1.54-6.14-2.34"
      fill="#010101" />
    <path
      d="M10.66,499.65c21.56-24.22,62.11-25.44,84.82-.04-.94.47-1.84.98-2.79,1.39-3.49,1.51-6.13,1.37-9.28-1.67-6.36-6.12-14.74-8.87-23.57-10.1-15.45-2.16-28.6,2.76-40.26,12.2-.65.53-2.06.44-3.06.28-.91-.14-1.71-.83-2.61-1.16-.99-.36-2.04-.57-3.25-.9"
      fill="#010101" />
    <path
      d="M363.62,285.73c-.95.47-1.7.87-2.47,1.22-3.32,1.5-5.85,1.49-8.95-1.43-4.96-4.68-11.12-7.95-18.27-8.95-4.65-.65-9.32-1.8-13.97-1.75-9.28.09-17.79,3-25.43,8.12-.7.47-1.75.62-2.2,1.22-3.74,4.97-8.14,4.55-13.03,1,10.01-10.46,22.55-16.71,37.68-17.95,23.12-1.89,40.43,10.1,46.64,18.53"
      fill="#010101" />
    <path
      d="M95.17,285.49c-.65.37-1.12.61-1.54.89-3.66,2.44-6.75,1.87-10.08-.96-9.85-8.36-21.75-11.61-34.59-10.58-10.76.86-20.47,5.01-28.53,12.09-1.4,1.23-2.55,1.58-4.17.89-1.84-.79-3.67-1.58-5.56-2.39,22.14-24.35,62.96-24.64,84.49.05"
      fill="#010101" />
    <path
      d="M430.91,35.82c-.79.45-1.25.7-1.7.96-3.63,2.09-6.71,1.93-10.1-1.01-10.07-8.72-22.39-11.83-35.55-10.52-10.35,1.03-19.8,5.13-27.56,12.07-1.37,1.23-2.4,1.78-4.07.6-.74-.52-1.8-.61-2.7-.92-.8-.27-1.59-.58-2.97-1.08,8.48-9.78,19.23-15.52,31.67-17.58,20.63-3.41,38.56,1.93,52.98,17.47"
      fill="#010101" />
    <path
      d="M363.7,356.97c-.03.09-.03.23-.1.27-4.88,2.88-8.34,1.76-13.09-1.72-16.09-11.83-35.89-12.5-53.65-2.96-3.47,1.87-6.49,4.52-10.26,7.2-1.81-.72-4.41-1.76-7.05-2.82,18.51-23.16,62.52-26.14,84.16.03"
      fill="#010101" />
    <path
      d="M212.29,178.35c20.19-23.01,61.28-25.81,84.6.35-2.11.83-4.08,1.93-6.19,2.3-1.25.22-3.11-.35-4.02-1.21-7.58-7.2-16.93-10.41-27.26-11.74-11.76-1.52-22.16,1.79-31.88,7.78-1.08.66-2.31,1.14-3.27,1.93-4.8,3.97-6.04,4.08-11.98.6"
      fill="#010101" />
    <path
      d="M279.12,499.59c21.21-24.04,63.09-25.36,84.66.22-2.2.86-4.26,1.86-6.45,2.43-.8.21-2.12-.36-2.8-.98-9.97-9.04-22.01-13.17-35.48-12.55-11.02.51-21.01,4.53-29.37,11.62-1.81,1.54-3.1,2.55-5.49,1.02-1.42-.91-3.29-1.17-5.06-1.76"
      fill="#010101" />
    <path
      d="M296.87,464.05c-1.55.66-2.81,1.16-4.03,1.74-2.8,1.33-4.97.7-7.18-1.43-7.03-6.74-16-9.38-25.55-10.97-10.65-1.78-20.15,1.29-29.3,5.79-3.42,1.68-6.28,4.41-9.44,6.59-.64.44-1.65.94-2.27.75-2.29-.69-4.5-1.65-6.81-2.54,18.16-22.03,59.97-27.39,84.59.07"
      fill="#010101" />
    <path
      d="M431.29,321.54c-2.57.87-4.91,1.74-7.32,2.42-.51.14-1.4-.29-1.85-.71-10.6-9.9-23.58-13.64-37.97-12.68-8.98.6-17.12,4.15-24.48,9.18-.09.06-.15.15-.24.21-1.94,1.4-3.78,3.71-5.86,3.93-2.1.22-4.45-1.62-7.31-2.83,7.59-8.6,17.12-14.35,28.14-16.67,21.98-4.62,41.38.26,56.88,17.14"
      fill="#010101" />
    <path
      d="M497.95,285.76c-4.78,3.3-8.62,2.42-13.08-1.33-9.52-8.01-21.31-10.78-33.61-9.54-10.81,1.09-20.82,4.95-28.68,12.73-.49.48-1.75.67-2.47.45-2.19-.68-4.29-1.62-6.45-2.48,18.64-22.62,61.6-26.78,84.3.16"
      fill="#010101" />
    <path
      d="M363.88,143.09c-5.38,3.73-9.26,1.89-13.63-1.84-4.86-4.15-11-6.27-17.49-7.8-10.08-2.38-19.74-1.68-29.07,2.15-4.92,2.02-9.54,4.89-13.92,7.88-2.14,1.46-3.59,2.72-6.16,1.03-1.16-.76-2.74-.93-4.22-1.39,17.87-22.12,60.43-27.63,84.51-.03"
      fill="#010101" />
    <path
      d="M296.79,249.98c-.7.34-1.27.63-1.85.89-5.33,2.36-6.19,2.03-10.61-1.64-5.06-4.2-10.87-7.26-17.58-8.4-4.1-.7-8.21-1.72-12.34-1.8-9.31-.17-17.88,2.65-25.76,7.29-2.72,1.6-5.13,3.69-7.78,5.43-.62.41-1.69.57-2.41.38-2.14-.57-4.22-1.38-6.3-2.09,17.67-21.83,59.61-27.79,84.61-.06"
      fill="#010101" />
    <path
      d="M85.3,38.82c-2.34-.92-4.77-1.87-7.21-2.83,14.24-18.94,56.53-29.91,84.76-.06-2.64,1.02-5.08,2.1-7.62,2.83-.6.17-1.69-.72-2.34-1.33-10.71-9.91-23.86-13.44-38.21-12.16-8.85.79-17.13,4.2-24.27,9.61-1.69,1.28-3.35,2.59-5.11,3.95"
      fill="#010101" />
    <path
      d="M564.93,107.35c-.13.14-.22.33-.38.43-5.02,2.96-8.69,1.4-12.99-2.17-7.11-5.9-16-8.33-25.39-9.04-9.64-.73-18.59,1.51-26.93,5.84-3.97,2.06-7.42,5.01-11.28,7.68-2.1-.82-4.64-1.81-7.21-2.81,19.72-23.85,63.15-25.56,84.18.07"
      fill="#010101" />
    <path
      d="M229.55,214.56c-2.45.89-4.48,1.81-6.62,2.31-.82.19-2.12-.37-2.79-1-9.62-8.94-21.37-12.96-34.48-12.51-8.64.3-17.1,2.44-24.32,7.59-2.48,1.77-4.93,3.61-7.51,5.23-.7.44-1.94.45-2.79.21-2-.58-3.92-1.43-5.87-2.17,20.26-24.35,63.34-25.11,84.38.34"
      fill="#010101" />
    <path
      d="M430.61,178.9c-1.13.51-2.23,1.09-3.4,1.5-2.77.96-4.91.8-7.41-1.5-7.15-6.6-16.12-9.51-25.89-10.9-10.54-1.5-19.9,1.47-28.97,5.84-3.21,1.55-6.16,3.71-8.94,5.92-1.54,1.23-2.62,1.75-4.49.73-1.58-.87-3.43-1.29-5.31-1.96,12.85-13.96,29.19-19.62,47.77-18.38,19.66,1.31,34.08,13.58,36.64,18.76"
      fill="#010101" />
    <path
      d="M346.25,463.82c12.97-13.86,29.07-19.73,47.39-18.26,16.37,1.31,34.67,11.62,36.96,18.77-1.05.44-2.1.9-3.17,1.32-2.88,1.11-5.1,1.02-7.69-1.43-5.23-4.96-11.84-7.65-19.01-9.64-11.29-3.14-21.92-1.49-32.22,2.8-4.38,1.82-8.09,5.1-12.11,7.72-1.49.97-2.8,2.13-4.87.8-1.42-.91-3.22-1.29-5.29-2.07"
      fill="#010101" />
    <path
      d="M632.07,71.55c-4.74,3.77-8.57,2.72-12.87-1.22-6.18-5.67-14.32-8.23-22.62-9.28-7.92-1-15.85-.21-23.46,2.81-6.62,2.63-12.67,5.95-17.7,10.77-2.68-1.05-5.22-2.04-7.8-3.05,20.8-23.6,62.22-25.79,84.45-.02"
      fill="#010101" />
    <path
      d="M632.32,285.76c-1.65.7-3.31,1.33-4.9,2.08-3.77,1.76-5.49-1.55-7.49-3.14-6.54-5.22-14.1-7.88-22.28-9.38-11.31-2.08-21.71.61-31.59,5.61-3,1.52-5.79,3.51-8.38,5.62-1.62,1.32-2.73,2.23-4.86.86-1.36-.88-3.14-1.15-4.75-1.71,16.35-21.51,59.99-28.05,84.24.05"
      fill="#010101" />
    <path
      d="M480.61,178.49c26.6-28.51,69.31-20.4,84.41.58-2.52.84-5,1.68-7.67,2.57-5.11-5.07-11.18-9.2-18.4-11.15-5.61-1.52-11.55-3.01-17.28-2.84-11.59.34-22.1,4.42-30.91,11.77-2.03,1.69-3.5,1.9-5.64.94-1.44-.65-2.92-1.21-4.51-1.87"
      fill="#010101" />
    <path
      d="M95.41,214.18c-1.37.7-2.67,1.59-4.12,2.06-2.49.81-4.57.85-6.86-1.39-6.93-6.76-15.86-9.54-25.48-11.13-9.48-1.56-18.11.89-26.54,4.17-4.08,1.59-7.87,4.21-11.26,6.96-2.14,1.73-3.62,2.47-6.08.97-1.22-.75-2.76-1.02-4.15-1.51,18.25-22.35,60.44-27.09,84.49-.14"
      fill="#010101" />
    <path
      d="M162.5,178.66c-.6.31-.99.48-1.33.7-4.79,3.04-8.14.85-11.98-2.25-6.86-5.53-15.19-7.89-24.07-9.13-9.96-1.38-18.89,1.3-27.54,5.24-3.52,1.6-6.69,4.07-9.66,6.54-1.8,1.49-3.15,1.78-5.14.7-1.47-.8-3.1-1.34-4.67-2,16.83-20.85,59.15-28.04,84.4.19"
      fill="#010101" />
    <path
      d="M296.49,35.77c-5.46,4.88-9.19,1.38-13.83-1.85-12.04-8.4-25.52-11.02-40.18-7.28-8.69,2.22-16.16,6.36-22.74,12.21-2.41-.94-4.83-1.9-7.28-2.86,16.07-21.15,59.54-28.12,84.03-.22"
      fill="#010101" />
    <path
      d="M85.41,324.18c-2.42-.95-4.85-1.9-7.28-2.85,17.29-22.25,61.75-27.2,84.2.24-2.61.88-5.36,2.73-7.71,2.34-2.29-.38-4.04-3.22-6.22-4.7-12.13-8.27-25.5-10.93-39.95-7.29-10.57,2.66-15.26,5.89-23.04,12.27"
      fill="#010101" />
    <path
      d="M296.42,321.14c-5.52,4.82-9.25,1.37-13.88-1.95-10.37-7.43-22.28-10.08-35.24-8.21-10.74,1.55-19.75,6.25-27.56,13.18-2.42-.94-4.78-1.87-7.12-2.78,14.64-20.77,59.49-28.62,83.79-.25"
      fill="#010101" />
    <path
      d="M151.9,74.21c-1.61-.62-4.15-1.61-6.74-2.61,19.27-23.18,62.05-26.15,84.15.03-5.05,3.87-8.82,2.25-13.26-1.67-5.55-4.89-12.76-7.28-20.26-8.48-9.54-1.53-18.93-.98-27.63,3.22-5.48,2.64-10.52,6.12-16.27,9.52"
      fill="#010101" />
    <path
      d="M498.34,71.83c-2.57.88-5,1.81-7.5,2.49-.57.15-1.55-.42-2.07-.91-10.9-10.3-24.35-13.92-39.09-12.41-9.9,1.02-18.89,5.19-26.37,11.7-1.78,1.55-3.04,1.77-4.98.72-1.37-.74-2.89-1.25-4.35-1.87,18.02-22.82,61.43-26.31,84.35.27"
      fill="#010101" />
    <path
      d="M95.3,71.52c-.45.33-.52.41-.62.46-6.29,3.1-6.69,2.88-12.12-1.39-10.65-8.37-23.02-11.47-36.48-9.1-13.92,2.45-16.28,3.93-27.6,13.09-2.36-.91-4.73-1.83-7.85-3.04,8.29-9.41,18.77-15.24,30.83-17.38,20.9-3.71,39.18,1.64,53.85,17.37"
      fill="#010101" />
    <path
      d="M363.67,214.36c-4.38,2.35-7.54,3.18-12.02-.7-8.95-7.76-20.39-10.9-32.37-10.3-10.98.54-21.09,4.31-29.41,11.47-2.18,1.87-3.82,2.62-6.39,1.06-1.29-.78-2.83-1.16-4.36-1.76,23.42-25.13,64.3-23.9,84.55.24"
      fill="#010101" />
    <path
      d="M480.6,463.92c22.55-25.1,63.78-24.35,84.54.32-2.42.82-4.66,1.76-7.01,2.27-.77.16-1.98-.64-2.69-1.3-7.37-6.84-16.37-10.26-26.33-11.78-12.18-1.86-23.04,1.25-32.98,7.9-2.27,1.52-4.49,3.14-6.81,4.58-.59.37-1.6.52-2.26.32-2.13-.64-4.19-1.49-6.46-2.33"
      fill="#010101" />
    <path
      d="M162.5,464c-.57.32-.94.5-1.29.72-4.77,2.98-8.19,1.01-11.99-2.23-6.21-5.31-14.06-7.58-22.13-9.03-12.21-2.18-23.06,1.43-33.38,7.26-1.1.62-2.61,1.01-3.23,1.94-3.68,5.56-7.98,3.37-12.31,1.09,16.87-20.69,58.66-28.04,84.34.25"
      fill="#010101" />
    <path
      d="M550.68,42.05c-.26.35-.36.55-.51.68-3.65,3.23-6.86,3.79-11.54.7-7.42-4.89-16.1-5.24-24.63-2.63-4.31,1.32-8.36,3.4-12.85,5.28-1.72-1.09-3.92-2.49-6.12-3.88,13.9-13.67,40.74-14.5,55.66-.15"
      fill="#010101" />
    <path
      d="M501.61,331.77c-2.43-1.56-4.47-2.87-6.49-4.17,14.45-14.55,42.28-13.89,55.63.11-1.89,1.18-3.68,2.43-5.62,3.42-.58.3-1.79.08-2.37-.34-6.99-5.01-14.97-6.57-23.41-5.83-5.09.44-10.06,1.74-14.26,4.88-1.08.8-2.38,1.34-3.47,1.94"
      fill="#010101" />
    <path
      d="M92.14,327.65c13.97-13.51,41.53-14.88,55.55-.2-3.56,4.22-6.9,3.93-12,1.19-11.59-6.23-23.47-5.29-34.55,2.02-1.39.92-2.41,1.26-3.9,0-1.4-1.19-3.22-1.93-5.11-3.01"
      fill="#010101" />
    <path
      d="M360.83,42.26c14.14-13.86,40.77-14.52,55.64-.02-2.2,1.46-4.35,2.89-6.42,4.26-14.47-9.9-28.71-9.16-42.74-.02-2.3-1.5-4.4-2.86-6.48-4.22"
      fill="#010101" />
    <path
      d="M483.7,77.69c-3.71,3.48-6.73,4.57-12.02,1.55-12.63-7.21-25.29-4.9-37.16,2.91-2.15-1.4-4.32-2.82-6.52-4.25,10.28-10.44,36.71-17.31,55.7-.21"
      fill="#010101" />
    <path
      d="M147.68,42.08c-3.66,4.49-7.07,3.75-12.22,1.06-11.58-6.04-23.46-5.12-34.48,2.28-1.21.81-2.25,1.18-3.63-.07-1.29-1.16-3.04-1.84-4.58-2.76-.15-.09-.18-.35-.26-.54,14.21-13.98,42.03-13.96,55.17.03"
      fill="#010101" />
    <path
      d="M349.61,77.86c-2.35,1.52-4.46,2.88-6.68,4.31-14.21-9.87-28.53-9.41-42.64-.06-2.28-1.45-4.4-2.8-6.53-4.14,10.37-11.16,36.96-16.98,55.85-.11"
      fill="#010101" />
    <path
      d="M416.45,113.69c-1.84,1.26-3.37,2.61-5.17,3.41-.84.37-2.45,0-3.28-.59-5.44-3.87-11.73-5.67-18.25-6-6.96-.36-13.55,1.8-19.32,5.58-2.23,1.46-3.76,1.57-5.73-.1-1.18-1-2.63-1.72-3.98-2.57,15.52-14.17,42.31-13.82,55.74.27"
      fill="#010101" />
    <path
      d="M434.52,367.51c-2.18-1.45-4.27-2.84-6.36-4.23,8.36-10.1,36.62-17.77,55.66-.11-.61.4-1.26.71-1.74,1.17-3.29,3.14-6.19,3.15-10.01.21-3.85-2.96-8.93-3.43-13.86-3.99-8.97-1.02-16.38,2.28-23.69,6.95"
      fill="#010101" />
    <path
      d="M282.43,398.84c-1.95,1.31-3.7,2.71-5.67,3.68-.74.36-2.23,0-3.03-.52-9.65-6.34-19.92-7.99-30.92-3.76-2.44.94-4.72,2.3-7,3.59-1.64.93-3.13,1.4-4.8.08-1.31-1.03-2.75-1.91-4.48-3.11,7.87-7.33,17.37-10.32,27.95-10.55,10.69-.24,19.86,3.58,27.96,10.58"
      fill="#010101" />
    <path
      d="M550.74,398.99c-2.32,1.49-4.43,2.86-6.78,4.37-5.33-5.01-12.27-6.82-19.41-7.49-7.01-.66-13.53,1.89-19.5,5.17-2.6,1.42-4.34,2.54-6.65-.13-.82-.94-2.31-1.35-3.6-2.05,17.85-15.67,43.83-12.41,55.93.14"
      fill="#010101" />
    <path
      d="M568.49,81.82c-1.89-1.16-4.02-2.46-6.18-3.78,12.85-13.35,40.86-15.34,55.3-.24-4.1,5.52-8.19,3.05-13.12.56-8.21-4.15-17.08-4.9-25.89-1.17-3.37,1.42-6.65,3.04-10.11,4.63"
      fill="#010101" />
    <path
      d="M233.4,46.39c-2.23-1.36-4.45-2.71-6.7-4.08,12.93-13.15,40.16-15.38,55.58,0-.06.06-.11.13-.17.19-4.17,3.94-7.73,2.92-12.79.39-12.37-6.21-24.63-4.26-35.93,3.5"
      fill="#010101" />
    <path
      d="M360.68,256.22c13.89-13.43,40.61-14.71,55.77-.26-3.77,4.41-7.39,3.98-12.66,1.16-11.49-6.14-23.2-5.08-34.13,2.21-1.42.95-2.7,1.33-4.25-.22-1.21-1.21-3.02-1.88-4.74-2.9"
      fill="#010101" />
    <path
      d="M483.75,434.44c-2.17,1.52-4.3,3.02-6.55,4.59-6.59-5.22-14.29-7.75-22.81-7.47-5.83.19-11.43,1.96-16.18,5.14-2.61,1.75-4.46,1.94-6.82.18-1.01-.75-2.12-1.37-3.19-2.04,9.42-11.88,38.13-16.73,55.54-.4"
      fill="#010101" />
    <path
      d="M81.03,149.08c-.14.16-.25.35-.41.48-3.79,3.25-6.74,3.52-11.87.66-10.73-5.97-22.28-5.53-33.12,1.02-.63.38-1.28.75-1.92,1.11-.64.37-1.29.72-1.83,1.03-2.28-1.42-4.59-2.86-6.93-4.32,15.01-13.33,40.36-14.63,56.09.01"
      fill="#010101" />
    <path
      d="M233.24,117.84c-2.23-1.44-4.33-2.78-6.72-4.32,7.82-7.65,17.54-10.23,28.01-10.59,10.68-.37,19.84,3.59,27.9,10.52-1.85,1.24-3.7,2.63-5.71,3.74-.62.34-1.99.27-2.52-.17-5.29-4.36-11.79-5.9-18.37-6.5-6.75-.62-13.03,1.78-18.9,4.93-1.3.7-2.48,1.59-3.7,2.39"
      fill="#010101" />
    <path
      d="M494.84,470.27c12.06-11.68,37.7-16.3,56.1-.34-2.03,1.4-3.89,2.86-5.96,4-.58.32-1.91-.07-2.6-.54-11.64-7.79-25.95-8.54-38.36-.28-.89.59-2.72.4-3.89,0-1.77-.62-3.34-1.76-5.29-2.84"
      fill="#010101" />
    <path
      d="M416.29,398.99c-.2.26-.25.36-.34.42-3.28,2.49-6,4.41-10.59,1.07-5.14-3.74-11.79-5.12-18.32-4.62-6.3.49-12.33,2.46-17.58,6.06-1.63,1.12-2.91.84-4.34-.21-1.44-1.05-2.96-2-4.46-3,17.01-14.91,43.56-12.89,55.62.28"
      fill="#010101" />
    <path
      d="M483.75,149.08c-2.17,1.52-4.32,3.02-6.61,4.61-6.57-5.24-14.32-7.81-22.78-7.45-5.97.25-11.74,2.01-16.73,5.46-1.81,1.25-3.42,2.02-5.41.16-1.18-1.1-2.77-1.8-4.23-2.71,13.44-13.06,39.85-14.87,55.76-.08"
      fill="#010101" />
    <path
      d="M226.71,256.08c14.9-14.36,42.49-13.43,55.6.21-1.56,1.07-3,2.38-4.71,3.12-1,.43-2.74.4-3.61-.17-6.91-4.55-14.6-6.81-22.79-5.7-4.82.65-9.55,2.67-13.99,4.74-2.79,1.3-4.93,2.54-7.51,0-.86-.85-1.97-1.47-3-2.21"
      fill="#010101" />
    <path
      d="M360.75,327.7c14.19-14.13,41.03-14.41,55.72-.11-2.2,1.47-4.34,2.89-6.64,4.43-7.4-6.54-16.36-7.98-25.65-6.97-4.28.46-8.64,2.27-12.42,4.37-3.2,1.78-5.55,2.47-8.34-.15-.72-.68-1.76-1.05-2.66-1.56"
      fill="#010101" />
    <path
      d="M166.06,296.04c-2.38-1.49-4.52-2.82-6.66-4.15,12.67-12.75,39.53-15.09,55.81-.15-1.87,1.36-3.62,2.81-5.57,3.95-.52.3-1.78-.17-2.48-.61-6.46-4-13.39-6.26-21.2-5.98-5.69.2-10.8,2.03-15.74,4.49-1.5.75-2.89,1.7-4.16,2.46"
      fill="#010101" />
    <path
      d="M31.66,296.04c-2.36-1.52-4.4-2.84-6.42-4.14,13.35-14.04,42.08-13.95,55.59.01-1.91,1.32-3.72,2.71-5.7,3.84-.47.27-1.63-.15-2.22-.58-7.06-5.04-15.14-7.01-23.66-5.89-4.73.63-9.24,2.89-13.79,4.55-1.37.5-2.55,1.46-3.79,2.19"
      fill="#010101" />
    <path
      d="M98.92,117.74c-2.24-1.44-4.34-2.79-6.44-4.14,10.66-11.69,37.88-16.5,55.74-.08-2.18,1.45-4.33,2.88-6.59,4.39-14.19-9.94-28.53-9.8-42.71-.17"
      fill="#010101" />
    <path
      d="M349.52,291.94c-1.89,1.18-3.66,2.51-5.63,3.41-.8.36-2.3.12-3.07-.4-10.52-7.15-21.68-7.41-33.32-3.05-.59.22-1.24.49-1.66.92-4.51,4.47-8.34,2.29-11.97-1.17,13.23-13.39,41.35-14.04,55.66.29"
      fill="#010101" />
    <path
      d="M360.46,470.13c7.78-6.6,16.52-9.99,26.59-10.43,10.69-.46,19.99,2.67,28.17,9.22,1.44,1.16,1.39,1.58-.12,2.31-.38.18-.65.55-.99.81-2.64,2.04-4.77,2.38-8.13.26-11.63-7.35-23.68-6.5-35.3.22-2.58,1.49-4.26,1.62-6.44-.11-1.05-.83-2.33-1.41-3.79-2.28"
      fill="#010101" />
    <path
      d="M550.92,256.13c-2.05,1.41-3.74,2.9-5.73,3.8-.81.36-2.42-.34-3.4-.95-12.35-7.64-24.71-7.57-37.12-.21-2.06,1.22-3.91,1.7-5.94-.11-1.07-.95-2.46-1.56-3.72-2.34,10.47-11.11,37.35-16.82,55.92-.18"
      fill="#010101" />
    <path
      d="M80.89,78.05c-2.45,1.51-4.67,2.87-6.82,4.2-5.53-4.52-11.73-6.5-18.69-7.06-7.83-.63-14.66,1.42-20.98,5.61-1.43.95-2.89,1.37-4.52.09-1.48-1.15-3.18-2.04-4.84-3.08,18.31-15.87,44.01-12.04,55.86.24"
      fill="#010101" />
    <path
      d="M148.18,398.74c-2.35,1.65-4.41,3.1-6.52,4.58-14.31-10.15-28.64-9.67-42.78-.24-2.19-1.4-4.24-2.7-6.27-4,10.41-12,37.74-16.49,55.57-.34"
      fill="#010101" />
    <path
      d="M80.82,220.16c-3.79,4.84-7.41,4.06-12.7,1.2-10.85-5.88-22.26-5.04-32.84,1.4-2.57,1.57-4.39,2.04-6.71,0-.99-.88-2.32-1.41-3.83-2.29,8.25-6.81,17.38-10.36,28.17-10.43,10.83-.07,19.99,3.53,27.9,10.12"
      fill="#010101" />
    <path
      d="M159.23,362.9c20.96-16.89,46.04-10.1,55.78.39-2.19,1.42-4.37,2.84-6.71,4.36-6.02-5.53-13.79-7.41-21.5-7.34-5.49.05-11.4,2.1-16.3,4.69-3.83,2.03-6.21,2.06-9.12-.56-.61-.55-1.36-.97-2.15-1.52"
      fill="#010101" />
    <path
      d="M31.97,367.39c-2.35-1.43-4.6-2.8-6.88-4.2,17.02-15.59,43.53-12.46,55.78.12-2.29,1.48-4.53,2.92-6.55,4.22-14.39-9.89-28.42-9.52-42.35-.14"
      fill="#010101" />
    <path
      d="M568.36,367.13c-1.73-1.11-3.83-2.46-5.93-3.82,11.76-12.77,40.32-15.47,55.31-.03-1.83,1.22-3.54,2.55-5.45,3.52-.68.34-2.11.1-2.76-.4-5.59-4.28-12.28-5.82-19.08-6.22-3.67-.22-7.56,1.07-11.16,2.23-3.68,1.19-7.13,3.05-10.92,4.72"
      fill="#010101" />
    <path
      d="M215.1,434.76c-2.31,1.49-4.43,2.85-6.66,4.29-6.57-5.28-14.28-8.08-22.76-7.37-4.96.41-10.06,1.99-14.56,4.1-5.62,2.64-7.21,2.9-11.67-1.47,15.79-14.1,42.17-13.63,55.64.45"
      fill="#010101" />
    <path
      d="M92.62,470.05c14.37-14,40.55-13.85,55.65.28-2.06,1.2-3.97,2.5-6.06,3.42-.68.3-1.97-.21-2.76-.69-6.2-3.79-12.95-6.46-20.28-5.63-5.4.61-10.83,2.31-15.82,4.44-5.38,2.3-6.36,2.58-10.74-1.81"
      fill="#010101" />
    <path
      d="M293.6,149.12c14.84-13.24,39.9-14.66,55.78-.07-2.2,1.58-4.35,3.13-6.54,4.71-6.48-5.43-14.14-7.96-22.31-7.42-5.24.35-10.55,2.31-15.41,4.43-3.19,1.39-5.63,3.28-8.69.2-.71-.72-1.74-1.15-2.83-1.84"
      fill="#010101" />
    <path
      d="M159.31,149.03c16.64-14.47,42.19-13.35,55.78.31-2.2,1.44-4.36,2.85-6.65,4.35-6.29-5.06-13.68-7.56-21.84-7.49-6.07.06-11.88,1.89-16.89,5.09-2.89,1.84-4.94,1.7-7.37-.18-.91-.7-1.91-1.31-3.04-2.08"
      fill="#010101" />
    <path
      d="M494.78,113.44c16.64-14.4,42.21-13.62,55.9.18-2.19,1.43-4.36,2.85-6.7,4.38-5.39-5.06-12.34-6.91-19.48-7.49-7.09-.58-13.77,1.79-19.75,5.35-2.42,1.44-4,2.18-6.12-.2-.9-1.01-2.48-1.46-3.85-2.23"
      fill="#010101" />
    <path
      d="M483.47,291.83c-.77.64-1.39,1.22-2.07,1.71-2.52,1.81-4.56,2.71-7.99.57-11.73-7.33-23.87-6.67-35.63.15-2.36,1.37-3.95,1.77-6.06,0-1.09-.92-2.47-1.53-3.75-2.29,12.62-13.26,41.17-14.84,55.5-.14"
      fill="#010101" />
    <path
      d="M282.12,327.47c-3.76,3.94-6.94,3.95-12.14,1.17-12.32-6.58-23.68-5.53-36.53,3.13-2.19-1.33-4.42-2.68-6.67-4.04,11.53-12.6,39.62-15.9,55.35-.27"
      fill="#010101" />
    <path
      d="M617.95,434.38c-2.01,1.34-3.92,3.53-6.06,3.76-1.88.2-4.05-1.74-6.03-2.84-9.69-5.39-24.88-4.61-33.84,1.72-1.77,1.25-3.66,2-5.71.17-1.08-.95-2.5-1.55-3.77-2.3,8.26-10.9,36.7-17.62,55.41-.49"
      fill="#010101" />
    <path
      d="M349.28,220.5c-6.19,4.2-5.97,3.78-12.5.63-7.09-3.42-14.84-4.96-22.73-2.53-3.81,1.17-7.5,2.87-11.01,4.72-2.07,1.09-3.55,1.37-5.37-.23-1.08-.95-2.47-1.57-3.73-2.34,10.92-12.68,39.88-15.71,55.35-.26"
      fill="#010101" />
    <path
      d="M617.73,291.73c-3.67,3.77-6.81,4.22-11.9,1.29-10.97-6.31-22.66-5.2-33.49.97-2.89,1.65-4.75,1.89-7.14-.06-.88-.72-1.85-1.35-2.78-2.02,11.23-12.6,40.36-15.3,55.32-.19"
      fill="#010101" />
    <path
      d="M617.99,220.46c-.23.27-.29.36-.37.43-3.76,3.31-7.01,3.6-11.88.74-9.89-5.81-20.58-5.14-30.99-.46-.48.22-.97.44-1.39.75-4.7,3.35-7.3,2.9-10.87-1.91,15.11-13.15,40.35-13.74,55.5.46"
      fill="#010101" />
    <path
      d="M427.96,220.17c18.62-15.64,43.97-11.51,55.62.33-.07.08-.12.18-.21.24-5.91,3.98-5.67,3.53-12.2.4-8.18-3.92-16.94-5.09-25.79-1.65-2.75,1.07-5.4,2.42-8.02,3.78-3.01,1.56-5.54.82-9.4-3.09"
      fill="#010101" />
    <path
      d="M215.26,77.98c-1.99,1.28-3.7,2.49-5.54,3.5-.57.31-1.75.38-2.18.02-6.04-4.89-13.45-6.42-20.88-6.65-5.8-.18-11.52,1.82-16.61,4.85-1.35.81-2.67,1.67-3.96,2.48-2.33-1.49-4.52-2.9-6.71-4.3,14.06-13.65,40.95-14.24,55.88.09"
      fill="#010101" />
    <path
      d="M618.2,149.11c-2.05,1.34-3.94,2.84-6.08,3.82-.75.34-2.31-.34-3.19-.95-5.96-4.13-12.77-6.25-19.89-5.65-5.28.45-10.71,2.12-15.46,4.41-3.59,1.73-6.19,2.57-9.26-.21-.51-.46-1.24-.7-1.89-1.04,8.32-10.55,36.16-17.69,55.77-.38"
      fill="#010101" />
    <path
      d="M360.5,184.8c5.63-5.07,12.22-8.19,19.45-9.69,6.55-1.36,13.29-1.35,19.85.51,5.83,1.65,11.02,4.44,15.66,8.16.38.3.74,1.31.63,1.4-1.43,1.06-3.04,1.9-4.41,3-1.96,1.57-2.97.17-4.52-.77-9.17-5.55-18.93-7.42-29.32-3.44-2.94,1.13-5.62,2.87-8.55,4.02-1,.39-2.53.11-3.61-.33-1.74-.71-3.32-1.81-5.16-2.86"
      fill="#010101" />
    <path
      d="M349.41,434.47c-1.91,1.31-3.54,2.7-5.42,3.59-.77.36-2.28-.11-3.14-.65-5.88-3.68-12.29-5.84-19.3-5.86-6.55-.01-12.72,1.85-18.08,5.41-2.46,1.63-4.27,1.2-6.34-.05-1.17-.7-2.23-1.58-3.36-2.39,13.5-13.08,39.72-15.01,55.65-.07"
      fill="#010101" />
    <path
      d="M293.56,363.35c8.92-9.93,36.73-17.91,55.96-.21-2.19,1.46-4.33,2.88-6.79,4.52-5.34-4.89-12.27-6.67-19.39-7.43-3.39-.36-7.1.33-10.41,1.32-3.62,1.08-7,2.93-10.37,4.66-1.66.85-2.82,1.21-4.4-.23-1.25-1.14-3.02-1.76-4.6-2.64"
      fill="#010101" />
    <path
      d="M275.67,474.65c-10.82-8.5-25.47-9.99-38.17-2.81-4.89,2.77-6.5,2.53-10.69-2.06,9.3-8.09,20.38-11.03,32.63-9.98,8.05.69,15.08,4.16,21.4,8.88.42.31.38,2.01-.07,2.41-1.56,1.35-3.39,2.41-5.09,3.56"
      fill="#010101" />
    <path
      d="M148,256.24c-.32.36-.45.53-.61.67-3.64,3.01-6.58,3.04-11.28.47-10.93-5.97-22.55-5.77-33.4.94-2.89,1.79-5.06,1.94-7.56-.17-.86-.73-1.82-1.35-2.76-2.03,15.75-14.76,42.63-13.13,55.61.11"
      fill="#010101" />
    <path
      d="M80.66,434.58c-.18.28-.21.4-.28.44-2.12,1.2-4.27,3.36-6.37,3.31-2.22-.05-4.32-2.33-6.59-3.42-11.17-5.4-21.91-4.25-32.27,2.07-2.02,1.23-3.93,1.8-6.05.06-1.19-.99-2.67-1.66-4.04-2.5,15.62-14.58,42.52-13.63,55.6.04"
      fill="#010101" />
    <path
      d="M92.31,184.69c7.96-7.04,17.22-10.2,27.8-10.36,10.71-.16,19.84,3.41,28.19,10.57-2.23,1.31-4.27,2.67-6.47,3.69-.54.25-1.72-.48-2.47-.95-6.18-3.83-12.91-6.04-20.28-5.7-6.35.29-12.23,2.24-17.56,5.7-1.4.91-3.01,1.98-4.79.04-1.08-1.19-2.75-1.89-4.42-2.98"
      fill="#010101" />
    <path
      d="M159.43,220.47c13.58-13.27,40.8-14.52,55.57.1-1.88,1.29-3.62,2.76-5.63,3.71-.71.34-2.22-.41-3.13-.99-11.21-7.13-23.18-8.03-34.54-1.57-5.22,2.97-8.14,1.66-11.93-.88-.09-.06-.14-.16-.33-.38"
      fill="#010101" />
    <path
      d="M283.23,184.31c-3.07,1.98-5.35,3.45-7.48,4.82-9.11-6.38-18.95-9.25-29.96-5.89-3.82,1.16-7.33,3.22-10.99,4.87-1.51.68-7.53-1.6-7.88-3.08-.09-.38.43-1,.82-1.36,5.03-4.61,11.24-7.18,17.88-8.52,7.33-1.48,14.89-1.7,21.93,1.15,5.26,2.12,10.13,5.12,15.68,7.99"
      fill="#010101" />
    <path
      d="M550.62,184.83c-1.62,1.19-2.94,2.5-4.56,3.21-1.04.45-2.84.48-3.72-.1-7.99-5.27-16.68-7.61-26.15-5.15-4.33,1.12-8.28,3.56-12.5,5.19-1.11.43-2.73.45-3.79-.02-1.71-.75-3.15-2.06-4.7-3.13,13.03-12.79,39.65-15.2,55.42,0"
      fill="#010101" />
    <path
      d="M306.42,300.21c7.06-5.86,21.94-6.66,30.31-.04-1.86,1.66-3.75,3.34-6.01,5.36-5.7-3.13-12.3-3.17-18.89.38-1.83-1.92-3.62-3.82-5.41-5.7"
      fill="#010101" />
    <path
      d="M172,14.76c10.94-6.87,23.8-5.41,30.32.06-1.82,1.7-3.67,3.42-5.79,5.41-5.86-2.91-12.37-3.39-18.75.35-1.89-1.9-3.77-3.8-5.77-5.81"
      fill="#010101" />
    <path
      d="M311.76,19.87c-1.73-1.63-3.57-3.36-5.38-5.06,8.82-6.69,23.43-5.73,30.31,0-1.83,1.7-3.68,3.41-5.46,5.05-2.92-.53-6.25-1.62-9.59-1.63-3.33-.01-6.67,1.05-9.88,1.63"
      fill="#010101" />
    <path
      d="M439.56,15.2c11.25-6.43,21.46-6.79,31.68-.34-.91,1.06-1.74,2.05-2.59,3.02-1.56,1.81-2.91,2.87-5.8,1.47-4.54-2.19-9.52-2.05-14.16.13-2.2,1.04-3.62.72-5.11-1.09-.92-1.11-2.31-1.87-4.03-3.2"
      fill="#010101" />
    <path
      d="M68.28,228.9c-1.79,1.94-3.41,3.7-5.22,5.66-6.43-3.44-13.05-3.46-19.49-.13-1.9-1.9-3.75-3.75-5.59-5.58,6.63-5.66,21.91-6.72,30.3.05"
      fill="#010101" />
    <path
      d="M537.96,264.56c-1.82,1.74-3.65,3.49-5.62,5.36-6.1-2.86-12.54-3.32-19.09.42-1.54-2.03-3.1-4.09-4.74-6.24,4.16-4.69,21.21-6.9,29.44.46"
      fill="#010101" />
    <path
      d="M471.27,300.32c-2.03,1.74-3.88,3.33-6.12,5.24-5.8-3.24-12.45-3.28-19.06.42-1.9-1.85-3.72-3.62-5.54-5.38,5.8-5.87,22.02-7.42,30.72-.28"
      fill="#010101" />
    <path
      d="M372.78,122.33c9.89-7.55,25.83-5.89,31.45.42-1.48,1.23-2.94,2.61-4.58,3.74-.63.43-1.86.67-2.5.37-5.32-2.49-10.61-2.91-15.97-.18-1.64.84-2.92.63-4.21-.8-1.19-1.33-2.75-2.36-4.19-3.56"
      fill="#010101" />
    <path
      d="M244.79,270.13c-2.05-1.8-3.94-3.47-5.84-5.14,6.79-6.62,23.36-6.84,30.52-.3-1.61,1.87-3.24,3.75-4.86,5.62-6.65-3.23-13.15-3.57-19.82-.18"
      fill="#010101" />
    <path
      d="M507.44,122.23c7.69-6.73,24.48-6.65,31.23.68-1.66,1.32-3.3,2.78-5.11,3.98-.5.33-1.63.13-2.32-.16-5.37-2.27-10.66-2.73-16.11-.13-.86.41-2.56-.07-3.5-.66-1.5-.95-2.69-2.35-4.19-3.72"
      fill="#010101" />
    <path
      d="M171.66,86.53c8.94-6.82,23.36-6.6,31.6.47-1.69,1.33-3.27,2.74-5.04,3.88-.61.4-1.83.43-2.53.12-5.48-2.45-10.87-2.47-16.38-.06-.79.35-2.24.07-3-.44-1.62-1.09-2.98-2.51-4.64-3.97"
      fill="#010101" />
    <path
      d="M471.18,229.21c-1.93,1.88-3.69,3.59-5.43,5.28-6.57-3.26-13.06-3.59-19.22,0-2.03-2.02-3.9-3.88-5.74-5.71,9.44-6.76,23.2-5.68,30.4.42"
      fill="#010101" />
    <path
      d="M202.81,228.81c-1.96,2.02-3.7,3.81-5.47,5.63-6.25-2.71-11.98-3.84-19.94.14-1.73-1.77-3.51-3.59-5.29-5.41,5.53-6.01,18.79-6.32,30.69-.37"
      fill="#010101" />
    <path
      d="M372.77,407.51c10.3-7.16,25.23-5.85,31.64.64-1.61,1.28-3.17,2.73-4.96,3.84-.68.42-2.06.39-2.82.01-5.04-2.49-10.17-2.56-15.11-.17-2.31,1.12-3.49.52-4.94-1.01-1.09-1.15-2.41-2.11-3.82-3.32"
      fill="#010101" />
    <path
      d="M507.12,407.65c8.52-6.5,23.4-6.92,31.26,0-1.68,1.62-3.31,3.28-5.08,4.8-.3.26-1.27.09-1.78-.17-5.66-2.83-11.26-2.71-16.95,0-.62.29-1.87-.01-2.49-.46-1.73-1.25-3.29-2.73-4.96-4.16"
      fill="#010101" />
    <path
      d="M439.79,86.92c8.26-6.29,21.02-7.7,31.36-.82-1.51,1.68-2.92,3.44-4.58,4.95-.48.43-1.86.41-2.56.08-5.22-2.42-10.41-2.81-15.68-.23-1.88.92-3.36.64-4.76-1.02-.93-1.1-2.33-1.85-3.78-2.96"
      fill="#010101" />
    <path
      d="M37.14,158.03c8.15-6.04,21.71-7.44,31.07-.61-1.71,1.71-3.46,3.47-5.36,5.37-1.87-.56-4.16-1.76-6.47-1.81-3.44-.07-7.09.15-10.29,1.22-2.41.81-3.67.67-5.22-1.06-1.05-1.17-2.44-2.06-3.73-3.12"
      fill="#010101" />
    <path
      d="M574.01,157.96c10.07-6.72,22.49-6.61,31.49-.31-.17.25-.32.52-.52.75-2.68,3.03-5.1,5.62-10.06,2.96-3.63-1.95-8.17-1.25-11.78.71-2.78,1.51-4.08.47-5.73-1.24-.95-.99-2.12-1.8-3.4-2.87"
      fill="#010101" />
    <path
      d="M238.59,478.88c9.21-6.67,24.36-6.24,31.34-.06-.33.37-.67.74-1.01,1.12-2.41,2.62-4.31,4.91-8.96,2.61-4.03-1.99-9.02-1.55-13.31.95-1.38.8-2.53,1.12-3.68-.78-.91-1.51-2.79-2.49-4.39-3.83"
      fill="#010101" />
    <path
      d="M440.24,158.24c5.71-6.05,22.3-7.77,30.89-.56-.18.25-.34.51-.55.74-2.67,3.06-5.09,5.5-10.06,2.95-3.98-2.04-8.58-.92-12.66,1.05-1.5.72-2.57,1.02-3.66-.85-.77-1.32-2.49-2.14-3.96-3.32"
      fill="#010101" />
    <path
      d="M244.87,198.89c-2.22-1.93-4.17-3.62-6.13-5.33,7.43-6.08,23.42-6.92,31.2-.11-.34.37-.68.75-1.03,1.13-2.4,2.64-4.32,4.83-8.94,2.57-4.98-2.43-10.47-.63-15.09,1.73"
      fill="#010101" />
    <path
      d="M574.22,15.41c8.69-6.6,23.85-7.09,31.22-.14-.03.07-.04.19-.09.21-2.71.85-3.24,4.85-6.67,4.44-2.81-.34-5.54-1.5-8.33-1.64-2.41-.12-5.06.28-7.26,1.2-2.3.97-3.62.69-5.12-1.08-.94-1.11-2.31-1.87-3.75-2.99"
      fill="#010101" />
    <path
      d="M171.49,300.59c10.3-7.05,23.58-6.28,30.88-.43-1.88,1.65-3.78,3.32-5.68,4.99.17.25.33.49.5.74-.95-.39-1.88-.83-2.85-1.17-4.05-1.43-8.11-2.5-12.35-.56-2.64,1.21-5.17,1.76-7.3-1.07-.76-1.01-2.07-1.64-3.21-2.5"
      fill="#010101" />
    <path
      d="M574.04,86.51c10.8-6.46,21.11-6.94,31.43-.32-.11.21-.14.31-.21.39-2.86,3.38-5.62,6.17-10.89,3.26-3.4-1.88-7.42-.86-10.85.79-2.6,1.25-4.37.81-6.11-1.26-.87-1.04-2.11-1.8-3.37-2.85"
      fill="#010101" />
    <path
      d="M373.08,264.96c6.64-5.62,21.25-7.57,30.85-.35-1.79,1.88-3.56,3.75-5.34,5.62-6.71-3.32-13.5-3.48-19.53-.05-1.97-1.72-3.92-3.42-5.98-5.23"
      fill="#010101" />
    <path
      d="M37.13,86.45c10.61-6.63,22.37-6.58,32.1.67-1.85,1.32-3.48,2.71-5.33,3.7-.81.43-2.2.37-3.13.02-4.27-1.6-8.51-2.78-12.93-.56-3.3,1.65-6.02,1.23-8.21-1.83-.53-.74-1.48-1.21-2.5-2"
      fill="#010101" />
    <path
      d="M238.43,407.55c10.02-6.69,22.61-6.45,31.44-.29-.16.25-.29.52-.49.74-2.69,2.95-5.03,5.65-10.06,3-3.56-1.87-7.94-1.31-11.73.84-2.18,1.23-3.97.87-5.56-1.14-.9-1.14-2.23-1.98-3.6-3.15"
      fill="#010101" />
    <path
      d="M37.07,371.95c10.65-7.35,25.1-6.1,31.21.05-.86.87-1.83,1.69-2.6,2.65-1.68,2.1-3.27,2.56-5.98,1.14-4.4-2.31-9.27-1.68-13.59.23-2.62,1.16-3.86.43-5.45-1.21-1.03-1.06-2.33-1.87-3.59-2.86"
      fill="#010101" />
    <path
      d="M600.04,234.73c-6.53-3.57-12.48-3.66-19.84-.33-1.63-1.97-3.23-3.88-5.1-6.14,2.69-1,6.21-2.94,9.97-3.57,6.19-1.04,12.39-.54,18.06,2.67,2.16,1.22,2.87,2.02.3,3.63-1.36.85-2.23,2.42-3.39,3.75"
      fill="#010101" />
    <path
      d="M336.81,229.21c-1.93,1.81-3.72,3.49-5.54,5.19-6.32-3.22-12.71-3.32-18.93-.01-1.87-1.87-3.72-3.73-5.57-5.59,6.26-5.9,22.42-6.47,30.04.41"
      fill="#010101" />
    <path
      d="M135.61,265.02c-1.79,1.67-3.58,3.33-5.46,5.08-6.49-3.11-13.07-3.5-19.7.12-1.84-1.82-3.65-3.61-5.46-5.39,7.25-6.26,23.08-6.88,30.62.2"
      fill="#010101" />
    <path
      d="M372.5,193.55c10.31-5.87,19.95-6.8,29.88-1.41,1.71.93,1.86,1.62.31,2.91-1.41,1.17-2.51,2.68-3.62,3.91-6.21-2.8-11.95-3.98-17.96-.9-1.52.78-3.1.74-4.41-.93-1.02-1.3-2.57-2.22-4.2-3.58"
      fill="#010101" />
    <path
      d="M574.02,371.73c13.33-6.47,25.02-6.35,31.1.28-.86.87-1.84,1.68-2.6,2.66-1.69,2.17-3.31,2.39-6.02,1.15-3.58-1.64-7.55-2.16-11.47-.28-3.39,1.63-6.49,1.57-8.78-1.92-.44-.67-1.29-1.1-2.24-1.88"
      fill="#010101" />
    <path
      d="M129.83,484.25c-6.43-3.68-12.74-3.31-18.94-.1-2-1.97-3.93-3.87-5.84-5.76,9.46-6.73,24.86-5.09,30.55.5-1.86,1.73-3.72,3.46-5.77,5.37"
      fill="#010101" />
    <path
      d="M104.07,336.52c8.83-6.33,22.86-7.39,31.32-.66-1.29,1.52-2.42,3.2-3.92,4.48-.66.56-2.29.74-3.11.37-5.38-2.47-10.63-2.46-16.06-.08-.94.41-2.59-.06-3.62-.62-1.58-.86-2.9-2.15-4.61-3.48"
      fill="#010101" />
    <path
      d="M171.64,371.97c8.92-6.89,22.66-6.62,31.13-.11-1.57,1.55-3.03,3.18-4.73,4.53-.5.4-1.8.23-2.55-.09-5.37-2.28-10.65-2.53-16.07-.04-.83.38-2.38.02-3.25-.52-1.59-1-2.92-2.39-4.55-3.77"
      fill="#010101" />
    <path
      d="M336.96,86.47c-.18.3-.23.39-.29.47-3.51,5.26-8.11,3.38-13.15,2.54-3.7-.62-7.8.99-12.35,1.71-1.19-1.04-3.14-2.75-5.11-4.47,7.41-6.37,21.74-7.45,30.9-.25"
      fill="#010101" />
    <path
      d="M440.26,371.86c9.16-6.62,21.32-6.68,30.81-.38-2.65,3.37-5.06,6.52-10.46,3.71-3.5-1.82-7.65-1.03-11.16.66-3.01,1.45-4.99.84-6.83-1.57-.62-.82-1.45-1.5-2.36-2.43"
      fill="#010101" />
    <path
      d="M67.93,14.81c-1.82,1.72-3.66,3.46-5.66,5.34-5.23-2.17-11.07-3.64-17.01-.38-1.42.78-2.32.62-3.22-.55-1.21-1.57-2.44-3.13-3.62-4.64,6.47-5.41,21.69-6.62,29.51.23"
      fill="#010101" />
    <path
      d="M238.6,336.58c7.92-6.48,23.07-7.49,31.61.13-1.71,1.29-3.32,2.67-5.11,3.78-.63.39-1.81.43-2.53.15-4.81-1.89-9.73-2.66-14.53-.45-2.95,1.36-4.75.61-6.59-1.56-.66-.78-1.72-1.26-2.85-2.05"
      fill="#010101" />
    <path
      d="M239.18,122.19c8.14-7.24,25.2-5.97,30.05-.07-1.7,1.58-3.39,3.15-5.19,4.83-1.96-.48-4.36-1.33-6.83-1.61-2.37-.27-4.96-.43-7.2.2-6.41,1.8-6.36,1.97-10.82-3.35"
      fill="#010101" />
    <path
      d="M135.55,121.89c-1.92,1.89-3.73,3.68-5.54,5.46-5.63-2.53-11.12-3.73-17.01-.83-2.71,1.34-4.94-.11-8.03-4.34,5.98-5.38,20.1-7.66,30.59-.29"
      fill="#010101" />
    <path
      d="M605.51,443c-1.91,1.89-3.71,3.68-5.48,5.44-8.25-3.8-13.76-3.02-19.87-.02-1.95-1.72-3.93-3.48-5.96-5.27,8.82-5.94,22.51-6.89,31.3-.14"
      fill="#010101" />
    <path
      d="M446.04,448.41c-1.82-1.79-3.48-3.43-5.22-5.14,3.11-5.24,21.32-7.87,30.27-.27-.03.09-.04.19-.09.27-2.74,3.93-5.95,5.66-11.04,3.37-4.39-1.98-8.81-.39-12.97,1.5-.37.17-.8.23-.95.27"
      fill="#010101" />
    <path
      d="M171.43,158.02c9.89-7.19,24.4-6.27,30.89-.39-1.34,1.59-2.62,3.23-4.07,4.72-.4.42-1.53.75-1.94.51-5.66-3.24-11.34-2.65-17.18-.49-.86.32-2.32-.14-3.18-.7-1.61-1.03-2.99-2.38-4.53-3.65"
      fill="#010101" />
    <path
      d="M398.79,484.22c-6.01-2.72-11.66-3.84-17.55-.85-1.59.81-3.09.85-4.43-.78-1.06-1.29-2.53-2.27-4.15-3.67,4.35-2.42,8.22-4.56,12.92-4.77,5.96-.28,11.76.05,16.95,3.44,1.49.97,1.85,1.33.11,2.51-1.52,1.03-2.57,2.7-3.85,4.12"
      fill="#010101" />
    <path
      d="M135.52,407.29c-.18.25-.35.51-.55.75-2.66,3.06-5.1,5.52-10.05,2.95-3.46-1.8-7.73-1.3-11.43.7-2.21,1.2-4.03,1.39-5.51-1.21-.6-1.05-2.1-1.64-3.19-2.43,4.27-5.66,20.97-8.42,30.72-.76"
      fill="#010101" />
    <path
      d="M538.74,50.98c-1.74,1.51-3.17,2.93-4.81,4.08-.6.42-1.78.52-2.51.27-5.1-1.77-10.15-3.16-15.33-.21-2.1,1.19-3.76.56-5.28-1.24-.96-1.14-2.38-1.92-3.66-2.92,10.21-7.06,22.6-6.47,31.59.02"
      fill="#010101" />
    <path
      d="M104.04,51.22c10.09-7.07,23.9-6.83,31.72-.28-.39.22-.88.33-1.02.6-2.82,5.39-7.1,3.43-11.58,2.55-2.94-.58-6.49-.35-9.23.74-3.02,1.21-4.75.84-6.67-1.38-.73-.85-1.91-1.35-3.22-2.23"
      fill="#010101" />
    <path
      d="M372.61,336.1c11.01-6.21,21.31-6.8,32.11.08-1.01.74-2.04,1.25-2.7,2.04-2.03,2.4-3.8,3.26-7.33,1.72-3.2-1.39-7.15-2.24-10.95-.18-3.29,1.79-6.46,1.51-8.75-1.93-.44-.66-1.37-1.02-2.38-1.74"
      fill="#010101" />
    <path
      d="M538.3,336.21c-.44.48-.76.77-1,1.11-2.42,3.5-5.48,4.38-9.48,2.41-3.15-1.55-6.32-1.21-9.63,0-5.21,1.92-7.11,1.13-10.73-3.67,10.08-7.26,24.11-5.65,30.84.14"
      fill="#010101" />
    <path
      d="M172.25,442.74c9.46-6.73,24.52-5.39,30.23.51-.87.96-1.66,2.02-2.65,2.86-1.51,1.29-2.55,2.69-5.4,1.25-5.13-2.61-10.7-1.84-16.58.98-1.85-1.85-3.71-3.7-5.6-5.6"
      fill="#010101" />
    <path
      d="M507.71,478.63c6.94-6.41,24.07-6.04,30.33.2-1.65,1.68-3.3,3.38-5.15,5.26-6.31-3.01-12.94-3.61-19.59.14-1.89-1.9-3.74-3.75-5.59-5.6"
      fill="#010101" />
    <path
      d="M269.32,50.72c-2.58,4.31-5.78,5.88-10.61,3.49-3.59-1.78-7.41-.85-10.84.69-2.61,1.16-4.34.76-6.11-1.29-.79-.92-2.13-1.41-3.25-2.11,8.08-7.29,24.58-7.27,30.8-.77"
      fill="#010101" />
    <path
      d="M42.83,306.29c-1.65-2.09-3.23-4.07-4.77-6.02,6.69-5.55,21.05-7.18,30.25.09-2,1.57-3.99,3.14-6.38,5.01-5.47-2.57-11.93-3.38-19.1.92"
      fill="#010101" />
    <path
      d="M37.15,443.4c9.51-7.27,25.32-6.15,30.96-.08-1.6,1.65-3.21,3.31-4.8,4.95-2.24-.62-4.46-1.21-6.67-1.85-3.68-1.06-7.28-.79-10.57,1.03-2.05,1.13-3.43,1.11-4.98-.7-1.09-1.27-2.59-2.22-3.94-3.35"
      fill="#010101" />
    <path
      d="M306.08,158.04c6.67-6.25,22.88-7.24,30.63-.4-.03.09-.05.18-.1.26-2.88,4.9-6.92,4.79-11.98,3.27-2.61-.79-6.06-.45-8.67.52-3.15,1.17-5.31,1.25-7.32-1.49-.59-.81-1.58-1.35-2.56-2.16"
      fill="#010101" />
    <path
      d="M305.96,371.92c8.39-6.68,22.88-6.67,30.95-.11-.16.22-.32.46-.49.69-3.06,4.07-6.91,4.59-11.53,2.58-3.66-1.59-7.22-.46-10.47,1.18-2.03,1.02-3.14.43-4.46-.92-1.16-1.18-2.53-2.17-4-3.41"
      fill="#010101" />
    <path
      d="M580.92,305.67c-2.15-2.03-3.98-3.77-5.8-5.48,6.84-5.52,21.39-6.85,29.94.1-2.04,1.67-4.07,3.33-6.33,5.18-5.91-2.68-9.46-3.82-17.8.21"
      fill="#010101" />
    <path
      d="M135.46,193.37c-.02.09-.02.21-.08.26-2.66,2.54-4.25,6.14-9.72,3.53-4.73-2.26-10.31-1.33-14.92,1.75-1.99-1.95-3.81-3.74-5.64-5.53,4.98-5.3,22.18-7.3,30.35-.01"
      fill="#010101" />
    <path
      d="M330.9,447.99c-6.04-2.53-12.51-3.13-18.92.48-1.83-1.85-3.62-3.66-5.41-5.47,5.13-5.35,21.7-7.19,29.92-.2-1.74,1.62-3.5,3.25-5.59,5.2"
      fill="#010101" />
    <path
      d="M404.16,50.62c-1.03,1.04-1.76,1.66-2.35,2.4-1.92,2.41-3.81,3.18-7.05,1.53-3.33-1.69-7.34-1.76-10.86-.1-3.98,1.88-6.85.95-9.25-2.35-.43-.59-1.01-1.07-1.54-1.62,10.3-5.75,20.47-6.66,31.05.15"
      fill="#010101" />
    <path
      d="M532.31,198.45c-6.26-2.91-12.67-3.16-18.99.33-1.91-1.88-3.76-3.71-5.6-5.53,7.85-6.21,23.7-6.16,30.2.11-1.79,1.63-3.59,3.25-5.62,5.09"
      fill="#010101" />
    <path
      d="M393.98,489.8c-1.62,2.12-3.25,4.25-5.21,6.82-1.93-2.46-3.63-4.62-5.32-6.77,3.06-2.45,7.42-2.46,10.53-.05"
      fill="#010101" />
    <path
      d="M394.03,204.4c-1.78,2.29-3.42,4.39-5.33,6.86-1.93-2.5-3.56-4.6-5.19-6.71,3.56-2.5,7.12-2.59,10.52-.15"
      fill="#010101" />
    <path
      d="M114.78,61.67c2.81-2.27,5.97-1.53,8.97-1.18,1.19.14,1.89.92.94,2.45-3.74,6.01-4.09,6.07-8.34.43-.43-.58-.99-1.07-1.57-1.69"
      fill="#010101" />
    <path
      d="M393.94,132.92c-1.3,1.86-2.49,3.8-3.98,5.51-.35.4-2.14.35-2.54-.09-1.46-1.62-2.6-3.49-3.87-5.26,2.76-2.1,6.94-2.18,10.39-.16"
      fill="#010101" />
    <path
      d="M125.66,275.22c-1.54,2.13-2.79,4.13-4.37,5.84-.31.33-2.23-.12-2.83-.73-1.37-1.4-2.38-3.13-3.67-4.9,3.49-1.89,6.88-1.78,10.87-.22"
      fill="#010101" />
    <path
      d="M181.65,381.9h11.36c-1.64,2.41-2.81,4.36-4.26,6.09-.4.48-2.16.68-2.44.34-1.54-1.79-2.81-3.8-4.66-6.43"
      fill="#010101" />
    <path
      d="M523.09,496.61c-1.93-2.49-3.6-4.65-5.54-7.15,3.62-1.46,6.9-2.28,10.78-.13-1.68,2.33-3.3,4.59-5.24,7.28"
      fill="#010101" />
    <path
      d="M114.87,203.96c3.55-1.03,6.95-2.36,10.35.15-1.21,2.01-2.26,3.87-3.44,5.65-.97,1.46-2.12,1.31-3.07-.05-1.25-1.78-2.42-3.61-3.84-5.75"
      fill="#010101" />
    <path
      d="M449.96,238.95h11.76c-2.06,2.74-3.57,4.87-5.26,6.86-.19.22-1.74-.17-2.14-.66-1.37-1.68-2.52-3.53-4.35-6.2"
      fill="#010101" />
    <path
      d="M181.81,96.94c4.01-1.34,7.43-1.54,10.98-.03-1.42,2.05-2.52,3.94-3.96,5.55-.41.46-2.26.5-2.69.06-1.51-1.56-2.69-3.4-4.33-5.58"
      fill="#010101" />
    <path
      d="M584.38,25.15h11.43c-1.73,2.47-3.02,4.53-4.59,6.37-.29.34-2.1.12-2.54-.38-1.43-1.61-2.54-3.48-4.3-5.99"
      fill="#010101" />
    <path
      d="M260.01,346.16c-1.61,2.49-2.69,4.5-4.15,6.2-.36.42-2.4.22-2.91-.34-1.46-1.58-2.54-3.48-4.18-5.86h11.24Z"
      fill="#010101" />
    <path
      d="M316.14,310.82c4.1-1.1,7.51-1.86,10.77.3-1.26,1.84-2.3,3.66-3.68,5.2-.5.55-2.4.85-2.71.5-1.55-1.74-2.78-3.74-4.37-5.99"
      fill="#010101" />
    <path
      d="M248.63,274.73h11.38c-1.55,2.39-2.62,4.38-4.08,6.06-.4.46-2.41.36-2.93-.16-1.44-1.46-2.49-3.28-4.37-5.9"
      fill="#010101" />
    <path
      d="M517.68,204.02c3.55-1.19,6.86-2.09,10.51.15-1.22,1.82-2.37,3.72-3.73,5.48-.96,1.24-2.09,1.29-3.05-.19-1.12-1.72-2.32-3.39-3.73-5.44"
      fill="#010101" />
    <path
      d="M383.46,275.38c5.17-1.86,7.17-1.81,10.37.16-1.21,1.85-2.31,3.79-3.72,5.49-.38.46-2.19.57-2.51.2-1.5-1.77-2.71-3.76-4.14-5.85"
      fill="#010101" />
    <path
      d="M58.25,240.11c-1.1,1.61-2,3.4-3.38,4.75-.61.6-2.77.81-3.19.34-1.48-1.62-2.5-3.62-3.73-5.52,5.53-1.92,7.48-1.81,10.3.43"
      fill="#010101" />
    <path
      d="M461.42,167.75c-1.74,2.72-2.82,4.71-4.26,6.44-.33.4-2.31.25-2.75-.26-1.41-1.63-2.46-3.55-4.19-6.18h11.2Z"
      fill="#010101" />
    <path
      d="M326.87,168.57c-1.37,1.94-2.67,3.93-4.16,5.78-.31.38-1.7.57-1.9.32-1.37-1.68-2.65-3.44-3.73-5.31-.2-.34.64-1.78,1.05-1.8,2.87-.16,5.75-.09,8.62-.09.04.36.08.72.11,1.08"
      fill="#010101" />
    <path
      d="M114.93,489.33c3.46-1.01,6.78-2.32,10.42.24-1.31,1.84-2.71,3.59-3.86,5.48-1.1,1.8-1.95,1.18-2.81-.06-1.23-1.78-2.4-3.6-3.76-5.66"
      fill="#010101" />
    <path
      d="M584.31,96.51h11.33c-1.62,2.52-2.68,4.51-4.14,6.19-.35.41-2.43.13-3.01-.46-1.43-1.46-2.45-3.28-4.18-5.73"
      fill="#010101" />
    <path
      d="M461.2,310.89c-1.41,2.07-2.53,3.99-3.93,5.7-1.32,1.63-2.51.52-3.37-.61-1.17-1.54-2.17-3.2-3.34-4.95,3.34-2.05,6.74-1.36,10.63-.15"
      fill="#010101" />
    <path
      d="M450.11,452.9h10.3c.21.3.42.6.63.9-1.54,2.16-3.05,4.34-4.7,6.42-.08.11-1.57-.45-1.99-1-1.31-1.72-2.43-3.58-4.24-6.31"
      fill="#010101" />
    <path
      d="M517.39,60.75h11.22c-1.6,2.39-2.77,4.43-4.29,6.2-.4.47-2.4.49-2.78.04-1.44-1.71-2.52-3.71-4.15-6.24"
      fill="#010101" />
    <path
      d="M47.27,24.9h11.67c-1.83,2.64-3.12,4.71-4.68,6.57-.28.33-2.03.13-2.45-.34-1.48-1.7-2.68-3.62-4.53-6.23"
      fill="#010101" />
    <path
      d="M584.33,381.89h11.32c-1.63,2.53-2.7,4.52-4.16,6.2-.35.4-2.42.09-3.01-.51-1.43-1.46-2.45-3.29-4.14-5.69"
      fill="#010101" />
    <path
      d="M394.12,417.91c-1.51,2.18-2.61,4.06-4.05,5.66-.42.46-2.27.52-2.67.09-1.47-1.59-2.6-3.46-4.09-5.57,3.59-1.57,7.03-1.54,10.81-.17"
      fill="#010101" />
    <path
      d="M528.84,346.09c-1.81,2.54-2.94,4.4-4.39,6-.45.5-2.25.71-2.57.35-1.55-1.76-2.82-3.75-4.67-6.35h11.63Z"
      fill="#010101" />
    <path
      d="M315.93,25.17h11.37c-1.64,2.4-2.67,4.21-4.05,5.74-.51.56-2.4.91-2.7.57-1.56-1.75-2.8-3.74-4.62-6.31"
      fill="#010101" />
    <path
      d="M517.42,274.77h11.34c-1.76,2.44-3.07,4.03-4.13,5.77-1.08,1.78-2.31,1.41-3.27.21-1.34-1.67-2.38-3.57-3.94-5.98"
      fill="#010101" />
    <path
      d="M254.34,496.62c-1.96-2.69-3.48-4.77-5.01-6.87,3.9-2.34,6.96-2.35,10.32-.01-1.68,2.18-3.36,4.35-5.31,6.88"
      fill="#010101" />
    <path
      d="M47.41,96.51h11.38c-1.74,2.48-2.92,4.41-4.41,6.1-.38.43-2.17.46-2.53.05-1.49-1.7-2.67-3.64-4.43-6.16"
      fill="#010101" />
    <path
      d="M182.37,167.67h10.76c-1.76,2.61-2.89,4.46-4.2,6.18-1.17,1.55-2.25,1.58-3.3-.31-.94-1.68-2.23-3.19-3.36-4.78.03-.36.06-.73.09-1.09"
      fill="#010101" />
    <path
      d="M47.76,168.42c3.6-1.46,7.02-1.84,10.6.02-1.17,1.73-2.41,3.27-3.33,4.97-1.11,2.05-2.25,2-3.54.31-1.25-1.64-2.38-3.37-3.73-5.29"
      fill="#010101" />
    <path
      d="M58.39,382.52c-1.36,1.89-2.63,3.53-3.77,5.26-1.06,1.62-1.96,1.64-3.02.02-1.14-1.73-2.35-3.41-3.55-5.12,2.15-1.82,7-1.98,10.34-.16"
      fill="#010101" />
    <path
      d="M259.62,204.44c-1.01,1.28-2.11,2.53-3.04,3.88-2.18,3.18-2.16,3.2-4.4.01-.95-1.35-1.84-2.74-2.76-4.11,4.09-2.2,7.11-2.16,10.19.22"
      fill="#010101" />
    <path
      d="M47.87,311.15c3.6-2.09,6.94-1.52,10.65-.33-1.41,1.97-2.58,3.9-4.09,5.55-.41.45-2.25.45-2.68,0-1.42-1.49-2.49-3.28-3.88-5.22"
      fill="#010101" />
    <path
      d="M382.96,346.12h11.4c-1.67,2.41-2.89,4.42-4.41,6.19-.34.4-2.15.35-2.54-.09-1.49-1.68-2.69-3.61-4.45-6.1"
      fill="#010101" />
    <path
      d="M584.28,239.03c4.07-.17,7.35-.31,10.63-.45.2.32.4.64.6.96-1.53,2.06-3,4.17-4.68,6.11-.19.22-1.79-.22-2.25-.75-1.36-1.56-2.47-3.32-4.3-5.88"
      fill="#010101" />
    <path
      d="M259.61,132.96c-1.21,1.68-2.59,3.26-3.58,5.04-1.12,2.01-2.16,1.32-3.13.11-1.31-1.62-2.44-3.37-3.65-5.06,2.34-1.83,7.2-1.93,10.37-.09"
      fill="#010101" />
    <path
      d="M316.11,381.83h11.2c-1.7,2.42-2.97,4.47-4.54,6.28-.35.41-2.2.35-2.57-.09-1.37-1.65-2.4-3.55-4.1-6.19"
      fill="#010101" />
    <path
      d="M181.88,25.12h11.13c-1.75,2.58-2.86,4.54-4.34,6.19-.39.44-2.4.35-2.81-.15-1.43-1.7-2.48-3.7-3.98-6.04"
      fill="#010101" />
    <path
      d="M461.67,25.02c-1.92,2.68-3.18,4.65-4.7,6.41-.31.35-2.01.23-2.38-.21-1.44-1.69-2.61-3.6-4.42-6.2h11.5Z"
      fill="#010101" />
    <path
      d="M181.6,239.15c3.96-.22,7.23-.41,10.5-.59.18.39.37.78.55,1.17-1.43,2-2.77,4.07-4.38,5.92-.23.27-2.09-.25-2.66-.86-1.26-1.35-2.19-3-4.02-5.64"
      fill="#010101" />
    <path
      d="M517.28,132.23h11.13c-1.51,2.39-2.67,4.45-4.12,6.3-.28.36-2.11.23-2.55-.25-1.45-1.6-2.6-3.45-4.47-6.05"
      fill="#010101" />
    <path
      d="M584.51,310.55h10.99c-1.44,2.26-2.55,4.31-4.04,6.08-.34.41-2.38.2-2.9-.36-1.4-1.49-2.41-3.33-4.05-5.72"
      fill="#010101" />
    <path
      d="M181.85,310.48h11.08c-1.66,2.45-2.69,4.33-4.11,5.87-.49.53-2.53.66-2.91.22-1.42-1.64-2.45-3.59-4.06-6.09"
      fill="#010101" />
    <path
      d="M125.2,346.94c-1.11,1.72-2.08,3.56-3.42,5.1-.46.52-2.35.71-2.77.3-1.38-1.37-2.49-3.04-3.44-4.72-.17-.3.85-1.76,1.39-1.8,2.69-.19,5.4-.09,8.11-.09.04.41.09.81.13,1.22"
      fill="#010101" />
    <path
      d="M517.66,418.09c3.19-1.46,6.23-1.46,9.32-.69.38.09.98.76.94.81-1.45,2.1-2.94,4.18-4.54,6.18-.09.12-1.3-.27-1.63-.68-1.35-1.69-2.56-3.48-4.09-5.62"
      fill="#010101" />
    <path
      d="M125.72,132.26c-1.66,2.54-2.79,4.49-4.19,6.23-.34.42-2.05.51-2.35.16-1.58-1.88-2.9-3.95-4.62-6.39h11.16Z"
      fill="#010101" />
    <path
      d="M584.84,168.38c4.11-1.49,7.46-1.78,10.42.17-1.3,1.83-2.51,3.74-3.97,5.45-.36.42-2.02.53-2.31.19-1.51-1.82-2.78-3.83-4.14-5.81"
      fill="#010101" />
    <path
      d="M249.11,417.91c3.68-1.26,7.03-1.47,10.57.11-.6.98-1.02,1.8-1.58,2.53-4.24,5.6-2.95,5.48-7.23-.13-.56-.74-1.07-1.52-1.77-2.51"
      fill="#010101" />
    <path
      d="M316.38,239.8c3.51-1.47,6.76-1.87,10.54-.23-1.31,2.03-2.46,4.12-4,5.9-.31.35-2.49-.18-3.19-.88-1.29-1.28-2.13-2.98-3.34-4.8"
      fill="#010101" />
    <path
      d="M461.24,381.49c-.75,1.62-.89,2.27-1.28,2.71-1.37,1.57-2.83,3.08-4.26,4.61-1.48-1.69-3.06-3.3-4.34-5.12-.24-.34.67-2.07,1.14-2.11,2.71-.21,5.45-.1,8.75-.1"
      fill="#010101" />
    <path
      d="M53.12,461.06c-1.99-2.76-3.6-4.99-5.86-8.12,3.71,0,6.57-.06,9.42.07.37.02,1.12,1.24.96,1.48-1.29,2.07-2.75,4.04-4.52,6.56"
      fill="#010101" />
    <path d="M182.38,452.98h10.8c-2.17,3-3.76,5.2-5.68,7.85-1.93-2.4-3.64-4.52-5.35-6.65l.23-1.2Z"
      fill="#010101" />
    <path
      d="M315.44,452.83c3.62,0,6.34,0,9.07,0,.22,0,.53-.05.63.06.45.49,1.32,1.32,1.19,1.52-1.27,1.98-2.69,3.88-4.17,5.72-.1.13-1.31-.26-1.65-.67-1.51-1.83-2.9-3.76-5.06-6.63"
      fill="#010101" />
    <path
      d="M595.4,453.84c-1.39,1.93-2.77,3.5-3.75,5.27-1.09,1.97-2.15,1.4-3.1.15-1.31-1.71-2.39-3.57-3.76-5.65,3.64-1.13,6.99-1.33,10.61.23"
      fill="#010101" />
    <path
      d="M394.18,61.18c-1.44,2-2.73,3.72-3.95,5.48-1.23,1.78-2.17,1.48-3.19-.2-1.01-1.66-2.19-3.23-3.4-4.97,3.36-2.16,6.77-1.39,10.54-.31"
      fill="#010101" />
    <path
      d="M461.52,96.23c-1.83,2.81-2.99,4.73-4.33,6.52-.32.42-1.71.74-1.88.54-1.52-1.8-2.91-3.71-4.21-5.66-.1-.15.8-1.31,1.27-1.33,2.77-.13,5.55-.06,9.15-.06"
      fill="#010101" />
    <path
      d="M316.75,96.11c2.71,0,5.44-.19,8.11.08,1.26.13,2.35,1.08.92,2.63-.97,1.06-1.45,2.58-2.53,3.47-.67.55-2.63.78-3.02.34-1.42-1.6-2.43-3.53-3.59-5.34.04-.39.07-.79.11-1.18"
      fill="#010101" />
    <path
      d="M114.56,417.3h11.33c-1.94,2.85-3.28,4.96-4.83,6.92-.19.24-1.89-.13-2.29-.65-1.4-1.76-2.53-3.72-4.21-6.27"
      fill="#010101" />
    <path
      d="M248.76,60.89h11.16c-1.48,2.32-2.55,4.3-3.97,6.01-.35.42-2.27.32-2.76-.17-1.44-1.47-2.53-3.26-4.43-5.84"
      fill="#010101" />
  </g>
</svg>