<svg xmlns="http://www.w3.org/2000/svg" viewBox="0 0 840 1680" width="840px" height="1680px">
  <defs>
    <clipPath id="clippath">
      <rect class="cls-1" width="900" height="1800" style="fill: none;"></rect>
    </clipPath>
    <clipPath id="clippath-1">
      <path class="cls-1"
        d="M67.87-74.01C17.42-74.01-23.47-34.87-23.47,13.4l-4.26,1757.62c0,53,46.24,103.07,101.61,103.07l740.81,2.93c56.03,0,101.46-43.49,101.46-97.11V12.64c0-47.84-40.56-86.65-90.58-86.65H67.82h.05Z"
        style="fill: none;"></path>
    </clipPath>
  </defs>
  <g id="Calque_2" transform="matrix(0.938853, 0, 0, 0.933841, 98.602287, -86.888832)" style="">
    <g id="Calque_1-2" data-name="Calque 1" transform="matrix(1, 0, 0, 1, -103.264351, 97.186089)">
      <g class="cls-4" style="clip-path: url(#clippath);">
        <g class="cls-3" style="clip-path: url(#clippath-1);">
          <g>
            <path class="cls-2"
              d="M563.07,1924.87c-15.19,2.7-28.21,5.06-41.83,7.48-34.03-43.02-78.65-73.87-130.76-92.61-27.87-9.99-59.16-12.12-89.16-15.66-55.75-6.63-107.14,9.37-155.93,32.75-33.41,16.04-62.94,37.81-85.28,67.44-4.31,5.68-8.85,10.88-18.88,6.91-9.51-3.79-20.54-4.16-31.33-6.1,109.56-161.75,397.48-206.43,553.13-.14"
              style="fill: rgb(29, 29, 27);"></path>
            <path class="cls-2"
              d="M880.61,406.57c-9.13,1.66-17.51,1.99-24.94,4.69-11.93,4.31-18.6-.38-26.17-8.66-35.3-38.81-77.75-67.48-129.29-83.91-61.95-19.73-124.27-20.59-185.98-1.89-43.21,13.06-82.58,34.45-115.9,64.6-5.87,5.3-11.31,11.41-15.62,17.94-9.32,14.2-21.39,16-36.68,9.99-5.02-1.94-11.07-1.42-20.25-2.46,54.28-73.31,125.93-119.54,215.37-134.4,143.77-23.85,264.87,30.15,339.41,134.07"
              style="fill: rgb(29, 29, 27);"></path>
            <path class="cls-2"
              d="M246.42,406.19c-10.08,1.99-17.32,2.6-23.9,4.87-19.64,6.72-28.54-7.52-38.38-18.22-25.89-28.16-56.98-49.41-92.38-64.6-48.27-20.68-99.57-28.44-151.96-23.43-24.28,2.32-48.13,10.13-71.79,16.75-54.28,15.24-95.36,48.84-131.94,88.5-1.8,1.94-5.77,3.5-8.33,3.08-11.36-1.85-22.62-4.54-36.2-7.38,58.78-79.22,138.47-126.17,238.47-136.44,131.37-13.49,236.43,33.98,316.46,136.91"
              style="fill: rgb(29, 29, 27);"></path>
            <path class="cls-2"
              d="M245.1,1419.59c-5.73.38-10.7-.71-13.82,1.09-21.77,12.59-33.69-1.37-46.52-14.67-37.2-38.57-81.59-65.02-135.35-78.65-32.61-8.23-64.98-12.82-98.2-10.88-52.96,3.17-101.42,19.31-146.14,47.28-25.65,16.04-47.61,34.97-66.44,57.78-2.27,2.79-8.23,4.59-12.07,4.02-11.26-1.61-22.34-4.59-33.55-7.05,117.41-174.11,413.95-195.35,552.09,1.04"
              style="fill: rgb(29, 29, 27);"></path>
            <path class="cls-2"
              d="M879.29,1419.59c-2.18.28-3.31.19-4.21.57-28.77,12.78-45.15-3.88-63.04-22.01-45.29-45.72-102.22-69.95-166.96-79.03-84.28-11.88-158.63,11.31-225.97,58.07-15.29,10.6-28.58,24.51-40.37,38.76-7.29,8.8-12.59,11.83-23.71,7.62-7.81-2.98-16.89-2.93-25.37-4.26,13.01-47.7,143.68-126.73,216.7-136.1,169.7-21.86,287.26,62.61,333.02,136.39"
              style="fill: rgb(29, 29, 27);"></path>
            <path class="cls-2"
              d="M325.41,1757.3c55.27-72.45,125.74-119.12,214.52-134.31,123.04-21.06,249.82,12.59,340.73,133.12-14.34,2.79-27.59,5.35-41.36,8-45.1-53.15-101.23-89.77-172.73-103.64-55.8-10.84-109.56-6.91-163.6,11.03-39.89,13.25-73.68,34.17-104.68,60.43-6.01,5.11-11.36,11.36-15.62,17.94-9.32,14.34-21.49,15.76-36.72,9.89-5.02-1.94-11.03-1.42-20.59-2.46"
              style="fill: rgb(29, 29, 27);"></path>
            <path class="cls-2"
              d="M1198.87,1925.68c-15.33,2.27-26.64,4.26-38.05,5.44-2.74.28-6.86-1.37-8.52-3.45-48.18-59.82-113.81-91.48-189.77-103.17-56.13-8.61-111.16,1.33-163.03,23.43-44.44,18.93-81.82,47.18-112.35,85.14-13.25-2.7-27.16-5.49-42.97-8.66,75.67-98.01,176.99-143.72,300.23-138.09,106.15,4.87,190.05,54.28,254.51,139.37"
              style="fill: rgb(29, 29, 27);"></path>
            <path class="cls-2"
              d="M246.23,743.8c-15.24,2.7-26.93,5.25-38.81,6.48-2.93.28-7.24-3.03-9.51-5.77-48.03-58.4-112.73-90.2-187.59-101.27-74.3-10.98-143.3,7.43-206.95,45.67-27.68,16.66-50.35,37.67-68.71,62.37-13.82-2.32-27.02-4.59-40.23-6.81,13.39-46.76,134.83-123.8,208.18-134.78,141.69-21.15,255.36,21.96,343.57,134.02"
              style="fill: rgb(29, 29, 27);"></path>
            <path class="cls-2"
              d="M-308.17,69.05c135.06-188.21,426.58-183.29,552.27-.99-11.26,2.46-22.29,5.44-33.55,7-3.22.43-7.9-2.46-10.51-5.11C164.69,33.37,125.93,1.42,75.96-15.52,15.29-36.15-46.14-41.74-108.8-23.99c-53.1,15.05-101.79,38.1-137.52,79.27-15.52,17.89-30,22.43-51.11,14.58-2.74-.99-6.06-.47-10.79-.8"
              style="fill: rgb(29, 29, 27);"></path>
            <path class="cls-2"
              d="M-265.91,1763.5c-13.96-2.03-26.93-3.98-39.89-5.87,8-43.49,133.6-124.13,210.83-135.49,151.82-22.38,274.53,39,339.08,134.87-11.36,2.08-22.53,4.83-33.84,5.82-3.88.33-9.37-2.79-12.12-5.96-26.08-30.62-57.45-54.99-94.27-72.6-73.02-34.97-149.07-39.09-226.45-16.8-39.52,11.36-74.82,31.85-106.53,56.98-13.96,11.07-24.61,25.89-36.87,39.14"
              style="fill: rgb(29, 29, 27);"></path>
            <path class="cls-2"
              d="M645.22,575.23c123.75-178.55,417.92-191.95,551.56-.38-12.68,1.85-24.37,4.02-36.16,5.02-3.12.28-7.57-2.41-9.8-5.02-35.97-42.36-81.3-72.36-135.35-88.26-26.79-7.86-55.61-10.55-83.76-12.97-60.01-5.11-114.43,12.45-165.49,41.17-30.76,17.27-56.27,40.23-79.13,67.2-12.78-2.08-26.36-4.26-41.88-6.81"
              style="fill: rgb(29, 29, 27);"></path>
            <path class="cls-2"
              d="M643.9,237.57c151.06-200.65,442.34-169.56,552.79.05-11.55,1.99-22.86,5.54-34.03,5.21-6.06-.19-13.11-5.96-17.6-10.98-38.81-43.11-86.13-71.79-144.34-86.13-30.15-7.43-59.82-11.83-90.53-10.65-59.16,2.32-113.48,19.26-160.86,53.38-19.36,13.91-35.87,31.52-53.48,47.61-5.96,5.44-10.27,10.93-20.78,6.44-8.8-3.74-19.59-3.27-31.19-4.92"
              style="fill: rgb(29, 29, 27);"></path>
            <path class="cls-2"
              d="M643.85,1587.88c68.71-92.09,162.7-138.57,277.6-139.51,115.47-.95,207.9,47.66,277.41,139.13-13.77,2.65-25.37,6.63-36.87,6.39-6.01-.14-13.01-6.77-17.56-12.07-38.43-44.63-87.69-72.5-145.62-87.12-41.46-10.46-83.76-13.87-125.84-5.87-71.51,13.58-133.79,43.44-179.93,99.66-2.74,3.31-10.03,4.78-15,4.5-10.93-.71-21.72-3.08-34.22-5.06"
              style="fill: rgb(29, 29, 27);"></path>
            <path class="cls-2"
              d="M878.53,68.48c-5.21,1.28-10.41,3.22-15.81,3.69-12.07,1.14-22.29,6.01-34.07-7.81-34.69-40.75-79.5-70.23-132.27-85.33-54.23-15.48-109.51-19.26-165.49-4.5-62.75,16.56-115.38,46.99-156.45,95.64-2.56,3.03-8.71,5.35-12.78,4.83-10.88-1.37-21.53-4.5-32.28-6.91,18.65-56.84,156.6-132.46,244.52-138.38C726.24-80.45,837.93.95,878.48,68.43"
              style="fill: rgb(29, 29, 27);"></path>
            <path class="cls-2"
              d="M8.71,1249.84c62.47-81.54,144.39-129.76,248.41-137.76,127.26-9.75,228.62,37.62,305.71,136.86-12.49,2.98-22.67,7.38-32.7,7.1-6.77-.19-15-5.68-19.73-11.03-37.76-42.64-84.99-70.56-140.84-86.13-30.62-8.52-61.52-13.44-93.47-11.78-56.36,2.93-108.94,17.89-154.94,49.26-22.15,15.1-41.74,33.84-61.05,52.25-7.05,6.72-11.64,10.08-21.63,6.44-8.33-3.08-17.84-3.27-29.72-5.21"
              style="fill: rgb(29, 29, 27);"></path>
            <path class="cls-2"
              d="M646.74,1249.74c90.48-148.22,388.34-217.64,550.95-.38-12.12,2.6-23.47,5.49-35.02,7.24-2.93.43-7.38-1.94-9.61-4.31-35.4-38.14-75.43-70.28-126.5-87.12-58.3-19.26-117.51-25.27-178.18-8.99-40.46,10.84-77.56,27.73-110.74,52.15-12.54,9.23-26.36,18.69-34.55,31.09-10.84,16.42-23.28,19.4-40.7,14.2-5.21-1.51-10.51-2.6-15.71-3.88"
              style="fill: rgb(29, 29, 27);"></path>
            <path class="cls-2"
              d="M561.08,1588.68c-11.07,1.37-21.3.95-30,4.16-10.13,3.74-14.2-1.85-18.6-7.43-27.12-34.31-62.94-58.45-103.12-75.53-42.5-18.08-87.6-26.69-134.87-24.7-59.58,2.51-113.11,20.96-161.04,53.71-17.56,12.02-32.51,27.64-47.84,42.45-8.9,8.57-16.61,16.52-30.95,11.07-6.86-2.6-14.62-3.12-21.96-4.64,24.66-53.43,124.46-127.02,236.01-137.62,150.21-14.29,262.46,59.63,312.39,138.52"
              style="fill: rgb(29, 29, 27);"></path>
            <path class="cls-2"
              d="M326.49,1079.9c79.32-99.85,182.96-146.33,310.49-136.72,102.46,7.67,182.29,57.69,244,137.71-13.11,2.51-24.18,5.25-35.49,6.48-3.79.43-9.42-1.89-11.83-4.73-44.53-53.76-103.07-84.76-172.5-98.72-82.96-16.71-158.35,2.22-227.01,46.66-21.63,13.96-38.57,34.45-58.3,51.25-3.98,3.41-10.88,5.92-16.09,5.4-10.36-.99-20.44-4.31-33.32-7.29"
              style="fill: rgb(29, 29, 27);"></path>
            <path class="cls-2"
              d="M10.18,911.47c128.67-179.08,416.41-188.78,551.09,0-10.55,2.41-20.54,5.68-30.76,6.63-4.78.43-11.55-2.46-14.72-6.01-48.93-55.18-111.02-88.5-185.13-99.95-73.26-11.31-141.74,4.92-203.31,43.11-26.03,16.14-47.42,39.14-71.51,58.3-4.16,3.31-11.45,4.69-17.04,4.16-9.42-.85-18.65-3.98-28.63-6.29"
              style="fill: rgb(29, 29, 27);"></path>
            <path class="cls-2"
              d="M1198.4,911.47c-12.35,2.6-22.86,5.49-33.65,6.77-4.35.52-10.98-1.14-13.49-4.16-43.07-51.11-98.01-81.87-164.97-97.25-69.33-15.95-133.31-4.69-196.11,23.19-37.39,16.61-69.71,39.56-94.98,70.75-6.48,8-12.92,8.99-22.01,6.63-8.71-2.32-17.65-3.79-26.45-5.63,101.13-154.56,388.44-212.3,551.66-.38"
              style="fill: rgb(29, 29, 27);"></path>
            <path class="cls-2"
              d="M-307.46,1080.13c129.48-178.46,413.09-189.53,552.7.71-12.3,2.41-23.8,5.21-35.49,6.58-3.55.43-8.76-2.22-11.26-5.06-35.11-39.85-76.76-70.8-129.15-86.98-39.94-12.35-80.83-21.82-122.95-17.04-58.59,6.63-113.44,24.51-160.19,60.24-13.82,10.55-26.64,22.81-37.53,36.11-10.74,13.16-22.81,14.1-37.48,9.99-5.77-1.61-11.69-2.84-18.69-4.5"
              style="fill: rgb(29, 29, 27);"></path>
            <path class="cls-2"
              d="M328.86,740.72c126.88-173.77,410.63-190.2,551.42,2.93-11.45,2.03-22.01,3.74-32.51,5.87-15.33,3.12-17.04-10.79-24.14-17.65-43.02-41.74-93.13-70.56-153.66-83.76-60.01-13.06-117.17-8.14-174.11,13.39-45.29,17.13-84.95,40.7-115.19,77.75-11.03,13.49-31.71,13.63-51.77,1.47"
              style="fill: rgb(29, 29, 27);"></path>
            <path class="cls-2"
              d="M560.04,237.52c-5.82,1.37-11.88,2.18-17.46,4.26-17.89,6.63-26.12-3.64-37.1-15.19-38.38-40.37-85.14-68.19-141.03-82.01-58.3-14.43-116.04-14.24-172.64,5.44-49.12,17.08-95.36,39.56-126.97,81.73-9.56,12.78-21.3,12.07-34.4,9.94-6.48-1.09-12.82-2.65-19.17-3.98,22.9-65.92,172.17-141.5,272.82-140.36,141.5,1.56,242.06,80.31,275.95,140.27"
              style="fill: rgb(29, 29, 27);"></path>
            <path class="cls-2"
              d="M562.59,574.62c-14.67,2.65-28.06,5.06-40.27,7.24-42.02-45.62-88.59-81.49-150.92-97.68-28.77-7.48-57.74-12.4-86.65-12.78-26.36-.33-53.48,5.3-79.13,12.12-58.45,15.62-109.04,44.06-146.42,91.29-4.21,5.3-8.85,10.6-17.79,5.73-4.54-2.51-10.7-2.51-16.14-3.22-4.83-.62-9.7-.66-15.66-1.04,116.65-170.41,404.72-201.36,552.98-1.66"
              style="fill: rgb(29, 29, 27);"></path>
            <path class="cls-2"
              d="M1122.63,254.37c-11.78,4.31-22.86,8.57-34.17,12.21-2.22.71-6.29-.33-7.9-1.99-33.41-34.31-75.77-52.48-122.95-59.87-36.68-5.73-73.35-2.79-108.89,9.37-33.88,11.59-64.36,28.21-89.77,53.43-12.35-4.87-24.56-9.65-37.2-14.67,93.56-107.09,289.39-125.55,400.93,1.51"
              style="fill: rgb(29, 29, 27);"></path>
            <path class="cls-2"
              d="M171.84,1435.63c-14.72,5.06-26.97,9.32-39.42,13.63-98.58-96.12-248.31-77.75-325.88-.66-11.93-4.07-24.04-8.23-39.52-13.49,40.41-44.25,89.4-72.03,147.18-82.58,100.56-18.31,186.5,9.46,257.68,83.1"
              style="fill: rgb(29, 29, 27);"></path>
            <path class="cls-2"
              d="M-195.4,98.91c-11.31-4.45-22.43-8.8-36.72-14.39C-196.44,44.02-151.95,17.09-99.99,5.35,4.45-18.22,95.5,6.77,171.13,84.67c-13.53,5.3-25.93,10.13-38,14.86C18.65,9.85-77.89,9.85-195.35,98.91"
              style="fill: rgb(29, 29, 27);"></path>
            <path class="cls-2"
              d="M803.85,1436.25c-6.67,2.65-12.21,4.92-17.79,7-5.58,2.08-11.31,3.93-18.22,6.29-44.48-41.88-97.96-65.54-162.56-65.21-64.31.33-118.69,22.05-163.88,64.83-12.59-4.73-24.99-9.37-37.58-14.1,97.06-114,301.22-119.59,400.03,1.18"
              style="fill: rgb(29, 29, 27);"></path>
            <path class="cls-2"
              d="M403.06,84.15c101.65-112.49,298.47-119.4,401.07,1.37-12.3,4.69-24.04,9.13-31.61,12.02-27.07-16.28-50.54-33.88-76.9-45.53-46.43-20.44-95.69-24.23-145.76-12.02-39.56,9.65-74.77,26.69-103.78,54.75-2.08,2.03-7.15,3.12-9.94,2.22-10.84-3.6-21.3-8.19-33.03-12.87"
              style="fill: rgb(29, 29, 27);"></path>
            <path class="cls-2"
              d="M721.94,589.66c101.89-112.25,295.54-119.3,400.55,2.51-8.8,3.12-17.56,5.3-25.32,9.23-8.47,4.26-13.72,1.94-20.25-3.79-36.06-31.85-78.84-49.5-127.44-56.27-57.36-7.95-108.09,7.29-155.41,36.91-4.21,2.65-10.65,3.6-13.01,7.15-17.46,26.41-37.62,16.23-59.11,4.21"
              style="fill: rgb(29, 29, 27);"></path>
            <path class="cls-2"
              d="M722.03,1265.93c94.08-108.66,289.86-123.8,401.55.95-12.12,4.21-23.43,9.04-35.21,11.74-3.69.85-9.65-3.12-13.11-6.29-22.24-20.68-48.13-35.92-77.33-45.01-87.12-27.12-164.74-9.18-233.78,47.18-3.03,2.51-9.09,3.93-12.78,2.89-9.51-2.7-18.55-7.05-29.34-11.41"
              style="fill: rgb(29, 29, 27);"></path>
            <path class="cls-2"
              d="M1121.87,1604.25c-12.68,4.97-25.13,9.84-37.43,14.67-72.17-77.28-220.15-98.77-326.4-.95-11.88-5.02-23.71-9.99-35.82-15.1,93.09-107.43,291.14-124.37,399.65,1.37"
              style="fill: rgb(29, 29, 27);"></path>
            <path class="cls-2"
              d="M86.18,1601.79c43.73-46.19,97.68-74.58,161.52-83.2,95.03-12.82,175.01,16.28,240.64,86.41-12.3,4.16-22.76,8.57-33.69,10.84-3.79.8-9.61-2.89-13.11-5.96-34.97-30.86-76.48-49.69-123.04-55.7-62.28-8-119.26,7.52-170.23,42.88-1.66,1.14-3.41,2.37-4.64,3.88-17.65,21.15-36.58,13.3-57.45.85"
              style="fill: rgb(29, 29, 27);"></path>
            <path class="cls-2"
              d="M438.51,772.53c-9.7-3.74-21.15-8.19-32.94-12.78,81.63-102.17,282.95-130.85,400.03.76-11.97,4.12-23.33,8.66-35.07,11.69-3.27.85-8.8-1.8-11.59-4.5-48.32-45.76-108.04-63.89-173.87-58.97-36.82,2.74-73.4,13.16-104.3,35.64-12.87,9.37-26.55,17.75-42.21,28.16"
              style="fill: rgb(29, 29, 27);"></path>
            <path class="cls-2"
              d="M485.74,929.22c-4.5,2.22-8.05,4.12-11.69,5.77-15.71,7.1-27.68,7.05-42.36-6.77-23.47-22.15-52.62-37.62-86.46-42.36-22.01-3.08-44.11-8.52-66.11-8.28-43.92.43-84.19,14.2-120.35,38.43-3.31,2.22-8.28,2.93-10.41,5.77-17.7,23.52-38.52,21.53-61.66,4.73,47.37-49.5,106.72-79.08,178.32-84.95,109.41-8.94,191.33,47.8,220.72,87.69"
              style="fill: rgb(29, 29, 27);"></path>
            <path class="cls-2"
              d="M486.12,1266.35c-.14.43-.14,1.09-.47,1.28-23.09,13.63-39.47,8.33-61.95-8.14-76.14-55.98-169.85-59.16-253.89-14.01-16.42,8.85-30.71,21.39-48.55,34.07-8.57-3.41-20.87-8.33-33.36-13.35,87.6-109.6,295.87-123.71,398.28.14"
              style="fill: rgb(29, 29, 27);"></path>
            <path class="cls-2"
              d="M-230.42,421.05c95.55-108.89,290-122.14,400.36,1.66-9.99,3.93-19.31,9.13-29.29,10.88-5.92,1.04-14.72-1.66-19.02-5.73-35.87-34.07-80.12-49.26-129.01-55.56-55.65-7.19-104.87,8.47-150.87,36.82-5.11,3.12-10.93,5.39-15.48,9.13-22.72,18.79-28.58,19.31-56.69,2.84"
              style="fill: rgb(29, 29, 27);"></path>
            <path class="cls-2"
              d="M169.85,1773.1c-7.34,3.12-13.3,5.49-19.07,8.23-13.25,6.29-23.52,3.31-33.98-6.77-33.27-31.9-75.72-44.39-120.91-51.91-50.4-8.42-95.36,6.1-138.66,27.4-16.18,7.95-29.72,20.87-44.67,31.19-3.03,2.08-7.81,4.45-10.74,3.55-10.84-3.27-21.3-7.81-32.23-12.02,85.94-104.26,283.8-129.62,400.32.33"
              style="fill: rgb(29, 29, 27);"></path>
            <path class="cls-2"
              d="M805.98,1098.68c-12.16,4.12-23.24,8.23-34.64,11.45-2.41.66-6.63-1.37-8.76-3.36-50.16-46.85-111.59-64.55-179.69-60.01-42.5,2.84-81.02,19.64-115.85,43.44-.43.28-.71.71-1.14.99-9.18,6.63-17.89,17.56-27.73,18.6-9.94,1.04-21.06-7.67-34.59-13.39,35.92-40.7,81.02-67.91,133.17-78.89,104.02-21.86,195.83,1.23,269.18,81.11"
              style="fill: rgb(29, 29, 27);"></path>
            <path class="cls-2"
              d="M1121.45,929.36c-22.62,15.62-40.79,11.45-61.9-6.29-45.05-37.91-100.85-51.02-159.06-45.15-51.16,5.16-98.53,23.43-135.73,60.24-2.32,2.27-8.28,3.17-11.69,2.13-10.36-3.22-20.3-7.67-30.52-11.74,88.21-107.05,291.52-126.73,398.94.76"
              style="fill: rgb(29, 29, 27);"></path>
            <path class="cls-2"
              d="M486.97,254.18c-25.46,17.65-43.82,8.94-64.5-8.71-23-19.64-52.06-29.67-82.77-36.91-47.7-11.26-93.42-7.95-137.57,10.17-23.28,9.56-45.15,23.14-65.88,37.29-10.13,6.91-16.99,12.87-29.15,4.87-5.49-3.6-12.97-4.4-19.97-6.58,84.57-104.68,285.98-130.76,399.94-.14"
              style="fill: rgb(29, 29, 27);"></path>
            <path class="cls-2"
              d="M169.47,760.03c-3.31,1.61-6.01,2.98-8.76,4.21-25.22,11.17-29.29,9.61-50.21-7.76-23.95-19.88-51.44-34.36-83.2-39.75-19.4-3.31-38.85-8.14-58.4-8.52-44.06-.8-84.62,12.54-121.91,34.5-12.87,7.57-24.28,17.46-36.82,25.7-2.93,1.94-8,2.7-11.41,1.8-10.13-2.7-19.97-6.53-29.81-9.89,83.62-103.31,282.1-131.51,400.41-.28"
              style="fill: rgb(29, 29, 27);"></path>
            <path class="cls-2"
              d="M802.77,423.65c-5.35,2.41-10.55,5.16-16.09,7.1-13.11,4.54-23.24,3.79-35.07-7.1-33.84-31.23-76.29-45.01-122.52-51.58-49.88-7.1-94.18,6.96-137.1,27.64-15.19,7.34-29.15,17.56-42.31,28.02-7.29,5.82-12.4,8.28-21.25,3.45-7.48-4.12-16.23-6.1-25.13-9.28,60.81-66.06,138.14-92.85,226.07-86.98,93.04,6.2,161.28,64.27,173.4,88.78"
              style="fill: rgb(29, 29, 27);"></path>
            <path class="cls-2"
              d="M403.54,1772.01c61.38-65.59,137.57-93.37,224.27-86.41,77.47,6.2,164.07,54.99,174.91,88.83-4.97,2.08-9.94,4.26-15,6.25-13.63,5.25-24.14,4.83-36.39-6.77-24.75-23.47-56.03-36.2-89.96-45.62-53.43-14.86-103.73-7.05-152.48,13.25-20.73,8.61-38.29,24.14-57.31,36.53-7.05,4.59-13.25,10.08-23.05,3.79-6.72-4.31-15.24-6.1-25.03-9.8"
              style="fill: rgb(29, 29, 27);"></path>
            <path class="cls-2"
              d="M167.72,1096.79c-26.12,22.81-43.77,6.48-65.69-9.23-49.08-35.16-105.44-47.7-166.77-38.85-50.83,7.34-93.47,29.58-130.43,62.37-11.45-4.45-22.62-8.85-33.69-13.16,69.28-98.29,281.53-135.44,396.53-1.18"
              style="fill: rgb(29, 29, 27);"></path>
            <path class="cls-2"
              d="M485.98,591.46c-20.73,11.12-35.68,15.05-56.88-3.31-42.36-36.72-96.49-51.58-153.19-48.74-51.96,2.56-99.81,20.4-139.18,54.28-10.32,8.85-18.08,12.4-30.24,5.02-6.1-3.69-13.39-5.49-20.63-8.33,110.83-118.93,304.3-113.11,400.13,1.14"
              style="fill: rgb(29, 29, 27);"></path>
            <path class="cls-2"
              d="M735.75,115.05c-8.71,5.96-15.95,12.35-24.47,16.14-3.98,1.75-11.59,0-15.52-2.79-25.74-18.31-55.51-26.83-86.37-28.39-32.94-1.7-64.12,8.52-91.43,26.41-10.55,6.91-17.79,7.43-27.12-.47-5.58-4.73-12.45-8.14-18.84-12.16,73.45-67.06,200.23-65.4,263.79,1.28"
              style="fill: rgb(29, 29, 27);"></path>
            <path class="cls-2"
              d="M821.27,1316.23c-10.32-6.86-20.21-13.44-30.1-20.02,39.56-47.8,173.3-84.1,263.41-.52-2.89,1.89-5.96,3.36-8.23,5.54-15.57,14.86-29.29,14.91-47.37.99-18.22-14.01-42.26-16.23-65.59-18.88-42.45-4.83-77.52,10.79-112.11,32.89"
              style="fill: rgb(29, 29, 27);"></path>
            <path class="cls-2"
              d="M101.51,1464.5c-9.23,6.2-17.51,12.82-26.83,17.42-3.5,1.7-10.55,0-14.34-2.46-45.67-30-94.27-37.81-146.33-17.79-11.55,4.45-22.34,10.88-33.13,16.99-7.76,4.4-14.81,6.63-22.72.38-6.2-4.87-13.01-9.04-21.2-14.72,37.24-34.69,82.2-48.84,132.27-49.93,50.59-1.14,93.99,16.94,132.32,50.07"
              style="fill: rgb(29, 29, 27);"></path>
            <path class="cls-2"
              d="M471.83,789.56c65.73-63.56,192.18-69.61,263.93-1.23-17.84,20.87-34.97,18.84-59.91,5.49-54.38-29.06-109.79-24.04-161.52,10.46-6.72,4.5-12.78,6.29-20.11-1.04-5.73-5.73-14.29-8.9-22.43-13.72"
              style="fill: rgb(29, 29, 27);"></path>
            <path class="cls-2"
              d="M1054.25,1632.98c-10.27,7.19-20.35,14.29-31,21.72-31.19-24.7-67.63-36.68-107.95-35.35-27.59.9-54.09,9.28-76.57,24.32-12.35,8.28-21.11,9.18-32.28.85-4.78-3.55-10.03-6.48-15.1-9.65,44.58-56.22,180.45-79.17,262.84-1.89"
              style="fill: rgb(29, 29, 27);"></path>
            <path class="cls-2"
              d="M-131.27,134.69c-10.55-6.81-20.49-13.16-31.8-20.44,37.01-36.2,83.01-48.41,132.56-50.12,50.54-1.75,93.89,16.99,132.03,49.79-8.76,5.87-17.51,12.45-27.02,17.7-2.93,1.61-9.42,1.28-11.93-.8-25.03-20.63-55.8-27.92-86.93-30.76-31.94-2.93-61.66,8.42-89.44,23.33-6.15,3.31-11.74,7.52-17.51,11.31"
              style="fill: rgb(29, 29, 27);"></path>
            <path class="cls-2"
              d="M735,1465.21c-.95,1.23-1.18,1.7-1.61,1.99-15.52,11.78-28.39,20.87-50.12,5.06-24.32-17.7-55.8-24.23-86.7-21.86-29.81,2.32-58.35,11.64-83.2,28.68-7.71,5.3-13.77,3.98-20.54-.99-6.81-4.97-14.01-9.46-21.11-14.2,80.5-70.56,206.14-61,263.22,1.33"
              style="fill: rgb(29, 29, 27);"></path>
            <path class="cls-2"
              d="M1054.25,282.53c-10.27,7.19-20.44,14.29-31.28,21.82-31.09-24.8-67.77-36.96-107.8-35.26-28.25,1.18-55.56,9.51-79.17,25.84-8.57,5.92-16.18,9.56-25.6.76-5.58-5.21-13.11-8.52-20.02-12.82,63.6-61.81,188.59-70.37,263.88-.38"
              style="fill: rgb(29, 29, 27);"></path>
            <path class="cls-2"
              d="M-162.18,788.9c70.51-67.96,201.08-63.56,263.12.99-7.38,5.06-14.2,11.26-22.29,14.77-4.73,2.03-12.97,1.89-17.08-.8-32.7-21.53-69.09-32.23-107.85-26.97-22.81,3.08-45.19,12.64-66.21,22.43-13.2,6.15-23.33,12.02-35.54,0-4.07-4.02-9.32-6.96-14.2-10.46"
              style="fill: rgb(29, 29, 27);"></path>
            <path class="cls-2"
              d="M472.16,1127.84c67.15-66.87,194.17-68.19,263.69-.52-10.41,6.96-20.54,13.68-31.42,20.96-35.02-30.95-77.42-37.76-121.39-32.99-20.25,2.18-40.89,10.74-58.78,20.68-15.14,8.42-26.26,11.69-39.47-.71-3.41-3.22-8.33-4.97-12.59-7.38"
              style="fill: rgb(29, 29, 27);"></path>
            <path class="cls-2"
              d="M419.01,958.6c-8.94,5.58-17.32,11.88-26.64,16.14-3.79,1.7-10.88.57-14.53-1.89-49.79-33.84-102.6-35.07-157.68-14.43-2.79,1.04-5.87,2.32-7.86,4.35-21.34,21.15-39.47,10.84-56.65-5.54,62.61-63.37,195.69-66.44,263.41,1.37"
              style="fill: rgb(29, 29, 27);"></path>
            <path class="cls-2"
              d="M470.79,1801.88c36.82-31.23,78.18-47.28,125.84-49.36,50.59-2.18,94.6,12.64,133.31,43.63,6.81,5.49,6.58,7.48-.57,10.93-1.8.85-3.08,2.6-4.69,3.83-12.49,9.65-22.57,11.26-38.47,1.23-55.04-34.78-112.06-30.76-167.05,1.04-12.21,7.05-20.16,7.67-30.48-.52-4.97-3.93-11.03-6.67-17.94-10.79"
              style="fill: rgb(29, 29, 27);"></path>
            <path class="cls-2"
              d="M154.38,282.72c70.23-62.66,188.82-69.38,263.97-.33-10.41,7.48-20.59,14.81-30.95,22.29-30.67-25.7-66.92-37.67-105.58-35.11-24.8,1.66-49.93,10.93-72.93,20.96-15.1,6.58-26.64,15.52-41.12.95-3.36-3.41-8.23-5.44-13.39-8.71"
              style="fill: rgb(29, 29, 27);"></path>
            <path class="cls-2"
              d="M1052.92,958.08c-3.64,3.03-6.58,5.77-9.8,8.09-11.93,8.57-21.58,12.82-37.81,2.7-55.51-34.69-112.96-31.57-168.62.71-11.17,6.48-18.69,8.38-28.68,0-5.16-4.35-11.69-7.24-17.75-10.84,59.72-62.75,194.83-70.23,262.65-.66"
              style="fill: rgb(29, 29, 27);"></path>
            <path class="cls-2"
              d="M100.05,1126.75c-17.79,18.65-32.84,18.69-57.45,5.54-58.3-31.14-112.06-26.17-172.88,14.81-10.36-6.29-20.92-12.68-31.57-19.12,54.56-59.63,187.5-75.25,261.94-1.28"
              style="fill: rgb(29, 29, 27);"></path>
            <path class="cls-2"
              d="M417.88,620.52c-29.29,19.88-28.25,17.89-59.16,2.98-33.55-16.18-70.23-23.47-107.57-11.97-18.03,5.54-35.49,13.58-52.1,22.34-9.8,5.16-16.8,6.48-25.41-1.09-5.11-4.5-11.69-7.43-17.65-11.07,51.68-60.01,188.73-74.35,261.94-1.23"
              style="fill: rgb(29, 29, 27);"></path>
            <path class="cls-2"
              d="M790.22,618.96c88.12-74.02,208.08-54.47,263.22,1.56-.33.38-.57.85-.99,1.14-27.97,18.84-26.83,16.71-57.74,1.89-38.71-18.55-80.17-24.09-122.05-7.81-13.01,5.06-25.56,11.45-37.95,17.89-14.24,7.38-26.22,3.88-44.48-14.62"
              style="fill: rgb(29, 29, 27);"></path>
            <path class="cls-2"
              d="M470.97,451.57c26.64-23.99,57.83-38.76,92.05-45.86,31-6.44,62.89-6.39,93.94,2.41,27.59,7.81,52.15,21.01,74.11,38.62,1.8,1.42,3.5,6.2,2.98,6.63-6.77,5.02-14.39,8.99-20.87,14.2-9.28,7.43-14.06.8-21.39-3.64-43.4-26.26-89.58-35.11-138.75-16.28-13.91,5.35-26.6,13.58-40.46,19.02-4.73,1.85-11.97.52-17.08-1.56-8.23-3.36-15.71-8.57-24.42-13.53"
              style="fill: rgb(29, 29, 27);"></path>
            <path class="cls-2"
              d="M418.49,1633.12c-9.04,6.2-16.75,12.78-25.65,16.99-3.64,1.7-10.79-.52-14.86-3.08-27.83-17.42-58.16-27.64-91.34-27.73-31-.05-60.2,8.76-85.56,25.6-11.64,7.71-20.21,5.68-30-.24-5.54-3.31-10.55-7.48-15.9-11.31,63.89-61.9,187.97-71.03,263.36-.33"
              style="fill: rgb(29, 29, 27);"></path>
            <path class="cls-2"
              d="M154.19,1296.55c42.21-46.99,173.82-84.76,264.83-.99-10.36,6.91-20.49,13.63-32.13,21.39-25.27-23.14-58.07-31.57-91.76-35.16-16.04-1.7-33.6,1.56-49.26,6.25-17.13,5.11-33.13,13.87-49.08,22.05-7.86,4.02-13.35,5.73-20.82-1.09-5.92-5.4-14.29-8.33-21.77-12.49"
              style="fill: rgb(29, 29, 27);"></path>
            <path class="cls-2"
              d="M69.52,1823.27c-51.2-40.23-120.53-47.28-180.64-13.3-23.14,13.11-30.76,11.97-50.59-9.75,44.01-38.29,96.45-52.2,154.42-47.23,38.1,3.27,71.36,19.69,101.27,42.02,1.99,1.47,1.8,9.51-.33,11.41-7.38,6.39-16.04,11.41-24.09,16.85"
              style="fill: rgb(29, 29, 27);"></path>
            <path class="cls-2"
              d="M105.3,449.25c-14.53,9.37-25.32,16.33-35.4,22.81-43.11-30.19-89.68-43.77-141.78-27.87-18.08,5.49-34.69,15.24-52.01,23.05-7.15,3.22-35.64-7.57-37.29-14.58-.43-1.8,2.03-4.73,3.88-6.44,23.8-21.82,53.19-33.98,84.62-40.32,34.69-7,70.47-8.05,103.78,5.44,24.89,10.03,47.94,24.23,74.2,37.81"
              style="fill: rgb(29, 29, 27);"></path>
            <path class="cls-2"
              d="M215.05,997.74c33.41-27.73,103.83-31.52,143.44-.19-8.8,7.86-17.75,15.81-28.44,25.37-26.97-14.81-58.21-15-89.4,1.8-8.66-9.09-17.13-18.08-25.6-26.97"
              style="fill: rgb(29, 29, 27);"></path>
            <path class="cls-2"
              d="M995.19,998.26c-9.61,8.23-18.36,15.76-28.96,24.8-27.45-15.33-58.92-15.52-90.2,1.99-8.99-8.76-17.6-17.13-26.22-25.46,27.45-27.78,104.21-35.11,145.38-1.33"
              style="fill: rgb(29, 29, 27);"></path>
            <path class="cls-2"
              d="M529.09,155.94c46.8-35.73,122.24-27.87,148.83,1.99-7,5.82-13.91,12.35-21.67,17.7-2.98,2.03-8.8,3.17-11.83,1.75-25.18-11.78-50.21-13.77-75.58-.85-7.76,3.98-13.82,2.98-19.92-3.79-5.63-6.29-13.01-11.17-19.83-16.85"
              style="fill: rgb(29, 29, 27);"></path>
            <path class="cls-2"
              d="M-76.61,855.39c-9.7-8.52-18.65-16.42-27.64-24.32,32.13-31.33,110.55-32.37,144.43-1.42-7.62,8.85-15.33,17.75-23,26.6-31.47-15.29-62.23-16.89-93.8-.85"
              style="fill: rgb(29, 29, 27);"></path>
            <path class="cls-2"
              d="M994.76,661.74c-9.13,8.9-17.46,16.99-25.7,24.99-31.09-15.43-61.81-16.99-90.96,0-9.61-9.56-18.46-18.36-27.16-27.02,44.67-31.99,109.79-26.88,143.87,1.99"
              style="fill: rgb(29, 29, 27);"></path>
            <path class="cls-2"
              d="M529.04,1505.53c48.74-33.88,119.4-27.68,149.73,3.03-7.62,6.06-15,12.92-23.47,18.17-3.22,1.99-9.75,1.85-13.35.05-23.85-11.78-48.13-12.12-71.51-.8-10.93,5.3-16.52,2.46-23.38-4.78-5.16-5.44-11.41-9.99-18.08-15.71"
              style="fill: rgb(29, 29, 27);"></path>
            <path class="cls-2"
              d="M846.21-11.64c39.09-29.77,99.48-36.44,148.41-3.88-7.15,7.95-13.82,16.28-21.67,23.43-2.27,2.03-8.8,1.94-12.12.38-24.7-11.45-49.26-13.3-74.2-1.09-8.9,4.35-15.9,3.03-22.53-4.83-4.4-5.21-11.03-8.75-17.89-14.01"
              style="fill: rgb(29, 29, 27);"></path>
            <path class="cls-2"
              d="M848.34,325.88c27.02-28.63,105.53-36.77,146.18-2.65-.85,1.18-1.61,2.41-2.6,3.5-12.64,14.48-24.09,26.03-47.61,13.96-18.84-9.65-40.6-4.35-59.91,4.97-7.1,3.41-12.16,4.83-17.32-4.02-3.64-6.25-11.78-10.13-18.74-15.71"
              style="fill: rgb(29, 29, 27);"></path>
            <path class="cls-2"
              d="M-76.24,518.25c-10.51-9.13-19.73-17.13-29.01-25.22,35.16-28.77,110.83-32.75,147.65-.52-1.61,1.75-3.22,3.55-4.87,5.35-11.36,12.49-20.44,22.86-42.31,12.16-23.57-11.5-49.55-2.98-71.41,8.19"
              style="fill: rgb(29, 29, 27);"></path>
            <path class="cls-2"
              d="M530.51,830.92c31.42-26.6,100.56-35.82,146-1.66-8.47,8.9-16.85,17.75-25.27,26.6-31.75-15.71-63.89-16.47-92.42-.24-9.32-8.14-18.55-16.18-28.3-24.75"
              style="fill: rgb(29, 29, 27);"></path>
            <path class="cls-2"
              d="M-106.71,1505.72c47.42-31.66,107-30.52,148.79-1.37-.76,1.18-1.37,2.46-2.32,3.5-12.73,13.96-23.8,26.74-47.61,14.2-16.85-8.85-37.58-6.2-55.51,3.98-10.32,5.82-18.79,4.12-26.31-5.4-4.26-5.4-10.55-9.37-17.04-14.91"
              style="fill: rgb(29, 29, 27);"></path>
            <path class="cls-2"
              d="M358.86,661.74c-9.13,8.57-17.6,16.52-26.22,24.56-29.91-15.24-60.15-15.71-89.58-.05-8.85-8.85-17.6-17.65-26.36-26.45,29.63-27.92,106.1-30.62,142.16,1.94"
              style="fill: rgb(29, 29, 27);"></path>
            <path class="cls-2"
              d="M527.76,492.98c48.79-27.78,94.41-32.18,141.4-6.67,8.09,4.4,8.8,7.67,1.47,13.77-6.67,5.54-11.88,12.68-17.13,18.5-29.39-13.25-56.55-18.84-84.99-4.26-7.19,3.69-14.67,3.5-20.87-4.4-4.83-6.15-12.16-10.51-19.88-16.94"
              style="fill: rgb(29, 29, 27);"></path>
            <path class="cls-2"
              d="M359.57-13.77c-.85,1.42-1.09,1.85-1.37,2.22-16.61,24.89-38.38,16-62.23,12.02-17.51-2.93-36.91,4.69-58.45,8.09-5.63-4.92-14.86-13.01-24.18-21.15,35.07-30.15,102.88-35.26,146.23-1.18"
              style="fill: rgb(29, 29, 27);"></path>
            <path class="cls-2"
              d="M848.43,1336.82c43.35-31.33,100.9-31.61,145.81-1.8-12.54,15.95-23.95,30.86-49.5,17.56-16.56-8.61-36.2-4.87-52.81,3.12-14.24,6.86-23.61,3.98-32.32-7.43-2.93-3.88-6.86-7.1-11.17-11.5"
              style="fill: rgb(29, 29, 27);"></path>
            <path class="cls-2"
              d="M-105.91,1169.86c37.48-30.67,109.18-35.45,149.59.62-8.09,6.1-15.71,12.64-24.18,17.89-2.98,1.85-8.57,2.03-11.97.71-22.76-8.94-46.05-12.59-68.76-2.13-13.96,6.44-22.48,2.89-31.19-7.38-3.12-3.69-8.14-5.96-13.49-9.7"
              style="fill: rgb(29, 29, 27);"></path>
            <path class="cls-2"
              d="M-103.16,155.27c38.52-34.26,119.26-28.25,142.21-.33-8.05,7.48-16.04,14.91-24.56,22.86-9.28-2.27-20.63-6.29-32.32-7.62-11.22-1.28-23.47-2.03-34.07.95-30.33,8.52-30.1,9.32-51.2-15.85"
              style="fill: rgb(29, 29, 27);"></path>
            <path class="cls-2"
              d="M875.79,1699.09c-8.61-8.47-16.47-16.23-24.7-24.32,14.72-24.8,100.9-37.24,143.25-1.28-.14.43-.19.9-.43,1.28-12.97,18.6-28.16,26.79-52.25,15.95-20.78-9.37-41.69-1.85-61.38,7.1-1.75.8-3.79,1.09-4.5,1.28"
              style="fill: rgb(29, 29, 27);"></path>
            <path class="cls-2"
              d="M528.28,1167.59c52.1-29.39,100.85-32.18,151.96.38-4.78,3.5-9.65,5.92-12.78,9.65-9.61,11.36-17.98,15.43-34.69,8.14-15.14-6.58-33.84-10.6-51.82-.85-15.57,8.47-30.57,7.15-41.41-9.13-2.08-3.12-6.48-4.83-11.26-8.23"
              style="fill: rgb(29, 29, 27);"></path>
            <path class="cls-2"
              d="M213.44,324.93c31.57-29.58,108.28-34.26,144.95-1.89-.14.43-.24.85-.47,1.23-13.63,23.19-32.75,22.67-56.69,15.48-12.35-3.74-28.68-2.13-41.03,2.46-14.91,5.54-25.13,5.92-34.64-7.05-2.79-3.83-7.48-6.39-12.12-10.22"
              style="fill: rgb(29, 29, 27);"></path>
            <path class="cls-2"
              d="M212.87,1337.1c39.71-31.61,108.28-31.57,146.47-.52-.76,1.04-1.51,2.18-2.32,3.27-14.48,19.26-32.7,21.72-54.56,12.21-17.32-7.52-34.17-2.18-49.55,5.58-9.61,4.83-14.86,2.03-21.11-4.35-5.49-5.58-11.97-10.27-18.93-16.14"
              style="fill: rgb(29, 29, 27);"></path>
            <path class="cls-2"
              d="M330.89,1697.1c-28.58-11.97-59.2-14.81-89.54,2.27-8.66-8.76-17.13-17.32-25.6-25.89,24.28-25.32,102.69-34.03,141.59-.95-8.23,7.67-16.56,15.38-26.45,24.61"
              style="fill: rgb(29, 29, 27);"></path>
            <path class="cls-2"
              d="M629.65,544.33c-8.42,10.84-16.18,20.78-25.22,32.46-9.13-11.83-16.85-21.77-24.56-31.75,16.85-11.83,33.69-12.26,49.79-.71"
              style="fill: rgb(29, 29, 27);"></path>
            <path class="cls-2"
              d="M629.23,206.05c-6.15,8.8-11.78,17.98-18.84,26.08-1.66,1.89-10.13,1.66-12.02-.43-6.91-7.67-12.3-16.52-18.31-24.89,13.06-9.94,32.84-10.32,49.17-.76"
              style="fill: rgb(29, 29, 27);"></path>
            <path class="cls-2"
              d="M894.34,707.83h55.65c-9.75,12.97-16.89,23.05-24.89,32.46-.9,1.04-8.23-.8-10.13-3.12-6.48-7.95-11.93-16.71-20.59-29.34"
              style="fill: rgb(29, 29, 27);"></path>
            <path class="cls-2"
              d="M261.04,1047.95c19.4-5.21,35.54-8.8,50.97,1.42-5.96,8.71-10.88,17.32-17.42,24.61-2.37,2.6-11.36,4.02-12.82,2.37-7.34-8.23-13.16-17.7-20.68-28.35"
              style="fill: rgb(29, 29, 27);"></path>
            <path class="cls-2"
              d="M579.63,880.24c24.47-8.8,33.93-8.57,49.08.76-5.73,8.76-10.93,17.94-17.6,25.98-1.8,2.18-10.36,2.7-11.88.95-7.1-8.38-12.82-17.79-19.59-27.68"
              style="fill: rgb(29, 29, 27);"></path>
            <path class="cls-2"
              d="M948.57,370.88c-8.23,12.87-13.35,22.29-20.16,30.48-1.56,1.89-10.93,1.18-13.01-1.23-6.67-7.71-11.64-16.8-19.83-29.25h53Z"
              style="fill: rgb(29, 29, 27);"></path>
            <path class="cls-2"
              d="M311.82,374.76c-6.48,9.18-12.64,18.6-19.69,27.35-1.47,1.8-8.05,2.7-8.99,1.51-6.48-7.95-12.54-16.28-17.65-25.13-.95-1.61,3.03-8.42,4.97-8.52,13.58-.76,27.21-.43,40.79-.43.19,1.7.38,3.41.52,5.11"
              style="fill: rgb(29, 29, 27);"></path>
            <path class="cls-2"
              d="M947.53,1048.28c-6.67,9.8-11.97,18.88-18.6,26.97-6.25,7.71-11.88,2.46-15.95-2.89-5.54-7.29-10.27-15.14-15.81-23.43,15.81-9.7,31.9-6.44,50.31-.71"
              style="fill: rgb(29, 29, 27);"></path>
            <path class="cls-2"
              d="M895.05,1720.34h48.74c.99,1.42,1.99,2.84,2.98,4.26-7.29,10.22-14.43,20.54-22.24,30.38-.38.52-7.43-2.13-9.42-4.73-6.2-8.14-11.5-16.94-20.07-29.86"
              style="fill: rgb(29, 29, 27);"></path>
            <path class="cls-2"
              d="M630.08,1554.75c-7.15,10.32-12.35,19.21-19.17,26.79-1.99,2.18-10.74,2.46-12.64.43-6.96-7.52-12.3-16.37-19.36-26.36,16.99-7.43,33.27-7.29,51.16-.8"
              style="fill: rgb(29, 29, 27);"></path>
            <path class="cls-2"
              d="M577.27,1215.01h53.95c-7.9,11.41-13.68,20.92-20.87,29.29-1.61,1.89-10.17,1.66-12.02-.43-7.05-7.95-12.73-17.08-21.06-28.87"
              style="fill: rgb(29, 29, 27);"></path>
            <path class="cls-2"
              d="M260.9,1384h53c-8.05,11.45-14.06,21.15-21.49,29.72-1.66,1.94-10.41,1.66-12.16-.43-6.48-7.81-11.36-16.8-19.4-29.29"
              style="fill: rgb(29, 29, 27);"></path>
            <path class="cls-2"
              d="M262.18,711.86c16.61-6.96,31.99-8.85,49.88-1.09-6.2,9.61-11.64,19.5-18.93,27.92-1.47,1.66-11.78-.85-15.1-4.16-6.1-6.06-10.08-14.1-15.81-22.72"
              style="fill: rgb(29, 29, 27);"></path>
            <path class="cls-2"
              d="M257.73,1720h42.92c1.04,0,2.51-.24,2.98.28,2.13,2.32,6.25,6.25,5.63,7.19-6.01,9.37-12.73,18.36-19.73,27.07-.47.62-6.2-1.23-7.81-3.17-7.15-8.66-13.72-17.79-23.95-31.38"
              style="fill: rgb(29, 29, 27);"></path>
            <path class="cls-2"
              d="M949.04,32.42c-8.66,13.3-14.15,22.38-20.49,30.86-1.51,1.99-8.09,3.5-8.9,2.56-7.19-8.52-13.77-17.56-19.92-26.79-.47-.71,3.79-6.2,6.01-6.29,13.11-.62,26.26-.28,43.3-.28"
              style="fill: rgb(29, 29, 27);"></path>
            <path class="cls-2"
              d="M263.93,31.85c12.82,0,25.74-.9,38.38.38,5.96.62,11.12,5.11,4.35,12.45-4.59,5.02-6.86,12.21-11.97,16.42-3.17,2.6-12.45,3.69-14.29,1.61-6.72-7.57-11.5-16.71-16.99-25.27.19-1.85.33-3.74.52-5.58"
              style="fill: rgb(29, 29, 27);"></path>
          </g>
        </g>
      </g>
    </g>
  </g>
</svg>