<?xml version="1.0" encoding="UTF-8"?>
<svg id="Calque_1" data-name="Calque 1" xmlns="http://www.w3.org/2000/svg"
  viewBox="0 0 465.94 675.69" width="465.94" height="675.69">
  <path
    d="M464.6,210.62c.45-.06.89-.1,1.34-.15v-54.83c-1.67.6-3.32,1.31-4.92,2.18-.91.49-1.99.67-3.01.97.82-.95,1.65-1.9,2.62-3.01-2.69-1.05-4.79-.6-6.83.75-2.27,1.51-4.61,2.91-6.93,4.36-.03.03-.07.06-.1.09.03-.04.06-.07.09-.11,1.5-1.81,2.99-3.61,4.74-5.73-2.15.33-3.91.6-5.32.82-2.63,2.41-4.99,4.58-7.36,6.75,0-.6-.01-1.2-.02-1.8,0,0-.08-.08-.08-.08-3.23,1.72-4.72,4.98-6.78,7.72-.96,1.28-1.78,2.67-2.66,4.01.03-3.84,2.03-6.68,4.02-9.5,3.08-4.38,5.61-8.99,6.88-14.25,1.09-4.49,1.14-9.5-.15-13.41-.72,6.54-2.93,12.24-6.91,17.25-.02-1.86.4-3.61.58-5.38.17-1.65.11-3.32.1-4.99,0-1.61-.09-3.22-.13-4.83-.87,2.92-1.57,5.65-3.34,8.17-.31-2.13-.62-4.25-.93-6.39-2.36,1.06-.72,4.25-3.2,5.24-1.18-10.06-5.21-17.39-10.92-20.04.83,3.01,2.52,5.83,2.16,9.42-1.94-3.7-3.61-7.13-5.53-10.42-1-1.72-1.82-3.78-4.04-4.42.67,2.31,1.36,4.61,2.01,6.92.41,1.47,1.51,2.89.39,4.57-1.33-2.56-2.51-5.11-3.93-7.52-1.39-2.35-2.8-4.74-5.42-5.99.51,1.43.99,2.88,1.57,4.29,1.93,4.68,4.52,9.16,4.23,14.48-.58-.45-1.25-.83-1.68-1.39-2.41-3.14-4.62-6.44-7.14-9.49-2.53-3.06-5.33-5.9-8.02-8.83,1.12,2.48,2.24,4.96,3.41,7.55-2.81.32-4.28-1.16-5.9-2.68-2.4-2.27-4.92-4.46-7.63-6.33-2.47-1.7-3.65-1.66-6.38-1.1,4.21,1.78,8.47,3.56,10.34,8.33-.7-.29-1.51-.44-2.05-.92-4.82-4.23-10.35-6.88-16.91-7.91-1.56.92-4.27.69-3.96,3.78,5.65.15,6.53.4,10.12,2.92-2.68.15-5.27.29-8.58.48,1.63,2.2,2.81,3.79,4.3,5.79-3.9-.31-7.2-.91-10.46-.75-5.46.26-6.08.65-8.73,2.47,15.86.8,17,1,21.98,3.93-8.56-1-16.93-1.58-25.76.71,4.96,1.2,9.61,1.44,14.06,3.88-10.84,2.19-15.96,5.29-19.64,12.11,7.29-5.31,14.76-8.43,24.33-8.38-2.34,1.17-3.78,1.91-5.24,2.62-3.93,1.92-7.38,4.49-10.22,7.81-.51.6-.7,1.47-.98,2.27.96-.73,1.94-1.44,2.86-2.22,7.68-6.49,16.48-8.84,26.58-7.36.34.82.66,1.6,1.04,2.53-4.34-.13-8.14-2.92-12.22-.25,8.63,2.48,13.94,8.1,17.2,15.95-1.31-.34-2.33-1.11-3.47-1.57-3.82-1.55-7.65-3.12-11.56-4.42-2.24-.74-4.59-.69-6.22.92,3.35.8,7.12,1.06,10.27,2.61,4.12,2.02,7.94,4.81,11.53,7.71,3.15,2.54,3.08,6.5,3.68,10.45-6.51-2.69-12.7-4.37-19.14-5.3-3.9-.56-7.77-1.27-11.61-2.47-6.58-2.05-13.48-2.31-20.13-.24-3.74,1.17-7.19,3.25-11.33,5.18-.62-.36-1.74-1.01-2.88-1.61-.15-.08-.45.16-.77.28.5.91,1,1.8,1.96,3.53-1.79-.99-2.69-1.48-3.68-2.03-.14.6-.24,1.06-.35,1.52-.43.16-.87.33-1.77.67,1.25,1.79,2.43,3.49,3.62,5.19-1.19-.24-2.38-.48-3.57-.73,1.17,1.17,2.34,2.34,3.36,3.36-3.68,1.17-7.53,2.18-11.22,3.61-4.78,1.85-7.16,4.39-7.79,7.61,4.88-3.91,7.48-5.13,11.09-5.3-2.09,2.52-4.26,5.13-6.43,7.73.21.22.41.44.62.66,1.87-1.42,3.74-2.83,5.89-4.46-1.05,2.16-1.88,3.86-2.7,5.55,1.07-.84,2.13-1.7,3.23-2.51,2.03-1.5,3.9-3.34,6.66-3.43.5-.33,1-.67,1.49-1,.09.22.17.43.26.65-.56.14-1.13.28-1.69.42-2.3,2.06-4.71,4.01-6.85,6.22-2.47,2.54-3.94,5.52-2.7,9.65,2.37-4.98,5.22-9.02,10.34-10.76-.73,1.16-1.42,2.36-2.21,3.47-2.13,2.98-3.05,6.31-3.4,10.59,4.47-7.53,9.44-13.65,15.91-18.38,1.01.17,1.78.3,2.96.49-2.42,1.86-4.56,3.42-6.59,5.1-2.07,1.71-3.91,3.64-5.58,7.14,2.67-1.65,4.32-2.72,6.02-3.71,1.66-.97,3.37-1.85,5.06-2.77.14.42.28.86.47,1.45,4.39-.87,8.74-1.74,13.04-2.59,1.12-1.2,2.24-2.39,3.36-3.59-.24,1.17-.48,2.34-.73,3.5.28.16.56.33.84.49,2.23-2,4.46-4,6.7-5.99-.83,1.68-1.67,3.38-2.71,5.49,4.89-.38,9.28.52,13.87,1.64-1.76,1.04-3.25,1.91-4.73,2.79,4.32.54,8.55-1.32,12.16,1.06-1.27.82-2.63,1.69-3.99,2.57,2.01-.11,4.02-.22,5.88-.33.83.49,1.57,1.16,2.43,1.38,1.91.48,3.95.52,5.81,1.12,4.53,1.47,9.5,2.24,12.37,6.73-1.41-.57-2.81-1.12-4.21-1.7-3.3-1.38-6.39-3.33-10.47-3.85,1.4,1.27,2.46,2.23,4.01,3.63-6.64-1.73-12.49-3.43-18.42-4.77-6.2-1.4-12.55-1.17-18.86-1.1-8.55.1-14.53,1.4-17.11,3.73.26.28.51.55.85.91-2.52.26-4.86.34-7.14.76-2.4.44-4.75,1.2-7.12,1.82.03.26.05.53.08.79h10.19c-3.43,1.67-6.93,2.69-10.25,4.12-1.93.83-4.42,1.22-5.16,3.77,2.78-.58,5.55-1.16,8.2-1.72-4.35,3.34-8.7,6.67-13.91,10.66,3.4-.69,5.81-1.18,8.16-1.66-1.56,1.2-3.16,2.36-4.66,3.63-2.71,2.3-3.99,5.08-2.49,8.92,1.97-2.98,2.56-6.83,6.46-7.85l.71-.51c-.17.24-.33.48-.5.73-.67,1.92-1.33,3.84-2,5.76.95-.59,1.9-1.19,2.85-1.78.21.73.42,1.46.63,2.17-4.9,3.72-8.69,8.09-9.79,14.77,1.08-.48,1.64-.72,2.17-.96-.14,2.87-2.13,5.45-1.57,8.74,1.28-1.66,2.37-3.06,3.44-4.46-.19,1.16-.39,2.31-.56,3.47-.67,4.41,0,8.44,3.67,12.27-.04-5.41.14-10.21,2.45-14.6.31.33.62.66,1.08,1.16.71-1.07,1.45-2.08,2.08-3.14,3.24-5.48,7.33-10.26,12.03-14.53,3.89-3.53,8.33-6.01,13.52-7.01,3.09-.6,6.19-1.1,9.29-1.63,3.66-.62,17.58-.46,20.8.21-2.51,1.99-5.3,3.84-7.62,6.17-2.56,2.56-5.45,4.31-8.87,5.24-3.33.9-6.69,1.7-10.03,2.54,1.18.48,2.33.52,3.46.68,1.24.17,2.47.45,4.5.83-8.08,7.33-16.04,13.36-25.26,17.87,1.83.14,3.58-.07,5.32-.3,1-.13,2-.27,3-.41-4.07,3.55-9.02,5.53-13.82,8.17,3.3-.4,6.6-.8,9.9-1.2-1.26,1.3-2.5,2.6-3.77,3.89-1.32,1.33-2.65,2.64-3.98,3.96,1.51-.46,3.04-.87,4.52-1.4,1.1-.4,2.16-.92,3.24-1.4-1.64,3.06-3.29,6.11-4.92,9.17-1.09,2.04-2.34,4.04-2.66,7.08,2.87-3.07,5.29-5.65,7.7-8.22,0,.73.04,1.46-.13,2.15-.72,2.89-1.7,5.73-2.27,8.65-.93,4.79-.91,9.6.66,14.43,1.02-4.98,2.04-9.95,3.21-15.67,1.07,5.46,1.97,10.06,2.87,14.66.27,0,.54,0,.81,0,.53-2.16,1.05-4.32,1.62-6.66.83.39,1.37.64,1.91.89q.78-3.34,3.82-5.35v9.4c3.86-3.72,5.34-8.43,7.12-13.12.71,1.56,1.31,2.88,1.91,4.2.22-.03.44-.06.66-.09v-13.38c.74.68,1.07.97,1.42,1.29.7-1.13,1.34-2.17,2.5-4.07-.43,4.08-.75,7.17-1.07,10.25.2.05.39.1.59.15.68-1.18,1.36-2.36,2.13-3.68.37.84.64,1.45,1,2.26.67-2.13,1.26-4.03,1.86-5.93.17.02.34.03.52.05v9.9c.22.03.43.07.65.1,1.51-5.03,3.03-10.05,4.54-15.08.76,4.12-1.45,8.29,1.48,12.52.9-5.99,2.12-11.5,5.13-17.29.48,4.78-1.52,8.96,1.01,13.2,1.05-4.22,1.85-8.19,3.06-12.04,1.69-5.41,3.11-7.66,5.75-10.25-1.83,8.59-1.08,16.2,1.86,19.65.51-4.25,1.03-8.63,1.55-13.01.96,7.77.81,15.61,5.68,22.41-.24-3.04-.49-6.07-.73-9.11.25-.03.51-.07.76-.1,1.32,6.34,2.65,12.68,4.22,20.19.66-2.73,1.06-4.39,1.59-6.55.5,3.37,1.04,6.15,1.3,8.95.25,2.81.22,5.64.31,8.47.28.02.56.03.83.05.78-3.46,1.56-6.93,2.44-10.88,1.3,2.43,2.39,4.45,3.32,6.17-1.18,5.87-2.82,11.33-.09,17.02,1.1-3.11-.64-6.69,1.99-9.64.43,3.52.53,6.83,3.17,9.94,0-1.89-.06-3.21.02-4.52.08-1.36.3-2.7.46-4.05,3.78,26.72,6.96,53.41,6.97,80.41-.44.25-.84.6-1.29.73-15.47,4.34-30.91,8.83-46.45,12.93-13.78,3.63-27.58,7.28-41.54,10.06-13.48,2.69-27.17,4.43-40.8,6.35-12.49,1.76-25.03,3.23-37.55,4.76-3.07.38-6.17.52-9.43.79-1.03-9.3,1.14-17.91,3.03-26.43,2.77-.26,5.05-.47,7.68-.72.38-2.04.89-3.78,1-5.54.16-2.49.18-5.01.02-7.5-.31-4.8,1.73-8.97,3.07-13.54,1.35,0,2.5.01,3.64,0,12.98-.18,25.91,1.13,38.93.42,14.61-.79,29.24-1.15,43.73-3.34,8.19-1.24,16.39-2.52,24.48-4.29,4.66-1.02,9.17-2.88,13.62-4.68,2.91-1.18,5.67-2.85,6.63-6.27-.8-3.49-2.96-5.92-5.51-8.16-8.1-7.1-17.57-12-27.1-16.72-29.42-14.59-60.36-25.01-92.17-32.95-1.22-.3-2.38-.86-3.99-1.45.76-2.77,1.17-5.24,2.13-7.48,1.37-3.19,2.08-6.28.86-9.66-.73-2.02-1.23-4.12-2.04-6.11-2.01-4.92-4.37-9.7-6.14-14.7-1.13-3.18-2.08-6.28-5.27-8.04.09-3.9,2.46-6.57,3.99-9.91,1.92.33,3.69.64,5.78,1,.86-.56,1.96-1.27,2.67-1.73,2.09-5.04,4-9.62,5.94-14.3-1.09-2.05-2.17-4.09-3.21-6.04,3.64-7.12,4.41-8.13,4.15-13.25.67-1.11,1.3-2.15,2.08-3.44-1.45-.52-2.49-.9-2.94-1.06-1.68-2.33-2.62-5.07-4.43-5.9-6.69-3.04-13.5-6.78-21.2-2.83-.43.22-.94.38-1.41.39-4.33.05-7.32,2.83-10.52,5.17-4.98,3.64-6.02,8.47-4.21,14.14,1.36,4.27,2.71,8.54,4.03,12.68-.62,2.98-1.22,5.89-1.81,8.75.9.55,1.59.96,2.63,1.59-.4,1.13-.57,2.51-1.29,3.5-2.63,3.6-4.95,7.42-8.73,10.11-1.82,1.3-3.39,3.26-4.46,5.25-2.44,4.51-4.43,9.26-6.73,13.85-1.52,3.03-2.42,6.1-2.28,9.56.13,3.28-.47,6.51-1.8,9.16-12.87-.74-25.3-1.6-37.74-2.13-12.48-.54-24.92.51-37.13,1.82-10.12-6.51-14.5-8.06-18.12-6.35,2.33,2.61,4.63,5.19,7.01,7.85-6.3,1.96-12.29,3.82-18.42,5.72-4.94-1.51-9.77-4.31-16.43-3.11,3.48,3.04,6.27,5.48,8.98,7.85-.44.7-.58,1.01-.79,1.25-6.21,7.29-6.3,13.17-.85,21.12,2.41,3.51,5.37,6.3,8.65,8.85,7.4,5.78,15.64,10.11,24.19,13.86,6.21,2.72,12.53,5.2,18.95,7.85.86,5.92,1.91,11.79,2.54,17.7.87,8.26,1.23,16.58,2.16,24.84.87,7.75,2.54,15.38,5.59,22.62,1.57,3.75,3.71,7.06,7.5,9.07h5.32c1.29-1.2,2.93-2.38,4.14-3.89,7.17-8.97,14.28-17.99,21.35-27.04,4.55-5.83,9-11.75,13.93-18.2.61,7.07-.25,13.24-1.49,19.56,2.6.75,4.95,1.42,7.42,2.13v12.48c-1.97.63-3.96,1.33-5.99,1.89-2.72.74-5.51,1.22-8.19,2.09-7.36,2.38-13.51,6.38-17.27,13.44-.45.85-1.11,1.58-1.86,2.62-5.52-.37-10.99-.64-16.45-1.11-7.61-.66-15.29-1-22.79-2.32-11.42-2.02-22.79-4.46-34.04-7.28-13.67-3.42-27.21-7.33-40.77-11.17-8.43-2.39-16.79-5.02-25.33-7.59.7-5.86,1.16-11.46,2.08-16.99,2.3-13.81,2.65-27.79,3.68-41.7.76-10.28.77-20.63,1.03-30.95.13-5.5.06-11,.11-16.5,0-.41.29-.81.43-1.2,1.44.53,2.74,1.02,4.98,1.85-2.84-4.61-4.73-8.48-5.25-13.18,1.07.63,1.76,1.03,2.62,1.54.13-1.08.24-2.02.37-3.1,4.61-1.38,3.53-5.64,4.49-10.23.83,2.25,1.29,3.38,1.66,4.55.39,1.23.7,2.49,1.11,4.01,4.25-5.46,3.81-11.5,3.63-18.06.76,1.16,1.13,1.7,1.48,2.25.31.49.61.98,1.47,2.38-1.42-12.01-4.99-22.11-9.84-31.85.8-1.47,1.58-2.92,2.13-3.94,3.29-.91,6.1-1.7,8.96-2.49,1.61,3.13,3.11,6.02,5.08,9.84v5.39c.13,0,.26-.01.4-.02.56-1.88,1.11-3.77,1.77-5.98,1.97,4.17,3.37,8.5,8.64,11.21-.83-1.63-1.15-2.3-1.51-2.94-2.59-4.74-3.59-9.96-4.51-15.19-.19-1.11-.66-2.63,1.37-3.23.19.83.34,1.46.48,2.09,1.65,7.28,4.68,13.86,10.01,19.18,1.1,1.1,2.65,1.75,4,2.61h.01c-.54-1.34-1.2-2.63-1.59-4-.51-1.83-.85-3.71-1.25-5.58,1.02,1.43,2.06,2.89,3.47,4.86.39-6.5-.36-12.44,2.11-18.04-.16,9.49.14,18.9,3.87,28.01,1.02.82,2.18,1.77,3.36,2.68,1.18.91,2.39,1.78,4.43,3.3-4.65-8.56-6.74-16.94-6.01-22.65,1.18,3.26,2.26,6.72,3.68,10.02,2.76,6.46,6.33,12.44,11.44,17.35,2.34,2.25,4.83,4.4,8.76,4.95-8.04-7.47-12.24-14.06-12.73-19.61,4.55,3.78,9.19,7.62,14.56,12.07-.7-3.77-1.02-6.53-1.75-9.18-1.62-5.89-3.46-11.72-5.15-17.59-.12-.43.26-1,.7-2.51.9,2.14,1.51,3.26,1.86,4.46.82,2.86,1.37,5.81,2.29,8.63,2.48,7.62,5.57,14.96,11.38,20.75,1.8,1.79,3.59,3.71,6.37,3.94-2.76-3.79-6.06-7.32-8.1-11.47-2.97-6.04-5.03-12.54-7.38-18.88-.37-.99-.23-2.16-.33-3.24,2.1,3.67,3.47,7.53,5.07,11.29,2.81,6.61,6.5,12.69,11.87,17.56,1.71,1.55,3.25,3.56,5.86,3.72-5.77-6.27-9.95-13.47-12.63-21.54.61.53,1.27,1.02,1.74,1.65,1.81,2.38,3.39,4.95,5.31,7.23,4.53,5.37,9.53,10.22,16.21,12.91.88.36,1.86.48,3.88.99-12.19-8.64-28.84-29.46-28.92-35.69,1.7-.21,2.07,1.01,2.73,2.21,1.82,3.34,3.57,6.78,5.82,9.83,8.34,11.28,19.07,19.82,31.33,26.5.76.41,1.64.61,2.48.87-.2-.32-.4-.65-.66-.91-4.84-4.72-9.93-9.21-14.48-14.19-2.85-3.12-6.03-6.19-7.37-10.44,2.86,2.33,5.66,4.73,8.6,6.95,7.57,5.69,15.28,11.18,24.48,14.03,1.34.42,2.75.59,4.13.87-12.78-5.63-18.09-16.28-21.02-28.92,3.06.31,5.83.71,8.62.83,2.78.12,5.5,1.57,8.73.43-5.82-1.52-11.21-3.06-16.67-4.3-2.31-.52-3.66-1.78-4.9-4.13,5.51,1.48,10.51,4.21,16.16,2.57-2.51-1.26-5.03-2.2-7.19-3.67-3.69-2.51-7.74-3.66-12.07-4.15-.14-.02-.25-.25-.36-.37,1.43-.37,2.77-.73,5.2-1.36-2.23-1.41-3.63-2.16-4.88-3.12-2.14-1.64-5.29-1.51-6.99-3.89,0,0,.01,0,.02,0-.02-.01-.03-.02-.05-.04-.02-.04-.05-.07-.08-.1-.01,0-.03.01-.04.02-.86-.62-1.66-1.39-2.61-1.76-7.08-2.78-14.1-5.78-21.34-8.11-18.76-6.03-37.94-10.29-57.65-12.49.39-.42.65-.96,1.06-1.11,4.21-1.62,8.51-2.75,13.08-1.87,3.81.74,7.62,1.53,11.42,2.3-1.62-3.83-5.15-5.33-9.95-6.94,3.7-1.26,6.32-.91,8.84-1.06,2.47-.14,4.95-.1,7.43-.11,2.49-.01,4.97,0,7.46,0-1.4-1.89-3-2.99-4.58-4.14-1.51-1.1-3-2.23-4.49-3.36,3.81,1.37,7.61,2.75,11.43,4.08,1.53.53,3.1.95,4.66,1.41-1.27-1.21-2.54-2.41-3.81-3.62-1.22-.7-2.45-1.39-3.67-2.09,1.66-.23,2.93.45,3.91,1.82,1.58.7,3.16,1.38,4.73,2.09,1.26.57,2.51,1.17,3.77,1.76-1.26-1.18-2.48-2.4-3.82-3.49-1.76-1.43-3.61-2.74-5.43-4.09,1.6.39,3.29.61,4.7,1.35,5.54,2.88,10.96,5.97,16.63,9.08.71-.58,1.57-1.28,2.2-1.79-.59-2.28-1.11-4.29-1.62-6.27,2.41,3.48,4.81,6.96,7.16,10.36,1.62.17,2.95.31,4.83.5-1.44-2.45-2.63-4.24-3.57-6.15-1-2.01-1.77-4.13-2.64-6.2.99.77,1.99,1.51,2.96,2.3,3.92,3.22,7.8,6.48,12.88,7.78l.28-.29c-1.76-4.46-5-7.71-8.64-10.65-1.99-1.61-4.13-3.08-5.94-6.32,8.77,5.68,16.87,10.19,27.34,8.87-4.79-2.23-9.78-2.76-13.83-6.45,2.96-.21,5.3-.38,7.75-.56-.31-.77-.48-1.22-.64-1.61,1.35.28,2.69.56,3.95.82,2.43-1.4,4.17-3.2,5.38-5.29-.61-.71-1-1.17-1.38-1.61.89-.13,1.78-.25,2.63-.37.99-2.22,1.91-4.28,3.04-6.81-3.01-.43-5.54-.8-8.08-1.17.02-.13.03-.26.05-.39,2.94-.15,5.88-.3,8.95-.46v-2.5c-3.35-.39-6.47-1.31-9.86-.67-2.13.4-4.36.22-6.55.26,2.41-1.21,4.82-2.42,7.18-3.6-1.57-2.07-4.14-1.02-6.38-1.35.4-.54.79-1.09,1.19-1.63-4.78-3.26-5.08-3.03-10.45-1.04-3.36,1.24-6.47,3.2-9.66,4.89-1.72.92-3.37,1.96-5.05,2.95-1.01.89-2.03,1.79-3.04,2.68,0-1.77,1.23-2.5,2.74-3.01,4.97-4.23,9.93-8.46,15.1-12.86-.86-.5-1.89-1.11-3.1-1.82-3.14,3.91-7.39,5.39-11.71,6.73.22-.5.45-1.04.87-2.02-8.12,3.23-14.4,8.15-19.62,14.64.08-.88.28-1.65.68-2.29,1.48-2.32,3.02-4.6,4.81-7.3-2.4.35-4.52.65-6.64.96.84-.85,1.59-1.86,2.59-2.43,5.57-3.18,11.21-6.24,16.73-9.28-.88.06-2.03.03-3.13.24-7.09,1.36-13.51,4.36-19.64,8.07-1.44.87-2.78,2.26-5.33,1.74,5.34-5.69,12.1-8.3,18.26-11.88-5.04.38-9.48,2.59-13.96,4.4-3.1-1.24-6.24-2.28-9.18-3.72-5.77-2.83-11.44-5.87-17.15-8.83.95.1,1.92.17,2.83.42,4.62,1.28,9.18,2.76,13.82,3.94,7.23,1.84,11.47,1.96,16.55.72-1.34-.49-2.43-.83-3.48-1.28-3.97-1.67-7.97-3.31-10.84-6.73,1.78.72,3.55,1.47,5.34,2.15,1.29.49,2.6.91,3.91,1.35-3.4-2.43-6.8-4.87-10.2-7.3,6.11,2.1,11.89,4.81,17.69,7.47,1.53.7,3.11,1.29,4.68,1.93-.34-.49-.68-.97-.97-1.49-.23-.4-.39-.84-.57-1.27,2.2.61,4.4,1.22,6.6,1.82-.37-.59-.66-1.33-1.2-1.62-3.5-1.88-7-3.8-10.64-5.37-4.12-1.77-8.21-3.51-11.94-6.83,9.06,1.07,17.79,1.89,27.64.68-8.18-2.58-15.26-4.82-22.33-7.05,5.39-.1,10.64,1.11,16.7-.23-8.2-.83-15.05-3.38-22.56-6.54,4.05-3.81,7.55-7.1,11.62-10.93-4.14.64-7.46,1.15-10.7,1.65.19-.83.33-1.4.51-2.19-6.74.02-12.26,2.69-17.84,5.75.69-1.94,1.59-3.66,2.64-5.27,1.3-1.98,2.71-3.88,4.08-5.81-.95.42-2.04.7-2.72,1.38-3.17,3.15-6.2,6.44-9.27,9.69-.79.84-1.54,1.73-2.31,2.59-.09-1.93.4-3.47.94-5,.77-2.2,1.57-4.4,2.35-6.6-.93.62-1.87,1.23-2.8,1.85l.12-.13c-.34.3-.69.61-1.03.91-.03-.24-.07-.48-.1-.71-1.46.6-3.08.99-4.31,1.9-2.78,2.07-5.04,5.26-8.11,6.43-3.29,1.25-4.75,3.4-5.73,5.51-3.58,1.1-4.87,3.83-6.67,5.91-1.88,2.19-3.57,4.55-5.35,6.84-.89-3.29-.88-6.27-.9-9.25,0-1.5-.19-2.93-1.85-3.53.02-.82.3-1.78-.03-2.41-2.15-4.01-.03-7.63.52-11.24,6.32-.38,12.29-1,18.26-1.05,7.76-.06,14.66-2.64,21.01-6.72,2.88-1.85,5.74-4.15,7.7-6.9,2.47-3.45,4.28-7.45,5.84-11.43,1-2.55,1.07-5.47,1.5-8.23.94-6.09-.19-12.08-2.79-17.38-3.59-7.31-10.21-11.71-17.83-14.22-4.67-1.54-9.64-2.15-14.37-3.52-4.41-1.28-9.05-2.4-11.58-6.33v-6.29c8.81-5.42,16.88-3.64,24.77,1.57,1.47.97,3.15,1.62,5.03,2.57,1.55-1.39,3.3-2.34,4.1-3.8,2.81-5.17,5.54-10.42,6.98-15.89-2.61-4.02-4.24-5.57-7.52-6.82-2.78-1.06-5.59-2.12-8.46-2.86-7.94-2.04-15.89-2.32-24.13-1.36-8.56,1-16.09,3.64-22.25,9.58-6.07,5.85-9.63,13.08-9.73,21.61-.05,4.1.71,8.21,1.05,11.79,2.39,5.27,5.53,9.29,10.21,11.84,5.54,3.01,11.08,6.01,17.29,7.55,3.02.75,5.93,1.94,8.94,2.77,5.49,1.5,9.56,4.34,10.37,10.44.04.32-.03.66-.05.97-1.14,1.84-2.26,3.67-3.57,5.8-6.54,3.28-13.25,2.85-19.65-.83-3.55-2.04-6.7-4.78-9.95-7.31-1.64-1.28-3.22-2.4-5.42-1.63-1.47,1.07-2.94,2.15-3.75,2.74-1.94,2.63-3.43,4.61-4.87,6.62-2.89,4.06-6.4,7.91-4.47,13.34-5.02,6.22-6.21,13.32-6.45,20.93-.65-1.34-1.17-2.4-1.68-3.44v10.06c-1.27-1.38-1.98-2.15-2.83-3.07-.11.91-.2,1.64-.29,2.36-.36-.71-.88-1.41-.93-2.14-.15-2.45-.11-4.91-.13-7.37-2.85,3.89-3.3,8.28-2.44,12.88.34,1.86.9,3.67,1.46,5.9-3.77-.46-7.2-1.24-10.48.59,9.2,1.73,11.65,2.81,14.14,6.23-2.73.45-5.48.89-8.23,1.34,1.89.87,3.76,1.34,5.64,1.66,1.93.33,3.89.49,5.42,1.85-2.46.5-4.85.99-8.16,1.67,2.49.61,4.03,1.02,5.58,1.36,1.88.42,3.15,1.5,4.36,3.03,2.47,3.11,5.02,6.22,7.93,8.9,2.99,2.76,4.05,5.89,3.48,10.83-1.97-3.47-3.47-6.12-5.16-9.09-.28,2.13-.49,3.73-.66,4.95-10.3-5-20.45-10.04-30.69-14.88v29.26c.12.06.25.1.37.16-.13.05-.25.09-.37.14v2.55c5.3.16,10.55,1.24,16.02,3.16-1.97.1-3.27.15-4.58.22-1.3.07-2.59.15-4.75.28,3.27,1.05,5.62,1.8,8.71,2.78.71,0,2.23-.17,3.7.04,1.94.28,4.07.22,5.55,1.89h-4.95c2.53,2.52,5.27,5.25,8.02,7.99-1.24-.13-2.51-.16-3.71-.45-8.01-1.94-15.99-4.01-24-5.97v90.29c.19.15.39.31.6.47.85-7.64,4.33-13.56,11.25-17.26-.45,3.34-3.83,5.9-2.65,9.82,5.04-9.43,10.7-14.23,17.52-14.88-1.39,2.53-4.19,4.62-2.5,8.06,1.23.78,2.44,1.56,3.65,2.34-.6,3.58-3.46,6.51-2.21,10.89,1.08-1.66,1.81-2.79,2.84-4.38-.95,5.57-1.8,10.54-2.73,15.98.97.37,1.96.78,2.97,1.12,1.13.38.67,1.95,2.23,2.37,2.02.54,2.77,2.61,2.99,4.76.3,3-.5,5.61-2.39,7.89-1.03,1.25-2.19,2.4-3.46,3.78,3.72,1.16,5.29-1.91,8.39-4.23-1.61,4.65-4.58,6.66-7.42,9.4,3.77-.37,6.25-2.1,9.02-4.98-1.44,33.22-2.31,65.7-7.72,98.14-10.16-3.41-19.98-6.71-30.38-10.2v266.55c.69,4.09,3.3,6.54,7.77,7.21,1.31.19,2.66.1,3.99.1,147.12,0,294.24-.02,441.36.06,8.85,0,12.64-3.47,12.63-12.49-.15-87.64-.09-175.28-.09-262.92v-5.31c-9.74,2.85-19.01,5.56-28.75,8.4-.34-2.19-.72-3.77-.82-5.37-.42-6.8-.67-13.62-1.16-20.42-.63-8.61-1.41-17.22-2.18-25.82-.34-3.8-.82-7.59-1.24-11.39-.82-7.42-1.73-14.84-2.4-22.27-.15-1.64.47-3.34.8-5.02.84,1.72,1.7,3.45,2.88,5.85,0-3.54,0-6.36,0-9.17,0-2.83-1.6-5.59-.45-8.88,1.48,1.72,2.71,3.15,3.95,4.59-.11-1.57-.72-2.87-1.33-4.17-1.3-2.75-2.61-5.51-3.92-8.26,1.91.66,3.82,1.34,5.74,1.98,1.48.49,2.94,1.44,4.77.27-.73-.58-1.4-1.05-1.99-1.6-4.43-4.16-8.66-8.48-11.71-13.81.46-.16.91-.31,1.6-.55-.59-1.7-1.13-3.38-1.75-5.03-.55-1.45-1.17-2.88-1.77-4.32,1.17.86,2.35,1.73,4.1,3.01-.41-3.8-.74-6.84-1.06-9.87.17-.04.34-.09.5-.13.72,1.25,1.43,2.51,2.03,3.55.83.28,1.42.48,2.18.73.54,3.85,1.06,7.59,1.66,11.91,1.14-3.56,2.11-6.61,3.08-9.65.16,0,.31.02.47.03-.25,5.25-.49,10.5-.74,15.75.2.06.39.12.59.18,1.28-3.34,2.55-6.68,4.16-10.88v13.07c4.49-4.63,4.88-10.05,5.17-15.74,4.23,1.52,4.49,5.33,5.32,8.45.85,3.19.86,6.6,1.28,10.34,2.18-3.46,2.02-7.11,2.5-10.74,3.38,2.99,3.51,2.98,3.52,6.36.02,5.3-.14,10.6-.24,16.93,1.28-3.24,2.2-5.57,3.12-7.9,1.22,3.33,1.64,6.71,2.31,10.04.01.07.02.14.04.21v-62.55s-.05-.02-.08-.03c.03,0,.05,0,.08,0v-28.72c-.76.06-1.52.14-2.28.22-2.83.31-5.64.8-8.46,1.22,2.87-2.23,6.49-2.46,9.82-3.6-1.99-.14-3.92,0-5.85.16-1.7.15-3.4.33-5.1.5.41-.35.8-.82,1.26-.89,3.08-.5,6.19-.87,9.28-1.31ZM319.99,181.99c.52.26,1.04.52,1.56.79-.67.04-1.39.19-1.56-.79ZM322.07,182.98c1.03.26,2.07.52,3.1.79-1.13.12-2.37.67-3.1-.79ZM330.15,184.86c-1.21-.31-2.41-.62-3.62-.92h3.73c-.04.31-.07.62-.11.92ZM346.01,300.98c-.05-2.81.04-5.1,1.84-6.93.56,2.43-.29,4.53-1.84,6.93ZM347.99,293.59c.06-.43.12-.86.19-1.29.18.08.36.17.54.25-.24.35-.48.69-.72,1.04ZM399.57,202.08c-.11.04-.21.07-.32.11-.06-.25-.19-.52-.17-.76.03-.4.16-.8.49-2.23v2.89ZM407.2,137.26c-.08-.4-.16-.8-.24-1.2.25.3.51.61.76.91-.17.1-.35.19-.52.29ZM269.4,240.32c.07.12.22.25.2.36-.05.26-.16.51-.25.76-.06-.01-.11-.02-.17-.04.08-.36.15-.72.23-1.08ZM106.59,312.18c.04.19.09.39.13.58-.22-.09-.45-.18-.71-.28.21-.11.39-.21.57-.3ZM104.74,311.4c-.11.07-.22.13-.33.2-.02-.14-.05-.29-.09-.55.23.18.33.27.43.35ZM109.77,343.98c-5.75-2.94-10.15-7.28-12.98-13.07-2.38-4.88-1.09-10.49,3.03-13.9.49-.41,1.35-.37,2.95-.77-1.43,2.89-2.46,4.99-3.66,7.42,1.2,2.55,2.52,5.34,3.84,8.14.18.22.36.45.54.67-.24-.17-.48-.33-.72-.5-1.28-.98-2.56-1.96-3.85-2.94-.07,2.25,1.45,3.75,2.74,5.28,2.7,3.2,5.53,6.3,8.31,9.43.91.68,1.81,1.36,2.72,2.04-1.4.15-2.22-.72-2.92-1.81ZM109.05,314.07c.84.56,1.69,1.12,2.53,1.68-1.18-.04-2.07-.54-2.53-1.68ZM109.63,311.37c1.42-.63,2.44-1.07,3.81-1.68.1,1.39.17,2.44.28,4.1-1.54-.91-2.66-1.57-4.09-2.42ZM132.06,302.97c1.3-.11,2.07.62,2.64,1.69-.88-.56-1.76-1.13-2.64-1.69ZM148.43,352.19c-.88-11.82-.81-23.69,1.01-35.52,1.02,11.84-.92,23.62-1.01,35.52ZM138.64,263.22c.04.44.07.88.11,1.31-.2-.38-.4-.76-.6-1.14.17-.06.33-.12.5-.17ZM151.35,240.62c2.88.61,4.96,1.05,7.04,1.5-2.31.43-4.67,1.55-7.04-1.5ZM158.57,237.91c-3.46,1.6-7.17.43-10.74.8-.82.09-1.73-.76-3.56-1.64,5.42.32,9.87.58,14.3.84ZM91.56,253.51c.06.6.12,1.21.17,1.81-.22-.55-.44-1.11-.65-1.66.16-.05.32-.1.48-.15ZM78.13,232.5c.16.03.32.07.48.1v3.98h-.48v-4.08ZM175.42,184.01c.45.09.84.49,1.24.81h-3.04c-.02-.19-.04-.39-.06-.58.62-.09,1.27-.34,1.85-.23ZM171.45,183.19c.01.09.02.18.03.28-.32.03-.63.07-.94.07-.09,0-.18-.15-.26-.22.39-.04.78-.08,1.18-.12ZM165.39,173.65l-.21-.49c.44-.06.88-.11,1.33-.17-.37.22-.74.44-1.11.66ZM167.75,167.94c-1,1.36-2.45.86-3.77.87.91-1.7,2.44-.89,3.77-.87ZM163.55,168.9c-1.77.59-3.53,1.19-5.3,1.78,1.46-1.51,3.26-1.99,5.3-1.78ZM157.46,171c-.41.2-.81.39-1.22.59-.04-.16-.08-.32-.12-.48.45-.04.89-.07,1.34-.11ZM153.4,172.24c.37.02.75.03,1.12.05,0,.08,0,.15-.01.23-.37-.02-.75-.04-1.12-.06,0-.07,0-.15.01-.22ZM143.7,165.09c-.52,1.11-1.31,1.81-2.61,1.72.87-.57,1.74-1.15,2.61-1.72ZM138.57,169.11c-1.81,1.82-3.63,3.64-5.45,5.46.85-2.78,2.67-4.6,5.45-5.46ZM117.53,196.03c.35.25.71.5,1.06.75-.44-.06-.89-.12-1.33-.19.09-.19.18-.37.27-.56ZM105.22,198.6c.06-.15.12-.3.18-.45.36.2.72.4,1.08.59-.42-.05-.84-.09-1.26-.14ZM115.75,198.77c-.51-.26-1.02-.52-1.53-.78.66-.04,1.39-.22,1.53.78ZM118.47,160.22c-1.66.74-2.64,1.18-3.62,1.62-.01.02-.02.03-.03.05-.64-.34-1.29-.65-1.89-1.04-.91-.59-1.78-1.22-2.66-1.84,2.46.37,4.97.74,8.21,1.22ZM111.57,164.02c-2.01,1.53-4.03,3.07-6.28,4.79-.74-.79-1.46-1.58-2.45-2.64,2.93-1.44,5.82-1.87,8.73-2.15ZM82.39,150.52c-.17-.09-.26-.31-.36-.53.41.06.92.14,2.05.32-1.13.16-1.47.32-1.68.21ZM86.8,112.81c.21-.16.41-.32.62-.49-.17.2-.34.4-.51.6-2.18,4.19-4.35,8.38-6.64,12.79-1.28-6.28,1.94-9.95,6.53-12.9ZM73.99,241.59h.51s0,4.68,0,4.68c-.17,0-.34-.01-.51-.02v-4.66ZM57.52,40.59c-.09,0-.18-.19-.26-.29.42-.06.85-.12,1.27-.17.02.12.03.24.05.36-.35.04-.7.11-1.05.11ZM61.23,35.49l.04-.27.32.18-.35.09ZM60.08,28.26c-.06-.29-.12-.59-.17-.88.89-.13,1.78-.25,2.67-.38.04.19.08.37.13.56-.87.23-1.75.47-2.62.7ZM70.46,42.63c-.09-.19-.19-.38-.28-.57l.59-.06c-.1.21-.2.42-.31.63ZM86.54,74.49c0-.07.01-.13.02-.2.25.04.5.08,1.26.2h-1.27ZM87.41,65.26c0,.08,0,.16,0,.24h-1.16c0-.08,0-.16,0-.24h1.16ZM56.7,123.39c-.33,3.32-.66,6.64-.99,9.97-1.08-3.53-.37-6.8.99-9.97ZM51.35,108.22c.16-.42.55-.76,1.15-1.54,1.56,2.52-.08,2.64-1.42,3.34.1-.77.09-1.32.27-1.8ZM19.21,125.3c-.07-.66-.14-1.33-.21-1.99.27.6.54,1.19.82,1.79-.2.07-.4.13-.6.2ZM30.28,104.79c-1.03-2.94.33-5.28.96-7.87,1.25.67,2.37,1.28,3.81,2.05-1.67,2.03-3.16,3.85-4.77,5.81ZM25.25,190.95c.92-.08,1.9-.35,2.41.79-.8-.26-1.6-.53-2.41-.79ZM29.07,199.76c-.34-.26-.67-.53-1.01-.79.43.07.87.15,1.3.22-.1.19-.19.38-.29.57ZM29.2,192.71c-.34-.23-.68-.46-1.02-.7.42.05.85.1,1.27.15-.08.18-.17.36-.25.54ZM361.8,455.23c.72-.1,1.61-.22,2.3-.31,1.86,2.02.67,5.43-2.71,8.67q-1.86-2.9.41-8.36ZM261.01,517.98c-1.55,1.26-2.46,1.38-3.04,0h3.04ZM253.45,516.76c.92.26,2.34.66,3.81,1.07h-8.99c-2.9-6.66-9.43-7.09-15.2-8.75,0-.95-.22-1.7.04-2.2,2.26-4.42,2.62-9.26,2.67-14.03.07-6.62-.34-13.26-.74-19.87-.29-4.86.45-9.58,1.31-14.32.14-.78.32-1.56.72-3.44-1.43,2-2.28,3.19-3.09,4.32.12-4.78,3.26-8.25,5.44-12.64.34,1.43.57,2.37.88,3.69,2.24-1.57,2.57-3.65,2.57-5.91,0-2.23-.3-4.56,1.79-6.61.44,5.03.04,9.52-2.54,13.7-.73,1.18-.82,2.75-1.2,4.15l-.06-.07c.32.67.98,1.38.89,1.99-1.1,7.51-2.62,14.97-3.43,22.5-.95,8.87-1.32,17.81-1.91,26.27,5.92,3.52,11.24,6.69,17.05,10.15ZM241.56,418.19c1.28,7.07-2.85,12.66-4.13,19.52-1.28.45-2.47.86-3.9,1.36-.77-2.48-1.44-4.65-2.15-6.95,2.06-5.4,5.44-9.97,10.18-13.94ZM239.42,383.24h5.6c0,.08,0,.17,0,.25h-5.6c0-.08,0-.17,0-.25ZM256.61,411.37c-1.09.26-1.68.41-2.5.61-.66-3.25.93-5.55,2.5-8.5v7.9ZM347.17,342.98c10.95,4.87,21.7,10.13,31.63,16.88,2.61,1.77,5.09,3.76,7.43,5.87,1.43,1.29,2.47,3,3.65,4.47-1.67,2.56-3.95,3.6-6.23,4.6-7.04,3.09-14.52,4.67-22.02,6.01-12.1,2.15-24.32,3.41-36.6,4.29-19.64,1.41-39.29,1-58.93.62-5.59-.11-11.18-.83-16.75-1.8,16.62.24,33.25.94,49.86.6,16.42-.34,32.85-1.37,50.29-4.24-8.17-1.05-15.14.71-22.12.38-6.97-.34-13.93-.78-20.91-1.38,15.33-.4,30.73.18,46.69-3.11-8.77-.84-16.82.64-24.8-.46,14.76-1,29.3-2.96,43.6-6.84.93.49,1.86.88,2.66,1.44.8.56,1.48,1.3,2.34,2.07-.7.89-1.31,1.67-1.92,2.44,4.36-.28,8.06-2.24,11.85-4.57-1.68-3.01-4.31-4.78-6.83-6.64-7.4-5.45-15.48-9.72-23.71-13.72-31.03-15.06-63.63-25.6-97.1-33.6-5.64-1.35-11.38-2.28-17.06-3.44-1.76-.36-3.49-.87-5.41-1.35.69-2.45,2.48-1.63,3.65-1.43,5.07.87,10.12,1.83,15.13,2.97,31.47,7.12,62.1,16.83,91.6,29.95ZM249.12,255.54c-.06-.86-.12-1.72-.18-2.58,1.48.58.67,1.63.18,2.58ZM248.6,250.11c.07.89.14,1.77.21,2.66-1.58-.57-.59-1.7-.21-2.66ZM222.46,273.25v1.35h-.25s-.09-1.34-.09-1.34c.11,0,.22,0,.34-.01ZM221.28,276.38c-.19,4.13,2.31,8.58-1.33,12.3.44-4.1.89-8.2,1.33-12.3ZM219.01,290.38c.09-.48.49-.89.81-1.33v3.16l-.57.06c-.1-.63-.35-1.29-.24-1.89ZM218.31,295.24h.19c-.02.4-.05.79-.07,1.18-.06,0-.12,0-.18-.01.02-.39.04-.78.07-1.17ZM218.31,338.28c.73.79,1.38,1.51,2.71,2.95-.32-2.8-.55-4.8-.85-7.41.73.87,1.21,1.34,1.58,1.89.43.65.77,1.35,1.38,2.44,2.55-4.54.59-8-1.45-11.71.91-4.21,1.84-8.55,2.89-13.41-.9.86-1.61,1.54-2.44,2.33-.9-7.38.91-14.24,3.11-21.31.79-.53,1.74-1.16,2.86-1.91.98,1.93,1.89,3.73,3.13,6.18,1.04-6.09,1.51-11.49,2.95-16.62,1.44-5.11,1.69-10.93,6.18-14.64,5.06-.89,8.5,1.72,12.3,4.92-.15-1.24-.25-2.03-.36-2.99h1.79c.16.17.32.27.38.41,3.21,8.11,7.68,15.73,9.31,24.44.09.46-.08.97-.19,2.2-1.46-2.74-2.43-5.06-3.84-7.07-1.61-2.3-3.45-4.5-5.51-6.41-1.72-1.59-3.89-2.68-6.1-4.15-.14,1.86-.29,3.82-.44,5.79-.18,0-.35.01-.53.02-.19-2.3-.37-4.59-.56-6.89-2.11,7.41-3.43,15.05-9.74,20.23-1.18,7.34-2.86,14.36-6.57,21.92-.21-3.16-.35-5.21-.48-7.26-1.46,4.26-2.2,8.47-1.33,12.95.79,4.07.97,8.2-.51,12.29-.9,2.48-.79,5.1-.6,7.81.36,5.15-1.05,10.15-3.02,15.73-1.11-5.14-2.73-9.38-5.07-13.42-1.56-2.68-1.89-5.98-.94-9.32ZM223.27,386.25c-.45-2.21-.8-4.45-1.22-6.93.99.54,1.66.92,2.45,1.35.3-.73.59-1.45.94-2.32.43,3.19.85,6.25,1.26,9.3-.48-.45-.95-.91-1.43-1.36-.36.39-.68.74-1.03,1.12-.36-.41-.88-.74-.97-1.16ZM223.47,461.28v1.16h-.18v-1.16h.18ZM220.51,376.34v2.21c-.1,0-.2,0-.3,0v-2.21c.1,0,.2,0,.3,0ZM206.4,305.19c0,.13,0,.26,0,.39h-4.73c-.02-.13-.05-.26-.07-.39h4.8ZM180.7,427c-3.24,4.16-6.9,8.08-11.62,10.95-2.57-1.11-3.77-3.32-4.98-5.45-3.64-6.41-6.01-13.33-7.14-20.56-1.31-8.35-2.09-16.77-3.11-25.16-.68-5.59-1.38-11.18-2.04-16.78-.07-.59.07-1.21.15-2.2,17.79,5.77,35.52,10.37,53.51,13.67,1.01,3.03,1.92,5.79,3,9.03-9.05,11.94-18.28,24.33-27.76,36.51ZM210.62,387.42c-.15.02-.29.04-.44.06-.16-.71-.32-1.42-.47-2.13.3-.03.61-.06.91-.09v2.16ZM208.56,306.09h5.75c-2.63,1.25-4.24.55-5.75,0ZM215,389.33c-2.03,0-2.42-.98-2.29-2.19.23-2.14.18-4.19-1.03-6.07-.18-.33-.37-.65-.55-.98.31.2.62.4.93.6h3.7c.08.09.52.58.98,1.1-.42.03-.9.06-1.74.11v7.43ZM216.36,385.82c1.31-1.48.12-2.72.57-3.92.87-.18,1.76-.36,3.04-.62-.35,2.82-.71,5.68-1.09,8.77-2.86-.82-3.71-2.88-2.51-4.23ZM201.48,433.02c-.5.25-1,.49-1.51.74.13-1.02.86-.79,1.51-.74ZM157.76,475.95c-.71,1.2-1.41,2.41-2.3,3.93-.65-.8-1.1-1.35-1.57-1.93.93-1.76,2.21-2.3,3.88-2ZM99.79,461.32c4.76-3.79,10.65-3.08,15.86,2.23-1.41.84-2.74,1.62-4.18,2.48-1.06-.62-1.99-1.35-3.03-1.74-3.48-1.3-6.43.51-6.73,4.23-.14,1.79.16,3.62.28,5.64,1.23.77,2.47,1.56,3.57,2.26,2.31-.72,5.03-.05,6.01-3.26-1.59-.24-3.15-.47-5.05-.75v-4.22h9.6c1.51,4.93-.45,9.65-4.74,11.62-5.07,2.33-11.73.27-14.37-4.45-2.47-4.41-1.18-10.87,2.79-14.03ZM93.18,499.65c2.73-4.15,7.68-5.38,13.45-3.27.07.81.21,1.76.23,2.72.02.8-.09,1.61-.15,2.56-1.6-.64-2.95-1.19-4.15-1.67-3.45.44-5.39,2.38-5.48,5.56-.08,3.09,1.38,5.44,4.79,6.05,1.5-.45,3.05-.9,4.85-1.44v4.95c-4.39,2.65-9.08,2.16-12.49-1.42-3.46-3.64-3.14-10.89-1.06-14.05ZM70.97,459.99c1.96-.09,3.7-.17,5.7-.26,2.23,3.17,4.42,6.28,6.6,9.38.64.91,1.17,1.98,2.55,1.71v-10.71h4.92v19.59h-5.23c-1.96-2.74-3.88-5.65-6.03-8.37-1.33-1.68-1.71-3.49-1.69-5.51-.54-.46-1.11-.93-2.06-1.73h-2.67c.64,1.44,1.18,2.65,1.72,3.87.3,0,.59-.02.89-.02-.3.29-.59.58-.89.88.47.43.93.86,1.74,1.61v9.31c-1.67.11-3.25.22-5.13.35-.89-6.7-.17-13.13-.42-20.09ZM75,495.93h7.12c2.27,6.61,4.46,12.98,6.85,19.93h-5.25c-.45-.91-.94-1.9-1.6-3.23h-7c-.62,1.19-1.08,2.05-1.59,3.03-.98.33-2.05.69-3.3,1.11-.57-.36-1.25-.79-2.03-1.27,2.3-6.61,4.54-13.07,6.8-19.56ZM55.68,458.94c5.55-.25,11.33,4.83,11.19,10.81.08,5.93-4.54,10.86-10.4,11.09-5.75.22-11.28-5.05-11.39-10.85-.11-5.65,4.92-10.79,10.6-11.05ZM62.83,503.84v3.88c-2.87.23-5.62.46-8.35.68.08.43.19.99.3,1.55.58.06,1.16.11,2.93.28-1.76.35-2.35.46-2.93.58.45.36.89,1.02,1.35,1.04,2.32.11,4.65.05,7.35.05.1,1.13.21,2.33.34,3.84h-12.6c-.48-6.45-.07-12.84-.07-19.47,4.05-1.21,7.99-.35,12.17-.48.16,1.2.31,2.27.47,3.45-2.31,1.25-4.63.53-6.85.69-.31,1.3-.62,2.6-.94,3.9h6.83ZM44.37,497.62c.23.54.61,1.27.86,2.04.26.78.39,1.6.59,2.46-.71.88-1.42,1.76-2.19,2.72.77.98,1.65,1.77,2.12,2.77,1.87,3.91-.33,7.77-4.69,8.29-1.73.21-3.86.94-5.11.22-1.7-.98-3.39.73-5.38-1.25v-18.36c4.88-1.35,10.07-.94,13.79,1.11ZM30.39,460.18h5.39v14.06c2.02,2.35,4.4.97,6.84,1.74v3.83c-4.16-.12-8.1,1.2-12.24-.16v-19.48ZM107.77,571.28c-3.56.17-7.16,0-10.72-.36-4.52-.46-5.43-.35-9.15,2.78,0,2.65-.11,5.75.02,8.85.26,5.88.87,11.76.96,17.64.15,10.49.12,20.98-.03,31.46-.06,4.57-.59,9.13-.92,13.88-1,.94-2.07,1.96-3.23,3.05-8.98-.23-17.91-.45-26.88-.68-1.02-.96-1.98-1.86-2.86-2.69-.06-.68-.13-1.17-.14-1.66-.25-9.48-.57-18.95-.7-28.43-.07-4.94.26-9.89.34-14.83.05-2.92-.22-5.86-.01-8.77.3-4.26.85-8.5,1.37-12.73.49-3.95-2.31-8.5-7.36-7.49-4.17.84-8.62.39-12.95.35-1.44-.01-2.88-.53-4.57-.86-1.72-8.16-1.85-16.09.09-24.08,1.32-.34,2.26-.76,3.21-.79,5.28-.16,10.55-.21,15.83-.35.82-.02,1.63-.33,2.45-.39,1.82-.13,3.7-.5,5.47-.24,14.42,2.12,28.9.37,43.34.88.95.03,1.92-.35,2.99-.56,2.2.58,4.57,1.2,7.07,1.86,1.92,6.66,1.16,13.44,1.6,19.91-.84,2.78-2.83,4.12-5.25,4.23ZM130.53,515.69h-5.43v-7.1c-2.24-1.27-4.41-.52-6.98-.73-.15,2.52-.29,4.93-.44,7.68h-5.44c.35-1.55.61-2.75.92-4.12-2.02-1.8-.66-4.57-1.04-6.97-.4-2.53-.09-5.16-.09-7.75,1.65-1.43,3.42-1.13,5.61-.69.13,2.21.27,4.47.41,6.78,2.26,1.58,4.41.92,6.81.08v-6.84h5.67v19.66ZM170.66,580.26c.32,2.46-.68,5.06-.71,7.6-.05,5.07.16,10.14.25,15.21.06,3.57.12,7.14.16,10.72.07,6.37.21,12.74.16,19.11-.03,4.09-.34,8.18-.53,12.38-1.6,1.11-2.68,1.87-3.2,2.22-7.45.41-14.25.87-21.05,1.11-2.46.09-4.94-.36-7.37-.57-.89-1.07-1.62-1.95-2.78-3.34.29-9.53.65-19.48.88-29.44.07-3.11-.28-6.22-.35-9.33-.05-2.3,0-4.6.06-6.9.16-6.84.43-13.68.46-20.52.02-4.08-.36-8.16-.52-12.23-.04-.98.09-1.97.08-2.96,0-3.07-.03-6.15-.04-9.22,0-2.1,0-4.2,0-6.12,1.45-1.28,2.55-2.27,3.72-3.3,9.43.83,18.94-.77,28.74,1.39,2.25,4.96,1.33,10.16.88,15.81.3.78.78,2.02,1.3,3.34-1.02,4.97-.79,9.97-.13,15.04ZM168.96,509.14l.86,1.11-.66.32-.2-1.43ZM170.85,499.62c-.16,2.22-.28,4.44-.44,6.91-.14-.02-.52-.08-1.14-.18-.13.75-.28,1.54-.42,2.33-.53-1.14-1.06-2.28-1.67-3.6-.25,1.11-.46,2.06-.7,3.16-1.01-2.73-1.98-5.34-2.98-8.02.87-.29,1.79-.6,2.94-.99.21.23.53.58.88.96.11-.08.4-.2.53-.42,1.86-3.17,3.13-6.51,3.2-10.26.01-.71.41-1.41.73-2.12-.31,4.07-.63,8.14-.92,12.22ZM172.15,510.55c-.05-.45-.1-.89-.15-1.34l.72,1.08c-.19.09-.38.17-.57.26ZM171.96,486.49v-2.29c.28.06.56.13.83.19-.28.7-.56,1.4-.83,2.11ZM188.59,447.58c-3.26,4.68-7.53,8.46-11.69,12.33-.34.33-.67.66-1.01.99-1.33,1.67-2.67,3.33-4,5-.3.37-.6.73-.91,1.1-1.19,1.82-2.27,3.73-3.65,5.39-.37.45-1.45.31-2.3.36,1.91-1.99,3.83-3.98,5.74-5.97l1.06-.94c.43-2.39,2.17-3.73,4.01-4.99.32-.34.65-.69.97-1.03.11-.46.08-1.01.34-1.35,3.2-4.23,6.44-8.43,9.67-12.64,1.77-5.79,6.13-9.14,11.2-11.79.44-.23,1.05-.12,1.63-.09-4.91,3.27-8.98,7.45-12.72,11.97.46.45.92.91,1.67,1.65ZM326.41,648.86c-7.29-.2-14.58-.52-21.57-.77-1.43-1.03-2.5-1.8-3.84-2.77,1.39-4.04-3.19-7.48-1.23-11.84-.53-1-1.08-2.01-1.62-3.03-.14-10.35-1.72-20.51-3.46-30.18,2.65-2.13,4.84-3.9,7.11-5.73-.46-.49-.79-.84-1.32-1.4-3.9.65-5.99,4.54-9.57,5.78-1.41,4.18-3,8.31-4.17,12.56-1.9,6.93-4.94,13.48-6.3,20.59-.7,3.7-2.08,7.27-3.14,10.9-.72,2.48-2.75,3.61-4.8,4.79-5.63.19-11.27.39-17.53.6-2.89-1.22-4.74-3.58-5.22-7.61-.42-3.54-2.11-6.92-3.14-10.41-1.99-6.76-3.87-13.55-5.87-20.31-1.12-3.77-2.36-7.5-3.61-11.22-.2-.6-.75-1.08-1.19-1.71h-3.36c-1.49,8.07-3.19,15.88-4.31,23.77-1.11,7.89-1.64,15.86-2.38,23.47-1.95,2.63-4.16,3.74-7.07,3.71-6.97-.07-13.95-.02-20.84-.02-1.17-1.1-2.12-1.99-3.32-3.12.31-2.23.56-4.52.97-6.78,1.63-9.07,3.33-18.12,4.98-27.19,1.75-9.63,3.54-19.26,5.17-28.91,1.44-8.56,2.67-17.17,4.02-25.75.39-2.44.91-4.86,1.51-8.03,1.09-2.45,3.55-3.51,6.92-3.44,6.99.15,13.99.15,20.99,0,3.79-.08,5.91,1.84,7.1,5.09,1.2,3.27,2.33,6.56,3.32,9.89,1.97,6.58,3.79,13.2,5.75,19.78,1.41,4.72,3.06,9.37,4.39,14.12.63,2.26,1.77,3.87,3.86,4.94.71-.27,1.44-.54,2.16-.81,2.34-7.14,4.73-14.27,7-21.43,1.14-3.58,1.51-7.51,3.19-10.8,2.62-5.12,2.76-10.85,4.91-16.03,1.11-2.68,2.9-4.43,5.9-4.62,1.66-.1,3.32-.11,4.99-.11,7.32-.01,14.64,0,21.61,0,4.36,1.46,3.13,5.8,4.44,7.52,2.02,16.03,5.27,30.95,7.88,45.96,2.63,15.09,5.28,30.18,8.01,45.73-.92,3.35-3.61,4.88-7.32,4.78ZM328.17,482.86c-1.54.95-2.42,1.49-3.26,2.01,0,0,0-.01,0-.02-.31-.32-.61-.65-1.37-1.45,1.61-.19,2.72-.32,4.63-.55ZM327.06,480.12c.19-.02.38-.05.57-.07.04.42.08.85.12,1.27-.16.02-.33.04-.49.06-.07-.42-.13-.84-.2-1.26ZM347.37,482.65c-.22.96-.41,1.95-.48,2.93-.3,4.3-.7,8.6-.76,12.91-.06,3.77.24,7.54.47,11.31.16,2.6.48,5.2.77,8.34-2.1-.65-3.91-1.21-6.13-1.89-.39-2.04-1.12-4.11-1.13-6.19-.04-5.8.18-11.6.37-17.41.13-4.03.39-8.05.63-12.9-5.51,3.67-4.62,10.04-8.16,13.9h-5.41c-.93-3.13-1.76-5.9-2.59-8.67h3.54c-.31.93-.5,1.51-.8,2.39.8.14,1.47.26,2.14.38.67-1.83,2.89.33,3.53-1.39-.25-1.26-.52-2.65-.84-4.27-1.05-.25-2.14-.51-3.51-.83-.59-1.51-1.35-3.47-2.1-5.42,1.13-.95.84-2.01.38-3.31-.61-1.73-1.83-3.53-.11-5.45.3-.34-.19-1.38-.38-2.14-.87-.16-1.75-.31-2.75-.49-1.43,2.3-2.67,4.35-1.45,6.96-.54.32-1.08.64-1.53.91-.11,1.64-.21,3.13-.31,4.61l.66.44c-.22.16-.44.32-.66.48-.57.5-1.13,1-1.71,1.51.44.32.83.6,1.29.94-.7.54-1.39,1.06-2.75,2.11,1.36.09,1.98.13,2.98.19.04.16.16.63.29,1.14.56-.2,1.13-.41,2.04-.73-1.16,3.64-2.32,7.01-3.3,10.42-1.33,4.61-2.54,9.26-3.79,13.9-.81,3.02-1.54,6.06-2.43,9.06-1.07,3.65-4.18,5.73-7.99,5.32-1.45-.16-2.87-.68-4.63-1.12.32-.97.47-1.72.8-2.4,3.24-6.67,5.94-13.54,8.55-20.5,3.54-9.47,5.6-19.36,9.16-28.79,1.34-3.55,2.35-7.22,3.61-10.8.6-1.69,1.45-3.3,2.11-4.78,2.33-.79,4.22-1.05,5.36.77v21.96c-.14,0-.28,0-.43.01.44,1.21.89,2.42,1.37,3.74.51-.13,1.09-.1,1.38-.37.95-.91,1.99-1.82,2.66-2.93,4.22-6.95,8.45-13.89,12.43-20.97,1.11-1.96,1.39-4.39,2.06-6.6.41-1.38.83-2.76,1.42-4.73,1.79,1.24,3.1,2.14,4.51,3.11-1.02,4.09-2.01,7.9-2.92,11.73-1.86,7.87-3.68,15.74-5.5,23.62ZM353.65,497.56c-1.48-5.85-.42-11.56.66-17.28.46-2.44,1.07-4.86,1.74-7.25.21-.74.85-1.37,1.23-1.94,2.26-.31,2.58,1.34,3.25,2.46-1.31,6.76-3.71,13.18-3.41,20.14h2.16c.4-.99,1.06-2.01,1.21-3.09.9-6.77,4.26-12.56,7.62-18.21,2.55-4.28,6.03-8.11,12.41-7.49,1.01,1.52,2.18,3.27,3.06,4.59-1.11,6.59-2.13,12.58-3.1,18.58-.02.15.48.38,1.11.85,2.35-2.85,4.67-5.55,5.2-9.55.66-5.06,1.72-10.07,2.63-15.22,1.5-.12,2.61-.22,3.93-.33.23.94.71,1.77.55,2.45-.54,2.39-1.3,4.73-2,7.18,1.46.79,2.26.28,2.97-.84,1.88-2.95,3.77-5.88,5.73-8.77.96-1.41,1.04-1.35,3.89-1.81,1.68,6.25-2.92,12.11-1.22,19.07,1.41-2.79,2.46-5.01,3.64-7.16,2.73-4.92,5.5-9.82,8.31-14.69.73-1.27,1.83-1.92,3.59-.83.72,1.97.17,4.04-.44,6.09-.9,3.02-1.79,6.04-2.77,9.03-1.23,3.73-1.04,7.47-.39,11.58.97-.32,2.1-.36,2.33-.84.92-1.89,2.22-3.94,2.17-5.9-.16-6.61,1.44-12.85,3.15-19.1.2-.74.66-1.41,1.15-2.43.94.47,2.05.67,2.22,1.18.4,1.2.66,2.6.44,3.82-.61,3.42-1.44,6.8-2.29,10.17-.66,2.62-.53,5.19-.42,7.85,4.19-.12,3.07-4.25,5.16-5.68,1,3.39-.42,8.44-3.76,13.34-2.53,1.24-3.45-1.16-4.96-2.24-.78,1.42-1.55,2.81-2.38,4.31-1.24.11-2.35.21-3.52.31-3.03-3.25-3.96-6.9-3.17-11.09.34-1.79.57-3.61.7-5.43.03-.49-.5-1.02-1.02-1.98-5.1,6.32-4.94,14.75-9.9,20.43-2.06-.39-2.32-1.67-2.19-3.07.46-4.96.99-9.91,1.46-14.87.09-.91.01-1.84.01-3.83-3.93,4.12-5.05,8.7-7.2,12.6-2.12,3.85-3.32,8.2-4.82,12.05-2.86.8-2.95-1.07-3.52-2.76-.85,1.76-1.65,3.4-2.59,5.34-1.93-1.1-3.35-1.91-5-2.84-.92-1.81-2.85-3.44-2.17-6.46.57-.07,1.16-.14,1.75-.21.31-.43.62-.86.87-1.21.4-1.58.79-3.15,1.45-5.77-.02-.23-.14-1.61-.25-2.99-.34-.33-.68-.67-1.02-1-.6.5-1.2,1-1.86,1.55.63.31,1.06.51,2,.98-1.4.83-2.53,1.5-3.87,2.29-.08.59-.42,1.45-.25,2.19.4,1.78.23,3.29-.67,4.97-1.32,2.46-2.33,5.1-3.24,7.75-.71,2.05-1.22,4.12-3.66,5.51-1.75-1.02-3.56-2.08-5.46-3.19-.97,1.02-1.96,2.06-2.96,3.11-2.65-.51-3.71-2.09-4.3-4.41ZM430.58,645.07c-1.4,2.7-3.99,3.55-6.97,3.47-6.15-.17-12.29-.48-18.44-.63-3.66-.09-7.33-.13-10.98.01-4.27.17-8.54.66-12.81.82-4.49.16-8.99.27-13.47.07-3.07-.14-6.39.08-9-2.68-1.16-6.6-1.33-13.34-.31-20.12.1-.65.19-1.32.15-1.97-.21-3.76-.51-7.52-.66-11.28-.09-2.29-.04-4.58.05-6.87.22-5.78.62-11.56.7-17.35.12-8.65.11-17.31,0-25.97-.06-4.24-.46-8.48-.77-13.73,1.32-1.21,2.87-2.64,4.24-3.89,9.41,0,18.4-.01,27.38,0,10.47.02,20.94.07,31.41.1,4.5.01,6.59.73,9.14,3.03v18.93c-1.27,1.14-2.23,2-3.52,3.15-10.61,0-21.41-.02-32.2.05-.74,0-1.47.7-2.41,1.17-1.71,4.27-1.48,8.55-.33,12.62,2.9,1.94,5.78,1.9,8.58,1.83,4.15-.1,8.28-.56,12.43-.72,3.33-.13,6.67-.18,9.99,0,3.73.21,5.11,1.66,5.17,5.29.1,5.31.02,10.63.02,15.71-2.84,3.84-6.76,2.9-10.24,3.16-3.12.24-6.28.06-9.42,0-1.31-.03-2.61-.35-3.92-.39-4.25-.15-8.6-1.05-12.68,1.33-.53,2.04.11,4.77-3.16,5.3.64.21,1.27.43,2.25.75.08,1.48.17,3.1.27,4.97.59.71,1.32,1.59,2.17,2.6h34.96c.95,1.27,1.83,2.45,2.42,3.24v18.02ZM428.59,441c.94.05,1.85.09,2.9.14.89,3.91-.93,6.35-3.67,9.16-1.9-3.82-.57-6.45.78-9.31ZM427.87,279.87c-.85-.79-1.7-1.58-2.56-2.37,1.64.12,2.59.83,2.56,2.37ZM431.99,185.34c.27-1.44.34-1.81.41-2.18.07.13.21.27.19.38-.04.26-.16.51-.6,1.8ZM433.49,216.38h-.26v-1.24c.09,0,.17,0,.26,0v1.24ZM433.34,181.7c.02-.21.03-.42.05-.64.07.11.13.23.2.34l-.25.3ZM443.35,184.69c-.07-.12-.2-.24-.2-.35,0-.11.16-.21.25-.31.07.12.21.24.2.34,0,.11-.16.21-.25.31ZM445.16,215.77c2.48-2.01,5.31-3.01,8.53-2.84-2.6,1.67-5.47,2.55-8.53,2.84ZM454.74,216.01c-.5,1.03-1.4.78-2.24.72.75-.24,1.49-.48,2.24-.72Z" />
  <path d="M319.06,177.07h0c.03.09.03.07,0,0Z" />
  <path d="M319.09,177.09c.07.04.08.05,0,0h0Z" />
  <path d="M310.04,254.69c.04-.1.05-.14,0,0,.11-.06.08-.04,0,0Z" />
  <path d="M316.24,231.73s-.03,0-.05.01c.22-.2.32-.3,0,0,.02,0,.03,0,.05-.01Z" />
  <path d="M316.41,231.7s-.03,0-.05,0c.02,0,.03,0,.05,0Z" />
  <path d="M130.68,301.71h0c-.06-.1-.04-.08,0,0Z" />
  <path d="M130.67,301.71c-.08-.03-.1-.03,0,0h0Z" />
  <path
    d="M168.52,190.71c-.11-.02-.2-.04-.24-.04.03,0,.1.02.24.04-.04-.03-.06-.04-.08-.06.02.02.05.04.08.06Z" />
  <path d="M146.84,197.84s-.04-.08-.05-.11c.02.04.03.07.05.11h0Z" />
  <path d="M146.75,197.65c-.07-.14-.05-.11,0,0h0Z" />
  <path d="M140.71,198.5s.01.05.02.08h0s-.01-.06-.02-.08Z" />
  <path d="M113.4,197.73s-.04,0-.06-.01c.02,0,.03,0,.06.01-.22-.15-.16-.11,0,0Z" />
  <path d="M114.7,162.06c-.1.03-.08.03,0,0h0Z" />
  <path d="M109.55,158.73s-.06-.01-.09-.01c.03,0,.05,0,.09.01,0,0,0,0,0,0Z" />
  <path d="M109.38,158.7c-.11-.02-.14-.02,0,0h0Z" />
  <path d="M111.67,143.72h0c-.13-.06-.19-.08,0,0Z" />
  <path d="M131.52,146.71c-.05,0-.1-.01-.14-.02.03,0,.08,0,.14.02,0,0,0,0,0,0Z" />
  <path d="M131.41,146.65c-.13-.07-.1-.06,0,0h0Z" />
  <path d="M96.1,140.05s0,0,0,0c.07.11.05.08,0,0Z" />
  <path d="M93.63,138.7h0c-.06-.11-.04-.08,0,0Z" />
  <path d="M92.56,146.7h0c-.05-.02-.07-.03,0,0Z" />
  <path d="M71.14,41.69s-.03.02-.05.02c0,0,0-.02.01-.03,0,.01,0,0-.01.03.03-.01.03-.02.05-.02Z" />
  <path d="M233.67,460.4s0,0,0,.01c0,0,0,0,0-.01Z" />
  <path d="M233.59,460.37c-.06.07-.05.06,0,0h0Z" />
  <path d="M202.22,432.75s.01-.01.02-.02c0,0-.01.01-.02.02h0Z" />
  <path d="M202.27,432.74c.34-.08.25-.06,0,0h0Z" />
  <path d="M164.65,473.02s-.02,0-.04.02c.01,0,.02-.01.04-.02h0Z" />
  <path d="M158.1,475.71c.04-.08.05-.11,0,0,.16-.08.12-.06,0,0Z" />
  <path d="M76.03,467.62c.12-.09.08-.06,0,0h0Z" />
  <path d="M171.68,508.59c-.02-.05-.02-.05,0,0h0Z" />
  <path d="M171.71,508.67h0c-.13-.06-.18-.09,0,0Z" />
  <path d="M326.72,475.71h0c-.14-.1-.2-.15,0,0Z" />
  <path d="M438.73,163.03s-.02.05-.03.07c0-.02.02-.04.03-.07-.01,0-.01,0-.02.01,0,0,.01,0,.02-.01Z" />
  <path d="M442.64,217.05h0c-.04.08-.05.1,0,0Z" />
  <path d="M98.83,141.97c-.13-.22-.25-.44-.14-.25-.24-.08.03,0,.29.1-.05.05-.1.1-.15.15Z" />
  <polygon points="398.34 198.59 398.48 198.32 398.28 198.28 398.34 198.59" />
  <polygon points="434.34 179.63 434.47 179.38 434.26 179.35 434.34 179.63" />
  <path d="M109.03,139.35c.22.02.44.03.66.04-.22-.02-.44-.03-.66-.04Z" />
  <polygon points="428.51 261.44 428.33 261.26 428.28 261.56 428.51 261.44" />
  <path
    d="M134.02,4.43c1.54-.55,3.02-1.4,4.58-1.57,4.46-.47,8.94-.91,13.41-.88,3.78.03,7.55.73,11.41,1.14,2.76,1.38,3.15,4.12,3.23,6.76.08,2.92-.47,5.85-.51,8.77-.06,4.35.39,8.73.04,13.06-.37,4.57.84,9.01-.05,13.71-.82,4.3.31,8.97.59,13.48.03.5.13.99.17,1.49.36,4.95.72,9.91,1.08,14.85,1.04,1.42,2.02,2.75,2.6,3.54,8.3,4.96,16.13,5.72,24.28.37,3.57-4.78,4.77-10.42,4.55-16.79-.33-9.25.21-18.53.26-27.79.03-5.24-.24-10.48-.22-15.72.01-4.55.23-9.11.35-13.31,3.89-3.25,7.65-4.36,12.05-3.18,1.26.34,2.72.59,3.94.29,4.85-1.22,9.57-.4,14.57.56.74.81,1.62,1.78,2.41,2.65,0,8.35-.04,16.48.01,24.62.05,8.38-.17,16.75,0,25.13.11,5.6-.71,11.21-1.17,16.82-.39,4.72-.99,9.32-2.45,13.94-1.66,5.23-4.9,9.01-8.7,12.43-6.51,5.86-14.39,8.3-23.05,9.24-6.81.74-13.58.84-20.39.76-7.52-.08-14.72-1.61-21.69-4.34-1.7-.67-3.4-1.31-5.12-1.97-2.04-1.59-4.12-3.2-7.19-5.59-.93-1.41-2.6-3.84-4.18-6.33-4.43-6.95-4.91-14.81-5.49-22.74-.58-7.84.24-15.65-.28-23.5-.57-8.53.13-17.16.35-25.74.11-4.44.39-8.88.63-14.15ZM208.51,77.53c-.02-.15-.04-.31-.06-.46-.45.05-.89.11-1.34.16.02.15.04.31.06.46.45-.05.89-.1,1.34-.16ZM220.38,51.23l-.16.22.25.04-.09-.27ZM207.41,83.12l-.15.25.24.03-.09-.27Z" />
  <path
    d="M282.97,72.79c.06.64.12,1.29.19,2.05,1.29.52,2.49.99,3.56,1.42.81,1.8.32,2.59-2.4,4.12.52.19.97.34,1.41.51.28.11.55.27,1.06.53-.17,6.96,2.52,13.9.64,21.95-.89,2.12-3.26,3.38-6.35,3.34-3.98-.05-7.95-.22-11.92-.35-.46-.01-.97-.23-1.36-.09-3.84,1.31-7.14-.14-10.7-2.08-.36-3.86-1.62-7.77-.6-12.02.61-2.54.37-5.3.38-7.95.03-9.16-.05-18.31,0-27.47.06-9.57.27-19.14.32-28.71.02-4.12-.22-8.24-.35-12.37-.12-3.67.21-7.28,1.8-11.01,2.87-1.4,6.15-1.07,9.42-1.04,8.15.07,16.3.15,24.45.04,3.8-.05,7.62-.96,11.38-.7,6.74.46,13.59.97,19.79,4.05,2.48,1.23,4.75,3.03,6.81,4.91,2.19,2,4.02,4.4,6.12,6.74.08.32.11.86.35,1.27,4.18,7.22,3.17,15.17,2.79,22.87-.24,4.74-2.68,9-6.01,12.68-2.87,3.17-6.16,5.44-10.09,7-1.65.66-3.15,1.7-5.09,2.77.98,2.07,1.64,3.93,2.68,5.56,1.59,2.48,3.32,4.88,5.2,7.15,4.26,5.17,8.77,10.15,12.93,15.4,2.22,2.81,3.93,6.03,6.13,9.48-1.65,1.51-3.06,2.79-4.41,4.03-10.23-.21-20.2.27-30.09-1.01-2.92-1.94-4.77-4.49-6.34-7.56-2.61-5.12-5.8-9.95-8.75-14.9-.42-.71-.92-1.38-1.29-2.11-1.61-3.22-3.02-6.57-6.5-8.88-1.37,1.29-3.25,2-5.31.51-.14-.25-.29-.51-.15-.26-.27-.09.01,0,.3.1ZM300.83,61.96c-.17-.18-.34-.37-.42-.45.11.06.33.19.56.31.14.27.28.54.12.24.32.13.03.01-.26-.1ZM306.94,59.77c.1.18.19.37.26.48-.1-.08-.25-.21-.4-.35-.13-.22-.27-.44-.15-.25-.16-.06.07.02.29.11ZM276.79,64.78c.68-.33,1.35-.65,2.03-.98.58-.09,1.17-.18,1.75-.26-.11-.23-.22-.46-.33-.69l-1.3,1.09c-.67.33-1.34.66-2.01.99-.49.1-.99.21-.35.07-.43.47-.11.12.2-.22ZM291.83,63.93c-.15-.26-.31-.52-.12-.2-.35-.12-.05-.02.24.08.6,1.64,1.64,2.29,4.27,1.44-2.03-.61-3.21-.96-4.39-1.31ZM307.94,44.15c.34-2.88.73-6.28,1.08-9.22-6.88-9.31-16.42-11.75-22.04-6,0,4.95.1,9.93-.04,14.92-.06,2.24.2,4.25,1.91,6.41,7.02,1.55,13.39.15,19.09-6.1ZM288.62,65.11h-6.59c3.11,2.19,3.25,2.19,6.59,0ZM286.7,60.58c0-.39,0-.79,0-1.18-1.15.19-2.31.37-3.46.56.02.21.03.41.05.62h3.4ZM278.17,42.21c0,.11,0,.22,0,.33h2.15c0-.11,0-.22,0-.33h-2.15ZM271.68,41.65c-.02-.19-.04-.37-.06-.56l-2.05.18c.02.21.04.43.07.64.68-.09,1.36-.17,2.04-.26ZM273.24,32.24c0,.08,0,.16.01.24h1.21c0-.12-.01-.24-.02-.37-.4.04-.8.08-1.2.12ZM273.43,60.43c-.11.02-.23.05-.34.07.05.36.11.71.16,1.07.16-.04.32-.07.49-.11-.1-.34-.2-.69-.3-1.03ZM273.41,79.48c-.02-.12-.04-.25-.06-.37-.4.06-.8.13-1.2.19.07.11.15.31.22.31.35-.01.69-.08,1.04-.13ZM312.3,51.67c.12-.07.23-.14.35-.22-.1-.09-.19-.25-.3-.27-.11-.01-.23.13-.35.2.1.09.2.19.3.28ZM276.66,75.38c-.08-.1-.16-.2-.24-.31-.1.08-.27.16-.28.25-.01.09.14.2.22.31.1-.08.2-.17.3-.25ZM296.24,70.34l.27.16.04-.22-.31.06Z" />
  <path
    d="M367.73,4.85c1.79-1.06,3.2-1.9,3.99-2.37,12.81.16,24.91.83,37.01-.54,2.4.63,4.8,1.25,7.21,1.88,5.77-2.47,11.72-.17,17.46-1.24,1.29,1.21,2.35,2.21,3.39,3.18.08.59.22,1.08.22,1.57-.02,4.48-.08,8.95-.09,13.43,0,3.75-.81,4.83-4.47,6.03-2.73.9-5.37.81-8.27.55-6.61-.59-13.3-.46-19.95-.37-1.7.02-3.38.96-5.16,1.51v10.72c2.03,3.24,5.42,3.92,9.29,3.66,5.61-.38,11.23-.61,16.84-.99,3.17-.21,5.86.74,8.1,2.71,2.31,6.15.99,12.24.48,18.75-3.08,3.29-7.41,3.64-11.7,3.19-2.83-.3-5.51-.67-8.36.03-1.5.37-3.25-.28-4.88-.45-3.67-.38-7.43-1-10.18,3.89.4,3.12.89,7.01,1.56,12.29-1.18,6.19.88,14.1-.92,21.21-2.34,2.16-4.54,2.59-6.95,2.53-5.99-.14-11.98-.13-17.97-.36-1.94-.07-3.87-.69-6.26-1.14-.44-3.49-1.16-6.83-1.22-10.18-.13-7.4,0-14.8.15-22.2.13-6.58.51-13.15.6-19.73.05-3.6-.39-7.2-.4-10.8-.01-3.89.24-7.78.35-11.67.07-2.5.13-4.99.14-7.49.02-5.72,0-11.45,0-17.59ZM395.1,61.89c.15-.35.3-.71.45-1.06-1.04-.27-2.08-.53-3.12-.8-.07.24-.15.48-.22.72.96.38,1.92.76,2.89,1.14ZM395.35,46.65v-.45h-2.8c0,.15,0,.3.01.45h2.79ZM383.23,35.56v-.46h-2.71v.46h2.71ZM380.42,72.18c.02.19.04.39.06.58l1.9-.2c-.02-.18-.04-.37-.05-.55-.63.06-1.27.12-1.9.18ZM392.31,41.19c0,.1,0,.2,0,.3h1.27c0-.1,0-.2,0-.3h-1.27ZM394.43,66.58l.04-.18c-.26-.09-.51-.21-.77-.25-.1-.02-.23.13-.35.2.36.08.72.15,1.09.23ZM387.57,58.46l-.25-.16-.04.25.29-.08ZM389.27,64.52l.18-.19-.29-.05.11.25Z" />
  <path
    d="M292.88,151.84c3.04-.37,5.12-1.5,7.11-3.17,6.23-5.22,12.62-4.61,17.93-.08,4.44,3.79,5.75,3.83,10.52,1.78.69,1.23,1.4,2.49,2.09,3.72-.25.3-.4.62-.64.74-4.8,2.32-9.3,1.51-13.59-1.35-.28-.18-.51-.43-.78-.63-5.51-4.28-7.91-4.36-13.07.01-2.84,2.41-5.95,3.42-9.63,3.26-2.61-.12-4.86-.94-6.87-2.55-1.55-1.24-3.14-2.45-4.7-3.67h-5.43c-1.37,1.03-2.96,2.21-4.54,3.41-5.04,3.81-11.04,3.84-16.06.05-1.32-1-2.57-2.11-3.79-3.12-3.33-.86-6.23-.63-8.97,1.65-5.55,4.62-6.16,4.7-14.01,3.79-1.75-1.27-3.74-2.71-5.72-4.16-3.18-2.31-6.49-2.44-9.7-.29-.96.65-1.84,1.43-2.69,2.23-3.83,3.56-12.19,3.58-16.11-.13-.84-.8-1.74-1.57-2.7-2.2-3.03-1.97-6.32-1.86-9.29.22-1.34.94-2.76,1.77-4.02,2.81-3.88,3.21-7.68,2.15-11.48-.08-.42-.25-.73-.68-1.13-.98-4.37-3.31-8.97-5.71-14.6-3.31-.36-.68-.63-1.09-.79-1.54-.1-.28-.02-.63-.02-.93,4.58-3.18,8.92-3.3,13.31-.31,1.37.93,2.6,2.07,3.92,3.08,2.87,2.19,5.81,2.23,8.75.16,1.09-.76,2.08-1.66,3.13-2.47,5.09-3.91,10.37-3.95,15.57-.1,1.07.79,2,1.77,3.09,2.53,3,2.11,5.75,2.11,8.76,0,1.09-.76,2.02-1.74,3.09-2.53,5.2-3.85,10.48-3.8,15.58.09,7.06,5.4,7.84,5.41,14.64.18,5.47-4.2,10.31-4.23,15.93-.08q7.29,5.38,14.54-.08c5.31-4,10.65-3.95,16.01.13,1.19.91,2.32,1.9,3.57,2.7.82.53,1.81.79,2.78,1.2Z" />
  <path
    d="M217.28,167.39c-2.47,1.6-4.52,2.68-6.29,4.11-6.88,5.55-13.88,4.5-19.19-2.77-1.31-1.8-3.28-3.11-4.99-4.69,2.78-.93,5.34.26,7.74,2.01,1.21.88,2.24,2.01,3.49,2.81,3.16,2.02,6.79,1.59,10.13-1.05,7.24-5.71,11.97-5.7,19.05.06.77.63,1.59,1.21,2.62,1.99h6.02c1.26-1.01,2.64-2.21,4.1-3.28,5.69-4.15,11.34-3.95,16.79.55,4.85,4,7.89,4.05,12.84.2,6.45-5.02,11.52-5.01,17.93.03,1.04.82,2.09,1.64,2.91,2.28,3.78.97,6.77.35,9.46-2.26,3.62-3.5,8-4.47,13.28-3.02-.64,1.22-1.2,2.31-1.86,3.56-3.62-.26-6.42,1.23-8.99,3.57-5.6,5.1-12.63,4.18-17.58-.19-4.81-4.24-7.58-4.06-12.61-.05-6.3,5.02-11.25,5.06-17.53.15-.39-.31-.79-.61-1.19-.91-4.33-3.23-6.53-3.25-10.71-.07-.4.3-.77.64-1.14.97-5.72,5.13-12.63,4.37-17.61,0-1.8-1.58-4.14-2.52-6.68-4.01Z" />
  <path
    d="M265.8,412.21c9.79-8.59,14.87-8.83,24.75-.6,3.67,1.12,6.75.29,9.56-2.43,4.91-4.77,13.21-4.72,17.59-.04,2.65,2.83,5.87,3.59,9.55,2.5,10.73-8.63,14.77-7.62,24.42.06,3.26.8,6.31.57,8.77-2.02,5.28-5.55,13.89-5.38,19.1.22.45.48,1.02.84,1.89,1.53-1.78.61-3.34,1.15-4.5,1.55-.8-.24-1.19-.25-1.42-.45-4.29-3.59-7.96-3.01-11.94.71-5.8,5.42-12.77,4.49-17.98,0-4.97-4.28-7.41-4.25-12.57.16-5.16,4.41-12.59,5.01-17.57-.05-.58-.59-1.29-1.05-1.98-1.52-3.48-2.37-5.71-2.36-9.13.06-1.08.77-2.13,1.6-3.14,2.47-4.11,3.55-10.78,3.35-14.81.19-.65-.51-1.31-1.02-1.95-1.55-4.45-3.64-7.41-3.73-11.87-.11-2.18,1.77-4.39,3.34-7.75,3.91.42-1.95.74-3.5.98-4.6Z" />
  <path
    d="M280.88,187.13c-3.24-.85-5.91.14-8.26,2.34-.72.68-1.54,1.27-2.36,1.83-5.23,3.57-9.59,2.78-13.95.11-.84-.52-1.64-1.16-2.34-1.86-2.29-2.32-4.99-3.2-8.74-2.31-1.15.87-2.78,2.03-4.32,3.28-4.87,3.96-10.66,4.22-15.95.2-7.1-5.41-7.49-5.5-14.57-.05-4.6,3.54-11.58,3.84-16.23-.17-1.5-1.3-3.13-2.44-5.02-3.91.54-1.15,1.12-2.38,1.95-4.15,2.22,1.58,4.09,2.86,5.9,4.21,4.23,3.15,6.54,3.17,10.74-.04.66-.5,1.28-1.07,1.93-1.58,4.94-3.88,10.6-4.11,16.35.43,4.15,3.28,4.12,3.31,8.91,3.33,1.27-.89,2.98-1.91,4.49-3.17,5.77-4.82,12.16-4.49,17.06-.05.74.67,1.52,1.3,2.35,1.85,3.21,2.14,5.93,2.05,9.18-.31.94-.68,1.8-1.48,2.73-2.17,5.56-4.16,10.78-3.56,16.01.32,1.98,1.47,3.97,2.91,6.16,4.51-.49.93-1.08,2.05-1.67,3.18-4.63-.23-6.82-4.29-10.38-5.81Z" />
  <path
    d="M58.55,413.2c-1.38-.43-2.77-.87-4.78-1.5,3.63-3.43,6.79-5.91,11.75-5.98,5.16-.08,8.04,3.49,11.7,5.84,3.69,1.15,6.94.6,9.63-2.26,4.66-4.96,13.02-4.85,17.97.07,2.67,2.64,5.68,3.23,9.45,2.28.83-.65,1.88-1.46,2.92-2.28,6.47-5.08,11.51-5.17,17.91.02,3.13,2.54,6.32,3.52,10.5,1.77.49,1.3.98,2.61,1.51,4.03-5.08,2.94-9.46,1.98-13.64-1.15-1.33-1-2.59-2.09-3.99-2.97-.82-.52-1.85-.71-2.56-.97-3.01.27-5.28,1.46-7.27,3.38-4.47,4.32-11.58,5.07-17.16.16-.62-.55-1.25-1.1-1.92-1.59-3.61-2.61-5.85-2.62-9.53-.03-.95.67-1.88,1.38-2.74,2.17-4.17,3.8-10.88,3.61-15.19.26-.79-.61-1.53-1.28-2.3-1.91-3.16-2.59-6.47-3.06-9.98-.71-.68.46-1.4.86-2.28,1.4Z" />
  <path
    d="M144.68,393.4v3.99c-6.66,2.67-10.9-1.82-15.57-5.42h-5.65c-1.28.97-2.75,2.05-4.19,3.17-5.34,4.19-11.46,4.09-16.87-.16-1.53-1.2-3.2-2.48-5.02-3-2.69-.77-5.21.12-7.31,2.13-2.73,2.61-5.94,4.1-9.83,4.04-2.77-.04-5.22-.77-7.38-2.55-1.54-1.27-3.15-2.45-4.75-3.69h-5.27c-1.87,1.26-3.88,2.63-6.41,4.34.19-2.31.33-4.03.47-5.67,5.88-4.85,10.9-4.97,16.7-.53,1.82,1.4,3.74,2.68,5.21,3.72,3.43-.01,5.79-1.05,7.82-2.94.48-.45,1.08-.78,1.58-1.22,4.02-3.46,10.27-3.79,15.48.32,2.23,1.76,4.41,3.55,7.77,3.82,2.26-.21,4.2-1.73,6.17-3.31,6.16-4.95,11.39-4.87,17.52.15,4.14,3.4,4.39,3.47,9.52,2.79Z" />
  <path
    d="M77.66,374.78h5.51c1.4-1.05,3-2.23,4.57-3.44,5.3-4.09,11.17-4.03,16.39.19q4.15,3.36,8.86,3.26c4.53-1.87,7.57-6.6,13.06-6.56,3.16.27,6.06,1.21,8.57,3.38,2.23,1.93,4.36,4.24,8.01,3.16v4.55c-.47.18-.92.5-1.35.48-2.91-.13-5.48-1.19-7.77-2.97-.52-.41-1.02-.86-1.54-1.27-4.55-3.66-6.76-3.66-11.47,0-.66.51-1.31,1.02-1.96,1.53-4.27,3.32-9.09,3.89-15.09-.04-1.25-.82-2.29-1.95-3.55-2.75-2.76-1.74-5.59-2.04-8.35.08-1.18.91-2.31,1.91-3.51,2.78-4.86,3.53-9.84,3.57-14.79.15-.68-.47-1.31-1.02-1.96-1.54-4.66-3.73-6.11-3.83-11.08-.76-.51.32-1.1.51-2.34,1.07.33-2.34.57-4.07.81-5.77,7.91-4.33,13.68-.49,18.98,4.45Z" />
  <path
    d="M222.43,220.56c.14,1.56.28,3.16.42,4.72-2.25-.46-4.36-1.46-6.22-1.11-1.97.36-3.84,1.83-5.51,3.13-6.29,4.87-11.27,4.91-17.53-.07-.65-.52-1.31-1.02-1.95-1.55-2.87-2.42-5.82-1.93-8.73-.17-1.27.77-2.4,1.78-3.55,2.73-4.03,3.29-9.61,3.64-15.1-.15-.95-.66-1.77-1.52-2.74-2.16-2.43-1.62-4.98-2.7-7.93-1.09-1.51-.66-3-1.31-4.57-1.99,3.89-3.77,9.97-4.35,14.4-1.44,1.1.73,2.05,1.68,3.1,2.51,3.65,2.88,7.18,2.95,10.79-.09,3.01-2.54,6.21-4.28,10.27-4.21,2.78.05,5.2.85,7.35,2.61,1.54,1.26,3.15,2.43,4.69,3.62h5.45c4.77-3.66,9.55-8.3,17.36-5.28Z" />
  <path
    d="M415.45,394.52v3.14c-5.71,1.39-8.29-3.64-12.73-5.7h-5.11c-1.39,1.04-2.87,2.11-4.31,3.23-5.01,3.89-10.96,4.03-16.03.35-7.12-5.16-7.82-5.19-14.63-.11-2.34,1.75-4.83,2.72-7.8,2.74-3.9.03-7.11-1.19-9.87-4.71,3.49-1.08,6.58-.72,8.75.09,7.6-2.06,14.4-3.9,20.78-5.63,4.13,1.79,6.41,5.8,12,5.78,1.06-.65,3.13-1.68,4.92-3.06,6.62-5.13,11.25-5.12,17.91.03,1.81,1.4,3.89,2.46,6.12,3.85Z" />
  <path
    d="M115.61,359.95c-7.48,2.83-12.07-1-16.19-4.75-4.14-1.23-7.09-.2-10.09,2.24-6.42,5.24-11.5,5.08-17.85-.32-3.92-3.33-7.79-3.16-12.51-.19.27-2.27.48-3.96.71-5.84,4.94-2.19,9.47-1.91,13.54,1.54,2.2,1.86,4.37,3.59,7.57,3.9,2.19-.23,4.14-1.3,5.9-2.99,5.44-5.25,13.24-4.79,18.02-.23,1.51,1.44,3.62,2.24,5.45,3.34,1.63.98,3.26,1.98,5.44,3.3Z" />
  <path
    d="M181.91,206.91c1.12-1.96,2.23-3.93,3.26-5.75,3.95-.95,7.07.36,9.95,2.53,1.06.8,2.02,1.73,3.12,2.46,2.74,1.81,5.56,1.81,8.29-.03,1.37-.92,2.6-2.05,3.93-3.04,4.2-3.11,10.71-3.18,14.76.38,1.61,1.41,3.4,2.62,5.34,4.09-.88.98-1.82,2.04-2.63,2.94-.57,0-.95.12-1.17-.02-.98-.62-2.04-1.19-2.83-2.01-2.73-2.82-5.92-3.42-9.53-2.34-9.82,8.27-14.88,7.76-23.94.08-2.98-1.22-5.81-.31-8.64.61,0,0,.08.08.08.08Z" />
  <path
    d="M318.46,298.09c.42,1.86.81,3.59,1.31,5.84-3.26-.91-5.21-3.42-7.77-4.83-3.68-.94-6.64.09-9.58,2.59-5.78,4.93-11.83,4.85-17.48-.17-2.89-2.57-6.03-3.2-9.76-2.48-.34-1.42-.6-2.51-.87-3.6,3.37-2.32,7.5-2.08,11.35.71,1.07.78,1.98,1.79,3.05,2.57,3.8,2.73,6.23,2.7,9.97-.06.94-.69,1.86-1.41,2.74-2.17,3.85-3.34,10.46-3.74,14.75-.18.76.63,1.56,1.22,2.29,1.78Z" />
  <path
    d="M227.11,242.59c-.53,1.45-1.02,2.8-1.56,4.26-1.56-1.14-2.88-2.13-4.23-3.09-.4-.29-.86-.5-1.38-.8h-4.75c-13.24,8.74-13.49,8.74-25.36.07h-6.89c-.95-.74-1.95-1.52-3.14-2.45,5.05-3.64,9.78-3.42,14.49-.14,1.22.85,2.33,1.87,3.54,2.74,3.2,2.29,5.9,2.26,9.14-.08.94-.68,1.78-1.49,2.72-2.17,6.13-4.43,11-4.07,17.41,1.66Z" />
  <path
    d="M349.16,322.44c4.41-2.36,9.18-3.53,12.64-7,3.72-3.73,12.58-3.88,16.43.25,2.6,2.78,5.65,3.97,9.89,2.95,1.35-.96,3.1-2.2,4.98-3.53.82,1.14,1.57,2.17,2.31,3.2-5.44,6.69-11.98,7.62-18.5,2.34-5.9-4.78-8.29-4.79-14.29.17-4.4,3.64-7.94,3.94-13.46,1.63Z" />
  <path
    d="M358.75,336.91c.48-.55.66-.84.92-1.05,7.76-6.46,11.78-6.56,19.79-.52,4.73,3.57,7.09,3.48,11.86-.48,3.56-2.95,5.3-3.6,10.13-3.67.28,1.35.58,2.75.93,4.41-1.55.16-3,.31-4.78.49-1.49,1.13-3.21,2.42-4.92,3.72-4.89,3.7-10.26,3.65-15.52-.16-.53-.39-.97-.9-1.49-1.32-4.09-3.32-6.81-3.42-11.17-.4-.4.28-.8.57-1.22.87-1.9.17-3.29-.59-4.53-1.89Z" />
  <path
    d="M271.13,283.75c-.77-1.44-1.45-2.72-2.1-3.93,4.9-6,13-5.9,18.16-1.1.61.56,1.21,1.14,1.88,1.62,2.94,2.11,6.23,2.18,9.23.1,1.48-1.03,2.82-2.28,4.56-3.72.86,1.34,1.6,2.49,2.48,3.85-2.94,2.2-5.16,4.61-8.82,5.58-3.62.96-6.49.2-9.4-1.49-1.14-.66-2.1-1.61-3.14-2.43-4.12-3.22-6.61-3.26-10.71-.19-.64.48-1.26,1-2.13,1.69Z" />
  <path
    d="M278.45,260.55c-4.55,2.68-8.74,5.16-13.42,7.91-.94-1.71-1.65-3.02-2.61-4.76,4.05-.71,6.74-2.75,9.47-4.93,3.73-2.98,8.03-2.63,12.2-.75,1.19.54,2.33,1.34,3.25,2.27,3.24,3.28,6.93,3.52,11.19,1.81v4.42c-.48.38-.82.85-1.25.96-4.48,1.17-8.43.14-12.08-2.72-2.02-1.58-4.37-2.76-6.74-4.22Z" />
  <path
    d="M80.07,301.48c2.64-1.52,4.98-2.45,6.81-4,5.94-5.02,12.33-4.85,17.98.17,1.11.99,2.36,1.82,3.7,2.84-.84.49-1.65.97-2.57,1.51-1.71-.64-3.45-1.18-5.09-1.92-2.32-1.06-4.72-1.17-7.24-1.35-5.05-.35-8.81,1.03-10.48,5.9-5.67,1.54-9.59-1-13.42-4.96.5-1.08,1.08-2.34,1.71-3.7.73.31,1.21.43,1.59.69,2.17,1.47,4.32,2.97,7,4.82Z" />
  <path
    d="M149.33,426.88c.57,1.62,1.01,2.86,1.51,4.28-1.4,1.88-3.3,3.6-5.56,3.62-4.42.04-9.08.04-12.75-2.99-3.06-2.53-6.04-3.81-10-2.15-1.75.73-3.84.79-5.65-.46,3.86-5.28,9.73-6.61,15.23-3.46,1.29.74,2.43,1.73,3.61,2.64,4.47,3.46,6.61,3.52,11.14.28.67-.48,1.34-.95,2.48-1.76Z" />
  <path
    d="M290.59,430.67c-2.92.15-4.55.24-6.43.33-4.73-3.81-9.05-2.38-13,1.79-5.68-.21-11.58,3.61-17.16-1.07.41-1.7.75-3.11,1.09-4.5.43.05.79-.01,1.01.13.95.66,1.82,1.45,2.78,2.08,3.24,2.12,5.91,2.02,9.15-.33.94-.68,1.79-1.47,2.72-2.17,5.57-4.21,11.1-3.6,16.32.6.89.72,1.71,1.51,3.52,3.13Z" />
  <path
    d="M87.4,334.9c.7,1.08,1.4,2.17,2.17,3.35-1.67,2.61-4.35,3.39-7.05,4.14-2.77.77-5.31-.13-7.6-1.42-2.43-1.37-4.6-3.21-7.46-5.26-2.04.33-4.56.75-7.39,1.21-.06-1.06-.15-2.61-.23-4.19,4.5-2.88,8.6-1.89,12.63.63.28.18.53.39.8.59,6.79,5.1,7.18,5.13,14.13.95Z" />
  <path
    d="M273.7,206.78c-1.1-.94-2.07-1.77-3.07-2.62,5.45-4.4,10.4-4.56,15.53-.63,2.23,1.71,4.22,3.77,7.49,4.18,1.61-.53,3.47-1.14,5.78-1.91.37,1.33.73,2.63,1.07,3.84-4.56,3.07-9.52,3.22-13.57.53-.69-.45-1.3-1.02-1.93-1.55-4.14-3.43-5.45-3.67-11.29-1.85Z" />
  <path
    d="M1.38,334.41c1.38-3.42,3.03-3.71,5.01-3.23,2.79.67,5.16,2.04,7.39,3.88,1.47,1.21,3.32,2.29,5.15,2.65,1.44.28,3.21-.44,4.66-1.1,1.31-.6,2.39-1.72,3.98-2.92v5.55c-5.33,4.27-10.13,4.48-15.34.64-2.64-1.95-5-4.33-8.64-4.36-.74,0-1.47-.73-2.21-1.12Z" />
  <path
    d="M1.87,352.13c.4-.7.79-1.39,1.09-1.93,3.82-1.01,6.76.24,9.44,2.49,2.17,1.82,4.34,3.67,8.17,3.88,1.56-.79,3.74-1.91,6.05-3.09v5.09c-4.82,3.18-9.88,3.51-13.87.32-3.03-2.43-6.16-4.4-9.9-5.41-.25-.07-.39-.51-.97-1.34Z" />
  <path
    d="M440.03,340.75c-.07-1.61-.14-3.23-.24-5.56.87.51,1.3.78,1.73,1.02,4.42,2.5,6.45,2.43,10.27-.93,2.83-2.5,5.95-4.05,10.65-4.46.41.37,1.2,1.11,1.55,1.44-.43,2.56-1.36,3.6-2.8,3.54-2.62-.1-4.28,1.46-6.07,2.91-.51.42-1.04.81-1.58,1.2-4.25,3.06-8.66,3.68-13.5.84Z" />
  <path
    d="M280.17,223.62c.64-1.12,1.27-2.23,1.97-3.48,3.57.78,5.7,3.74,7.98,5.15,6.05,2.4,9.16-1.87,13.51-4.87-.38,2.5-.66,4.3-.92,6.03-5.23,5.38-10.56,5.94-16.42,1.76-2-1.43-3.94-2.95-6.12-4.59Z" />
  <path
    d="M392.61,357.89c-.85-.72-1.83-1.56-2.97-2.53,1.91-2.38,4.09-4.19,6.78-5.05,6.67-2.11,11.47,1.33,16.1,6.03.09,1.15.21,2.59.36,4.49-2.51-.63-4.2-1.75-5.83-3.11-5.11-4.27-7.56-4.28-13.21-.25-.25.18-.61.21-1.22.41Z" />
  <path
    d="M3.06,372.9c-.53-1.08-.82-1.66-1.1-2.22.31-.53.45-1.12.81-1.35,2.35-1.49,4.74-.79,6.98.24,1.33.61,2.57,1.53,3.66,2.52,3.66,3.32,7.51,3.9,11.88.9.84,2.02-.35,3.6-.44,5.35-4.93,2.86-9.26,1.36-13.3-1.71-2.51-1.9-4.75-4.22-8.49-3.74Z" />
  <path
    d="M62.58,317.38c1.24-1.92,2.03-3.14,2.83-4.38,2.68-.63,4.92.2,6.97,1.76,1.05.8,2.05,1.68,3.13,2.44,3.49,2.47,6.47,2.5,10.07.16.61-.4,1.17-.87,2.51-1.88-.72,1.95-1.11,2.97-1.48,4.01-.33.93-.64,1.86-1.03,3-5.1,2.85-9.73,1.43-13.85-2.25-2.46-2.2-5.04-3.54-9.15-2.85Z" />
  <path
    d="M197.65,267.35c1.05-1.84,1.68-2.94,2.41-4.23,3.9.51,6.96-1,9.78-3.7,3.29-3.15,7.44-3.11,12.03-2.1-1.03,2.4-2.84,3.41-4.89,3.91-2.51.62-4.58,1.84-6.42,3.61-3.47,3.35-7.59,3.5-12.91,2.5Z" />
  <path
    d="M462.84,350.23c.3.56.68,1.25.93,1.73-.6,2.1-2.28,2.08-3.61,2.66-1.64.71-3.51,1.29-4.74,2.49-3.68,3.58-7.91,4.54-13.3,3.39-.07-1.39-.15-2.92-.25-4.98,4.78,2.07,8.1.19,11.2-2.57,2.72-2.43,5.78-3.83,9.76-2.71Z" />
  <path
    d="M298.45,243.12c.52,1.34.99,2.56,1.47,3.81-.35.45-.56,1.03-.94,1.16-1.7.59-3.44,1.05-4.58,1.39-4.23-.2-7.26-1.61-9.96-4.06-1.42-1.29-3.28-2.09-5.34-3.36v-3.66c.51-.13.83-.33,1.09-.27,2.78.63,5.28,1.8,7.39,3.79,3.24,3.04,6.8,4.05,10.85,1.2Z" />
  <path
    d="M23.55,393c-.34,2.06-.52,3.15-.74,4.46-4.25,1.4-8.04.68-11.42-2.35-2.13-1.91-4.33-3.68-7.51-3.44-.64-.84-1.23-1.62-1.87-2.46.22-.45.36-.94.67-1.3,1.32-1.53,3.11-1.28,4.6-.65,2.11.9,4.2,2.01,5.98,3.43,2.84,2.26,5.71,3.9,10.29,2.31Z" />
  <path
    d="M325.37,318.93c.97,1.61,1.65,2.73,2.39,3.97-.51.31-1,.83-1.26.74-4.34-1.56-8.64-3.22-12.97-4.81-1.83-.67-3.69-1.27-5.56-1.81-1.89-.54-3.81-.96-5.85-1.47,2.95-3.03,7.95-3.83,11.9-1.93,1.32.64,2.61,1.5,3.67,2.51,2.16,2.05,4.55,3.29,7.68,2.8Z" />
  <path
    d="M448.71,374.62c4.67-2.33,8.18-8.63,15.26-4.72-.33.96-.58,1.68-.9,2.65-3.71.02-6.43,2.07-9.13,4.29-2.62,2.15-5.65,3.36-9.61,2.85-.2-1.31-.42-2.69-.68-4.38,1.84-.25,3.42-.46,5.06-.68Z" />
  <path
    d="M1.83,296.19c2.1-2.56,4.35-2.93,6.77-1.51,5.05,2.97,10.04,6.07,15.33,9.28-5.16,1.72-8.38,1.47-11.69-1.26-2.45-2.02-4.78-3.95-8.13-4.34-.83-.1-1.53-1.42-2.28-2.18Z" />
  <path
    d="M458.19,312.27c.36,2.45.54,3.7.7,4.8-5.31,4.29-10.11,9.32-17.79,5.58v-4.23c2.81.23,5.36.44,7.39.61,3.31-2.31,6.09-4.25,9.69-6.76Z" />
  <path
    d="M75.99,285.48c.53-1.34.94-2.4,1.4-3.54h4.58c4.31-1.29,6.42-5.52,10.85-6.09,1.19,1.05,2.42,2.13,4.15,3.66-3.72.38-6.15,2.29-8.64,4.31-3.53,2.86-7.58,4.06-12.33,1.66Z" />
  <path
    d="M19.57,320.33c.23.67.64,1.89,1.09,3.18-.52.13-.98.31-1.46.34-2.82.2-5.18-1.05-7.23-2.73-2.58-2.1-5.04-4.23-8.59-4.46-.57-.04-1.11-.66-2.19-1.34,1.33-1.15,2.01-2.19,2.87-2.38,3.31-.74,6.06.74,8.66,2.62,2.11,1.52,4.27,2.97,6.86,4.77Z" />
  <path
    d="M400.11,368.61c6.37-.43,9.33,4.34,13.61,6.49.45,1.42,1.46,2.75-.07,4.21-5.54-.08-8.1-6.15-13.74-6.64.06-1.3.12-2.51.19-4.06Z" />
  <path d="M315.93,426.58c-5.59.86-10.59,1.63-15.89,2.44,3.88-5.52,8.83-6.28,15.89-2.44Z" />
  <path d="M318.14,396.26c4.44-1.62,8.97-1.43,14.46-1.25-5.14,3.87-9.69,3.88-14.46,1.25Z" />
  <path d="M451.59,298.17v5.49c-1.9,1.46-3.68,1.61-6.05.7,2.01-2.06,3.75-3.84,6.05-6.2Z" />
  <path d="M299.62,396.21c-3.68,2.5-7.82,2.54-11.62,0h11.62Z" />
  <path d="M387.24,300.83c.59,1.27,1.09,2.36,1.81,3.9h-8.75c2.84-1.59,4.77-2.68,6.94-3.9Z" />
  <path d="M453.16,390.54c2.6-2.52,5.43-4.3,10-3.13-3.51,2.08-6.74,2.65-10,3.13Z" />
  <path
    d="M181.83,206.84c-1.76,3.37-4.93,4.25-9.09,5.5.7-1.58.99-2.24,1.25-2.84,2.7-.88,5.31-1.73,7.91-2.58l-.08-.08Z" />
  <path
    d="M203.25,282.34c1.6-.81,2.86-1.45,4.79-2.43-.98,2.29-1.67,3.9-2.58,6.03-.8-1.3-1.41-2.3-2.21-3.6Z" />
  <path d="M456.27,146.5c2.32-1.41,4.65-2.69,7.43-.05-2.72.76-5.08.31-7.43.05Z" />
  <path d="M200.65,416.57c.69-1.01,1.19-1.74,1.85-2.7.85.9,1.5,1.58,2.55,2.7h-4.4Z" />
  <path d="M393.66,408.05c2.43-2.15,4.41-2.57,7.63-1.7-2.93.65-4.9,1.09-7.63,1.7Z" />
  <path d="M331.84,259.85c.92-2.06,3.06-1.9,4.7-2.66-1.25,1.43-2.53,2.79-4.62,2.73l-.07-.07Z" />
  <path d="M16.91,285.59c-1.11-.06-1.91-.09-2.92-.14q1.33-1.79,2.92.14Z" />
  <path d="M269.56,396.65c-.76.32-1.53.64-2.62,1.1q.72-1.71,2.62-1.1Z" />
  <path d="M21.96,112.82c-.3-.38-.59-.75-.24-.3-.11-.56-.01-.06.08.44l.15-.14Z" />
  <path d="M138.78,148.96c.53.07,1.06.13,1.58.2l-.26.56-1.22-.88-.1.12Z" />
  <path d="M133.78,149.96c.48.08.96.17.35.06.48.39.12.1-.23-.19,0,0-.12.13-.12.13Z" />
  <path d="M331.91,259.92c-.14.25-.27.49-.41.74-.16-.15-.33-.3-.49-.45.28-.12.55-.24.83-.36l.07.07Z" />
  <path
    d="M312.84,242.84c-.11.26-.22.51-.33.77-.12-.16-.23-.33-.35-.49.25-.06.51-.12.76-.19l-.08-.09Z" />
  <path d="M312.84,224.82c-.14.15-.27.31-.3.34.05-.02.23-.12.42-.22l-.12-.12Z" />
  <path d="M102.81,214.92c.26.12.52.24.77.36l-.66-.48-.11.11Z" />
  <path d="M369.8,207.79c-.12.21-.24.41-.24.42,0,0,.19-.16.37-.31,0,0-.12-.12-.12-.12Z" />
  <path d="M163.02,207.72c.19.27.37.54.56.81-.28-.17-.56-.35-.84-.52l.28-.29Z" />
  <polygon points="131.29 206.22 131.41 206.47 131.11 206.43 131.29 206.22" />
  <path d="M128.8,204.93c.29.1.57.2.22.08.19.31.04.06-.12-.19l-.11.11Z" />
  <path d="M123.82,204.9c.24.15.48.3.25.15.06.18-.02-.05-.09-.29l-.16.14Z" />
  <path d="M179.77,291.94c.26.09.51.18.29.1.1.18-.02-.04-.14-.25l-.14.15Z" />
  <path d="M308.85,199.86c-.11.28-.22.55-.33.83-.13-.17-.27-.33-.4-.5.26-.1.51-.19.77-.29l-.04-.04Z" />
  <path d="M144.8,287.92c.28.12.57.23.27.11.13.22,0,0-.14-.24l-.13.13Z" />
  <path d="M151.81,286.9c.18.16.35.32.38.34-.02-.04-.13-.25-.23-.47,0,0-.14.13-.14.13Z" />
  <path d="M327.87,284.87c-.11.25-.22.51-.33.76-.17-.14-.34-.28-.5-.42l.84-.33s0,0,0,0Z" />
  <path d="M315.95,180.82c-.28-.09-.55-.19-.27-.09-.15-.21,0,0,.15.21l.12-.12Z" />
  <path d="M439.83,159.85c-.31.35-.61.71-.92,1.06l-.08-.08c.37-.29.74-.58,1.12-.88l-.11-.1Z" />
  <path d="M439.94,159.96c.08-.29.15-.59.23-.88-.11.26-.23.52-.34.78l.11.1Z" />
  <path d="M345.84,152.82c-.14.24-.29.49-.14.25-.2.08.04-.01.28-.1l-.13-.14Z" />
  <path d="M122.78,148.99c.18.11.36.22.48.29-.08-.11-.2-.29-.31-.46l-.17.17Z" />
  <path d="M121.84,147.9c.31.36.63.72.94,1.09l.17-.17c-.33-.34-.66-.69-.99-1.03l-.12.11Z" />
  <path d="M94.87,265.87c.25.11.49.23.74.34-.16.13-.32.27-.48.4-.09-.24-.18-.49-.27-.73h.01Z" />
  <path d="M407.92,118.85c-.17-.14-.33-.29-.36-.31.02.03.13.23.24.42,0,0,.12-.12.12-.12Z" />
  <path d="M360.79,116.79c-.09.28-.18.56-.07.22-.32.18-.07.04.19-.1,0,0-.12-.11-.12-.11Z" />
  <path d="M400.95,116.8c-.24-.09-.48-.17-.24-.08-.18-.28-.02-.04.13.2l.11-.12Z" />
  <path d="M389.89,115.85c-.27-.17-.54-.35-.09-.06-.18-.51-.07-.2.04.11l.05-.05Z" />
  <path d="M17.91,112.94c.12-.23.23-.46.12-.24.17-.07-.04.02-.25.11l.13.13Z" />
  <path
    d="M89.94,108.97c.13-.23.26-.45.39-.68.17.22.34.44.51.66l.12-.13c-.39,0-.78,0-1.17,0l.14.16Z" />
  <path d="M93.89,106.94c.15-.16.3-.33.34-.38-.07.04-.28.13-.48.23l.14.15Z" />
  <path d="M104.92,104.93c.13-.26.25-.51.09-.18.34-.15.08-.03-.19.08l.1.1Z" />
  <path
    d="M236.55,586.93c-2.04,1.21-3.69,2.18-4.67,2.77-3.35-1.25-5.96-2.22-8.47-3.16,2.21-2.18,2.61-2.23,7.54-.81,4.22-2.61,6.14-2.61,11.1.15-1.66,1.9-3.78.59-5.5,1.04Z" />
  <path
    d="M305.61,576.92c-.71,2.81-4.56,1.02-4.79,4.42,1.66.28,3.3.56,5.38.9-1.74,2.47-3.51,1.6-5.29.97-1.71-.61-3.45-1.11-5.61-1.79-.38-.76-.92-1.85-1.77-3.56,1.94.23,3.17.37,4.5.53,2.31-.93,4.32-3.85,7.58-1.47Z" />
  <path
    d="M290.42,586.58c-1.01-.06-1.76-.1-2.38-.14-.67-2.07.79-3.3,5.17-4.6,1,.78,2.14,1.67,3.57,2.79,1.03.14,2.41.33,5.01.69-3.95,1.42-6.76,2.44-9.91,3.57-.44-.71-.93-1.48-1.46-2.32Z" />
  <path
    d="M292.56,595.21c-2.86-2.06-5.61-4.03-8.39-6.03,3.81-2,5.32,3.92,9.96,2.16.35-.43,1.38-1.71,2.27-2.8,2.48-1.06,4.43-.6,6.38,1.14-1.31,2.09-3.81.7-5.31,1.89-1.51,1.2-3.1,2.31-4.9,3.64Z" />
  <path
    d="M306.79,569.26c-2.48,2.97-4.6.66-7.33.35-1.56.87-3.56,1.97-5.74,3.18-2.4.4-4.05-1.11-5.44-3.32,1.25.43,2.5.85,4.06,1.39,4.22-3.06,8.95-4.26,14.45-1.6Z" />
  <path
    d="M235.97,576.06c-.13,1.09-.21,1.72-.28,2.36-.59.21-1.03.46-1.5.51-.81.08-1.64.02-2.38.02-.63-.74-1.16-1.34-1.73-2.01-2.53.31-5.27,1.16-7.09-2.05,1.78-2.5,4.55-1.73,6.08-.72,2.07,1.37,4.23,1.43,6.91,1.89Z" />
  <path d="M294.53,574.83c2.22-1.6,4.47-2.3,7.13-2.92-1.77,4.28-2.58,4.6-7.13,2.92Z" />
  <path
    d="M221.56,594.91c3.67-2.13,5.89-.19,8.44,1.33-.36.52-.71,1.2-.84,1.16-2.35-.71-4.67-1.51-7.6-2.49Z" />
  <path d="M262.95,618.21q-2.16,1.75-5.86.83,3.41-2.53,5.86-.83Z" />
  <path d="M228.49,565.77c-2.17.32-4.06,2.88-6.99.86,2.42-1.66,4.64-1.78,6.99-.86Z" />
  <path d="M230.14,592.45c3.81-1.09,5.02,1.25,7.17,2.94-3.35,1.03-4.96-.58-7.17-2.94Z" />
  <path d="M285.95,601.35c-2.94,1.78-5.31.25-8.45.58,3.02-2.84,5.44-2.07,8.45-.58Z" />
  <path
    d="M231.84,581.64c-2.29,1.75-4.04,1.45-6.18.57.93-1.82,2.46-2.01,4.21-2.36.49.45,1.05.96,1.97,1.8Z" />
  <path
    d="M234.77,570.8c-.74,1.01-1.47,2.01-2.39,3.28-1.09-.81-1.8-1.34-2.7-2.02,1.7-1.92,3.57-1.08,5.26-1.09l-.17-.17Z" />
  <path d="M289.88,580.32c-1.52.68-2.76,2.59-4.5.35q2.4-2.31,4.5-.35Z" />
  <path d="M234.94,570.98q1.08-2.89,3.71-2.38c-.19,2.69-2.27,2.05-3.87,2.21l.17.17Z" />
  <path d="M249.89,611.23c2.18-1.8,3.47-.68,5.15.32-1.81,1.9-3.21.89-5.15-.32Z" />
  <path
    d="M256.85,607.42c1.3.3,2.59.6,4.21.98-.44.92-.69,1.45-1.12,2.34-1.34-.87-2.47-1.6-3.59-2.33.17-.33.33-.66.5-.99Z" />
  <path d="M266.15,613.72c-1.92,1.47-3.68,1.45-5.76-1.22,2.53.53,4.15.88,5.76,1.22Z" />
  <path
    d="M221.6,575.88c-1.54,1.16-2.04,1.53-2.68,2.01-.85-.44-1.68-.86-2.66-1.36.3-.44.53-1.07.76-1.06,1.19.02,2.38.2,4.58.42Z" />
  <path
    d="M258.49,597.47c1.07.98,1.52,1.4,2.17,1.99-1.13.48-2.08.89-4.03,1.72.84-1.67,1.23-2.44,1.86-3.71Z" />
  <path d="M290.74,577.22c.43-1.06.85-2.12,1.39-3.48q1.53,2.53-1.39,3.48Z" />
  <path d="M284.03,606.1c-1.84,1.35-3.28,2.2-5.34,1.22,1.36-2.07,3.15-1.38,5.34-1.22Z" />
  <path d="M254.95,596.25c-1.57,1.42-2.72,2.12-4.42.79,1.15-1.69,2.52-1.34,4.42-.79Z" />
  <path d="M265.24,609.27c.99-.1,1.99-.2,3.17-.31-.74,2.24-1.82,2.2-3.17.31Z" />
  <path
    d="M290.96,598.8c-1.37-.08-2.93.42-4.03-1.68,1.3-.1,2.38-.18,3.75-.29.05.95.08,1.55.11,2.14l.17-.17Z" />
  <path d="M251.07,617.58c1.1-1.85,2.03-2.03,2.86,0h-2.86Z" />
  <path d="M273.27,608.5h-3.51c1.23-1.86,2.06-1.83,3.51,0Z" />
  <path d="M275.53,602.81c.12.75.32,1.33.26,1.88-.05.43-.42.82-.85,1.61-1.17-1.81-1.5-2.74.59-3.49Z" />
  <path d="M295.74,559.07h4.66c-.09.32-.16.53-.22.74-1.23-.45-2.55,1.52-4.44-.74Z" />
  <path d="M303.18,585.92c1.86.62,2.72.91,3.79,1.26-1.36,1.52-2.32,1.6-3.79-1.26Z" />
  <path d="M298.54,601.05h2.8q-1.48,1.3-2.8,0Z" />
  <path d="M238.77,574.91c1.02-1.38,1.79-2.33,3.49-.51-1.36.2-2.27.33-3.49.51Z" />
  <path d="M301.06,565.35c-.96.21-1.62.35-2.48.54q.82-1.79,2.48-.54Z" />
  <path d="M229.45,591.66h-3.9c1.42-.78,2.1-1.15,2.82-1.55.39.57.66.96,1.07,1.55Z" />
  <path d="M286.66,595.44h-3.07q1.38-1.4,3.07,0Z" />
  <path d="M231,559.83c1.24.32,2.01.51,3.16.81q-1.75,1-3.16-.81Z" />
  <path d="M253.32,591.95c-.9-.06-1.8-.13-2.87-.2q1.57-1.21,2.87.2Z" />
  <path d="M268.03,613.59c1.2-.89,2.14-2.15,3.4,0h-3.4Z" />
  <path
    d="M270.69,599.88c.59-.23,1.18-.46,1.77-.69.11.29.22.57.33.86-.6.22-1.19.44-1.79.66-.11-.28-.21-.55-.32-.83Z" />
  <path
    d="M310.39,604.89c-.73-.09-1.46-.18-2.2-.27,0-.26.02-.52.03-.78h2.27c-.03.35-.06.7-.09,1.05Z" />
  <path
    d="M262.89,606.17c.53.05,1.06.09,1.59.14-.06.39-.12.79-.18,1.18-.53-.21-1.06-.42-1.6-.63.06-.23.12-.46.18-.69Z" />
  <path
    d="M309.04,560.1c-.63.3-1.05.67-1.38.6-.24-.05-.44-.65-.5-1.04-.02-.12.53-.5.72-.44.36.11.64.46,1.16.87Z" />
  <path
    d="M239.07,591.71c-.69-.38-1.38-.76-2.07-1.13.12-.22.24-.43.35-.65.69.38,1.38.76,2.07,1.14-.12.21-.23.43-.35.64Z" />
  <path d="M301.26,597.99h2.42c.02.16.03.33.05.49-.78.16-1.56.32-2.33.48-.04-.33-.09-.65-.13-.98Z" />
  <path
    d="M299.15,606.08l1.79-.15c.02.18.03.37.05.55-.6.06-1.19.12-1.79.17-.02-.19-.04-.38-.05-.57Z" />
  <path
    d="M218.7,631.58c-.19.33-.33.71-.59.96-.09.08-.5-.19-.77-.3.26-.35.52-.69.79-1.04.19.13.38.25.57.38Z" />
  <path d="M306.12,591.98h2.34c0,.19,0,.38,0,.58h-2.34c0-.19,0-.38,0-.58Z" />
  <path d="M222.79,613.04c.84.07,1.23.11,1.62.14-.24.2-.45.46-.72.57-.11.04-.36-.27-.9-.7Z" />
  <path
    d="M285.35,559.19c.36.07.71.15,1.07.22-.12.07-.25.21-.35.19-.26-.04-.5-.16-.75-.25.01-.06.02-.11.03-.17Z" />
  <path d="M237.42,561.51c-.62-.29-.31-.14,0,0-.36.07-.71.14,0,0Z" />
  <path
    d="M230.05,567.16c.51-.09,1.02-.19,1.53-.28.03.21.06.41.08.62l-1.55.16c-.02-.17-.04-.33-.06-.5Z" />
  <path d="M287.49,574.64c-.41.07-.82.13-1.24.2l-.09-.58c.41-.05.83-.11,1.24-.16.03.18.05.36.08.55Z" />
  <path d="M282.32,577.49c-.33.05-.66.12-.99.14-.06,0-.12-.2-.18-.31.37-.06.74-.12,1.11-.19l.06.35Z" />
  <path d="M244.63,589.57h-1.54c0-.13,0-.25,0-.38h1.54c0,.13,0,.25,0,.38Z" />
  <path d="M278.25,592.23c.41-.05.81-.09,1.22-.14,0,.13.02.26.03.4h-1.23c0-.09,0-.17-.01-.26Z" />
  <path d="M247.53,593.5h-1.08v-.26h1.08c0,.09,0,.17,0,.26Z" />
  <path d="M265.77,597.97h1.71c-.09.24-.17.48-.26.72-.44-.29-.88-.59-1.31-.88l-.14.16Z" />
  <path
    d="M221.45,599.65c-.39-.04-.78-.08-1.16-.12,0-.15-.01-.3-.02-.45l1.27-.13c-.03.23-.05.46-.08.7Z" />
  <path d="M240.42,599.31c-.25.09-.5.18-.75.27.01-.18.02-.36.03-.53.24.09.48.18.71.27Z" />
  <path
    d="M226.32,600.47c-.32.04-.65.1-.97.11-.06,0-.13-.19-.2-.29.37-.06.75-.11,1.12-.17.02.12.03.23.05.35Z" />
  <path d="M251.4,601.24v1.1h-.31v-1.1c.1,0,.21,0,.31,0Z" />
  <path d="M306.63,601.57h-1.62v-.38h1.62v.38Z" />
  <path
    d="M223.39,579.05c.1.12.29.24.28.34,0,.11-.21.21-.32.31-.1-.12-.29-.23-.28-.35,0-.11.2-.2.32-.31Z" />
  <polygon points="211.19 599.35 211.49 599.27 211.45 599.52 211.19 599.35" />
  <path d="M305.36,607.7c-.1-.11-.21-.23-.31-.34.12-.1.24-.29.35-.28.11,0,.21.21.32.32l-.35.31Z" />
  <path d="M372.1,618.45c3.11-1.66,6.29-1.85,9.79-1.27-3.21,3.19-6.97,3.66-9.79,1.27Z" />
  <path d="M384.02,622.85c2.29-.84,4.59-1.39,7.01.48-2.66,2.3-4.82.41-7.01-.48Z" />
  <path d="M382.2,633.47c1.61-2.15,3.51-3,6.25-2.29-1.36,3.06-3.54,3.12-6.25,2.29Z" />
  <path d="M384.65,596.37c-2.32,1.41-4.31,3.19-7.23,2.2,1.39-1.68,5.25-2.93,7.23-2.2Z" />
  <path d="M382.73,607.94c-1.4,1.22-2.81,2.39-5.55.86,2.23-1.13,3.74-1.77,5.55-.86Z" />
  <path
    d="M370.97,625.98c1.57-.44,3.15-.89,5.09-1.43.21,1.39.32,2.17.47,3.15-2.18-.72-3.93-1.3-5.69-1.89l.14.16Z" />
  <path d="M386.44,592.02c2.2-1.99,4.03-.96,5.82-.68-1.69.66-3.23,2.22-5.82.68Z" />
  <path d="M382.88,624.53h-5.03c2.14-1.89,2.14-1.88,5.03,0Z" />
  <path d="M386.8,610.8c-1.29,1.3-2.21,3.21-4.81,2.89.87-2.74,2.87-2.81,4.93-2.75l-.12-.14Z" />
  <path d="M382.68,569.33c-1.85.93-3.26.58-4.67-1.08,1.88-.51,3.39-.63,4.67,1.08Z" />
  <path d="M397.28,633.72c-2.03.13-3.38.21-5.39.33,1.91-1.74,3.2-2.58,5.39-.33Z" />
  <path d="M382.06,588.32h3.16c-1.15,1.99-2.1,1.8-3.16,0Z" />
  <path d="M384.8,565.97c1.29.35,3.23-1.06,4.02,1.78-1.8-.12-2.85-.98-3.84-1.96l-.17.18Z" />
  <path
    d="M380.96,590.62c.28,1.54.42,2.26.68,3.71-1.32-.76-1.95-1.12-2.87-1.65.64-.6,1.05-.99,2.18-2.06Z" />
  <path
    d="M387.16,585.28c.76-.05,1.51-.1,2.26-.15.05.28.11.57.16.85-.75.17-1.51.34-2.26.5-.05-.4-.11-.8-.16-1.2Z" />
  <path
    d="M378.78,558.7c.93.37,1.86.73,2.79,1.1-.09.28-.19.56-.28.85-.99-.35-1.98-.71-2.98-1.06l.47-.88Z" />
  <path d="M388.46,560.58c1.69.8,2.45,1.16,3.62,1.72-1.71.81-2.72.99-3.62-1.72Z" />
  <path
    d="M381.66,584.59c-.47.39-.94.79-1.46,1.22-.45-.43-.79-.75-1.63-1.56,1.24-.26,2.03-.42,2.82-.58.09.31.18.61.27.92Z" />
  <path
    d="M373.42,558.06c.77.07,1.55.13,2.32.2-.04.29-.09.59-.13.88-.76-.16-1.52-.33-2.28-.49.03-.19.06-.39.09-.58Z" />
  <path
    d="M384.9,599.82c-.45.19-.9.38-1.34.57-.11-.37-.21-.74-.32-1.12.5-.04.99-.08,1.49-.12.06.22.11.44.17.67Z" />
  <path
    d="M376.7,582.58c-.19.43-.35.94-.42.92-.39-.07-.76-.26-1.13-.41.12-.27.23-.76.38-.77.37-.03.76.15,1.17.25Z" />
  <path
    d="M380.93,629.48h-1.88c-.03-.24-.06-.47-.08-.71.62-.12,1.25-.25,1.87-.37.03.36.06.72.1,1.08Z" />
  <path
    d="M392.12,598.19c.65-.08,1.3-.16,1.96-.23.03.19.05.38.08.56-.65.1-1.3.21-1.94.31-.03-.21-.06-.43-.09-.64Z" />
  <path
    d="M386.61,604.89c.66.04,1.31.08,1.97.12,0,.19,0,.37.01.56-.64.07-1.28.14-1.92.2-.02-.3-.04-.59-.06-.89Z" />
  <path
    d="M396.9,564.68c-.44.38-.88.77-1.31,1.15-.19-.18-.38-.36-.57-.54.39-.46.77-.92,1.16-1.38.24.26.48.51.72.77Z" />
  <path d="M408.66,633.69h-2.52c0-.18,0-.36,0-.53h2.52c0,.18,0,.36,0,.53Z" />
  <path d="M394.11,603.16h1.54c0,.13,0,.27,0,.4h-1.54c0-.13,0-.27,0-.4Z" />
  <path d="M386.92,610.94c.42-.36.83-.73,1.25-1.09l.35.65c-.57.1-1.15.21-1.72.31l.12.14Z" />
  <path d="M370.83,625.81c-.49.28-.97.55-1.46.83-.04-.22-.09-.44-.13-.66h1.73l-.14-.16Z" />
  <path
    d="M372.66,631.58c-.43.04-.85.08-1.28.12-.03-.16-.07-.32-.1-.48.4-.1.8-.19,1.2-.29.06.22.12.43.18.65Z" />
  <path d="M379.85,634.67c-.7-.07-1.07-.1-1.44-.14.22-.19.41-.44.66-.54.1-.04.33.28.78.67Z" />
  <path
    d="M388.23,554.23c.43-.06.86-.12,1.29-.19l.07.51c-.43.05-.86.1-1.29.16-.02-.16-.04-.32-.06-.48Z" />
  <path d="M385.56,577.6c-.4-.02-.79-.04-1.19-.05,0-.12,0-.25,0-.37h1.19v.43Z" />
  <path d="M379.3,579.93c-.37-.21-.75-.43-1.12-.64l1.2-.31c-.02.31-.05.63-.07.94Z" />
  <path
    d="M375.01,594.22c.51-.07,1.03-.15,1.54-.22l.08.56c-.51.08-1.02.15-1.53.23-.03-.19-.06-.38-.08-.57Z" />
  <path d="M384.97,565.8c-.27-.11-.55-.22-.3-.12-.1-.25,0,.02.12.3l.17-.18Z" />
  <polygon points="369.35 603.03 369.48 603.39 369.19 603.37 369.35 603.03" />
  <polygon points="369.35 612.56 369.26 612.29 369.51 612.33 369.35 612.56" />
  <path
    d="M69.32,576.92c-1.51-1.33-4.09-.24-5.33-3.11,3.35,1.42,6.47-.08,9.99.35-1.07,2.29-3.11,1.93-4.66,2.76Z" />
  <path d="M65.94,569.82c4-1.46,6.89-1.51,10.47.72-3.75.45-6.68,1.1-10.47-.72Z" />
  <path d="M70.23,558.48c-2.34.81-4.04,2.21-6.18-.28,2.05-.04,3.57-2.02,6.18.28Z" />
  <path d="M54.07,569.3c-.04-.73-.07-1.3-.11-2.07h4.06c-.75,2.4-2.05,2.61-3.95,2.07Z" />
  <path d="M63.92,582.67c1.76-1.32,3.01-2.37,5.01-1.17-1.16,1.93-2.43,2.78-5.01,1.17Z" />
  <path d="M70.38,597.67c1.31-.24,2.61-.48,4.51-.83-1.38,2.27-2.84,2.14-4.51.83Z" />
  <path d="M76.97,565.19h3.7q-1.85,1.83-3.7,0Z" />
  <path d="M64.42,567.94c-2.14-.15-3.28-.23-5.01-.35,1.72-2.02,2.88-2.1,5.01.35Z" />
  <path
    d="M88.71,564.21c-.78.18-1.55.35-2.33.53-.04-.14-.08-.29-.12-.43.74-.3,1.48-.6,2.22-.9.08.27.16.53.23.8Z" />
  <path
    d="M56.07,562.15c.67-.07,1.35-.15,2.02-.22.03.2.05.4.08.6-.67.11-1.35.22-2.02.33-.03-.24-.05-.47-.08-.71Z" />
  <path d="M73.6,588.76h-2.47c0-.2,0-.39,0-.59h2.47c0,.2,0,.39,0,.59Z" />
  <path d="M78.9,561.54c.43-.51.76-.92,1.14-1.37,1.36,1.8.54,1.83-1.14,1.37Z" />
  <path
    d="M80.51,619.4c-.35.32-.7.63-1.05.95-.12-.14-.24-.27-.36-.41.36-.31.71-.62,1.07-.93.11.13.23.26.34.39Z" />
  <path d="M72.38,627.42l-1.03-.84c.08-.11.15-.22.23-.33l1.1.76c-.1.14-.2.27-.31.41Z" />
  <path
    d="M72.42,607.28c.32-.04.64-.1.97-.12.06,0,.13.19.19.29-.37.06-.74.12-1.11.17-.02-.12-.03-.23-.05-.35Z" />
  <path d="M79.16,625.26h1.14c0,.11,0,.23,0,.34h-1.14c0-.11,0-.23,0-.34Z" />
  <path d="M67.53,565.4c-.02.38-.03.76-.05,1.14l-.28-.02c.03-.38.06-.76.09-1.14.08,0,.16.01.24.02Z" />
  <path d="M47.42,567.6l-1.23-.09.02-.3c.41.03.82.05,1.23.08,0,.1-.01.21-.02.31Z" />
  <path
    d="M61.47,572.58c-.11-.1-.22-.19-.33-.29.1-.1.21-.29.31-.28.11,0,.21.19.31.29-.11.1-.21.2-.29.28Z" />
  <path
    d="M79.7,599.4c-.12.1-.24.29-.34.28-.11,0-.21-.21-.31-.32.12-.1.24-.29.35-.28.11,0,.2.21.31.32Z" />
  <path d="M154.21,624.53h-4.21c.18-.51.19-.96.39-1.07,1.28-.71,2.53-1.05,3.82,1.07Z" />
  <path d="M150.03,568.59c1.33-1.83,2.58-1.98,4.49.24-2.01-.11-3.25-.18-4.49-.24Z" />
  <path d="M162.54,567.1c-.52.62-.82.98-1.21,1.45-.49-.46-.92-.86-1.97-1.85,1.51.19,2.23.28,3.18.4Z" />
  <path d="M163.05,624.32c-1.15.44-1.93.74-2.93,1.13q.68-1.61,2.93-1.13Z" />
  <path d="M157.09,605.18h1.66c0,.13,0,.25,0,.38h-1.66c0-.13,0-.25,0-.38Z" />
  <path d="M146.57,576.51h-1.25c0-.12,0-.23,0-.35h1.25c0,.12,0,.23,0,.35Z" />
  <path d="M158.45,586.64h-1.15c0-.12,0-.24,0-.35.38.02.77.04,1.15.06,0,.1,0,.2,0,.29Z" />
  <polygon points="145.48 591.19 145.62 591.49 145.27 591.43 145.48 591.19" />
  <polygon points="145.54 600.44 145.27 600.54 145.31 600.26 145.54 600.44" />
  <path
    d="M145.79,615.43c-.11.08-.24.26-.37.25-.13,0-.24-.21-.36-.32.13-.1.28-.28.4-.27.12.01.22.22.33.34Z" />
  <path
    d="M198.01,392.78c-.85,1.11-1.54,2.01-2.16,2.82-.53-.05-.91.03-1.13-.12-.95-.66-1.82-1.45-2.79-2.09-3.5-2.32-6.74-2.21-10.09.29-.27.2-.49.45-.75.65-7.29,5.7-13.06,5.31-19.87-1.65-.09-1.26-.2-2.86-.37-5.25,2.37,1.65,4.11,2.83,5.81,4.07,4.22,3.07,6.58,3.06,10.77-.07.13-.1.27-.2.39-.32,6.14-6.14,14.15-5.62,20.21,1.67Z" />
  <path
    d="M163.37,407.58c2.16,1.68,3.71,2.88,5.5,4.27h5.91c4.15-2.57,7.14-7.06,12.78-5.83-2.6,5.34-9.91,10.66-14.81,10.87-6.28.26-8.25-1.35-9.17-7.54-.04-.29-.07-.59-.21-1.77Z" />
  <path
    d="M378.83,477.94c-.34-.34-.67-.68-1.01-1.02-.42-.99-.84-1.98-1.59-3.77-2.03,4.27-3.78,7.81-5.4,11.41-.95,2.1-1.88,4.15-4.11,5.22l.2.14c-.17-.61-.61-1.3-.45-1.81,1.81-5.87,4.2-11.43,8.86-15.95-.56-.46-1.28-1.05-2.1-1.71,1.11-.76,2.23-1.54,3.8-2.62,1.33,1.54,2.67,3.08,4.1,4.73-.81,1.07-1.4,1.84-2,2.64-.1.9,1.59,2.01-.29,2.75Z" />
  <path
    d="M366.72,489.77c.68,1.3,1.35,2.6,2.05,3.93-.99,1.44-1.88,2.74-2.77,4.04-3.74-2.45-3.78-2.59-1.52-5.34-.36-.27-.72-.55-1.36-1.04,1.35-.52,2.57-.99,3.8-1.46l-.2-.14Z" />
  <path
    d="M390.93,478.92c.33-.97.66-1.94.99-2.91l.7.23c-.27.89-.54,1.78-.81,2.68l.15-.14c-.38.01-.77.02-1.15.03l.13.11Z" />
  <path
    d="M379.93,489.78c-.44.2-.89.39-1.62.72-.13-.6-.25-1.13-.37-1.66l-.14.14c.67.32,1.33.63,1.99.95,0,0,.14-.15.14-.15Z" />
  <path d="M389.95,480.9c.33-.66.66-1.31.98-1.97l-.13-.11c-.33.65-.65,1.31-.98,1.96l.12.12Z" />
  <path d="M379.79,489.93c.56.09,1.13.19,1.69.28-.09.17-.18.33-.27.5l-1.28-.93-.14.15Z" />
  <path d="M391.81,478.92c.26.14.52.28.26.14.09.21-.01-.03-.11-.27l-.15.14Z" />
  <path d="M389.82,480.77s.08.08.12.12l-.12-.12Z" />
  <path d="M376.77,487.94c.34.35.69.69,1.03,1.04l.14-.14c-.34-.35-.68-.7-1.02-1.05l-.15.15Z" />
  <path
    d="M364.35,489.7c-.1-.11-.2-.23-.31-.34.12-.1.24-.29.34-.28.11,0,.21.21.31.32-.12.1-.23.2-.35.3Z" />
  <path
    d="M342.9,470.89c.8-.95,1.6-1.89,2.41-2.84-.71,2.35,2.39,3.81,1.35,6.03-.88,1.88-1.93,3.69-3.02,5.72-1.71-.9-3.11-1.63-4.57-2.4.54-.44,1.03-.84,1.63-1.34-.2-.53-.42-1.1-.64-1.68.94-.85,1.89-1.69,2.83-2.54,0,0-.08.08-.08.08.22-.19.43-.38.65-.57-.22-.19-.44-.38-.66-.56l.09.09Z" />
  <path
    d="M306.94,514.89c.66-.66,1.31-1.32,1.97-1.98,0,0-.1-.1-.1-.1.16,1.29.32,2.57.47,3.86-.3.22-.61.45-.91.67-.52-.86-1.05-1.72-1.57-2.58,0,0,.14.13.14.13Z" />
  <polygon points="325.55 462.42 325.27 462.51 325.31 462.25 325.55 462.42" />
  <path d="M326.91,464.96c.14-.19.28-.38.33-.45-.08.05-.27.18-.47.31l.14.14Z" />
  <path d="M342.9,471.86l-.73-.3c.25-.22.49-.44.74-.66l-.09-.09c0,.38,0,.76.01,1.13l.08-.08Z" />
  <path d="M320.93,476.78c0,.39,0,.78,0,1.18-.37-.13-.74-.27-1.34-.48.59-.31.96-.5,1.33-.69Z" />
  <path d="M320.8,483.77c-.13.2-.25.41-.3.49.08-.06.27-.2.45-.35l-.15-.14Z" />
  <polygon points="318.22 485.35 318.5 485.28 318.46 485.51 318.22 485.35" />
  <path d="M329.77,487.94c.27.11.55.22.31.13.09.18-.03-.05-.15-.29l-.16.16Z" />
  <polygon points="332.3 488.49 332.24 488.2 332.47 488.25 332.3 488.49" />
  <path d="M310.91,509.79c-.26-.12-.52-.23-.24-.11-.12-.28,0-.02.1.25l.14-.14Z" />
  <path d="M310.77,509.93c.2.14.4.27.48.33-.06-.08-.2-.28-.34-.47l-.14.14Z" />
  <path d="M308.92,511.82c-.2-.14-.39-.28-.43-.3.03.04.16.24.29.44l.14-.14Z" />
  <path d="M308.78,511.96c.27.07.53.13.8.2-.26.22-.52.43-.78.65l.1.1.02-1.09-.14.14Z" />
  <path d="M306.79,514.76c-.1.18-.19.36-.27.5.12-.1.26-.24.41-.37l-.14-.13Z" />
  <polygon points="230.18 310.46 230.43 310.32 230.4 310.64 230.18 310.46" />
  <path d="M355.31,379.58h-3.98c0-.14,0-.27,0-.41h3.98c0,.14,0,.27,0,.41Z" />
  <path d="M364.45,377.09h1.7c.01.14.03.28.04.42-.56.09-1.13.17-1.69.26-.02-.22-.04-.45-.05-.67Z" />
  <path d="M361.34,378.57h-2.15c0-.12,0-.24,0-.36h2.15c0,.12,0,.24,0,.36Z" />
  <path
    d="M356.38,375.53c-.64.05-1.28.1-1.92.15-.01-.14-.03-.27-.04-.41.64-.08,1.27-.17,1.91-.25l.06.51Z" />
  <path
    d="M374.84,374.83c-.31.29-.58.64-.94.83-.17.09-.51-.13-1.39-.39,1.19-.16,1.81-.25,2.43-.33l-.1-.12Z" />
  <polygon points="99.6 475.4 99.27 475.52 99.31 475.21 99.6 475.4" />
  <polygon points="113.17 475.35 113.44 475.26 113.41 475.51 113.17 475.35" />
  <path
    d="M240.84,455.85c-.12.25-.23.51-.35.76-.11-.17-.23-.35-.34-.52.25-.06.5-.12.75-.18l-.06-.07Z" />
  <path
    d="M51.81,465.96c5.07-3.5,7.36-2.65,9.69,3.62-1.37,5.52-2.19,6.22-7.11,6.06-4.08-3.41-4.37-4.57-2.45-9.81l-.13.13Z" />
  <path d="M53.08,462.24c.37-.03.75-.07,1.12-.1,0,.11.01.23.02.34h-1.13c0-.08,0-.16-.01-.24Z" />
  <path d="M59.61,462.81c-1.55-.31-1.97-.39-2.38-.47.14-.08.29-.24.41-.22.29.05.57.19,1.97.69Z" />
  <path d="M51.94,465.83c-.24-.12-.49-.23-.26-.12-.09-.19.02.03.12.25l.13-.13Z" />
  <path
    d="M85.82,470.91c1.23,1.11,2.46,2.21,3.63,3.27-1.08.85-2.08,1.64-2.39,1.89-.7-1.12-1.35-2.16-2-3.21-.39.35-.77.71-1.16,1.06.69-1.04,1.38-2.09,2.07-3.13,0,0-.15.12-.15.12Z" />
  <path d="M77.89,465.91c.12-.26.24-.51.12-.26.21-.14,0,0-.23.15,0,0,.11.11.11.11Z" />
  <path d="M73.94,467.79c-.2-.13-.4-.27-.42-.29.02.03.16.23.29.44,0,0,.13-.15.13-.15Z" />
  <path
    d="M74.95,467.8c0,.38-.01.77-.02,1.15-.33-.39-.66-.77-.99-1.16,0,0-.13.15-.13.15.38-.05.76-.1,1.14-.15Z" />
  <polygon points="73.15 475.36 73.46 475.24 73.43 475.54 73.15 475.36" />
  <path d="M127.78,504.81v2.61c-1.01-.38-1.79-.66-3.29-1.22,1.56-.56,2.51-.89,3.45-1.23l-.16-.16Z" />
  <path
    d="M115.2,504.04c.76-.04,1.35-.07,2.26-.12-.4.96-.67,1.62-1.05,2.54-.42-.83-.75-1.5-1.22-2.41Z" />
  <path d="M114.42,506.14c.04.47.06.77,0,0-.1.76-.06.46,0,0Z" />
  <path d="M115.51,510.22c.05.42.1.84.14,1.25-.13,0-.27.02-.4.03v-1.27c.09,0,.17,0,.26-.01Z" />
  <path
    d="M126.43,503.7c-.12-.11-.25-.22-.37-.33.13-.1.26-.29.38-.29.13,0,.25.2.37.31-.13.1-.26.21-.39.31Z" />
  <path d="M127.94,504.97c.11-.27.23-.55.12-.28.27-.12,0,0-.28.12l.16.16Z" />
  <path
    d="M33.84,509.95c.49-.07.97-.14,1.48-.21.31-.77.61-1.51.89-2.22.97-.75,3.15.29,4.66,2.17-2.63,3.02-2.97,3.02-6.89.09l-.14.16Z" />
  <path
    d="M35.85,498.94c1.55.46,3.09.92,4.78,1.41-.33.9-.71,1.9-1.17,3.16-1,.1-2.06.2-3.47.33v-5.06l-.13.15Z" />
  <path
    d="M33.31,513.18c.34-.32.68-.63,1.02-.95.13.1.25.2.38.29-.31.43-.63.85-.94,1.28-.15-.21-.31-.42-.46-.62Z" />
  <path d="M35.99,498.79c-.52-.1-1.04-.2-.48-.09-.46-.32-.05-.04.35.24,0,0,.13-.15.13-.15Z" />
  <path d="M33.98,509.8c-.52-.11-1.04-.21-.47-.1-.44-.34-.06-.04.33.25,0,0,.14-.16.14-.16Z" />
  <polygon points="41.11 502.35 41.43 502.24 41.4 502.52 41.11 502.35" />
  <polygon points="32.35 511.61 32.23 511.27 32.54 511.3 32.35 511.61" />
  <path
    d="M79.81,499.86c.47,3.23.94,6.46,1.48,10.12-.69-.63-1.25-1.14-1.89-1.73-.77.16-1.68.34-2.59.53l.16.16c-.07-1.04-.34-2.11-.17-3.1.33-1.86.92-3.68,1.48-5.83h1.7l-.16-.14Z" />
  <path d="M79.97,500c.03-.61.06-1.23.08-1.84l.59.2c-.28.5-.56,1-.83,1.51l.16.14Z" />
  <path d="M83.5,505.44v1.19c-.1,0-.2,0-.3,0v-1.19c.1,0,.2,0,.3,0Z" />
  <path
    d="M83.19,509.47c-.07-.36-.14-.72-.21-1.08.15-.02.31-.04.46-.06.03.37.06.73.1,1.1-.12.01-.23.03-.35.04Z" />
  <path d="M73.79,509.84c-.29.32-.58.64-.18.19-.61.11-.14.03.32-.06,0,0-.14-.14-.14-.14Z" />
  <polygon points="76.2 501.43 76.44 501.31 76.4 501.61 76.2 501.43" />
  <path d="M73.93,509.98c.13-.2.26-.4.31-.48-.07.05-.26.2-.45.34,0,0,.14.14.14.14Z" />
  <path d="M76.8,508.78l-.33.79c.16-.21.33-.42.49-.63l-.16-.16Z" />
  <polygon points="96.35 501.58 96.24 501.28 96.52 501.32 96.35 501.58" />
  <polygon points="95.39 506.18 95.49 506.47 95.22 506.43 95.39 506.18" />
  <path d="M94.94,508.91c.11-.27.22-.53.09-.21.31-.12.05-.02-.21.08,0,0,.13.13.13.13Z" />
  <path d="M94.82,508.79c-.12.17-.24.35-.3.43.08-.06.25-.18.42-.31l-.13-.13Z" />
  <path
    d="M97.35,511.7c-.1-.11-.2-.23-.31-.34.12-.1.24-.29.34-.28.11,0,.21.21.31.32-.12.1-.23.2-.35.3Z" />
  <path
    d="M96.82,513.4c-.16.12-.3.3-.42.29-.12-.01-.23-.21-.34-.33.13-.1.27-.27.39-.27.13,0,.25.2.37.31Z" />
  <polygon points="99.62 513.41 99.32 513.5 99.35 513.25 99.62 513.41" />
  <polygon points="100.37 515.22 100.46 515.49 100.22 515.45 100.37 515.22" />
  <path
    d="M55.84,503.84c-.11.92-.23,1.83-.34,2.73-.42-.04-.69-.07-1.31-.14-.05-1.29.35-2.17,1.77-2.46l-.13-.13Z" />
  <path
    d="M56.98,499.75c-.53.2-1.07.4-2.15.8.54-.86.81-1.29,1.22-1.96.37.63.58.99.79,1.34,0,0,.15-.18.15-.18Z" />
  <path
    d="M55.6,513.37c-.31.07-.61.16-.92.2-.07,0-.16-.21-.24-.32.35-.11.7-.21,1.05-.32.04.15.08.3.12.44Z" />
  <path d="M54.92,509.79c0,.39.01.78.02,1.17-.26-.11-.51-.22-.77-.33.25-.28.5-.56.75-.84Z" />
  <path d="M57.35,513.7l-.31-.34c.12-.1.23-.29.34-.28.11,0,.21.21.31.32-.12.1-.23.2-.35.3Z" />
  <path d="M32.41,474.31c.65.27.32.14,0,0,.36-.07.72-.14,0,0Z" />
  <path
    d="M33.39,476.05c.1.12.29.24.28.34,0,.11-.21.21-.32.31-.1-.12-.29-.23-.28-.35,0-.11.2-.2.32-.31Z" />
  <path
    d="M35.39,477.05c.1.12.29.24.28.34,0,.11-.21.21-.32.31-.1-.12-.29-.23-.28-.35,0-.11.2-.2.32-.31Z" />
  <path d="M98.92,328.84l-.95-1.2c.2-.09.39-.19.59-.28.08.53.16,1.06.24,1.58l.11-.1Z" />
</svg>