<svg xmlns="http://www.w3.org/2000/svg" viewBox="0 0 840 1680" width="840px" height="1680px">
  <defs></defs>
  <g id="Calque_2" transform="matrix(0.928692, 0, 0, 0.90832, 126.117531, 337.897003)" style="">
    <g id="Calque_1-2" data-name="Calque 1" transform="matrix(1, 0, 0, 1, -130.800949, 321.101746)">
      <g>
        <path class="cls-1"
          d="M253.62,62.21h.04l.04-.04c2.11-2.76,4.34-5.62,6.42-8.53,4.68-6.49,8.72-12.38,12.38-18.04,2.98-4.57,5.28-9.74,6.87-15.33,1.06-3.66,1.36-6.72.98-9.74-.6-4.91-3.66-8.49-8.46-9.81-1.66-.49-3.4-.72-5.28-.72-1.4,0-2.87.15-4.53.42-5.28.79-10.61,2.42-17.33,5.25-22.87,9.63-43.94,22.99-62.58,39.71-10.98,9.81-19.52,19.59-26.05,29.86-2.49,3.93-5.25,8.68-6.68,14.19-.64,2.42-1.02,4.87-1.13,7.32-.38,6.72,2.53,12.12,8.53,16.04,3.89,2.49,8.49,4.38,14.12,5.74,6.27,1.51,12.68,2.91,18.87,4.3l.19.04c2.83.6,5.62,1.25,8.46,1.89,8.23,1.85,16.91,4.15,24.95,8.42-15.55,6.04-28.27,13.29-38.88,22.12-6,5.06-10.38,9.74-13.74,14.72-2.42,3.62-3.89,6.87-4.57,10.15-1.62,7.93,1.93,14.34,9.51,17.14,3.13,1.17,6.57,1.74,10.12,1.74.79,0,1.59,0,2.38-.08,14.8-.98,27.9-6.27,38.99-15.63,8.42-7.1,13.59-14.91,15.78-23.86,1.96-8.08.34-15.4-4.87-21.78.34-.11,1.25-.3,1.25-.3,3.25-.83,6.34-1.59,9.44-2.23,5.36-1.13,10.8-2.23,16.16-3.28,1.74-.34,3.51-.68,5.25-1.02l5.4-1.06c2.08-.42,2.87-1.62,3.13-2.3.26-.68.57-2.08-.53-3.74-1.13-1.66-2.87-2.57-4.87-2.57h-.15c-1.09,0-2.19.15-3.44.38l-.6.11-2.53.53c-11.85,2.34-24.16,4.76-35.97,8.38-.3.08-.42.08-.45.08s-.11,0-.3-.11c-6.91-4.45-15.1-7.66-25.74-10.19-4.49-1.06-9.1-2.08-13.59-3.06-4.57-1.02-9.29-2.08-13.89-3.17-4.98-1.17-10.72-2.79-15.78-5.85-6.15-3.74-8.19-8.57-6.53-15.63.83-3.62,2.38-7.21,4.98-11.66,3.85-6.57,8.87-13.21,15.4-20.23,14.91-16.12,33.14-29.9,54.17-40.96,11.17-5.85,20.04-9.44,28.69-11.59,2.38-.57,5.21-1.17,7.96-1.17,1.06,0,2.04.08,2.98.23,2.98.53,3.93,1.7,3.66,4.57-.19,1.62-.57,3.43-1.25,5.55-1.32,4.34-3.4,8.61-6.15,12.68-4.61,6.87-8.83,12.91-12.91,18.46-2.6,3.47-5.36,6.98-8,10.38l-.08.04c-1.77,2.3-3.62,4.64-5.4,6.98-1.43,1.85-2.6,3.7-3.55,5.51-1.21,2.42-1.25,4.76-.11,6.64,1.13,1.85,3.25,2.91,5.93,2.91,2.23,0,4.38-.68,6.42-1.4,1.66-.64,2.72-1.85,2.91-3.36.15-1.51-.64-2.98-2.19-4-.42-.26-.79-.45-1.21-.6,1.02-1.47,1.96-2.83,2.94-4.15,1.32-1.77,2.72-3.55,4.04-5.28ZM231.16,139.44c.19-.04.3-.08.38-.08.11,0,.3.15.6.45,5.93,5.81,7.7,14.83,4.38,22.46-2,4.64-5.02,8.91-8.91,12.72-9.93,9.78-26.31,16.72-40.73,17.33-.91-.15-1.77-.26-2.64-.42-2.04-.3-4-.6-5.78-1.17-4.61-1.55-6.38-4.94-5.02-9.59.6-2.15,1.7-4.42,3.28-6.95,3.06-4.83,7.29-8.76,10.64-11.63,11.89-10.23,26.2-17.78,43.79-23.14Z"
          style="fill: rgb(29, 29, 27);"></path>
        <path class="cls-1"
          d="M392.42,109.77l-.79-.72c-.34-.26-.75-.45-1.21-.45-.04,0-.08.04-.15.04-.49.04-.94.26-1.25.64-.15.19-.34.34-.49.53-.19.23-.38.42-.57.64-.23.26-.45.53-.64.79-12.87,17.74-22.27,26.65-36.35,36.12-3.13,2.08-6.53,3.81-9.81,4.98-2.23.79-4.27,1.17-6.08,1.17-2.38,0-4.3-.72-5.66-2.11-1.92-1.93-2.91-5.25-2.83-9.63.04-2.23.38-4.57.98-6.76.94-3.25,2.04-6.19,3.25-8.76,1.43-2.94,3.02-5.89,4.57-8.76.91-1.66,1.81-3.36,2.68-5.06.11-.19.23-.38.34-.57.72-1.17,2.08-3.4.15-6.3-.3-.45-.75-.75-1.28-.83h-.26c-.45,0-.87.15-1.21.45-.98.83-1.92,1.66-2.87,2.45-2.04,1.77-4,3.44-5.93,5.25-2.6,2.49-5.25,5.06-7.81,7.51-4.49,4.34-9.14,8.87-13.89,13.06-4.11,3.7-8.87,7.25-14.5,10.87-2.34,1.51-5.44,2.72-9.17,3.59-.6.15-1.21.23-1.74.23-3.21,0-4.19-2.57-4.49-4.72-.19-1.62-.11-3.51.26-5.32,2.11-9.78,7.59-17.63,16.65-23.97l.42-.26c1.21-.83,3.74-2.53,2.49-5.44-.79-1.89-2.79-3.32-4.34-3.85-1.09-.34-2.15-.53-3.21-.53-2.68,0-5.17,1.13-7.51,3.36-4.45,4.34-8.15,9.1-10.98,14.27-.98,1.81-1.85,3.7-2.64,5.62-.64,1.55-1.13,3.06-1.55,4.57-.87,3.13-1.25,6.19-1.13,9.21.38,9.17,6.45,15.29,15.21,15.29,1.09,0,2.26-.08,3.43-.3,6.68-1.13,12.23-4.64,17.21-8.23,9.1-6.53,17.25-14.38,24.84-22.04-1.21,2.91-2.45,5.89-3.47,8.91-1.43,4.08-1.66,8.38-.75,12.83,1.62,7.66,7.13,12.46,14.46,12.46,1.32,0,2.76-.15,4.19-.49,6.42-1.47,11.78-5.06,15.74-8.04,12.57-9.4,21.55-17.55,30.05-28.16,2.15-2.64,4.27-5.44,6.38-8.46.45-.64.83-1.32,1.21-1.96.15-.26.3-.53.45-.79.45-.79.3-1.77-.38-2.34Z"
          style="fill: rgb(29, 29, 27);"></path>
        <path class="cls-1"
          d="M463.2,117.58c-2.57,1.47-23.89,9.13-26.23,7.25-1.93-1.62-2.04-4-1.81-5.78l.15-.04c.15-.75.3-1.51.42-2.26h.04c.34-1.81.6-3.7.68-5.62.08-2.72-.83-5.21-2.57-7.02-1.7-1.74-4.08-2.68-6.64-2.68-.53,0-1.06.04-1.59.11-2.68.38-5.1,1.17-7.02,2.26-4.57,2.57-9.02,5.4-13.29,8.38-1.47,1.02-2.83,2.11-4.19,3.21.11-.26.23-.53.38-.79,1.4-3.02,2.08-8.76-1.36-10.95-1.74-1.06-3.66-1.66-5.44-1.66-1.89,0-3.96-.11-6.04,2.53-1.32,1.7-1.13,3.85-.83,5.25.04.23.11.45.11.68.75,4-.79,7.51-2.49,11.25l-.34.83c-.11.26-.23.53-.38.79-3.59,8.08-7.81,16.46-14.04,23.55-2.08,2.38-3.96,4.98-5.78,7.47-.53.72-1.06,1.43-1.59,2.15l-.11.19c-.83,1.09-1.74,2.3-2.11,3.81-.34,1.25-.34,3.7,1.06,5.1,1.06,1.06,2.76,1.51,4,1.51.49,0,.94-.08,1.32-.19,1.59-.57,3.1-1.74,4.23-3.25,4.87-6.49,9.51-13.02,13.02-17.97.68-.94,1.25-1.96,1.81-2.91.75-1.36,1.59-2.53,2.42-3.66,4.49-5.81,9.02-11.7,14.23-16.91,3.21-3.21,6.87-5.66,10.76-7.96,4-2.42,8.3-4.19,13.17-4.42.49,0,.79.15.87.64.15,1.96-.23,3.93-.6,5.81,0,.15-.04.34-.08.49-.19.49-5.7,16.87,8.23,14.08,14.16-2.91,28.54-12.49,28.54-12.49,0,0,1.66-2.26-.91-.79Z"
          style="fill: rgb(29, 29, 27);"></path>
      </g>
      <path class="cls-1"
        d="M505.51,227.5l-40.96,58.02-42.65-58.02h-67v58.02c3.62-9.81,2.87-17.33,20.12-29.37l3.28,15.93c2.45-5.47,5.28-14.23,10.04-15.7,10.8-3.28,23.37-6.91,38.28-10.34-24.08,28.54-47.98,56.55-71.72,85.57v72.55h59.68v-45.49l-1.89-49.26,47.37,61.83h5.89l46.92-61.57-1.89,49v45.49h59.64v-176.66h-65.11Z"
        style="fill: rgb(29, 29, 27);"></path>
      <g>
        <path class="cls-1"
          d="M136.46,225.65v7.51l20.04,49.07h4.61v11.29l12.42,30.42,8.8-23.86c.72-1.93,6-4.38,8-4.64,9.1-1.13-1.59,35.37,2.49,44.24l13.55-39.41c11.89,14.16,6.79,26.5,1.74,44.01l13.85-1.74-7.29-7.06,9.93-4.91v-48.35h24.65v-56.58h-112.79ZM222.67,402.09c.42.6,1.13,1.43,1.93,2.3v-3.96c-.98,1.4-1.66,2.04-1.93,1.66Z"
          style="fill: rgb(29, 29, 27);"></path>
        <path class="cls-1"
          d="M261.97,225.65v179.64h9.66c-.45-18.8-7.59-49.15.83-63.3l3.74,39.79c15.85-16.31,2.57-28.42,7.7-47.18l3.51,15.59,1.96-32.46,2.08,25.33,7.17,13.78c6.42-20.38,0-33.93,7.93-49.03l3.4,24.54,4.27-14.72,3.1,12.23,4.34-29.25,2.11,18.12c.57-.38,1.13-.79,1.66-1.17v-91.88h-63.45ZM297.41,405.29h28.01v-36.84c-9.36,12-18.72,24.23-28.01,36.84Z"
          style="fill: rgb(29, 29, 27);"></path>
      </g>
      <path class="cls-1"
        d="M325.42,317.53v50.92c9.78-12.53,19.63-24.76,29.48-36.84v-46.09c-2.91,7.93-8.72,17.4-29.48,32.01ZM52.73,513.29l-52.73-.04v35.37c2.34-.94,4.68-1.81,7.06-2.68l44.92-16.31c.26-.08.49-.19.75-.38,4-2.19,8.23-10.57,11.02-15.97h-11.02ZM429.6,605.88c40.01,40.5,60.28,77.8,95.2,119.13.23-7.74-.38-19.02-3.66-23.06l-20.46-19.44,22.12,1.02c2-19.67-17.21-66.25-34.09-75.08.68-1.06,5.44-5.25,4-6.04l-7.44-4.23-5.85-3.32c-1.17-.68,4.3-3.77,6.19-5.21-11.17-2.19-20.5-3.06-33.56-8.08l23.55-.79c-10.19-19.06-31.67-23.52-45.98-34.5-7.4-5.7-6.12-21.86-23.55-20.84l-19.82,1.17,1.85-11.44-15.89,5.06-3.02-13.4c49.11-4.04,95.27,5.7,137.82,29.44,2.23-2.57,5.02-9.7,3.25-11.4l-5.89-5.66c-.57-9.66-4.19-14.53-11.63-21.14-4.68-4.15-8.61-17.97-17.44-18.08l-63.11-.94-6.79-10.98-18.91,11.06.15-8.53-27.03,2.94c-9.21,3.36-19.82,12.31-28.31,17.7-15.17-17.14-21.4,2.34-55.9,18.08-17.06,7.78-31.41,16.42-48.43,26.16,54.39-73.57,120.11-108.3,210.37-122.38-6.12-6.61-14.12-9.32-22.76-9.85-4.68-.26-9.59.11-14.46.91-10.53,1.66-20.95,5.21-29.22,7.89l-8.3-7.44c-22.5,2.87-46.39,9.85-72.02,10,2.26-3.13,4.53-6.23,6.83-9.32h-25.78c.19,7.63-.75,13.36-4.23,15.4-1.09.6-2.94-3.85-2.98-5.13l-.23-10.27-.91-43.71c-.53,2.23-.98,4.38-1.32,6.46-1.28,7.4-1.62,14.12-1.77,20.65l-7.32-11.81-24.5,30.5c-.6.08-2.34-1.43-3.77-2.98v.91h-63.49v-111.77l-4.61-11.29h-20.04v-49.07l-3.1-7.59-.94-2.3c-17.1,21.55-11.93,49.52.94,69.42.08.19.19.34.3.49-.11.23-.23.49-.3.72-3.59,8.46-4.42,18.16-2.15,26.99l2.15,8.38,6.45,25.14,14.57,11.59-8.61-.83,14.8,23.63-8.72.68,22.57,55.64c-9.59-9.7-14.8-19.89-24.38-28.01-5.44-4.61-11.02-8.98-16.68-13.14-12.57-9.29-25.59-17.67-38.73-25.97-3.62-2.27-6.27-14.23-12.65-11.17h-.04c-3.32,1.59-5.93,3.74-7.55,2.98l-7.13-3.32,1.28,14.27-15.82-14.57-15.74-14.53-5.89,7.21c-.94,1.17-4.11-4.08-5.51-5.17l-16.68-13.29,5.28,22.2-14.19-10.61v10.49c18.01,6.64,35.37,14.76,52.73,23.67,8.8,4.49,17.63,9.21,26.5,14.04l-12.15,20.27c-4.53-2.87-9.4-6.53-14.34-10.57-9.36-7.59-18.99-16.5-26.8-24.12-1.51-1.47-5.36,2.04-6.87,4.3-5.66-3.17-12.23-5.81-19.06-6.79v34.73c17.93,2.04,35.56,5.78,52.73,11.36,9.93,3.25,19.7,7.1,29.25,11.59,10.46,4.87,20.65,10.49,30.54,16.91,7.78,5.06,14.72,10.91,20.84,17.44,14.19,15.06,24.12,33.71,30.54,53.94-10.87-4.91-18.38-12.12-26.8-18.8-1.21-.98-2.49-1.89-3.74-2.72-15.29-10.31-33.41-12.46-51.37-14.95-6.76-.94-13.48-1.93-20.01-3.4-3.06-.68-6.12-1.7-9.25-2.79-7.06-2.45-14.42-5.28-22.31-5.66-10.49-.53-20.65-.3-30.42.91v26.27c17.93-1.43,40.73-.91,52.73-4.08,5.51-1.43,8.72-3.62,8.15-7.17,7.32,7.17,14.49,10.46,21.1,12.31,13.17,3.66,24.16,1.59,30.12,13.1,2.38,4.61,1.59,12.19-2.11,17.67-14.83-4.38-6.76-26.01-25.67-19.63l-2.34.79-22.54,7.59,4.04,4.38c-2.76,2.11-6.95,4.72-10.76,7.44-3.55,2.49-6.76,5.1-8.34,7.55l-12.42,19.21c6.34,2.57,13.55,4.38,20.76,4.95,10.38.79,20.84-.87,29.25-6.27,4.15-2.64,7.81-6.27,10.68-10.91l-10.68.26-29.25.75-1.77.04c.49-1.02,1.09-1.85,1.77-2.57,5.25-5.06,16.53-1.25,29.25-.87,8.3.26,17.18-.91,25.48-6.91-.45,5.17-1.89,11.29.34,12.61l9.21,5.44c-10.76,5.28-22.84,11.59-35.03,14.68-4.61,1.21-9.25,1.93-13.85,2-4.61-4.61-9.02-6.61-15.4-5.06-.26.04-.57.11-.87.19-24.08,6.79-38.05,8.57-51.86,13.17v30.61c15.51-12.19,31.9-23.48,48.85-34.12,1.25-.79,2.53-1.55,3.89-2.3,3.93-2.11,8.27-3.89,12.49-3.93,2.79,8.57,3.32,16.42,2.38,24.05l-14.87-1.7-4.42-.53c-14.57,10.57-28.42,17.21-45.41,24.65l4.68,16.76c-2.04,3.55-4.61,6.61-7.59,9.13v122.83c9.89-6.91,22.46-21.18,18.95-36.24,19.89-11.32,9.85-17.25,25.71-22.42l8.08-11.59,29.25-41.98,10.15-14.57c15.78,12.46,12.72,41.9,25.29,43.15,5.81.57,11.32-.94,15.93-3.81,7.06-4.3,12.08-11.74,12.91-19.52.26-2.34-1.96-7.59-.19-7.47,13.63,1.02,8.95-13.66,18.99-38.62,3.89-9.59,13.25-17.7,12.19-28.42-.3-3.02-3.17-8.76-.94-9.59l10.87-4.08-22.31-10.57c10.76-1.59,17.78-1.55,26.95-.87l-.75,33.29c-.6,26.57,22.57,16.19,6.19,103.2-12.46,65.91-13.14,129.4-10.57,195,1.47,37.52,1.25,80.1-.57,123.24,9.1,1.36,18.27,2.87,27.44,4.53l-.57-11.89-1.36-128.49c-.38-38.09-2.19-74.51,1.7-112.49,4.23-41.07,9.25-80.85,8.57-122.11-.49-27.97-4.68-53.87,5.21-81.87,8.64,3.93,21.93,9.17,26.65,16,12.34,17.78,25.86,28.39,42.58,41.26,9.97,7.7,14.8,22.8,25.86,30.31l5.78-11.55,20.42,45.15,2-7.85,5.4,9.36c11.97-12.23,31.29-24.5,29.03-43.22l12.8,28.58,4.68-4.27,13.93,39.18,3.32-10.53c1.59,20.91,13.25,34.84,24.27,51.22,8.23,12.27,12.12,30.27,33.44,27.29l.42-41.45c.08-9.47-23.82-13.4-25.74-21.03l23.48,3.74-7.81-32.95c-2.04-8.46-11.32-15.02-18.31-16.53l8.27-4.45c-8.83-15.89-22.61-17.89-39.14-20.99l19.48-.83-25.1-12.53,11.48-6.83-53.11-23.74,10.57-5.66-21.67-6.76,2.11-5.59-39.48-17.78c-1.47-.64-3.21-5.74-1.96-6.12,26.05-8.38,86.52,21.82,108.86,44.39ZM471.77,624.76l-32.31-14.12c6.15-4.04,13.1-5.02,20.31-2.49,4.98,1.77,9.97,8.8,12,16.61ZM445.49,585.54c4.3.42,8.38,11.21,7.55,15.06-12.49,6.95-27.48.45-36.28-12.65,8.98-1.77,20.69-3.17,28.73-2.42ZM252.38,448.74l-19.48,40.35c-3.36-18.35-.64-40.13,19.48-40.35ZM245.36,480c7.74-14.83,12.15-30.54,24.38-43.07-11.06,27.1-23.48,50.81-38.35,76.59-1.74-13.55,8.42-22.84,13.97-33.52ZM119.13,576.25c-5.21,12.46-19.21,14.46-28.05,5.36,9.36-2.49,17.55-4.11,28.05-5.36ZM100.11,636.04c-4.45.15-13.93-2.42-18.12-6.08-.19-.11-.34-.26-.49-.42.04-1.43.23-2.94.49-4.49,3.06-17.78,19.48-40.39,41.14-31.14-17.18,8.91-28.35,20.31-23.03,42.13ZM133.36,536.92c-9.93-3.4-17.51-9.02-11.25-14.95l11.25,5.74,23.29,11.85c-4.72,1.51-14.87.26-23.29-2.64ZM133.36,447.95c-5.47-4.91-12.19-9.21-20.5-12.72l-18.91-26.84c15.59,6.61,28.46,15.51,39.41,26.16,29.41,28.5,44.88,69.42,61.79,110.6-39.67-15.48-28.16-67.15-61.79-97.2ZM187.76,478.9l23.44,66.1c-16.01-.87-35.6-54.21-23.44-66.1ZM210.4,513.1l-5.51-65.76c21.86-1.28,8.27,54.13,5.51,65.76ZM315.08,541.3l-23.93,12.42c-3.96-6.49-9.93-6.19-17.4-6.49l-47-1.74c35.94-39.48,118.87-31.78,160.54-3.44l-29.29,19.25-42.92-20.01ZM238.26,359.54l-9.81,12-.6-42.58-3.25,1.62v69.83c4.76-6.76,15.93-31.1,13.66-40.88Z"
        style="fill: rgb(29, 29, 27);"></path>
      <path class="cls-1"
        d="M898.8,1112.04v42.62H0v-142.8c17.33-.45,34.92-.57,52.73-.19,14.04.26,28.2.83,42.47,1.66,9.17.53,18.42,1.21,27.67,2,1.55.08,3.1.23,4.64.38l1.36.11,7.44.72,23.71,2.34,2.6.26.38.04c7.7.98,15.4,2.04,23.14,3.21-.57,13.97-1.32,28.05-2.26,42.01-.26,4.45-.57,8.87-.91,13.29,7.17.64,14.34,1.36,21.55,2.19,3.89.45,7.78.91,11.66,1.4l-.08-1.4-.6-12.49-1.93-40.47c24.88,4.42,49.94,9.89,75.19,16.5,0,0,46.5,10.95,124.72,24.08,23.78,4.04,50.51,8.23,79.72,12.38,84.48,12.04,189.91,23.74,306.24,29.18,32.35,1.51,65.53,2.57,99.35,2.98Z"
        style="fill: rgb(29, 29, 27);"></path>
      <path class="cls-1" d="M879.15,482.15l-2.6-.26v-.08c.87.11,1.74.23,2.6.34Z"
        style="fill: rgb(29, 29, 27);"></path>
      <path class="cls-1" d="M844.04,478.72c-1.55-.15-3.1-.3-4.64-.38l.04-.08,4.61.45Z"
        style="fill: rgb(29, 29, 27);"></path>
      <path class="cls-1"
        d="M642.76,284.5v10.76h46.54v-10.76h-46.54ZM642.76,339.46v10.98h46.54v-10.98h-46.54ZM828.18,477.2c-2.83-40.43-6.64-80.48-11.36-120.3v490.38c.87-4.11,1.62-8.27,2.38-12.46,25.52-144.5,19.14-213.2,8.98-357.62ZM858.68,626.42c-1.7-71.91-5.85-143.14-12.53-214.1-6.23-66.55-14.76-132.91-25.56-199.38-1.21-7.51-2.49-14.95-3.77-22.38-10.83-62.55-24.16-123.13-41.71-185.6l-9.66,3.96-53.34,21.82-63-25.67c-21.63,76.85-35.78,148.46-47.94,223.31h24.01c5.1-30.24,10.68-60.43,16.8-90.67,4.42-24.23,7.59-46.66,15.82-68.55-10.46,53.56-20.31,106.3-28.95,159.22h60.47V40.01h12.72l-.04,1000.42h-12.72l.04-633.85h-84.06c-8.12,82.82-16.08,214.29-13.44,281.52,1.93,50.02,8.12,97.92,16.95,147.06,11.44,64.02,34.65,122.15,68.78,177.64-29.78-25.18-52.13-88.06-62.25-125.02-20.87-76.17-28.91-153.37-28.54-232.49.19-42.01.94-80.67,3.59-122.41,2.64-42.35,6.15-84.4,10.57-126.3h-20.23v-19.4c-8.64,83.72-13.78,167.56-15.21,252.42-2.15,125.17,22.61,342.82,133.85,427.04,4.11,3.13,8.34,6.08,12.72,8.83,11.29-6.95,21.63-15.14,31.18-24.5.64-.57,1.32-1.17,1.93-1.77.38-.34.75-.72,1.09-1.09.57-.57,1.09-1.13,1.62-1.7t.08-.08c31.41-32.35,53.41-75.72,68.89-119.02,6.15-17.25,11.29-34.46,15.51-50.96,5.55-21.48,10.12-42.99,13.82-64.59,10.46-60.85,14-122.41,12.53-185.34ZM734.94,40.62v986.87c-3.1,5.77-7.32,10.3-12.53,12.98l-.04-992.19c3.06-4.61,7.63-8.3,12.57-7.66ZM816.82,871.85c-7.47,29.78-16.95,58.51-28.65,85.23-7.36,13.97-14.27,27.78-23.33,40.16-4.64,6.34-9.85,12.31-16,17.7,5.78-9.29,11.29-18.68,16.42-28.16v-.04c24.08-43.94,41.52-89.95,51.56-139.48.87-4.11,1.62-8.27,2.38-12.46,25.52-144.5,19.14-213.2,8.98-357.62-2.83-40.43-6.64-80.48-11.36-120.3-11.44-97.73-28.01-194.36-47.98-293.41,17.21,57.23,24.23,117.55,36.5,178.36,4.11,26.39,7.97,52.7,11.48,79.04,14.04,104.98,22.88,209.88,24.61,316.44,1.21,74.78-5.32,158.2-24.61,234.52ZM642.76,350.45h46.54v-10.98h-46.54v10.98ZM689.3,284.5h-46.54v10.76h46.54v-10.76ZM828.18,477.2c-2.83-40.43-6.64-80.48-11.36-120.3v490.38c.87-4.11,1.62-8.27,2.38-12.46,25.52-144.5,19.14-213.2,8.98-357.62ZM642.76,284.5v10.76h46.54v-10.76h-46.54ZM642.76,339.46v10.98h46.54v-10.98h-46.54Z"
        style="fill: rgb(29, 29, 27);"></path>
      <path class="cls-1"
        d="M689.3,350.45v56.13h11.29v-56.13h-11.29ZM689.3,228.37v56.13h9.36v-56.13h-9.36ZM689.3,295.26v44.2h2.94v-44.2h-2.94ZM580.67,228.37v158.8c5.02-49.07,11.25-98.07,18.65-147.21.6-3.89,1.25-7.74,1.85-11.59h-20.5Z"
        style="fill: rgb(29, 29, 27);"></path>
      <path class="cls-1"
        d="M620.87,84.14c-.72.19-1.44.4-2.16.6-1.61.46-3.27.93-4.98,1.29l-15.62,3.26c-30.1,6.27-61.23,12.77-91.88,18.98-3.52.71-5.57,1.99-7.32,4.55-3.14,4.61-6.38,9.01-9.8,13.67-.81,1.1-1.62,2.2-2.44,3.32l1.68,1.17c2.96,2.07,5.78,4.02,8.58,6,16.89,11.9,13.1,33.05,5.75,49.25-7.31,16.12-16.83,31.18-27.62,45.19-9.93,12.9-21.49,28.72-35.51,37.45-4.07,2.54-9.19,3.96-13.71,2.33-10.39-3.74-10.42-18.5-9.23-27.4,1.73-13.04,6.58-25.34,11.1-35.64,9.14-20.88,21.25-42.58,38.11-68.3,1.49-2.28,3-4.54,4.61-6.98l.82-1.24c-1.03-.69-2.03-1.38-3.02-2.06-5.7-3.93-6.78-8-6.69-10.73.09-2.67,1.41-6.57,7.16-9.97,8.64-5.11,19.09-4.86,26.37-11.99,7.79-7.62,13.29-17.38,20.07-25.85,7.52-9.41,14.77-19.04,22.33-28.43,5.43-6.75,11.96-13.51,19.42-20.08,3.16-2.78,6.95-4.25,10.98-4.25,6.24,0,12.03,3.63,15.12,9.48,1.01,1.91,2.43,6.98.09,9.65-1.76,1.99-5.07,3.38-8.05,3.38-.46,0-.89-.04-1.31-.1-2.58-.41-4.82-1.5-7.42-2.76-.6-.29-1.22-.59-1.87-.9-.67.53-1.36,1.07-2.07,1.61-2.77,2.14-5.64,4.36-7.94,6.98-11.69,13.33-23.31,27.15-34.54,40.5l-4.47,5.3c-1.39,1.66-2.7,3.39-4.1,5.3,14.14-2.6,28.16-5.44,41.77-8.19,21.64-4.38,44.01-8.91,66.1-12.3.16-.03.31-.04.47-.04,1.41,0,2.67.98,2.99,2.4l.43,1.92c.36,1.61-.61,3.21-2.2,3.63ZM493.45,145.33c-2.97-2.29-6.14-4.41-9.21-6.45-.83-.56-1.65-1.11-2.47-1.65-17.6,25.3-35.43,53.03-47.3,84.43-2.95,7.8-6.02,17.11-6.44,27.11-.07,1.71-.13,3.73.05,5.71.15,1.76.71,5.87,2.56,5.87.63,0,2.07-.26,4.68-2.01,5.32-3.58,10.42-7.9,15.17-12.83,14.81-15.39,29.58-33.01,40.28-51.84,1.18-2.07,2.31-4.16,3.38-6.26,6.67-13.05,13.1-31.42-.7-42.05h0ZM471.52,119.75l5,4.2,6.51-9.46c-4.5,1-8.23,2.44-11.51,5.26Z"
        style="fill: rgb(29, 29, 27);"></path>
    </g>
  </g>
</svg>