<?xml version="1.0" encoding="UTF-8"?>
<svg id="Calque_1" data-name="Calque 1" xmlns="http://www.w3.org/2000/svg" xmlns:xlink="http://www.w3.org/1999/xlink" viewBox="0 0 338.88 451.84">
  <defs>
    <clipPath id="clippath">
      <rect x="76.91" y="16.86" width="200.17" height="403.86" fill="none"/>
    </clipPath>
  </defs>
  <g clip-path="url(#clippath)">
    <g>
      <path d="M0,112.96c9.45,4.04,18.9,8.07,28.36,12.1.67.29,1.42.39,2.1.68,6.06,2.57,12.1,2.65,18.62,1.27,24.89-5.25,49.8-4.43,74.61.97,1.71.37,3.67.3,5.37-.11,16.21-3.91,31.21-10.91,46.2-18.01,27.43-12.99,56.35-19.39,86.74-18.23,26.37,1.01,51.46,7.23,74.86,19.7.64.34,1.34.6,2.01.89v2.95c-1.71-.96-3.39-2-5.15-2.87-42.95-21.19-87.42-24.08-132.79-9.73-15.01,4.75-29.15,12.21-43.79,18.18-8.09,3.3-16.38,6.08-24.88,9.21,5.76,1.97,11.25,3.96,16.83,5.67,1.48.45,3.43.5,4.83-.07,5.44-2.25,10.8-4.7,16.09-7.3,21.69-10.66,44.4-17.74,68.55-19.87,35.41-3.13,68.95,3.03,100.32,20.07v2.21c-1-.41-2.03-.75-2.98-1.25-23.22-12.27-48.04-18.51-74.22-19.42-28.24-.98-55.22,4.63-81.05,15.91-8.45,3.69-16.71,7.83-25.59,12.01,3.36,1.5,6.34,2.45,8.89,4.06,3.88,2.45,7.13,1.86,11.19-.02,46.12-21.29,93.32-24.78,141.51-7.6,7.59,2.71,14.84,6.37,22.25,9.59v3.69c-9.37,3.93-18.52,8.56-28.15,11.69-44.22,14.32-87.63,11.07-130.19-7.03-14.44-6.14-28.58-13.3-43.48-17.99-42.52-13.37-84.56-11.17-125.53,6.87C7.6,142.92,3.84,145,0,146.92c0-.98,0-1.97,0-2.95,4.19-1.94,8.39-3.88,13.01-6.02C8.23,135.55,4.12,133.48,0,131.42c0-.98,0-1.97,0-2.95,4.68,2.41,9.35,4.85,14.06,7.2.83.41,1.98.88,2.74.63,5.98-2,11.91-4.17,17.03-6C22.86,125.39,11.43,120.28,0,115.17c0-.74,0-1.48,0-2.21ZM172.17,145.6c1.13.74,1.51,1.05,1.95,1.25,3.24,1.47,6.54,2.83,9.72,4.41,2.38,1.18,4.51,1.06,6.99.12,19.34-7.3,39.37-11.26,60.04-11.79,23.73-.62,46.69,3.39,68.89,11.81,1.21.46,2.8,1.06,3.83.64,4.24-1.71,8.34-3.8,12.49-5.74-.1-.41-.19-.81-.29-1.22-54.29-26.54-108.58-24.85-163.62.52ZM190.91,154.22c6.31,1.91,11.88,3.83,17.58,5.22,2.62.64,5.6.74,8.24.19,24.5-5.11,49.13-6.01,73.53-.48,10.76,2.44,19.11-2.39,28.98-4.97-29.35-15.91-98.44-15.91-128.33.04ZM220.08,161.84c23.66,5.15,47.33,5.27,70.98.01-23.64-5.17-47.3-5.2-70.98-.01Z"/>
      <path d="M0,224.44c53.3-27.54,107.29-27.36,161.59-3.43,16.07,7.08,31.7,15.11,48.95,19.1,1.26.29,2.69.44,3.92.15,27.17-6.25,54.33-6.18,81.52-.16,1.47.33,3.17.29,4.63-.09,12.42-3.19,24.35-7.66,35.58-13.91.82-.46,1.79-.63,2.69-.94v2.21c-11.5,5.06-22.99,10.11-34.02,14.96,4.42,1.53,9.69,3.5,15.06,5.12,1.68.5,3.88.57,5.45-.1,4.61-1.98,9.02-4.43,13.51-6.69v2.95c-4.17,2.03-8.33,4.06-12.99,6.33,4.63,2.22,8.81,4.22,12.99,6.22v2.95c-21-11.8-43.63-18.39-67.52-20.5-32.01-2.83-62.7,2.75-91.93,15.96-15.11,6.83-29.91,14.29-46.02,18.66-45.28,12.27-89.01,8.77-131.04-12.6-.73-.37-1.57-.53-2.37-.78,0-1.23,0-2.46,0-3.69.78-.32,1.59-.59,2.34-.97,35.44-18.15,72.8-23.48,111.98-16.9,18.29,3.07,35.65,9.01,52.38,16.92,1.22.57,2.97,1.07,4.08.63,4.32-1.71,8.48-3.81,12.95-5.89-7.5-3.56-14.66-7.07-21.91-10.37-40.34-18.33-81.98-22.79-125.05-11.46C23.9,231.53,11.78,236.78,0,242.9,0,242.16,0,241.42,0,240.68c3.03-1.62,5.97-3.44,9.1-4.84,46.54-20.83,93.68-21.51,141.13-3.52,11.68,4.43,22.88,10.12,34.31,15.2.99.44,2.24,1.19,3.09.92,6.35-2.01,12.62-4.24,18.29-6.19-11.65-4.76-23.87-9-35.4-14.63-23.43-11.44-47.76-19.2-73.85-21.11-32.88-2.41-64.04,3.6-93.37,18.8-1.05.54-2.19.9-3.29,1.35,0-.74,0-1.48,0-2.21ZM2.06,257.98c3.96,1.92,7.12,3.26,10.09,4.94,2.71,1.54,5.1,1.37,8,.27,18.64-7.1,37.95-10.91,57.91-11.47,24.26-.68,47.7,3.37,70.43,11.8,1.32.49,3.04,1.01,4.22.57,4.55-1.71,8.96-3.8,14.19-6.09-27.15-13.26-54.92-20.17-84.26-20.06-28.07.1-54.73,6.37-80.59,20.03ZM147.35,266.51c-.07-.35-.14-.7-.21-1.05-42.25-15.2-84.48-15.65-126.77.6,6.34,2.47,12.74,4.49,19.19,6.3,1.22.34,2.7.04,3.99-.25,26.44-6.04,52.88-5.92,79.34-.19,1.65.36,3.51.74,5.06.33,6.51-1.75,12.94-3.8,19.4-5.74ZM118.81,273.92c-23.59-5.11-47.16-5.24-70.71.04,23.56,5.17,47.14,4.99,70.71-.04Z"/>
      <path d="M0,336.66c11.6,6.86,24.05,11.74,37.06,15.06,3,.77,6.51.29,9.64-.34,25.55-5.13,51-4.96,76.45.67,2.14.47,4.61.31,6.76-.24,15.29-3.91,29.61-10.3,43.8-17.13,30.03-14.47,61.75-21.01,95.07-18.54,24.77,1.84,48.33,8.22,70.1,20.52v2.21c-2.52-1.22-5.04-2.47-7.57-3.66-44.34-20.92-89.78-22.57-135.82-6.78-14,4.8-27.23,11.84-40.94,17.53-7.32,3.04-14.92,5.41-22.49,8.12,5.65,1.89,11.19,3.9,16.83,5.54,1.7.5,3.91.51,5.52-.15,5.78-2.39,11.43-5.09,17.08-7.79,46.53-22.26,94.3-26.78,143.45-9.77,8.19,2.83,15.98,6.81,23.95,10.26v2.95c-1.85-.96-3.67-1.96-5.54-2.88-36.71-18.16-75.14-22.3-115.13-14.27-22.26,4.47-42.52,13.98-62.94,24.14,3.78,1.74,7.4,3.19,10.81,5.03,2.43,1.32,4.35,1.13,6.83-.05,36.52-17.39,74.65-23.71,114.74-16.49,18.02,3.25,35.07,9.25,51.23,17.81v2.95c-31.47,17.18-65.16,23.27-100.69,20.07-24.53-2.21-47.55-9.5-69.49-20.5-28.51-14.3-58.65-21.81-90.61-20.82C50.43,350.96,24.18,357.47,0,371.36,0,370.38,0,369.39,0,368.41c4.14-2.06,8.28-4.11,13-6.46C8.33,359.76,4.17,357.81,0,355.86c0-.98,0-1.97,0-2.95,4.61,2.26,9.2,4.58,13.85,6.74,1.03.48,2.46.89,3.46.56,5.91-1.92,11.74-4.07,16.74-5.84C23.07,349.61,11.53,344.61,0,339.62c0-.98,0-1.97,0-2.95ZM172.5,370.28c3.61,1.63,6.91,2.97,10.08,4.59,3.17,1.62,6.07,1.5,9.42.24,16.54-6.21,33.69-9.93,51.32-11.02,26.49-1.64,52.22,2.04,77.02,11.71.98.38,2.31.85,3.14.5,4.23-1.79,8.34-3.83,12.75-5.91-32.95-26.23-124.67-26.25-163.73-.11ZM318.54,378.67c-.04-.39-.08-.78-.13-1.17-42.18-15.49-84.32-15.2-126.49.63,5.91,2.36,11.85,4.24,17.87,5.82,1.8.47,3.89.5,5.72.11,24.7-5.32,49.45-6.04,74.29-1.01,3.22.65,6.69,1.87,9.72,1.25,6.45-1.32,12.68-3.69,19.01-5.63ZM219.88,385.98c23.69,5.13,47.36,5.26,71.03.04-23.67-5.32-47.34-5.17-71.03-.04Z"/>
      <path d="M0,32.49c18.07-10.26,37.57-16.3,58.05-19.19,38.01-5.36,74.12,1.26,108.52,17.88,2.13,1.03,3.71,1.05,5.75-.03,3.46-1.83,7.09-3.34,10.64-4.99.09-.04.11-.2.24-.44-20.5-10.24-41.17-19.99-63.94-24.25C117.39,1.11,115.55.49,113.7,0c3.94,0,7.88,0,11.81,0,6.63,2.09,13.44,3.73,19.84,6.36,13.05,5.35,25.87,11.26,38.82,16.85,1.37.59,3.17,1.14,4.48.74,5.94-1.79,11.77-3.93,18.43-6.22-1.99-.64-3.32-1.09-4.66-1.5C189.06,12.07,176.07,7.02,163.9,0h5.17c12.48,7.02,25.84,11.83,39.62,15.49,2.38.63,5.14.71,7.54.21,25.24-5.34,50.48-5.8,75.73-.36,4.47.96,8.7,1.19,12.96-.57,11.31-4.69,22.63-9.35,33.95-14.02v2.95c-1.01.38-2.03.73-3.02,1.16-7.56,3.24-15.08,6.56-22.68,9.71-2.89,1.19-5.94,1.98-9.6,3.17,5.89,2.08,10.98,4.07,16.19,5.62,1.79.53,4.11.5,5.83-.19,4.53-1.79,8.86-4.08,13.27-6.18v2.21c-4.12,2.15-8.24,4.31-12.62,6.6,4.5,2.38,8.56,4.53,12.62,6.69v2.21c-9.1-3.93-17.97-8.58-27.35-11.68-46.99-15.49-92.85-11.35-137.17,9.81-21.09,10.07-42.6,18.46-65.84,21.56-37.32,4.97-72.95-.58-106.51-18.08C1.36,35.98.67,35.73,0,35.44c0-.98,0-1.97,0-2.95ZM166.04,34.27c-.05-.38-.09-.75-.14-1.13C111.6,8.17,57.32,6.45,2.38,33.37c.95.77,1.27,1.15,1.68,1.35,3.08,1.53,6.24,2.89,9.24,4.57,2.04,1.14,3.72.92,5.83.11,19.43-7.52,39.6-11.46,60.41-11.92,23.85-.52,46.92,3.72,69.27,12.01,1.19.44,2.74.93,3.79.53,4.55-1.74,8.97-3.8,13.45-5.74ZM19.84,41.54c.77.53,1.14.91,1.58,1.06,4.78,1.58,9.59,3.05,14.34,4.71,3.24,1.13,6.32,1,9.67.27,23.09-5.03,46.46-6.18,69.52-.98,11.96,2.7,21.96-.78,33.27-4.88-43.28-15.62-85.62-16.05-128.38-.18ZM119.04,49.79c-23.85-5.28-47.7-5.3-71.56.03,23.85,5.28,47.7,5.15,71.56-.03Z"/>
      <path d="M0,48.73c15.42,8.38,31.7,14.4,48.96,17.71,38.66,7.41,75.86,2.44,111.56-13.75,15.44-7,30.61-14.51,47.13-18.79,44.88-11.65,88.1-7.77,129.52,13.56.52.27,1.14.36,1.71.54v2.95c-16.82-9.28-34.72-15.45-53.66-18.6-38.04-6.31-74.45-.69-109.15,15.68-17.04,8.04-34.16,15.72-52.65,19.68-42.22,9.04-82.79,4.55-121.39-15.32-.63-.33-1.36-.47-2.04-.7,0-.98,0-1.97,0-2.95Z"/>
      <path d="M338.88,403.85c-7.98,3.45-15.77,7.43-23.96,10.26-49.29,17.07-97.26,12.68-143.73-10.03-23.32-11.4-47.49-19.5-73.43-21.43-34.1-2.53-66.56,3.42-96.73,20.1-.31.17-.69.24-1.03.36,0-.98,0-1.97,0-2.95,2.42-1.14,4.84-2.28,7.26-3.41,30.34-14.17,62.11-19.53,95.45-15.96,23.87,2.56,46.29,9.7,67.68,20.41,27.71,13.87,57,21.28,88.07,20.77,28.49-.46,55.39-7.28,80.42-21.07v2.95Z"/>
      <path d="M0,304.92c12.49,6.67,25.5,12.07,39.27,15.48,43.91,10.9,86.09,5.58,126.55-14.04,19-9.21,38.48-16.71,59.4-20.14,38.82-6.35,75.84-1.06,110.97,16.85.86.44,1.79.74,2.68,1.1v2.95c-18.02-10-37.27-16.34-57.64-19.27-37.65-5.41-73.48.89-107.5,17.4-18.45,8.95-37.31,16.49-57.54,20.05-39.74,6.98-77.78,1.93-113.82-16.63-.73-.38-1.57-.55-2.36-.81,0-.98,0-1.97,0-2.95Z"/>
      <path d="M338.88,98.93c-16.73-9.15-34.48-15.36-53.29-18.51-36.56-6.12-71.65-.98-105.54,13.67-14.3,6.18-28.34,13.3-43.17,17.83-46.3,14.13-91.46,10.62-134.84-11.54-.64-.32-1.36-.48-2.04-.71,0-.98,0-1.97,0-2.95,16.83,9.24,34.71,15.41,53.66,18.58,29.94,5.02,59.34,2.67,87.94-7.28,11.79-4.1,23.12-9.57,34.51-14.73,25.42-11.5,51.98-17.98,79.93-17.81,28.32.18,55.29,6.32,80.45,19.65.74.39,1.59.57,2.38.84v2.95Z"/>
      <path d="M338.88,211.89c-.79.23-1.65.35-2.37.72-31.21,16.21-64.36,21.98-99.26,18.64-25.3-2.42-48.8-10.53-71.45-21.76-26.98-13.37-55.62-20.14-85.77-19.54C51.69,190.52,24.84,197.16,0,211.15,0,210.17,0,209.18,0,208.2c11.83-4.7,23.36-10.48,35.56-13.92,47.33-13.33,92.41-6.09,136.17,15.31,51.85,25.35,104.67,27.89,157.93,3.86,3.12-1.41,6.15-3.01,9.22-4.52v2.95Z"/>
      <path d="M338.88,195.65c-7.51,3.29-14.87,7.04-22.57,9.81-44.3,15.94-88.25,14.04-131.67-3.45-12.51-5.04-24.5-11.43-37.08-16.27-27.43-10.55-55.96-13.97-85.14-10.61-21.28,2.45-41.57,8.5-60.41,18.93-.63.35-1.34.57-2.01.85,0-.98,0-1.97,0-2.95,3.32-1.52,6.62-3.08,9.96-4.55,48.41-21.33,97.02-20.87,145.69-1.05,13.06,5.32,25.58,12.1,38.86,16.74,46.51,16.26,92.39,14.6,137.2-6.63,2.44-1.15,4.78-2.51,7.16-3.78v2.95Z"/>
      <path d="M338.88,290.89c-9.1-3.93-17.97-8.55-27.34-11.68-41.9-14.01-83.45-11.95-124.35,4.19-12.21,4.82-23.88,10.98-36.07,15.85-27.51,10.99-56.13,15.18-85.63,12.17-22.57-2.3-44.1-8.38-64.12-19.31-.42-.23-.91-.33-1.36-.49,0-.98,0-1.97,0-2.95,29.14,16.2,60.42,22.72,93.6,20.89,26.91-1.48,52.12-9.01,76.12-21.02,27.46-13.74,56.47-21.26,87.28-20.89,28.96.35,56.46,6.73,81.88,21.02v2.21Z"/>
      <path d="M0,64.97c8.29,3.64,16.39,7.83,24.91,10.81,40.01,14.01,80.12,13.3,119.88-.86,12.34-4.39,24.05-10.53,36.11-15.71,29.7-12.75,60.63-18.13,92.87-14.8,21.69,2.24,42.42,7.99,61.78,18.25,1.08.57,2.21,1.05,3.32,1.57v2.95c-18.97-11-39.53-17.23-61.18-19.93-38.38-4.8-74.45,2.9-108.82,20.13-30.71,15.39-63.24,22.68-97.63,20.36C46.07,86.04,22.15,79.56,0,67.19,0,66.45,0,65.71,0,64.97Z"/>
      <path d="M338.88,323.37c-20.98-12.16-43.76-18.51-67.78-20.66-37.6-3.37-72.45,5.76-105.92,22.48-29.59,14.78-61.24,20.98-94.3,18.69C45.84,342.14,22.05,335.65,0,323.37,0,322.64,0,321.9,0,321.16c6.33,2.9,12.53,6.14,19.02,8.63,44.1,16.96,88.19,16.04,132-.99,12.34-4.8,24.06-11.22,36.41-15.98,47.35-18.27,94.51-17.95,141.23,2.54,3.48,1.53,6.82,3.37,10.23,5.06v2.95Z"/>
      <path d="M0,160.21c12.91-6.67,26.31-12.06,40.47-15.47,40.36-9.73,79.47-5.61,117.52,10.52,14.9,6.31,29.47,13.76,44.87,18.47,44.32,13.55,87.8,10.6,129.78-9.73,2.08-1.01,4.16-2.04,6.23-3.06v2.21c-19.95,11.34-41.53,17.53-64.23,19.97-37.9,4.08-73.41-3.99-107.29-20.94-31.8-15.9-65.5-22.89-101.02-19.52C42.88,144.91,20.58,151.37,0,163.16v-2.95Z"/>
      <path d="M338.88,179.41c-19.13,10.33-39.49,16.71-61.06,19.38-30.63,3.79-60.35.06-89-11.21-13.58-5.34-26.59-12.15-40.19-17.45-27.13-10.56-55.35-14.33-84.32-11.23-21.82,2.34-42.61,8.35-61.96,18.93-.72.39-1.56.56-2.34.84,0-.74,0-1.48,0-2.21,31.06-16.78,64.24-22.99,99.31-20.14,27.4,2.23,52.51,11.54,77.02,23.44,27.68,13.44,57.15,19.43,87.92,17.9,25.35-1.25,49.49-7.39,71.93-19.56.82-.45,1.79-.62,2.69-.92v2.21Z"/>
      <path d="M338.88,387.61c-16.16,8.59-33.22,14.56-51.25,17.81-36.5,6.59-71.67,1.93-105.71-12.38-14.7-6.18-28.99-13.66-44.14-18.37-46.88-14.54-92.61-11.36-136.4,11.85-.41.22-.92.24-1.38.35,0-.74,0-1.48,0-2.21,20.36-11.35,42.25-17.69,65.37-20,37.53-3.75,72.65,4.28,106.18,21.06,31.79,15.91,65.51,22.91,101.04,19.48,23.46-2.26,45.78-8.6,66.3-20.54v2.95Z"/>
      <path d="M338.88,419.35c-20.32,11.44-42.23,17.69-65.34,20.03-37.27,3.78-72.24-4.03-105.5-20.73-27.58-13.85-56.8-21.13-87.72-20.57C51.87,398.6,24.9,405.19,0,419.35v-2.95c13.77-7.19,28.14-12.78,43.32-16.18,43.46-9.72,84.98-3.68,124.66,15.88,21.23,10.47,43.28,18.14,66.84,20.7,35.71,3.89,69.79-1.69,101.72-18.7.74-.39,1.55-.64,2.33-.96v2.21Z"/>
      <path d="M338.88,82.69c-7.83-3.46-15.49-7.41-23.53-10.31-40.42-14.57-80.99-14-121.25.36-13.95,4.98-27.12,12.09-40.91,17.58-45.86,18.24-91.89,18.81-137.88.36C10.07,88.58,5.09,85.86,0,83.43c0-.98,0-1.97,0-2.95,17.31,10.08,36.04,16.09,55.73,19.16,40.36,6.3,78.38-1.34,114.62-19.51,30.62-15.35,63.04-22.5,97.3-20.21,25.18,1.68,49.09,8.16,71.23,20.56v2.21Z"/>
      <path d="M0,273.17c5.88,2.7,11.63,5.72,17.65,8.06,51.36,19.98,101.57,16.07,150.54-8.03,29.64-14.59,60.65-22.7,93.84-21.44,26.53,1.01,51.71,7.27,75.18,19.9.54.29,1.11.51,1.67.77v2.95c-17.01-10.12-35.54-16-54.95-19.12-41.28-6.64-79.99,1.54-117.06,20.13-29.67,14.88-61.28,21.58-94.5,19.55C46.8,294.38,22.54,287.82,0,275.38,0,274.65,0,273.91,0,273.17Z"/>
      <path d="M213.37,451.84c-7.1-2.25-14.35-4.12-21.26-6.85-9.46-3.74-18.74-7.96-27.96-12.27-28.89-13.53-59.19-20.18-91.1-18.36-25.07,1.43-48.9,7.69-71.03,19.85-.61.33-1.34.44-2.02.65,0-.74,0-1.48,0-2.21,31.16-16.92,64.49-23.1,99.66-20.13,25.06,2.12,48.56,9.58,70.96,20.81,17,8.52,34.82,14.66,53.6,17.87.59.1,1.14.42,1.71.64h-12.55Z"/>
      <path d="M169.81,451.84c-13.69-7.62-28.31-12.91-43.5-16.49-41.46-9.76-81.6-6.23-120.09,12.62-2.08,1.02-4.15,2.08-6.22,3.13,0-.98,0-1.97,0-2.95,6.13-2.73,12.15-5.74,18.41-8.13,49.5-18.88,98.09-15.67,145.85,6.27,3.65,1.68,7.15,3.69,10.72,5.55h-5.17Z"/>
      <path d="M211.89,0c9.13,1.68,18.19,3.92,27.39,4.92,19.57,2.14,38.99.48,58.13-4.19.56-.14,1.07-.48,1.6-.73,2.71,0,5.41,0,8.12,0-5.94,1.65-11.8,3.7-17.83,4.87-28.67,5.53-57.05,4.01-85.07-4.15-.43-.13-.8-.47-1.2-.71,2.95,0,5.91,0,8.86,0Z"/>
      <path d="M126.99,451.84c-9-1.68-17.94-3.91-27.01-4.91-19.82-2.19-39.48-.48-58.86,4.24-.44.11-.83.45-1.25.68h-8.86c9.28-2.16,18.46-4.97,27.85-6.36,25.5-3.76,50.68-1.65,75.43,5.57.55.16,1.04.52,1.56.79h-8.86Z"/>
      <path d="M0,16.24C12.74,9.38,26.14,4.21,40.18.71c.42-.1.78-.47,1.16-.71C45.28,0,49.22,0,53.16,0c-8.36,2.21-16.93,3.83-25.01,6.79C18.54,10.32,9.36,15.01,0,19.2c0-.98,0-1.97,0-2.95Z"/>
      <path d="M338.88,435.6c-12.74,6.87-26.14,12.01-40.18,15.54-.42.11-.78.46-1.17.7h-11.81c8.94-2.42,18.08-4.26,26.76-7.41,9.04-3.28,17.62-7.8,26.4-11.79v2.95Z"/>
    </g>
  </g>
</svg>