<svg xmlns="http://www.w3.org/2000/svg" viewBox="0 0 840 1680" width="840px" height="1680px">
  <defs>
    <clipPath id="clippath">
      <rect class="cls-1" width="900" height="1800" style="fill: none;"></rect>
    </clipPath>
  </defs>
  <g id="Calque_2" transform="matrix(0.935005, 0, 0, 0.934729, -36.982094, -28.166296)" style="">
    <g id="Calque_1-2" data-name="Calque 1" transform="matrix(1, 0, 0, 1, 38.114086, 27.417744)">
      <g class="cls-3" style="clip-path: url(#clippath);">
        <g>
          <path class="cls-2"
            d="M-345.8,428.32c42.49,18.01,84.98,35.97,127.51,53.93,3.01,1.29,6.38,1.74,9.44,3.03,27.25,11.45,54.4,11.81,83.72,5.66,111.91-23.4,223.91-19.74,335.46,4.32,7.69,1.65,16.5,1.34,24.14-.49,72.88-17.43,140.33-48.63,207.72-80.27,123.33-57.9,253.36-86.42,390-81.25,118.56,4.5,231.37,32.22,336.58,87.8,2.88,1.52,6.02,2.67,9.04,3.97v13.15c-7.69-4.28-15.24-8.91-23.16-12.79-193.11-94.44-393.06-107.32-597.05-43.37-67.49,21.17-131.06,54.42-196.89,81.03-36.37,14.71-73.65,27.1-111.86,41.05,25.9,8.78,50.58,17.65,75.67,25.27,6.65,2.01,15.42,2.23,21.72-.31,24.46-10.03,48.56-20.95,72.34-32.54,97.52-47.51,199.63-79.07,308.21-88.56,159.21-13.95,310.01,13.5,451.06,89.45v9.85c-4.5-1.83-9.13-3.34-13.4-5.57-104.4-54.69-216-82.5-333.71-86.55-126.97-4.37-248.28,20.64-364.42,70.91-37.99,16.45-75.13,34.9-115.06,53.53,15.11,6.69,28.51,10.92,39.97,18.1,17.45,10.92,32.06,8.29,50.31-.09,207.36-94.89,419.58-110.44,636.25-33.87,34.13,12.08,66.72,28.39,100.04,42.74v16.45c-42.13,17.52-83.27,38.15-126.57,52.1-198.82,63.82-394,49.34-585.36-31.33-64.92-27.37-128.5-59.28-195.49-80.18-191.18-59.59-380.2-49.78-564.41,30.62-17.67,7.76-34.58,17.03-51.84,25.58v-13.15c18.84-8.65,37.72-17.29,58.5-26.83-21.49-10.7-39.97-19.92-58.5-29.1v-13.15c21.04,10.74,42.04,21.62,63.22,32.09,3.73,1.83,8.9,3.92,12.32,2.81,26.89-8.91,53.55-18.59,76.57-26.74-49.32-21.88-100.71-44.66-152.11-67.43v-9.85ZM428.31,573.79c5.08,3.3,6.79,4.68,8.77,5.57,14.57,6.55,29.4,12.61,43.7,19.66,10.7,5.26,20.28,4.72,31.43.53,86.96-32.54,177.01-50.19,269.95-52.55,106.69-2.76,209.93,15.11,309.74,52.64,5.44,2.05,12.59,4.72,17.22,2.85,19.06-7.62,37.5-16.94,56.16-25.58-.45-1.83-.85-3.61-1.3-5.44-244.1-118.29-488.2-110.76-735.66,2.32h0ZM512.56,612.21c28.37,8.51,53.41,17.07,79.04,23.27,11.78,2.85,25.18,3.3,37.05.85,110.16-22.78,220.9-26.79,330.6-2.14,48.38,10.88,85.92-10.65,130.3-22.15-131.96-70.91-442.6-70.91-576.99.18h0ZM643.72,646.17c106.38,22.95,212.8,23.49,319.14.04-106.29-23.04-212.67-23.18-319.14-.04h0Z"
            style="fill: rgb(29, 29, 27);"></path>
          <path class="cls-2"
            d="M-345.8,925.18c239.65-122.75,482.39-121.94,726.54-15.29,72.25,31.56,142.53,67.35,220.09,85.13,5.67,1.29,12.09,1.96,17.63.67,122.16-27.86,244.28-27.54,366.53-.71,6.61,1.47,14.25,1.29,20.82-.4,55.84-14.22,109.48-34.14,159.97-62,3.69-2.05,8.05-2.81,12.09-4.19v9.85c-51.71,22.55-103.37,45.06-152.96,66.68,19.87,6.82,43.57,15.6,67.71,22.82,7.55,2.23,17.45,2.54,24.5-.45,20.73-8.82,40.56-19.74,60.74-29.82v13.15c-18.75,9.05-37.45,18.1-58.41,28.21,20.82,9.89,39.61,18.81,58.41,27.72v13.15c-94.42-52.59-196.17-81.96-303.58-91.37-143.92-12.61-281.91,12.26-413.33,71.13-67.94,30.44-134.48,63.69-206.91,83.17-203.59,54.69-400.2,39.09-589.18-56.16-3.28-1.65-7.06-2.36-10.66-3.48v-16.45c3.51-1.43,7.15-2.63,10.52-4.32,159.34-80.89,327.32-104.65,503.48-75.32,82.24,13.68,160.29,40.16,235.51,75.41,5.49,2.54,13.35,4.77,18.34,2.81,19.42-7.62,38.13-16.98,58.23-26.25-33.72-15.87-65.91-31.51-98.51-46.22-181.38-81.7-368.6-101.57-562.25-51.08-57.87,15.2-112.36,38.6-165.32,65.87v-9.89c13.62-7.22,26.84-15.33,40.92-21.57,209.25-92.84,421.2-95.87,634.55-15.69,52.52,19.74,102.87,45.1,154.26,67.75,4.45,1.96,10.07,5.3,13.89,4.1,28.55-8.96,56.74-18.9,82.24-27.59-52.38-21.22-107.32-40.11-159.16-65.21-105.35-50.99-214.74-85.57-332.04-94.09-147.83-10.74-287.94,16.05-419.81,83.79-4.72,2.41-9.85,4.01-14.79,6.02v-9.85l-.05-.04ZM-336.54,1074.67c17.8,8.56,32.01,14.53,45.37,22.02,12.18,6.86,22.93,6.11,35.97,1.2,83.81-31.64,170.63-48.63,260.37-51.12,109.08-3.03,214.47,15.02,316.67,52.59,5.93,2.18,13.67,4.5,18.97,2.54,20.46-7.62,40.29-16.94,63.8-27.14-122.07-59.1-246.93-89.9-378.85-89.41-126.21.45-246.08,28.39-362.35,89.27l.04.04ZM316.71,1112.69c-.31-1.56-.63-3.12-.94-4.68-189.96-67.75-379.84-69.75-569.98,2.67,28.51,11.01,57.28,20.01,86.28,28.08,5.49,1.52,12.14.18,17.94-1.11,118.88-26.92,237.76-26.39,356.73-.85,7.42,1.6,15.78,3.3,22.75,1.47,29.27-7.8,58.18-16.94,87.23-25.58h0ZM188.39,1145.71c-106.06-22.78-212.04-23.35-317.92.18,105.93,23.04,211.95,22.24,317.92-.18Z"
            style="fill: rgb(29, 29, 27);"></path>
          <path class="cls-2"
            d="M-345.8,1425.35c52.16,30.57,108.13,52.33,166.63,67.12,13.49,3.43,29.27,1.29,43.34-1.52,114.88-22.86,229.31-22.11,343.73,2.99,9.62,2.09,20.73,1.38,30.39-1.07,68.75-17.43,133.13-45.91,196.93-76.35,135.02-64.49,277.64-93.64,427.45-82.63,111.37,8.2,217.3,36.64,315.18,91.46v9.85c-11.33-5.44-22.66-11.01-34.04-16.31-199.36-93.24-403.67-100.59-610.67-30.22-62.95,21.39-122.43,52.77-184.07,78.13-32.91,13.55-67.08,24.11-101.12,36.19,25.4,8.42,50.31,17.38,75.67,24.69,7.64,2.23,17.58,2.27,24.82-.67,25.99-10.65,51.39-22.69,76.79-34.72,209.21-99.21,423.99-119.36,644.98-43.54,36.82,12.61,71.85,30.35,107.68,45.73v13.15c-8.32-4.28-16.5-8.74-24.91-12.84-165.05-80.94-337.84-99.39-517.64-63.6-100.08,19.92-191.18,62.31-282.99,107.59,17,7.76,33.27,14.22,48.6,22.42,10.93,5.88,19.56,5.04,30.71-.22,164.2-77.51,335.64-105.68,515.89-73.5,81.02,14.49,157.68,41.23,230.34,79.38v13.15c-141.49,76.57-292.97,103.71-452.72,89.45-110.29-9.85-213.79-42.34-312.44-91.37-128.19-63.73-263.7-97.21-407.4-92.79-124.41,3.79-242.43,32.8-351.15,94.71v-13.15c18.61-9.18,37.23-18.32,58.45-28.79-21-9.76-39.7-18.45-58.45-27.14v-13.15c20.73,10.07,41.36,20.41,62.27,30.04,4.63,2.14,11.06,3.97,15.56,2.5,26.57-8.56,52.79-18.14,75.27-26.03-49.37-21.22-101.25-43.5-153.09-65.74v-13.19ZM429.79,1575.19c16.23,7.26,31.07,13.24,45.32,20.46s27.29,6.69,42.35,1.07c74.37-27.68,151.48-44.26,230.74-49.12,119.1-7.31,234.79,9.09,346.3,52.19,4.41,1.69,10.39,3.79,14.12,2.23,19.02-7.98,37.5-17.07,57.33-26.34-148.15-116.91-560.54-117-736.16-.49h0ZM1086.41,1612.58c-.18-1.74-.36-3.48-.58-5.21-189.65-69.04-379.12-67.75-568.72,2.81,26.57,10.52,53.28,18.9,80.35,25.94,8.09,2.09,17.49,2.23,25.72.49,111.06-23.71,222.34-26.92,334.02-4.5,14.48,2.9,30.08,8.33,43.7,5.57,29-5.88,57.01-16.45,85.47-25.09h.04ZM642.82,1645.16c106.51,22.86,212.94,23.44,319.36.18-106.42-23.71-212.85-23.04-319.36-.18Z"
            style="fill: rgb(29, 29, 27);"></path>
          <path class="cls-2"
            d="M-345.8,69.66C-264.56,23.93-176.88-2.99-84.8-15.87,86.1-39.76,248.46-10.25,403.13,63.82c9.58,4.59,16.68,4.68,25.85-.13,15.56-8.16,31.88-14.89,47.84-22.24.4-.18.49-.89,1.08-1.96C385.73-6.15,292.79-49.61,190.41-68.59c-8.41-1.6-16.68-4.37-25-6.55h53.1c29.81,9.32,60.43,16.62,89.2,28.35,58.68,23.84,116.32,50.19,174.54,75.1,6.16,2.63,14.25,5.08,20.14,3.3,26.71-7.98,52.92-17.52,82.86-27.72-8.95-2.85-14.93-4.86-20.95-6.69-60.07-18.54-118.47-41.05-173.19-72.34h23.25c56.11,31.29,116.18,52.73,178.14,69.04,10.7,2.81,23.11,3.16,33.9.94,113.48-23.8,226.97-25.85,340.5-1.6,20.1,4.28,39.12,5.3,58.27-2.54,50.85-20.9,101.75-41.67,152.65-62.49v13.15c-4.54,1.69-9.13,3.25-13.58,5.17-33.99,14.44-67.8,29.24-101.97,43.28-12.99,5.3-26.71,8.82-43.16,14.13,26.48,9.27,49.37,18.14,72.79,25.05,8.05,2.36,18.48,2.23,26.21-.85,20.37-7.98,39.84-18.18,59.66-27.54v9.85c-18.52,9.58-37.05,19.21-56.74,29.42,20.23,10.61,38.49,20.19,56.74,29.82v9.85c-40.92-17.52-80.8-38.24-122.97-52.06-211.28-69.04-417.47-50.59-616.74,43.72-94.82,44.88-191.54,82.28-296.03,96.09-167.8,22.15-328-2.59-478.89-80.58-2.83-1.47-5.93-2.59-8.95-3.88v-13.15ZM400.74,77.6c-.22-1.69-.4-3.34-.63-5.04-244.14-111.29-488.19-118.96-735.21,1.03,4.27,3.43,5.71,5.13,7.55,6.02,13.85,6.82,28.06,12.88,41.54,20.37,9.17,5.08,16.73,4.1,26.21.49C-172.43,66.94-81.74,49.38,11.82,47.33c107.23-2.32,210.96,16.58,311.45,53.53,5.35,1.96,12.32,4.15,17.04,2.36,20.46-7.76,40.33-16.94,60.47-25.58l-.04-.04ZM-256.6,110c3.46,2.36,5.13,4.06,7.1,4.72,21.49,7.04,43.12,13.59,64.48,20.99,14.57,5.04,28.42,4.46,43.48,1.2,103.82-22.42,208.89-27.54,312.57-4.37,53.77,12.03,98.74-3.48,149.59-21.75-194.59-69.62-384.96-71.53-577.22-.8ZM189.42,146.77c-107.23-23.53-214.47-23.62-321.75.13,107.23,23.53,214.47,22.95,321.75-.13Z"
            style="fill: rgb(29, 29, 27);"></path>
          <path class="cls-2"
            d="M-345.8,142.04c69.33,37.35,142.53,64.18,220.13,78.93,173.82,33.03,341.08,10.88,501.59-61.28,69.42-31.2,137.63-64.67,211.9-83.75,201.79-51.92,396.11-34.63,582.34,60.44,2.34,1.2,5.13,1.6,7.69,2.41v13.15c-75.63-41.36-156.11-68.86-241.26-82.9-171.03-28.12-334.74-3.08-490.76,69.89-76.61,35.83-153.59,70.06-236.72,87.71-189.83,40.29-372.24,20.28-545.79-68.28-2.83-1.47-6.11-2.09-9.17-3.12v-13.15l.05-.04Z"
            style="fill: rgb(29, 29, 27);"></path>
          <path class="cls-2"
            d="M1177.86,1724.81c-35.88,15.38-70.9,33.12-107.73,45.73-221.62,76.08-437.3,56.51-646.24-44.7-104.85-50.81-213.52-86.91-330.15-95.51-153.32-11.28-299.27,15.24-434.92,89.59-1.39.76-3.1,1.07-4.63,1.6v-13.15c10.88-5.08,21.76-10.16,32.64-15.2,136.41-63.16,279.26-87.05,429.16-71.13,107.32,11.41,208.13,43.23,304.3,90.97,124.59,61.82,256.28,94.84,395.98,92.57,128.1-2.05,249.04-32.45,361.58-93.91v13.15Z"
            style="fill: rgb(29, 29, 27);"></path>
          <path class="cls-2"
            d="M-345.8,1283.88c56.16,29.73,114.65,53.8,176.56,68.99,197.43,48.58,387.08,24.87,568.99-62.58,85.43-41.05,173.01-74.48,267.07-89.76,174.54-28.3,340.99-4.72,498.94,75.1,3.87,1.96,8.05,3.3,12.05,4.9v13.15c-81.02-44.57-167.57-72.83-259.16-85.89-169.28-24.11-330.38,3.97-483.34,77.55-82.95,39.89-167.75,73.5-258.71,89.36-178.68,31.11-349.71,8.6-511.75-74.12-3.28-1.69-7.06-2.45-10.61-3.61v-13.15l-.04.04Z"
            style="fill: rgb(29, 29, 27);"></path>
          <path class="cls-2"
            d="M1177.86,365.79c-75.22-40.78-155.03-68.46-239.6-82.5-164.38-27.28-322.15-4.37-474.53,60.93-64.3,27.54-127.42,59.28-194.1,79.47-208.17,62.98-411.22,47.33-606.26-51.43-2.88-1.43-6.11-2.14-9.17-3.16v-13.15c75.67,41.18,156.06,68.68,241.26,82.81,134.62,22.37,266.8,11.9,395.39-32.45,53.01-18.27,103.95-42.65,155.16-65.65,114.29-51.26,233.71-80.14,359.38-79.38,127.33.8,248.59,28.17,361.72,87.58,3.33,1.74,7.15,2.54,10.7,3.74v13.15l.05.04Z"
            style="fill: rgb(29, 29, 27);"></path>
          <path class="cls-2"
            d="M1177.86,869.25c-3.55,1.03-7.42,1.56-10.66,3.21-140.33,72.25-289.37,97.96-446.29,83.08-113.75-10.79-219.41-46.93-321.25-96.98-121.31-59.59-250.08-89.76-385.64-87.09-127.42,2.54-248.14,32.13-359.83,94.49v-13.15c53.19-20.95,105.03-46.71,159.88-62.04,212.8-59.41,415.49-27.14,612.24,68.24,233.13,112.98,470.61,124.31,710.08,17.2,14.03-6.28,27.65-13.42,41.45-20.15v13.19Z"
            style="fill: rgb(29, 29, 27);"></path>
          <path class="cls-2"
            d="M1177.86,796.87c-33.77,14.66-66.86,31.38-101.48,43.72-199.18,71.04-396.79,62.58-592.01-15.38-56.25-22.46-110.16-50.94-166.72-72.52-123.33-47.02-251.61-62.26-382.8-47.29-95.68,10.92-186.91,37.88-271.61,84.37-2.83,1.56-6.02,2.54-9.04,3.79v-13.15c14.93-6.77,29.76-13.73,44.78-20.28,217.66-95.07,436.22-93.02,655.05-4.68,58.72,23.71,115.01,53.93,174.72,74.61,209.12,72.47,415.4,65.07,616.88-29.55,10.97-5.13,21.49-11.19,32.19-16.85v13.15l.05.04Z"
            style="fill: rgb(29, 29, 27);"></path>
          <path class="cls-2"
            d="M1177.86,1221.35c-40.92-17.52-80.8-38.11-122.93-52.06-188.39-62.44-375.21-53.26-559.1,18.67-54.9,21.48-107.37,48.94-162.18,70.64-123.69,48.98-252.37,67.66-385.01,54.24-101.48-10.25-198.28-37.35-288.29-86.06-1.89-1.03-4.09-1.47-6.11-2.18v-13.15c131.02,72.2,271.66,101.26,420.84,93.11,120.99-6.6,234.34-40.16,342.25-93.69,123.47-61.24,253.9-94.76,392.43-93.11,130.21,1.56,253.85,30,368.15,93.69v9.85l-.05.04Z"
            style="fill: rgb(29, 29, 27);"></path>
          <path class="cls-2"
            d="M-345.8,214.43c37.27,16.22,73.69,34.9,112,48.18,179.89,62.44,360.23,59.28,539-3.83,55.48-19.57,108.13-46.93,162.36-70.02,133.54-56.83,272.6-80.81,417.56-65.96,97.52,9.98,190.73,35.61,277.77,81.34,4.86,2.54,9.94,4.68,14.93,7v13.15c-85.29-49.03-177.73-76.79-275.08-88.83-172.56-21.39-334.74,12.93-489.27,89.72-138.08,68.59-284.34,101.08-438.96,90.74-113.17-7.58-220.72-36.46-320.31-91.59v-9.89Z"
            style="fill: rgb(29, 29, 27);"></path>
          <path class="cls-2"
            d="M1177.86,1366.11c-94.33-54.2-196.75-82.5-304.75-92.08-169.06-15.02-325.75,25.67-476.24,100.19-133.04,65.87-275.35,93.51-423.99,83.3-112.58-7.76-219.55-36.68-318.69-91.41v-9.85c28.46,12.93,56.34,27.37,85.52,38.46,198.28,75.59,396.52,71.49,593.5-4.41,55.48-21.39,108.18-50.01,163.71-71.22,212.89-81.43,424.93-80,635,11.32,15.65,6.82,30.66,15.02,46,22.55v13.15h-.05Z"
            style="fill: rgb(29, 29, 27);"></path>
          <path class="cls-2"
            d="M-345.8,638.91c58.05-29.73,118.29-53.75,181.96-68.95,181.47-43.37,357.31-25,528.39,46.89,66.99,28.12,132.5,61.33,201.74,82.32,199.27,60.39,394.76,47.24,583.51-43.37,9.35-4.5,18.7-9.09,28.01-13.64v9.85c-89.7,50.54-186.73,78.13-288.79,89.01-170.41,18.18-330.06-17.78-482.39-93.33-142.98-70.87-294.5-102.02-454.2-87-105.44,10.03-205.7,38.82-298.23,91.37v-13.15Z"
            style="fill: rgb(29, 29, 27);"></path>
          <path class="cls-2"
            d="M1177.86,724.48c-86.01,46.04-177.55,74.48-274.54,86.38-137.72,16.89-271.34.27-400.16-49.96-61.06-23.8-119.55-54.15-180.7-77.77-121.98-47.07-248.86-63.87-379.12-50.05-98.11,10.43-191.58,37.22-278.58,84.37-3.24,1.74-7.01,2.5-10.52,3.74v-9.85c139.65-74.79,288.83-102.47,446.52-89.76,123.2,9.94,236.09,51.43,346.3,104.47,124.45,59.9,256.96,86.6,395.3,79.78,113.98-5.57,222.52-32.94,323.41-87.18,3.69-2.01,8.05-2.76,12.09-4.1v9.94Z"
            style="fill: rgb(29, 29, 27);"></path>
          <path class="cls-2"
            d="M1177.86,1652.43c-72.66,38.29-149.36,64.89-230.43,79.38-164.11,29.37-322.24,8.6-475.29-55.18-66.09-27.54-130.34-60.88-198.46-81.87-210.78-64.8-416.39-50.63-613.28,52.82-1.84.98-4.14,1.07-6.2,1.56v-9.85c91.54-50.59,189.96-78.84,293.92-89.14,168.74-16.71,326.65,19.08,477.4,93.86,142.93,70.91,294.54,102.11,454.29,86.82,105.48-10.07,205.84-38.33,298.1-91.55v13.15h-.05Z"
            style="fill: rgb(29, 29, 27);"></path>
          <path class="cls-2"
            d="M1177.86,1793.89c-91.36,50.99-189.87,78.84-293.78,89.27-167.57,16.85-324.8-17.96-474.35-92.39-124-61.73-255.38-94.18-394.4-91.68-127.92,2.32-249.18,31.69-361.13,94.8v-13.15c61.91-32.05,126.52-56.96,194.77-72.11,195.4-43.32,382.09-16.4,560.49,70.78,95.45,46.66,194.59,80.85,300.52,92.26,160.56,17.34,313.79-7.53,457.35-83.35,3.33-1.74,6.97-2.85,10.48-4.28v9.85h.05Z"
            style="fill: rgb(29, 29, 27);"></path>
          <path class="cls-2"
            d="M1177.86,293.4c-35.21-15.42-69.65-33.03-105.8-45.95-181.74-64.94-364.15-62.4-545.16,1.6-62.72,22.2-121.94,53.88-183.94,78.35-206.19,81.3-413.15,83.84-619.93,1.6-23.56-9.36-45.95-21.48-68.84-32.31v-13.15c77.83,44.93,162.04,71.71,250.57,85.4,181.47,28.08,352.41-5.97,515.35-86.96,137.67-68.41,283.44-100.28,437.48-90.08,113.21,7.49,220.72,36.37,320.26,91.64v9.85h0Z"
            style="fill: rgb(29, 29, 27);"></path>
          <path class="cls-2"
            d="M-345.8,1142.37c26.44,12.03,52.29,25.49,79.36,35.92,230.92,89.05,456.68,71.62,676.85-35.79,133.27-65.03,272.69-101.17,421.92-95.56,119.28,4.5,232.5,32.4,338.02,88.69,2.43,1.29,4.99,2.27,7.51,3.43v13.15c-76.48-45.1-159.79-71.31-247.07-85.22-185.6-29.59-359.65,6.86-526.32,89.72-133.4,66.32-275.53,96.18-424.89,87.13-114.97-6.95-224.04-36.19-325.39-91.64v-9.85Z"
            style="fill: rgb(29, 29, 27);"></path>
          <path class="cls-2"
            d="M613.55,1938.7c-31.92-10.03-64.52-18.36-95.59-30.53-42.53-16.67-84.26-35.48-125.71-54.69-129.89-60.3-266.13-89.94-409.6-81.83-112.72,6.37-219.86,34.27-319.36,88.47-2.74,1.47-6.02,1.96-9.08,2.9v-9.85c140.1-75.41,289.96-102.96,448.09-89.72,112.67,9.45,218.33,42.7,319.05,92.75,76.44,37.97,156.56,65.34,241,79.65,2.65.45,5.13,1.87,7.69,2.85h-56.47Z"
            style="fill: rgb(29, 29, 27);"></path>
        </g>
      </g>
    </g>
  </g>
</svg>