<svg xmlns="http://www.w3.org/2000/svg" viewBox="0 0 840 1680" width="840px" height="1680px">
  <defs></defs>
  <g id="Calque_2" transform="matrix(0.936527, 0, 0, 0.925072, -0.039339, 239.947922)" style="">
    <g id="Calque_1-2" data-name="Calque 1" transform="matrix(1, 0, 0, 1, -5.43455, 468.390228)">
      <g>
        <path class="cls-1"
          d="M899.9,636.76c-6.99-7.03-13.3-14.97-20.03-23.51l20.03-1.36-20.11-21.47,19.39,4.46-43.05-70.37-35.6,58.66,12.85-1.51-30.58,43.58,7.82-1.25c1.63-.23,2.65,3.59,2.04,5.14l-1.7,4.84c-.38,1.02,2.31.34,5.67.11l-12.17,15.84-30.76-49.7-35.03,57.67,12.13-.11-27.78,38.62-18.67-22.41,20.11-1.55-16.63-19.39,15.99,2.08-42.4-68.9-34.66,56.39,10.43,2.57-28.87,40.7,12.7-1.32-4.01,6.46c-1.02,1.66,2.04,4.65,3.97,6.84l-31.86,37.72,18.1-1.78-6.35,12.85,8.09-.94-38.74,42.67,24.87-3.97-8.28,16.14,22.11-6.92-30.5,40.59h302.05v-196.9l-.57-.57ZM661.05,646.51l13.98-.04c-.72,5.14-2.68,10.77-5.74,15.19l-5.78,8.5c-1.21,1.78-8.65-.15-8.84-2.42-.57-5.86,2.83-15.76,6.39-21.24ZM661.42,689.36c4.04,1.59,5.22,8.01,3.51,12.06-5.03,12.02-17.12,16.86-29.59,15.5-.26-9.83,18.1-30.65,26.08-27.55ZM624.61,770.73c-3.14-10.09,3.74-16.82,12.55-18.67,1.74-.34,6.2-1.06,6.08.3-.6,8.24-7.67,13.57-18.63,18.37ZM665.96,796.4c-5.22,21.5-20.41,18.37-19.31,19.77l-4.35-5.48-13.11,3.55c5.82-10.81,22.18-35.75,34.81-39.72,4.42,8.05,3.93,13.72,1.97,21.88ZM669.1,716.24c-2-.45-5.18-3.86-5.1-5.9.11-2.08,2.42-5.03,5.03-8.31,1.55-1.89,6.8,5.71,7.41,8.92.42,2.19-5.29,5.74-7.33,5.29ZM717.77,780.75c-3.7-12.36,20.18-25.28,31.44-24.23-2.83,18.33-29.18,31.78-31.44,24.23ZM753.26,784.91c-2.61,4.8-7.41,10.51-11.94,14.63-5.29-8.13.45-20.03,6.73-23.32,2.15-1.13,6.27,6.73,5.22,8.69ZM744.38,737.4l-6.2,2.31c-1.44.49-3.48-4.61-3.86-5.14l-14.17,3.7c2.31-7.56,26.46-40.29,32.24-37.53,9.83-2.65,8.73,30.54-8.01,36.66ZM762.6,683.05c.45,1.06-3.59,4.76-4.01,3.63l-2.49-6.65-11.56,4.46c-2.99-11.07,3.63-24.83,15.46-26.76,4.27-.68,5.37,10.36,2,14.32-1.7,2.04-.6,8.13.6,11ZM775.56,771.07c-.3,1.28-5.25,4.12-6.01,3.02-1.02-1.44-2.65-4.54-3.78-7.18-.72-1.7,1.66-7.52,3.36-7.03l7.29,2.19c1.7.53-.15,6.35-.87,8.99ZM775.56,717.67c-2.76-1.1-6.01-4.12-7.14-5.93-1.36-2.15,1.7-10.28,4.12-9.34,2.61.98,6.01,4.12,7.14,5.93,1.36,2.15-1.66,10.32-4.12,9.34ZM777.07,661.96c11.83-1.51,20.71,9.07,17.04,21.43-10.05-3.59-14.51-12.59-17.04-21.43ZM795.44,761.93c1.21-2.34,8.58-4.12,11.19-3.21,10.7,3.86,21.66,15.5,22.37,30.8-9.86.19-39.23-16.52-33.56-27.59Z"
          style="fill: rgb(29, 29, 27);"></path>
        <path class="cls-1"
          d="M271.89,620.5c2.87,1.25,4.69,2,8.31,2.99l-20.75-26.61,7.11-1.25c1.1-.19-1.59-3.55-2.38-4.31l-2.46-2.31c-.57-.53.79-1.4,3.21-3.48l-17.84-29.18-9.41,13.91-19.54-31.26-12.89,20.11-2.27,3.63c-.6.98,1.97,3.1,2.76,4.31l-10.28,14.32c10.24,10.88-4.2,11.38-9.26,23.66l6.84,1.17c.79.15-.23,2.34-.23,4.01l-9.83,10.88-3.25-2.76c-.68-.57-.91-3.25-.08-3.48l5.52-1.47-3.33-4.31c-.57-.79,2.76-1.78,4.35-2.49l-19.27-30.76-15.31,23.89,2.65,3.33c.53.64-.91,2.49-1.59,3.4l-5.82,8.13-17.57-28.72-15.46,25.43,2.83,4.04-6.42,8.43-8.65-9.56,6.2-2.42c2.34-.91-6.16-6.95-5.29-7.22l5.33-1.66-18.56-29.93-13.98,22.11c-.49.83-1.55,3.21-1.13,3.82l2.04,2.99-10.39,14.25,3.74,5.22c.83,1.13-1.1,4.12-2.38,5.44l-14.06-20.82c-4.88,8.16-10.39,15.31-12.85,22.9-2.15,6.61-1.51,12.7-9.33,17.5l-7.45-7.52,9.6-1.02-4.69-4.88c-.76-.76,1.25-2.34,2.76-4.08l-17.54-29.18-11.68,16.78v113.12c11.72-6.35,23.02-13.3,34.58-20.14,10.66-6.35,21.47-12.55,32.92-17.99.23-.11.42-.19.64-.3,34.28-16.25,69.31-27.59,105.56-39.76,3.63-1.21,11.83-.26,15.72-.64l20.41-1.93,21.92-1.81,21.84-1.78,24.57-2.04-10.47-14.93,2.27-7.75ZM45.81,653.5c2.8-2.46,9.9,3.55,8.92,7.07l-14.1,2.91c-1.29-1.74,1.81-7.03,5.18-9.98ZM65.16,685.77c-3.02-2.65-6.24-6.69-7.79-10.43-.42-.87-.68-1.74-.87-2.57,1.81-3.21,10.47-1.4,12.25,1.97,1.36,2.61.19,8.96-2.19,10.62-.45.3-.91.45-1.4.42ZM243.88,628.74c-2.23,1.4-5.82,1.59-11.79,2.12.64-6.27,6.77-14.51,13.79-14.25.79,4.31.15,10.77-2,12.13ZM248.79,595.9c-5.03-2.68-7.9-1.93-14.81.57-.72-2.61,3.21-9.86,6.95-10.92,5.4-1.59,10.62,6.01,7.86,10.36Z"
          style="fill: rgb(29, 29, 27);"></path>
        <path class="cls-1"
          d="M899.9,430.63v41.8c-11.45.3-23.51-.76-37.68,1.66-.15-.64.45-3.82-.26-3.67l-3.4.76c-.45.11.08,2.76-.42,2.8-3.06.11-46.33,1.63-48.87,2.53l-95.43,33.6c-2,.72-7.63-1.36-6.77-.83.68.38-.72,3.7-1.59,4.01l-40.89,15.65-48.11,24.3,11.94-16.7-2.38-6.61-6.54-.26,12.77-14.25c-1.97-2.12-5.06-4.46-4.27-5.4l3.82-4.5,4.5-5.59c.91-1.17-1.29-3.7-2.34-5.33,11-16.14,2.61-14.02,17.84-33.94l13.76,22.75c-1.06,1.21-2.49,2.27-2.12,2.83l2.15,3.59c-.79,1.93-3.1,4.5-2,5.78l5.29,6.08c.34-.83.98-3.33.26-4.08l-2.61-2.65,5.9-6.61c-2.12-4.95,8.96-25.51,13.11-32.35l9.52,15.46c1.85,3.02.87,8.84-.42,11.3l9.79,13.34c-3.4,1.17-5.14,4.42-3.67,5.93,1.4,1.51,3.48,3.55,4.61,4.54,1.1.94,3.93-3.4,4.91-4.46l4.95-5.4c1.06-1.17-2.46-4.99-2.57-5.25,10.13-15.08.94-11.64,17.42-33.52,3.7,5.29,18.56,27.14,13.49,29.63l-4.54,2.23c1.85,1.51,4.35,4.01,5.29,3.02l3.89-3.97c.68-.72,2.83-3.4,2.46-4.27l-1.59-3.44,11.91-18.97,10.43,16.82c1.47-2.08,2.68-4.31,1.97-4.99l-3.02-2.91,6.84-9.64c.94-9.37,5.78-17.42,11.68-23.7l12.47,20.22c2.31,3.7.57,9.18-1.55,12.89.04,1.81,4.27,5.52,5.52,4.04,2.15-2.57,5.18-4.65,2.04-7.52l11.68-20.11,14.1,22.11c6.77-15.68,2.72-12.21,15.08-29.48l13.91,21.54,10.02-10.47c-.57-3.44-1.7-8.16-.3-9.75,8.5-9.94.64-11.57,15.84-29.63l12.17,19.05Z"
          style="fill: rgb(29, 29, 27);"></path>
        <path class="cls-1"
          d="M290.07,614.35l10.48-13.96-2.79-4.75,15.26-23.76,18.88,30-2.86,3.44c-.73.87,1.58,3.14,3.1,5.09l-7.64,1.23,11.35,13c2.47-2.01.8-5.29-.83-8-1.52-2.88,4.65-9.36,6.83-10.16,2.81,1.64,7.07,3.27,9.36,2.6,3.23-.95,3.35-6.69,1.61-10.91l-9.47,7.05-3.69-4.57c-.82-1.02,1.95-3.27,3.09-5.08,5.56-8.81.85-10.56,14.23-29.15l14.87,22.72-2.16,2.93c-.41.56,1.38,2.15,2.53,3.48l-5.45,1.89,15.22,19.39c-1.63,1.41-6.87,4-8.24,2.57l-4.56-4.75c-1.01-1.05-6.41.77-6.24,2.2.52,3.9,8.44,6.9,12.84,5.99l5.67,7.69c-11.17,3.46-21.31,5.94-32.29,6.81l-18.82,1.48-23.5,1.85c-9.32.73-16.73,4.49-25.62-3.94l9.45-10.83c1.26-1.44,2.93-3.68,3.52-4.98s-1.99-3.88-4.11-6.59Z"
          style="fill: rgb(29, 29, 27);"></path>
        <path class="cls-1"
          d="M899.9,154.36v4.72l-18.22,10.58-.76,11.87c-.08,1.13-5.06.53-5.1-.68l-.3-7.75-73.39,39.19-40.89,21.43-82.92,41.38c-130.77,65.31-264.52,119.13-403.45,168.26,30.88-.04,56.54-16.89,84.47-23.7l46.33-16.52c119.31-42.48,235.26-90.74,348.8-146.94l101.21-50.11c.98,4.65-2.49,5.9-6.46,7.9l-51.02,25.74-68.94,33.14-1.7,9.33c-.23.11-3.63,1.02-3.89.3l-2.34-5.82-188.67,82.2-2.38,10.88c-.42.26-4.35.57-4.5-.53l-1.02-6.99-159.11,59.52-1.1,10.28c-1.06.11-4.57-.04-4.76-1.17l-.98-6.65-71.17,23.7c-6.42,2.15-13.49,2.61-19.31,2.38l2.87-3.44c.49-.6-.6-2.61-1.59-2.31l-96.11,30.73c30.61-2.12,58.13-19.96,89.38-21.09-75.74,26.12-151.1,43.46-227.52,60.39l-.98,10.36c-1.02.23-5.03.61-5.03-.68l-.11-8.47-27.32,5.78v-7.29c227.06-47.43,484.63-148.04,692.72-251.86l46.86-23.36,158.39-84.73Z"
          style="fill: rgb(29, 29, 27);"></path>
        <path class="cls-1"
          d="M547.55,379.27c-3.59-8.05-12.43-7.33-20.26-7.45-7.18-.11-16.44-.49-19.05,8.65-2.57,9-.6,20.41,2.31,29.82l34.17-.08c4.12-12.13,7.07-21.5,2.83-30.95ZM521.93,397.52h-10.96v-16.4h10.96v16.4ZM545.66,397.52h-10.96v-16.4h10.96v16.4Z"
          style="fill: rgb(29, 29, 27);"></path>
        <path class="cls-1"
          d="M382.05,444.39c-3.59-8.05-12.47-7.33-20.26-7.48-7.22-.11-16.48-.45-19.09,8.65-2.57,9.03-.6,20.41,2.31,29.82l34.17-.08c4.12-12.13,7.07-21.5,2.87-30.92ZM356.39,462.6h-10.96v-16.4h10.96v16.4ZM380.13,462.6h-10.96v-16.4h10.96v16.4Z"
          style="fill: rgb(29, 29, 27);"></path>
        <path class="cls-1"
          d="M206.13,497.45c-3.59-8.05-12.43-7.33-20.26-7.45-7.18-.11-16.48-.49-19.05,8.65-2.57,9-.6,20.41,2.31,29.78l34.17-.04c4.12-12.13,7.07-21.5,2.83-30.95ZM180.5,515.7h-10.96v-16.44h10.96v16.44ZM204.2,515.7h-10.92v-16.44h10.92v16.44Z"
          style="fill: rgb(29, 29, 27);"></path>
        <path class="cls-1"
          d="M742.42,304.48c-3.59-8.05-12.47-7.33-20.26-7.48-7.18-.11-16.48-.45-19.09,8.69-2.53,8.99-.57,20.41,2.34,29.78l34.17-.04c4.08-12.17,7.03-21.54,2.83-30.95ZM716.75,322.73h-10.92v-16.44h10.92v16.44ZM740.49,322.73h-10.96v-16.44h10.96v16.44Z"
          style="fill: rgb(29, 29, 27);"></path>
        <path class="cls-1"
          d="M52.76,541.48c-3.59-8.05-12.47-7.33-20.26-7.48-7.18-.11-16.48-.45-19.09,8.65-2.53,9.03-.57,20.41,2.34,29.82l34.17-.08c4.08-12.13,7.03-21.5,2.83-30.91ZM27.1,559.69h-10.92v-16.4h10.92v16.4ZM50.83,559.69h-10.96v-16.4h10.96v16.4Z"
          style="fill: rgb(29, 29, 27);"></path>
        <path class="cls-1"
          d="M899.9,201.83c-.3-1.78-.83-3.51-1.63-5.29-3.59-8.05-12.47-7.33-20.26-7.45-7.22-.15-16.48-.49-19.09,8.65-2.57,8.99-.6,20.41,2.31,29.78l34.17-.04c2-5.9,3.74-11.11,4.5-16.02.49-3.33.6-6.5,0-9.64ZM872.61,214.79h-10.92v-16.44h10.92v16.44ZM896.35,214.79h-10.96v-16.44h10.96v16.44Z"
          style="fill: rgb(29, 29, 27);"></path>
        <g>
          <path class="cls-1"
            d="M522.72,564.23c1.36-4.42,2.8-8.77,4.08-13.23l6.42-22.37,26.95-81.82c2.08-6.27,5.74-12.77,1.47-19.58-3.4-5.44-19.88-7.45-26.83-8.16-1.55,1.78-4.08,4.23-4.88,5.74l-3.63,6.99c.49,5.67-1.29,11-2.38,16.21l-4.65,21.43-1.63,6.54-1.81,8.5-6.73,27.74-3.14,12.4-3.14,11.64c-.57,2.04-1.25,3.93-2.04,6.05l-1.78-8.84-4.76-25.74c-2.76-14.82-5.03-28.84-6.42-43.95-.64-6.5-7.22-13.79-13.91-11.64-12.21,3.93-20.94,3.44-22.26,9.6-1.47,6.92,1.47,13.91,3.14,20.6l3.67,14.82,3.02,10.88,4.76,20.03,3.02,12.7c1.4,6.05,2.65,11.11,4.08,16.78v.04c.04.08.04.15.08.23l7.52,29.55,2.46,10.77.98,4.31c.23,1.06.3,2.15.23,3.21-.42,4.76-3.51,9.6-4.99,13.95-.15.49-.3.94-.42,1.44l-1.85,7.71c-.94,4.04-2.04,8.01-3.29,12.06l-3.21,10.13-2.72,8.5c-1.02,3.25-2.42,8.01-3.67,11.98l-5.14,16.59-3.14,9.6c-1.66,4.95-2.91,9.83-4.54,14.93l-5.37,16.52c13.87-1.21,26.12-.57,33.37,3.44l9.49-41.54,7.37-27.44,2.83,11.26c1.51,6.05,2.99,11.75,3.93,18.14.72,4.91,1.21,10.24,2.27,14.97l3.67,16.33c.79,3.48,1.17,6.88,1.7,10.32l2.46,16.06c.64,4.46,1.4,8.88,2.15,13.27l30.12-14.21-7.37-29.03-3.1-13-4.54-19.73-3.29-14.17-4.08-17.08-4.04-18.97-3.74-17.5c-.6-2.91-1.55-6.24-2.19-9.49-.45-2.42-.76-4.8-.64-6.95.72-12.36,4.88-18.41,6.39-25.62.94-4.72,2.27-9.3,3.67-13.87ZM534.02,433.35c.64-2.42,1.55-4.57,2.8-5.86l6.2,1.66c-1.47,1.66-2.42,2.99-2.99,4.95-.23.87-.19,1.85.3,2,.68.19,2-.91,3.97-2.38,3.74-2.83,5.37-3.21,7.97-2.49,3.29.87,5.48,4.76,3.89,10.54-.49,1.78-1.21,4.04-2.61,5.56l-6.08-1.66c1.21-1.06,2.19-2.83,2.68-4.61.15-.68.08-1.32-.34-1.47-.6-.15-1.59.64-3.06,1.62-4.38,2.99-5.9,3.63-8.77,2.83-4.72-1.29-5.1-6.5-3.97-10.7ZM528.09,456.41l10.17-2.19-8.92-2.46,2.12-7.63,21.96,6.01-2.08,7.63-8.65-2.34,7.37,6.99-2.38,8.77-8.47-8.96-13.76,3.78,2.65-9.6ZM525.07,467.4l22,6.01-2.12,7.67-21.96-6.01,2.08-7.67ZM457.41,470.16c-.53-2.42-.68-4.72-.15-6.46l6.24-1.32c-.53,2.12-.76,3.78-.38,5.74.19.87.64,1.78,1.17,1.66.72-.15,1.4-1.78,2.46-3.93,2.04-4.23,3.33-5.33,5.93-5.86,3.36-.72,7.11,1.74,8.31,7.63.38,1.78.72,4.16.19,6.12l-6.16,1.28c.57-1.51.64-3.51.26-5.33-.15-.68-.53-1.25-.98-1.13-.6.11-1.13,1.29-1.93,2.8-2.57,4.65-3.67,5.93-6.58,6.54-4.76.98-7.48-3.48-8.39-7.75ZM462.63,493.44l8.05-6.61-9.03,1.85-1.63-7.75,22.3-4.65,1.63,7.79-8.77,1.81,9.75,2.91,1.85,8.88-11.6-4.12-10.54,9.64-2-9.75ZM466.56,512.34l-1.63-7.75,22.3-4.65,1.63,7.79-22.3,4.61Z"
            style="fill: rgb(29, 29, 27);"></path>
          <path class="cls-1" d="M527.3,796.21c-.15-.62-.24-1.24-.24-1.85.02.6.09,1.22.24,1.85Z"
            style="fill: rgb(29, 29, 27);"></path>
        </g>
        <path class="cls-1"
          d="M489.1,590.95l5.59-16.54-4.14-3.64,7.07-27.34,27.31,22.6-1.64,4.16c-.42,1.06,2.48,2.49,4.53,3.87l-6.87,3.56,14.84,8.81c1.72-2.68-.89-5.28-3.29-7.34-2.34-2.26,1.5-10.34,3.32-11.78,3.18.68,7.74.9,9.7-.46,2.77-1.92,1.09-7.4-1.88-10.87l-6.8,9.66-4.93-3.19c-1.1-.71.83-3.71,1.35-5.79,2.53-10.11-2.49-10.3,4.41-32.14l21.22,16.93-1.13,3.46c-.22.66,1.98,1.61,3.49,2.52l-4.59,3.5,20.51,13.66c-1.11,1.85-5.27,5.94-7.02,5.02l-5.82-3.08c-1.29-.69-5.85,2.74-5.24,4.04,1.71,3.54,10.18,3.92,14.07,1.68l7.79,5.53c-9.53,6.77-18.38,12.3-28.55,16.56l-17.41,7.29-21.74,9.1c-8.62,3.61-14.49,9.49-25.57,4.27l5.6-13.24c.75-1.77,1.63-4.41,1.79-5.83.16-1.42-3.11-3.06-5.96-4.98Z"
          style="fill: rgb(29, 29, 27);"></path>
        <path class="cls-1"
          d="M405.65,604.45l9.31-14.77-3.17-4.51,13.27-24.92,21.26,28.36-2.57,3.66c-.65.93,1.83,3,3.5,4.82l-7.51,1.85,12.37,12.04c2.3-2.2.37-5.34-1.48-7.9-1.75-2.75,3.88-9.71,5.98-10.68,2.93,1.41,7.31,2.69,9.54,1.83,3.14-1.21,2.79-6.94.72-11l-8.87,7.8-4.05-4.25c-.9-.95,1.68-3.42,2.67-5.31,4.83-9.24-.01-10.6,11.81-30.21l16.67,21.43-1.91,3.1c-.37.59,1.55,2.03,2.8,3.26l-5.28,2.33,16.75,18.09c-1.51,1.54-6.52,4.55-8,3.23l-4.93-4.36c-1.1-.97-6.32,1.29-6.04,2.7.83,3.84,8.98,6.19,13.29,4.92l6.27,7.2c-10.85,4.35-20.75,7.66-31.63,9.41l-18.63,3.01-23.27,3.76c-9.22,1.49-16.31,5.83-25.86-1.84l8.54-11.57c1.14-1.54,2.62-3.9,3.1-5.25.48-1.34-2.3-3.71-4.63-6.24Z"
          style="fill: rgb(29, 29, 27);"></path>
        <path class="cls-1"
          d="M390.37,1039.71l-11.04-21.43,33.07,5.25-51.51-56.73,10.77,1.25-8.43-17.04,24.04,2.34-42.33-50.15c2.53-2.87,6.61-6.88,5.25-9.07l-5.33-8.62,16.89,1.78-38.36-54.12,13.83-3.4-46.07-74.94-56.35,91.57,21.28-2.8-22.11,25.81,26.68,2.08-24.83,29.78-36.89-51.36,16.1.15-46.56-76.68-40.89,66.1-16.21-21.09c4.5.34,8.09,1.21,7.6-.15l-2.31-6.39c-.79-2.12.57-7.18,2.72-6.84l10.39,1.62-40.63-57.94,17.08,2-36.17-59.56-3.51-5.78-7.63-12.59-1.55,2.57-20.86,34.09L1.7,766.31l25.74-5.9-26.72,28.5,26.64,1.81c-9.22,11.64-17.8,22.45-27.36,31.97v261.76h401.52l-40.51-53.89,29.37,9.15ZM94.98,1025.05c.98-20.37,15.53-35.79,29.78-40.93,3.4-1.21,13.27,1.13,14.85,4.27,7.56,14.74-31.52,36.92-44.63,36.66ZM141.39,883.96c-4.91-16.4,6.92-30.5,22.6-28.5-3.36,11.79-9.26,23.77-22.6,28.5ZM160.58,917.15c1.47-2.42,5.97-6.58,9.45-7.9,3.21-1.25,7.29,9.52,5.48,12.4-1.47,2.42-5.82,6.43-9.49,7.9-3.25,1.29-7.29-9.52-5.44-12.4ZM179.03,995.04c-1.47,3.51-3.67,7.6-5.03,9.52-.98,1.47-7.56-2.31-7.97-4.01-.94-3.51-3.44-11.26-1.17-11.94l9.71-2.95c2.27-.68,5.44,7.1,4.46,9.37ZM183.26,883.51c1.59-3.78,3.1-11.91.79-14.63-4.46-5.29-3.02-19.95,2.68-19.01,15.68,2.53,24.49,20.86,20.56,35.56l-15.42-5.93-3.29,8.84c-.53,1.47-5.9-3.4-5.33-4.84ZM196.83,907.05c7.71-3.67,39.76,39.83,42.82,49.85l-18.78-4.91c-.53.72-3.25,7.52-5.14,6.84l-8.24-3.06c-22.26-8.13-23.7-52.27-10.66-48.72ZM211.53,1038.39c-6.01-5.52-12.36-13.08-15.87-19.46-1.4-2.61,4.08-13.04,6.92-11.56,8.35,4.38,16.02,20.22,8.96,31.03ZM242.86,1013.41c-3.06,10.05-38.06-7.82-41.84-32.24,15-1.36,46.75,15.8,41.84,32.24ZM366.71,1000.1c-14.59-6.43-24-13.45-24.79-24.41-.15-1.81,5.82-.87,8.09-.42,11.72,2.49,20.86,11.38,16.7,24.83ZM352.42,928.56c-16.59,1.78-32.65-4.65-39.34-20.6-2.23-5.37-.68-13.95,4.69-16.06,10.58-4.12,35.03,23.55,34.66,36.66ZM318.26,834.94c4.69,7.26,9.22,20.45,8.5,28.23-.26,3.02-10.17,5.56-11.75,3.21l-7.71-11.26c-4.08-5.93-6.65-13.42-7.6-20.26l18.56.08ZM297.81,920.58c.79-4.27,7.82-14.32,9.83-11.83,3.48,4.35,6.58,8.28,6.73,11.04.11,2.72-4.16,7.22-6.8,7.82-2.68.6-10.28-4.08-9.75-7.03ZM343.17,1053.2l-5.78,7.29c1.51-1.89-18.71,2.27-25.66-26.3-2.61-10.85-3.25-18.37,2.65-29.1,16.78,5.29,38.51,38.47,46.26,52.84l-17.46-4.72Z"
          style="fill: rgb(29, 29, 27);"></path>
        <g>
          <g>
            <path class="cls-1"
              d="M183.19.01l-3.51,13.83L175.78.01h-6.39l-4.04,13.98L161.95.01h-10.96l9.11,30.69h7.9l4.54-14.36,4.5,14.36h7.9L194.03.01h-10.85Z"
              style="fill: rgb(29, 29, 27);"></path>
            <path class="cls-1"
              d="M225.14,55.73v17.69h-11.38v-14.13c0-2.37-1.14-3.47-3.17-3.47-1.9,0-3.41,1.37-3.41,3v14.6h-11.38v-36.99l.06-9.29V0h10.7v36.43h.04v14.79c.86-1.7,3.76-5.45,8.92-5.45s9.64,3.8,9.64,9.95Z"
              style="fill: rgb(29, 29, 27);"></path>
            <path class="cls-1"
              d="M230.01.01v12.59L220.07.01h-10.05v30.69h10.7v-12.85l10.09,12.85h9.9V.01h-10.7Z"
              style="fill: rgb(29, 29, 27);"></path>
            <path class="cls-1" d="M242.82.01v9.68h4.16v21.01h10.7V9.69h4.16V.01h-19.01Z"
              style="fill: rgb(29, 29, 27);"></path>
            <path class="cls-1"
              d="M274.68,21.02v-1.89h8.5v-7.6h-8.5v-1.85h9.64V.01h-20.33v30.69h20.64v-9.67h-9.94Z"
              style="fill: rgb(29, 29, 27);"></path>
            <path class="cls-1"
              d="M308.66,18.72c2.57-1.7,4.46-4.16,4.46-7.45C313.12.43,304.65.01,298.68.01h-10.96v30.69h10.66v-9.18h.38l4.8,9.18h12.55l-7.45-11.98ZM299.29,14.86h-.91v-6.08h.91c1.55,0,3.44.3,3.44,2.87s-1.28,3.21-3.44,3.21Z"
              style="fill: rgb(29, 29, 27);"></path>
          </g>
          <g>
            <path class="cls-1"
              d="M243.77,45.06c-9.37,0-16.55,6.27-16.55,14.74s7.18,14.74,16.55,14.74,16.55-6.24,16.55-14.74-7.14-14.74-16.55-14.74ZM243.77,64.68c-2.61,0-4.65-1.97-4.65-4.88s2.04-4.84,4.65-4.84,4.65,2.04,4.65,4.84-2.04,4.88-4.65,4.88Z"
              style="fill: rgb(29, 29, 27);"></path>
            <path class="cls-1" d="M262.51,36.44v36.96h11.38v-36.96h-11.38Z"
              style="fill: rgb(29, 29, 27);"></path>
            <path class="cls-1"
              d="M276.95,36.44v7.29h11.38v-7.29h-11.38ZM276.95,46.19v27.21h11.38v-27.21h-11.38Z"
              style="fill: rgb(29, 29, 27);"></path>
            <path class="cls-1"
              d="M310.89,36.44v13.76c-1.89-3.06-4.88-4.91-8.54-4.91-6.69,0-11.83,6.27-11.83,14.78s5.14,14.25,11.83,14.25c4.27,0,7.45-2.08,9.3-5.56v4.65h10.62v-36.96h-11.38ZM306.77,64.6c-2.38,0-4.38-2.08-4.38-4.8s2-4.76,4.38-4.76,4.5,1.93,4.5,4.76-2.08,4.8-4.5,4.8Z"
              style="fill: rgb(29, 29, 27);"></path>
            <path class="cls-1"
              d="M337.27,45.55c-3.82,0-6.35.23-9.83.87v8.84c3.14-.6,5.37-.91,6.73-.91,3.55,0,5.78.6,5.78,4.27v1.47c-1.51-1.4-3.82-2.34-6.99-2.34-5.78,0-8.96,3.82-8.96,8.47s3.17,8.09,8.96,8.09c3.82,0,6.35-1.89,7.75-3.97v3.06h10.62v-17.16c0-6.77-5.1-10.7-14.06-10.7ZM337.87,68.57c-1.4,0-2.27-1.17-2.27-2.53s.87-2.53,2.27-2.53,2.19,1.13,2.19,2.57c0,1.36-.87,2.49-2.19,2.49Z"
              style="fill: rgb(29, 29, 27);"></path>
            <path class="cls-1"
              d="M373.55,46.19l-4.8,15.84-5.03-15.84h-12.93l12.02,28.76-3.02,8.88h11.79l13.87-37.64h-11.91Z"
              style="fill: rgb(29, 29, 27);"></path>
            <path class="cls-1"
              d="M399.25,56.02c-1.21-.94-1.81-1.44-1.81-1.81,0-.26.26-.45,1.06-.45s3.17.19,5.82,1.17v-8.81c-1.93-.57-4.16-.83-6.99-.83-8.58-.08-11.87,3.89-11.87,8.54,0,2.76.91,4.99,6.76,9.11,1.74,1.32,2.34,2,2.34,2.46,0,.26-.19.45-.98.45-1.59,0-4.23-.45-6.99-1.55v8.73c2.19.72,5.22,1.28,8.54,1.28,7.94,0,11.79-4.08,11.79-8.54,0-2.91-1.4-5.22-7.67-9.75Z"
              style="fill: rgb(29, 29, 27);"></path>
          </g>
        </g>
      </g>
    </g>
  </g>
</svg>