<?xml version="1.0" encoding="UTF-8"?>
<svg id="Calque_1" data-name="Calque 1" xmlns="http://www.w3.org/2000/svg"
  viewBox="0 0 197.45 297.85" width="197.45" height="297.85">
  <path
    d="M136.75,291.76c5.47,1.05,11.01,2.36,16.63,3.13,5.61.77,11.29.99,16.77,1.43-3.61,3.57-27.08.46-33.41-4.56"
    fill="#010101" />
  <path
    d="M96.14,238.18c-.57.29-1.13.82-1.72.84-4.19.21-8.39.26-12.58.46-4.48.22-8.47-1.79-12.72-2.62-1.33-.26-2.6-.9-3.84-1.48-.42-.2-.67-.76-.88-1.33,10.48,2.32,20.76,5.37,31.66,3.49.02.21.05.42.08.62"
    fill="#010101" />
  <path
    d="M98.56,289.86c10.12.78,19.98-.32,29.69-3.54-.74,1.65-7.62,4.19-14.46,5.37-5.22.9-10.34.58-15.22-1.83"
    fill="#010101" />
  <path
    d="M183.87,229.91c-.4.07-.82.25-1.2.19-4.84-.74-9.67-1.58-14.51-2.25-1.03-.14-2.16.25-3.23.49-2.7.61-5.37,1.32-8.08,1.87-.92.19-1.9,0-2-1.44,4.19-.02,7.99-1.11,11.73-2.57.61-.24,1.45.06,2.17.19,4.13.73,8.26,1.48,12.39,2.24.92.17,1.83.41,2.74.62,0,.22,0,.44,0,.65"
    fill="#010101" />
  <path d="M131.54,235.92c-1.7,1.85-8.69,2.12-10.57,0h10.57Z" fill="#010101" />
  <path
    d="M150.43,213.68c-.13,1.94-.35,2.16-2.32,2.32-.24.02-.56.14-.68.32-1.15,1.76-2.65.71-4.03.5-.26-.04-.45-.42-.7-.61-.52-.4-1-.92-1.59-1.16-1.37-.54-1.51-1.8-.95-2.61,1.45-2.07,1.61-4.52,2.44-6.76.7-1.9,3.76-2.87,5.37-1.69.53.39,1.01,1.38.92,2.01-.27,1.89.1,3.55.96,5.21.37.73.4,1.63.59,2.45M148.71,215.42c.65-2.21-.33-5.57-1.84-6.5-.65-.4-1.66-.62-2.37-.43-1.16.31-2.61,3.47-2.39,5.05.58-.68,1.1-1.18,1.49-1.78,1.19-1.84,2.16-1.82,3.22.12.59,1.08,1.17,2.18,1.89,3.53M144.58,206.82c1,.36,1.78.64,2.55.92.16-.08.33-.17.49-.25-.29-.91-.35-2.38-.92-2.62-1.36-.57-1.6.84-2.12,1.95"
    fill="#010101" />
  <path d="M145.44,138.93c3.87-2.04,7.91-3.47,12.32-3.67-3.94,1.78-8.01,3.14-12.32,3.67"
    fill="#010101" />
  <path
    d="M146.36,141.88l10.73-3.49c.06.16.11.33.16.49-3.23,2.15-6.84,3.2-10.68,3.57-.07-.19-.14-.38-.21-.58"
    fill="#010101" />
  <path
    d="M146.92,150.6c3.04-1.04,6.08-2.08,9.12-3.12.07.21.14.41.21.62-2.89,1.52-5.78,2.99-9.15,3.11-.06-.2-.12-.4-.18-.61"
    fill="#010101" />
  <path
    d="M156.04,152.78c-2.94,1-5.88,2.01-8.82,3.01-.05-.15-.1-.29-.15-.44,2.58-2.02,5.54-2.96,8.75-3.19.07.2.14.41.22.62"
    fill="#010101" />
  <path
    d="M147.48,145.88c2.86-.93,5.73-1.85,8.59-2.78.07.2.13.39.2.59-2.57,1.77-5.53,2.41-8.54,2.92-.08-.24-.17-.49-.25-.73"
    fill="#010101" />
  <path d="M148,159.34c2.66-1.89,5.47-2.66,8.4-3.5-.84,1.71-5.18,3.52-8.4,3.5" fill="#010101" />
  <path
    d="M145.79,164.44c2.47-.93,4.94-1.85,7.41-2.78.08.2.15.4.23.6-2.19,1.66-4.6,2.76-7.42,2.81-.07-.21-.14-.42-.21-.62"
    fill="#010101" />
  <path d="M144.51,180.83c1.79-2.2,4.3-2.73,6.98-2.87-1.98,1.75-4.5,2.24-6.98,2.87" fill="#010101" />
  <path d="M152.81,167.45c-1.98,1.75-3.92,2.44-6.38,2.76,1.77-1.88,3.73-2.55,6.38-2.76"
    fill="#010101" />
  <path
    d="M145.08,174.89c2.04-.8,4.08-1.6,6.12-2.4.07.16.13.33.2.49-1.71,1.6-3.78,2.33-6.09,2.5-.08-.2-.15-.39-.23-.59"
    fill="#010101" />
  <path d="M147,184.07c1.81-.94,3.61-1.88,5.42-2.83-.76,1.94-2.59,3-5.12,3.32-.1-.16-.2-.33-.3-.49"
    fill="#010101" />
  <path
    d="M143.74,201.61c2.02-1.49,4.21-2.6,6.69-3.02.05.12.11.24.16.36-2.22,1.03-4.43,2.05-6.65,3.08-.07-.14-.14-.28-.2-.42"
    fill="#010101" />
  <path
    d="M148.33,222.22c-2.22,1.19-4.44,2.39-6.66,3.58-.11-.21-.22-.41-.33-.62l6.7-3.5c.09.18.19.36.29.53"
    fill="#010101" />
  <path
    d="M141.83,220.87c1.91-.96,3.82-1.93,5.73-2.9.11.22.22.44.32.67-1.93.92-3.86,1.84-5.8,2.75l-.25-.52Z"
    fill="#010101" />
  <path
    d="M149.56,195.3c-1.51.62-3.03,1.25-4.54,1.87-.09-.21-.17-.42-.26-.63,1.5-.6,3-1.2,4.5-1.79.1.18.2.37.3.55"
    fill="#010101" />
  <path
    d="M147.41,191.74c-1.18.6-2.37,1.2-3.56,1.81-.1-.21-.2-.41-.3-.62,1.2-.57,2.4-1.14,3.6-1.71.08.18.17.35.26.53"
    fill="#010101" />
  <path
    d="M105.91,200.61c-.79.69-1.58,1.39-2.7,2.37,3.01.23,3.65,2.3,4.39,4.42.65,1.84,1.66,3.56,2.41,5.37.32.77.43,1.64.56,2.47.05.33-.02.79-.21,1.04-.84,1.03-1.75,2-2.63,3-1.28,1.44-3.81.91-4.84-.95-.36-.66-1.02-1.16-1.38-1.82-.33-.61-.54-1.34-.62-2.03-.22-1.82-.41-3.65-.47-5.48-.05-1.58.1-3.16.19-4.74.02-.25.12-.58.31-.71,1.53-1.15,3.08-2.27,4.63-3.4.12.16.25.31.37.47M101.69,215.49c.23.07.47.14.7.21.34-.73.61-1.51,1.05-2.16.45-.67,1.05-1.65,1.64-1.69.7-.05,1.51.7,2.18,1.21.49.38.84.94,1.25,1.42.16-.08.31-.16.47-.24-.19-.74-.23-1.56-.61-2.19-.55-.9-1.31-1.68-2.04-2.46-.45-.48-1.15-1.31-1.47-1.2-.76.26-1.72.87-1.95,1.56-.6,1.78-.85,3.68-1.23,5.53M102.48,207.67c.96-.25,1.81-.48,2.76-.72-.4-1.02-.24-2.44-1.76-2.42-.93,0-1.41,1.68-1,3.15"
    fill="#010101" />
  <path
    d="M98.14,137.39c-2.86,1.8-5.72,3.6-8.58,5.4-.13-.2-.25-.41-.38-.61,2.87-1.77,5.73-3.53,8.6-5.29.12.17.24.33.36.5"
    fill="#010101" />
  <path
    d="M106.92,197.2c-2.59,1.78-5.17,3.57-7.75,5.35-.13-.19-.26-.38-.4-.58,2.6-1.78,5.19-3.56,7.79-5.34.12.19.24.37.36.56"
    fill="#010101" />
  <path
    d="M98.25,133.94c-2.74,1.66-5.48,3.33-8.22,4.99-.12-.2-.24-.39-.36-.59,2.74-1.66,5.48-3.33,8.23-4.99.12.2.24.39.36.59"
    fill="#010101" />
  <path
    d="M113.05,227.84c-2.18,1.42-4.35,2.83-6.53,4.24l-.37-.56c2.15-1.43,4.3-2.86,6.46-4.3.15.2.29.4.44.61"
    fill="#010101" />
  <path
    d="M91.82,146.54c2.2-1.36,4.4-2.73,6.6-4.09.12.2.25.4.37.6-2.2,1.36-4.41,2.71-6.61,4.07-.12-.19-.24-.39-.36-.58"
    fill="#010101" />
  <path
    d="M105.84,227.95c2.16-1.38,4.33-2.75,6.5-4.13.13.19.25.39.37.58-2.17,1.39-4.34,2.77-6.51,4.16-.12-.2-.24-.41-.36-.61"
    fill="#010101" />
  <path
    d="M98.6,193.33c2.28-1.56,4.55-3.11,6.83-4.67.13.18.25.36.38.55-2.28,1.54-4.57,3.09-6.85,4.63-.12-.17-.23-.34-.35-.51"
    fill="#010101" />
  <path
    d="M99.16,139.69c-2.32,1.5-4.65,3.01-6.97,4.51-.1-.15-.2-.3-.3-.45,2.3-1.53,4.61-3.06,6.91-4.59.12.18.24.35.36.53"
    fill="#010101" />
  <path
    d="M99.69,196.8c1.99-1.32,3.99-2.65,5.98-3.97.12.18.24.36.36.54-1.97,1.32-3.95,2.65-5.92,3.97-.14-.18-.28-.36-.42-.54"
    fill="#010101" />
  <path
    d="M93.14,148.71c1.52-.89,3.03-1.79,4.55-2.68.11.19.23.38.34.57-1.51.92-3.01,1.83-4.52,2.75-.12-.21-.25-.42-.37-.63"
    fill="#010101" />
  <path
    d="M110.35,222.62c-1.56,1.01-3.12,2.02-4.68,3.03-.1-.15-.2-.3-.3-.45,1.54-1.04,3.09-2.07,4.63-3.11.12.18.24.36.36.54"
    fill="#010101" />
  <path
    d="M99.03,189.4c1.31-.85,2.61-1.7,3.92-2.55.12.19.25.38.37.58-1.3.83-2.59,1.67-3.89,2.5-.13-.18-.27-.35-.4-.53"
    fill="#010101" />
  <path
    d="M104.32,222.55c.93-.7,1.86-1.4,2.79-2.1.12.15.24.3.36.45-.92.74-1.83,1.48-2.75,2.22-.13-.19-.27-.38-.4-.57"
    fill="#010101" />
  <path
    d="M113.08,258.18c-.89.68-1.78,1.35-2.68,2.03-.13-.16-.25-.33-.38-.49l2.64-2.04c.14.17.28.33.41.5"
    fill="#010101" />
  <path
    d="M40,151.84c.57,1.79,1.14,3.58,1.71,5.37-.14.05-.28.1-.41.14-.63-1.78-1.26-3.56-1.9-5.33.2-.06.4-.12.6-.18"
    fill="#010101" />
  <path
    d="M79.46,104.28c.74,6.18,1.28,12.35,2.25,18.45,1.18,7.42,2.74,14.77,4.08,22.16,1.52,8.34,2.98,16.69,4.47,25.03,1.46,8.13,2.94,16.26,4.37,24.4,1.46,8.34,2.77,16.71,4.32,25.04,2.15,11.58,4.44,23.13,6.68,34.7.27,1.39.6,2.77.9,4.15.16,0,.32,0,.48,0,0-.48.08-.99-.01-1.45-1.45-7.48-2.98-14.95-4.39-22.44-1.71-9.06-3.34-18.13-4.97-27.21-1.49-8.28-2.99-16.56-4.41-24.85-1.45-8.4-2.71-16.84-4.24-25.23-1.51-8.28-3.28-16.51-4.87-24.78-1.97-10.22-3.82-20.45-3.1-30.94.15-2.11.53-4.21.88-6.82-.72,1.26-1.23,2.15-1.88,3.29-.12-.49-.26-.74-.22-.94,1.1-4.94,3.13-9.21,8.27-11.13,4.1-1.53,10.47.35,12.76,3.96,1.04,1.65,1.9,3.43,1.68,5.66-.61,6.1-1.03,12.22-1.39,18.35-.47,7.97.24,15.89,1.43,23.76,1.81,11.97,3.76,23.92,5.7,35.87,2.37,14.58,4.81,29.15,7.17,43.73,2.05,12.63,4.03,25.28,6.05,37.92.75,4.68,1.49,9.37,2.27,14.05.16.98.41,1.97.79,2.88.14.34.79.68,1.18.66.61-.04,1.23-.33,1.8-.61,1.89-.96,3.85-.98,5.72-.16,1.47.64,1.72-.06,1.75-1.19.07-2.82.09-5.65.14-8.48.09-5.01.19-10.02.29-15.02.08-3.57.11-7.15.27-10.72.44-9.86.89-19.72,1.42-29.57.44-8.19.98-16.37,1.52-24.55.57-8.68,1.17-17.35,1.79-26.02.57-7.98,1.14-15.96,1.79-23.94.28-3.45.8-6.89,1.13-10.34.16-1.64-.06-3.34.26-4.94.82-4.01,1.85-7.97,2.79-11.95.12-.5.24-.99.36-1.49-.13-.05-.27-.09-.4-.14-.82,2.08-1.78,4.11-2.4,6.25-.6,2.07-.91,4.24-1.21,6.38-.58,4.11-1.26,8.22-1.57,12.36-.65,8.78-1.1,17.57-1.62,26.36-.51,8.73-.97,17.47-1.53,26.2-.49,7.72-1.17,15.42-1.64,23.14-.5,8.19-.91,16.4-1.27,24.6-.57,13.22-1.06,26.44-1.6,39.66-.03.69-.1,1.37-.15,2.06-.15,0-.3.02-.45.03,0-.79-.02-1.58,0-2.37.35-16.43.39-32.87,1.13-49.28.89-19.66,2.34-39.29,3.62-58.93.65-9.95,1.27-19.92,2.27-29.84.67-6.66.84-13.43,2.7-19.93,1.4-4.88,3.33-9.56,6.25-13.75,1.27-1.83,2.74-3.54,4.25-5.18,3.32-3.62,8.41-4.4,13.58-1.52,3.45,1.93,4.35,4.79,4.03,8.31-.57,6.26-2.4,12.24-4.59,18.08-1.7,4.54-2.54,9.21-3.16,13.96-1.34,10.26-2.66,20.52-3.9,30.79-1.29,10.75-2.47,21.52-3.7,32.28-.76,6.68-1.6,13.34-2.29,20.03-.87,8.48-1.72,16.97-2.37,25.47-.72,9.39-1.23,18.81-1.79,28.21-.13,2.18-.03,4.37-.18,6.56-.09,1.4.46,2.07,1.79,2.31,3.73.65,7.44,1.36,11.17,1.99,1.73.29,3.48.42,5.21.67.38.05.74.3,1.1.45-.03.17-.06.34-.09.52-.64.03-1.29.15-1.91.08-5.5-.63-10.98-1.46-16.49-1.87-3.32-.24-6.28-1.54-9.42-2.26-2.73-.63-5.52-1.02-8.29-1.4-.81-.11-1.74,0-2.51.29-5.96,2.3-12.11,3.63-18.51,3.78-.53.01-1.04.39-1.58.61-.48-.15-1-.41-1.55-.48-4.75-.64-9.49-1.32-14.25-1.84-1.49-.16-3.12-.13-4.53.31-4.77,1.51-9.44,3.35-14.2,4.87-1.9.61-3.96.7-5.84,1.02,0-.97.16-1.75-.03-2.44-.73-2.77-1.67-5.5-2.34-8.28-.49-2.03-.57-4.17-1.05-6.2-1.78-7.52-3.66-15.02-5.5-22.53-.7-2.85-1.4-5.69-2.11-8.54-.18-.74-.39-1.47-.95-2.18-.2,1.02-.44,2.03-.61,3.06-1.45,8.9-2.84,17.8-4.33,26.69-1.1,6.57-2.28,13.13-3.48,19.69-.25,1.34.68,1.34,1.47,1.57,3.9,1.13,7.89.82,11.86.65.31-.01.63,0,.94,0,.03.13.05.26.08.39-.92.16-1.83.42-2.75.46-5.33.28-10.56-.06-15.68-1.92-3.37-1.23-6.92-2-10.4-2.92-.53-.14-1.16-.05-1.71.07-5.43,1.11-10.85,2.26-16.28,3.39-.19.04-.4,0-.76-.3.29-.2.54-.5.86-.57,4.37-1.09,8.75-2.15,13.13-3.23.26-.06.53-.12.76-.25,2.95-1.72,5.97-1.19,8.91-.1,1.57.58,3.05,1.48,4.49,2.37,1.23.76,1.66.46,1.86-.88,1.34-8.75,2.71-17.49,4.08-26.23,1.65-10.59,3.37-21.17,4.91-31.77.23-1.61-.22-3.37-.6-5.01-3.41-14.75-6.88-29.49-10.32-44.24-.4-1.7-.7-3.41-.8-5.19.34.51.68,1.02,1.25,1.88.19-1.11.3-1.79.42-2.47h.51c.08.58.16,1.16.26,1.92.12-.43.21-.72.29-1.01,4.46,13.25,7.32,26.91,10.81,40.4.16-.02.32-.04.48-.07.42-2.6.81-5.21,1.25-7.81,1.71-10.15,3.44-20.3,5.16-30.44.05-.32.08-.64.11-.95.4-5.04.82-10.08,1.17-15.13.04-.51-.13-1.18-.46-1.54-1.77-1.98-1.68-3.95-.05-5.95.82-1.01,1.33-2.44,1.53-3.75.57-3.63.95-7.29,1.31-10.94.12-1.21-.11-2.44-.05-3.66.11-2.37,1.35-3.35,3.67-2.92.83.15,1.67.38,2.45.7,2.88,1.16,3.31,2.05,3.06,5.13-.42,5.3-1.91,10.33-3.52,15.36-.39,1.21-.38,2.66-.16,3.93.27,1.53-.2,2.37-1.62,2.49-1.76.14-2.28.95-1.92,2.59.64,2.9,1.2,5.82,1.86,8.72.59,2.65,1.33,5.26,1.87,7.92.34,1.66.02,3.3-1.5,4.27-1.4.88-2.94.82-4.36-.19-.16-.12-.38-.16-.81-.32-.16.66-.34,1.24-.43,1.83-2.04,13.34-4.12,26.68-6.05,40.03-.24,1.66.2,3.47.58,5.15,3.37,14.98,6.76,29.95,10.22,44.91.78,3.36,1.86,6.65,2.72,9.99.12.47-.19,1.06-.29,1.59-.33-.4-.84-.75-.95-1.2-1.81-7.5-3.54-15.02-5.34-22.52-1.31-5.44-2.7-10.87-4.07-16.29-.09-.35-.34-.65-.51-.98-.16.03-.32.07-.48.1,0,.62-.11,1.27.02,1.87,2.06,9.48,4.11,18.97,6.27,28.43.67,2.95,1.7,5.83,2.5,8.75.28,1.01.36,2.08.57,3.36,2.53-1.03,5.02-1.93,7.4-3.04,4.06-1.89,8.07-3.88,12.06-5.9,1.26-.64,2.34-.71,3.78-.37,4.19.99,8.45,1.67,12.69,2.45.49.09,1.02.01,1.79.01-.63-3.29-1.2-6.32-1.8-9.34-2.08-10.41-4.22-20.8-6.23-31.22-1.91-9.9-3.74-19.81-5.5-29.73-1.89-10.65-3.68-21.33-5.5-32-2.04-12.04-4.16-24.07-6.07-36.13-1.31-8.26-2.37-16.57-3.42-24.87-.27-2.15-.04-4.36-.04-6.62M84.14,99.98c.29-.23.56-.49.88-.67,4.64-2.47,9.29-4.92,13.92-7.4.38-.2,1-.72.96-.8-.36-.69-.79-1.37-1.34-1.91-.16-.15-.84.09-1.2.31-.91.55-1.73,1.25-2.65,1.76-3.38,1.9-6.76,3.8-10.21,5.57-1.03.53-1.25,1.25-1.13,2.18.05.34.53.62.81.92-1.48,1.02-1.05,2.4-.92,3.94,5.75-2.93,11.01-6.23,16.87-8.32-.3.49-.69.84-1.13,1.07-4.81,2.52-9.62,5.04-14.45,7.52-1.63.83-1.9,1.5-1.1,3.11,5.57-2.41,11.14-4.81,16.69-7.23.27-.12.62-.37.67-.61.48-2.36.34-4.69-.27-7.12-.52.18-.77.23-1,.35-2.98,1.54-5.94,3.14-8.96,4.6-2.1,1.01-4.29,1.82-6.44,2.72M155.24,92.66c-2.95,1.44-3.55,4.37-4.82,7.31,5.9-1.17,11.44-2.26,16.97-3.36.04.13.09.26.13.39-.5.24-.96.59-1.49.71-4.73,1.07-9.46,2.11-14.2,3.12-2.03.43-2.76,1.38-2.56,3.67,6.02-1.4,12.04-2.8,18.06-4.2.06.19.11.38.16.57-.67.26-1.32.59-2.01.76-4.97,1.22-9.93,2.44-14.91,3.61-2.14.5-2.61,1.09-2.43,3.47,5.89-1.37,11.79-2.74,17.68-4.1l.14.51c-.47.21-.92.49-1.41.62-5,1.28-10,2.57-15.03,3.76-2.17.51-2.68,1.17-2.32,3.54,5.89-1.34,11.8-2.68,17.7-4.03.04.16.08.31.11.47-.13.08-.24.2-.38.23-5.2,1.36-10.37,2.79-15.6,4.01-2.49.58-3.14,1.28-2.7,3.99,5.71-1.31,11.42-2.62,17.13-3.92.05.15.09.3.13.45-.56.25-1.1.58-1.68.73-4.7,1.18-9.4,2.36-14.12,3.45-2.1.48-2.8,1.65-2.04,3.91,5.55-1.69,11.18-3.09,16.98-3.66-5.19,1.68-10.45,3.08-15.76,4.3-1.36.31-2.14.74-2.12,2.21,0,.56-.13,1.12-.22,1.8,5.18-1.23,10.23-2.42,15.27-3.62l.14.54c-.18.09-.34.2-.53.25-4.61,1.3-9.22,2.61-13.85,3.87-.8.22-1.29.46-1.41,1.4-.46,3.65-1.22,7.28-1.47,10.94-.53,7.93-.75,15.88-1.22,23.82-.76,12.78-1.6,25.55-2.47,38.32-.45,6.54-1.03,13.06-1.55,19.59-.04.55,0,1.11,0,1.93,2.61-1.46,4.94-2.76,7.27-4.06.08.14.16.28.23.42-.47.33-.93.67-1.41.99-1.65,1.08-3.34,2.08-4.93,3.22-1.57,1.13-1.72,1.94-.95,4.13,1.37-.76,2.73-1.5,4.08-2.25l.24.37c-1.01.7-2.04,1.37-3.01,2.12-.98.75-2.12,1.49-1.4,3.07,2.05-.8,2.6-1.35,3.33-3.02.25-.57.58-1.21,1.06-1.55,1.45-1.02,2.99-1.9,4.49-2.85,1.08-.68,2.18-1.32,3.2-2.09.38-.29.54-.88.81-1.33-.17-.15-.34-.3-.52-.46-2.2,1.43-4.4,2.85-6.59,4.28-.09-.13-.17-.25-.26-.38.29-.26.55-.56.87-.77,1.9-1.28,3.82-2.52,5.7-3.82.41-.28,1.04-.78.99-1.09-.3-2.03.65-3.83.87-5.72,1.19-10.06,2.02-20.17,3.13-30.24,1-9.07,2.14-18.12,3.32-27.16.97-7.45,2.03-14.9,3.18-22.33.8-5.15,1.64-10.31,2.78-15.4.78-3.46,2.21-6.77,3.14-10.2.9-3.34,1.68-6.73,2.22-10.15.3-1.95.41-4.16-1.58-5.53-1.31-.9-2.75-1.62-4.16-2.37-2.83-1.51-5.24-.03-7.61,1.22-.43.23-.55,1.06-.82,1.61l.03-.04ZM98.39,107.23l.31.52c-.34.29-.65.65-1.04.87-4.09,2.3-8.13,4.67-12.31,6.8-1.31.66-1.73,1.34-1.52,2.67,1.05,6.58,2,13.17,3.15,19.73,1.97,11.24,4.09,22.45,6.1,33.69,1.61,9.03,3.15,18.07,4.73,27.1,1.5,8.56,3.01,17.11,4.51,25.67.83,4.72,1.51,9.47,2.48,14.16,1.03,5.01,2.31,9.96,3.49,14.93.22.95.46,1.91.75,3.09,1.55-1.21,2.89-2.27,4.24-3.33-.9,1.94-3.07,2.78-4.06,4.59.11.1.22.2.33.29,2.18-1.75,4.36-3.51,6.54-5.27.15.17.3.34.45.51-.58.52-1.14,1.07-1.74,1.57-1.44,1.18-2.92,2.32-4.34,3.52-.68.57-1.18,1.26-.31,2.39,3.01-2.51,5.97-4.98,8.93-7.45.04-.03.06-.09.07-.14.41-2.25.52-4.47-.49-6.75-.64.47-1.19.87-1.74,1.27-.22-.07-.43-.13-.65-.2,2.51-1.97,3.23-3.99,1.2-5.77-.09-1.51-.07-2.63-.24-3.73-.4-2.67-.89-5.32-1.35-8.03-.64.11-1.09.19-2.05.36,1.51-1.19,2.5-2.15,1.15-3.58-.7.44-1.33.83-1.95,1.22-.11-.16-.22-.32-.33-.47.56-.38,1.28-.64,1.63-1.16.37-.54.44-1.33.52-2.02.01-.1-.8-.49-.96-.38-1.95,1.4-3.85,2.88-5.99,4.5.52.1.71.16.91.17,3.83.21,4.38.86,4.71,4.7.11,1.25.7,2.52,1.31,3.64.59,1.08,1.17,2.09.56,3.28-.74,1.45-.55,2.88-.16,4.35.19.72.38,1.45.46,2.19.2,1.89-.09,2.22-1.92,2.63-1.31.3-2.6.69-4.3,1.15-.54-.99-1.38-2.1-1.77-3.35-.76-2.49-1.12-5.1-1.91-7.58-1.01-3.16-1.55-6.27-.32-9.45-.32-.06-.58-.1-.97-.17.23-.32.32-.54.48-.65,2.71-1.78,5.37-3.66,8.18-5.27,1.15-.66,1.49-1.28,1.26-2.51-.51-2.71-.94-5.45-1.39-8.17-1.63-9.94-3.29-19.88-4.85-29.84-2.08-13.22-4.14-26.45-6.08-39.69-1.88-12.89-2.93-25.84-1.71-38.88.03-.33-.09-.68-.15-1.12-5.19,3.09-10.31,5.96-15.93,7.79.14-.37.33-.65.6-.78,4.66-2.35,9.29-4.75,14-7,1.76-.84,2.04-1.09,1.62-3-5.46,2.39-10.96,4.8-16.44,7.22-.32.14-.8.46-.79.7.02,2.08.13,4.15.23,6.54,5.25-2.86,10.06-5.48,14.87-8.1M64.1,173.49c-.22,0-.44-.01-.65-.02-.09.49-.2.97-.27,1.47-1.24,8.49-2.41,16.99-3.73,25.47-1.78,11.47-3.65,22.93-5.5,34.39-1.67,10.31-3.35,20.62-5.06,30.92-.83,5.05-1.77,10.08-2.59,15.13-.08.5.29,1.07.45,1.6.26-.49.67-.95.76-1.47.51-2.88.95-5.78,1.4-8.67,1.12-7.27,2.22-14.54,3.33-21.82.8-5.21,1.57-10.43,2.4-15.63,1.07-6.73,2.2-13.45,3.29-20.18,1.06-6.57,2.05-13.16,3.13-19.73,1.05-6.42,2.19-12.82,3.23-19.23.12-.72-.11-1.49-.19-2.24M66.06,167.8c.09.02.18.03.27.05-.16,1.5-.33,3.01-.49,4.51-.18,1.75.47,2.59,2.09,2.7,1.61.1,2.12-.42,2.12-2.38,0-1.16-.07-2.35-.29-3.48-.5-2.61-1.16-5.19-1.67-7.79-.44-2.24-.76-4.51-1.18-6.76-.07-.36-.37-.68-.56-1.01-.29.32-.6.61-.85.96-.11.16-.13.41-.14.62-.21,4.99-.42,9.98-.6,14.97,0,.18.21.36.4.65.33-1.12.61-2.07.89-3.02M44.07,170.47c1.34,7.59,3.61,14.96,5.34,22.46,1.74,7.55,3.69,15.06,5.55,22.59.18-.03.35-.06.53-.09,0-.73.11-1.47-.02-2.17-.35-1.78-.8-3.53-1.22-5.29-2.07-8.65-4.12-17.3-6.21-25.95-.96-3.95-1.48-8.05-3.97-11.55M71.97,127.76c-1.67-1-2.17-.86-2.52,1-.71,3.7-1.39,7.4-1.96,11.11-.37,2.41-.56,4.86-.74,7.29-.04.52.3,1.06.47,1.59.19-.02.38-.03.57-.05,2.34-6.72,3.55-13.68,4.18-20.96M147.44,267.67c-.15-.18-.31-.37-.46-.55-3.07,1.66-6.14,3.32-9.21,4.98-.09-.16-.18-.33-.28-.49.3-.26.57-.59.9-.78,2.61-1.54,5.25-3.04,7.84-4.6.47-.28.81-.8,1.2-1.21-.16-.19-.31-.38-.47-.57-3,1.74-6.01,3.47-8.99,5.24-1.21.71-1.32,2.01-.64,2.85.33.41,1.9.2,2.69-.19,2.14-1.06,4.17-2.34,6.21-3.58.45-.27.8-.72,1.2-1.09M83.95,96.25c4.48-2.62,8.9-5.21,13.33-7.8-.67-.52-1.38-.78-2.44-.18-3.14,1.81-6.31,3.56-9.55,5.18-1.32.66-1.62,1.51-1.35,2.8M148.14,257.02c-.44-.03-.63-.11-.74-.05-3.19,1.78-6.39,3.55-9.55,5.38-.4.23-.6.82-1.08,1.5.6,0,.83.07.99-.01,3.26-1.75,6.53-3.5,9.74-5.33.35-.2.41-.92.64-1.49M143.86,242.54c.65-.33,1.8-.53,2.13-1.16.93-1.79,1.17-3.77-.06-5.59-.69-1.02-1.76-.95-2.41-.8.11,2.47.22,4.78.34,7.54M107.27,231.43c.3,1.49.47,2.65.79,3.76.12.4.74,1.06.88,1,.79-.33,2.11-.81,2.14-1.29.06-1.26-.28-2.64-.81-3.8-.26-.58-1.29-1.02-2-1.08-.32-.03-.73,1.03-.99,1.42M137.2,256.27c.22.23.43.46.65.7,3.37-2.21,6.75-4.39,10.08-6.66.39-.26.43-1.03.76-1.88-3.41,2.1-6.37,3.87-9.27,5.74-.84.54-1.49,1.39-2.22,2.1M142.26,243.73c-.31,1.43-.66,2.73-.82,4.04-.05.42.33,1.26.61,1.31,1.14.18,2.39.02,2.79-1.25.4-1.27.44-2.66.66-4.1h-3.24ZM107.81,243.02c.17.05.34.1.51.15.56-.74,1.52-1.45,1.57-2.23.06-.93-.49-2.02-1.06-2.84-.88-1.26-1.99-2.34-3.19-3.71.74,2.93,1.46,5.78,2.18,8.63M111.05,269.05c.18.12.37.25.55.37,2.91-2.36,5.84-4.7,8.71-7.11.26-.22.21-.83.33-1.4-.47.08-.66.06-.76.14-2.77,2.24-5.53,4.48-8.26,6.77-.31.26-.39.81-.57,1.23M137.07,260.43l.43.76c3.93-1.51,7.4-3.82,10.68-6.46-4.07,1.26-7.59,3.47-11.11,5.71M112.06,243.82c-2.76,0-2.81.06-2.45,2.41.06.42.14.84.16,1.26.06,1.11.64,1.45,1.69,1.29,1.1-.17,1.62-.62,1.28-1.82-.29-1.01-.45-2.05-.68-3.15M121.16,265.52c-.31.08-.66.07-.87.24-2.69,2.16-5.37,4.34-8.01,6.56-.27.22-.28.76-.51,1.44,3.3-1.66,9.34-6.99,9.38-8.24M147.44,260.15c-2.85.54-9.64,4.63-10.09,6.01,2.41-.37,9.77-4.67,10.09-6.01M119.78,255c-.1-.13-.19-.25-.29-.38-.15-.02-.36-.11-.43-.05-2.91,2.37-5.83,4.74-8.7,7.16-.18.15-.07.66-.1,1.01.15.08.31.16.46.23,3.02-2.66,6.04-5.31,9.06-7.97M145.02,233.75c.15-1.26.4-2.4.35-3.53-.02-.53-.52-1.29-1-1.49-.87-.37-1.62.04-2.01,1.01-.84,2.08-.17,3.27,2.66,4.01M148.33,251.42c-3.71,2.24-7.12,4.28-10.51,6.37-.21.13-.24.56-.41.98,3.06-.7,10.55-5.53,10.91-7.34M140.35,245.61c.18.01.36.03.53.04.15-1.71.15-3.32,1.48-4.8,1.24-1.37.37-4.29-1.33-5.22-.23,3.42-.46,6.7-.68,9.99M110.91,266.85c.18.12.37.24.55.35,3.02-2.69,6.04-5.37,9.05-8.06-.17-.2-.33-.39-.5-.59-2.98,2.44-5.96,4.87-8.91,7.35-.19.16-.13.63-.19.95M147.28,263.21c-.06-.14-.12-.27-.18-.41-.19-.01-.42-.1-.57-.03-3.08,1.62-6.16,3.25-9.21,4.93-.19.1-.17.58-.25.89l.32.29c3.3-1.89,6.59-3.78,9.89-5.66M69.99,143.9c.19.05.39.09.58.14.59-2.18,1.24-4.34,1.75-6.54.59-2.57,1.09-5.16,1.57-7.76.07-.39-.24-.84-.37-1.27-.18.04-.37.07-.55.11-.41,2.32-1.16,4.65-1.12,6.96.03,1.89-.39,3.53-.97,5.23-.35,1.03-.59,2.09-.87,3.13M120.05,257.3c-.19-.23-.39-.46-.58-.69-1.05.84-2.1,1.66-3.14,2.52-1.11.91-2.17,1.87-3.29,2.77-2.42,1.94-2.43,1.93-2.25,3.16,3.17-2.65,6.21-5.2,9.26-7.75M144.5,250.1c-3.4-.26-5.7,1.31-7.41,3.81.14.22.27.44.41.65l7-4.46ZM107.57,259.33c-.24.03-.49.07-.73.11.91,4.9,1.82,9.8,2.73,14.69.21-.04.41-.08.62-.12-.87-4.89-1.75-9.79-2.62-14.68M111.45,270.87c.2.2.39.41.59.61,2.94-2.53,5.88-5.05,8.83-7.58-.12-.14-.25-.29-.37-.43-2.83,2.67-6.41,4.48-9.04,7.39M111.36,242.45c1.08-.09,1.85-.68,1.66-1.78-.19-1.11-.77-2.15-1.18-3.22-.46.24-1.32.53-1.3.72.16,1.37.5,2.73.82,4.29M84.34,92.49c.15.09.29.17.44.26l9.23-5.29c-.67-.19-1.3-.14-1.83.12-2.09,1.01-4.19,2.03-6.22,3.18-.66.37-1.09,1.14-1.62,1.73M137.59,236.07c2.75-1.06,3.41-2.24,2.46-4.26-2.77,1.88-2.87,2.04-2.46,4.26M145,226.49c.06.21.12.42.17.62.58-.07,1.3.06,1.7-.24,1.26-.93,3.07-1.36,3.47-3.16-.13-.16-.25-.32-.37-.48-1.66,1.08-3.31,2.17-4.97,3.25M65.45,149.5c-.82.8-.58,1.59.26,2.28,1.12.93,2.54.78,3.31-.28-1.15-.65-2.31-1.3-3.56-2M140.51,273.04c1.34.63,5.75-2.03,6.43-3.69-2.34,1.34-4.39,2.52-6.43,3.69M113.5,274c.11.15.21.3.32.45,2.25-2.39,5.48-3.58,7.62-6.12-.12-.15-.24-.29-.35-.44-2.53,2.04-5.05,4.07-7.58,6.11M149.99,225.67c-1.05.8-2.02,1.48-2.93,2.24-.17.14-.18.56-.15.84.01.12.32.27.5.28,1.08.07,2.77-1.93,2.57-3.36M137.21,239.54c2.16-.47,2.94-1.71,2.19-3.46-.83,1.1-2.44,1.65-2.19,3.46M115.99,273.84c.15.19.29.38.44.57,1.69-1.34,3.38-2.67,5.07-4.01-.11-.15-.22-.29-.33-.44-1.73,1.29-3.45,2.58-5.17,3.88M149.47,233.8c-1.85.57-2.41,1.49-1.63,2.72,1.9-.76,1.95-.85,1.63-2.72M146.96,243.32c2.34-1.19,2.47-1.4,1.81-2.95-.81.81-2.13,1.24-1.81,2.95M146.24,245.83c2.31-.07,3.04-.96,2.37-2.51-.83.88-1.6,1.7-2.37,2.51M150.01,228.94c-1.88.4-2.54,1.23-1.89,2.52.81-.72,2.09-.98,1.89-2.52M149,246.93c-.18-.24-.36-.47-.55-.71-.88.72-1.77,1.44-2.65,2.16.13.17.26.34.39.51.94-.65,1.87-1.31,2.81-1.96M139.33,240.11c-.14-.08-.28-.16-.42-.25-.51.81-1.02,1.62-1.54,2.43,1.89-.1,2.06-.35,1.96-2.18M137.29,251.2c.14.15.28.31.42.46.85-.88,2.42-.98,2.75-2.42-.11-.12-.21-.24-.32-.36l-2.86,2.32ZM90.25,87.18c-.1-.2-.2-.39-.31-.58-1.25.73-2.49,1.46-3.74,2.18.09.15.18.3.27.46,1.26-.68,2.52-1.37,3.78-2.05M121.93,272.13c-.14-.17-.28-.33-.43-.5-.86.7-1.73,1.4-2.59,2.11.14.17.28.34.42.51.87-.7,1.73-1.41,2.6-2.11M147.96,239.33c.17.12.34.24.51.36.39-.73.78-1.46,1.35-2.52-1.9.25-2.19,1.01-1.86,2.16M143.93,273.3c.13.21.26.43.39.64.81-.57,1.62-1.15,2.43-1.72-.13-.19-.26-.38-.39-.57-.81.55-1.62,1.1-2.43,1.65"
    fill="#010101" />
  <path
    d="M44.24,166.41c-2.83.81-3.7-1.27-4.79-3.15-2.19-3.79-2.26-8.05-2.88-12.19-.25-1.68-.39-3.39-.54-5.09-.1-1.09-.87-1.34-1.69-1.2-1.7.29-2.66-.49-2.78-2.26-.17-2.49-.12-5.07-.77-7.44-1.02-3.71-2.55-7.29-3.86-10.92-.25-.7-.62-1.37-.75-2.09-.21-1.23.16-2.2,1.54-2.56,1.49-.38,2.94-.89,4.44-1.22,1.1-.24,1.84.29,2.1,1.43.69,2.99,1.4,5.98,2.08,8.98.92,4.05,1.87,8.03,4.05,11.69,1.24,2.09,1.11,2.99-.93,4.08-.75.4-.87.88-.45,1.54.8,1.26,1.68,2.47,2.43,3.75,2.12,3.62,4.33,7.2,6.23,10.93,1.19,2.34-.07,4.79-2.52,5.64-.28.1-.61.05-.92.07M38.09,146.79c-.23.08-.45.16-.68.25.82,4.25,1.55,8.53,2.49,12.75.3,1.36,1,2.68,1.78,3.85.75,1.14,1.99,1.65,3.36,1.07,1.34-.56,1.36-1.77,1.21-2.99-.06-.47-.15-.95-.29-1.4-1.61-5.12-5.19-9.06-7.87-13.54M35.52,142.32c.2-.03.4-.06.6-.09.03-.43.16-.89.06-1.28-1.62-6.05-3.28-12.1-4.9-18.15-.27-1.01-.86-1.07-1.69-.79-.89.29-1.07.71-.69,1.67,2.29,5.8,5.31,11.36,6,17.71.03.33.41.62.64.93M33.13,140.56c.87-4.7-1.77-8.48-3.3-12.53,1.09,4.15,2.18,8.3,3.3,12.53"
    fill="#010101" />
  <path
    d="M63.34,71.87c-2.63,4.27-5.25,8.55-7.88,12.82l-.46-.28c2.58-4.32,5.15-8.64,7.73-12.96.2.14.4.28.61.42"
    fill="#010101" />
  <path
    d="M137.07,54.06c-2.42,2.88-4.85,5.76-7.28,8.64-.14-.11-.27-.22-.41-.33,2.38-2.9,4.76-5.81,7.15-8.71.18.13.36.27.53.4"
    fill="#010101" />
  <path
    d="M138.6,59.64c-2.16,2.21-4.31,4.41-6.47,6.62-.11-.11-.23-.22-.35-.33,2.09-2.26,4.17-4.51,6.26-6.77.19.16.37.32.56.48"
    fill="#010101" />
  <path
    d="M51.52,78.29c-1.45,2.43-2.9,4.86-4.35,7.29-.25-.16-.51-.33-.76-.5,1.72-2.25,3.44-4.5,5.15-6.76l-.04-.04Z"
    fill="#010101" />
  <path
    d="M45.97,82.01c1.21-1.74,2.41-3.48,3.62-5.21.13.09.26.18.39.26-1.2,1.73-2.39,3.45-3.59,5.18-.14-.08-.28-.15-.42-.23"
    fill="#010101" />
  <path
    d="M153.38,103.1c4.23-.96,8.46-1.92,12.69-2.88.05.2.1.41.14.62-4.05,1.71-8.27,2.72-12.67,2.96l-.17-.69Z"
    fill="#010101" />
  <path
    d="M155.21,99.56c4.39-1.55,7-2.07,8.54-1.65-.19.22-.33.53-.52.57-2.44.51-4.88.98-7.33,1.43-.19.03-.43-.26-.65-.39,0,0-.04.04-.04.04"
    fill="#010101" />
  <path
    d="M98.86,118.83c-3.79,2.8-8.07,4.74-12.25,6.87-.11-.19-.22-.37-.32-.56,4.05-2.35,8.1-4.7,12.14-7.05.14.25.29.49.43.74"
    fill="#010101" />
  <path
    d="M97.75,123.39c-3.54,2.02-7.07,4.03-10.61,6.05-.13-.24-.27-.48-.4-.71,3.57-1.96,7.13-3.93,10.7-5.89.1.18.2.37.31.55"
    fill="#010101" />
  <path
    d="M98.05,130.34c-3.4,2.11-6.8,4.21-10.19,6.32-.13-.2-.25-.4-.38-.61,3.42-2.08,6.83-4.17,10.25-6.25.11.18.21.36.32.54"
    fill="#010101" />
  <path
    d="M87.29,132.47c3.23-1.84,6.46-3.67,9.7-5.51.1.17.2.34.3.5-3.2,1.89-6.39,3.78-9.59,5.67-.13-.22-.27-.45-.4-.67"
    fill="#010101" />
  <path
    d="M81.94,26.37l1.47-4.23c-.17-.09-.35-.18-.52-.28-.63.89-1.34,1.73-1.88,2.67-2.84,5.01-6.42,9.46-10.56,13.41-.71.68-1.9.87-2.51,1.9-.57.95-1.38,1.76-2.35,2.42,1.11-1.67,2.23-3.34,3.35-5,.1-.15.36-.37.41-.34,1.33.84,1.65-.52,2.24-1.09,3.71-3.54,6.62-7.7,9.13-12.14.18-.32.35-.66.52-.98l-.3-.33c-.47.4-1.01.75-1.4,1.22-2.68,3.28-5.27,6.63-8,9.86-1.05,1.25-2.31,2.39-4.1,2.54v.02c.25-.51.49-1.03.79-1.7.2.32.35.54.33.52,1.56-1.39,3.36-2.67,4.76-4.29,2.19-2.54,4.13-5.31,6.15-7.99.51-.68.95-1.42,1.42-2.13.63-.96.38-1.67-.58-2.19-4.69,5.51-7.52,12.53-14.19,16.27.69-.67,1.33-1.38,2.07-1.99,2.7-2.2,4.76-4.88,6.23-8.03.15-.32.49-.55.77-.8,1.97-1.87,3.34-4.11,4.11-6.71.03-.1-.09-.25-.24-.62-1.79,2.11-3.49,4.12-5.19,6.13.8-1.37,1.6-2.74,2.41-4.11-.1-.06-.21-.13-.31-.2-.86,1.27-1.73,2.55-2.57,3.84-.02.02.33.28.51.43-.87,3.23-3.34,5.36-5.36,7.8-.09.1-.25.26-.33.24-1.63-.48-1.64,1-1.94,1.8-.5,1.34-.61,2.81-1.05,4.18-.3.93-.9,1.77-1.37,2.65-.96,1.77-1.74,3.51-3.78,4.6-1.49.79-2.42,2.62-3.62,3.98-2.26,2.57-4.51,5.13-6.78,7.68-.72.81-1.46,1.59-2.19,2.39l-.28-.23c.89-1.07,1.78-2.14,2.67-3.21,3.37-4.05,6.86-8,10.06-12.17,2.44-3.17,4.5-6.66,5.24-10.68.4-2.15,1.65-3.67,3-5.21,1.1-1.25,2.19-2.52,3.24-3.81.43-.53.75-1.16,1.3-2.03-1.3.36-2.23.66-3.18.86-.35.07-.74-.11-1.12-.18.25-.42.4-.95.75-1.22,1.59-1.21,3.23-2.35,4.87-3.49,2.72-1.89,4.09-4.51,4.23-7.99-.92.83-1.75,1.57-2.57,2.32-.18-.14-.37-.29-.55-.43,1.73-2.14,3.2-4.37,2.96-7.36-.31.11-.56.14-.72.27-3.72,3.3-7.53,6.52-11.13,9.95-7.14,6.78-15.11,12.5-22.94,18.42-.98.74-1.66,1.88-2.67,2.55-5.33,3.6-8.29,9.23-12.15,14.07-3.52,4.41-7.38,8.45-11.65,12.15-2.48,2.14-4.68,4.61-7.18,6.74-1.73,1.47-3.73,2.6-5.63,3.86-.15.1-.42.01-.94.01.37-.48.55-.8.8-1.02,4.18-3.75,8.53-7.33,12.51-11.28,4.28-4.25,8.29-8.79,12.26-13.35,1.61-1.85,2.83-4.05,4.13-6.14.39-.63.46-1.47.5-2.31-5.65,8.79-13.26,15.71-20.82,22.68-.09.08-.34-.01-.68-.03,1.79-1.69,3.51-3.22,5.12-4.86,3.83-3.89,7.65-7.79,11.4-11.77,1.1-1.17,1.99-2.55,2.82-3.93,1.57-2.62,3.02-5.3,4.52-7.96.03-.05-.05-.16-.1-.3-2.42,3-4.82,5.98-7.22,8.96l.04.03c.6-1.01,1.16-2.06,1.82-3.03,1.25-1.85,2.56-3.65,3.83-5.49.15-.21.21-.48.31-.73-.13-.09-.26-.18-.39-.26-.89,1.26-1.78,2.52-2.66,3.78-.08-.06-.17-.13-.26-.19.61-1.09,1.23-2.18,1.87-3.34-1.54.65-2.5,2.54-2.24,3.97-2.65,1.47-3.49,4.47-5.9,6.04l2.41-3.37c-.07-.07-.14-.14-.21-.21-.54.41-1.07.81-1.61,1.22-.08-.07-.17-.13-.25-.2,1.55-2.09,3.1-4.18,4.66-6.27-.1-.11-.2-.22-.29-.33-8.59,9.03-19.27,15.28-29.45,22.29.58-.62,1.08-1.34,1.75-1.84,1.98-1.47,4.06-2.82,6.06-4.28,8.06-5.91,16.37-11.52,23.03-19.13.29-.33.88-.57,1.32-.57,1.85.02,3.71.08,5.56.24,2.09.18,4.02-.26,5.91-1.08.26-.11.55-.26.81-.24,2.73.23,4.63-1.33,6.58-2.91,3.47-2.81,7.11-5.43,10.51-8.31,4.82-4.09,9.51-8.35,14.24-12.54.93-.82,1.83-1.66,2.73-2.51.6-.57,1.03-.45,1.52.18.39.5.91.91,1.41,1.3,2.05,1.63,4.21,3.12,6.14,4.87,5.41,4.89,10.11,10.47,15,15.87,1.67,1.84,3.76,3.22,6.06,4.4,1.95,1,3.62,2.74,5.09,4.42,1,1.15,1.77,1.75,3.2.96,3.12-1.72,6.39-3.22,9.35-5.18,4.88-3.22,9.57-6.71,14.33-10.11,1.76-1.26,4.14-1.1,5.76.31,4.03,3.54,8.18,6.96,12.14,10.57,3.51,3.21,6.76,6.72,10.28,9.92,2.21,2,4.67,3.73,7.12,5.45.64.45,1.63.61,2.44.56,2.1-.13,3.64.34,5.22,2.06,2.5,2.74,5.92,4.39,9.4,5.73,1.48.57,3,1.06,4.5,1.59-.05.16-.09.31-.14.47-1.18-.32-2.35-.65-3.7-1.02.13.47.24.82.45,1.58-1.06-.15-1.95-.12-2.7-.43-1.48-.61-2.9-1.4-4.33-2.14-.68-.35-1.06-.18-1.54.44-2.76,3.58-5.57,7.12-8.37,10.66-.11.14-.27.25-.62.22,2.97-4.02,5.94-8.05,8.88-12.04-1.51-1.78-1.78-1.79-3.08-.21-1.88,2.28-3.74,4.57-5.6,6.86-.35.43-.69.88-1.03,1.32-.15-.13-.31-.26-.46-.4,2.41-3.08,4.83-6.17,7.36-9.39-.43-.05-.52-.04-.59-.07-2.09-1.05-2.63.76-3.5,1.91-1.15,1.53-2.26,3.08-3.39,4.62-.15-.1-.3-.2-.45-.31.48-.72.95-1.45,1.45-2.15.92-1.28,1.88-2.52,2.78-3.8.45-.64,1.09-1.3.05-2.05-.96-.7-1.38.05-1.86.61-1.39,1.63-2.77,3.27-4.15,4.91-.35.41-.7.82-1.06,1.24-.13-.11-.26-.21-.39-.32,1.91-2.45,3.83-4.9,5.73-7.34-.53-.93-1.15-.98-1.71-.23-.75,1.01-1.31,2.18-2.11,3.14-1.1,1.32-2.35,2.51-3.74,3.65.58-.91,1.16-1.81,1.74-2.72.32-.51.91-1.06.11-1.56-.7-.44-1.51-.96-2.19.15-.34.54-.79,1.02-1.2,1.52l-.32-.22c.34-.52.66-1.04,1.01-1.54.38-.54.75-1.09,0-1.57-.67-.42-1.33-1.32-2.21-.42-.56.57-.99,1.26-1.48,1.9l-.47-.42c.57-.76,1.14-1.52,1.68-2.25-3.27-2.79-6.5-5.55-9.82-8.37-.3.26-.63.55-.97.84.22-.86.87-1.65-.29-2.39-1.51-.96-1.65,1.06-2.93,1.15.39-.53.77-.89.94-1.32.17-.43.32-1.07.12-1.4-.41-.67-.98-.49-1.53.04-2.19,2.11-4.4,4.19-6.85,6.1.31-.4.59-.83.95-1.19,1.48-1.48,3.02-2.91,4.46-4.43.3-.31.29-.93.43-1.4-.45.13-1.01.12-1.32.41-1.99,1.85-3.91,3.77-5.88,5.63-.61.58-1.32,1.06-1.99,1.59,2.42-2.48,4.85-4.95,7.22-7.47.3-.32.3-.92.44-1.39-.42.17-1.01.21-1.24.53-2.65,3.47-6.61,5.71-8.76,9.7-.69,1.29-2.3,2.08-3.48,3.1-.43.37-.94.68-1.28,1.13-.2.26-.14.71-.2,1.08.36-.05.72-.07,1.06-.18.16-.05.26-.27.39-.41,1.96-2.04,3.92-4.09,5.89-6.13-1.38,2.61-3.19,4.87-5.49,6.73-.8.65-1.08,1.36-.16,2.1.22.17.84.23.94.09.64-.86,1.17-1.8,1.77-2.68.26-.38.62-.68.93-1.02.18.16.36.31.54.47-.6.86-1.08,1.85-1.83,2.55-1.33,1.23-1.22,2.48-.48,3.9.15.28.08.68.12,1.02-.37-.1-.79-.13-1.11-.32-.57-.34-1.08-.78-1.75-.92-.16-.53-.18-1.17-.51-1.57-1.15-1.39-2.36-2.71-3.62-4-.74-.76-1.5-1.61-2.42-2.05-.73-.35-1.73-.12-2.31-.14-.51-.61-.92-1.28-1.51-1.74-1.12-.88-2.37-1.59-3.5-2.45-.77-.59-1.33-.59-1.87.25-1.99,3.12-3.99,6.23-6,9.34-.52.81-1.08,1.61-1.61,2.41-.13-.08-.26-.15-.39-.23.4-.72.77-1.44,1.19-2.14,2.04-3.42,4.12-6.83,6.13-10.28.17-.29-.02-.8-.05-1.2-.39.12-.93.12-1.14.39-1.09,1.36-2.09,2.79-3.12,4.2l-.33-.2c1.01-1.84,2.02-3.68,3.13-5.68-1.7.36-2.28,1.22-2.27,2.33-1.54,1.84-2.75,3.28-4.16,4.96.43-2.02,2.2-3.19,2.22-5.01-.18-.1-.36-.2-.54-.3-.83,1.13-1.67,2.26-2.66,3.61,0-2.01,2.55-3.07,1.44-5.35-.58.54-.95.89-1.33,1.24.05-.31,0-.7.18-.92.82-1.03.34-1.58-.63-2.08-.95,1.22-1.8,2.41-2.75,3.52-.86,1-.77,1.71.64,2.35.42-.57.82-1.19,1.3-1.74.38-.43.85-.77,1.29-1.16-1.39,2.06-2.79,4.13-4.18,6.19-.14-.1-.29-.2-.43-.3.45-.61.9-1.21,1.34-1.81q-1.15-1.48-3.6.27c.36-.51.85-.97,1.06-1.54.15-.42-.07-.98-.13-1.48-.42.12-1,.11-1.25.39-.87.97-1.63,2.04-2.44,3.08-.13-.1-.26-.2-.38-.3.77-.96,1.51-1.95,2.31-2.88.64-.75,1.15-1.44-.09-2.37-2.22,2.78-4.42,5.53-6.66,8.34.73,1.22.98,1.28,2.1.29.42-.37.72-.89,1.15-1.24.33-.27.78-.39,1.5-.72-.73,2-3.27,2.11-2.81,3.98-1.08.41-2.03.78-3,1.15.32-.42.69-.91,1.06-1.39-.57-1.16-1.23-1.1-1.98-.26-.83.93-1.66,1.87-2.49,2.8-.12-.1-.23-.2-.35-.3.67-.81,1.39-1.59,2.01-2.44.39-.53,1.43-.92.57-1.86-.9-.98-1.63-.56-2.37.23-1.99,2.1-4.01,4.18-6.02,6.26-.28.29-.59.54-1.12.65.09-.24.13-.52.28-.7,1.13-1.36,2.21-2.75,3.43-4.02.93-.97,2.14-1.69,3.04-2.69.95-1.05.84-1.19-.54-2.02-2.63,2.21-4.6,5.21-7.49,7.17-.16-.17-.32-.34-.49-.51,1.23-1.18,2.47-2.37,3.69-3.56,1.09-1.06,2.19-2.11,3.23-3.21.16-.16.06-.57.08-.87-.3.03-.71-.07-.88.1-.85.83-1.62,1.74-2.44,2.61-.87.93-1.77,1.84-2.65,2.76l.04.04c.65-.97,1.27-1.96,1.97-2.89.71-.95,1.54-1.82,2.22-2.79.22-.31.17-.82.25-1.24-.4.12-.93.11-1.18.38-4.16,4.25-8.27,8.54-11.4,13.65-.36.59-.75,1.15-1.15,1.75-.18-.18-.29-.27-.28-.28,2.6-3.84,4.6-8.11,8.05-11.35,1.38-1.3,2.73-2.62,4.07-3.96.5-.5,1.17-1.11.32-1.75-.23-.18-1.08.18-1.44.51-1.23,1.12-2.35,2.34-3.53,3.51-.33.33-.73.59-1.07.91-.74.7-1.51,1.37-2.18,2.13-.78.89-1.45,1.87-2.17,2.81-.11-.07-.22-.13-.33-.2.92-1.44,1.65-3.07,2.81-4.28,1.72-1.81,3.75-3.32,5.63-4.99.41-.36.71-.85,1.1-1.33-.82-.84-1.56-.72-2.19-.06-.79.82-1.48,1.73-2.23,2.6-.38.44-.79.86-1.19,1.29l-.42-.37c.92-1,1.83-2.01,2.75-3.01.86-.94.8-1.75-.19-1.9-.28-.04-.92.5-.91.52.72,1.36-.73,1.71-1.22,2.39-.84,1.18-2.02,2.13-3.05,3.17-.13.13-.36.26-.37.41-.35,3.63-3.33,5.74-4.76,8.73-.12-.07-.24-.14-.37-.21.86-1.45,1.77-2.87,2.57-4.35.82-1.5,2.15-2.79,2.02-4.71,0-.11.12-.25.21-.36,1.47-1.85,2.94-3.7,4.41-5.55.18-.22.49-.43.51-.66.03-.38-.13-.77-.21-1.16-.31.11-.72.13-.93.34-1.82,1.8-3.43,3.86-5.44,5.39-3.05,2.32-4.46,5.86-7,8.52-.39.4-.7.87-1.32,1.64.11-.63.08-.9.19-1.07,2.19-3.16,4.38-6.31,6.63-9.43.25-.35.84-.46,1.27-.68.36-.19.8-.31,1.07-.6,1.44-1.52,2.86-3.06,4.22-4.65.21-.24.08-.77.1-1.17-.39.11-.83.15-1.17.35-1.25.77-2.47,1.59-3.69,2.4,0,0,.03.04.03.04.8-.98,1.61-1.96,2.41-2.94.46-.57.92-1.13,1.38-1.7-.1-.1-.19-.19-.29-.29-.52.45-1.04.9-1.57,1.36l-.32-.28c1.81-2.11,3.62-4.21,5.42-6.31-.55.88-1.17,1.73-1.61,2.67-.19.41-.03.99-.03,1.49.17.04.33.07.5.11,2.19-3.12,4.86-5.94,5.61-9.95-1.22,1.55-2.45,3.1-3.67,4.65M143.48,22.54c.23-.04.47-.08,1.04-.17-1.55,1.95-2.88,3.63-4.21,5.32.13.1.25.2.38.3,1.47-1.65,2.98-3.27,4.39-4.97.54-.65.91-1.45,1.25-2.23.12-.27.02-.75-.17-1-.13-.17-.76-.24-.84-.12-.65.93-1.21,1.92-1.81,2.88-.78.52-1.69.93-2.32,1.6-.89.96-1.57,2.11-2.34,3.18-.41.57-.82,1.14-1.23,1.71.94-.65,1.77-1.35,2.46-2.17,1.18-1.41,2.27-2.89,3.4-4.35M136.49,42.51c.3-.12.65-.18.9-.37,4.03-3,7.4-6.66,10.55-10.54.1-.13.04-.39.08-.91-.56.4-.91.61-1.2.88-2.64,2.4-4.84,5.25-8.07,7.03-2.23,1.23-4.22,2.89-6.29,4.4-.34.25-.51.72-.76,1.09.46-.07,1.03.02,1.37-.22,1.89-1.36,3.72-2.8,5.57-4.21.26-.19.54-.34.82-.51.08.1.17.21.26.31-.37.39-.73.79-1.12,1.17-.68.64-1.38,1.27-2.06,1.9-1.12.75-2.27,1.46-3.34,2.28-.22.17-.14.72-.2,1.09.34.04.78.24.99.09,1.24-.87,2.43-1.83,3.59-2.72-.45-.32-.76-.54-1.07-.77M142.41,18.56c-.15-.11-.3-.22-.44-.33-1.65,1.11-3.29,2.24-4.95,3.34-3.81,2.51-7.59,5.05-11.45,7.48-2.75,1.73-5.08,3.8-6.49,6.76-.17.36-.11,1.09.14,1.36,2.17,2.35,4.74,4.01,8.09,3.78.69-.05,1.71-.58,1.93-1.14.76-1.93,1.65-3.97,1.7-5.98.04-1.64.78-2.51,1.7-3.49.49-.52,1.13-.89,1.61-1.41,2.06-2.22,4.17-4.42,6.1-6.75.87-1.05,1.38-2.41,2.06-3.62M95.86,36.6c.11.1.23.19.35.29-.13.23-.23.49-.39.7-1.19,1.48-2.36,2.98-3.59,4.42-.7.82-.64,1.39.47,1.94.66-.9,1.32-1.77,1.93-2.66,1.14-1.64,2.22-3.31,3.38-4.93.89-1.23,2.2-2.26,1.56-3.98.63-.23,1.35-.28,1.68-.66.86-1,1.61-2.12,2.28-3.27.19-.34-.06-.93-.11-1.4-.39.14-.92.17-1.16.45-.98,1.16-1.75,2.51-2.82,3.57-1.67,1.66-2.94,3.66-5.07,4.99-1.55.96-2.49,2.94-3.63,4.52-.21.29-.11.79-.16,1.2.4-.14.93-.15,1.17-.43,1.02-1.12,1.95-2.33,2.93-3.49.37-.44.78-.85,1.17-1.27M94.76,46.37c2.11-2.45,4.18-4.81,6.19-7.22.58-.69,1.69-1.61-.21-2.16-.11-.03-.15-.31-.22-.47-.17-.41-.34-.81-.51-1.22-.4.29-.9.51-1.17.89-1.65,2.36-3.22,4.78-4.87,7.13-1.1,1.56-1.07,1.91.79,3.06M89.46,40.5c.18.06.36.12.55.18.1-.22.15-.47.29-.66,1.05-1.41,2.1-2.82,3.2-4.2.55-.69.71-2.02,2.16-1.48.12.05.45-.31.62-.53,1.82-2.38,3.65-4.74,5.39-7.17.27-.38.1-1.08.14-1.63-.45.23-.99.36-1.34.7-2.59,2.51-4.02,5.96-7.28,8.04-1.77,1.13-2.71,3.59-3.95,5.51-.17.26.13.81.22,1.23M89.42,21.76c-.12-.08-.24-.17-.37-.25,1.36-2.01,3.33-3.69,3.71-6.26-2.64,2.39-5.19,4.82-6.06,8.55.59-.43,1.1-.79,1.62-1.17.25.5.41.82.57,1.14,2.43-1.68,5.55-5.88,5.14-7.3-1.61,1.85-3.11,3.57-4.61,5.3M136.64,36.04c4.7-4.23,9.07-8.5,12.53-13.63-.45.11-.84.32-1.12.62-1.63,1.74-3.2,3.53-4.85,5.24-.98,1.02-2.03,2-3.13,2.9-1.48,1.21-3.04,2.32-4.67,3.55.63.67,1.01,1.08,1.23,1.32M94.19,32.62c1.9-2.53,3.84-5.04,5.69-7.62.31-.44.23-1.16.33-1.76-.52.26-1.2.4-1.55.81-1.69,1.99-3.27,4.07-4.93,6.08-1.2,1.46-1.22,1.44.46,2.48M91.09,29.12c.42-.44.81-.79,1.11-1.2,1.61-2.22,3.22-4.44,4.78-6.7.23-.33.12-.89.16-1.34-.42.18-.96.26-1.23.57-1.62,1.87-3.14,3.83-4.77,5.68-.85.96-1.1,1.83-.04,3M159.57,37.93c-.07-.04-.14-.09-.2-.13.07-.2.12-.41.23-.59.62-1.01,1.33-1.97,1.85-3.02.16-.32-.18-.89-.29-1.35-.35.16-.76.24-1.03.48-.74.65-1.44,1.36-2.12,2.07-.79.82-.96,1.6.13,2.35.45.31.9.68,1.21,1.12.49.7.9.56,1.33,0,.73-.94,1.47-1.86,2.12-2.85.2-.31.09-.82.13-1.23-.38.17-.86.24-1.13.52-.78.83-1.48,1.74-2.22,2.62M89.3,28.06c-.43.46-.83.85-1.18,1.27-1.53,1.88-3.06,3.75-4.56,5.65-.36.46-1.19.93-.33,1.64.76.62,1.27.17,1.75-.47,1.47-1.98,2.9-4,4.5-5.87.7-.82.72-1.34-.17-2.21M88.49,26.65c.15.14.31.27.47.41.44-.19,1.03-.26,1.28-.59,1.78-2.29,3.49-4.62,5.2-6.96.24-.33.31-.78.45-1.18-.12-.08-.23-.16-.35-.25-.4.33-.84.63-1.2,1.01-1.66,1.76-3.35,3.5-4.92,5.35-.49.58-.63,1.46-.93,2.21M81.97,35.24c.2.01.4.03.59.04,1.7-2.71,4.76-4.58,4.93-8.26-2.07,2.16-3.94,4.45-5.73,6.81-.2.27.13.93.21,1.42M92.68,30.62c1.91-2.6,3.8-5.14,5.64-7.72.26-.36.28-.9.41-1.35-.43.18-.87.35-1.29.55-.16.08-.3.24-.41.39-1.82,2.39-3.65,4.79-5.46,7.19-.03.03-.02.09-.05.22.32.2.67.41,1.18.72M83.26,18.13c.16.07.32.14.49.21,2.55-1.44,3.67-4.09,5.25-6.35.11-.16-.12-.56-.2-.84-.32.11-.76.11-.95.34-1.37,1.63-2.71,3.27-3.99,4.97-.34.45-.41,1.11-.6,1.68M84.76,26.19c-1.38,1.83-2.77,3.62-4.06,5.47-.23.32-.06.91-.08,1.37.39-.12.91-.12,1.14-.38.93-1.01,1.78-2.09,2.64-3.16.79-.99,1.75-1.97.36-3.3M86.37,9.07c-.15-.11-.3-.22-.45-.32-.94,1.15-1.85,2.32-2.81,3.44-.93,1.08-.02,1.69.62,2.21.8.64,1.11-.19,1.46-.73.44-.67.93-1.32,1.36-1.99.33-.52.61-1.07.92-1.61-.12-.09-.23-.19-.35-.28-.64.56-1.27,1.11-1.91,1.67-.06-.06-.12-.13-.18-.19.45-.73.89-1.46,1.34-2.19M92.25,33.55c-.07-.17-.13-.35-.2-.52-.53.04-1.32-.13-1.56.16-1.08,1.31-2.07,2.71-2.94,4.16-.17.28.3.95.47,1.43.38-.17.9-.23,1.1-.51,1.08-1.54,2.09-3.14,3.12-4.72M108.01,34.07c-1.21,1.67-2.38,3.21-3.43,4.81-.18.27.16.88.26,1.33.39-.11.94-.09,1.14-.34.92-1.14,1.74-2.35,2.59-3.54.57-.79.42-1.47-.56-2.26M167.82,45.26c1.65,1.83,2.14,1.82,3.31.09.49-.73.96-1.47,1.49-2.28-.62-.42-1.14-.79-1.72-1.19-1.08,1.18-2.06,2.26-3.08,3.38M84.74,19.71c.23.14.46.27.7.41,1.57-2.05,3.16-4.08,4.68-6.17.21-.29.1-.82.14-1.24-.41.2-.93.29-1.2.61-1.08,1.26-2.14,2.55-3.09,3.91-.52.75-.83,1.65-1.23,2.48M170.64,47.15c.02.2.05.41.07.61.72.15,1.82.68,2.11.39.95-.93,1.6-2.16,2.44-3.37-.83-.31-1.19-1.6-2.15-.54-.85.94-1.65,1.94-2.48,2.91M139.73,36.04c.09.15.17.29.26.44,2.88-.39,3.72-3.49,5.9-4.83.6-.37.91-1.21,1.36-1.83-.17-.14-.34-.29-.52-.43-2.34,2.21-4.67,4.43-7,6.64M130.8,40.94c1.58-1.1,2.96-2,4.25-3.01.26-.21.42-1.03.26-1.2-.31-.32-1.05-.65-1.35-.49-1.71.93-3.06,2.2-3.15,4.7M159.82,31.83c-.21-.28-.36-.64-.62-.77-.22-.11-.69-.07-.86.1-.92.96-1.87,1.92-2.62,3-.2.28.17,1.05.43,1.49.06.1.93-.05,1.17-.32.73-.81,1.35-1.72,1.99-2.61.19-.26.33-.57.51-.9M147.73,20.83c-2.41,2.69-4.68,5.2-6.9,7.74-.18.21-.11.64-.17,1.14,2.84-1.99,7.11-7.21,7.08-8.88M130.12,42.38c.75.15,1.16.37,1.36.25,1.82-1.11,3.62-2.27,5.39-3.47.18-.12.3-.72.2-.8-.24-.2-.76-.42-.93-.29-1.9,1.31-3.76,2.68-6.02,4.32M85.06,37.07q1.39.33,2.16-.56c2.31-2.65,3.32-4.55,2.84-5.74-1.67,2.11-3.28,4.13-5,6.29M154.22,33.89c.41-.11.54-.11.59-.17.99-1.19,1.98-2.38,2.93-3.6.1-.13-.04-.59-.2-.72-.16-.12-.6-.11-.74.02-1.02.98-2.05,1.96-2.93,3.06-.18.23.23.94.36,1.41M164.5,36.25c-.41.12-.53.12-.58.18-1.02,1.1-2.06,2.18-3,3.34-.11.13.27.84.58,1.07.18.14.82,0,1-.23.79-.99,1.54-2.03,2.18-3.12.16-.27-.1-.79-.18-1.24M103.46,38.23c.2.05.41.1.62.15,1.08-1.54,2.19-3.06,3.22-4.65.15-.23-.11-.73-.19-1.11-.31.13-.73.17-.9.39-.86,1.13-1.72,2.28-2.45,3.49-.28.46-.21,1.13-.29,1.71M168.81,40.35c-.87.98-1.68,1.78-2.35,2.68-.28.38-.24,1-.35,1.5.54-.08,1.29.04,1.6-.27.84-.87,1.49-1.91,2.27-2.95-.43-.35-.74-.61-1.17-.96M102.54,36.21c.19.05.38.1.57.15.97-1.44,1.96-2.87,2.88-4.34.14-.23-.08-.67-.13-1.02-.31.13-.75.17-.93.41-.84,1.09-1.66,2.21-2.37,3.39-.21.35-.03.94-.03,1.41M154.6,27.19c-.05-.12-.11-.25-.16-.37-.37.09-.85.07-1.1.3-1.04.95-2.06,1.95-3,3.01-.28.31-.27.88-.4,1.33.44-.15,1.01-.17,1.3-.47,1.17-1.22,2.25-2.53,3.36-3.8M156.09,28.28c-1.57.07-4.21,2.54-4.84,4.5,2.65-.66,3.37-2.99,4.84-4.5M91.79,14.33c-.09-.11-.18-.21-.27-.32-.2.08-.47.11-.59.25-1.62,2.04-3.24,4.09-4.82,6.17-.15.19-.02.6-.02.9.11.02.22.05.33.07,1.79-2.36,3.58-4.72,5.37-7.08M101.45,34.15c.18.02.36.04.54.05.96-1.4,1.93-2.79,2.85-4.22.12-.19-.06-.57-.1-.87-.27.1-.65.11-.8.3-.86,1.08-1.71,2.17-2.45,3.33-.21.34-.03.92-.03,1.4M140.78,33.3c2.03-.51,5.39-4.06,5.02-5.45-1.67,1.82-3.35,3.63-5.02,5.45M163.22,42.41c.37-.18.53-.2.61-.3.91-1.08,1.82-2.16,2.68-3.29.11-.14-.02-.54-.15-.73-.06-.09-.51-.07-.62.04-.98,1.02-1.95,2.04-2.83,3.14-.14.17.19.71.31,1.14M80.82,11.12c2.12-1.51,3.31-3.49,2.87-4.85-1.18,1.48-2.83,2.48-2.87,4.85M147.58,28.69c.2.19.41.39.61.58,1.26-1.34,2.52-2.67,3.76-4.02.07-.08,0-.43-.11-.49-.17-.1-.53-.17-.62-.08-1.24,1.32-2.44,2.67-3.65,4.01M146.54,27.14c.14.13.27.25.41.38,1.48-.35,3.46-2.9,3.06-4.4-1.24,1.44-2.35,2.73-3.47,4.02M85.19,8.06l-.37-.23c-.29.33-.59.66-.87,1-.87,1.05-1.77,2.08-2.57,3.18-.22.3-.13.82-.18,1.24.33-.19.75-.29.97-.57.67-.85,1.29-1.75,1.89-2.65.42-.63.76-1.31,1.14-1.97M138.67,30.74c-2,.05-2.86,1.41-3.94,2.4-.17.15-.09.57-.12.87.29-.02.68.07.85-.09,1.05-.98,2.05-2.02,3.22-3.18M167.86,39.8c-.17-.13-.35-.27-.52-.4-.92.99-1.86,1.97-2.75,3-.16.18-.06.58-.08.88.22,0,.55.11.64.01.92-1.15,1.81-2.32,2.71-3.49M68.38,28.23c.13.1.26.2.4.3,2.17-1.68,3.38-3.37,3.26-4.74-1.27,1.53-2.46,2.98-3.66,4.43M34.12,35.51c.1.09.2.18.3.28,1.26-1.65,2.52-3.29,3.89-5.09-1.48-.36-1.86.38-2.15,1.29-.17.54-.36,1.09-.65,1.57-.41.68-.92,1.31-1.39,1.96M110.04,34.08c.54-.87,1.65-1.43.85-2.57-.1-.15-.89-.03-1.17.2-.96.77-.81,1.55.32,2.37M111.48,35.95c1.41-1.63,1.69-2.46,1.05-2.58-.48-.09-1.2.42-1.64.85-.8.77-.34,1.32.59,1.73M115.17,36.06c-.65,1.16-2.07,1.7-1.66,3.32,1.46-.8,2.28-2.26,1.66-3.32M109.82,29.38c-.16-.07-.32-.13-.48-.2-1.5.93-1.81,1.8-.74,2.81.43-.92.82-1.77,1.22-2.61M148.67,30.04l.49.35c.93-1.07,1.86-2.13,2.8-3.2l-.3-.26c-1.02,1.01-2.26,1.83-2.99,3.11M114.13,35.32c-1.8.57-2.1,1.18-1.3,2.5.49-.93.89-1.72,1.3-2.5"
    fill="#010101" />
  <path
    d="M58.01,56.68c1.6-1.8,3.06-3.76,4.87-5.32.86-.75,2.36-.87,3.6-1.06.88-.13,1.34.41.96,1.36-1.5,3.81-3.35,7.76-6.71,9.9-5.61,3.56-10.41,8.47-17.01,10.48-1.67.51-3.14,1.65-4.7,2.5-.11-.1-.23-.2-.34-.3.17-.36.26-.78.51-1.07,3.45-3.92,6.94-7.8,10.4-11.72,1.23-1.39,2.34-2.87,3.62-4.22.38-.4,1.14-.43,1.68-.72.53-.28,1.12-.57,1.49-1.02,1.48-1.76,2.86-3.6,4.32-5.38,1.2-1.47,2.44-2.91,3.69-4.34.22-.25.56-.39.85-.58.09.1.18.19.27.29-.55.57-1.13,1.13-1.65,1.72-1.26,1.43-2.6,2.8-3.7,4.34-1,1.4-1.74,2.99-2.56,4.52-.04.08.31.36.48.55-5,4.85-9.99,9.69-15.11,14.66,4.5-1.28,8.16-3.69,11.66-6.41,1.78-1.39,3.91-2.38,5.54-3.91,1.78-1.67,3.29-3.68,4.7-5.7.71-1.02.94-2.38,1.39-3.58-.1-.08-.2-.16-.29-.24-2.81,1.48-5.63,2.96-7.94,5.24"
    fill="#010101" />
  <path
    d="M32.95,52.94c.32-.38.59-.81.96-1.13,2.89-2.54,5.73-5.16,8.75-7.53,1.13-.89,2.73-1.17,4.1-1.77,1.44-.62,2.86-1.29,4.55-2.05-.88-.64-1.36-.99-2.06-1.5.87-.76,1.7-1.37,2.38-2.12,1.01-1.1,2.03-2.22,2.83-3.47.73-1.14,3.41-3.39,5.22-4.01,1.31.73,1.35,1.61.38,2.69-2.09,2.32-4.03,4.8-6.27,6.95-2.72,2.6-6.12,4.13-9.42,5.14-2.21,4-5.64,6.56-8.59,9.55-.09-.08-.18-.16-.27-.23,2.54-2.63,5.08-5.27,7.61-7.9l-.3-.32c-1.68,1.41-3.32,2.88-5.05,4.22-1.57,1.21-3.23,2.3-4.86,3.44l.03.03ZM59.23,31.36c-.13-.11-.26-.23-.39-.34-2.6,2.61-5.2,5.21-7.8,7.82.57.16,1.22.13,1.58-.21,1.77-1.65,3.5-3.34,5.17-5.09.59-.62.97-1.45,1.44-2.19"
    fill="#010101" />
  <path
    d="M54.43,27.55c.93-.25,1.58-.26,1.98-.57,1.92-1.46,3.76-3.04,5.68-4.51.44-.34,1.08-.43,1.62-.63.11.53.33,1.08.29,1.6-.06.75-.21,1.53-.53,2.2-.85,1.78-1.82,3.52-2.77,5.33-.47-.24-.79-.4-1.41-.72-.7.81-1.45,1.68-2.2,2.55,1.85-3.28,5.48-5.42,5.88-9.61-.98.61-2.45.59-2.53,2.22-.01.22-.4.49-.67.62-.59.28-1.26.43-1.82.75-1.24.7-2.44,1.46-3.64,2.22-.48.3-.99.59-1.37,1-3.27,3.45-6.56,6.87-9.73,10.4-1.93,2.15-3.65,4.49-5.47,6.75-.35.44-.68.91-1.01,1.36l-.42-.36c.49-.65.98-1.29,1.47-1.94,1.83-2.42,3.6-4.89,5.52-7.24.98-1.19,2.28-2.11,3.36-3.22,2.73-2.83,5.41-5.69,7.77-8.19"
    fill="#010101" />
  <path
    d="M55.36,53.07c-4.89,5.48-9.78,10.96-14.67,16.44-.14-.13-.29-.26-.43-.39,4.88-5.48,9.76-10.96,14.64-16.45.15.13.31.26.46.4"
    fill="#010101" />
  <path
    d="M97.81,46.02c-2.99,3.97-5.98,7.94-8.98,11.92-.13-.1-.26-.19-.39-.29,2.94-4.01,5.87-8.03,8.81-12.04.19.14.37.28.56.42"
    fill="#010101" />
  <path d="M181.33,61.43c-2.39,3.81-5.26,7.23-8.68,10.21,2.77-3.5,5.54-7,8.31-10.5.12.1.24.2.36.29"
    fill="#010101" />
  <path
    d="M65.91,75.24c-.04-.27-.21-.62-.1-.79,1.52-2.41,3.08-4.8,4.63-7.2l.36.17c-.16.43-.31.86-.59,1.63,1.49-1.29,2.76-2.39,4.02-3.48,0,0-.03-.04-.03-.04-1.33,1.43-2.64,2.88-3.99,4.29-.4.41-1.01.64-1.35,1.09-1.04,1.41-1.99,2.87-2.98,4.32h.02Z"
    fill="#010101" />
  <path d="M124.44,53.4c.18-1.93,5.61-10.26,7.31-11.08-2.52,3.83-4.83,7.32-7.31,11.08"
    fill="#010101" />
  <path
    d="M190.18,63.75c-3.12,3.33-6.23,6.66-9.35,9.99-.12-.11-.25-.23-.37-.34,3.09-3.36,6.18-6.71,9.27-10.07.15.14.3.28.45.42"
    fill="#010101" />
  <path
    d="M126.81,54.36c2.34-2.93,4.69-5.86,7.03-8.8.12.1.25.19.37.29-1.8,3.35-4.9,5.72-6.84,8.96-.19-.15-.38-.3-.56-.45"
    fill="#010101" />
  <path
    d="M84.89,56.29c-2.36,3.42-4.72,6.84-7.08,10.27-.15-.1-.3-.21-.45-.31,2.68-3.2,4.33-7.11,7.07-10.27.16.11.31.21.47.32"
    fill="#010101" />
  <path
    d="M105.39,53.07c-2.42,2.68-4.83,5.36-7.26,8.03-.27.3-.59.56-.88.84l-.26-.24c1.18-1.37,2.35-2.75,3.53-4.12,1.09-1.26,2.16-2.54,3.32-3.72.39-.39,1.05-.51,1.59-.76l-.04-.03Z"
    fill="#010101" />
  <path
    d="M100.38,47.86c-2.37,3.06-4.73,6.13-7.1,9.19-.16-.13-.33-.26-.49-.39,2.53-2.97,4.63-6.28,7.13-9.27.15.16.31.31.46.47"
    fill="#010101" />
  <path
    d="M83.16,54.2c-1.36,1.87-2.74,3.72-4.07,5.6-.94,1.32-1.82,2.67-2.73,4.01-.13-.08-.26-.17-.38-.26.58-.9,1.14-1.8,1.73-2.68,1.25-1.91,2.46-3.84,3.8-5.69.35-.47,1.11-.64,1.69-.95,0,0-.04-.04-.04-.04"
    fill="#010101" />
  <path
    d="M94.23,59.87l7.75-9.39c.11.09.22.18.33.27-2.18,3.45-5.04,6.37-7.72,9.41-.12-.1-.23-.2-.35-.29"
    fill="#010101" />
  <path
    d="M108.39,55.81c-2.59,2.65-5.19,5.3-7.78,7.95l-.4-.38c2.57-2.67,5.13-5.35,7.7-8.02.16.15.32.3.48.46"
    fill="#010101" />
  <path
    d="M49.04,54.4c-2.4,2.5-4.8,5-7.2,7.5-.11-.11-.23-.22-.34-.33,2.59-2.29,5.17-4.58,7.76-6.87-.07-.1-.14-.2-.22-.3"
    fill="#010101" />
  <path
    d="M111.83,55.56c1.38-1.63,2.76-3.27,4.14-4.9l.55.48c-1.41,1.6-2.82,3.19-4.23,4.79-.15-.12-.31-.25-.46-.37"
    fill="#010101" />
  <path
    d="M115,48.89c1.65-1.75,3.31-3.49,4.96-5.24.16.15.32.3.48.46-1.69,1.71-3.38,3.42-5.07,5.13-.12-.11-.24-.23-.36-.34"
    fill="#010101" />
  <path
    d="M43.85,57.78c1.36-1.67,2.26-3.74,4.13-4.98.1.09.21.18.31.27-1.36,1.67-2.73,3.34-4.09,5.01-.12-.1-.24-.2-.36-.3"
    fill="#010101" />
  <path
    d="M107.7,54c1.39-1.63,2.78-3.27,4.17-4.9.15.13.3.26.46.38-1.39,1.65-2.77,3.31-4.16,4.96-.16-.15-.31-.29-.47-.44"
    fill="#010101" />
  <path
    d="M182.84,65.41c-1.55,1.76-3.1,3.52-4.65,5.27-.12-.1-.24-.2-.36-.31,1.52-1.79,3.04-3.57,4.56-5.36.15.13.3.26.45.39"
    fill="#010101" />
  <path
    d="M74.44,57.74c-1.4,1.92-2.8,3.84-4.2,5.76-.13-.09-.25-.18-.38-.27,1.38-1.95,2.77-3.9,4.15-5.84.14.11.29.23.43.35"
    fill="#010101" />
  <path
    d="M42.74,51.31c-1.5,2.01-2.99,4.02-4.49,6.02-.13-.1-.26-.19-.39-.29,1.52-1.99,3.05-3.97,4.57-5.96.1.08.21.15.31.23"
    fill="#010101" />
  <path
    d="M70.34,55.64c-1.32,1.76-2.64,3.52-3.96,5.29-.12-.08-.24-.17-.37-.26,1.29-1.78,2.58-3.57,3.88-5.35.15.11.31.21.46.32"
    fill="#010101" />
  <path
    d="M67.55,64.01c-.03.37.06.82-.11,1.1-1.14,1.76-2.33,3.48-3.51,5.21-.12-.08-.24-.16-.36-.24,1.33-2,2.67-4.01,4-6.02,0,0-.02-.03-.02-.03"
    fill="#010101" />
  <path
    d="M131.16,55.07c1-1.37,2-2.74,3-4.11.15.11.29.21.44.32-1,1.36-1.99,2.72-2.99,4.08-.15-.1-.3-.19-.45-.29"
    fill="#010101" />
  <path
    d="M105.42,53.1c-.04-.27-.21-.64-.1-.78.92-1.08,1.89-2.11,2.85-3.16.12.11.24.22.37.33-1.05,1.19-2.11,2.38-3.16,3.57,0,0,.04.03.04.03"
    fill="#010101" />
  <path
    d="M48.54,58.26c-1.1,1.18-2.2,2.35-3.3,3.53-.1-.1-.21-.19-.31-.29,1.11-1.18,2.21-2.35,3.32-3.53.1.1.19.19.29.28"
    fill="#010101" />
</svg>