<?xml version="1.0" encoding="UTF-8"?>
<svg id="_0" data-name="0" xmlns="http://www.w3.org/2000/svg" viewBox="0 0 204.25 355">
  <g id="LINE">
    <line x1="28.15" y1="354.75" x2="176.09" y2="354.75" fill="none" stroke="red" stroke-linecap="round" stroke-linejoin="round" stroke-width=".5"/>
  </g>
  <g id="LINE-2" data-name="LINE">
    <line x1=".25" y1="5.24" x2=".25" y2="326.85" fill="none" stroke="red" stroke-linecap="round" stroke-linejoin="round" stroke-width=".5"/>
  </g>
  <g id="LINE-3" data-name="LINE">
    <line x1="204" y1="326.85" x2="204" y2="5.24" fill="none" stroke="red" stroke-linecap="round" stroke-linejoin="round" stroke-width=".5"/>
  </g>
  <g id="LINE-4" data-name="LINE">
    <line x1="145.78" y1="13.07" x2="58.34" y2="13.07" fill="none" stroke="red" stroke-linecap="round" stroke-linejoin="round" stroke-width=".5"/>
  </g>
  <g id="ARC">
    <path d="M.25,326.85c0,15.41,12.49,27.9,27.9,27.9" fill="none" stroke="red" stroke-linecap="round" stroke-linejoin="round" stroke-width=".5"/>
  </g>
  <g id="ARC-2" data-name="ARC">
    <path d="M176.09,354.75c15.41,0,27.9-12.49,27.9-27.9" fill="none" stroke="red" stroke-linecap="round" stroke-linejoin="round" stroke-width=".5"/>
  </g>
  <g id="ARC-3" data-name="ARC">
    <path d="M204,5.24c0-2.75-2.23-4.99-4.99-4.99-1.26,0-2.47.48-3.39,1.33" fill="none" stroke="red" stroke-linecap="round" stroke-linejoin="round" stroke-width=".5"/>
  </g>
  <g id="ARC-4" data-name="ARC">
    <path d="M8.64,1.59C6.62-.29,3.46-.18,1.59,1.84.73,2.76.25,3.98.25,5.24" fill="none" stroke="red" stroke-linecap="round" stroke-linejoin="round" stroke-width=".5"/>
  </g>
  <g id="SPLINE">
    <path d="M195.62,1.58c-1.53,1.42-3.18,2.72-4.92,3.88s-3.58,2.2-5.48,3.08-3.84,1.62-5.84,2.2-4.09,1.04-6.17,1.36-4.37.56-6.57.7c-1.12.07-2.24.12-3.37.15s-2.26.05-3.4.07c-2.31.03-4.61.06-6.92.07s-4.79,0-7.18-.03" fill="none" stroke="red" stroke-linecap="round" stroke-linejoin="round" stroke-width=".5"/>
  </g>
  <g id="SPLINE-2" data-name="SPLINE">
    <path d="M58.34,13.07c-2.44,0-4.89,0-7.33,0s-4.68,0-7.03-.04c-4.46-.07-8.94-.24-13.34-.96-2.08-.34-4.13-.8-6.15-1.41s-3.89-1.33-5.75-2.21-3.62-1.89-5.31-3.03-3.3-2.43-4.8-3.82" fill="none" stroke="red" stroke-linecap="round" stroke-linejoin="round" stroke-width=".5"/>
  </g>
</svg>