<?xml version="1.0" encoding="UTF-8"?>
<svg id="_0" data-name="0" xmlns="http://www.w3.org/2000/svg" viewBox="0 0 191.13 327.72">
  <g id="LINE">
    <line x1="28.13" y1="327.47" x2="163" y2="327.47" fill="none" stroke="red" stroke-linecap="round" stroke-linejoin="round" stroke-width=".5"/>
  </g>
  <g id="LINE-2" data-name="LINE">
    <line x1=".25" y1="5.24" x2=".25" y2="299.59" fill="none" stroke="red" stroke-linecap="round" stroke-linejoin="round" stroke-width=".5"/>
  </g>
  <g id="LINE-3" data-name="LINE">
    <line x1="190.88" y1="299.59" x2="190.88" y2="5.24" fill="none" stroke="red" stroke-linecap="round" stroke-linejoin="round" stroke-width=".5"/>
  </g>
  <g id="LINE-4" data-name="LINE">
    <line x1="133.82" y1="12.69" x2="57.31" y2="12.69" fill="none" stroke="red" stroke-linecap="round" stroke-linejoin="round" stroke-width=".5"/>
  </g>
  <g id="ARC">
    <path d="M.25,299.59c0,15.4,12.48,27.88,27.88,27.88" fill="none" stroke="red" stroke-linecap="round" stroke-linejoin="round" stroke-width=".5"/>
  </g>
  <g id="ARC-2" data-name="ARC">
    <path d="M163,327.47c15.4,0,27.88-12.48,27.88-27.88" fill="none" stroke="red" stroke-linecap="round" stroke-linejoin="round" stroke-width=".5"/>
  </g>
  <g id="ARC-3" data-name="ARC">
    <path d="M190.88,5.24c0-2.75-2.23-4.99-4.99-4.99-1.25,0-2.46.47-3.38,1.32" fill="none" stroke="red" stroke-linecap="round" stroke-linejoin="round" stroke-width=".5"/>
  </g>
  <g id="ARC-4" data-name="ARC">
    <path d="M8.61,1.57C6.59-.3,3.43-.17,1.57,1.86.72,2.78.25,3.99.25,5.24" fill="none" stroke="red" stroke-linecap="round" stroke-linejoin="round" stroke-width=".5"/>
  </g>
  <g id="SPLINE">
    <path d="M182.51,1.57c-1.48,1.36-3.07,2.61-4.74,3.72s-3.44,2.11-5.27,2.96-3.69,1.55-5.61,2.12-3.95,1.02-5.96,1.35c-2.12.34-4.26.56-6.41.69s-4.42.2-6.63.23-4.57.04-6.85.04c-2.41,0-4.82,0-7.23,0" fill="none" stroke="red" stroke-linecap="round" stroke-linejoin="round" stroke-width=".5"/>
  </g>
  <g id="SPLINE-2" data-name="SPLINE">
    <path d="M57.31,12.69c-2.45,0-4.9,0-7.35,0s-4.65,0-6.98-.04c-4.38-.07-8.77-.25-13.09-.97-2.01-.34-4-.79-5.95-1.39s-3.75-1.29-5.54-2.14-3.5-1.82-5.13-2.92-3.19-2.33-4.65-3.66" fill="none" stroke="red" stroke-linecap="round" stroke-linejoin="round" stroke-width=".5"/>
  </g>
</svg>