<svg xmlns="http://www.w3.org/2000/svg" viewBox="0 0 194 422.176" version="1.1">
  <path d="M 28.571 422.245 L 164.43 422.245" fill="none" stroke-width="0.5"
    style="stroke: rgb(255, 0, 0);"></path>
  <path d="M 0 28.571 L 0 393.675 L 0 28.571 Z" fill="none" stroke-width="0.5"
    style="stroke: rgb(255, 0, 0);"></path>
  <path d="M 193 393.675 L 193 28.571 L 193 393.675 Z" fill="none" stroke-width="0.5"
    style="stroke: rgb(255, 0, 0);"></path>
  <path d="M 40.711 87.595 L 109.453 87.595" fill="none" stroke-width="0.5"
    style="stroke: rgb(255, 0, 0);"></path>
  <path d="M312.8 261.09L312.8 261.09Z" fill="none" stroke="black" stroke-width="0.5"></path>
  <path d="M 109.453 87.595 L 114.362 87.214" fill="none" stroke-width="0.5"
    style="stroke: rgb(255, 0, 0);"></path>
  <path d="M 114.362 87.214 L 119.171 86.132" fill="none" stroke-width="0.5"
    style="stroke: rgb(255, 0, 0);"></path>
  <path d="M 119.171 86.132 L 123.758 84.328" fill="none" stroke-width="0.5"
    style="stroke: rgb(255, 0, 0);"></path>
  <path d="M 123.758 84.328 L 128.026 81.864" fill="none" stroke-width="0.5"
    style="stroke: rgb(255, 0, 0);"></path>
  <path d="M 128.026 81.864 L 131.892 78.779" fill="none" stroke-width="0.5"
    style="stroke: rgb(255, 0, 0);"></path>
  <path d="M 131.892 78.779 L 135.239 75.173" fill="none" stroke-width="0.5"
    style="stroke: rgb(255, 0, 0);"></path>
  <path d="M 135.239 75.173 L 138.024 71.085" fill="none" stroke-width="0.5"
    style="stroke: rgb(255, 0, 0);"></path>
  <path d="M 138.024 71.085 L 140.167 66.657" fill="none" stroke-width="0.5"
    style="stroke: rgb(255, 0, 0);"></path>
  <path d="M 140.167 66.657 L 141.61 61.929" fill="none" stroke-width="0.5"
    style="stroke: rgb(255, 0, 0);"></path>
  <path d="M 141.61 61.929 L 142.351 57.06" fill="none" stroke-width="0.5"
    style="stroke: rgb(255, 0, 0);"></path>
  <path d="M 142.351 57.06 L 142.351 52.132 L 142.351 57.06 Z" fill="none" stroke-width="0.5"
    style="stroke: rgb(255, 0, 0);"></path>
  <path d="M 142.351 52.132 L 141.61 47.263" fill="none" stroke-width="0.5"
    style="stroke: rgb(255, 0, 0);"></path>
  <path d="M 141.61 47.263 L 140.167 42.535" fill="none" stroke-width="0.5"
    style="stroke: rgb(255, 0, 0);"></path>
  <path d="M 140.167 42.535 L 138.024 38.108" fill="none" stroke-width="0.5"
    style="stroke: rgb(255, 0, 0);"></path>
  <path d="M 138.024 38.108 L 135.239 34.02" fill="none" stroke-width="0.5"
    style="stroke: rgb(255, 0, 0);"></path>
  <path d="M 135.239 34.02 L 131.892 30.414" fill="none" stroke-width="0.5"
    style="stroke: rgb(255, 0, 0);"></path>
  <path d="M 131.892 30.414 L 128.026 27.328" fill="none" stroke-width="0.5"
    style="stroke: rgb(255, 0, 0);"></path>
  <path d="M 128.026 27.328 L 123.758 24.864" fill="none" stroke-width="0.5"
    style="stroke: rgb(255, 0, 0);"></path>
  <path d="M 123.758 24.864 L 119.171 23.061" fill="none" stroke-width="0.5"
    style="stroke: rgb(255, 0, 0);"></path>
  <path d="M 119.171 23.061 L 114.362 21.979" fill="none" stroke-width="0.5"
    style="stroke: rgb(255, 0, 0);"></path>
  <path d="M 114.362 21.979 L 109.453 21.598" fill="none" stroke-width="0.5"
    style="stroke: rgb(255, 0, 0);"></path>
  <path d="M 109.453 21.598 L 40.711 21.598" fill="none" stroke-width="0.5"
    style="stroke: rgb(255, 0, 0);"></path>
  <path d="M278.49 228.15L278.49 228.15Z" fill="none" stroke="black" stroke-width="0.5"></path>
  <path d="M 40.711 21.598 L 35.783 21.979" fill="none" stroke-width="0.5"
    style="stroke: rgb(255, 0, 0);"></path>
  <path d="M 35.783 21.979 L 30.975 23.061" fill="none" stroke-width="0.5"
    style="stroke: rgb(255, 0, 0);"></path>
  <path d="M 30.975 23.061 L 26.386 24.864" fill="none" stroke-width="0.5"
    style="stroke: rgb(255, 0, 0);"></path>
  <path d="M 26.386 24.864 L 22.119 27.328" fill="none" stroke-width="0.5"
    style="stroke: rgb(255, 0, 0);"></path>
  <path d="M 22.119 27.328 L 18.252 30.414" fill="none" stroke-width="0.5"
    style="stroke: rgb(255, 0, 0);"></path>
  <path d="M 18.252 30.414 L 14.906 34.02" fill="none" stroke-width="0.5"
    style="stroke: rgb(255, 0, 0);"></path>
  <path d="M 14.906 34.02 L 12.121 38.108" fill="none" stroke-width="0.5"
    style="stroke: rgb(255, 0, 0);"></path>
  <path d="M 12.121 38.108 L 9.997 42.535" fill="none" stroke-width="0.5"
    style="stroke: rgb(255, 0, 0);"></path>
  <path d="M 9.997 42.535 L 8.535 47.263" fill="none" stroke-width="0.5"
    style="stroke: rgb(255, 0, 0);"></path>
  <path d="M 8.535 47.263 L 7.793 52.132" fill="none" stroke-width="0.5"
    style="stroke: rgb(255, 0, 0);"></path>
  <path d="M 7.793 52.132 L 7.793 57.06 L 7.793 52.132 Z" fill="none" stroke-width="0.5"
    style="stroke: rgb(255, 0, 0);"></path>
  <path d="M 7.793 57.06 L 8.535 61.929" fill="none" stroke-width="0.5"
    style="stroke: rgb(255, 0, 0);"></path>
  <path d="M 8.535 61.929 L 9.997 66.657" fill="none" stroke-width="0.5"
    style="stroke: rgb(255, 0, 0);"></path>
  <path d="M 9.997 66.657 L 12.121 71.085" fill="none" stroke-width="0.5"
    style="stroke: rgb(255, 0, 0);"></path>
  <path d="M 12.121 71.085 L 14.906 75.173" fill="none" stroke-width="0.5"
    style="stroke: rgb(255, 0, 0);"></path>
  <path d="M 14.906 75.173 L 18.252 78.779" fill="none" stroke-width="0.5"
    style="stroke: rgb(255, 0, 0);"></path>
  <path d="M 18.252 78.779 L 22.119 81.864" fill="none" stroke-width="0.5"
    style="stroke: rgb(255, 0, 0);"></path>
  <path d="M 22.119 81.864 L 26.386 84.328" fill="none" stroke-width="0.5"
    style="stroke: rgb(255, 0, 0);"></path>
  <path d="M 26.386 84.328 L 30.975 86.132" fill="none" stroke-width="0.5"
    style="stroke: rgb(255, 0, 0);"></path>
  <path d="M 30.975 86.132 L 35.783 87.214" fill="none" stroke-width="0.5"
    style="stroke: rgb(255, 0, 0);"></path>
  <path d="M 35.783 87.214 L 40.711 87.595" fill="none" stroke-width="0.5"
    style="stroke: rgb(255, 0, 0);"></path>
  <path d="M 164.43 0 L 28.571 0" fill="none" stroke-width="0.5" style="stroke: rgb(255, 0, 0);"></path>
  <path d="M 28.571 0 C 12.789 -0.004 -0.004 12.791 0 28.571" fill="none" stroke-width="0.5"
    style="stroke: rgb(255, 0, 0);"></path>
  <path d="M 0 393.675 C -0.004 409.454 12.789 422.249 28.571 422.245" fill="none"
    stroke-width="0.5" style="stroke: rgb(255, 0, 0);"></path>
  <path d="M 164.43 422.245 C 180.21 422.249 193.004 409.454 193 393.675" fill="none"
    stroke-width="0.5" style="stroke: rgb(255, 0, 0);"></path>
  <path d="M 193 28.571 C 193.004 12.791 180.21 -0.004 164.43 0" fill="none" stroke-width="0.5"
    style="stroke: rgb(255, 0, 0);"></path>
</svg>