<?xml version="1.0" encoding="UTF-8"?>
<svg xmlns="http://www.w3.org/2000/svg" viewBox="0 0 193 420" version="1.1">
  <path d="M 28.419 420 L 163.556 420" fill="none" stroke-width="0.5"
    style="stroke: rgb(255, 0, 0);"></path>
  <path d="M 0 28.419 L 0 391.582 L 0 28.419 Z" fill="none" stroke-width="0.5"
    style="stroke: rgb(255, 0, 0);"></path>
  <path d="M 191.974 391.582 L 191.974 28.419 L 191.974 391.582 Z" fill="none" stroke-width="0.5"
    style="stroke: rgb(255, 0, 0);"></path>
  <path d="M 40.495 87.129 L 108.871 87.129" fill="none" stroke-width="0.5"
    style="stroke: rgb(255, 0, 0);"></path>
  <path d="M312.8 261.09L312.8 261.09Z" fill="none" stroke="black" stroke-width="0.5"></path>
  <path d="M 108.871 87.129 L 113.754 86.75" fill="none" stroke-width="0.5"
    style="stroke: rgb(255, 0, 0);"></path>
  <path d="M 113.754 86.75 L 118.537 85.674" fill="none" stroke-width="0.5"
    style="stroke: rgb(255, 0, 0);"></path>
  <path d="M 118.537 85.674 L 123.1 83.88" fill="none" stroke-width="0.5"
    style="stroke: rgb(255, 0, 0);"></path>
  <path d="M 123.1 83.88 L 127.345 81.429" fill="none" stroke-width="0.5"
    style="stroke: rgb(255, 0, 0);"></path>
  <path d="M 127.345 81.429 L 131.191 78.36" fill="none" stroke-width="0.5"
    style="stroke: rgb(255, 0, 0);"></path>
  <path d="M 131.191 78.36 L 134.52 74.773" fill="none" stroke-width="0.5"
    style="stroke: rgb(255, 0, 0);"></path>
  <path d="M 134.52 74.773 L 137.29 70.707" fill="none" stroke-width="0.5"
    style="stroke: rgb(255, 0, 0);"></path>
  <path d="M 137.29 70.707 L 139.422 66.303" fill="none" stroke-width="0.5"
    style="stroke: rgb(255, 0, 0);"></path>
  <path d="M 139.422 66.303 L 140.857 61.6" fill="none" stroke-width="0.5"
    style="stroke: rgb(255, 0, 0);"></path>
  <path d="M 140.857 61.6 L 141.594 56.757" fill="none" stroke-width="0.5"
    style="stroke: rgb(255, 0, 0);"></path>
  <path d="M 141.594 56.757 L 141.594 51.855 L 141.594 56.757 Z" fill="none" stroke-width="0.5"
    style="stroke: rgb(255, 0, 0);"></path>
  <path d="M 141.594 51.855 L 140.857 47.012" fill="none" stroke-width="0.5"
    style="stroke: rgb(255, 0, 0);"></path>
  <path d="M 140.857 47.012 L 139.422 42.309" fill="none" stroke-width="0.5"
    style="stroke: rgb(255, 0, 0);"></path>
  <path d="M 139.422 42.309 L 137.29 37.905" fill="none" stroke-width="0.5"
    style="stroke: rgb(255, 0, 0);"></path>
  <path d="M 137.29 37.905 L 134.52 33.839" fill="none" stroke-width="0.5"
    style="stroke: rgb(255, 0, 0);"></path>
  <path d="M 134.52 33.839 L 131.191 30.252" fill="none" stroke-width="0.5"
    style="stroke: rgb(255, 0, 0);"></path>
  <path d="M 131.191 30.252 L 127.345 27.183" fill="none" stroke-width="0.5"
    style="stroke: rgb(255, 0, 0);"></path>
  <path d="M 127.345 27.183 L 123.1 24.732" fill="none" stroke-width="0.5"
    style="stroke: rgb(255, 0, 0);"></path>
  <path d="M 123.1 24.732 L 118.537 22.938" fill="none" stroke-width="0.5"
    style="stroke: rgb(255, 0, 0);"></path>
  <path d="M 118.537 22.938 L 113.754 21.862" fill="none" stroke-width="0.5"
    style="stroke: rgb(255, 0, 0);"></path>
  <path d="M 113.754 21.862 L 108.871 21.483" fill="none" stroke-width="0.5"
    style="stroke: rgb(255, 0, 0);"></path>
  <path d="M 108.871 21.483 L 40.495 21.483" fill="none" stroke-width="0.5"
    style="stroke: rgb(255, 0, 0);"></path>
  <path d="M278.49 228.15L278.49 228.15Z" fill="none" stroke="black" stroke-width="0.5"></path>
  <path d="M 40.495 21.483 L 35.593 21.862" fill="none" stroke-width="0.5"
    style="stroke: rgb(255, 0, 0);"></path>
  <path d="M 35.593 21.862 L 30.81 22.938" fill="none" stroke-width="0.5"
    style="stroke: rgb(255, 0, 0);"></path>
  <path d="M 30.81 22.938 L 26.246 24.732" fill="none" stroke-width="0.5"
    style="stroke: rgb(255, 0, 0);"></path>
  <path d="M 26.246 24.732 L 22.001 27.183" fill="none" stroke-width="0.5"
    style="stroke: rgb(255, 0, 0);"></path>
  <path d="M 22.001 27.183 L 18.155 30.252" fill="none" stroke-width="0.5"
    style="stroke: rgb(255, 0, 0);"></path>
  <path d="M 18.155 30.252 L 14.827 33.839" fill="none" stroke-width="0.5"
    style="stroke: rgb(255, 0, 0);"></path>
  <path d="M 14.827 33.839 L 12.057 37.905" fill="none" stroke-width="0.5"
    style="stroke: rgb(255, 0, 0);"></path>
  <path d="M 12.057 37.905 L 9.944 42.309" fill="none" stroke-width="0.5"
    style="stroke: rgb(255, 0, 0);"></path>
  <path d="M 9.944 42.309 L 8.49 47.012" fill="none" stroke-width="0.5"
    style="stroke: rgb(255, 0, 0);"></path>
  <path d="M 8.49 47.012 L 7.752 51.855" fill="none" stroke-width="0.5"
    style="stroke: rgb(255, 0, 0);"></path>
  <path d="M 7.752 51.855 L 7.752 56.757 L 7.752 51.855 Z" fill="none" stroke-width="0.5"
    style="stroke: rgb(255, 0, 0);"></path>
  <path d="M 7.752 56.757 L 8.49 61.6" fill="none" stroke-width="0.5"
    style="stroke: rgb(255, 0, 0);"></path>
  <path d="M 8.49 61.6 L 9.944 66.303" fill="none" stroke-width="0.5"
    style="stroke: rgb(255, 0, 0);"></path>
  <path d="M 9.944 66.303 L 12.057 70.707" fill="none" stroke-width="0.5"
    style="stroke: rgb(255, 0, 0);"></path>
  <path d="M 12.057 70.707 L 14.827 74.773" fill="none" stroke-width="0.5"
    style="stroke: rgb(255, 0, 0);"></path>
  <path d="M 14.827 74.773 L 18.155 78.36" fill="none" stroke-width="0.5"
    style="stroke: rgb(255, 0, 0);"></path>
  <path d="M 18.155 78.36 L 22.001 81.429" fill="none" stroke-width="0.5"
    style="stroke: rgb(255, 0, 0);"></path>
  <path d="M 22.001 81.429 L 26.246 83.88" fill="none" stroke-width="0.5"
    style="stroke: rgb(255, 0, 0);"></path>
  <path d="M 26.246 83.88 L 30.81 85.674" fill="none" stroke-width="0.5"
    style="stroke: rgb(255, 0, 0);"></path>
  <path d="M 30.81 85.674 L 35.593 86.75" fill="none" stroke-width="0.5"
    style="stroke: rgb(255, 0, 0);"></path>
  <path d="M 35.593 86.75 L 40.495 87.129" fill="none" stroke-width="0.5"
    style="stroke: rgb(255, 0, 0);"></path>
  <path d="M 163.556 0 L 28.419 0" fill="none" stroke-width="0.5" style="stroke: rgb(255, 0, 0);"></path>
  <path d="M 28.419 0 C 12.721 -0.004 -0.004 12.723 0 28.419" fill="none" stroke-width="0.5"
    style="stroke: rgb(255, 0, 0);"></path>
  <path d="M 0 391.582 C -0.004 407.277 12.721 420.004 28.419 420" fill="none" stroke-width="0.5"
    style="stroke: rgb(255, 0, 0);"></path>
  <path d="M 163.556 420 C 179.252 420.004 191.978 407.277 191.974 391.582" fill="none"
    stroke-width="0.5" style="stroke: rgb(255, 0, 0);"></path>
  <path d="M 191.974 28.419 C 191.978 12.723 179.252 -0.004 163.556 0" fill="none"
    stroke-width="0.5" style="stroke: rgb(255, 0, 0);"></path>
</svg>