<?xml version="1.0" encoding="UTF-8"?>
<svg id="_0" data-name="0" xmlns="http://www.w3.org/2000/svg" viewBox="0 0 178.32 400.13">
  <g id="LINE">
    <line x1="24.51" y1="399.88" x2="153.81" y2="399.88" fill="none" stroke="red" stroke-linecap="round" stroke-linejoin="round" stroke-width=".5"/>
  </g>
  <g id="LINE-2" data-name="LINE">
    <line x1=".25" y1="85.8" x2=".25" y2="375.62" fill="none" stroke="red" stroke-linecap="round" stroke-linejoin="round" stroke-width=".5"/>
  </g>
  <g id="LINE-3" data-name="LINE">
    <line x1="88.17" y1="30.45" x2="88.17" y2="58.65" fill="none" stroke="red" stroke-linecap="round" stroke-linejoin="round" stroke-width=".5"/>
  </g>
  <g id="LINE-4" data-name="LINE">
    <line x1="178.07" y1="375.62" x2="178.07" y2="24.51" fill="none" stroke="red" stroke-linecap="round" stroke-linejoin="round" stroke-width=".5"/>
  </g>
  <g id="LINE-5" data-name="LINE">
    <line x1="58.65" y1="88.17" x2="30.45" y2="88.17" fill="none" stroke="red" stroke-linecap="round" stroke-linejoin="round" stroke-width=".5"/>
  </g>
  <g id="LINE-6" data-name="LINE">
    <line x1="153.81" y1=".25" x2="85.79" y2=".25" fill="none" stroke="red" stroke-linecap="round" stroke-linejoin="round" stroke-width=".5"/>
  </g>
  <g id="ARC">
    <path d="M8.8,81.96c-2.12-1.89-5.37-1.69-7.25.43-.84.94-1.3,2.16-1.3,3.41" fill="none" stroke="red" stroke-linecap="round" stroke-linejoin="round" stroke-width=".5"/>
  </g>
  <g id="ARC-2" data-name="ARC">
    <path d="M85.79.25c-2.84,0-5.14,2.3-5.14,5.14,0,1.26.46,2.47,1.3,3.41" fill="none" stroke="red" stroke-linecap="round" stroke-linejoin="round" stroke-width=".5"/>
  </g>
  <g id="SPLINE">
    <path d="M81.95,8.8c.65.73,1.25,1.51,1.79,2.33,1.09,1.64,1.96,3.43,2.63,5.29.55,1.54.96,3.13,1.23,4.73s.42,3.2.49,4.81c.07,1.5.07,3,.07,4.5" fill="none" stroke="red" stroke-linecap="round" stroke-linejoin="round" stroke-width=".5"/>
  </g>
  <g id="SPLINE-2" data-name="SPLINE">
    <path d="M88.17,58.65c0,.91,0,1.81-.02,2.72-.03,1.82-.13,3.64-.37,5.45-.24,1.81-.64,3.6-1.22,5.34-.58,1.74-1.34,3.42-2.29,4.99s-2.05,2.97-3.34,4.22c-1.75,1.69-3.81,3.06-6.01,4.09-2.2,1.03-4.54,1.73-6.92,2.14s-4.8.53-7.2.56c-.71,0-1.43,0-2.14,0" fill="none" stroke="red" stroke-linecap="round" stroke-linejoin="round" stroke-width=".5"/>
  </g>
  <g id="SPLINE-3" data-name="SPLINE">
    <path d="M30.45,88.17c-.9,0-1.8,0-2.7-.02-1.8-.03-3.61-.13-5.41-.36s-3.59-.63-5.33-1.21-3.44-1.34-5.02-2.29c-1.13-.68-2.21-1.46-3.19-2.33" fill="none" stroke="red" stroke-linecap="round" stroke-linejoin="round" stroke-width=".5"/>
  </g>
  <g id="SPLINE-4" data-name="SPLINE">
    <path d="M.25,375.62c0,.93,0,1.85.03,2.78.05,1.85.15,3.7.44,5.52.23,1.46.6,2.9,1.12,4.28s1.2,2.7,2.03,3.91c.99,1.43,2.21,2.71,3.6,3.75s2.95,1.87,4.59,2.48c1.39.52,2.84.87,4.3,1.1s2.96.33,4.45.39c1.22.05,2.45.06,3.68.06" fill="none" stroke="red" stroke-linecap="round" stroke-linejoin="round" stroke-width=".5"/>
  </g>
  <g id="SPLINE-5" data-name="SPLINE">
    <path d="M153.81,399.88c.93,0,1.85,0,2.78-.03,1.85-.05,3.7-.15,5.52-.44,1.46-.23,2.9-.6,4.28-1.12s2.7-1.2,3.91-2.03c1.43-.99,2.71-2.21,3.75-3.6,1.05-1.39,1.87-2.95,2.48-4.59.52-1.39.87-2.84,1.1-4.3.23-1.47.33-2.96.39-4.45.05-1.22.06-2.45.06-3.68" fill="none" stroke="red" stroke-linecap="round" stroke-linejoin="round" stroke-width=".5"/>
  </g>
  <g id="SPLINE-6" data-name="SPLINE">
    <path d="M178.07,24.51c0-.93,0-1.85-.03-2.78-.05-1.85-.15-3.7-.44-5.52-.23-1.46-.6-2.9-1.12-4.28-.52-1.38-1.2-2.7-2.03-3.91-.99-1.43-2.21-2.71-3.6-3.75-1.39-1.05-2.95-1.87-4.59-2.48-1.39-.52-2.84-.87-4.3-1.1s-2.96-.33-4.45-.39c-1.22-.05-2.45-.06-3.68-.06" fill="none" stroke="red" stroke-linecap="round" stroke-linejoin="round" stroke-width=".5"/>
  </g>
</svg>