<?xml version="1.0" encoding="UTF-8"?>
<svg id="_0" data-name="0" xmlns="http://www.w3.org/2000/svg" viewBox="0 0 188.27 414.76">
  <g id="LINE">
    <line x1="15.27" y1="414.51" x2="172.99" y2="414.51" fill="none" stroke="red" stroke-linecap="round" stroke-linejoin="round" stroke-width=".5"/>
  </g>
  <g id="LINE-2" data-name="LINE">
    <line x1=".25" y1="85.99" x2=".25" y2="399.48" fill="none" stroke="red" stroke-linecap="round" stroke-linejoin="round" stroke-width=".5"/>
  </g>
  <g id="LINE-3" data-name="LINE">
    <line x1="86.59" y1="28.84" x2="86.59" y2="57.04" fill="none" stroke="red" stroke-linecap="round" stroke-linejoin="round" stroke-width=".5"/>
  </g>
  <g id="LINE-4" data-name="LINE">
    <line x1="188.02" y1="399.48" x2="188.02" y2="15.27" fill="none" stroke="red" stroke-linecap="round" stroke-linejoin="round" stroke-width=".5"/>
  </g>
  <g id="LINE-5" data-name="LINE">
    <line x1="57.1" y1="86.54" x2="28.31" y2="86.54" fill="none" stroke="red" stroke-linecap="round" stroke-linejoin="round" stroke-width=".5"/>
  </g>
  <g id="LINE-6" data-name="LINE">
    <line x1="172.99" y1=".25" x2="86.09" y2=".25" fill="none" stroke="red" stroke-linecap="round" stroke-linejoin="round" stroke-width=".5"/>
  </g>
  <g id="ARC">
    <path d="M.25,399.48c0,8.3,6.73,15.02,15.02,15.02" fill="none" stroke="red" stroke-linecap="round" stroke-linejoin="round" stroke-width=".5"/>
  </g>
  <g id="ARC-2" data-name="ARC">
    <path d="M64.79,93.86c1.07-2.77-.3-5.89-3.08-6.97-.63-.25-1.31-.37-1.99-.36" fill="none" stroke="red" stroke-linecap="round" stroke-linejoin="round" stroke-width=".5"/>
  </g>
  <g id="ARC-3" data-name="ARC">
    <path d="M86.09.25c-2.97,0-5.39,2.41-5.39,5.39,0,1.15.37,2.27,1.05,3.2" fill="none" stroke="red" stroke-linecap="round" stroke-linejoin="round" stroke-width=".5"/>
  </g>
  <g id="ARC-4" data-name="ARC">
    <path d="M8.84,81.66c-2.39-1.77-5.76-1.27-7.53,1.12-.69.93-1.06,2.05-1.06,3.21" fill="none" stroke="red" stroke-linecap="round" stroke-linejoin="round" stroke-width=".5"/>
  </g>
  <g id="ARC-5" data-name="ARC">
    <path d="M172.99,414.51c8.3,0,15.02-6.73,15.02-15.02" fill="none" stroke="red" stroke-linecap="round" stroke-linejoin="round" stroke-width=".5"/>
  </g>
  <g id="ARC-6" data-name="ARC">
    <path d="M64.79,93.86c-6.27,16.21,1.78,34.43,17.99,40.7s34.43-1.78,40.7-17.99c6.27-16.21-1.78-34.43-17.99-40.7-4.41-1.71-9.15-2.4-13.86-2.02" fill="none" stroke="red" stroke-linecap="round" stroke-linejoin="round" stroke-width=".5"/>
  </g>
  <g id="ARC-7" data-name="ARC">
    <path d="M188.02,15.27c0-8.3-6.73-15.02-15.02-15.02" fill="none" stroke="red" stroke-linecap="round" stroke-linejoin="round" stroke-width=".5"/>
  </g>
  <g id="ARC-8" data-name="ARC">
    <path d="M85.92,67.42c-.59,2.92,1.3,5.76,4.22,6.34.49.1.99.13,1.49.09" fill="none" stroke="red" stroke-linecap="round" stroke-linejoin="round" stroke-width=".5"/>
  </g>
  <g id="SPLINE">
    <path d="M86.59,57.04c0,.84,0,1.69,0,2.54-.01,1.69-.07,3.4-.25,5.09-.1.92-.24,1.84-.42,2.75" fill="none" stroke="red" stroke-linecap="round" stroke-linejoin="round" stroke-width=".5"/>
  </g>
  <g id="SPLINE-2" data-name="SPLINE">
    <path d="M81.75,8.83c.6.81,1.14,1.66,1.62,2.54.97,1.76,1.7,3.65,2.2,5.6.41,1.58.67,3.2.82,4.82.15,1.62.19,3.24.2,4.86,0,.73,0,1.47,0,2.2" fill="none" stroke="red" stroke-linecap="round" stroke-linejoin="round" stroke-width=".5"/>
  </g>
  <g id="SPLINE-3" data-name="SPLINE">
    <path d="M28.31,86.54c-.84,0-1.68,0-2.52-.01-1.68-.02-3.37-.1-5.05-.31s-3.35-.55-4.97-1.05-3.19-1.18-4.67-2.03c-.79-.45-1.54-.94-2.27-1.48" fill="none" stroke="red" stroke-linecap="round" stroke-linejoin="round" stroke-width=".5"/>
  </g>
  <g id="SPLINE-4" data-name="SPLINE">
    <path d="M59.72,86.53c-.83,0-1.66,0-2.49,0-.04,0-.08,0-.13,0" fill="none" stroke="red" stroke-linecap="round" stroke-linejoin="round" stroke-width=".5"/>
  </g>
</svg>