<?xml version="1.0" encoding="UTF-8"?>
<svg id="_0" data-name="0" xmlns="http://www.w3.org/2000/svg" viewBox="0 0 186.26 398.11">
  <line x1="165.56" y1=".25" x2="71.98" y2=".25" fill="none" stroke="red" stroke-linecap="round" stroke-linejoin="round" stroke-width=".5"/>
  <path d="M71.98.25c-2.97,0-5.39,2.41-5.39,5.39,0,1.49.62,2.92,1.71,3.94" fill="none" stroke="red" stroke-linecap="round" stroke-linejoin="round" stroke-width=".5"/>
  <line x1="76.06" y1="31.72" x2="76.06" y2="47.27" fill="none" stroke="red" stroke-linecap="round" stroke-linejoin="round" stroke-width=".5"/>
  <path d="M68.31,9.57c.74.69,1.43,1.43,2.07,2.22,1.28,1.57,2.35,3.31,3.18,5.16s1.43,3.79,1.81,5.77.58,3.99.65,5.99c.04,1,.04,2.01.03,3.01" fill="none" stroke="red" stroke-linecap="round" stroke-linejoin="round" stroke-width=".5"/>
  <path d="M76.06,47.26c.01.99,0,1.99-.03,2.99-.07,2-.26,4-.64,5.96-.44,2.28-1.16,4.52-2.2,6.61s-2.39,4.03-4,5.72-3.5,3.11-5.55,4.23-4.25,1.92-6.52,2.43-4.58.75-6.89.83c-.99.03-1.98.04-2.97.02" fill="none" stroke="red" stroke-linecap="round" stroke-linejoin="round" stroke-width=".5"/>
  <line x1="47.27" y1="76.06" x2="31.72" y2="76.06" fill="none" stroke="red" stroke-linecap="round" stroke-linejoin="round" stroke-width=".5"/>
  <path d="M31.72,76.06c-1,.01-2,0-3.01-.03-2.01-.07-4.02-.26-6-.65s-3.92-.98-5.77-1.82-3.59-1.9-5.16-3.19c-.78-.64-1.52-1.33-2.21-2.07" fill="none" stroke="red" stroke-linecap="round" stroke-linejoin="round" stroke-width=".5"/>
  <path d="M9.57,68.31c-2.03-2.17-5.44-2.29-7.61-.26-1.09,1.02-1.71,2.44-1.71,3.94" fill="none" stroke="red" stroke-linecap="round" stroke-linejoin="round" stroke-width=".5"/>
  <line x1=".25" y1="71.98" x2=".25" y2="377.41" fill="none" stroke="red" stroke-linecap="round" stroke-linejoin="round" stroke-width=".5"/>
  <path d="M.25,377.41c0,11.29,9.15,20.45,20.45,20.45" fill="none" stroke="red" stroke-linecap="round" stroke-linejoin="round" stroke-width=".5"/>
  <line x1="20.7" y1="397.86" x2="165.56" y2="397.86" fill="none" stroke="red" stroke-linecap="round" stroke-linejoin="round" stroke-width=".5"/>
  <path d="M165.56,397.86c11.29,0,20.45-9.15,20.45-20.45" fill="none" stroke="red" stroke-linecap="round" stroke-linejoin="round" stroke-width=".5"/>
  <line x1="186.01" y1="377.41" x2="186.01" y2="20.7" fill="none" stroke="red" stroke-linecap="round" stroke-linejoin="round" stroke-width=".5"/>
  <path d="M186.01,20.7c0-11.29-9.15-20.45-20.45-20.45" fill="none" stroke="red" stroke-linecap="round" stroke-linejoin="round" stroke-width=".5"/>
  <circle cx="93.13" cy="110.64" r="31.61" fill="none" stroke="red" stroke-linecap="round" stroke-linejoin="round" stroke-width=".5"/>
</svg>