<?xml version="1.0" encoding="UTF-8"?>
<svg id="_0" data-name="0" xmlns="http://www.w3.org/2000/svg" viewBox="0 0 179.65 390.41">
  <line x1="16.12" y1="390.16" x2="163.53" y2="390.16" fill="none" stroke="red" stroke-linecap="round" stroke-linejoin="round" stroke-width=".5"/>
  <line x1=".25" y1="84.64" x2=".25" y2="374.28" fill="none" stroke="red" stroke-linecap="round" stroke-linejoin="round" stroke-width=".5"/>
  <line x1="84.42" y1="28.07" x2="84.42" y2="56.28" fill="none" stroke="red" stroke-linecap="round" stroke-linejoin="round" stroke-width=".5"/>
  <line x1="179.4" y1="374.28" x2="179.4" y2="16.12" fill="none" stroke="red" stroke-linecap="round" stroke-linejoin="round" stroke-width=".5"/>
  <line x1="55.22" y1="84.67" x2="27.82" y2="84.67" fill="none" stroke="red" stroke-linecap="round" stroke-linejoin="round" stroke-width=".5"/>
  <line x1="163.53" y1=".25" x2="84.21" y2=".25" fill="none" stroke="red" stroke-linecap="round" stroke-linejoin="round" stroke-width=".5"/>
  <path d="M.25,374.28c0,8.77,7.11,15.87,15.87,15.87" fill="none" stroke="red" stroke-linecap="round" stroke-linejoin="round" stroke-width=".5"/>
  <path d="M8.76,80.25c-2.42-1.73-5.79-1.16-7.51,1.26-.65.91-1,2-1,3.12" fill="none" stroke="red" stroke-linecap="round" stroke-linejoin="round" stroke-width=".5"/>
  <path d="M60.28,91.91c1.02-2.79-.41-5.89-3.21-6.91-.59-.22-1.22-.33-1.85-.33" fill="none" stroke="red" stroke-linecap="round" stroke-linejoin="round" stroke-width=".5"/>
  <path d="M163.53,390.16c8.77,0,15.87-7.11,15.87-15.87" fill="none" stroke="red" stroke-linecap="round" stroke-linejoin="round" stroke-width=".5"/>
  <path d="M60.28,91.91c-5.97,16.32,2.41,34.39,18.73,40.36s34.39-2.41,40.36-18.73-2.41-34.39-18.73-40.36c-3.6-1.32-7.41-1.97-11.24-1.91" fill="none" stroke="red" stroke-linecap="round" stroke-linejoin="round" stroke-width=".5"/>
  <path d="M179.4,16.12c0-8.77-7.11-15.87-15.87-15.87" fill="none" stroke="red" stroke-linecap="round" stroke-linejoin="round" stroke-width=".5"/>
  <path d="M84,65.07c-.44,2.94,1.59,5.68,4.53,6.13.29.04.58.06.87.06" fill="none" stroke="red" stroke-linecap="round" stroke-linejoin="round" stroke-width=".5"/>
  <path d="M84.21.25c-2.97,0-5.39,2.41-5.39,5.39,0,1.14.36,2.25,1.04,3.17" fill="none" stroke="red" stroke-linecap="round" stroke-linejoin="round" stroke-width=".5"/>
  <path d="M27.82,84.67c-.85,0-1.69,0-2.54,0-1.7-.01-3.4-.07-5.1-.26-2-.22-4-.64-5.91-1.31s-3.82-1.64-5.5-2.83" fill="none" stroke="red" stroke-linecap="round" stroke-linejoin="round" stroke-width=".5"/>
  <path d="M84.42,56.28c0,.84,0,1.69,0,2.54-.02,2.09-.1,4.18-.41,6.26" fill="none" stroke="red" stroke-linecap="round" stroke-linejoin="round" stroke-width=".5"/>
  <path d="M79.86,8.81c.58.79,1.1,1.62,1.56,2.48.93,1.72,1.62,3.57,2.09,5.47s.71,3.83.82,5.77.09,3.71.09,5.55" fill="none" stroke="red" stroke-linecap="round" stroke-linejoin="round" stroke-width=".5"/>
</svg>