<?xml version="1.0" encoding="UTF-8"?>
<svg id="_0" data-name="0" xmlns="http://www.w3.org/2000/svg" viewBox="0 0 191.53 330.72">
  <path d="M8.46,1.55C6.48-.28,3.39-.17,1.55,1.81.72,2.72.25,3.9.25,5.14" fill="none" stroke="red" stroke-linecap="round" stroke-linejoin="round" stroke-width=".5"/>
  <path d="M8.46,1.55c7.09,6.58,16.41,10.23,26.08,10.23" fill="none" stroke="red" stroke-linecap="round" stroke-linejoin="round" stroke-width=".5"/>
  <line x1=".25" y1="5.14" x2=".25" y2="302.42" fill="none" stroke="red" stroke-linecap="round" stroke-linejoin="round" stroke-width=".5"/>
  <line x1="156.99" y1="11.79" x2="34.54" y2="11.79" fill="none" stroke="red" stroke-linecap="round" stroke-linejoin="round" stroke-width=".5"/>
  <path d="M156.99,11.79c9.67,0,18.99-3.66,26.08-10.23" fill="none" stroke="red" stroke-linecap="round" stroke-linejoin="round" stroke-width=".5"/>
  <path d="M191.28,5.14c0-2.7-2.19-4.89-4.89-4.89-1.23,0-2.42.47-3.32,1.3" fill="none" stroke="red" stroke-linecap="round" stroke-linejoin="round" stroke-width=".5"/>
  <line x1="191.28" y1="302.42" x2="191.28" y2="5.14" fill="none" stroke="red" stroke-linecap="round" stroke-linejoin="round" stroke-width=".5"/>
  <path d="M163.23,330.47c15.49,0,28.05-12.56,28.05-28.05" fill="none" stroke="red" stroke-linecap="round" stroke-linejoin="round" stroke-width=".5"/>
  <line x1="28.3" y1="330.47" x2="163.23" y2="330.47" fill="none" stroke="red" stroke-linecap="round" stroke-linejoin="round" stroke-width=".5"/>
  <path d="M.25,302.42c0,15.49,12.56,28.05,28.05,28.05" fill="none" stroke="red" stroke-linecap="round" stroke-linejoin="round" stroke-width=".5"/>
</svg>