<?xml version="1.0" encoding="UTF-8"?>
<svg id="_x30_" xmlns="http://www.w3.org/2000/svg" version="1.1" viewBox="0 0 1700.8 963.8">
  <!-- Generator: Adobe Illustrator 29.7.1, SVG Export Plug-In . SVG Version: 2.1.1 Build 8)  -->
  <defs>
    <style>
      .st0 {
        fill: none;
        stroke: red;
        stroke-linecap: round;
        stroke-linejoin: round;
        stroke-width: .5px;
      }
    </style>
  </defs>
  <path class="st0" d="M736.9,269.3c-2-1.8-5.1-1.7-6.9.3s-1.3,2.1-1.3,3.3"/>
  <path class="st0" d="M736.9,269.3c7.1,6.6,16.4,10.2,26.1,10.2"/>
  <line class="st0" x1="728.6" y1="272.9" x2="728.6" y2="570.2"/>
  <line class="st0" x1="885.4" y1="279.6" x2="762.9" y2="279.6"/>
  <path class="st0" d="M885.4,279.6c9.7,0,19-3.7,26.1-10.2"/>
  <path class="st0" d="M919.7,272.9c0-2.7-2.2-4.9-4.9-4.9s-2.4.5-3.3,1.3"/>
  <line class="st0" x1="919.7" y1="570.2" x2="919.7" y2="272.9"/>
  <path class="st0" d="M891.6,598.2c15.5,0,28.1-12.6,28.1-28.1"/>
  <line class="st0" x1="756.7" y1="598.2" x2="891.6" y2="598.2"/>
  <path class="st0" d="M728.6,570.2c0,15.5,12.6,28.1,28.1,28.1"/>
</svg>